#N canvas 179 217 829 116 12;
#X obj 9 9 inlet;
#X obj 9 53 t b b b b b b b b b b b b b b b b, f 109;
#X obj 9 77 outlet;
#X obj 59 77 outlet;
#X obj 110 77 outlet;
#X obj 161 77 outlet;
#X obj 211 77 outlet;
#X obj 262 77 outlet;
#X obj 313 77 outlet;
#X obj 363 77 outlet;
#X obj 414 77 outlet;
#X obj 465 77 outlet;
#X obj 515 77 outlet;
#X obj 566 77 outlet;
#X obj 617 77 outlet;
#X obj 667 77 outlet;
#X obj 718 77 outlet;
#X obj 769 77 outlet;
#X obj 9 33 bng 15 250 50 0 empty empty empty 17 7 0 10 #fcfcfc #000000
#000000;
#X text 218 13 /// BANG INLET TO BANG OUTLETS FROM RIGHT TO LEFT.;
#X connect 0 0 18 0;
#X connect 1 0 2 0;
#X connect 1 1 3 0;
#X connect 1 2 4 0;
#X connect 1 3 5 0;
#X connect 1 4 6 0;
#X connect 1 5 7 0;
#X connect 1 6 8 0;
#X connect 1 7 9 0;
#X connect 1 8 10 0;
#X connect 1 9 11 0;
#X connect 1 10 12 0;
#X connect 1 11 13 0;
#X connect 1 12 14 0;
#X connect 1 13 15 0;
#X connect 1 14 16 0;
#X connect 1 15 17 0;
#X connect 18 0 1 0;
