#N canvas 82 275 980 351 12;
#X obj 170 129 inlet;
#X obj 152 280 f;
#X obj 152 304 outlet;
#X obj 220 129 inlet;
#X obj 202 280 f;
#X obj 202 304 outlet;
#X obj 270 129 inlet;
#X obj 252 280 f;
#X obj 252 304 outlet;
#X obj 320 129 inlet;
#X obj 302 280 f;
#X obj 302 304 outlet;
#X obj 370 129 inlet;
#X obj 352 280 f;
#X obj 352 304 outlet;
#X obj 420 129 inlet;
#X obj 402 280 f;
#X obj 402 304 outlet;
#X obj 470 129 inlet;
#X obj 452 280 f;
#X obj 452 304 outlet;
#X obj 520 129 inlet;
#X obj 502 280 f;
#X obj 502 304 outlet;
#X obj 570 129 inlet;
#X obj 552 280 f;
#X obj 552 304 outlet;
#X obj 620 129 inlet;
#X obj 602 280 f;
#X obj 602 304 outlet;
#X obj 670 129 inlet;
#X obj 652 280 f;
#X obj 652 304 outlet;
#X obj 720 129 inlet;
#X obj 702 280 f;
#X obj 702 304 outlet;
#X obj 770 129 inlet;
#X obj 752 280 f;
#X obj 752 304 outlet;
#X obj 820 129 inlet;
#X obj 802 280 f;
#X obj 802 304 outlet;
#X obj 870 129 inlet;
#X obj 852 280 f;
#X obj 852 304 outlet;
#X obj 920 129 inlet;
#X obj 902 280 f;
#X obj 902 304 outlet;
#X obj 31 129 inlet;
#X obj 31 153 bng 15 250 50 0 empty empty empty 17 7 0 10 #fcfcfc #000000
#000000;
#X obj 31 173 16bng, f 124;
#X text 259 24 /// PASS FLOATS TO ALL INLETS EXCEPT THE FIRST. \; ///
THEY WILL EACH BE CACHED. \; /// BANG FIRST INLET TO RETURN THE FLOATS
IN \; /// RIGHT-TO-LEFT ORDER FROM THE OUTLETS.;
#X connect 0 0 1 1;
#X connect 1 0 2 0;
#X connect 3 0 4 1;
#X connect 4 0 5 0;
#X connect 6 0 7 1;
#X connect 7 0 8 0;
#X connect 9 0 10 1;
#X connect 10 0 11 0;
#X connect 12 0 13 1;
#X connect 13 0 14 0;
#X connect 15 0 16 1;
#X connect 16 0 17 0;
#X connect 18 0 19 1;
#X connect 19 0 20 0;
#X connect 21 0 22 1;
#X connect 22 0 23 0;
#X connect 24 0 25 1;
#X connect 25 0 26 0;
#X connect 27 0 28 1;
#X connect 28 0 29 0;
#X connect 30 0 31 1;
#X connect 31 0 32 0;
#X connect 33 0 34 1;
#X connect 34 0 35 0;
#X connect 36 0 37 1;
#X connect 37 0 38 0;
#X connect 39 0 40 1;
#X connect 40 0 41 0;
#X connect 42 0 43 1;
#X connect 43 0 44 0;
#X connect 45 0 46 1;
#X connect 46 0 47 0;
#X connect 48 0 49 0;
#X connect 49 0 50 0;
#X connect 50 0 1 0;
#X connect 50 1 4 0;
#X connect 50 2 7 0;
#X connect 50 3 10 0;
#X connect 50 4 13 0;
#X connect 50 5 16 0;
#X connect 50 6 19 0;
#X connect 50 7 22 0;
#X connect 50 8 25 0;
#X connect 50 9 28 0;
#X connect 50 10 31 0;
#X connect 50 11 34 0;
#X connect 50 12 37 0;
#X connect 50 13 40 0;
#X connect 50 14 43 0;
#X connect 50 15 46 0;
