#N canvas 836 246 832 300 12;
#X obj 7 101 inlet;
#X obj 7 247 outlet;
#X obj 764 247 outlet;
#X obj 53 247 outlet;
#X obj 99 247 outlet;
#X obj 145 247 outlet;
#X obj 191 247 outlet;
#X obj 237 247 outlet;
#X obj 283 247 outlet;
#X obj 329 247 outlet;
#X obj 375 247 outlet;
#X obj 421 247 outlet;
#X obj 467 247 outlet;
#X obj 513 247 outlet;
#X obj 559 247 outlet;
#X obj 605 247 outlet;
#X obj 651 247 outlet;
#X obj 697 247 outlet;
#X obj 7 125 route \$1;
#X obj 53 149 route \$2;
#X obj 99 175 route \$3;
#X obj 145 199 route \$4;
#X obj 191 125 route \$5;
#X obj 237 149 route \$6;
#X obj 283 175 route \$7;
#X obj 329 199 route \$8;
#X obj 375 125 route \$9;
#X obj 421 149 route \$10;
#X obj 467 175 route \$11;
#X obj 513 199 route \$12;
#X obj 559 125 route \$13;
#X obj 605 149 route \$14;
#X obj 651 175 route \$15;
#X obj 697 199 route \$16, f 10;
#X text 14 9 /// LIKE [route] \, EXCEPT IT ALLOWS REPEATED CREATION
ARGS. \; /// THE LAST OUTLET IS THE INPUT VALUE \, IF IT DIDN'T MATCH
\; /// ONE OF THE CREATION ARGS. OTHERWISE \, IF THERE IS A \; ///
MATCH \, ONE OF THE OUTLETS WILL GIVE THE NORMAL [route] \; /// OUTPUT.
;
#X connect 0 0 18 0;
#X connect 18 0 1 0;
#X connect 18 1 19 0;
#X connect 19 0 3 0;
#X connect 19 1 20 0;
#X connect 20 0 4 0;
#X connect 20 1 21 0;
#X connect 21 0 5 0;
#X connect 21 1 22 0;
#X connect 22 0 6 0;
#X connect 22 1 23 0;
#X connect 23 0 7 0;
#X connect 23 1 24 0;
#X connect 24 0 8 0;
#X connect 24 1 25 0;
#X connect 25 0 9 0;
#X connect 25 1 26 0;
#X connect 26 0 10 0;
#X connect 26 1 27 0;
#X connect 27 0 11 0;
#X connect 27 1 28 0;
#X connect 28 0 12 0;
#X connect 28 1 29 0;
#X connect 29 0 13 0;
#X connect 29 1 30 0;
#X connect 30 0 14 0;
#X connect 30 1 31 0;
#X connect 31 0 15 0;
#X connect 31 1 32 0;
#X connect 32 0 16 0;
#X connect 32 1 33 0;
#X connect 33 0 17 0;
#X connect 33 1 2 0;
