#N canvas 823 206 901 289 12;
#X obj 7 101 inlet;
#X obj 7 247 outlet;
#X obj 764 247 outlet;
#X obj 7 125 sel \$1;
#X obj 53 149 sel \$2;
#X obj 99 175 sel \$3;
#X obj 145 199 sel \$4;
#X obj 191 125 sel \$5;
#X obj 237 149 sel \$6;
#X obj 283 175 sel \$7;
#X obj 329 199 sel \$8;
#X obj 375 125 sel \$9;
#X obj 421 149 sel \$10;
#X obj 467 175 sel \$11;
#X obj 513 199 sel \$12;
#X obj 559 125 sel \$13;
#X obj 605 149 sel \$14;
#X obj 651 175 sel \$15;
#X obj 697 199 sel \$16, f 10;
#X text 14 9 /// LIKE [sel] \, EXCEPT IT ALLOWS REPEATED CREATION ARGS.
\; /// THE LAST OUTLET IS THE INPUT VALUE \, IF IT DIDN'T MATCH \;
/// ONE OF THE CREATION ARGS. OTHERWISE \, IF THERE IS A \; /// MATCH
\, ONE OF THE OUTLETS WILL BANG.;
#X obj 53 247 outlet;
#X obj 99 247 outlet;
#X obj 145 247 outlet;
#X obj 191 247 outlet;
#X obj 237 247 outlet;
#X obj 283 247 outlet;
#X obj 329 247 outlet;
#X obj 375 247 outlet;
#X obj 421 247 outlet;
#X obj 467 247 outlet;
#X obj 513 247 outlet;
#X obj 559 247 outlet;
#X obj 605 247 outlet;
#X obj 651 247 outlet;
#X obj 697 247 outlet;
#X connect 0 0 3 0;
#X connect 3 0 1 0;
#X connect 3 1 4 0;
#X connect 4 0 20 0;
#X connect 4 1 5 0;
#X connect 5 0 21 0;
#X connect 5 1 6 0;
#X connect 6 0 22 0;
#X connect 6 1 7 0;
#X connect 7 0 23 0;
#X connect 7 1 8 0;
#X connect 8 0 24 0;
#X connect 8 1 9 0;
#X connect 9 0 25 0;
#X connect 9 1 10 0;
#X connect 10 0 26 0;
#X connect 10 1 11 0;
#X connect 11 0 27 0;
#X connect 11 1 12 0;
#X connect 12 0 28 0;
#X connect 12 1 13 0;
#X connect 13 0 29 0;
#X connect 13 1 14 0;
#X connect 14 0 30 0;
#X connect 14 1 15 0;
#X connect 15 0 31 0;
#X connect 15 1 16 0;
#X connect 16 0 32 0;
#X connect 16 1 17 0;
#X connect 17 0 33 0;
#X connect 17 1 18 0;
#X connect 18 0 34 0;
#X connect 18 1 2 0;
