#N canvas 0 38 1512 883 12;
#X obj 3466 129 inlet;
#X obj 1317 129 inlet;
#X obj 1277 435 fbank8, f 17;
#X obj 1447 129 inlet;
#X obj 1407 435 fbank8, f 17;
#X obj 1577 129 inlet;
#X obj 1537 435 fbank8, f 17;
#X obj 1707 129 inlet;
#X obj 1667 435 fbank8, f 17;
#X obj 1837 129 inlet;
#X obj 1797 435 fbank8, f 17;
#X obj 1967 129 inlet;
#X obj 1927 435 fbank8, f 17;
#X obj 2097 129 inlet;
#X obj 2057 435 fbank8, f 17;
#X obj 2227 129 inlet;
#X obj 2187 435 fbank8, f 17;
#X obj 2357 129 inlet;
#X obj 2317 435 fbank8, f 17;
#X obj 2487 129 inlet;
#X obj 2447 435 fbank8, f 17;
#X obj 2617 129 inlet;
#X obj 2577 435 fbank8, f 17;
#X obj 2747 129 inlet;
#X obj 2707 435 fbank8, f 17;
#X obj 2877 129 inlet;
#X obj 2837 435 fbank8, f 17;
#X obj 3007 129 inlet;
#X obj 2967 435 fbank8, f 17;
#X obj 3137 129 inlet;
#X obj 3097 435 fbank8, f 17;
#X obj 3267 129 inlet;
#X obj 3227 435 fbank8, f 17;
#X obj 1268 265 sel 1 2 3 4 5 6 7 8, f 286;
#X obj 1268 289 bng 15 250 50 0 empty empty empty 17 7 0 10 #fcfcfc
#000000 #000000;
#X obj 1268 309 16bng, f 33;
#X obj 1516 289 bng 15 250 50 0 empty empty empty 17 7 0 10 #fcfcfc
#000000 #000000;
#X obj 1516 309 16bng, f 33;
#X obj 1767 289 bng 15 250 50 0 empty empty empty 17 7 0 10 #fcfcfc
#000000 #000000;
#X obj 1767 309 16bng, f 33;
#X obj 2017 289 bng 15 250 50 0 empty empty empty 17 7 0 10 #fcfcfc
#000000 #000000;
#X obj 2017 309 16bng, f 33;
#X obj 2267 289 bng 15 250 50 0 empty empty empty 17 7 0 10 #fcfcfc
#000000 #000000;
#X obj 2267 309 16bng, f 33;
#X obj 2517 289 bng 15 250 50 0 empty empty empty 17 7 0 10 #fcfcfc
#000000 #000000;
#X obj 2517 309 16bng, f 33;
#X obj 2767 289 bng 15 250 50 0 empty empty empty 17 7 0 10 #fcfcfc
#000000 #000000;
#X obj 2767 309 16bng, f 33;
#X obj 3017 289 bng 15 250 50 0 empty empty empty 17 7 0 10 #fcfcfc
#000000 #000000;
#X obj 3017 309 16bng, f 33;
#X obj 1040 837 outlet;
#X text 973 436 steps ->;
#X text 5 553 saved sequences ->;
#X obj 1268 153 route save recall;
#X obj 1326 201 sel 1 2 3 4 5 6 7 8, f 286;
#X text 1205 265 save ->;
#X text 1191 201 recall ->;
#X obj 3325 225 print INVALID_RECALL_ID;
#X obj 3267 289 print INVALID_SAVE_ID;
#X obj 1384 177 print INVALID_COMMAND;
#X obj 1040 129 inlet;
#X obj 1040 674 16step, f 313;
#X obj 1326 225 bng 15 250 50 0 empty empty empty 17 7 0 10 #fcfcfc
#000000 #000000;
#X obj 1575 225 bng 15 250 50 0 empty empty empty 17 7 0 10 #fcfcfc
#000000 #000000;
#X obj 1825 225 bng 15 250 50 0 empty empty empty 17 7 0 10 #fcfcfc
#000000 #000000;
#X obj 2075 225 bng 15 250 50 0 empty empty empty 17 7 0 10 #fcfcfc
#000000 #000000;
#X obj 2325 225 bng 15 250 50 0 empty empty empty 17 7 0 10 #fcfcfc
#000000 #000000;
#X obj 2575 225 bng 15 250 50 0 empty empty empty 17 7 0 10 #fcfcfc
#000000 #000000;
#X obj 2825 225 bng 15 250 50 0 empty empty empty 17 7 0 10 #fcfcfc
#000000 #000000;
#X obj 3075 225 bng 15 250 50 0 empty empty empty 17 7 0 10 #fcfcfc
#000000 #000000;
#X obj 147 554 16f, f 81;
#X obj 723 554 16f, f 81;
#X obj 1299 554 16f, f 81;
#X obj 1875 554 16f, f 81;
#X obj 2451 554 16f, f 81;
#X obj 3027 554 16f, f 81;
#X obj 3603 554 16f, f 81;
#X obj 4179 554 16f, f 81;
#X text 1145 10 /// FIRST 17 INLETS BEHAVE JUST LIKE [16step]. \; ///
FINAL INLET ACCEPTS MESSAGES OF THE FORM "save 3" \; /// OR "recall
5" \, WITH NUMBERS RANGING FROM 1-8 \, \; /// INCLUSIVE. USE THESE
TO SAVE AND RECALL PATTERNS.;
#X text 1037 105 step #;
#X text 1319 104 next 16 inlets are step seq values.;
#X text 3439 107 last inlet is for e.g. \, "save 7" or "recall 8" messages
;
#X connect 0 0 53 0;
#X connect 1 0 2 0;
#X connect 2 0 61 1;
#X connect 2 1 70 1;
#X connect 2 2 71 1;
#X connect 2 3 72 1;
#X connect 2 4 73 1;
#X connect 2 5 74 1;
#X connect 2 6 75 1;
#X connect 2 7 76 1;
#X connect 2 8 77 1;
#X connect 3 0 4 0;
#X connect 4 0 61 2;
#X connect 4 1 70 2;
#X connect 4 2 71 2;
#X connect 4 3 72 2;
#X connect 4 4 73 2;
#X connect 4 5 74 2;
#X connect 4 6 75 2;
#X connect 4 7 76 2;
#X connect 4 8 77 2;
#X connect 5 0 6 0;
#X connect 6 0 61 3;
#X connect 6 1 70 3;
#X connect 6 2 71 3;
#X connect 6 3 72 3;
#X connect 6 4 73 3;
#X connect 6 5 74 3;
#X connect 6 6 75 3;
#X connect 6 7 76 3;
#X connect 6 8 77 3;
#X connect 7 0 8 0;
#X connect 8 0 61 4;
#X connect 8 1 70 4;
#X connect 8 2 71 4;
#X connect 8 3 72 4;
#X connect 8 4 73 4;
#X connect 8 5 74 4;
#X connect 8 6 75 4;
#X connect 8 7 76 4;
#X connect 8 8 77 4;
#X connect 9 0 10 0;
#X connect 10 0 61 5;
#X connect 10 1 70 5;
#X connect 10 2 71 5;
#X connect 10 3 72 5;
#X connect 10 4 73 5;
#X connect 10 5 74 5;
#X connect 10 6 75 5;
#X connect 10 7 76 5;
#X connect 10 8 77 5;
#X connect 11 0 12 0;
#X connect 12 0 61 6;
#X connect 12 1 70 6;
#X connect 12 2 71 6;
#X connect 12 3 72 6;
#X connect 12 4 73 6;
#X connect 12 5 74 6;
#X connect 12 6 75 6;
#X connect 12 7 76 6;
#X connect 12 8 77 6;
#X connect 13 0 14 0;
#X connect 14 0 61 7;
#X connect 14 1 70 7;
#X connect 14 2 71 7;
#X connect 14 3 72 7;
#X connect 14 4 73 7;
#X connect 14 5 74 7;
#X connect 14 6 75 7;
#X connect 14 7 76 7;
#X connect 14 8 77 7;
#X connect 15 0 16 0;
#X connect 16 0 61 8;
#X connect 16 1 70 8;
#X connect 16 2 71 8;
#X connect 16 3 72 8;
#X connect 16 4 73 8;
#X connect 16 5 74 8;
#X connect 16 6 75 8;
#X connect 16 7 76 8;
#X connect 16 8 77 8;
#X connect 17 0 18 0;
#X connect 18 0 61 9;
#X connect 18 1 70 9;
#X connect 18 2 71 9;
#X connect 18 3 72 9;
#X connect 18 4 73 9;
#X connect 18 5 74 9;
#X connect 18 6 75 9;
#X connect 18 7 76 9;
#X connect 18 8 77 9;
#X connect 19 0 20 0;
#X connect 20 0 61 10;
#X connect 20 1 70 10;
#X connect 20 2 71 10;
#X connect 20 3 72 10;
#X connect 20 4 73 10;
#X connect 20 5 74 10;
#X connect 20 6 75 10;
#X connect 20 7 76 10;
#X connect 20 8 77 10;
#X connect 21 0 22 0;
#X connect 22 0 61 11;
#X connect 22 1 70 11;
#X connect 22 2 71 11;
#X connect 22 3 72 11;
#X connect 22 4 73 11;
#X connect 22 5 74 11;
#X connect 22 6 75 11;
#X connect 22 7 76 11;
#X connect 22 8 77 11;
#X connect 23 0 24 0;
#X connect 24 0 61 12;
#X connect 24 1 70 12;
#X connect 24 2 71 12;
#X connect 24 3 72 12;
#X connect 24 4 73 12;
#X connect 24 5 74 12;
#X connect 24 6 75 12;
#X connect 24 7 76 12;
#X connect 24 8 77 12;
#X connect 25 0 26 0;
#X connect 26 0 61 13;
#X connect 26 1 70 13;
#X connect 26 2 71 13;
#X connect 26 3 72 13;
#X connect 26 4 73 13;
#X connect 26 5 74 13;
#X connect 26 6 75 13;
#X connect 26 7 76 13;
#X connect 26 8 77 13;
#X connect 27 0 28 0;
#X connect 28 0 61 14;
#X connect 28 1 70 14;
#X connect 28 2 71 14;
#X connect 28 3 72 14;
#X connect 28 4 73 14;
#X connect 28 5 74 14;
#X connect 28 6 75 14;
#X connect 28 7 76 14;
#X connect 28 8 77 14;
#X connect 29 0 30 0;
#X connect 30 0 61 15;
#X connect 30 1 70 15;
#X connect 30 2 71 15;
#X connect 30 3 72 15;
#X connect 30 4 73 15;
#X connect 30 5 74 15;
#X connect 30 6 75 15;
#X connect 30 7 76 15;
#X connect 30 8 77 15;
#X connect 31 0 32 0;
#X connect 32 0 61 16;
#X connect 32 1 70 16;
#X connect 32 2 71 16;
#X connect 32 3 72 16;
#X connect 32 4 73 16;
#X connect 32 5 74 16;
#X connect 32 6 75 16;
#X connect 32 7 76 16;
#X connect 32 8 77 16;
#X connect 33 0 34 0;
#X connect 33 1 36 0;
#X connect 33 2 38 0;
#X connect 33 3 40 0;
#X connect 33 4 42 0;
#X connect 33 5 44 0;
#X connect 33 6 46 0;
#X connect 33 7 48 0;
#X connect 33 8 58 0;
#X connect 34 0 35 0;
#X connect 35 0 2 1;
#X connect 35 1 4 1;
#X connect 35 2 6 1;
#X connect 35 3 8 1;
#X connect 35 4 10 1;
#X connect 35 5 12 1;
#X connect 35 6 14 1;
#X connect 35 7 16 1;
#X connect 35 8 18 1;
#X connect 35 9 20 1;
#X connect 35 10 22 1;
#X connect 35 11 24 1;
#X connect 35 12 26 1;
#X connect 35 13 28 1;
#X connect 35 14 30 1;
#X connect 35 15 32 1;
#X connect 36 0 37 0;
#X connect 37 0 2 2;
#X connect 37 1 4 2;
#X connect 37 2 6 2;
#X connect 37 3 8 2;
#X connect 37 4 10 2;
#X connect 37 5 12 2;
#X connect 37 6 14 2;
#X connect 37 7 16 2;
#X connect 37 8 18 2;
#X connect 37 9 20 2;
#X connect 37 10 22 2;
#X connect 37 11 24 2;
#X connect 37 12 26 2;
#X connect 37 13 28 2;
#X connect 37 14 30 2;
#X connect 37 15 32 2;
#X connect 38 0 39 0;
#X connect 39 0 2 3;
#X connect 39 1 4 3;
#X connect 39 2 6 3;
#X connect 39 3 8 3;
#X connect 39 4 10 3;
#X connect 39 5 12 3;
#X connect 39 6 14 3;
#X connect 39 7 16 3;
#X connect 39 8 18 3;
#X connect 39 9 20 3;
#X connect 39 10 22 3;
#X connect 39 11 24 3;
#X connect 39 12 26 3;
#X connect 39 13 28 3;
#X connect 39 14 30 3;
#X connect 39 15 32 3;
#X connect 40 0 41 0;
#X connect 41 0 2 4;
#X connect 41 1 4 4;
#X connect 41 2 6 4;
#X connect 41 3 8 4;
#X connect 41 4 10 4;
#X connect 41 5 12 4;
#X connect 41 6 14 4;
#X connect 41 7 16 4;
#X connect 41 8 18 4;
#X connect 41 9 20 4;
#X connect 41 10 22 4;
#X connect 41 11 24 4;
#X connect 41 12 26 4;
#X connect 41 13 28 4;
#X connect 41 14 30 4;
#X connect 41 15 32 4;
#X connect 42 0 43 0;
#X connect 43 0 2 5;
#X connect 43 1 4 5;
#X connect 43 2 6 5;
#X connect 43 3 8 5;
#X connect 43 4 10 5;
#X connect 43 5 12 5;
#X connect 43 6 14 5;
#X connect 43 7 16 5;
#X connect 43 8 18 5;
#X connect 43 9 20 5;
#X connect 43 10 22 5;
#X connect 43 11 24 5;
#X connect 43 12 26 5;
#X connect 43 13 28 5;
#X connect 43 14 30 5;
#X connect 43 15 32 5;
#X connect 44 0 45 0;
#X connect 45 0 2 6;
#X connect 45 1 4 6;
#X connect 45 2 6 6;
#X connect 45 3 8 6;
#X connect 45 4 10 6;
#X connect 45 5 12 6;
#X connect 45 6 14 6;
#X connect 45 7 16 6;
#X connect 45 8 18 6;
#X connect 45 9 20 6;
#X connect 45 10 22 6;
#X connect 45 11 24 6;
#X connect 45 12 26 6;
#X connect 45 13 28 6;
#X connect 45 14 30 6;
#X connect 45 15 32 6;
#X connect 46 0 47 0;
#X connect 47 0 2 7;
#X connect 47 1 4 7;
#X connect 47 2 6 7;
#X connect 47 3 8 7;
#X connect 47 4 10 7;
#X connect 47 5 12 7;
#X connect 47 6 14 7;
#X connect 47 7 16 7;
#X connect 47 8 18 7;
#X connect 47 9 20 7;
#X connect 47 10 22 7;
#X connect 47 11 24 7;
#X connect 47 12 26 7;
#X connect 47 13 28 7;
#X connect 47 14 30 7;
#X connect 47 15 32 7;
#X connect 48 0 49 0;
#X connect 49 0 2 8;
#X connect 49 1 4 8;
#X connect 49 2 6 8;
#X connect 49 3 8 8;
#X connect 49 4 10 8;
#X connect 49 5 12 8;
#X connect 49 6 14 8;
#X connect 49 7 16 8;
#X connect 49 8 18 8;
#X connect 49 9 20 8;
#X connect 49 10 22 8;
#X connect 49 11 24 8;
#X connect 49 12 26 8;
#X connect 49 13 28 8;
#X connect 49 14 30 8;
#X connect 49 15 32 8;
#X connect 53 0 33 0;
#X connect 53 1 54 0;
#X connect 53 2 59 0;
#X connect 54 0 62 0;
#X connect 54 1 63 0;
#X connect 54 2 64 0;
#X connect 54 3 65 0;
#X connect 54 4 66 0;
#X connect 54 5 67 0;
#X connect 54 6 68 0;
#X connect 54 7 69 0;
#X connect 54 8 57 0;
#X connect 60 0 61 0;
#X connect 61 0 50 0;
#X connect 62 0 70 0;
#X connect 63 0 71 0;
#X connect 64 0 72 0;
#X connect 65 0 73 0;
#X connect 66 0 74 0;
#X connect 67 0 75 0;
#X connect 68 0 76 0;
#X connect 69 0 77 0;
#X connect 70 0 2 0;
#X connect 70 1 4 0;
#X connect 70 2 6 0;
#X connect 70 3 8 0;
#X connect 70 4 10 0;
#X connect 70 5 12 0;
#X connect 70 6 14 0;
#X connect 70 7 16 0;
#X connect 70 8 18 0;
#X connect 70 9 20 0;
#X connect 70 10 22 0;
#X connect 70 11 24 0;
#X connect 70 12 26 0;
#X connect 70 13 28 0;
#X connect 70 14 30 0;
#X connect 70 15 32 0;
#X connect 71 0 2 0;
#X connect 71 1 4 0;
#X connect 71 2 6 0;
#X connect 71 3 8 0;
#X connect 71 4 10 0;
#X connect 71 5 12 0;
#X connect 71 6 14 0;
#X connect 71 7 16 0;
#X connect 71 8 18 0;
#X connect 71 9 20 0;
#X connect 71 10 22 0;
#X connect 71 11 24 0;
#X connect 71 12 26 0;
#X connect 71 13 28 0;
#X connect 71 14 30 0;
#X connect 71 15 32 0;
#X connect 72 0 2 0;
#X connect 72 1 4 0;
#X connect 72 2 6 0;
#X connect 72 3 8 0;
#X connect 72 4 10 0;
#X connect 72 5 12 0;
#X connect 72 6 14 0;
#X connect 72 7 16 0;
#X connect 72 8 18 0;
#X connect 72 9 20 0;
#X connect 72 10 22 0;
#X connect 72 11 24 0;
#X connect 72 12 26 0;
#X connect 72 13 28 0;
#X connect 72 14 30 0;
#X connect 72 15 32 0;
#X connect 73 0 2 0;
#X connect 73 1 4 0;
#X connect 73 2 6 0;
#X connect 73 3 8 0;
#X connect 73 4 10 0;
#X connect 73 5 12 0;
#X connect 73 6 14 0;
#X connect 73 7 16 0;
#X connect 73 8 18 0;
#X connect 73 9 20 0;
#X connect 73 10 22 0;
#X connect 73 11 24 0;
#X connect 73 12 26 0;
#X connect 73 13 28 0;
#X connect 73 14 30 0;
#X connect 73 15 32 0;
#X connect 74 0 2 0;
#X connect 74 1 4 0;
#X connect 74 2 6 0;
#X connect 74 3 8 0;
#X connect 74 4 10 0;
#X connect 74 5 12 0;
#X connect 74 6 14 0;
#X connect 74 7 16 0;
#X connect 74 8 18 0;
#X connect 74 9 20 0;
#X connect 74 10 22 0;
#X connect 74 11 24 0;
#X connect 74 12 26 0;
#X connect 74 13 28 0;
#X connect 74 14 30 0;
#X connect 74 15 32 0;
#X connect 75 0 2 0;
#X connect 75 1 4 0;
#X connect 75 2 6 0;
#X connect 75 3 8 0;
#X connect 75 4 10 0;
#X connect 75 5 12 0;
#X connect 75 6 14 0;
#X connect 75 7 16 0;
#X connect 75 8 18 0;
#X connect 75 9 20 0;
#X connect 75 10 22 0;
#X connect 75 11 24 0;
#X connect 75 12 26 0;
#X connect 75 13 28 0;
#X connect 75 14 30 0;
#X connect 75 15 32 0;
#X connect 76 0 2 0;
#X connect 76 1 4 0;
#X connect 76 2 6 0;
#X connect 76 3 8 0;
#X connect 76 4 10 0;
#X connect 76 5 12 0;
#X connect 76 6 14 0;
#X connect 76 7 16 0;
#X connect 76 8 18 0;
#X connect 76 9 20 0;
#X connect 76 10 22 0;
#X connect 76 11 24 0;
#X connect 76 12 26 0;
#X connect 76 13 28 0;
#X connect 76 14 30 0;
#X connect 76 15 32 0;
#X connect 77 0 2 0;
#X connect 77 1 4 0;
#X connect 77 2 6 0;
#X connect 77 3 8 0;
#X connect 77 4 10 0;
#X connect 77 5 12 0;
#X connect 77 6 14 0;
#X connect 77 7 16 0;
#X connect 77 8 18 0;
#X connect 77 9 20 0;
#X connect 77 10 22 0;
#X connect 77 11 24 0;
#X connect 77 12 26 0;
#X connect 77 13 28 0;
#X connect 77 14 30 0;
#X connect 77 15 32 0;
