#N canvas 344 579 941 453 10;
#X obj 18 38 inlet;
#X obj 18 314 outlet;
#X obj 18 149 bng 15 250 50 0 empty empty empty 17 7 0 10 -262144 -1
-1;
#X obj 60 149 bng 15 250 50 0 empty empty empty 17 7 0 10 -262144 -1
-1;
#X obj 92 150 bng 15 250 50 0 empty empty empty 17 7 0 10 -262144 -1
-1;
#X obj 124 148 bng 15 250 50 0 empty empty empty 17 7 0 10 -262144
-1 -1;
#X obj 156 150 bng 15 250 50 0 empty empty empty 17 7 0 10 -262144
-1 -1;
#X obj 188 151 bng 15 250 50 0 empty empty empty 17 7 0 10 -262144
-1 -1;
#X obj 220 151 bng 15 250 50 0 empty empty empty 17 7 0 10 -262144
-1 -1;
#X obj 252 152 bng 15 250 50 0 empty empty empty 17 7 0 10 -262144
-1 -1;
#X obj 284 150 bng 15 250 50 0 empty empty empty 17 7 0 10 -262144
-1 -1;
#X obj 316 152 bng 15 250 50 0 empty empty empty 17 7 0 10 -262144
-1 -1;
#X obj 355 150 bng 15 250 50 0 empty empty empty 17 7 0 10 -262144
-1 -1;
#X obj 394 150 bng 15 250 50 0 empty empty empty 17 7 0 10 -262144
-1 -1;
#X obj 433 151 bng 15 250 50 0 empty empty empty 17 7 0 10 -262144
-1 -1;
#X obj 472 149 bng 15 250 50 0 empty empty empty 17 7 0 10 -262144
-1 -1;
#X obj 511 151 bng 15 250 50 0 empty empty empty 17 7 0 10 -262144
-1 -1;
#X obj 550 152 bng 15 250 50 0 empty empty empty 17 7 0 10 -262144
-1 -1;
#X obj 82 66 inlet;
#X obj 121 66 inlet;
#X obj 160 66 inlet;
#X obj 199 66 inlet;
#X obj 238 66 inlet;
#X obj 277 66 inlet;
#X obj 316 66 inlet;
#X obj 355 66 inlet;
#X obj 394 66 inlet;
#X obj 433 66 inlet;
#X obj 472 66 inlet;
#X obj 511 66 inlet;
#X obj 550 66 inlet;
#X obj 589 66 inlet;
#X obj 628 66 inlet;
#X obj 667 66 inlet;
#X obj 18 118 sel 0 1 2 3 4 5 6 7 8 9 10 11 12 13 14 15, f 81;
#X text 12 10 0-index of which note to play;
#X text 277 19 \$1 - \$16 are the values to emit;
#X obj 796 64 inlet save-and-recall;
#X obj 79 195 memory;
#X obj 119 195 memory;
#X obj 159 195 memory;
#X obj 199 195 memory;
#X obj 239 195 memory;
#X obj 279 195 memory;
#X obj 319 195 memory;
#X obj 359 195 memory;
#X obj 399 195 memory;
#X obj 439 195 memory;
#X obj 479 195 memory;
#X obj 519 195 memory;
#X obj 559 195 memory;
#X obj 599 195 memory;
#X obj 639 195 memory;
#X obj 679 195 memory;
#X obj 79 216 f \$1;
#X obj 119 216 f \$2;
#X obj 159 216 f \$3;
#X obj 199 216 f \$4;
#X obj 239 216 f \$5;
#X obj 279 216 f \$6;
#X obj 319 216 f \$7;
#X obj 359 216 f \$8;
#X obj 399 216 f \$9;
#X obj 439 216 f \$10;
#X obj 479 216 f \$11;
#X obj 519 216 f \$12;
#X obj 559 216 f \$13;
#X obj 599 216 f \$14;
#X obj 639 216 f \$15;
#X obj 679 216 f \$16;
#X connect 0 0 34 0;
#X connect 2 0 54 0;
#X connect 3 0 55 0;
#X connect 4 0 56 0;
#X connect 5 0 57 0;
#X connect 6 0 58 0;
#X connect 7 0 59 0;
#X connect 8 0 60 0;
#X connect 9 0 61 0;
#X connect 10 0 62 0;
#X connect 11 0 63 0;
#X connect 12 0 64 0;
#X connect 13 0 65 0;
#X connect 14 0 66 0;
#X connect 15 0 67 0;
#X connect 16 0 68 0;
#X connect 17 0 69 0;
#X connect 18 0 38 0;
#X connect 19 0 39 0;
#X connect 20 0 40 0;
#X connect 21 0 41 0;
#X connect 22 0 42 0;
#X connect 23 0 43 0;
#X connect 24 0 44 0;
#X connect 25 0 45 0;
#X connect 26 0 46 0;
#X connect 27 0 47 0;
#X connect 28 0 48 0;
#X connect 29 0 49 0;
#X connect 30 0 50 0;
#X connect 31 0 51 0;
#X connect 32 0 52 0;
#X connect 33 0 53 0;
#X connect 34 0 2 0;
#X connect 34 1 3 0;
#X connect 34 2 4 0;
#X connect 34 3 5 0;
#X connect 34 4 6 0;
#X connect 34 5 7 0;
#X connect 34 6 8 0;
#X connect 34 7 9 0;
#X connect 34 8 10 0;
#X connect 34 9 11 0;
#X connect 34 10 12 0;
#X connect 34 11 13 0;
#X connect 34 12 14 0;
#X connect 34 13 15 0;
#X connect 34 14 16 0;
#X connect 34 15 17 0;
#X connect 37 0 53 1;
#X connect 37 0 52 1;
#X connect 37 0 51 1;
#X connect 37 0 50 1;
#X connect 37 0 49 1;
#X connect 37 0 48 1;
#X connect 37 0 47 1;
#X connect 37 0 46 1;
#X connect 37 0 45 1;
#X connect 37 0 44 1;
#X connect 37 0 43 1;
#X connect 37 0 42 1;
#X connect 37 0 41 1;
#X connect 37 0 40 1;
#X connect 37 0 39 1;
#X connect 37 0 38 1;
#X connect 38 0 54 0;
#X connect 39 0 55 0;
#X connect 40 0 56 0;
#X connect 41 0 57 0;
#X connect 42 0 58 0;
#X connect 43 0 59 0;
#X connect 44 0 60 0;
#X connect 45 0 61 0;
#X connect 46 0 62 0;
#X connect 47 0 63 0;
#X connect 48 0 64 0;
#X connect 49 0 65 0;
#X connect 50 0 66 0;
#X connect 51 0 67 0;
#X connect 52 0 68 0;
#X connect 53 0 69 0;
#X connect 54 0 1 0;
#X connect 55 0 1 0;
#X connect 56 0 1 0;
#X connect 57 0 1 0;
#X connect 58 0 1 0;
#X connect 59 0 1 0;
#X connect 60 0 1 0;
#X connect 61 0 1 0;
#X connect 62 0 1 0;
#X connect 63 0 1 0;
#X connect 64 0 1 0;
#X connect 65 0 1 0;
#X connect 66 0 1 0;
#X connect 67 0 1 0;
#X connect 68 0 1 0;
#X connect 69 0 1 0;
