#N canvas 0 38 350 326 12;
#X obj 15 214 soundfiler;
#X obj 15 165 pack s s;
#X obj 15 21 loadbang;
#X obj 15 69 symbol \$1;
#X msg 68 141 symbol \$1;
#X obj 15 262 s \$1-sample-count;
#X obj 15 45 del 5;
#X obj 15 93 t s s, f 8;
#X msg 15 117 symbol ~/Samples/pd/\$1.wav;
#X obj 197 30 table clip-\$1;
#X msg 15 189 read -resize \$1 clip-\$2;
#X obj 15 238 f;
#X obj 147 228 r \$1-sample-count-request;
#X obj 147 252 bng 15 250 50 0 empty empty empty 17 7 0 10 #fcfcfc
#000000 #000000;
#X connect 0 0 11 0;
#X connect 1 0 10 0;
#X connect 2 0 6 0;
#X connect 3 0 7 0;
#X connect 4 0 1 1;
#X connect 6 0 3 0;
#X connect 7 0 8 0;
#X connect 7 1 4 0;
#X connect 8 0 1 0;
#X connect 10 0 0 0;
#X connect 11 0 5 0;
#X connect 12 0 13 0;
#X connect 13 0 11 0;
