#N canvas 0 25 350 271 12;
#X obj 15 214 soundfiler;
#X obj 15 165 pack s s;
#X obj 15 21 loadbang;
#X obj 15 69 symbol \$1;
#X msg 68 141 symbol \$1;
#X msg 15 117 symbol ./Samples/\$1.wav;
#X obj 197 30 table clip-\$1-L;
#X obj 197 49 table clip-\$1-R;
#X obj 15 238 s \$1-sample-count;
#X obj 15 45 del 5;
#X obj 15 93 t s s, f 8;
#X obj 203 231 print samples_\$1;
#X msg 15 189 read -resize \$1 clip-\$2-L clip-\$2-R;
#X connect 0 0 8 0;
#X connect 0 0 11 0;
#X connect 1 0 12 0;
#X connect 2 0 9 0;
#X connect 3 0 10 0;
#X connect 4 0 1 1;
#X connect 5 0 1 0;
#X connect 9 0 3 0;
#X connect 10 0 5 0;
#X connect 10 1 4 0;
#X connect 12 0 0 0;
