#N canvas 498 536 664 300 12;
#X obj 251 121 loadbang;
#X obj 251 169 s \$1-sample-count-request;
#X obj 251 145 t b b, f 7;
#X obj 298 193 del 1;
#X obj 298 217 bng 15 250 50 0 empty empty empty 17 7 0 10 #fcfcfc
#000000 #000000;
#X obj 298 237 outlet;
#X text 93 20 //// FIRST BANGS \, TO ALLOW ANY CREATION ARGS IN PARENT
PATCH TO SET SAMPLE COUNT (I.E. \, HVCC-FROM-UNITY WORKFLOW). THEN
WAITS 1MS AND FIRES OFF A REQUEST FOR THE SAMPLE COUNT TO BE FULFILLED
BY [__sample~] (I.E. \, PD-ONLY JAMMING WORKFLOW).;
#X connect 0 0 2 0;
#X connect 2 0 1 0;
#X connect 2 1 3 0;
#X connect 3 0 4 0;
#X connect 4 0 5 0;
