#N canvas 841 332 732 224 12;
#X obj 68 28 unityinput, f 86;
#X obj 68 52 songplumbing 250 16, f 86;
#N canvas 605 236 1031 737 instr 0;
#X obj 417 72 route button1;
#X obj 417 96 binarystatetimer;
#X obj 755 358 crackle~;
#X obj 821 358 noise~;
#X obj 755 382 *~, f 10;
#X obj 417 120 unpack f f;
#X obj 417 144 sel 0 1;
#X obj 514 654 vcf~ 8;
#X obj 464 211 line~;
#X obj 155 268 fm~ 5 5 500;
#X obj 155 103 quantized 60 62 63 65 67 68 70 72;
#X obj 322 75 bng 15 250 50 0 empty empty empty 17 7 0 10 -262144 -1
-1;
#X obj 248 271 envgen~ 1 20 0.3 200 0 200;
#X obj 155 292 *~;
#X obj 322 138 random 3000;
#X obj 322 162 + 200;
#X msg 463 186 8000 300;
#X obj 90 244 line;
#X obj 104 189 random 200;
#X obj 89 216 pack f f;
#X obj 77 163 t f b;
#X obj 155 51 random 100;
#X obj 155 75 scaled 0 100 60 72;
#X obj 240 140 random 10;
#X obj 324 360 f;
#X obj 325 335 bng 15 250 50 0 empty empty empty 17 7 0 10 -262144
-1 -1;
#X obj 324 384 min 2000;
#X obj 402 509 ducker~;
#X obj 230 407 hip~ 500;
#X obj 123 450 ks~ 5 0.98;
#X obj 127 398 maybe 0.3;
#X obj 123 474 vibrato~ 2 2;
#X msg 274 351 0;
#X obj 737 406 *~;
#X obj 645 259 random 100;
#X obj 645 331 line~;
#X obj 55 548 osc~;
#X obj 54 501 mtof;
#X obj 54 279 maybe 0.3;
#X obj 54 303 t b f;
#X obj 34 636 *~;
#X obj 55 572 vibrato~ 1 1;
#X obj 645 283 scaled 0 100 0.3 1;
#X obj 259 447 echo~ 80;
#X obj 804 83 f;
#X obj 803 61 bng 15 250 50 0 empty empty empty 17 7 0 10 -262144 -1
-1;
#X obj 804 131 sel 1;
#X obj 804 155 bng 15 250 50 0 empty empty empty 17 7 0 10 -262144
-1 -1;
#X obj 821 268 *~ 0.6;
#X obj 54 525 * 0.25;
#X obj 804 175 snare~ 500 0.6 240;
#X obj 902 235 echo~ 60 0.8;
#X obj 804 107 < 75;
#X msg 645 307 \$1 100;
#X obj 34 612 envgen~ 1 5 0.3 500 0 200;
#X obj 34 660 *~ 0.8;
#X obj 510 297 bng 15 250 50 0 empty empty empty 17 7 0 10 -262144
-1 -1;
#X obj 510 317 f;
#X obj 510 365 sel 1;
#X obj 510 389 bng 15 250 50 0 empty empty empty 17 7 0 10 -262144
-1 -1;
#X obj 544 387 bng 15 250 50 0 empty empty empty 17 7 0 10 -262144
-1 -1;
#X msg 558 406 0 20;
#X obj 511 438 line;
#X obj 399 459 echo~ 320;
#X obj 510 341 > 1500;
#X msg 510 409 0.9 20;
#X msg 532 185 600 300;
#X obj 324 408 scaled 0 2000 0 0.85;
#X obj 737 430 *~ 0.7;
#X obj 166 141 random 10;
#X obj 417 32 inlet;
#X obj 553 682 outlet~;
#X obj 804 199 distortion~ 1;
#X connect 0 0 1 0;
#X connect 1 0 5 0;
#X connect 1 0 11 0;
#X connect 2 0 4 0;
#X connect 3 0 4 1;
#X connect 4 0 33 1;
#X connect 5 0 6 0;
#X connect 5 1 24 1;
#X connect 5 1 44 1;
#X connect 5 1 57 1;
#X connect 6 0 16 0;
#X connect 6 0 25 0;
#X connect 6 0 34 0;
#X connect 6 0 56 0;
#X connect 6 1 66 0;
#X connect 6 1 32 0;
#X connect 6 1 45 0;
#X connect 7 1 71 0;
#X connect 8 0 7 1;
#X connect 9 0 13 0;
#X connect 10 0 20 0;
#X connect 11 0 14 0;
#X connect 11 0 21 0;
#X connect 11 0 23 0;
#X connect 11 0 69 0;
#X connect 11 0 12 0;
#X connect 12 0 13 1;
#X connect 13 0 7 0;
#X connect 13 0 28 0;
#X connect 14 0 15 0;
#X connect 15 0 9 3;
#X connect 16 0 8 0;
#X connect 17 0 9 0;
#X connect 18 0 19 1;
#X connect 19 0 17 0;
#X connect 20 0 19 0;
#X connect 20 0 30 0;
#X connect 20 0 38 0;
#X connect 20 1 18 0;
#X connect 21 0 22 0;
#X connect 22 0 10 0;
#X connect 23 0 9 2;
#X connect 24 0 26 0;
#X connect 25 0 24 0;
#X connect 26 0 67 0;
#X connect 27 0 7 0;
#X connect 27 1 7 0;
#X connect 28 0 43 0;
#X connect 29 0 31 0;
#X connect 30 0 29 0;
#X connect 31 0 28 0;
#X connect 31 0 7 0;
#X connect 32 0 43 2;
#X connect 33 0 68 0;
#X connect 34 0 42 0;
#X connect 35 0 33 0;
#X connect 36 0 41 0;
#X connect 37 0 49 0;
#X connect 38 0 39 0;
#X connect 39 0 54 0;
#X connect 39 1 37 0;
#X connect 40 0 55 0;
#X connect 41 0 40 1;
#X connect 42 0 53 0;
#X connect 43 0 27 0;
#X connect 43 0 63 0;
#X connect 44 0 52 0;
#X connect 45 0 44 0;
#X connect 46 0 47 0;
#X connect 47 0 50 0;
#X connect 48 0 27 0;
#X connect 49 0 36 0;
#X connect 50 0 72 0;
#X connect 51 0 27 1;
#X connect 52 0 46 0;
#X connect 53 0 35 0;
#X connect 54 0 40 0;
#X connect 55 0 7 0;
#X connect 56 0 57 0;
#X connect 57 0 64 0;
#X connect 58 0 59 0;
#X connect 58 1 60 0;
#X connect 59 0 65 0;
#X connect 60 0 61 0;
#X connect 61 0 62 0;
#X connect 62 0 63 2;
#X connect 63 0 27 0;
#X connect 64 0 58 0;
#X connect 65 0 62 0;
#X connect 66 0 8 0;
#X connect 67 0 43 2;
#X connect 68 0 27 1;
#X connect 69 0 9 1;
#X connect 70 0 0 0;
#X connect 72 0 48 0;
#X connect 72 0 51 0;
#X restore 68 76 pd instr;
#X obj 68 148 out~;
#X connect 0 0 1 0;
#X connect 0 1 1 1;
#X connect 0 2 1 2;
#X connect 0 3 1 3;
#X connect 1 0 2 0;
#X connect 2 0 3 0;
#X connect 2 0 3 1;
