#N canvas 0 479 1280 299 12;
#X obj 83 208 out~;
#X obj 83 12 unityinput, f 89;
#N canvas 132 268 750 300 instr 0;
#X obj 104 156 mtof;
#X obj 104 180 osc~;
#X obj 104 204 *~, f 43;
#X obj 400 132 adsr~ 5 100 0.4 100;
#X obj 104 228 outlet~;
#X floatatom 65 149 5 0 0 0 - - -;
#X obj 400 108 t f f, f 26;
#X obj 579 132 sel 1;
#X floatatom 358 133 5 0 0 0 - - -;
#X obj 104 132 quantized 36 38 39 41 43 44 46 48;
#X obj 104 108 scaled -1 1 36 48;
#X obj 104 33 inlet;
#X obj 104 57 route axis2 button1, f 85;
#X obj 400 81 buttonmemory 1;
#X obj 104 81 axismemory 1;
#X connect 0 0 1 0;
#X connect 1 0 2 0;
#X connect 2 0 4 0;
#X connect 3 0 2 1;
#X connect 6 0 3 0;
#X connect 6 0 8 0;
#X connect 6 1 7 0;
#X connect 7 0 14 1;
#X connect 9 0 0 0;
#X connect 9 0 5 0;
#X connect 10 0 9 0;
#X connect 11 0 12 0;
#X connect 12 0 14 0;
#X connect 12 1 13 0;
#X connect 13 0 6 0;
#X connect 14 0 10 0;
#X restore 83 84 pd instr;
#N canvas 427 478 709 300 instr 0;
#X obj 66 32 inlet;
#X obj 66 60 route axis2 button1, f 85;
#X obj 66 162 mtof;
#X obj 66 186 osc~;
#X obj 66 210 *~, f 43;
#X obj 362 138 adsr~ 5 100 0.4 100;
#X obj 66 234 outlet~;
#X floatatom 27 155 5 0 0 0 - - -;
#X obj 362 114 t f f, f 26;
#X obj 541 138 sel 1;
#X floatatom 320 139 5 0 0 0 - - -;
#X obj 66 114 scaled -1 1 48 60;
#X obj 66 138 quantized 48 50 51 53 55 57 58 60;
#X obj 66 84 axismemory 2;
#X obj 362 85 buttonmemory 2;
#X connect 0 0 1 0;
#X connect 1 0 13 0;
#X connect 1 1 14 0;
#X connect 2 0 3 0;
#X connect 3 0 4 0;
#X connect 4 0 6 0;
#X connect 5 0 4 1;
#X connect 8 0 5 0;
#X connect 8 0 10 0;
#X connect 8 1 9 0;
#X connect 9 0 13 1;
#X connect 11 0 12 0;
#X connect 12 0 2 0;
#X connect 12 0 7 0;
#X connect 13 0 11 0;
#X connect 14 0 8 0;
#X restore 154 84 pd instr;
#X obj 83 36 songplumbing 250 16, f 89;
#N canvas 427 478 709 300 instr 0;
#X obj 66 32 inlet;
#X obj 66 56 route axis2 button1, f 85;
#X obj 66 200 *~, f 43;
#X obj 362 128 adsr~ 5 100 0.4 100;
#X obj 66 254 outlet~;
#X floatatom 27 145 5 0 0 0 - - -;
#X obj 362 104 t f f, f 26;
#X obj 541 128 sel 1;
#X floatatom 320 129 5 0 0 0 - - -;
#X obj 66 128 quantized 60 62 63 65 67 68 70 72;
#X obj 66 104 scaled -1 1 60 72;
#X obj 96 224 echo~ 166.667 0.5;
#X obj 66 176 ks~ 15 0.99;
#X obj 66 80 axismemory 3;
#X obj 362 80 buttonmemory 3;
#X connect 0 0 1 0;
#X connect 1 0 13 0;
#X connect 1 1 14 0;
#X connect 2 0 4 0;
#X connect 2 0 11 0;
#X connect 3 0 2 1;
#X connect 6 0 3 0;
#X connect 6 0 8 0;
#X connect 6 1 7 0;
#X connect 7 0 13 1;
#X connect 9 0 5 0;
#X connect 9 0 12 0;
#X connect 10 0 9 0;
#X connect 11 0 4 0;
#X connect 12 0 2 0;
#X connect 13 0 10 0;
#X connect 14 0 6 0;
#X restore 226 84 pd instr;
#N canvas 427 478 709 300 instr 0;
#X obj 66 32 inlet;
#X obj 66 56 route axis2 button1, f 85;
#X obj 66 152 mtof;
#X obj 66 176 osc~;
#X obj 66 200 *~, f 43;
#X obj 362 128 adsr~ 5 100 0.4 100;
#X obj 66 224 outlet~;
#X floatatom 27 145 5 0 0 0 - - -;
#X obj 362 104 t f f, f 26;
#X obj 541 128 sel 1;
#X floatatom 320 129 5 0 0 0 - - -;
#X obj 66 128 quantized 72 74 75 77 79 80 82 84;
#X obj 66 104 scaled -1 1 72 84;
#X obj 66 80 axismemory 4;
#X obj 362 78 buttonmemory 4;
#X connect 0 0 1 0;
#X connect 1 0 13 0;
#X connect 1 1 14 0;
#X connect 2 0 3 0;
#X connect 3 0 4 0;
#X connect 4 0 6 0;
#X connect 5 0 4 1;
#X connect 8 0 5 0;
#X connect 8 0 10 0;
#X connect 8 1 9 0;
#X connect 9 0 13 1;
#X connect 11 0 2 0;
#X connect 11 0 7 0;
#X connect 12 0 11 0;
#X connect 13 0 12 0;
#X connect 14 0 8 0;
#X restore 297 84 pd instr;
#X obj 83 135 *~ 1, f 36;
#N canvas 0 23 629 583 chords 0;
#X obj 119 60 inlet;
#X obj 119 560 outlet~;
#X obj 119 341 chord aeolian 60;
#X obj 119 292 sel 1;
#X msg 119 316 1;
#X obj 183 292 sel 1;
#X obj 247 292 sel 1;
#X obj 311 292 sel 1;
#X msg 183 316 4;
#X msg 247 316 5;
#X msg 311 316 6;
#X obj 119 365 unpack f f f f, f 29;
#X obj 119 186 adsr~ 50 200 0.8 30;
#X obj 119 162 t f f;
#X obj 183 162 t f f;
#X obj 247 162 t f f;
#X obj 311 162 t f f;
#X obj 183 210 adsr~ 50 200 0.8 30;
#X obj 247 234 adsr~ 50 200 0.8 30;
#X obj 311 258 adsr~ 50 200 0.8 30;
#X obj 119 479 *~, f 55;
#X obj 501 423 clip~ 0 1;
#X obj 119 389 mtof;
#X obj 185 389 mtof;
#X obj 252 389 mtof;
#X obj 319 389 mtof;
#X obj 119 413 phasor~;
#X obj 185 413 phasor~;
#X obj 252 413 phasor~;
#X obj 319 413 phasor~;
#X obj 319 437 *~ 0.5;
#X obj 119 503 vcf~ 4;
#X obj 119 84 route button1 button2 button3 button4 axis2, f 46;
#X obj 374 161 scaled -1 1 400 4000;
#X msg 374 185 \$1 50;
#X obj 374 209 line;
#X obj 428 229 sig~;
#X floatatom 428 207 5 0 0 0 - - -;
#X obj 139 527 echo~ 125 0.3;
#X obj 20 436 crackle~;
#X obj 20 460 *~ 3;
#X obj 455 86 bng 15 250 50 0 empty empty empty 17 7 0 10 -262144 -1
-1;
#X obj 119 108 buttonmemory 5;
#X obj 183 132 buttonmemory 5;
#X obj 246 107 buttonmemory 5;
#X obj 310 131 buttonmemory 5;
#X obj 374 107 axismemory 5;
#X connect 0 0 32 0;
#X connect 2 0 11 0;
#X connect 3 0 4 0;
#X connect 4 0 2 0;
#X connect 5 0 8 0;
#X connect 6 0 9 0;
#X connect 7 0 10 0;
#X connect 8 0 2 0;
#X connect 9 0 2 0;
#X connect 10 0 2 0;
#X connect 11 0 22 0;
#X connect 11 1 23 0;
#X connect 11 2 24 0;
#X connect 11 3 25 0;
#X connect 12 0 21 0;
#X connect 13 0 12 0;
#X connect 13 1 3 0;
#X connect 13 1 41 0;
#X connect 14 0 17 0;
#X connect 14 1 5 0;
#X connect 14 1 41 0;
#X connect 15 0 18 0;
#X connect 15 1 6 0;
#X connect 15 1 41 0;
#X connect 16 0 19 0;
#X connect 16 1 7 0;
#X connect 16 1 41 0;
#X connect 17 0 21 0;
#X connect 18 0 21 0;
#X connect 19 0 21 0;
#X connect 20 0 31 0;
#X connect 21 0 20 1;
#X connect 22 0 26 0;
#X connect 23 0 27 0;
#X connect 24 0 28 0;
#X connect 25 0 29 0;
#X connect 26 0 20 0;
#X connect 27 0 20 0;
#X connect 28 0 20 0;
#X connect 29 0 30 0;
#X connect 30 0 20 0;
#X connect 31 0 38 0;
#X connect 31 1 1 0;
#X connect 32 0 42 0;
#X connect 32 1 43 0;
#X connect 32 2 44 0;
#X connect 32 3 45 0;
#X connect 32 4 46 0;
#X connect 33 0 34 0;
#X connect 34 0 35 0;
#X connect 35 0 37 0;
#X connect 36 0 31 1;
#X connect 37 0 36 0;
#X connect 38 0 1 0;
#X connect 39 0 40 0;
#X connect 40 0 20 0;
#X connect 41 0 46 1;
#X connect 42 0 13 0;
#X connect 43 0 14 0;
#X connect 44 0 15 0;
#X connect 45 0 16 0;
#X connect 46 0 33 0;
#X restore 369 84 pd chords;
#X obj 83 159 vibrato~ 1 2;
#N canvas 0 23 450 300 kick 0;
#X obj 105 27 inlet;
#X obj 105 200 outlet~;
#X obj 105 51 route button1;
#X obj 105 159 kick~ 250 1 1 1 1;
#X obj 105 99 sel 1;
#X obj 105 75 buttonmemory 6;
#X connect 0 0 2 0;
#X connect 2 0 5 0;
#X connect 3 0 1 0;
#X connect 4 0 3 0;
#X connect 5 0 4 0;
#X restore 440 84 pd kick;
#N canvas 0 23 450 300 snare 0;
#X obj 105 27 inlet;
#X obj 105 200 outlet~;
#X obj 105 51 route button1;
#X obj 105 99 sel 1;
#X obj 105 159 snare~ 100 1 250;
#X obj 105 75 buttonmemory 7;
#X connect 0 0 2 0;
#X connect 2 0 5 0;
#X connect 3 0 4 0;
#X connect 4 0 1 0;
#X connect 5 0 3 0;
#X restore 512 84 pd snare;
#X connect 1 0 4 0;
#X connect 1 1 4 1;
#X connect 1 2 4 2;
#X connect 1 3 4 3;
#X connect 2 0 7 0;
#X connect 3 0 7 0;
#X connect 4 0 2 0;
#X connect 4 1 3 0;
#X connect 4 2 5 0;
#X connect 4 3 6 0;
#X connect 4 4 8 0;
#X connect 4 5 10 0;
#X connect 4 6 11 0;
#X connect 5 0 7 0;
#X connect 6 0 7 0;
#X connect 7 0 9 0;
#X connect 8 0 7 0;
#X connect 9 0 0 0;
#X connect 9 0 0 1;
#X connect 10 0 7 0;
#X connect 11 0 7 0;
