#N canvas 0 23 1280 755 12;
#X obj 893 3 r param1 @hv_param 0 127 0;
#X obj 893 29 parameter;
#X obj 1072 29 parameter;
#X obj 1072 3 r param2 @hv_param 0 127 0;
#X obj 893 136 parameter;
#X obj 1072 136 parameter;
#X obj 893 110 r param3 @hv_param 0 127 0;
#X obj 1072 110 r param4 @hv_param 0 127 0;
#X obj 30 79 tgl 15 0 empty empty empty 17 7 0 10 -262144 -1 -1 1 1
;
#X obj 30 56 loadbang;
#X floatatom 97 13 5 0 0 0 - - -;
#X obj 892 240 parameter;
#X obj 1071 240 parameter;
#X obj 892 344 parameter;
#X obj 1071 344 parameter;
#X obj 892 214 r param5 @hv_param 0 127 0;
#X obj 1071 214 r param6 @hv_param 0 127 0;
#X obj 892 318 r param7 @hv_param 0 127 0;
#X obj 1071 318 r param8 @hv_param 0 127 0;
#X floatatom 328 13 5 0 0 0 - - -;
#X obj 328 34 s looplength;
#X obj 857 664 *~ 1;
#X obj 857 688 out~;
#X obj 892 613 r start @hv_event;
#X obj 1015 613 r end @hv_event;
#X msg 892 637 1 1000;
#X msg 1015 637 0 1000;
#X obj 892 663 line;
#X obj 892 591 s start;
#X obj 892 573 bng 15 250 50 0 empty empty empty 17 7 0 10 -262144
-1 -1;
#X obj 1015 573 bng 15 250 50 0 empty empty empty 17 7 0 10 -262144
-1 -1;
#X obj 1015 591 s end;
#X obj 97 34 s mspertick;
#X obj 97 56 r mspertick @hv_param 5 2000 100;
#X obj 328 56 r looplength @hv_param 2 2048 64;
#X obj 30 140 s tick @hv_event;
#X obj 1261 29 parameter;
#X obj 1440 29 parameter;
#X obj 1261 134 parameter;
#X obj 1447 134 parameter;
#X obj 1261 240 parameter;
#X obj 1447 240 parameter;
#X obj 1260 346 parameter;
#X obj 1446 346 parameter;
#X obj 1261 3 r param9 @hv_param 0 127 0;
#X obj 1440 3 r param10 @hv_param 0 127 0;
#X obj 1261 108 r param11 @hv_param 0 127 0;
#X obj 1447 108 r param12 @hv_param 0 127 0;
#X obj 1261 214 r param13 @hv_param 0 127 0;
#X obj 1447 214 r param14 @hv_param 0 127 0;
#X obj 1260 321 r param15 @hv_param 0 127 0;
#X obj 1446 321 r param16 @hv_param 0 127 0;
#X obj 893 67 s param1_val;
#X obj 893 88 s param1_bang;
#X obj 1072 67 s param2_val;
#X obj 1072 88 s param2_bang;
#X obj 893 172 s param3_val;
#X obj 893 193 s param3_bang;
#X obj 1072 172 s param4_val;
#X obj 1072 193 s param4_bang;
#X obj 892 276 s param5_val;
#X obj 892 297 s param5_bang;
#X obj 1071 276 s param6_val;
#X obj 1071 297 s param6_bang;
#X obj 892 379 s param7_val;
#X obj 892 400 s param7_bang;
#X obj 1071 380 s param8_val;
#X obj 1071 401 s param8_bang;
#X obj 1261 65 s param9_val;
#X obj 1261 86 s param9_bang;
#X obj 1439 65 s param10_val;
#X obj 1439 86 s param10_bang;
#X obj 1261 170 s param11_val;
#X obj 1261 191 s param11_bang;
#X obj 1446 169 s param12_val;
#X obj 1446 190 s param12_bang;
#X obj 1261 275 s param13_val;
#X obj 1261 296 s param13_bang;
#X obj 1447 276 s param14_val;
#X obj 1447 297 s param14_bang;
#X obj 1259 383 s param15_val;
#X obj 1259 404 s param15_bang;
#X obj 1445 384 s param16_val;
#X obj 1445 405 s param16_bang;
#N canvas 128 236 635 465 param-sends 0;
#X floatatom 12 30 5 0 0 0 - - -;
#X obj 12 53 s param1;
#X floatatom 81 30 5 0 0 0 - - -;
#X obj 81 53 s param2;
#X floatatom 150 30 5 0 0 0 - - -;
#X obj 150 53 s param3;
#X floatatom 219 30 5 0 0 0 - - -;
#X obj 219 53 s param4;
#X floatatom 12 99 5 0 0 0 - - -;
#X obj 12 122 s param5;
#X floatatom 81 99 5 0 0 0 - - -;
#X obj 81 122 s param6;
#X floatatom 150 99 5 0 0 0 - - -;
#X obj 150 122 s param7;
#X floatatom 219 99 5 0 0 0 - - -;
#X obj 219 122 s param8;
#X floatatom 12 166 5 0 0 0 - - -;
#X floatatom 81 166 5 0 0 0 - - -;
#X floatatom 150 166 5 0 0 0 - - -;
#X floatatom 219 166 5 0 0 0 - - -;
#X floatatom 12 234 5 0 0 0 - - -;
#X floatatom 81 234 5 0 0 0 - - -;
#X floatatom 150 234 5 0 0 0 - - -;
#X floatatom 219 234 5 0 0 0 - - -;
#X obj 12 189 s param9;
#X obj 81 189 s param10;
#X obj 150 189 s param11;
#X obj 219 189 s param12;
#X obj 12 257 s param13;
#X obj 81 257 s param14;
#X obj 150 257 s param15;
#X obj 219 257 s param16;
#X msg 12 7 127;
#X msg 81 7 127;
#X msg 150 7 127;
#X msg 219 7 127;
#X msg 12 77 127;
#X msg 81 77 127;
#X msg 150 77 127;
#X msg 219 77 127;
#X msg 12 144 127;
#X msg 81 144 127;
#X msg 150 144 127;
#X msg 219 144 127;
#X msg 12 211 127;
#X msg 81 211 127;
#X msg 150 211 127;
#X msg 219 211 127;
#X text 340 185 param10:;
#X text 340 205 param11:;
#X text 340 225 param12:;
#X text 340 245 param13:;
#X text 340 265 param14:;
#X text 340 285 param15:;
#X text 340 305 param16:;
#X text 404 5 __________________;
#X text 404 25 __________________;
#X text 404 45 __________________;
#X text 404 65 __________________;
#X text 404 85 __________________;
#X text 404 105 __________________;
#X text 404 125 __________________;
#X text 404 145 __________________;
#X text 404 165 __________________;
#X text 404 185 __________________;
#X text 404 205 __________________;
#X text 404 225 __________________;
#X text 404 245 __________________;
#X text 404 265 __________________;
#X text 404 285 __________________;
#X text 404 305 __________________;
#X text 340 5 param1:;
#X text 340 25 param2:;
#X text 340 45 param3:;
#X text 340 65 param4:;
#X text 340 105 param6:;
#X text 340 85 param5:;
#X text 340 125 param7:;
#X text 340 145 param8:;
#X text 340 165 param9:;
#X connect 0 0 1 0;
#X connect 2 0 3 0;
#X connect 4 0 5 0;
#X connect 6 0 7 0;
#X connect 8 0 9 0;
#X connect 10 0 11 0;
#X connect 12 0 13 0;
#X connect 14 0 15 0;
#X connect 16 0 24 0;
#X connect 17 0 25 0;
#X connect 18 0 26 0;
#X connect 19 0 27 0;
#X connect 20 0 28 0;
#X connect 21 0 29 0;
#X connect 22 0 30 0;
#X connect 23 0 31 0;
#X connect 32 0 0 0;
#X connect 33 0 2 0;
#X connect 34 0 4 0;
#X connect 35 0 6 0;
#X connect 36 0 8 0;
#X connect 37 0 10 0;
#X connect 38 0 12 0;
#X connect 39 0 14 0;
#X connect 40 0 16 0;
#X connect 41 0 17 0;
#X connect 42 0 18 0;
#X connect 43 0 19 0;
#X connect 44 0 20 0;
#X connect 45 0 21 0;
#X connect 46 0 22 0;
#X connect 47 0 23 0;
#X restore 788 3 pd param-sends;
#N canvas 330 189 450 300 metronome 0;
#X obj 30 68 metro, f 10;
#X obj 30 49 tgl 15 0 empty empty empty 17 7 0 10 -262144 -1 -1 1 1
;
#X obj 30 92 i;
#X obj 60 92 + 1;
#X obj 30 116 %;
#X obj 140 152 == 0;
#X obj 140 176 sel 1;
#X msg 140 200 1;
#X floatatom 30 140 5 0 0 0 - - -;
#X obj 30 19 inlet;
#X obj 97 19 inlet;
#X obj 140 19 inlet;
#X obj 30 163 outlet;
#X connect 0 0 2 0;
#X connect 1 0 0 0;
#X connect 2 0 3 0;
#X connect 2 0 4 0;
#X connect 3 0 2 1;
#X connect 4 0 5 0;
#X connect 4 0 8 0;
#X connect 5 0 6 0;
#X connect 6 0 7 0;
#X connect 7 0 2 1;
#X connect 8 0 12 0;
#X connect 9 0 1 0;
#X connect 10 0 0 1;
#X connect 11 0 4 1;
#X restore 30 99 pd metronome;
#X obj 758 610 mixer~;
#X floatatom 30 120 5 0 0 0 - - -;
#X connect 0 0 1 0;
#X connect 1 0 52 0;
#X connect 1 1 53 0;
#X connect 2 0 54 0;
#X connect 2 1 55 0;
#X connect 3 0 2 0;
#X connect 4 0 56 0;
#X connect 4 1 57 0;
#X connect 5 0 58 0;
#X connect 5 1 59 0;
#X connect 6 0 4 0;
#X connect 7 0 5 0;
#X connect 8 0 85 0;
#X connect 9 0 8 0;
#X connect 10 0 32 0;
#X connect 11 0 60 0;
#X connect 11 1 61 0;
#X connect 12 0 62 0;
#X connect 12 1 63 0;
#X connect 13 0 64 0;
#X connect 13 1 65 0;
#X connect 14 0 66 0;
#X connect 14 1 67 0;
#X connect 15 0 11 0;
#X connect 16 0 12 0;
#X connect 17 0 13 0;
#X connect 18 0 14 0;
#X connect 19 0 20 0;
#X connect 21 0 22 0;
#X connect 21 0 22 1;
#X connect 23 0 25 0;
#X connect 24 0 26 0;
#X connect 25 0 27 0;
#X connect 26 0 27 0;
#X connect 27 0 22 2;
#X connect 29 0 28 0;
#X connect 30 0 31 0;
#X connect 33 0 85 1;
#X connect 34 0 85 2;
#X connect 36 0 68 0;
#X connect 36 1 69 0;
#X connect 37 0 70 0;
#X connect 37 1 71 0;
#X connect 38 0 72 0;
#X connect 38 1 73 0;
#X connect 39 0 74 0;
#X connect 39 1 75 0;
#X connect 40 0 76 0;
#X connect 40 1 77 0;
#X connect 41 0 78 0;
#X connect 41 1 79 0;
#X connect 42 0 80 0;
#X connect 42 1 81 0;
#X connect 43 0 82 0;
#X connect 43 1 83 0;
#X connect 44 0 36 0;
#X connect 45 0 37 0;
#X connect 46 0 38 0;
#X connect 47 0 39 0;
#X connect 48 0 40 0;
#X connect 49 0 41 0;
#X connect 50 0 42 0;
#X connect 51 0 43 0;
#X connect 85 0 87 0;
#X connect 86 0 21 0;
#X connect 87 0 35 0;
