#N canvas -1173 1 951 874 12;
#X obj 30 128 metro, f 10;
#X obj 30 109 tgl 15 0 empty empty empty 17 7 0 10 -262144 -1 -1 1
1;
#X obj 30 56 loadbang;
#X obj 30 152 i;
#X obj 60 152 + 1;
#X obj 30 176 %;
#X obj 90 152 == 0;
#X obj 90 176 sel 1;
#X msg 90 200 1;
#X floatatom 30 200 5 0 0 0 - - -;
#X floatatom 97 13 5 0 0 0 - - -;
#X floatatom 272 88 5 0 0 0 - - -;
#X obj 272 111 s param1;
#X floatatom 328 13 5 0 0 0 - - -;
#X obj 328 34 s looplength;
#X obj 52 614 *~ 1;
#X obj 52 638 out~;
#X obj 87 563 r start @hv_event;
#X obj 210 563 r end @hv_event;
#X msg 87 587 1 1000;
#X msg 210 587 0 1000;
#X obj 87 613 line;
#X obj 87 541 s start;
#X obj 87 523 bng 15 250 50 0 empty empty empty 17 7 0 10 -262144 -1
-1;
#X obj 210 523 bng 15 250 50 0 empty empty empty 17 7 0 10 -262144
-1 -1;
#X obj 210 541 s end;
#X obj 97 34 s mspertick;
#X obj 97 56 r mspertick @hv_param 5 2000 100;
#X obj 328 56 r looplength @hv_param 2 2048 64;
#X obj 52 374 r param1_bang;
#X obj 563 33 r param1 @hv_param 0 127 0;
#X obj 563 57 parameter;
#X obj 563 77 s param1_val;
#X obj 563 98 s param1_bang;
#X obj 52 688 dac~;
#X obj 21 410 osc~ 440;
#X obj 113 418 ahdsr~ 5 5 5 0.8 20;
#X obj 21 434 *~;
#X obj 30 223 s tick;
#X connect 0 0 3 0;
#X connect 1 0 0 0;
#X connect 2 0 1 0;
#X connect 3 0 4 0;
#X connect 3 0 5 0;
#X connect 4 0 3 1;
#X connect 5 0 6 0;
#X connect 5 0 9 0;
#X connect 6 0 7 0;
#X connect 7 0 8 0;
#X connect 8 0 3 1;
#X connect 9 0 38 0;
#X connect 10 0 26 0;
#X connect 11 0 12 0;
#X connect 13 0 14 0;
#X connect 15 0 16 0;
#X connect 15 0 16 1;
#X connect 16 0 34 0;
#X connect 16 1 34 1;
#X connect 17 0 19 0;
#X connect 18 0 20 0;
#X connect 19 0 21 0;
#X connect 20 0 21 0;
#X connect 21 0 16 2;
#X connect 23 0 22 0;
#X connect 24 0 25 0;
#X connect 27 0 0 1;
#X connect 28 0 5 1;
#X connect 29 0 36 0;
#X connect 30 0 31 0;
#X connect 31 0 32 0;
#X connect 31 1 33 0;
#X connect 35 0 37 0;
#X connect 36 0 37 1;
#X connect 37 0 15 0;
