#N canvas 558 67 700 300 12;
#X obj 21 11 unityinput, f 86;
#X obj 21 35 songplumbing 250 16, f 86;
#N canvas 0 23 588 300 instr 0;
#X obj 17 27 inlet;
#X obj 17 219 outlet~;
#X obj 17 51 route axis2 button1, f 69;
#X obj 17 75 axismemory 1;
#X obj 17 99 scaled -1 1 36 48;
#X obj 17 123 quantized 36 38 39 41 43 44 46 48;
#X obj 17 147 mtof;
#X obj 17 171 osc~;
#X obj 17 195 *~, f 35;
#X obj 257 75 buttonmemory 1;
#X obj 257 99 t f f, f 21;
#X obj 257 123 adsr~ 5 100 0.4 100;
#X obj 401 147 sel 1;
#X connect 0 0 2 0;
#X connect 2 0 3 0;
#X connect 2 1 9 0;
#X connect 3 0 4 0;
#X connect 4 0 5 0;
#X connect 5 0 6 0;
#X connect 6 0 7 0;
#X connect 7 0 8 0;
#X connect 8 0 1 0;
#X connect 9 0 10 0;
#X connect 10 0 11 0;
#X connect 10 1 12 0;
#X connect 11 0 8 1;
#X connect 12 0 3 1;
#X restore 21 59 pd instr;
#X obj 21 87 vibrato~ 1 1;
#X obj 21 131 out~;
#N canvas 0 23 588 300 instr 0;
#X obj 17 27 inlet;
#X obj 17 219 outlet~;
#X obj 17 51 route axis2 button1, f 69;
#X obj 17 147 mtof;
#X obj 17 171 osc~;
#X obj 17 195 *~, f 35;
#X obj 257 99 t f f, f 21;
#X obj 257 123 adsr~ 5 100 0.4 100;
#X obj 401 147 sel 1;
#X obj 17 75 axismemory 2;
#X obj 257 75 buttonmemory 2;
#X obj 17 99 scaled -1 1 48 60;
#X obj 17 123 quantized 48 50 51 53 55 56 58 60;
#X connect 0 0 2 0;
#X connect 2 0 9 0;
#X connect 2 1 10 0;
#X connect 3 0 4 0;
#X connect 4 0 5 0;
#X connect 5 0 1 0;
#X connect 6 0 7 0;
#X connect 6 1 8 0;
#X connect 7 0 5 1;
#X connect 8 0 9 1;
#X connect 9 0 11 0;
#X connect 10 0 6 0;
#X connect 11 0 12 0;
#X connect 12 0 3 0;
#X restore 106 59 pd instr;
#N canvas 0 23 450 300 kick 0;
#X obj 70 37 inlet;
#X obj 70 61 route button1;
#X obj 70 85 buttonmemory 3;
#X obj 70 109 sel 1;
#X obj 70 133 kick~ 250 1 1 1 1;
#X obj 70 157 outlet~;
#X connect 0 0 1 0;
#X connect 1 0 2 0;
#X connect 2 0 3 0;
#X connect 3 0 4 0;
#X connect 4 0 5 0;
#X restore 192 59 pd kick;
#X connect 0 0 1 0;
#X connect 0 1 1 1;
#X connect 0 2 1 2;
#X connect 0 3 1 3;
#X connect 1 0 2 0;
#X connect 1 1 5 0;
#X connect 1 2 6 0;
#X connect 2 0 3 0;
#X connect 3 0 4 0;
#X connect 3 0 4 1;
#X connect 5 0 3 0;
#X connect 6 0 4 0;
#X connect 6 0 4 1;
