#N canvas 0 23 1082 755 12;
#X obj 30 128 metro, f 10;
#X obj 30 109 tgl 15 0 empty empty empty 17 7 0 10 -262144 -1 -1 1
1;
#X obj 30 56 loadbang;
#X obj 30 152 i;
#X obj 60 152 + 1;
#X obj 30 176 %;
#X obj 90 152 == 0;
#X obj 90 176 sel 1;
#X msg 90 200 1;
#X floatatom 30 200 5 0 0 0 - - -;
#X floatatom 97 13 5 0 0 0 - - -;
#X floatatom 272 88 5 0 0 0 - - -;
#X obj 272 111 s param1;
#X floatatom 328 13 5 0 0 0 - - -;
#X obj 328 34 s looplength;
#X floatatom 341 88 5 0 0 0 - - -;
#X obj 341 111 s param2;
#X floatatom 410 88 5 0 0 0 - - -;
#X obj 410 111 s param3;
#X floatatom 479 88 5 0 0 0 - - -;
#X obj 479 111 s param4;
#X floatatom 272 137 5 0 0 0 - - -;
#X obj 272 160 s param5;
#X floatatom 341 137 5 0 0 0 - - -;
#X obj 341 160 s param6;
#X floatatom 410 137 5 0 0 0 - - -;
#X obj 410 160 s param7;
#X floatatom 479 137 5 0 0 0 - - -;
#X obj 479 160 s param8;
#X obj 52 786 out~;
#X obj 87 671 r start @hv_event;
#X obj 210 671 r end @hv_event;
#X msg 87 695 1 1000;
#X msg 210 695 0 1000;
#X obj 87 721 line;
#X obj 87 649 s start;
#X obj 87 631 bng 15 250 50 0 empty empty empty 17 7 0 10 -262144 -1
-1;
#X obj 210 631 bng 15 250 50 0 empty empty empty 17 7 0 10 -262144
-1 -1;
#X obj 210 649 s end;
#X obj 97 34 s mspertick;
#X obj 97 56 r mspertick @hv_param 5 2000 100;
#X obj 328 56 r looplength @hv_param 2 2048 64;
#X floatatom 272 184 5 0 0 0 - - -;
#X floatatom 341 184 5 0 0 0 - - -;
#X floatatom 410 184 5 0 0 0 - - -;
#X floatatom 479 184 5 0 0 0 - - -;
#X floatatom 272 232 5 0 0 0 - - -;
#X floatatom 341 232 5 0 0 0 - - -;
#X floatatom 410 232 5 0 0 0 - - -;
#X floatatom 479 232 5 0 0 0 - - -;
#X obj 272 207 s param9;
#X obj 341 207 s param10;
#X obj 410 207 s param11;
#X obj 479 207 s param12;
#X obj 272 255 s param13;
#X obj 341 255 s param14;
#X obj 410 255 s param15;
#X obj 479 255 s param16;
#X obj 563 33 r param1 @hv_param 0 127 0;
#X obj 563 57 parameter;
#X obj 742 57 parameter;
#X obj 742 33 r param2 @hv_param 0 127 0;
#X obj 563 144 parameter;
#X obj 742 144 parameter;
#X obj 563 120 r param3 @hv_param 0 127 0;
#X obj 742 120 r param4 @hv_param 0 127 0;
#X obj 562 228 parameter;
#X obj 741 228 parameter;
#X obj 562 312 parameter;
#X obj 741 312 parameter;
#X obj 562 204 r param5 @hv_param 0 127 0;
#X obj 741 204 r param6 @hv_param 0 127 0;
#X obj 562 288 r param7 @hv_param 0 127 0;
#X obj 741 288 r param8 @hv_param 0 127 0;
#X obj 562 396 parameter;
#X obj 741 396 parameter;
#X obj 562 481 parameter;
#X obj 748 481 parameter;
#X obj 562 567 parameter;
#X obj 748 567 parameter;
#X obj 561 654 parameter;
#X obj 747 654 parameter;
#X obj 562 372 r param9 @hv_param 0 127 0;
#X obj 741 372 r param10 @hv_param 0 127 0;
#X obj 562 457 r param11 @hv_param 0 127 0;
#X obj 748 457 r param12 @hv_param 0 127 0;
#X obj 562 543 r param13 @hv_param 0 127 0;
#X obj 748 543 r param14 @hv_param 0 127 0;
#X obj 561 630 r param15 @hv_param 0 127 0;
#X obj 747 630 r param16 @hv_param 0 127 0;
#X obj 563 77 s param1_val;
#X obj 563 98 s param1_bang;
#X obj 742 77 s param2_val;
#X obj 742 98 s param2_bang;
#X obj 563 162 s param3_val;
#X obj 563 183 s param3_bang;
#X obj 742 162 s param4_val;
#X obj 742 183 s param4_bang;
#X obj 562 246 s param5_val;
#X obj 562 267 s param5_bang;
#X obj 741 246 s param6_val;
#X obj 741 267 s param6_bang;
#X obj 562 329 s param7_val;
#X obj 562 350 s param7_bang;
#X obj 741 330 s param8_val;
#X obj 741 351 s param8_bang;
#X obj 562 414 s param9_val;
#X obj 562 435 s param9_bang;
#X obj 740 414 s param10_val;
#X obj 740 435 s param10_bang;
#X obj 562 499 s param11_val;
#X obj 562 520 s param11_bang;
#X obj 747 498 s param12_val;
#X obj 747 519 s param12_bang;
#X obj 562 584 s param13_val;
#X obj 562 605 s param13_bang;
#X obj 748 585 s param14_val;
#X obj 748 606 s param14_bang;
#X obj 560 672 s param15_val;
#X obj 560 693 s param15_bang;
#X obj 746 673 s param16_val;
#X obj 746 694 s param16_bang;
#X obj 30 223 s tick;
#X text 79 594 TODO: MOVE THIS TO TEMPLATE? OR JUST REMEMBER TO CALL
FROM UNITY;
#X text 23 242 TODO: RECEIVE FROM UNITY;
#X obj 52 350 r param1_val;
#X obj 52 422 mtof;
#X obj 52 446 osc~;
#X obj 52 470 *~;
#X obj 72 494 echo~ 200 0.5;
#X obj 91 446 adsr~ 20 20 0.7 200;
#X obj 142 350 r param2_val;
#X obj 142 374 sel 127;
#X msg 142 398 1;
#X msg 188 398 0;
#X obj 72 518 vibrato~ 2 2;
#X obj 14 379 crackle~;
#X obj 354 340 r tick;
#X obj 354 364 % 8;
#X obj 354 388 == 0;
#X obj 354 412 sel 1;
#X obj 253 376 == 0;
#X obj 230 453 noise~;
#X obj 230 502 *~;
#X obj 233 424 ahdsr~ 0 20 0 1 0;
#X obj 253 400 sel 1;
#X obj 230 477 *~ 0.3;
#X obj 439 367 synthstring~;
#X msg 439 344 48 64;
#X obj 440 320 loadbang;
#X obj 439 391 *~ 0.4;
#X obj 354 436 kick~ 1 1 1 1 1;
#X obj 344 497 ducker~ 1 40;
#X obj 52 746 *~ 1;
#X obj 30 552 ducker~ 1 20;
#X obj 142 422 change;
#X connect 0 0 3 0;
#X connect 1 0 0 0;
#X connect 2 0 1 0;
#X connect 3 0 4 0;
#X connect 3 0 5 0;
#X connect 4 0 3 1;
#X connect 5 0 6 0;
#X connect 5 0 9 0;
#X connect 6 0 7 0;
#X connect 7 0 8 0;
#X connect 8 0 3 1;
#X connect 9 0 122 0;
#X connect 10 0 39 0;
#X connect 11 0 12 0;
#X connect 13 0 14 0;
#X connect 15 0 16 0;
#X connect 17 0 18 0;
#X connect 19 0 20 0;
#X connect 21 0 22 0;
#X connect 23 0 24 0;
#X connect 25 0 26 0;
#X connect 27 0 28 0;
#X connect 30 0 32 0;
#X connect 31 0 33 0;
#X connect 32 0 34 0;
#X connect 33 0 34 0;
#X connect 34 0 29 2;
#X connect 36 0 35 0;
#X connect 37 0 38 0;
#X connect 40 0 0 1;
#X connect 41 0 5 1;
#X connect 42 0 50 0;
#X connect 43 0 51 0;
#X connect 44 0 52 0;
#X connect 45 0 53 0;
#X connect 46 0 54 0;
#X connect 47 0 55 0;
#X connect 48 0 56 0;
#X connect 49 0 57 0;
#X connect 58 0 59 0;
#X connect 59 0 90 0;
#X connect 59 1 91 0;
#X connect 60 0 92 0;
#X connect 60 1 93 0;
#X connect 61 0 60 0;
#X connect 62 0 94 0;
#X connect 62 1 95 0;
#X connect 63 0 96 0;
#X connect 63 1 97 0;
#X connect 64 0 62 0;
#X connect 65 0 63 0;
#X connect 66 0 98 0;
#X connect 66 1 99 0;
#X connect 67 0 100 0;
#X connect 67 1 101 0;
#X connect 68 0 102 0;
#X connect 68 1 103 0;
#X connect 69 0 104 0;
#X connect 69 1 105 0;
#X connect 70 0 66 0;
#X connect 71 0 67 0;
#X connect 72 0 68 0;
#X connect 73 0 69 0;
#X connect 74 0 106 0;
#X connect 74 1 107 0;
#X connect 75 0 108 0;
#X connect 75 1 109 0;
#X connect 76 0 110 0;
#X connect 76 1 111 0;
#X connect 77 0 112 0;
#X connect 77 1 113 0;
#X connect 78 0 114 0;
#X connect 78 1 115 0;
#X connect 79 0 116 0;
#X connect 79 1 117 0;
#X connect 80 0 118 0;
#X connect 80 1 119 0;
#X connect 81 0 120 0;
#X connect 81 1 121 0;
#X connect 82 0 74 0;
#X connect 83 0 75 0;
#X connect 84 0 76 0;
#X connect 85 0 77 0;
#X connect 86 0 78 0;
#X connect 87 0 79 0;
#X connect 88 0 80 0;
#X connect 89 0 81 0;
#X connect 125 0 126 0;
#X connect 126 0 127 0;
#X connect 127 0 128 0;
#X connect 128 0 129 0;
#X connect 128 0 154 0;
#X connect 129 0 135 0;
#X connect 130 0 128 1;
#X connect 131 0 132 0;
#X connect 132 0 133 0;
#X connect 132 1 134 0;
#X connect 133 0 155 0;
#X connect 134 0 155 0;
#X connect 135 0 154 1;
#X connect 136 0 128 0;
#X connect 137 0 138 0;
#X connect 137 0 141 0;
#X connect 138 0 139 0;
#X connect 139 0 140 0;
#X connect 140 0 151 0;
#X connect 141 0 145 0;
#X connect 142 0 146 0;
#X connect 143 0 129 0;
#X connect 143 0 154 1;
#X connect 144 0 143 1;
#X connect 145 0 144 0;
#X connect 146 0 143 0;
#X connect 147 0 150 0;
#X connect 148 0 147 0;
#X connect 149 0 148 0;
#X connect 150 0 152 1;
#X connect 151 0 152 0;
#X connect 151 0 154 1;
#X connect 152 1 154 1;
#X connect 153 0 29 0;
#X connect 153 0 29 1;
#X connect 154 0 153 0;
#X connect 154 1 153 0;
#X connect 155 0 130 0;
