#N canvas -1920 -81 1920 1035 12;
#X obj 75 926 dac~;
#X floatatom 33 47 5 0 0 0 - - -;
#X floatatom 273 47 5 0 0 0 - - -;
#X obj 33 23 r Instr0Pitch @hv_param 20 120 60;
#X obj 273 23 r Instr0Velocity @hv_param 0 127 0;
#X floatatom 73 97 5 0 0 0 - - -;
#X floatatom 313 97 5 0 0 0 - - -;
#X floatatom 113 147 5 0 0 0 - - -;
#X floatatom 353 147 5 0 0 0 - - -;
#X floatatom 153 197 5 0 0 0 - - -;
#X floatatom 393 197 5 0 0 0 - - -;
#X floatatom 193 247 5 0 0 0 - - -;
#X floatatom 433 247 5 0 0 0 - - -;
#X floatatom 233 297 5 0 0 0 - - -;
#X floatatom 473 297 5 0 0 0 - - -;
#X floatatom 273 347 5 0 0 0 - - -;
#X floatatom 513 347 5 0 0 0 - - -;
#X floatatom 313 397 5 0 0 0 - - -;
#X floatatom 553 397 5 0 0 0 - - -;
#X obj 73 73 r Instr1Pitch @hv_param 20 120 60;
#X obj 113 123 r Instr2Pitch @hv_param 20 120 60;
#X obj 153 173 r Instr3Pitch @hv_param 20 120 60;
#X obj 193 223 r Instr4Pitch @hv_param 20 120 60;
#X obj 233 273 r Instr5Pitch @hv_param 20 120 60;
#X obj 273 323 r Instr6Pitch @hv_param 20 120 60;
#X obj 313 373 r Instr7Pitch @hv_param 20 120 60;
#X obj 313 73 r Instr1Velocity @hv_param 0 127 0;
#X obj 353 123 r Instr2Velocity @hv_param 0 127 0;
#X obj 393 173 r Instr3Velocity @hv_param 0 127 0;
#X obj 433 223 r Instr4Velocity @hv_param 0 127 0;
#X obj 473 273 r Instr5Velocity @hv_param 0 127 0;
#X obj 513 323 r Instr6Velocity @hv_param 0 127 0;
#X obj 553 373 r Instr7Velocity @hv_param 0 127 0;
#X obj 73 631 kick~, f 72;
#X floatatom 111 582 5 0 0 0 - - -;
#X floatatom 236 582 5 0 0 0 - - -;
#X floatatom 361 582 5 0 0 0 - - -;
#X floatatom 567 582 5 0 0 0 - - -;
#X text 153 583 decay;
#X text 278 583 pitch_scale;
#X text 403 583 filter_scale;
#X text 609 583 sine_scale;
#X floatatom 491 582 5 0 0 0 - - -;
#X text 533 583 q;
#X obj 341 507 loadbang;
#X obj 27 606 moses 1;
#X obj 757 635 ks~, f 49;
#X msg 995 609 5;
#X msg 1097 609 0.99;
#X obj 1097 580 loadbang;
#X obj 935 551 moses 127;
#X msg 935 609 0;
#X obj 75 897 *~ 1;
#X obj 865 23 r Tick @hv_param 0 100000 0;
#X floatatom 865 47 5 0 0 0 - - -;
#X obj 865 94 == 0;
#X obj 865 118 sel 1;
#X obj 865 232 kick~, f 72;
#X floatatom 903 183 5 0 0 0 - - -;
#X floatatom 1028 183 5 0 0 0 - - -;
#X floatatom 1153 183 5 0 0 0 - - -;
#X floatatom 1359 183 5 0 0 0 - - -;
#X text 945 184 decay;
#X text 1070 184 pitch_scale;
#X text 1195 184 filter_scale;
#X floatatom 1283 183 5 0 0 0 - - -;
#X text 1325 184 q;
#X obj 1133 108 loadbang;
#X msg 1285 148 1;
#X obj 763 142 bng 15 250 50 0 empty empty empty 17 7 0 10 -262144
-1 -1;
#X msg 902 155 300;
#X msg 1032 152 0.5;
#X msg 1150 148 1;
#X msg 1359 148 1;
#X obj 148 492 bng 15 250 50 0 empty empty empty 17 7 0 10 -262144
-1 -1;
#X text 1398 182 sine_scale;
#X obj 757 659 *~ 0.5;
#X obj 757 683 delwrite~ intro_instrument 500;
#X obj 547 707 *~ 0.8;
#X obj 865 70 % 64;
#X msg 110 554 2000;
#X msg 240 551 0.2;
#X msg 358 547 56;
#X msg 493 547 1;
#X msg 567 548 3;
#X obj 467 481 *~ 3;
#X obj 547 683 vd~ intro_instrument;
#X obj 73 655 *~ 0.5;
#X obj 865 256 *~ 0.5;
#X connect 2 0 45 0;
#X connect 3 0 1 0;
#X connect 4 0 2 0;
#X connect 5 0 46 0;
#X connect 5 0 85 0;
#X connect 6 0 50 0;
#X connect 19 0 5 0;
#X connect 20 0 7 0;
#X connect 21 0 9 0;
#X connect 22 0 11 0;
#X connect 23 0 13 0;
#X connect 24 0 15 0;
#X connect 25 0 17 0;
#X connect 26 0 6 0;
#X connect 27 0 8 0;
#X connect 28 0 10 0;
#X connect 29 0 12 0;
#X connect 30 0 14 0;
#X connect 31 0 16 0;
#X connect 32 0 18 0;
#X connect 33 0 87 0;
#X connect 34 0 33 1;
#X connect 35 0 33 2;
#X connect 36 0 33 3;
#X connect 37 0 33 5;
#X connect 42 0 33 4;
#X connect 44 0 84 0;
#X connect 44 0 83 0;
#X connect 44 0 82 0;
#X connect 44 0 81 0;
#X connect 44 0 80 0;
#X connect 45 1 33 0;
#X connect 46 0 76 0;
#X connect 47 0 46 1;
#X connect 48 0 46 2;
#X connect 49 0 48 0;
#X connect 49 0 51 0;
#X connect 50 0 51 0;
#X connect 50 1 47 0;
#X connect 51 0 46 1;
#X connect 52 0 0 0;
#X connect 52 0 0 1;
#X connect 53 0 54 0;
#X connect 54 0 79 0;
#X connect 55 0 56 0;
#X connect 56 0 57 0;
#X connect 57 0 88 0;
#X connect 58 0 57 1;
#X connect 59 0 57 2;
#X connect 60 0 57 3;
#X connect 61 0 57 5;
#X connect 65 0 57 4;
#X connect 67 0 70 0;
#X connect 67 0 73 0;
#X connect 67 0 68 0;
#X connect 67 0 72 0;
#X connect 67 0 71 0;
#X connect 68 0 65 0;
#X connect 69 0 57 0;
#X connect 70 0 58 0;
#X connect 71 0 59 0;
#X connect 72 0 60 0;
#X connect 73 0 61 0;
#X connect 74 0 33 0;
#X connect 76 0 77 0;
#X connect 78 0 77 0;
#X connect 78 0 52 0;
#X connect 79 0 55 0;
#X connect 80 0 34 0;
#X connect 81 0 35 0;
#X connect 82 0 36 0;
#X connect 83 0 42 0;
#X connect 84 0 37 0;
#X connect 85 0 86 0;
#X connect 86 0 78 0;
#X connect 87 0 52 0;
#X connect 88 0 52 0;
