#N canvas 0 23 1280 755 12;
#X obj 410 689 dac~;
#X floatatom 314 76 5 0 0 0 - - -;
#X obj 314 123 == 0;
#X obj 314 147 sel 1;
#X obj 314 261 kick~, f 72;
#X floatatom 352 212 5 0 0 0 - - -;
#X floatatom 477 212 5 0 0 0 - - -;
#X floatatom 602 212 5 0 0 0 - - -;
#X floatatom 808 212 5 0 0 0 - - -;
#X text 394 213 decay;
#X text 519 213 pitch_scale;
#X text 644 213 filter_scale;
#X floatatom 732 212 5 0 0 0 - - -;
#X text 774 213 q;
#X obj 582 137 loadbang;
#X msg 734 177 1;
#X msg 481 181 0.5;
#X msg 599 177 1;
#X msg 808 177 1;
#X text 847 211 sine_scale;
#X obj 313 54 i;
#X obj 340 54 + 1;
#X obj 566 322 osc~ 330;
#X floatatom 571 292 5 0 0 0 - - -;
#X obj 314 191 bng 15 250 50 0 empty empty empty 17 7 0 10 -262144
-1 -1;
#X msg 351 184 730;
#X obj 314 99 % 4;
#X obj 1016 283 random 3;
#X obj 1016 307 + 1;
#X obj 1016 331 * 330;
#X obj 1016 22 loadbang;
#X obj 1016 237 tgl 15 0 empty empty empty 17 7 0 10 -262144 -1 -1
1 1;
#X obj 1016 259 metro 3000;
#X obj 392 320 osc~ 110;
#X floatatom 105 254 5 0 0 0 - - -;
#X obj 105 277 / 2;
#X obj 105 301 / 2;
#X obj 105 231 mtof;
#X msg 63 202 69;
#X msg 112 201 67;
#X obj 63 171 sel 1;
#X obj 111 171 sel 1;
#X obj 88 395 crackle~;
#X obj 85 489 ducker~, f 12;
#X obj 159 423 loadbang;
#X msg 139 464 15;
#X msg 169 463 15;
#X obj 377 538 lop~ 100;
#X obj 177 516 hip~ 2000;
#X obj 216 152 % 64;
#X obj 216 176 == 0;
#X obj 217 200 sel 1;
#X msg 243 46 1;
#X obj 111 147 == 32;
#X obj 63 147 == 1;
#X obj 555 409 *~;
#X obj 974 382 == 330;
#X obj 1032 385 == 660;
#X obj 1105 385 == 990;
#X obj 974 406 sel 1;
#X obj 1032 409 sel 1;
#X obj 1105 409 sel 1;
#X msg 974 460 1;
#X obj 1001 507 sig~;
#X obj 974 430 bng 15 250 50 0 empty empty empty 17 7 0 10 -262144
-1 -1;
#X obj 1032 433 bng 15 250 50 0 empty empty empty 17 7 0 10 -262144
-1 -1;
#X obj 1105 433 bng 15 250 50 0 empty empty empty 17 7 0 10 -262144
-1 -1;
#X floatatom 118 540 5 0 0 0 - - -;
#X obj 441 347 *~ 0.6;
#X obj 823 560 osc~ 1;
#X obj 823 584 +~ 1;
#X obj 823 608 /~ 2;
#X obj 377 490 *~;
#X obj 303 321 osc~ 220;
#X obj 455 320 osc~ 440;
#X msg 1105 453 0.3;
#X msg 1032 463 0.6;
#X obj 165 325 * 0.997;
#X obj 164 296 * 1.01;
#X obj 823 632 *~ 0.2;
#X obj 823 656 +~ 0.6;
#X obj 991 606 bng 15 250 50 0 empty empty empty 17 7 0 10 -262144
-1 -1;
#X obj 991 626 t b b;
#X msg 991 650 1;
#X msg 1023 674 0;
#X obj 929 643 noise~;
#X obj 929 698 *~;
#X obj 919 577 metro;
#X obj 919 529 tgl 15 0 empty empty empty 17 7 0 10 -262144 -1 -1 1
1;
#X floatatom 951 553 5 0 0 0 - - -;
#X obj 781 724 wah~;
#X msg 797 698 0.2;
#X obj 951 528 / 4;
#X obj 409 636 *~ 0.3;
#X obj 724 660 loadbang;
#X obj 1023 650 del 1;
#X obj 929 723 *~ 1.5;
#X obj 1137 41 loadbang;
#X msg 1137 65 200;
#X obj 164 92 t f f f f;
#X obj 243 24 bng 15 250 50 0 empty empty empty 17 7 0 10 -262144 -1
-1;
#X obj 313 36 bng 15 250 50 0 empty empty empty 17 7 0 10 -262144 -1
-1;
#X obj 409 662 *~ 0.1;
#X obj 313 6 r Tick @hv_event;
#X obj 826 47 tgl 15 0 empty empty empty 17 7 0 10 -262144 -1 -1 0
1;
#X obj 826 67 metro 200;
#X obj 826 91 s Tick;
#X obj 377 515 vibrato~ 0.5 0.5;
#X obj 544 525 vibrato~ 2 2;
#X obj 118 516 * 2;
#X obj 408 462 ducker~ 50 6, f 13;
#X obj 538 464 booster~ 1 6;
#X obj 85 563 delonce~ 200 1;
#X obj 544 549 echo~ 200 0.5;
#X connect 1 0 99 0;
#X connect 2 0 3 0;
#X connect 3 0 24 0;
#X connect 4 0 43 0;
#X connect 4 0 110 0;
#X connect 4 0 111 0;
#X connect 5 0 4 1;
#X connect 6 0 4 2;
#X connect 7 0 4 3;
#X connect 8 0 4 5;
#X connect 12 0 4 4;
#X connect 14 0 25 0;
#X connect 14 0 18 0;
#X connect 14 0 15 0;
#X connect 14 0 17 0;
#X connect 14 0 16 0;
#X connect 15 0 12 0;
#X connect 16 0 6 0;
#X connect 17 0 7 0;
#X connect 18 0 8 0;
#X connect 20 0 21 0;
#X connect 20 0 1 0;
#X connect 21 0 20 1;
#X connect 22 0 55 0;
#X connect 23 0 22 0;
#X connect 24 0 4 0;
#X connect 25 0 5 0;
#X connect 26 0 2 0;
#X connect 27 0 28 0;
#X connect 28 0 29 0;
#X connect 29 0 23 0;
#X connect 29 0 56 0;
#X connect 29 0 57 0;
#X connect 29 0 58 0;
#X connect 30 0 31 0;
#X connect 30 0 88 0;
#X connect 31 0 32 0;
#X connect 32 0 27 0;
#X connect 33 0 110 1;
#X connect 34 0 35 0;
#X connect 34 0 74 0;
#X connect 35 0 36 0;
#X connect 35 0 78 0;
#X connect 36 0 77 0;
#X connect 37 0 34 0;
#X connect 38 0 37 0;
#X connect 39 0 37 0;
#X connect 40 0 38 0;
#X connect 41 0 39 0;
#X connect 42 0 43 1;
#X connect 43 0 112 0;
#X connect 43 1 48 0;
#X connect 44 0 45 0;
#X connect 44 0 46 0;
#X connect 45 0 43 2;
#X connect 46 0 43 3;
#X connect 47 0 93 0;
#X connect 48 0 102 0;
#X connect 49 0 50 0;
#X connect 50 0 51 0;
#X connect 51 0 100 0;
#X connect 52 0 20 1;
#X connect 53 0 41 0;
#X connect 54 0 40 0;
#X connect 55 0 111 1;
#X connect 56 0 59 0;
#X connect 57 0 60 0;
#X connect 58 0 61 0;
#X connect 59 0 64 0;
#X connect 60 0 65 0;
#X connect 61 0 66 0;
#X connect 62 0 63 0;
#X connect 63 0 55 1;
#X connect 64 0 62 0;
#X connect 65 0 76 0;
#X connect 66 0 75 0;
#X connect 67 0 112 1;
#X connect 68 0 110 1;
#X connect 69 0 70 0;
#X connect 70 0 71 0;
#X connect 71 0 79 0;
#X connect 72 0 107 0;
#X connect 73 0 110 1;
#X connect 74 0 68 0;
#X connect 75 0 63 0;
#X connect 76 0 63 0;
#X connect 77 0 73 0;
#X connect 78 0 33 0;
#X connect 79 0 80 0;
#X connect 80 0 72 1;
#X connect 81 0 82 0;
#X connect 82 0 83 0;
#X connect 82 1 95 0;
#X connect 83 0 86 1;
#X connect 84 0 86 1;
#X connect 85 0 86 0;
#X connect 86 0 96 0;
#X connect 87 0 81 0;
#X connect 88 0 87 0;
#X connect 89 0 87 1;
#X connect 90 0 102 0;
#X connect 91 0 90 1;
#X connect 92 0 89 0;
#X connect 93 0 102 0;
#X connect 94 0 91 0;
#X connect 95 0 84 0;
#X connect 96 0 90 0;
#X connect 97 0 98 0;
#X connect 98 0 92 0;
#X connect 98 0 109 0;
#X connect 99 0 54 0;
#X connect 99 1 53 0;
#X connect 99 2 49 0;
#X connect 99 3 26 0;
#X connect 100 0 52 0;
#X connect 101 0 20 0;
#X connect 102 0 0 0;
#X connect 102 0 0 1;
#X connect 103 0 101 0;
#X connect 104 0 105 0;
#X connect 105 0 106 0;
#X connect 107 0 47 0;
#X connect 108 0 93 0;
#X connect 108 0 113 0;
#X connect 109 0 67 0;
#X connect 110 0 93 0;
#X connect 110 1 72 0;
#X connect 111 1 108 0;
#X connect 112 0 93 0;
#X connect 113 0 93 0;
