#N canvas 530 103 334 586 12;
#X obj 67 91 inlet;
#X obj 159 91 inlet;
#X obj 159 115 f \$1;
#X obj 201 91 loadbang;
#X floatatom 106 330 5 0 0 0 - - -;
#X obj 201 339 / 12;
#X obj 201 363 i;
#X obj 159 339 % 12;
#X obj 106 387 sel 1;
#X obj 106 435 +, f 14;
#X obj 106 363 <=, f 8;
#X msg 106 411 1;
#X msg 138 411 0;
#X obj 106 459 * 12;
#X obj 67 279 t f f, f 6;
#X obj 67 493 +, f 6;
#X floatatom 67 527 5 0 0 0 - - -;
#X obj 67 550 outlet;
#X obj 67 145 <=;
#X obj 67 169 sel 1;
#X obj 67 115 t f f f, f 8;
#X obj 67 228 f;
#X obj 99 228 f;
#X obj 99 193 bng 15 250 50 0 empty empty empty 17 7 0 10 -262144 -1
-1;
#X obj 67 252 % 12;
#X text 9 71 midi note to adjust;
#X text 158 71 \$1 floor midi note;
#X text 12 8 // MOVES THE OCTAVE OF A MIDI NOTE SO IT'S;
#X text 11 24 // ABOVE FLOOR;
#X connect 0 0 20 0;
#X connect 1 0 2 0;
#X connect 2 0 5 0;
#X connect 2 0 7 0;
#X connect 2 0 18 1;
#X connect 3 0 2 0;
#X connect 4 0 10 0;
#X connect 5 0 6 0;
#X connect 6 0 9 1;
#X connect 7 0 10 1;
#X connect 8 0 11 0;
#X connect 8 1 12 0;
#X connect 9 0 13 0;
#X connect 10 0 8 0;
#X connect 11 0 9 0;
#X connect 12 0 9 0;
#X connect 13 0 15 1;
#X connect 14 0 15 0;
#X connect 14 1 4 0;
#X connect 15 0 16 0;
#X connect 16 0 17 0;
#X connect 18 0 19 0;
#X connect 19 0 21 0;
#X connect 19 1 23 0;
#X connect 20 0 18 0;
#X connect 20 1 21 1;
#X connect 20 2 22 1;
#X connect 21 0 24 0;
#X connect 22 0 16 0;
#X connect 23 0 22 0;
#X connect 24 0 14 0;
