#N canvas 838 396 450 300 12;
#X obj 180 107 inlet;
#X obj 180 131 - \$1;
#X obj 180 155 abs;
#X obj 180 179 outlet;
#X text 10 10 /// RETURNS THE ABSOLUTE DIFFERENCE BETWEEN THE INLET
AND \; /// \$1.;
#X connect 0 0 1 0;
#X connect 1 0 2 0;
#X connect 2 0 3 0;
