#N canvas 508 214 450 300 12;
#X obj 87 77 inlet;
#X obj 126 77 inlet;
#X obj 165 77 inlet;
#X obj 204 77 inlet;
#X obj 243 77 inlet;
#X obj 282 77 inlet;
#X obj 321 77 inlet;
#X obj 360 77 inlet;
#X obj 48 77 inlet;
#X obj 48 101 bng 15 250 50 0 empty empty empty 17 7 0 10 -262144 -1
-1;
#X obj 69 176 f;
#X obj 108 176 f;
#X obj 147 176 f;
#X obj 186 176 f;
#X obj 225 176 f;
#X obj 264 176 f;
#X obj 303 176 f;
#X obj 342 176 f;
#X obj 48 121 t b b;
#X obj 50 235 accumulator;
#X obj 50 259 outlet;
#X text 68 15 /// BANG FIRST INLET TO GET THE SUM OF \; /// THE FOLLOWING
8 INLETS.;
#X connect 0 0 10 1;
#X connect 1 0 11 1;
#X connect 2 0 12 1;
#X connect 3 0 13 1;
#X connect 4 0 14 1;
#X connect 5 0 15 1;
#X connect 6 0 16 1;
#X connect 7 0 17 1;
#X connect 8 0 9 0;
#X connect 9 0 18 0;
#X connect 10 0 19 0;
#X connect 11 0 19 0;
#X connect 12 0 19 0;
#X connect 13 0 19 0;
#X connect 14 0 19 0;
#X connect 15 0 19 0;
#X connect 16 0 19 0;
#X connect 17 0 19 0;
#X connect 18 0 19 1;
#X connect 18 1 10 0;
#X connect 18 1 17 0;
#X connect 18 1 16 0;
#X connect 18 1 15 0;
#X connect 18 1 14 0;
#X connect 18 1 13 0;
#X connect 18 1 12 0;
#X connect 18 1 11 0;
#X connect 19 0 20 0;
