#N canvas 617 198 579 300 12;
#X obj 142 47 inlet;
#X obj 83 47 inlet;
#X obj 83 71 osc~;
#X obj 83 215 *~;
#X obj 142 119 clip 0 1;
#X obj 142 191 sig~;
#X obj 142 95 f \$1;
#X obj 83 239 outlet~;
#X obj 142 167 line;
#X msg 142 143 \$1 10;
#X connect 0 0 6 0;
#X connect 1 0 2 0;
#X connect 2 0 3 0;
#X connect 3 0 7 0;
#X connect 4 0 9 0;
#X connect 5 0 3 1;
#X connect 6 0 4 0;
#X connect 8 0 5 0;
#X connect 9 0 8 0;
