#N canvas 582 151 698 621 12;
#X obj 35 494 line~;
#X obj 35 124 bng 15 250 50 0 empty empty empty 17 7 0 10 -262144 -1
-1;
#X obj 155 423 pack 0 500;
#X floatatom 442 174 5 0 0 0 - - -;
#X obj 35 424 pack 1 20;
#X floatatom 136 174 5 0 0 0 - - -;
#X obj 156 300 del 1;
#X floatatom 227 174 5 0 0 0 - - -;
#X text 439 51 release;
#X obj 136 69 inlet;
#X obj 227 69 inlet;
#X text 27 52 trigger;
#X obj 442 69 inlet;
#X obj 35 566 outlet~;
#X text 134 52 attack;
#X text 227 51 decay;
#X floatatom 337 174 5 0 1 0 - - -;
#X obj 337 69 inlet;
#X text 336 51 sustain;
#X obj 375 453 pack 0 500;
#X obj 35 93 sel 0 1;
#X obj 156 324 bng 15 250 50 0 empty empty empty 17 7 0 10 -262144
-1 -1;
#X obj 155 394 f;
#X obj 375 398 bng 15 250 50 0 empty empty empty 17 7 0 10 -262144
-1 -1;
#X obj 35 69 inlet;
#X floatatom 337 221 5 0 0 0 - - -;
#X obj 337 197 clip 0 1;
#X obj 136 143 f \$1;
#X obj 227 143 f \$2;
#X obj 337 143 f \$3;
#X obj 442 143 f \$4;
#X obj 274 91 loadbang;
#X obj 375 418 t b b, f 9;
#X obj 442 197 t f f;
#X obj 453 453 del 1;
#X obj 453 477 bng 15 250 50 0 empty empty empty 17 7 0 10 -262144
-1 -1;
#X obj 453 497 outlet;
#X text 26 9 /// \$1-\$4 are adsr in ms. left outlet is envelope level.
right outlet bangs when envelope completes.;
#X obj 559 283 envgen~;
#X connect 0 0 13 0;
#X connect 1 0 4 0;
#X connect 1 0 6 0;
#X connect 2 0 0 0;
#X connect 3 0 33 0;
#X connect 4 0 0 0;
#X connect 5 0 4 1;
#X connect 5 0 6 1;
#X connect 6 0 21 0;
#X connect 7 0 2 1;
#X connect 9 0 27 0;
#X connect 10 0 28 0;
#X connect 12 0 30 0;
#X connect 16 0 26 0;
#X connect 17 0 29 0;
#X connect 19 0 0 0;
#X connect 20 0 23 0;
#X connect 20 1 1 0;
#X connect 21 0 22 0;
#X connect 22 0 2 0;
#X connect 23 0 32 0;
#X connect 24 0 20 0;
#X connect 25 0 22 1;
#X connect 26 0 25 0;
#X connect 27 0 5 0;
#X connect 28 0 7 0;
#X connect 29 0 16 0;
#X connect 30 0 3 0;
#X connect 31 0 27 0;
#X connect 31 0 30 0;
#X connect 31 0 29 0;
#X connect 31 0 28 0;
#X connect 32 0 34 0;
#X connect 32 1 19 0;
#X connect 33 0 34 1;
#X connect 33 1 19 1;
#X connect 34 0 35 0;
#X connect 35 0 36 0;
