#N canvas 227 133 1285 716 12;
#X text 600 74 release;
#X obj 253 94 inlet;
#X obj 388 92 inlet;
#X text 28 75 trigger;
#X obj 603 92 inlet;
#X text 251 77 attack;
#X text 388 74 decay;
#X obj 498 92 inlet;
#X text 497 74 sustain;
#X obj 36 92 inlet;
#X text 26 9 /// \$1-\$5 are ahdsr in ms. left outlet is envelope level. right outlet bangs when envelope completes.;
#X obj 498 275 clip 0 1;
#X obj 419 572 line~;
#X obj 419 640 outlet~;
#X msg 286 300 1 \$1;
#X obj 36 116 sel 0 1, f 23;
#X obj 223 206 r \$0-open;
#X obj 223 230 bng 15 250 50 0 empty empty empty 17 7 0 10 #fcfcfc #000000 #000000;
#X obj 362 229 bng 15 250 50 0 empty empty empty 17 7 0 10 #fcfcfc #000000 #000000;
#X obj 388 437 pack f f;
#X obj 388 297 t b f;
#X obj 388 407 f;
#X obj 573 207 r \$0-close;
#X obj 573 231 bng 15 250 50 0 empty empty empty 17 7 0 10 #fcfcfc #000000 #000000;
#X obj 603 275 t b f f, f 21;
#X obj 603 299 f;
#X obj 603 323 del;
#X obj 388 116 t f f;
#X msg 603 371 0;
#X obj 603 395 pack f f;
#X obj 656 371 f;
#X obj 603 347 t b b b, f 16;
#X obj 712 371 f, f 5;
#X obj 712 395 del;
#X obj 712 609 outlet;
#X obj 712 419 bng 15 250 50 0 empty empty empty 17 7 0 10 #fcfcfc #000000 #000000;
#X obj 36 140 s \$0-close;
#X obj 115 140 s \$0-open;
#X obj 862 280 r \$0-open;
#X msg 862 304 stop;
#X obj 511 637 snapshotter~;
#X obj 388 273 max 1;
#X obj 253 274 t f f;
#X obj 250 386 del;
#X obj 250 339 t b f;
#X obj 253 250 deff \$1;
#X obj 388 249 deff \$2;
#X obj 498 251 deff \$3;
#X obj 603 251 deff \$4;
#X obj 119 349 r \$0-close;
#X msg 119 373 stop;
#X obj 419 596 pow~ 1;
#X connect 1 0 45 0;
#X connect 2 0 27 0;
#X connect 4 0 48 0;
#X connect 7 0 47 0;
#X connect 9 0 15 0;
#X connect 11 0 21 1;
#X connect 12 0 51 0;
#X connect 14 0 12 0;
#X connect 15 0 36 0;
#X connect 15 1 37 0;
#X connect 16 0 17 0;
#X connect 17 0 45 0;
#X connect 18 0 46 0;
#X connect 19 0 12 0;
#X connect 20 0 21 0;
#X connect 20 1 19 1;
#X connect 21 0 19 0;
#X connect 22 0 23 0;
#X connect 23 0 48 0;
#X connect 24 0 25 0;
#X connect 24 1 30 1;
#X connect 24 2 32 1;
#X connect 25 0 26 0;
#X connect 26 0 31 0;
#X connect 27 0 25 1;
#X connect 27 1 46 0;
#X connect 28 0 29 0;
#X connect 29 0 12 0;
#X connect 30 0 29 1;
#X connect 31 0 28 0;
#X connect 31 1 30 0;
#X connect 31 2 32 0;
#X connect 32 0 33 0;
#X connect 33 0 35 0;
#X connect 35 0 34 0;
#X connect 38 0 39 0;
#X connect 39 0 26 0;
#X connect 39 0 33 0;
#X connect 41 0 20 0;
#X connect 42 0 44 0;
#X connect 42 1 14 0;
#X connect 43 0 18 0;
#X connect 44 0 43 0;
#X connect 44 1 43 1;
#X connect 45 0 42 0;
#X connect 46 0 41 0;
#X connect 47 0 11 0;
#X connect 48 0 24 0;
#X connect 49 0 50 0;
#X connect 50 0 43 0;
#X connect 51 0 13 0;
#X connect 51 0 40 0;
