#N canvas 256 38 1256 695 12;
#X text 440 74 release;
#X obj 93 94 inlet;
#X obj 228 92 inlet;
#X text 28 75 trigger;
#X obj 443 92 inlet;
#X text 91 77 attack;
#X text 228 74 decay;
#X obj 338 92 inlet;
#X text 337 74 sustain;
#X obj 36 92 inlet;
#X obj 93 180 f \$1;
#X obj 634 82 loadbang;
#X obj 153 96 inlet;
#X text 147 77 hold time;
#X obj 174 180 f \$2;
#X obj 228 179 f \$3;
#X obj 338 181 f \$4;
#X obj 443 181 f \$5;
#X text 26 9 /// \$1-\$5 are ahdsr in ms. left outlet is envelope level.
right outlet bangs when envelope completes.;
#X obj 252 322 stagedaccumulator, f 59;
#X obj 457 289 t f f;
#X obj 252 346 t b f, f 8;
#X obj 252 370 f;
#X obj 252 394 pack f f;
#X obj 36 116 bng 15 250 50 0 empty empty empty 17 7 0 10 #fcfcfc #000000
#000000;
#X obj 252 418 route 0 1 2 3, f 72;
#X obj 36 255 countrange 0 4;
#X obj 634 109 bng 15 250 50 0 empty empty empty 17 7 0 10 #fcfcfc
#000000 #000000;
#X obj 415 606 line~;
#X obj 415 654 outlet~;
#X msg 252 514 1 \$1;
#X obj 377 442 del;
#X obj 338 205 clip 0 1;
#X obj 377 490 f;
#X obj 377 514 pack f f;
#X obj 502 442 del;
#X obj 377 466 t b b, f 8;
#X obj 430 490 f;
#X obj 228 227 t f f;
#X obj 443 205 t f f;
#X obj 502 466 t b b, f 8;
#X msg 502 490 0;
#X obj 502 514 pack f f;
#X obj 555 490 f;
#X obj 634 131 t b b b b b, f 58;
#X obj 93 118 t b f;
#X obj 153 120 t b f;
#X obj 228 116 t b f;
#X obj 443 116 t b f;
#X obj 93 142 s \$0-re;
#X obj 153 144 s \$0-re;
#X obj 228 140 s \$0-re;
#X obj 443 140 s \$0-re;
#X obj 694 82 r \$0-re;
#X obj 627 442 del;
#X obj 627 466 bng 15 250 50 0 empty empty empty 17 7 0 10 #fcfcfc
#000000 #000000;
#X obj 627 654 outlet;
#X text 763 396 right away \, attack \; then after delaying attack+hold
\, decay to sustain \; then after attack+hold+decay \, release \; then
after adr \, bang;
#X text 749 82 re-run [stagedaccumulator] with new env values;
#X obj 228 203 max 1;
#X obj 262 448 bng 15 250 50 0 empty empty empty 17 7 0 10 #fcfcfc
#000000 #000000;
#X obj 468 453 bng 15 250 50 0 empty empty empty 17 7 0 10 #fcfcfc
#000000 #000000;
#X obj 315 464 bng 15 250 50 0 empty empty empty 17 7 0 10 #fcfcfc
#000000 #000000;
#X obj 532 596 snapshotter~ 0 1;
#X connect 1 0 45 0;
#X connect 2 0 47 0;
#X connect 4 0 48 0;
#X connect 7 0 16 0;
#X connect 9 0 24 0;
#X connect 10 0 19 0;
#X connect 11 0 27 0;
#X connect 12 0 46 0;
#X connect 14 0 19 0;
#X connect 15 0 59 0;
#X connect 16 0 32 0;
#X connect 17 0 39 0;
#X connect 19 0 21 0;
#X connect 20 0 19 1;
#X connect 20 1 22 1;
#X connect 21 0 22 0;
#X connect 21 1 23 1;
#X connect 22 0 23 0;
#X connect 23 0 25 0;
#X connect 24 0 26 0;
#X connect 25 0 30 0;
#X connect 25 0 60 0;
#X connect 25 1 31 0;
#X connect 25 2 35 0;
#X connect 25 3 54 0;
#X connect 26 0 20 0;
#X connect 27 0 44 0;
#X connect 27 0 16 0;
#X connect 28 0 29 0;
#X connect 28 0 63 0;
#X connect 30 0 28 0;
#X connect 31 0 36 0;
#X connect 31 0 62 0;
#X connect 32 0 33 1;
#X connect 33 0 34 0;
#X connect 34 0 28 0;
#X connect 35 0 40 0;
#X connect 35 0 61 0;
#X connect 36 0 33 0;
#X connect 36 1 37 0;
#X connect 37 0 34 1;
#X connect 38 0 37 1;
#X connect 38 1 19 0;
#X connect 39 0 43 1;
#X connect 39 1 19 0;
#X connect 40 0 41 0;
#X connect 40 1 43 0;
#X connect 41 0 42 0;
#X connect 42 0 28 0;
#X connect 43 0 42 1;
#X connect 44 0 17 0;
#X connect 44 1 15 0;
#X connect 44 2 14 0;
#X connect 44 3 10 0;
#X connect 44 4 19 2;
#X connect 45 0 49 0;
#X connect 45 1 10 1;
#X connect 46 0 50 0;
#X connect 46 1 14 1;
#X connect 47 0 51 0;
#X connect 47 1 15 1;
#X connect 48 0 52 0;
#X connect 48 1 17 1;
#X connect 53 0 27 0;
#X connect 54 0 55 0;
#X connect 55 0 56 0;
#X connect 59 0 38 0;
