#N canvas 536 105 644 646 12;
#X obj 36 341 bng 15 250 50 0 empty empty empty 17 7 0 10 -262144 -1
-1;
#X obj 156 450 pack 0 500;
#X floatatom 443 177 5 0 0 0 - - -;
#X obj 36 451 pack 1 20;
#X obj 156 372 del 1;
#X floatatom 228 175 5 0 0 0 - - -;
#X text 440 78 release;
#X obj 93 98 inlet;
#X obj 228 96 inlet;
#X text 28 79 trigger;
#X obj 443 96 inlet;
#X text 91 81 attack;
#X text 228 78 decay;
#X floatatom 338 177 5 0 1 0 - - -;
#X obj 338 96 inlet;
#X text 337 78 sustain;
#X obj 376 450 pack 0 500;
#X obj 36 310 sel 0 1;
#X obj 156 396 bng 15 250 50 0 empty empty empty 17 7 0 10 -262144
-1 -1;
#X obj 156 421 f;
#X obj 376 395 bng 15 250 50 0 empty empty empty 17 7 0 10 -262144
-1 -1;
#X obj 36 96 inlet;
#X floatatom 338 248 5 0 0 0 - - -;
#X obj 338 224 clip 0 1;
#X obj 93 154 f \$1;
#X obj 275 118 loadbang;
#X msg 38 264 1;
#X msg 69 286 0;
#X obj 36 128 t b b;
#X obj 69 264 del;
#X obj 153 100 inlet;
#X text 147 81 hold time;
#X obj 174 154 f \$2;
#X obj 228 153 f \$3;
#X obj 338 155 f \$4;
#X obj 443 155 f \$5;
#X obj 189 224 +;
#X obj 201 247 +;
#X floatatom 93 175 5 0 0 0 - - -;
#X floatatom 174 175 5 0 0 0 - - -;
#X floatatom 188 348 5 0 0 0 - - -;
#X floatatom 201 271 5 0 0 0 - - -;
#X obj 174 198 t b f;
#X obj 228 198 t b f;
#X obj 36 521 line;
#X obj 36 545 *;
#X obj 36 595 outlet;
#X obj 376 415 t b b, f 9;
#X obj 443 200 t f f;
#X obj 458 450 del 1;
#X obj 458 474 bng 15 250 50 0 empty empty empty 17 7 0 10 -262144
-1 -1;
#X obj 458 494 outlet;
#X text 26 9 /// \$1-\$5 are ahdsr in ms. left outlet is envelope level.
right outlet bangs when envelope completes.;
#X obj 36 569 percentgraph;
#X connect 0 0 3 0;
#X connect 0 0 4 0;
#X connect 1 0 44 0;
#X connect 2 0 48 0;
#X connect 3 0 44 0;
#X connect 4 0 18 0;
#X connect 5 0 1 1;
#X connect 5 0 43 0;
#X connect 7 0 24 0;
#X connect 8 0 33 0;
#X connect 10 0 35 0;
#X connect 13 0 23 0;
#X connect 14 0 34 0;
#X connect 16 0 44 0;
#X connect 17 0 20 0;
#X connect 17 1 0 0;
#X connect 18 0 19 0;
#X connect 19 0 1 0;
#X connect 20 0 47 0;
#X connect 21 0 28 0;
#X connect 22 0 19 1;
#X connect 23 0 22 0;
#X connect 24 0 38 0;
#X connect 25 0 24 0;
#X connect 25 0 33 0;
#X connect 25 0 34 0;
#X connect 25 0 35 0;
#X connect 25 0 32 0;
#X connect 26 0 17 0;
#X connect 27 0 17 0;
#X connect 28 0 29 0;
#X connect 28 1 26 0;
#X connect 29 0 27 0;
#X connect 30 0 32 0;
#X connect 32 0 39 0;
#X connect 33 0 5 0;
#X connect 34 0 13 0;
#X connect 35 0 2 0;
#X connect 36 0 37 0;
#X connect 36 0 40 0;
#X connect 37 0 41 0;
#X connect 38 0 36 0;
#X connect 38 0 3 1;
#X connect 39 0 42 0;
#X connect 40 0 4 1;
#X connect 41 0 29 1;
#X connect 42 0 36 0;
#X connect 42 1 36 1;
#X connect 43 0 37 0;
#X connect 43 1 37 1;
#X connect 44 0 45 0;
#X connect 44 0 45 1;
#X connect 45 0 53 0;
#X connect 47 0 49 0;
#X connect 47 1 16 0;
#X connect 48 0 49 1;
#X connect 48 1 16 1;
#X connect 49 0 50 0;
#X connect 50 0 51 0;
#X connect 53 0 46 0;
