#N canvas 0 38 485 384 12;
#X obj 10 91 inlet;
#X obj 10 163 t b f;
#X obj 112 163 t b f;
#X obj 24 269 f;
#X obj 126 271 f;
#X obj 24 293 +, f 15;
#X obj 70 207 t b b;
#X obj 24 341 outlet;
#X obj 10 115 sel 0 1, f 11;
#X msg 10 139 0;
#X msg 47 139 1;
#X obj 112 91 inlet;
#X obj 112 115 sel 0 1, f 11;
#X msg 112 139 0;
#X msg 149 139 1;
#X obj 212 162 print;
#X obj 24 317 > 1;
#X text 7 4 /// UPON EITHER INLET RECEIVING A 0 OR 1 \, RETURNS 0 OR
1 \, \; /// FROM THE OUTLET. 1 MEANS THAT THE MOST RECENT VALUE \;
/// FROM BOTH INLETS WAS 1 \, AND 0 MEANS THAT ONE OR BOTH \; /// OF
THE INLETS HAD A 0 AS THEIR MOST RECENT VALUE.;
#X msg 212 138 [and] cannot handle an input of \$1.;
#X connect 0 0 8 0;
#X connect 1 0 6 0;
#X connect 1 1 3 1;
#X connect 2 0 6 0;
#X connect 2 1 4 1;
#X connect 3 0 5 0;
#X connect 4 0 5 1;
#X connect 5 0 16 0;
#X connect 6 0 3 0;
#X connect 6 1 4 0;
#X connect 8 0 9 0;
#X connect 8 1 10 0;
#X connect 8 2 18 0;
#X connect 9 0 1 0;
#X connect 10 0 1 0;
#X connect 11 0 12 0;
#X connect 12 0 13 0;
#X connect 12 1 14 0;
#X connect 12 2 18 0;
#X connect 13 0 2 0;
#X connect 14 0 2 0;
#X connect 16 0 7 0;
#X connect 18 0 15 0;
