#N canvas 542 149 450 607 12;
#X obj 125 156 inlet;
#X obj 176 156 inlet;
#X obj 190 197 loadbang;
#X obj 190 221 f \$1;
#X obj 190 245 / 2;
#X obj 255 197 loadbang;
#X obj 255 221 f \$2;
#X obj 255 245 * 2;
#X obj 227 156 inlet;
#X obj 125 277 tgl 15 0 empty empty empty 17 7 0 10 -262144 -1 -1 1
1;
#X obj 125 297 metronome 0 0, f 19;
#X obj 125 401 / 2;
#X floatatom 125 510 5 0 0 0 - - -;
#X obj 125 562 outlet;
#X obj 125 449 i;
#X floatatom 125 321 5 0 0 0 - - -;
#X floatatom 125 425 5 0 0 0 - - -;
#X obj 125 344 + 1;
#X floatatom 125 368 5 0 0 0 - - -;
#X obj 200 561 outlet;
#X obj 200 342 / 2;
#X obj 200 366 + 1;
#X obj 200 390 i;
#X floatatom 200 461 5 0 0 0 - - -;
#X obj 200 414 moses, f 12;
#X obj 281 295 + 1;
#X obj 200 484 f, f 10;
#X floatatom 200 508 5 0 0 0 - - -;
#X text 93 134 play/pause;
#X text 148 122 \$1 ms per tick;
#X text 221 139 \$2 number of beats \, inclusive;
#X text 10 19 /// WRAPPER FOR [metronome] \; /// \$1 is ms per tick
\, \$2 is number of beats \, inclusive \; /// left outlet is the current
beat \; /// right outlet is the closest beat. \; /// could be useful
for quantizing human input to closest beat;
#X msg 281 441 1;
#X obj 125 533 change;
#X obj 200 531 change;
#X connect 0 0 9 0;
#X connect 1 0 3 0;
#X connect 2 0 3 0;
#X connect 3 0 4 0;
#X connect 4 0 10 1;
#X connect 5 0 6 0;
#X connect 6 0 7 0;
#X connect 6 0 25 0;
#X connect 7 0 10 2;
#X connect 8 0 6 0;
#X connect 9 0 10 0;
#X connect 10 0 15 0;
#X connect 11 0 16 0;
#X connect 12 0 33 0;
#X connect 14 0 12 0;
#X connect 15 0 17 0;
#X connect 15 0 20 0;
#X connect 16 0 14 0;
#X connect 17 0 18 0;
#X connect 18 0 11 0;
#X connect 20 0 21 0;
#X connect 21 0 22 0;
#X connect 22 0 24 0;
#X connect 23 0 26 0;
#X connect 24 0 23 0;
#X connect 24 1 32 0;
#X connect 25 0 24 1;
#X connect 26 0 27 0;
#X connect 27 0 34 0;
#X connect 32 0 26 0;
#X connect 33 0 13 0;
#X connect 34 0 19 0;
