#N canvas 572 114 420 583 12;
#X obj 67 91 inlet;
#X obj 155 91 inlet;
#X obj 197 91 loadbang;
#X floatatom 106 330 5 0 0 0 - - - 0;
#X obj 201 363 i;
#X obj 106 387 sel 1;
#X obj 106 435 +, f 14;
#X obj 67 279 t f f, f 6;
#X obj 67 493 +, f 6;
#X floatatom 67 527 5 0 0 0 - - - 0;
#X obj 67 550 outlet;
#X obj 67 169 sel 1;
#X obj 67 115 t f f f, f 8;
#X obj 67 228 f;
#X obj 99 228 f;
#X obj 99 193 bng 15 250 50 0 empty empty empty 17 7 0 10 #fcfcfc #000000
#000000;
#X obj 67 145 >=;
#X obj 106 363 >=, f 8;
#X msg 106 411 -1;
#X msg 138 411 0;
#X obj 67 252 % \$1;
#X obj 159 339 % \$1;
#X obj 201 339 / \$1;
#X obj 106 459 * \$1;
#X text 11 24 // INITIALIZE \$1 TO THE SIZE OF THE "GROUP.";
#X text 11 40 // IN MOST COMMON USE CASE \, \$1 WOULD BE 12 FOR OCTAVE.
;
#X obj 155 115 f \$2;
#X text 154 71 \$2 ceiling value;
#X text 12 8 // MOVES THE VALUE SO IT'S BELOW \$2 CEIL (EXCLUSIVE).
;
#X text 23 71 value to adjust;
#X connect 0 0 12 0;
#X connect 1 0 26 0;
#X connect 2 0 26 0;
#X connect 3 0 17 0;
#X connect 4 0 6 1;
#X connect 5 0 18 0;
#X connect 5 1 19 0;
#X connect 6 0 23 0;
#X connect 7 0 8 0;
#X connect 7 1 3 0;
#X connect 8 0 9 0;
#X connect 9 0 10 0;
#X connect 11 0 13 0;
#X connect 11 1 15 0;
#X connect 12 0 16 0;
#X connect 12 1 13 1;
#X connect 12 2 14 1;
#X connect 13 0 20 0;
#X connect 14 0 9 0;
#X connect 15 0 14 0;
#X connect 16 0 11 0;
#X connect 17 0 5 0;
#X connect 18 0 6 0;
#X connect 19 0 6 0;
#X connect 20 0 7 0;
#X connect 21 0 17 1;
#X connect 22 0 4 0;
#X connect 23 0 8 1;
#X connect 26 0 16 1;
#X connect 26 0 21 0;
#X connect 26 0 22 0;
