#N canvas 13 85 1267 586 12;
#X obj 134 160 unpack f f, f 11;
#X obj 134 184 sel 0 1, f 9;
#X obj 134 325 f;
#X obj 514 325 f;
#X obj 874 325 f;
#X obj 134 551 outlet;
#X msg 134 397 average-on-ms \$1;
#X msg 514 397 average-off-ms \$1;
#X msg 874 397 average-both-ms \$1;
#X obj 134 136 inlet;
#X obj 134 373 rollingaverage \$1;
#X obj 514 373 rollingaverage \$1;
#X obj 874 373 rollingaverage \$1;
#X obj 264 373 rollingaveragedistance \$1;
#X obj 644 373 rollingaveragedistance \$1;
#X obj 1004 373 rollingaveragedistance \$1;
#X obj 134 349 t b f f, f 19;
#X obj 514 349 t b f f, f 19;
#X obj 874 349 t b f f, f 19;
#X msg 264 397 on-distance-ms \$1;
#X msg 644 397 off-distance-ms \$1;
#X msg 1004 397 both-distance-ms \$1;
#X text 418 11 /// average-on-ms: ROLLING AVERAGE THAT STATE IS ON
\; /// on-distance-ms: HOW FAR THIS DURATION IS FROM THE ON AVERAGE
\; /// average-off-ms: ROLLING AVERAGE THAT STATE IS OFF \; /// off-distance-ms:
HOW FAR THIS DURATION IS FROM THE OFF AVERAGE \; /// average-both-ms:
ROLLING AVERAGE OF BOTH ON/OFF STATES \; /// both-distance-ms: HOW
FAR THIS DURATION IS FROM THE ROLLING AVERAGE OF BOTH ON AND OFF STATES.
;
#X text 12 11 /// INITIALIZE WITH \$1 BEING HOW MANY ENTRIES TO \;
/// CONSIDER FOR ANALYSIS. \; /// \; /// PASS IN THE FIRST OUTLET OF
[binarystatetimer] FOR \; /// ANALYSIS. PLUG THE OUTLET OF THIS OBJECT
INTO A \; /// [route average-on-ms on-distance-ms average-off-ms off-distance-ms
average-both-ms both-distance-ms] \; /// FOR ANALYSIS.;
#X connect 0 0 1 0;
#X connect 0 1 3 1;
#X connect 0 1 4 1;
#X connect 0 1 2 1;
#X connect 1 0 4 0;
#X connect 1 0 2 0;
#X connect 1 1 3 0;
#X connect 1 1 4 0;
#X connect 2 0 16 0;
#X connect 3 0 17 0;
#X connect 4 0 18 0;
#X connect 6 0 5 0;
#X connect 7 0 5 0;
#X connect 8 0 5 0;
#X connect 9 0 0 0;
#X connect 10 0 6 0;
#X connect 11 0 7 0;
#X connect 12 0 8 0;
#X connect 13 0 19 0;
#X connect 14 0 20 0;
#X connect 15 0 21 0;
#X connect 16 0 10 1;
#X connect 16 1 10 0;
#X connect 16 2 13 0;
#X connect 17 0 11 1;
#X connect 17 1 11 0;
#X connect 17 2 14 0;
#X connect 18 0 12 1;
#X connect 18 1 12 0;
#X connect 18 2 15 0;
#X connect 19 0 5 0;
#X connect 20 0 5 0;
#X connect 21 0 5 0;
