#N canvas 0 23 774 755 12;
#X text 498 9 attack/release;
#X text 8 10 booster signal;
#X text 239 10 boosted signal;
#X obj 28 37 inlet~;
#X obj 276 37 inlet~;
#X obj 28 78 outlet~;
#X obj 276 524 outlet~;
#X obj 276 499 *~;
#X obj 371 37 inlet;
#X obj 107 357 pack 1 500;
#X obj 510 37 inlet;
#X obj 107 71 env~ 1024;
#X obj 107 382 line~;
#X obj 107 208 snapshot~;
#X obj 16 185 metro 10;
#X obj 16 164 tgl 15 0 empty empty empty 17 7 0 10 -262144 -1 -1 1
1;
#X obj 107 95 sig~;
#X obj 16 138 loadbang;
#X obj 107 232 t f f;
#X obj 107 306 *, f 5;
#X obj 107 330 / 10000;
#X obj 371 83 clip 0 1;
#X text 367 16 boost %;
#X obj 139 269 *;
#X obj 107 406 percentgraph~;
#X obj 371 61 deff \$1 1;
#X obj 510 61 deff \$2 50;
#X connect 3 0 5 0;
#X connect 3 0 11 0;
#X connect 4 0 7 0;
#X connect 7 0 6 0;
#X connect 8 0 25 0;
#X connect 9 0 12 0;
#X connect 10 0 26 0;
#X connect 11 0 16 0;
#X connect 12 0 24 0;
#X connect 13 0 18 0;
#X connect 14 0 13 0;
#X connect 15 0 14 0;
#X connect 16 0 13 0;
#X connect 17 0 15 0;
#X connect 18 0 19 0;
#X connect 18 1 23 0;
#X connect 19 0 20 0;
#X connect 20 0 9 0;
#X connect 21 0 23 1;
#X connect 23 0 19 1;
#X connect 24 0 7 1;
#X connect 25 0 21 0;
#X connect 26 0 9 1;
