#N canvas 544 211 237 190 12;
#X obj 23 28 inlet;
#X obj 23 52 t b f;
#X obj 37 128 /;
#X obj 37 153 outlet;
#X text 27 6 bpm;
#X msg 10 90 60000;
#X text 84 153 ms per quarter note;
#X connect 0 0 1 0;
#X connect 1 0 5 0;
#X connect 1 1 2 1;
#X connect 2 0 3 0;
#X connect 5 0 2 0;
