#N canvas 544 211 192 190 12;
#X obj 23 28 inlet;
#X msg 10 90 60000;
#X obj 23 52 t b f;
#X obj 37 128 /;
#X obj 37 153 outlet;
#X text 27 6 bpm;
#X text 84 153 ms per beat;
#X connect 0 0 2 0;
#X connect 1 0 3 0;
#X connect 2 0 1 0;
#X connect 2 1 3 1;
#X connect 3 0 4 0;
