#N canvas 680 201 447 441 12;
#X obj 109 228 catch~ outL;
#X obj 190 228 catch~ outC;
#X obj 271 228 catch~ outR;
#X obj 109 332 outlet~;
#X obj 271 332 outlet~;
#X obj 109 252 *~;
#X obj 271 252 *~;
#X obj 190 252 *~ 0.5;
#X obj 1 124 ramp~;
#X text 5 1 -- catchout :) --;
#X obj 1 20 level 1;
#X connect 0 0 5 0;
#X connect 1 0 7 0;
#X connect 2 0 6 0;
#X connect 5 0 3 0;
#X connect 6 0 4 0;
#X connect 7 0 5 0;
#X connect 7 0 6 0;
#X connect 8 0 5 1;
#X connect 8 0 6 1;
#X connect 10 0 8 0;
#X coords 0 -1 1 1 134 37 2 1 1;
