#N canvas 92 130 659 464 12;
#X obj 167 111 ftom;
#X floatatom 167 135 10 0 0 0 - - - 0;
#X floatatom 199 206 10 0 0 0 - - - 0;
#X obj 199 182 * 100;
#X floatatom 199 253 5 0 0 0 - - - 0;
#X obj 199 229 % 100;
#X obj 167 158 t f f;
#X obj 167 182 i;
#X floatatom 167 253 5 0 0 0 - - - 0;
#X obj 199 300 / 100;
#X floatatom 199 324 5 0 0 0 - - - 0;
#X obj 167 347 +, f 5;
#X obj 167 371 mtof;
#X floatatom 167 395 10 0 0 0 - - - 0;
#X obj 199 276 +, f 18;
#X obj 290 40 inlet;
#X obj 167 418 outlet;
#X obj 167 40 inlet;
#X obj 290 111 t b f;
#X obj 167 87 f;
#X floatatom 167 64 5 0 0 0 - - - 0;
#X text 167 11 freq;
#X text 260 15 cents to detune;
#X obj 322 208 *;
#X obj 425 43 inlet;
#X obj 425 67 clip 0 1;
#X obj 425 91 t b f;
#X floatatom 290 64 5 0 0 0 - - - 0;
#X obj 290 87 f;
#X text 396 15 percentage to apply the detune;
#X text 221 421 freq;
#X connect 0 0 1 0;
#X connect 1 0 6 0;
#X connect 2 0 5 0;
#X connect 3 0 2 0;
#X connect 4 0 14 0;
#X connect 5 0 4 0;
#X connect 6 0 7 0;
#X connect 6 1 3 0;
#X connect 7 0 8 0;
#X connect 8 0 11 0;
#X connect 9 0 10 0;
#X connect 10 0 11 1;
#X connect 11 0 12 0;
#X connect 12 0 13 0;
#X connect 13 0 16 0;
#X connect 14 0 9 0;
#X connect 15 0 27 0;
#X connect 17 0 20 0;
#X connect 18 0 19 0;
#X connect 18 1 23 0;
#X connect 19 0 0 0;
#X connect 20 0 19 0;
#X connect 23 0 14 1;
#X connect 24 0 25 0;
#X connect 25 0 26 0;
#X connect 26 0 28 0;
#X connect 26 1 23 1;
#X connect 27 0 28 0;
#X connect 28 0 18 0;
