#N canvas 284 399 450 300 12;
#X obj 161 63 inlet;
#X obj 193 135 sel 0 1, f 28;
#X obj 130 210 spigot;
#X obj 201 209 spigot;
#X msg 193 159 0;
#X msg 223 159 1;
#X msg 288 159 0;
#X msg 318 159 1;
#X obj 130 234 outlet;
#X obj 201 233 outlet;
#X obj 161 87 t f f f;
#X obj 193 111 == \$1;
#X text 18 15 like [change] \, but outputs the input value from left
outlet if changed (can initialize with \$1) \, or from right outlet
if didn't change.;
#X connect 0 0 10 0;
#X connect 1 0 4 0;
#X connect 1 0 5 0;
#X connect 1 1 6 0;
#X connect 1 1 7 0;
#X connect 2 0 8 0;
#X connect 3 0 9 0;
#X connect 4 0 3 1;
#X connect 5 0 2 1;
#X connect 6 0 2 1;
#X connect 7 0 3 1;
#X connect 10 0 2 0;
#X connect 10 0 3 0;
#X connect 10 1 11 1;
#X connect 10 2 11 0;
#X connect 11 0 1 0;
