#N canvas 137 321 1661 731 12;
#X obj 21 34 inlet;
#X obj 20 678 outlet;
#X obj 607 34 inlet;
#X obj 607 148 unpack f f f f f f f, f 78;
#X obj 21 148 sel 1 2 3 4 5 6 7, f 82;
#X obj 21 172 t b b b b;
#X obj 102 172 t b b b b;
#X obj 184 172 t b b b b;
#X obj 265 172 t b b b b;
#X obj 347 172 t b b b b;
#X obj 428 172 t b b b b;
#X obj 510 172 t b b b b;
#X obj 607 172 t f f f f;
#X obj 697 172 t f f f f;
#X obj 788 172 t f f f f;
#X obj 878 172 t f f f f;
#X obj 969 172 t f f f f;
#X obj 1059 172 t f f f f;
#X obj 1150 172 t f f f f;
#X obj 21 263 f;
#X obj 31 285 f;
#X obj 41 307 f;
#X obj 51 329 f;
#X obj 194 263 f;
#X obj 204 285 f;
#X obj 214 307 f;
#X obj 224 329 f;
#X obj 364 263 f;
#X obj 374 285 f;
#X obj 384 307 f;
#X obj 394 329 f;
#X obj 543 263 f;
#X obj 553 285 f;
#X obj 563 307 f;
#X obj 573 329 f;
#X obj 724 263 f;
#X obj 734 285 f;
#X obj 744 307 f;
#X obj 754 329 f;
#X obj 924 263 f;
#X obj 934 285 f;
#X obj 944 307 f;
#X obj 954 329 f;
#X obj 1133 263 f;
#X obj 1143 285 f;
#X obj 1153 307 f;
#X obj 1163 329 f;
#X obj 20 510 pack f f f f, f 169;
#X text 19 11 chord (1 for root \, 5 for fifth \, etc.);
#X obj 940 34 inlet;
#X obj 940 58 f \$2;
#X text 605 14 \$1 mode;
#X obj 607 58 mode \$1;
#X text 937 13 \$2 midi note offset;
#X obj 775 34 loadbang;
#X obj 21 371 +;
#X obj 31 393 +;
#X obj 41 415 +;
#X obj 51 437 +;
#X obj 194 371 +;
#X obj 204 393 +;
#X obj 214 415 +;
#X obj 224 437 +;
#X obj 364 371 +;
#X obj 374 393 +;
#X obj 384 415 +;
#X obj 394 437 +;
#X obj 543 371 +;
#X obj 553 393 +;
#X obj 563 415 +;
#X obj 573 437 +;
#X obj 724 371 +;
#X obj 734 393 +;
#X obj 744 415 +;
#X obj 754 437 +;
#X obj 924 371 +;
#X obj 934 393 +;
#X obj 944 415 +;
#X obj 954 437 +;
#X obj 1133 371 +;
#X obj 1143 393 +;
#X obj 1153 415 +;
#X obj 1163 437 +;
#X obj 20 534 unpack f f f f, f 169;
#X obj 20 582 f;
#X obj 52 630 sel 1;
#X obj 20 654 pack f f f f, f 169;
#X obj 413 582 f;
#X obj 445 630 sel 1;
#X obj 806 582 f;
#X obj 838 630 sel 1;
#X obj 1200 582 f;
#X obj 1232 630 sel 1;
#X obj 52 606 >= 1;
#X obj 445 606 >= 2;
#X obj 838 606 >= 3;
#X obj 1232 606 >= 4;
#X obj 20 558 t b f;
#X obj 413 558 t b f;
#X obj 806 558 t b f;
#X obj 1200 558 t b f;
#X text 1268 174 \$3 is number of notes (1 \, 2 \, 3 \, or 4). defaults
to 4 \; if two notes \, plays root and third. if three notes \, \;
plays root \, third \, and fifth. if four notes \, plays \; root \,
third \, fifth \, and seventh.;
#X obj 52 582 f;
#X obj 442 582 f;
#X obj 838 582 f;
#X obj 1232 582 f;
#X obj 1380 244 inlet;
#X obj 1380 268 deff \$3 4;
#X connect 0 0 4 0;
#X connect 2 0 52 0;
#X connect 3 0 12 0;
#X connect 3 1 13 0;
#X connect 3 2 14 0;
#X connect 3 3 15 0;
#X connect 3 4 16 0;
#X connect 3 5 17 0;
#X connect 3 6 18 0;
#X connect 4 0 5 0;
#X connect 4 1 6 0;
#X connect 4 2 7 0;
#X connect 4 3 8 0;
#X connect 4 4 9 0;
#X connect 4 5 10 0;
#X connect 4 6 11 0;
#X connect 5 0 19 0;
#X connect 5 1 28 0;
#X connect 5 2 37 0;
#X connect 5 3 46 0;
#X connect 6 0 23 0;
#X connect 6 1 32 0;
#X connect 6 2 41 0;
#X connect 6 3 22 0;
#X connect 7 0 27 0;
#X connect 7 1 36 0;
#X connect 7 2 45 0;
#X connect 7 3 26 0;
#X connect 8 0 31 0;
#X connect 8 1 40 0;
#X connect 8 2 21 0;
#X connect 8 3 30 0;
#X connect 9 0 35 0;
#X connect 9 1 44 0;
#X connect 9 2 25 0;
#X connect 9 3 34 0;
#X connect 10 0 39 0;
#X connect 10 1 20 0;
#X connect 10 2 29 0;
#X connect 10 3 38 0;
#X connect 11 0 43 0;
#X connect 11 1 24 0;
#X connect 11 2 33 0;
#X connect 11 3 42 0;
#X connect 12 0 19 1;
#X connect 12 1 20 1;
#X connect 12 2 21 1;
#X connect 12 3 22 1;
#X connect 13 0 23 1;
#X connect 13 1 24 1;
#X connect 13 2 25 1;
#X connect 13 3 26 1;
#X connect 14 0 27 1;
#X connect 14 1 28 1;
#X connect 14 2 29 1;
#X connect 14 3 30 1;
#X connect 15 0 31 1;
#X connect 15 1 32 1;
#X connect 15 2 33 1;
#X connect 15 3 34 1;
#X connect 16 0 35 1;
#X connect 16 1 36 1;
#X connect 16 2 37 1;
#X connect 16 3 38 1;
#X connect 17 0 39 1;
#X connect 17 1 40 1;
#X connect 17 2 41 1;
#X connect 17 3 42 1;
#X connect 18 0 43 1;
#X connect 18 1 44 1;
#X connect 18 2 45 1;
#X connect 18 3 46 1;
#X connect 19 0 55 0;
#X connect 20 0 56 0;
#X connect 21 0 57 0;
#X connect 22 0 58 0;
#X connect 23 0 59 0;
#X connect 24 0 60 0;
#X connect 25 0 61 0;
#X connect 26 0 62 0;
#X connect 27 0 63 0;
#X connect 28 0 64 0;
#X connect 29 0 65 0;
#X connect 30 0 66 0;
#X connect 31 0 67 0;
#X connect 32 0 68 0;
#X connect 33 0 69 0;
#X connect 34 0 70 0;
#X connect 35 0 71 0;
#X connect 36 0 72 0;
#X connect 37 0 73 0;
#X connect 38 0 74 0;
#X connect 39 0 75 0;
#X connect 40 0 76 0;
#X connect 41 0 77 0;
#X connect 42 0 78 0;
#X connect 43 0 79 0;
#X connect 44 0 80 0;
#X connect 45 0 81 0;
#X connect 46 0 82 0;
#X connect 47 0 83 0;
#X connect 49 0 50 0;
#X connect 50 0 55 1;
#X connect 50 0 82 1;
#X connect 50 0 81 1;
#X connect 50 0 80 1;
#X connect 50 0 79 1;
#X connect 50 0 78 1;
#X connect 50 0 77 1;
#X connect 50 0 76 1;
#X connect 50 0 75 1;
#X connect 50 0 74 1;
#X connect 50 0 73 1;
#X connect 50 0 72 1;
#X connect 50 0 71 1;
#X connect 50 0 70 1;
#X connect 50 0 69 1;
#X connect 50 0 68 1;
#X connect 50 0 67 1;
#X connect 50 0 66 1;
#X connect 50 0 65 1;
#X connect 50 0 64 1;
#X connect 50 0 63 1;
#X connect 50 0 62 1;
#X connect 50 0 61 1;
#X connect 50 0 60 1;
#X connect 50 0 59 1;
#X connect 50 0 58 1;
#X connect 50 0 57 1;
#X connect 50 0 56 1;
#X connect 52 0 3 0;
#X connect 54 0 50 0;
#X connect 54 0 52 0;
#X connect 55 0 47 0;
#X connect 56 0 47 1;
#X connect 57 0 47 2;
#X connect 58 0 47 3;
#X connect 59 0 47 0;
#X connect 60 0 47 1;
#X connect 61 0 47 2;
#X connect 62 0 47 3;
#X connect 63 0 47 0;
#X connect 64 0 47 1;
#X connect 65 0 47 2;
#X connect 66 0 47 3;
#X connect 67 0 47 0;
#X connect 68 0 47 1;
#X connect 69 0 47 2;
#X connect 70 0 47 3;
#X connect 71 0 47 0;
#X connect 72 0 47 1;
#X connect 73 0 47 2;
#X connect 74 0 47 3;
#X connect 75 0 47 0;
#X connect 76 0 47 1;
#X connect 77 0 47 2;
#X connect 78 0 47 3;
#X connect 79 0 47 0;
#X connect 80 0 47 1;
#X connect 81 0 47 2;
#X connect 82 0 47 3;
#X connect 83 0 97 0;
#X connect 83 1 98 0;
#X connect 83 2 99 0;
#X connect 83 3 100 0;
#X connect 84 0 86 0;
#X connect 85 0 84 0;
#X connect 86 0 1 0;
#X connect 87 0 86 1;
#X connect 88 0 87 0;
#X connect 89 0 86 2;
#X connect 90 0 89 0;
#X connect 91 0 86 3;
#X connect 92 0 91 0;
#X connect 93 0 85 0;
#X connect 94 0 88 0;
#X connect 95 0 90 0;
#X connect 96 0 92 0;
#X connect 97 0 102 0;
#X connect 97 1 84 1;
#X connect 98 0 103 0;
#X connect 98 1 87 1;
#X connect 99 0 104 0;
#X connect 99 1 89 1;
#X connect 100 0 105 0;
#X connect 100 1 91 1;
#X connect 102 0 93 0;
#X connect 103 0 94 0;
#X connect 104 0 95 0;
#X connect 105 0 96 0;
#X connect 106 0 107 0;
#X connect 107 0 105 1;
#X connect 107 0 104 1;
#X connect 107 0 103 1;
#X connect 107 0 102 1;
