#N canvas 36 185 1128 455 12;
#X msg 61 151 10.8 33 33.8 55 62.64 63 70 73.6 83 98.4 105 110 111
147 147.85 172.06 210.42 221.23 264 293 342 396 404 408 410 413 416
417 420.82 440 448 528 630 639 685 852 880 1052 12000, f 138;
#X obj 61 189 unpack f f f f f f f f f f f f f f f f f f f f f f f
f f f f f f f f f f f f f f f f, f 139;
#X obj 43 213 f;
#X obj 68 237 f;
#X obj 94 213 f;
#X obj 119 237 f;
#X obj 145 213 f;
#X obj 170 237 f;
#X obj 196 213 f;
#X obj 221 237 f;
#X obj 247 213 f;
#X obj 272 237 f;
#X obj 298 213 f;
#X obj 323 237 f;
#X obj 349 213 f;
#X obj 374 237 f;
#X obj 400 213 f;
#X obj 425 237 f;
#X obj 451 213 f;
#X obj 476 237 f;
#X obj 502 213 f;
#X obj 528 237 f;
#X obj 553 213 f;
#X obj 579 237 f;
#X obj 604 213 f;
#X obj 630 237 f;
#X obj 655 213 f;
#X obj 681 237 f;
#X obj 706 213 f;
#X obj 732 237 f;
#X obj 757 213 f;
#X obj 783 237 f;
#X obj 808 213 f;
#X obj 833 237 f;
#X obj 859 213 f;
#X obj 885 237 f;
#X obj 910 213 f;
#X obj 936 237 f;
#X obj 961 213 f;
#X obj 987 237 f;
#X obj 1013 213 f;
#X obj 43 79 inlet;
#X obj 43 103 sel 1 2 3 4 5 6 7 8 9 10 11 12 13 14 15 16 17 18 19 20
21 22 23 24 25 26 27 28 29 30 31 32 33 34 35 36 37 38 39, f 143;
#X obj 61 127 loadbang;
#X obj 43 401 outlet;
#X text 43 18 /// PASS 1-BASED INDEX (1-39 at the moment \, inclusive)
TO GET THAT FREQUENCY FROM THE COLUNDI SEQUENCE BACK.;
#X connect 0 0 1 0;
#X connect 1 0 2 1;
#X connect 1 1 3 1;
#X connect 1 2 4 1;
#X connect 1 3 5 1;
#X connect 1 4 6 1;
#X connect 1 5 7 1;
#X connect 1 6 8 1;
#X connect 1 7 9 1;
#X connect 1 8 10 1;
#X connect 1 9 11 1;
#X connect 1 10 12 1;
#X connect 1 11 13 1;
#X connect 1 12 14 1;
#X connect 1 13 15 1;
#X connect 1 14 16 1;
#X connect 1 15 17 1;
#X connect 1 16 18 1;
#X connect 1 17 19 1;
#X connect 1 18 20 1;
#X connect 1 19 21 1;
#X connect 1 20 22 1;
#X connect 1 21 23 1;
#X connect 1 22 24 1;
#X connect 1 23 25 1;
#X connect 1 24 26 1;
#X connect 1 25 27 1;
#X connect 1 26 28 1;
#X connect 1 27 29 1;
#X connect 1 28 30 1;
#X connect 1 29 31 1;
#X connect 1 30 32 1;
#X connect 1 31 33 1;
#X connect 1 32 34 1;
#X connect 1 33 35 1;
#X connect 1 34 36 1;
#X connect 1 35 37 1;
#X connect 1 36 38 1;
#X connect 1 37 39 1;
#X connect 1 38 40 1;
#X connect 2 0 44 0;
#X connect 3 0 44 0;
#X connect 4 0 44 0;
#X connect 5 0 44 0;
#X connect 6 0 44 0;
#X connect 7 0 44 0;
#X connect 8 0 44 0;
#X connect 9 0 44 0;
#X connect 10 0 44 0;
#X connect 11 0 44 0;
#X connect 12 0 44 0;
#X connect 13 0 44 0;
#X connect 14 0 44 0;
#X connect 15 0 44 0;
#X connect 16 0 44 0;
#X connect 17 0 44 0;
#X connect 18 0 44 0;
#X connect 19 0 44 0;
#X connect 20 0 44 0;
#X connect 21 0 44 0;
#X connect 22 0 44 0;
#X connect 23 0 44 0;
#X connect 24 0 44 0;
#X connect 25 0 44 0;
#X connect 26 0 44 0;
#X connect 27 0 44 0;
#X connect 28 0 44 0;
#X connect 29 0 44 0;
#X connect 30 0 44 0;
#X connect 31 0 44 0;
#X connect 32 0 44 0;
#X connect 33 0 44 0;
#X connect 34 0 44 0;
#X connect 35 0 44 0;
#X connect 36 0 44 0;
#X connect 37 0 44 0;
#X connect 38 0 44 0;
#X connect 39 0 44 0;
#X connect 40 0 44 0;
#X connect 41 0 42 0;
#X connect 42 0 2 0;
#X connect 42 1 3 0;
#X connect 42 2 4 0;
#X connect 42 3 5 0;
#X connect 42 4 6 0;
#X connect 42 5 7 0;
#X connect 42 6 8 0;
#X connect 42 7 9 0;
#X connect 42 8 10 0;
#X connect 42 9 11 0;
#X connect 42 10 12 0;
#X connect 42 11 13 0;
#X connect 42 12 14 0;
#X connect 42 13 15 0;
#X connect 42 14 16 0;
#X connect 42 15 17 0;
#X connect 42 16 18 0;
#X connect 42 17 19 0;
#X connect 42 18 20 0;
#X connect 42 19 21 0;
#X connect 42 20 22 0;
#X connect 42 21 23 0;
#X connect 42 22 24 0;
#X connect 42 23 25 0;
#X connect 42 24 26 0;
#X connect 42 25 27 0;
#X connect 42 26 28 0;
#X connect 42 27 29 0;
#X connect 42 28 30 0;
#X connect 42 29 31 0;
#X connect 42 30 32 0;
#X connect 42 31 33 0;
#X connect 42 32 34 0;
#X connect 42 33 35 0;
#X connect 42 34 36 0;
#X connect 42 35 37 0;
#X connect 42 36 38 0;
#X connect 42 37 39 0;
#X connect 42 38 40 0;
#X connect 43 0 0 0;
