#N canvas 97 129 1346 749 12;
#X obj 122 196 tgl 15 0 empty empty empty 17 7 0 10 #fcfcfc #000000
#000000 0 1;
#X obj 221 358 bng 15 250 50 0 empty empty empty 17 7 0 10 #fcfcfc
#000000 #000000;
#X obj 306 688 out~;
#X obj 321 653 *~ 1;
#X obj 331 610 ducker~;
#X obj 243 29 hvparam validWindowDurationInMilliSeconds 0 1000 50;
#X obj 122 220 metronome 800 8;
#X obj 29 73 bpmtoms;
#X obj 29 31 hvparam bpm 0 1500 200;
#X obj 237 117 hvparam beat1 0 1 0;
#X obj 374 117 hvparam beat2 0 1 0;
#X obj 511 117 hvparam beat3 0 1 0;
#X obj 648 117 hvparam beat4 0 1 0;
#X obj 785 117 hvparam beat5 0 1 0;
#X obj 922 117 hvparam beat6 0 1 0;
#X obj 1059 117 hvparam beat7 0 1 0;
#X obj 1196 117 hvparam beat8 0 1 0;
#X obj 395 264 8step, f 92;
#X obj 395 242 - 1;
#X obj 23 103 hvparam startStop 0 1 0;
#X obj 17 153 sel 0 1;
#X msg 17 177 0;
#X msg 97 282 1;
#X obj 122 334 sel 1, f 15;
#X obj 875 482 s beat @hv_param;
#X obj 122 244 t f f, f 35;
#X msg 32 445 1;
#X obj 32 469 s resolve @hv_param;
#X obj 41 289 metro;
#X msg 30 232 1;
#X obj 30 207 t b b;
#X obj 13 311 counter 5;
#X obj 29 339 sel 4;
#X obj 27 366 t b b;
#X msg 23 396 0;
#X obj 13 266 tgl 15 0 empty empty empty 17 7 0 10 #fcfcfc #000000
#000000 0 1;
#X obj 8 134 tgl 15 0 empty empty empty 17 7 0 10 #fcfcfc #000000 #000000
0 1;
#X obj 917 51 audioclip~ tom 35382;
#X obj 288 461 playback~ tom 35382;
#X obj 221 378 t b b;
#X floatatom 410 432 5 0 0 0 - - - 0;
#X obj 410 408 / 100;
#X obj 410 384 randrange 97 103;
#X obj 288 485 *~ 0.7;
#X obj 582 517 envgen~ 1 5 0.2 20 0 20;
#X obj 582 541 *~, f 27;
#X obj 584 489 bng 15 250 50 0 empty empty empty 17 7 0 10 #fcfcfc
#000000 #000000;
#X obj 768 516 osc~ 1046.5;
#X obj 582 565 *~ 0.3;
#X obj 917 70 audioclip~ thud 7554;
#X obj 725 329 hvevent attack;
#X obj 909 330 hvevent block;
#X obj 909 370 playback~ thud 7554;
#X obj 909 394 *~ 2;
#X obj 725 393 *~ 2;
#X obj 917 32 audioclip~ zap 27218;
#X obj 725 369 playback~ zap 27218;
#X obj 643 381 snare~;
#X connect 0 0 6 0;
#X connect 1 0 39 0;
#X connect 3 0 2 0;
#X connect 3 0 2 1;
#X connect 4 0 3 0;
#X connect 4 1 3 0;
#X connect 6 0 25 0;
#X connect 7 0 6 1;
#X connect 7 0 28 1;
#X connect 8 0 7 0;
#X connect 9 0 17 1;
#X connect 10 0 17 2;
#X connect 11 0 17 3;
#X connect 12 0 17 4;
#X connect 13 0 17 5;
#X connect 14 0 17 6;
#X connect 15 0 17 7;
#X connect 16 0 17 8;
#X connect 17 0 23 0;
#X connect 18 0 17 0;
#X connect 19 0 36 0;
#X connect 20 0 21 0;
#X connect 20 1 30 0;
#X connect 21 0 0 0;
#X connect 21 0 35 0;
#X connect 22 0 0 0;
#X connect 23 0 26 0;
#X connect 23 1 1 0;
#X connect 25 0 24 0;
#X connect 25 1 18 0;
#X connect 26 0 27 0;
#X connect 28 0 31 0;
#X connect 29 0 35 0;
#X connect 30 0 29 0;
#X connect 30 1 31 1;
#X connect 31 0 32 0;
#X connect 32 0 33 0;
#X connect 32 1 46 0;
#X connect 33 0 22 0;
#X connect 33 1 34 0;
#X connect 34 0 35 0;
#X connect 35 0 28 0;
#X connect 36 0 20 0;
#X connect 38 0 43 0;
#X connect 39 0 38 0;
#X connect 39 1 42 0;
#X connect 40 0 38 1;
#X connect 41 0 40 0;
#X connect 42 0 41 0;
#X connect 43 0 4 1;
#X connect 44 0 45 0;
#X connect 45 0 48 0;
#X connect 46 0 44 0;
#X connect 47 0 45 1;
#X connect 48 0 3 0;
#X connect 50 0 56 0;
#X connect 50 0 57 0;
#X connect 51 0 52 0;
#X connect 52 0 53 0;
#X connect 53 0 3 0;
#X connect 54 0 3 0;
#X connect 56 0 54 0;
#X connect 57 0 3 0;
