#N canvas 122 159 450 167 12;
#X obj 69 72 inlet~;
#X obj 123 72 inlet~;
#X obj 69 96 hv.compressor2, f 16;
#X obj 248 43 inlet;
#X obj 248 91 scaled 0 1 50 100;
#X obj 178 48 loadbang;
#X msg 178 72 ratio 0;
#X msg 248 115 threshold \$1;
#X obj 69 120 outlet~;
#X obj 132 120 outlet~;
#X obj 248 67 deff \$1 0.5;
#X text 68 49 // L;
#X text 123 49 // R;
#X text 249 22 // \$1 THRESHOLD (0-1);
#X connect 0 0 2 0;
#X connect 1 0 2 1;
#X connect 2 0 8 0;
#X connect 2 1 9 0;
#X connect 3 0 10 0;
#X connect 4 0 7 0;
#X connect 5 0 6 0;
#X connect 6 0 2 2;
#X connect 7 0 2 2;
#X connect 10 0 4 0;
