#N canvas 392 165 412 398 12;
#X obj 52 51 inlet;
#X obj 52 254 until;
#X obj 125 53 loadbang;
#X obj 164 101 f \$1;
#X obj 125 101 f \$2;
#X obj 125 77 t b b, f 6;
#X obj 125 125 -, f 6;
#X obj 52 230 f;
#X obj 52 75 t b b;
#X obj 52 278 f \$1;
#X obj 125 199 abs;
#X obj 84 99 f \$1;
#X obj 52 302 outlet;
#X text 23 33 /// BANG TO COUNT FROM \$1 (INCLUSIVE) TO \$2 (EXCLUSIVE)
;
#X obj 236 100 inlet;
#X obj 323 100 inlet;
#X text 247 80 \$1;
#X text 334 78 \$2;
#X obj 125 149 t f f;
#X obj 157 174 ispositive;
#X msg 157 198 1;
#X msg 224 198 -1;
#X obj 92 278 +;
#X obj 236 124 t b f f;
#X obj 323 124 t b f;
#X connect 0 0 8 0;
#X connect 1 0 9 0;
#X connect 2 0 5 0;
#X connect 3 0 6 1;
#X connect 4 0 6 0;
#X connect 5 0 4 0;
#X connect 5 1 3 0;
#X connect 6 0 18 0;
#X connect 7 0 1 0;
#X connect 8 0 7 0;
#X connect 8 1 11 0;
#X connect 9 0 12 0;
#X connect 9 0 22 0;
#X connect 10 0 7 1;
#X connect 11 0 9 1;
#X connect 14 0 23 0;
#X connect 15 0 24 0;
#X connect 18 0 10 0;
#X connect 18 1 19 0;
#X connect 19 0 20 0;
#X connect 19 1 21 0;
#X connect 20 0 22 1;
#X connect 21 0 22 1;
#X connect 22 0 9 1;
#X connect 23 0 5 0;
#X connect 23 1 11 0;
#X connect 23 2 3 1;
#X connect 24 0 5 0;
#X connect 24 1 4 1;
