#N canvas 517 117 375 462 12;
#X obj 14 108 noise~;
#X obj 14 339 *~, f 7;
#X obj 60 216 ahdsr~ 2 0 5 0.4 5;
#X obj 60 198 bng 15 250 50 0 empty empty empty 17 7 0 10 -262144 -1
-1;
#X floatatom 133 167 5 0 0 0 - - -;
#N canvas 814 219 450 300 filters 0;
#X obj 14 13 inlet~;
#X obj 14 257 outlet~;
#X obj 14 37 biquad~ 0.638282 -0.176456 0.134544 0.269087 0.134544
;
#X obj 14 61 biquad~ 0.88843 -0.568944 0.614344 -1.22869 0.614344;
#X obj 14 85 biquad~ 0.88843 -0.568944 0.614344 -1.22869 0.614344;
#X obj 14 109 biquad~ 1.86507 -0.892661 0.939432 -1.87886 0.939432
;
#X text 44 140 ^ grabbed these values from https://www.youtube.com/watch?v=kemL3pBSYfQ
;
#X connect 0 0 2 0;
#X connect 2 0 3 0;
#X connect 3 0 4 0;
#X connect 4 0 5 0;
#X connect 5 0 1 0;
#X restore 14 168 pd filters;
#N canvas 649 256 606 300 pulse_width_oscs 0;
#X obj 24 114 square~ 0.55;
#X obj 24 20 inlet;
#X obj 24 203 *~ 0.9;
#X obj 24 227 outlet~;
#X obj 114 114 square~ 0.55;
#X obj 204 114 square~ 0.55;
#X obj 294 114 square~ 0.55;
#X obj 384 114 square~ 0.55;
#X obj 474 114 square~ 0.55;
#X obj 114 90 * 1.342;
#X obj 204 90 * 1.2312;
#X obj 294 90 * 1.6532;
#X obj 384 90 * 1.8523;
#X obj 474 90 * 2.1523;
#X connect 0 0 2 0;
#X connect 1 0 0 0;
#X connect 1 0 13 0;
#X connect 1 0 12 0;
#X connect 1 0 11 0;
#X connect 1 0 10 0;
#X connect 1 0 9 0;
#X connect 2 0 3 0;
#X connect 4 0 2 0;
#X connect 5 0 2 0;
#X connect 6 0 2 0;
#X connect 7 0 2 0;
#X connect 8 0 2 0;
#X connect 9 0 4 0;
#X connect 10 0 5 0;
#X connect 11 0 6 0;
#X connect 12 0 7 0;
#X connect 13 0 8 0;
#X restore 222 106 pd pulse_width_oscs;
#X obj 14 408 *~ 1;
#X obj 44 363 delonce~ 5 1;
#X obj 14 432 outlet~;
#X obj 222 30 inlet;
#X obj 222 81 f \$2;
#X obj 60 30 inlet;
#X obj 133 189 t f f, f 7;
#X obj 133 30 inlet;
#X obj 133 81 f \$1;
#X text 51 11 trigger;
#X obj 14 311 vfreeverb~ 0.6 0.2 0.6 0.4, f 34;
#X obj 146 54 loadbang;
#X text 126 13 \$1 decay (ms);
#X text 220 12 \$2 freq (hz);
#X connect 0 0 5 0;
#X connect 1 0 8 0;
#X connect 1 0 7 0;
#X connect 2 0 1 1;
#X connect 3 0 2 0;
#X connect 4 0 13 0;
#X connect 5 0 17 0;
#X connect 6 0 5 0;
#X connect 7 0 9 0;
#X connect 8 0 7 0;
#X connect 10 0 11 0;
#X connect 11 0 6 0;
#X connect 12 0 3 0;
#X connect 13 0 2 3;
#X connect 13 1 2 5;
#X connect 14 0 15 0;
#X connect 15 0 4 0;
#X connect 17 0 1 0;
#X connect 18 0 15 0;
#X connect 18 0 11 0;
