#N canvas 0 38 1512 884 12;
#X obj 738 40 inlet;
#X obj 738 64 clip 0 1;
#X obj 738 88 s \$0-in;
#X obj 20 211 r \$0-in;
#X obj 93 350 randrange 25 90;
#X obj 93 302 bng 19 250 50 0 empty empty empty 0 -10 0 12 #fcfcfc #000000 #000000;
#X obj 209 350 randrange 25 90;
#X obj 93 326 t b b, f 17;
#X msg 93 554 to-low \$1;
#X msg 209 554 to-high \$1;
#X obj 20 235 maybe 1;
#X obj 20 602 quantizedmode \$1 \$2;
#X obj 20 578 scaled 0 1 25 90, f 23;
#X obj 93 374 t f f;
#X obj 93 398 <, f 17;
#X obj 93 422 sel 1, f 12;
#X obj 125 496 fbank2;
#X obj 209 374 t f f;
#X obj 241 496 fbank2;
#X obj 93 446 t b b, f 9;
#X obj 174 446 t b b, f 12;
#X obj 400 211 r \$0-in;
#X obj 473 350 randrange 25 90;
#X obj 473 302 bng 19 250 50 0 empty empty empty 0 -10 0 12 #fcfcfc #000000 #000000;
#X obj 589 350 randrange 25 90;
#X obj 473 326 t b b, f 17;
#X msg 473 554 to-low \$1;
#X msg 589 554 to-high \$1;
#X obj 400 235 maybe 1;
#X obj 400 602 quantizedmode \$1 \$2;
#X obj 400 578 scaled 0 1 25 90, f 23;
#X obj 473 374 t f f;
#X obj 473 398 <, f 17;
#X obj 473 422 sel 1, f 12;
#X obj 505 496 fbank2;
#X obj 589 374 t f f;
#X obj 621 496 fbank2;
#X obj 473 446 t b b, f 9;
#X obj 554 446 t b b, f 12;
#X obj 808 40 inlet;
#X obj 1337 91 print UNKNOWN_PARAM;
#X obj 808 88 clip 0 1;
#X obj 808 112 s \$0-maybe;
#X obj 129 211 r \$0-maybe;
#X obj 509 211 r \$0-maybe;
#X obj 1 41 mspparam maybe 0 1 1;
#X obj 914 112 s \$0-ramp;
#X obj 1 59 mspparam ramp 0 500 0;
#X obj 20 626 mtof;
#X obj 400 626 mtof;
#X obj 1020 88 bng 19 250 50 0 empty empty empty 0 -10 0 12 #fcfcfc #000000 #000000;
#X obj 1020 112 s \$0-reroll;
#X obj 914 88 f;
#X obj 93 278 r \$0-reroll;
#X obj 473 278 r \$0-reroll;
#X obj 4 118 loadbang;
#X obj 185 21 bng 19 250 50 0 empty empty reroll -30 10 0 8 #fcfcfc #000000 #000000;
#X msg 208 21 reroll;
#X obj 20 165 symbol \$1;
#X symbolatom 1 23 11 0 0 1 \$2 - - 0;
#X obj 5 142 bng 19 250 50 0 empty empty empty 0 -10 0 12 #fcfcfc #000000 #000000;
#X obj 808 64 route maybe ramp reroll low high, f 76;
#X obj 1125 87 clip 20 100;
#X obj 1231 87 clip 20 100;
#X obj 1125 111 s \$0-low;
#X obj 1231 111 s \$0-high;
#X obj 1 77 mspparam low 20 100 25;
#X obj 1 95 mspparam high 20 100 90;
#X obj 180 248 r \$0-low;
#X obj 180 272 t b f;
#X obj 180 296 s \$0-reroll;
#X obj 270 272 t b f;
#X obj 270 296 s \$0-reroll;
#X obj 270 248 r \$0-high;
#X obj 560 248 r \$0-low;
#X obj 560 272 t b f;
#X obj 560 296 s \$0-reroll;
#X obj 650 272 t b f;
#X obj 650 296 s \$0-reroll;
#X obj 650 248 r \$0-high;
#X obj 760 211 r \$0-in;
#X obj 833 350 randrange 25 90;
#X obj 833 302 bng 19 250 50 0 empty empty empty 0 -10 0 12 #fcfcfc #000000 #000000;
#X obj 949 350 randrange 25 90;
#X obj 833 326 t b b, f 17;
#X msg 833 554 to-low \$1;
#X msg 949 554 to-high \$1;
#X obj 760 235 maybe 1;
#X obj 760 602 quantizedmode \$1 \$2;
#X obj 760 578 scaled 0 1 25 90, f 23;
#X obj 833 374 t f f;
#X obj 833 398 <, f 17;
#X obj 833 422 sel 1, f 12;
#X obj 865 496 fbank2;
#X obj 949 374 t f f;
#X obj 981 496 fbank2;
#X obj 833 446 t b b, f 9;
#X obj 914 446 t b b, f 12;
#X obj 1140 211 r \$0-in;
#X obj 1213 350 randrange 25 90;
#X obj 1213 302 bng 19 250 50 0 empty empty empty 0 -10 0 12 #fcfcfc #000000 #000000;
#X obj 1329 350 randrange 25 90;
#X obj 1213 326 t b b, f 17;
#X msg 1213 554 to-low \$1;
#X msg 1329 554 to-high \$1;
#X obj 1140 235 maybe 1;
#X obj 1140 602 quantizedmode \$1 \$2;
#X obj 1140 578 scaled 0 1 25 90, f 23;
#X obj 1213 374 t f f;
#X obj 1213 398 <, f 17;
#X obj 1213 422 sel 1, f 12;
#X obj 1245 496 fbank2;
#X obj 1329 374 t f f;
#X obj 1361 496 fbank2;
#X obj 1213 446 t b b, f 9;
#X obj 1294 446 t b b, f 12;
#X obj 869 211 r \$0-maybe;
#X obj 1249 211 r \$0-maybe;
#X obj 760 626 mtof;
#X obj 1140 626 mtof;
#X obj 833 278 r \$0-reroll;
#X obj 1213 278 r \$0-reroll;
#X obj 920 248 r \$0-low;
#X obj 920 272 t b f;
#X obj 920 296 s \$0-reroll;
#X obj 1010 272 t b f;
#X obj 1010 296 s \$0-reroll;
#X obj 1010 248 r \$0-high;
#X obj 1300 248 r \$0-low;
#X obj 1300 272 t b f;
#X obj 1300 296 s \$0-reroll;
#X obj 1390 272 t b f;
#X obj 1390 296 s \$0-reroll;
#X obj 1390 248 r \$0-high;
#X text 35 4 ----- darp :) -----;
#X obj 20 770 f;
#X obj 400 770 f;
#X obj 760 770 f;
#X obj 1140 770 f;
#X obj 594 635 bng 19 250 50 0 empty empty empty 0 -10 0 12 #fcfcfc #000000 #000000;
#X obj 594 659 counter 4;
#X obj 594 683 sel 0 1 2 3;
#X obj 646 827 ramp~;
#X obj 646 851 outlet~;
#X obj 678 803 r \$0-ramp;
#X obj 664 42 inlet;
#X obj 664 90 s \$0-bang;
#X obj 594 611 r \$0-bang;
#X obj 664 66 bng 19 250 50 0 empty empty empty 0 -10 0 12 #fcfcfc #000000 #000000;
#X connect 0 0 1 0;
#X connect 1 0 2 0;
#X connect 3 0 10 0;
#X connect 4 0 13 0;
#X connect 5 0 7 0;
#X connect 6 0 17 0;
#X connect 7 0 4 0;
#X connect 7 1 6 0;
#X connect 8 0 12 1;
#X connect 9 0 12 1;
#X connect 10 0 12 0;
#X connect 11 0 48 0;
#X connect 12 0 11 0;
#X connect 13 0 14 0;
#X connect 13 1 16 0;
#X connect 14 0 15 0;
#X connect 15 0 19 0;
#X connect 15 1 20 0;
#X connect 16 1 8 0;
#X connect 16 2 9 0;
#X connect 17 0 14 1;
#X connect 17 1 18 0;
#X connect 18 1 9 0;
#X connect 18 2 8 0;
#X connect 19 0 16 1;
#X connect 19 1 18 1;
#X connect 20 0 18 2;
#X connect 20 1 16 2;
#X connect 21 0 28 0;
#X connect 22 0 31 0;
#X connect 23 0 25 0;
#X connect 24 0 35 0;
#X connect 25 0 22 0;
#X connect 25 1 24 0;
#X connect 26 0 30 1;
#X connect 27 0 30 1;
#X connect 28 0 30 0;
#X connect 29 0 49 0;
#X connect 30 0 29 0;
#X connect 31 0 32 0;
#X connect 31 1 34 0;
#X connect 32 0 33 0;
#X connect 33 0 37 0;
#X connect 33 1 38 0;
#X connect 34 1 26 0;
#X connect 34 2 27 0;
#X connect 35 0 32 1;
#X connect 35 1 36 0;
#X connect 36 1 27 0;
#X connect 36 2 26 0;
#X connect 37 0 34 1;
#X connect 37 1 36 1;
#X connect 38 0 36 2;
#X connect 38 1 34 2;
#X connect 39 0 61 0;
#X connect 41 0 42 0;
#X connect 43 0 10 1;
#X connect 44 0 28 1;
#X connect 45 0 61 0;
#X connect 47 0 61 0;
#X connect 48 0 135 1;
#X connect 49 0 136 1;
#X connect 50 0 51 0;
#X connect 52 0 46 0;
#X connect 53 0 5 0;
#X connect 54 0 23 0;
#X connect 55 0 60 0;
#X connect 56 0 57 0;
#X connect 57 0 61 0;
#X connect 58 0 59 0;
#X connect 60 0 58 0;
#X connect 60 0 56 0;
#X connect 61 0 41 0;
#X connect 61 1 52 0;
#X connect 61 2 50 0;
#X connect 61 3 62 0;
#X connect 61 4 63 0;
#X connect 61 5 40 0;
#X connect 62 0 64 0;
#X connect 63 0 65 0;
#X connect 66 0 61 0;
#X connect 67 0 61 0;
#X connect 68 0 69 0;
#X connect 69 0 70 0;
#X connect 69 1 4 1;
#X connect 69 1 6 1;
#X connect 71 0 72 0;
#X connect 71 1 6 2;
#X connect 71 1 4 2;
#X connect 73 0 71 0;
#X connect 74 0 75 0;
#X connect 75 0 76 0;
#X connect 75 1 22 1;
#X connect 75 1 24 1;
#X connect 77 0 78 0;
#X connect 77 1 24 2;
#X connect 77 1 22 2;
#X connect 79 0 77 0;
#X connect 80 0 87 0;
#X connect 81 0 90 0;
#X connect 82 0 84 0;
#X connect 83 0 94 0;
#X connect 84 0 81 0;
#X connect 84 1 83 0;
#X connect 85 0 89 1;
#X connect 86 0 89 1;
#X connect 87 0 89 0;
#X connect 88 0 118 0;
#X connect 89 0 88 0;
#X connect 90 0 91 0;
#X connect 90 1 93 0;
#X connect 91 0 92 0;
#X connect 92 0 96 0;
#X connect 92 1 97 0;
#X connect 93 1 85 0;
#X connect 93 2 86 0;
#X connect 94 0 91 1;
#X connect 94 1 95 0;
#X connect 95 1 86 0;
#X connect 95 2 85 0;
#X connect 96 0 93 1;
#X connect 96 1 95 1;
#X connect 97 0 95 2;
#X connect 97 1 93 2;
#X connect 98 0 105 0;
#X connect 99 0 108 0;
#X connect 100 0 102 0;
#X connect 101 0 112 0;
#X connect 102 0 99 0;
#X connect 102 1 101 0;
#X connect 103 0 107 1;
#X connect 104 0 107 1;
#X connect 105 0 107 0;
#X connect 106 0 119 0;
#X connect 107 0 106 0;
#X connect 108 0 109 0;
#X connect 108 1 111 0;
#X connect 109 0 110 0;
#X connect 110 0 114 0;
#X connect 110 1 115 0;
#X connect 111 1 103 0;
#X connect 111 2 104 0;
#X connect 112 0 109 1;
#X connect 112 1 113 0;
#X connect 113 1 104 0;
#X connect 113 2 103 0;
#X connect 114 0 111 1;
#X connect 114 1 113 1;
#X connect 115 0 113 2;
#X connect 115 1 111 2;
#X connect 116 0 87 1;
#X connect 117 0 105 1;
#X connect 118 0 137 1;
#X connect 119 0 138 1;
#X connect 120 0 82 0;
#X connect 121 0 100 0;
#X connect 122 0 123 0;
#X connect 123 0 124 0;
#X connect 123 1 81 1;
#X connect 123 1 83 1;
#X connect 125 0 126 0;
#X connect 125 1 83 2;
#X connect 125 1 81 2;
#X connect 127 0 125 0;
#X connect 128 0 129 0;
#X connect 129 0 130 0;
#X connect 129 1 99 1;
#X connect 129 1 101 1;
#X connect 131 0 132 0;
#X connect 131 1 101 2;
#X connect 131 1 99 2;
#X connect 133 0 131 0;
#X connect 135 0 142 0;
#X connect 136 0 142 0;
#X connect 137 0 142 0;
#X connect 138 0 142 0;
#X connect 139 0 140 0;
#X connect 140 0 141 0;
#X connect 141 0 135 0;
#X connect 141 1 136 0;
#X connect 141 2 137 0;
#X connect 141 3 138 0;
#X connect 142 0 143 0;
#X connect 144 0 142 1;
#X connect 145 0 148 0;
#X connect 147 0 139 0;
#X connect 148 0 146 0;
#X coords 0 -1 1 1 204 112 2 1 1;
