#N canvas 352 241 450 300 12;
#X obj 184 106 inlet;
#X obj 184 202 f, f 12;
#X obj 184 130 t b f, f 12;
#X obj 184 226 outlet;
#X obj 184 154 deff \$1 20;
#X text 18 17 /// DELAYS OUTPUTTING INPUT FLOAT UNTIL \$1ms HAVE PASSED.
\; /// IF ANOTHER FLOAT IS RECEIVED DURING \$1ms WINDOW \, THEN \;
/// THAT FLOAT BECOMES THE SCHEDULED OUTPUT \, AND THE \; /// OUTPUT
IS RESCHEDULED FOR \$1ms FROM THEN.;
#X obj 184 178 del;
#X connect 0 0 2 0;
#X connect 1 0 3 0;
#X connect 2 0 4 0;
#X connect 2 1 1 1;
#X connect 4 0 6 0;
#X connect 6 0 1 0;
