#N canvas 559 231 413 358 12;
#X obj 67 54 loadbang;
#X text 4 14 // IF A NON-ZERO \$1 IS PROVIDED \, THAT IS THE VALUE
USED;
#X text 4 31 // OTHERWISE \$2 IS USED;
#X obj 24 54 inlet;
#X obj 169 102 f \$1;
#X obj 118 102 f \$2;
#X obj 169 126 change 0;
#X obj 169 150 t f f;
#X obj 183 274 f;
#X obj 183 298 outlet;
#X obj 118 174 f, f 8;
#X obj 118 198 sel 0;
#X obj 118 222 f, f 8;
#X obj 67 78 t b b b, f 15;
#X obj 118 126 t b f;
#X connect 0 0 13 0;
#X connect 3 0 8 0;
#X connect 4 0 6 0;
#X connect 5 0 14 0;
#X connect 6 0 7 0;
#X connect 7 0 10 1;
#X connect 7 1 8 1;
#X connect 8 0 9 0;
#X connect 10 0 11 0;
#X connect 11 0 12 0;
#X connect 12 0 8 1;
#X connect 13 0 8 0;
#X connect 13 1 5 0;
#X connect 13 2 4 0;
#X connect 14 0 10 0;
#X connect 14 1 12 1;
