#N canvas 395 214 488 316 12;
#X obj 13 91 inlet~;
#X obj 279 91 inlet;
#X obj 398 91 inlet;
#X obj 279 115 f \$1;
#X obj 330 91 loadbang;
#X obj 398 115 f \$2;
#X obj 279 256 *~;
#X text 12 67 signal;
#X obj 279 280 outlet~;
#X obj 398 139 clip 0 0.99;
#X obj 13 115 delwrite~ broadcast-delonce-\$0 5000;
#X obj 279 232 vd~ broadcast-delonce-\$0;
#X text 18 4 /// DELAYS AN AUDIO SIGNAL ONCE WITHOUT ANY FEEDBACK;
#X text 17 17 /// SEEALSO: [echo~];
#X obj 279 191 line~;
#X msg 279 167 \$1 10;
#X msg 398 167 \$1 10;
#X obj 398 191 line~;
#X obj 279 139 max 1;
#X text 258 68 \$1 delay time;
#X text 396 69 \$2 feedback;
#X connect 0 0 10 0;
#X connect 1 0 3 0;
#X connect 2 0 5 0;
#X connect 3 0 18 0;
#X connect 4 0 3 0;
#X connect 4 0 5 0;
#X connect 5 0 9 0;
#X connect 6 0 8 0;
#X connect 9 0 16 0;
#X connect 11 0 6 0;
#X connect 14 0 11 0;
#X connect 15 0 14 0;
#X connect 16 0 17 0;
#X connect 17 0 6 1;
#X connect 18 0 15 0;
