#N canvas 0 25 1280 747 12;
#X obj 32 40 inlet~;
#X obj 88 40 inlet~;
#X obj 144 40 inlet~;
#X obj 200 40 inlet~;
#X obj 256 40 inlet~;
#X obj 312 40 inlet~;
#X obj 368 40 inlet~;
#X obj 424 40 inlet~;
#X obj 505 40 inlet;
#X obj 505 94 clip 0 7;
#X obj 505 118 sel 0 1 2 3 4 5 6 7;
#X obj 33 429 *~;
#X msg 16 367 1;
#X msg 50 367 0;
#X obj 89 429 *~;
#X msg 72 397 1;
#X msg 106 397 0;
#X obj 144 429 *~;
#X msg 127 367 1;
#X msg 161 367 0;
#X obj 200 429 *~;
#X msg 183 397 1;
#X msg 217 397 0;
#X obj 256 429 *~;
#X msg 239 367 1;
#X msg 273 367 0;
#X obj 312 429 *~;
#X msg 295 397 1;
#X msg 329 397 0;
#X obj 368 429 *~;
#X msg 351 367 1;
#X msg 385 367 0;
#X obj 424 429 *~;
#X msg 407 397 1;
#X msg 441 397 0;
#X obj 278 287 r demux_audio_7;
#X obj 229 488 outlet~;
#X obj 505 64 i;
#X obj 491 166 s \$0-demux_audio_0;
#X obj 501 196 s \$0-demux_audio_1;
#X obj 521 226 s \$0-demux_audio_2;
#X obj 531 256 s \$0-demux_audio_3;
#X obj 541 286 s \$0-demux_audio_4;
#X obj 551 316 s \$0-demux_audio_5;
#X obj 561 346 s \$0-demux_audio_6;
#X obj 571 376 s \$0-demux_audio_7;
#X obj 128 84 r \$0-demux_audio_0;
#X obj 148 113 r \$0-demux_audio_1;
#X obj 168 142 r \$0-demux_audio_2;
#X obj 188 171 r \$0-demux_audio_3;
#X obj 218 200 r \$0-demux_audio_4;
#X obj 238 229 r \$0-demux_audio_5;
#X obj 258 258 r \$0-demux_audio_6;
#X connect 0 0 11 0;
#X connect 1 0 14 0;
#X connect 2 0 17 0;
#X connect 3 0 20 0;
#X connect 4 0 23 0;
#X connect 5 0 26 0;
#X connect 6 0 29 0;
#X connect 7 0 32 0;
#X connect 8 0 37 0;
#X connect 9 0 10 0;
#X connect 10 0 38 0;
#X connect 10 1 39 0;
#X connect 10 2 40 0;
#X connect 10 3 41 0;
#X connect 10 4 42 0;
#X connect 10 5 43 0;
#X connect 10 6 44 0;
#X connect 10 7 45 0;
#X connect 11 0 36 0;
#X connect 12 0 11 1;
#X connect 13 0 11 1;
#X connect 14 0 36 0;
#X connect 15 0 14 1;
#X connect 16 0 14 1;
#X connect 17 0 36 0;
#X connect 18 0 17 1;
#X connect 19 0 17 1;
#X connect 20 0 36 0;
#X connect 21 0 20 1;
#X connect 22 0 20 1;
#X connect 23 0 36 0;
#X connect 24 0 23 1;
#X connect 25 0 23 1;
#X connect 26 0 36 0;
#X connect 27 0 26 1;
#X connect 28 0 26 1;
#X connect 29 0 36 0;
#X connect 30 0 29 1;
#X connect 31 0 29 1;
#X connect 32 0 36 0;
#X connect 33 0 32 1;
#X connect 34 0 32 1;
#X connect 35 0 13 0;
#X connect 35 0 16 0;
#X connect 35 0 19 0;
#X connect 35 0 22 0;
#X connect 35 0 25 0;
#X connect 35 0 28 0;
#X connect 35 0 31 0;
#X connect 35 0 33 0;
#X connect 37 0 9 0;
#X connect 46 0 12 0;
#X connect 46 0 16 0;
#X connect 46 0 19 0;
#X connect 46 0 22 0;
#X connect 46 0 25 0;
#X connect 46 0 28 0;
#X connect 46 0 31 0;
#X connect 46 0 34 0;
#X connect 47 0 15 0;
#X connect 47 0 13 0;
#X connect 47 0 19 0;
#X connect 47 0 22 0;
#X connect 47 0 25 0;
#X connect 47 0 28 0;
#X connect 47 0 31 0;
#X connect 47 0 34 0;
#X connect 48 0 13 0;
#X connect 48 0 16 0;
#X connect 48 0 18 0;
#X connect 48 0 22 0;
#X connect 48 0 25 0;
#X connect 48 0 28 0;
#X connect 48 0 31 0;
#X connect 48 0 34 0;
#X connect 49 0 13 0;
#X connect 49 0 16 0;
#X connect 49 0 19 0;
#X connect 49 0 21 0;
#X connect 49 0 25 0;
#X connect 49 0 28 0;
#X connect 49 0 31 0;
#X connect 49 0 34 0;
#X connect 50 0 13 0;
#X connect 50 0 16 0;
#X connect 50 0 19 0;
#X connect 50 0 22 0;
#X connect 50 0 24 0;
#X connect 50 0 28 0;
#X connect 50 0 31 0;
#X connect 50 0 34 0;
#X connect 51 0 13 0;
#X connect 51 0 16 0;
#X connect 51 0 19 0;
#X connect 51 0 22 0;
#X connect 51 0 25 0;
#X connect 51 0 27 0;
#X connect 51 0 31 0;
#X connect 51 0 34 0;
#X connect 52 0 13 0;
#X connect 52 0 16 0;
#X connect 52 0 19 0;
#X connect 52 0 22 0;
#X connect 52 0 25 0;
#X connect 52 0 28 0;
#X connect 52 0 30 0;
#X connect 52 0 34 0;
