#N canvas 0 38 1512 884 12;
#X obj 232 576 filter~, f 73;
#X obj 970 140 s \$0-frequency;
#X obj 232 366 r \$0-frequency;
#X obj 232 390 ramp~;
#X obj 232 414 +~, f 19;
#X obj 1097 68 clip 0 1;
#X obj 1097 116 s \$0-pulsewidth;
#X obj 955 285 s \$0-modfrequency;
#X obj 1086 213 clip 0 1;
#X obj 1227 213 clip 0 1;
#X obj 1086 261 s \$0-modfilterdepth;
#X obj 1227 261 s \$0-modfreqdepth;
#X obj 823 346 s \$0-cutoff;
#X obj 278 438 r \$0-pulsewidth;
#X obj 1025 541 r \$0-modfrequency;
#X obj 1025 565 ramp~;
#X obj 1033 745 s~ \$0-mod;
#X obj 573 480 r~ \$0-mod;
#X obj 573 504 *~, f 14;
#X obj 668 432 r \$0-modfilterdepth;
#X obj 668 456 ramp~;
#X obj 362 366 r~ \$0-mod;
#X obj 362 390 *~, f 14;
#X obj 457 342 ramp~;
#X obj 457 318 r \$0-modfreqdepth;
#X obj 486 480 r \$0-cutoff;
#X obj 486 504 ramp~;
#X obj 912 346 clip 0 1;
#X obj 912 370 s \$0-q;
#X obj 740 552 ramp~;
#X obj 740 528 r \$0-q;
#X obj 486 528 +~, f 13;
#X obj 457 366 *~ 2500;
#X obj 1097 92 easeinoutcubic;
#X obj 970 68 clip 0 1;
#X obj 955 213 clip 0 1;
#X obj 970 116 scaled 0 1 0 1000;
#X obj 823 322 route cutoff q, f 26;
#X obj 843 213 clip 0 1;
#X obj 843 237 s \$0-modwave;
#X obj 1007 613 r \$0-modwave;
#X obj 1007 637 ramp~;
#X obj 1137 667 oneminus~;
#X obj 1007 661 *~;
#X obj 1137 691 *~;
#X obj 1155 541 r \$0-modfrequency;
#X obj 1155 565 ramp~;
#X obj 1025 589 square~;
#X obj 1155 589 saw~;
#X obj 1225 68 s \$0-params-2;
#X obj 843 165 r \$0-params-2;
#X obj 1407 213 s \$0-params-3;
#X obj 823 298 r \$0-params-3;
#X obj 843 189 route modwave modfrequency modfilterdepth modfreqdepth modpulsewidth, f 81;
#X obj 1311 213 clip 0 1;
#X obj 1311 237 s \$0-modpulsewidth;
#X obj 1071 517 r \$0-modpulsewidth;
#X obj 1002 346 s \$0-params-4;
#X obj 1106 297 r \$0-params-4;
#X obj 1106 345 tgl 19 0 empty empty empty 0 -10 0 12 #fcfcfc #000000 #000000 0 1;
#X obj 1312 566 sel 0 1;
#X obj 1312 614 sig~;
#X obj 1155 638 *~, f 23;
#X obj 1106 369 s \$0-sawdescending;
#X msg 1312 590 1;
#X msg 1342 590 -1;
#X obj 1312 542 r \$0-sawdescending;
#X obj 1016 705 clip~ -1 1;
#X obj 504 199 level~;
#X obj 522 222 r \$0-cutoff;
#X obj 522 270 ramp~;
#X obj 504 294 *~;
#X obj 1286 345 clip 0 1;
#X obj 1286 393 s \$0-noisecutoffmod;
#X obj 631 175 r \$0-noisecutoffmod;
#X obj 486 552 +~;
#X obj 1377 346 s \$0-params-5;
#X obj 883 397 r \$0-params-5;
#X obj 1286 369 easeincubic;
#X obj 883 421 route wavefolder, f 33;
#X obj 883 445 s \$0-wavefolder;
#X obj 429 665 r \$0-wavefolder;
#X obj 232 713 wavefolder~;
#X msg 429 689 foldamount \$1;
#X obj 265 670 loadbang;
#X msg 265 694 wet 0.3 \, dry 0.7;
#X obj 1106 321 route sawdescending noisecutoffmod, f 52;
#X obj 1227 237 easeinquart;
#X obj 668 480 *~ 16000;
#X obj 504 175 noise~;
#X obj 232 462 square~;
#X obj 123 456 ramp~;
#X obj 214 500 *~;
#X obj 278 500 *~;
#X obj 123 432 r \$0-wave;
#X obj 296 462 saw~;
#X obj 843 44 route wave frequency pulsewidth, f 55;
#X obj 843 68 clip 0 1;
#X obj 843 92 s \$0-wave;
#X obj 123 480 oneminus~;
#X obj 522 246 scaled 0 10000 20000 80000;
#X obj 1086 237 easeinquint;
#X obj 843 20 inlet;
#X obj 232 791 outlet~;
#X obj 955 261 scaled 0 1 0 1000;
#X obj 955 237 easeincubic;
#X obj 970 92 easeinsine;
#X connect 0 0 82 0;
#X connect 2 0 3 0;
#X connect 3 0 4 0;
#X connect 4 0 90 0;
#X connect 4 0 95 0;
#X connect 5 0 33 0;
#X connect 8 0 101 0;
#X connect 9 0 87 0;
#X connect 13 0 90 1;
#X connect 14 0 15 0;
#X connect 15 0 47 0;
#X connect 17 0 18 0;
#X connect 18 0 31 1;
#X connect 19 0 20 0;
#X connect 20 0 88 0;
#X connect 21 0 22 0;
#X connect 22 0 4 1;
#X connect 23 0 32 0;
#X connect 24 0 23 0;
#X connect 25 0 26 0;
#X connect 26 0 31 0;
#X connect 27 0 28 0;
#X connect 29 0 0 2;
#X connect 30 0 29 0;
#X connect 31 0 75 0;
#X connect 32 0 22 1;
#X connect 33 0 6 0;
#X connect 34 0 106 0;
#X connect 35 0 105 0;
#X connect 36 0 1 0;
#X connect 37 0 12 0;
#X connect 37 1 27 0;
#X connect 37 2 57 0;
#X connect 38 0 39 0;
#X connect 40 0 41 0;
#X connect 41 0 42 0;
#X connect 41 0 43 0;
#X connect 42 0 44 0;
#X connect 43 0 67 0;
#X connect 44 0 67 0;
#X connect 45 0 46 0;
#X connect 46 0 48 0;
#X connect 47 0 43 1;
#X connect 48 0 62 0;
#X connect 50 0 53 0;
#X connect 52 0 37 0;
#X connect 53 0 38 0;
#X connect 53 1 35 0;
#X connect 53 2 8 0;
#X connect 53 3 9 0;
#X connect 53 4 54 0;
#X connect 53 5 51 0;
#X connect 54 0 55 0;
#X connect 56 0 47 1;
#X connect 58 0 86 0;
#X connect 59 0 63 0;
#X connect 60 0 64 0;
#X connect 60 1 65 0;
#X connect 61 0 62 1;
#X connect 62 0 44 1;
#X connect 64 0 61 0;
#X connect 65 0 61 0;
#X connect 66 0 60 0;
#X connect 67 0 16 0;
#X connect 68 0 71 0;
#X connect 69 0 100 0;
#X connect 70 0 71 1;
#X connect 71 0 75 1;
#X connect 72 0 78 0;
#X connect 74 0 68 1;
#X connect 75 0 0 1;
#X connect 77 0 79 0;
#X connect 78 0 73 0;
#X connect 79 0 80 0;
#X connect 81 0 83 0;
#X connect 82 0 103 0;
#X connect 83 0 82 1;
#X connect 84 0 85 0;
#X connect 85 0 82 1;
#X connect 86 0 59 0;
#X connect 86 1 72 0;
#X connect 86 2 76 0;
#X connect 87 0 11 0;
#X connect 88 0 18 1;
#X connect 89 0 68 0;
#X connect 90 0 92 1;
#X connect 91 0 99 0;
#X connect 91 0 93 0;
#X connect 92 0 0 0;
#X connect 93 0 0 0;
#X connect 94 0 91 0;
#X connect 95 0 93 1;
#X connect 96 0 97 0;
#X connect 96 1 34 0;
#X connect 96 2 5 0;
#X connect 96 3 49 0;
#X connect 97 0 98 0;
#X connect 99 0 92 0;
#X connect 100 0 70 0;
#X connect 101 0 10 0;
#X connect 102 0 96 0;
#X connect 104 0 7 0;
#X connect 105 0 104 0;
#X connect 106 0 36 0;
