#N canvas 0 38 1512 884 12;
#X obj 1 57 mspparam pulsewidth 0 1 0.5;
#X obj 1 158 mspparam modfilterdepth 0 1 0;
#X obj 1 176 mspparam modfreqdepth 0 1 0;
#X obj 1 204 mspparam cutoff 0 16000 8000;
#X obj 1 222 mspparam q 0 1 0;
#X obj 1 39 mspparam frequency 0 1 0.2;
#X obj 1 140 mspparam modfrequency 0 1 0.2;
#X obj 1 85 mspparam modwave 0 1 0;
#X obj 1 103 mspparam modpulsewidth 0 1 0.5;
#X obj 2 121 tgl 19 0 empty empty sawdescending 20 10 0 12 #fcfcfc #000000 #000000 0 1;
#X obj 1 250 mspparam noisecutoffmod 0 1 0;
#X obj 1 278 mspparam wavefolder 0 1 0;
#X obj 1 21 mspparam wave 0 1 0;
#X msg 104 326 sawdescending \$1;
#X obj 1 356 outlet;
#X obj 970 68 s \$0-frequency;
#X obj 1097 68 s \$0-pulsewidth;
#X obj 955 153 s \$0-modfrequency;
#X obj 1068 177 s \$0-modfilterdepth;
#X obj 1181 153 s \$0-modfreqdepth;
#X obj 831 243 s \$0-cutoff;
#X obj 920 243 s \$0-q;
#X obj 831 219 route cutoff q, f 26;
#X obj 843 153 s \$0-modwave;
#X obj 1225 68 s \$0-params-2;
#X obj 843 105 r \$0-params-2;
#X obj 1407 153 s \$0-params-3;
#X obj 831 195 r \$0-params-3;
#X obj 843 129 route modwave modfrequency modfilterdepth modfreqdepth modpulsewidth, f 81;
#X obj 1294 177 s \$0-modpulsewidth;
#X obj 1010 243 s \$0-params-4;
#X obj 1116 217 r \$0-params-4;
#X obj 1116 265 tgl 19 0 empty empty empty 0 -10 0 12 #fcfcfc #000000 #000000 0 1;
#X obj 1116 289 s \$0-sawdescending;
#X obj 1296 290 s \$0-noisecutoffmod;
#X obj 1387 266 s \$0-params-5;
#X obj 843 317 r \$0-params-5;
#X obj 843 341 route wavefolder, f 33;
#X obj 843 365 s \$0-wavefolder;
#X obj 1116 241 route sawdescending noisecutoffmod, f 52;
#X obj 843 44 route wave frequency pulsewidth, f 55;
#X obj 843 68 s \$0-wave;
#X obj 843 20 inlet;
#X obj 312 2 r \$0-wave;
#X obj 277 20 r \$0-frequency;
#X obj 270 39 r \$0-pulsewidth;
#X obj 291 66 r \$0-modwave;
#X obj 256 121 r \$0-modfrequency;
#X obj 243 139 r \$0-modfilterdepth;
#X obj 257 157 r \$0-modfreqdepth;
#X obj 249 84 r \$0-modpulsewidth;
#X obj 299 185 r \$0-cutoff;
#X obj 334 203 r \$0-q;
#X obj 249 102 r \$0-sawdescending;
#X obj 243 231 r \$0-noisecutoffmod;
#X obj 271 259 r \$0-wavefolder;
#X text 33 3 ---- din :) -----;
#X connect 0 0 14 0;
#X connect 1 0 14 0;
#X connect 2 0 14 0;
#X connect 3 0 14 0;
#X connect 4 0 14 0;
#X connect 5 0 14 0;
#X connect 6 0 14 0;
#X connect 7 0 14 0;
#X connect 8 0 14 0;
#X connect 9 0 13 0;
#X connect 10 0 14 0;
#X connect 11 0 14 0;
#X connect 12 0 14 0;
#X connect 13 0 14 0;
#X connect 22 0 20 0;
#X connect 22 1 21 0;
#X connect 22 2 30 0;
#X connect 25 0 28 0;
#X connect 27 0 22 0;
#X connect 28 0 23 0;
#X connect 28 1 17 0;
#X connect 28 2 18 0;
#X connect 28 3 19 0;
#X connect 28 4 29 0;
#X connect 28 5 26 0;
#X connect 31 0 39 0;
#X connect 32 0 33 0;
#X connect 36 0 37 0;
#X connect 37 0 38 0;
#X connect 39 0 32 0;
#X connect 39 1 34 0;
#X connect 39 2 35 0;
#X connect 40 0 41 0;
#X connect 40 1 15 0;
#X connect 40 2 16 0;
#X connect 40 3 24 0;
#X connect 42 0 40 0;
#X connect 43 0 12 0;
#X connect 44 0 5 0;
#X connect 45 0 0 0;
#X connect 46 0 7 0;
#X connect 47 0 6 0;
#X connect 48 0 1 0;
#X connect 49 0 2 0;
#X connect 50 0 8 0;
#X connect 51 0 3 0;
#X connect 52 0 4 0;
#X connect 53 0 9 0;
#X connect 54 0 10 0;
#X connect 55 0 11 0;
#X coords 0 -1 1 1 204 295 2 1 1;
