#N canvas 0 25 771 597 12;
#X obj 222 383 lop~ 5;
#X obj 204 446 +~;
#X obj 374 477 +~;
#X obj 572 369 hip~ 5;
#X obj 554 505 +~;
#X obj 279 179 inlet;
#X obj 43 204 *~ 1;
#X obj 554 558 outlet~;
#X obj 43 177 inlet~;
#N canvas 297 170 394 202 apply_distortion 0;
#X obj 79 42 inlet;
#N canvas 0 23 378 252 clipper 0;
#X obj 25 112 clip~ -0.6 0.6, f 32;
#X obj 135 88 * -1;
#X obj 25 183 *~;
#X obj 25 46 inlet~;
#X obj 135 46 inlet;
#X text 252 23 make-up gain;
#X text 132 26 clip %;
#X obj 263 46 inlet;
#X obj 263 70 sig~;
#X text 23 22 signal;
#X obj 25 207 outlet~;
#X connect 0 0 2 0;
#X connect 1 0 0 1;
#X connect 2 0 10 0;
#X connect 3 0 0 0;
#X connect 4 0 1 0;
#X connect 4 0 0 2;
#X connect 7 0 8 0;
#X connect 8 0 2 1;
#X restore 28 127 pd clipper;
#N canvas 0 23 223 231 calculate_clip_amount 0;
#X floatatom 95 52 5 0 0 0 - - -;
#X obj 95 75 clip 0 1;
#X obj 24 49 loadbang;
#X floatatom 95 163 5 0 0 0 - - -;
#X msg 24 75 1;
#X obj 95 139 -;
#X obj 95 99 t b f;
#X obj 95 186 outlet;
#X obj 95 28 inlet;
#X connect 0 0 1 0;
#X connect 1 0 6 0;
#X connect 2 0 4 0;
#X connect 3 0 7 0;
#X connect 4 0 5 0;
#X connect 5 0 3 0;
#X connect 6 0 5 0;
#X connect 6 1 5 1;
#X connect 8 0 0 0;
#X restore 79 66 pd calculate_clip_amount;
#N canvas 0 23 167 113 calculate_make_up_gain_amount 0;
#X obj 23 15 inlet;
#X obj 23 63 outlet;
#X obj 23 39 scaled 0 0.9 1 10;
#X connect 0 0 2 0;
#X connect 2 0 1 0;
#X restore 130 97 pd calculate_make_up_gain_amount;
#X obj 28 42 inlet~;
#X text 23 23 signal;
#X text 77 22 distortion %;
#X obj 28 151 outlet~;
#X connect 0 0 2 0;
#X connect 0 0 3 0;
#X connect 1 0 7 0;
#X connect 2 0 1 1;
#X connect 3 0 1 2;
#X connect 4 0 1 0;
#X restore 43 407 pd apply_distortion;
#X text 38 153 signal;
#X text 272 155 \$1 distortion %;
#X obj 279 203 f \$1;
#X obj 320 179 loadbang;
#N canvas 297 170 394 202 apply_distortion 0;
#X obj 79 42 inlet;
#N canvas 0 23 378 252 clipper 0;
#X obj 25 112 clip~ -0.6 0.6, f 32;
#X obj 135 88 * -1;
#X obj 25 183 *~;
#X obj 25 46 inlet~;
#X obj 135 46 inlet;
#X text 252 23 make-up gain;
#X text 132 26 clip %;
#X obj 263 46 inlet;
#X obj 263 70 sig~;
#X text 23 22 signal;
#X obj 25 207 outlet~;
#X connect 0 0 2 0;
#X connect 1 0 0 1;
#X connect 2 0 10 0;
#X connect 3 0 0 0;
#X connect 4 0 1 0;
#X connect 4 0 0 2;
#X connect 7 0 8 0;
#X connect 8 0 2 1;
#X restore 28 127 pd clipper;
#N canvas 0 23 223 231 calculate_clip_amount 0;
#X floatatom 95 52 5 0 0 0 - - -;
#X obj 95 75 clip 0 1;
#X obj 24 49 loadbang;
#X floatatom 95 163 5 0 0 0 - - -;
#X msg 24 75 1;
#X obj 95 139 -;
#X obj 95 99 t b f;
#X obj 95 186 outlet;
#X obj 95 28 inlet;
#X connect 0 0 1 0;
#X connect 1 0 6 0;
#X connect 2 0 4 0;
#X connect 3 0 7 0;
#X connect 4 0 5 0;
#X connect 5 0 3 0;
#X connect 6 0 5 0;
#X connect 6 1 5 1;
#X connect 8 0 0 0;
#X restore 79 66 pd calculate_clip_amount;
#N canvas 0 23 167 113 calculate_make_up_gain_amount 0;
#X obj 23 15 inlet;
#X obj 23 63 outlet;
#X obj 23 39 scaled 0 0.9 1 10;
#X connect 0 0 2 0;
#X connect 2 0 1 0;
#X restore 130 97 pd calculate_make_up_gain_amount;
#X obj 28 42 inlet~;
#X text 23 23 signal;
#X text 77 22 distortion %;
#X obj 28 151 outlet~;
#X connect 0 0 2 0;
#X connect 0 0 3 0;
#X connect 1 0 7 0;
#X connect 2 0 1 1;
#X connect 3 0 1 2;
#X connect 4 0 1 0;
#X restore 222 407 pd apply_distortion;
#N canvas 297 170 394 202 apply_distortion 0;
#X obj 79 42 inlet;
#N canvas 0 23 378 252 clipper 0;
#X obj 25 112 clip~ -0.6 0.6, f 32;
#X obj 135 88 * -1;
#X obj 25 183 *~;
#X obj 25 46 inlet~;
#X obj 135 46 inlet;
#X text 252 23 make-up gain;
#X text 132 26 clip %;
#X obj 263 46 inlet;
#X obj 263 70 sig~;
#X text 23 22 signal;
#X obj 25 207 outlet~;
#X connect 0 0 2 0;
#X connect 1 0 0 1;
#X connect 2 0 10 0;
#X connect 3 0 0 0;
#X connect 4 0 1 0;
#X connect 4 0 0 2;
#X connect 7 0 8 0;
#X connect 8 0 2 1;
#X restore 28 127 pd clipper;
#N canvas 0 23 223 231 calculate_clip_amount 0;
#X floatatom 95 52 5 0 0 0 - - -;
#X obj 95 75 clip 0 1;
#X obj 24 49 loadbang;
#X floatatom 95 163 5 0 0 0 - - -;
#X msg 24 75 1;
#X obj 95 139 -;
#X obj 95 99 t b f;
#X obj 95 186 outlet;
#X obj 95 28 inlet;
#X connect 0 0 1 0;
#X connect 1 0 6 0;
#X connect 2 0 4 0;
#X connect 3 0 7 0;
#X connect 4 0 5 0;
#X connect 5 0 3 0;
#X connect 6 0 5 0;
#X connect 6 1 5 1;
#X connect 8 0 0 0;
#X restore 79 66 pd calculate_clip_amount;
#N canvas 0 23 167 113 calculate_make_up_gain_amount 0;
#X obj 23 15 inlet;
#X obj 23 63 outlet;
#X obj 23 39 scaled 0 0.9 1 10;
#X connect 0 0 2 0;
#X connect 2 0 1 0;
#X restore 130 97 pd calculate_make_up_gain_amount;
#X obj 28 42 inlet~;
#X text 23 23 signal;
#X text 77 22 distortion %;
#X obj 28 151 outlet~;
#X connect 0 0 2 0;
#X connect 0 0 3 0;
#X connect 1 0 7 0;
#X connect 2 0 1 1;
#X connect 3 0 1 2;
#X connect 4 0 1 0;
#X restore 392 407 pd apply_distortion;
#X obj 392 345 *~ 1;
#X obj 392 369 lop~ 440;
#X obj 461 368 hip~ 2000;
#N canvas 297 170 394 202 apply_distortion 0;
#X obj 79 42 inlet;
#N canvas 0 23 378 252 clipper 0;
#X obj 25 112 clip~ -0.6 0.6, f 32;
#X obj 135 88 * -1;
#X obj 25 183 *~;
#X obj 25 46 inlet~;
#X obj 135 46 inlet;
#X text 252 23 make-up gain;
#X text 132 26 clip %;
#X obj 263 46 inlet;
#X obj 263 70 sig~;
#X text 23 22 signal;
#X obj 25 207 outlet~;
#X connect 0 0 2 0;
#X connect 1 0 0 1;
#X connect 2 0 10 0;
#X connect 3 0 0 0;
#X connect 4 0 1 0;
#X connect 4 0 0 2;
#X connect 7 0 8 0;
#X connect 8 0 2 1;
#X restore 28 127 pd clipper;
#N canvas 0 23 223 231 calculate_clip_amount 0;
#X floatatom 95 52 5 0 0 0 - - -;
#X obj 95 75 clip 0 1;
#X obj 24 49 loadbang;
#X floatatom 95 163 5 0 0 0 - - -;
#X msg 24 75 1;
#X obj 95 139 -;
#X obj 95 99 t b f;
#X obj 95 186 outlet;
#X obj 95 28 inlet;
#X connect 0 0 1 0;
#X connect 1 0 6 0;
#X connect 2 0 4 0;
#X connect 3 0 7 0;
#X connect 4 0 5 0;
#X connect 5 0 3 0;
#X connect 6 0 5 0;
#X connect 6 1 5 1;
#X connect 8 0 0 0;
#X restore 79 66 pd calculate_clip_amount;
#N canvas 0 23 167 113 calculate_make_up_gain_amount 0;
#X obj 23 15 inlet;
#X obj 23 63 outlet;
#X obj 23 39 scaled 0 0.9 1 10;
#X connect 0 0 2 0;
#X connect 2 0 1 0;
#X restore 130 97 pd calculate_make_up_gain_amount;
#X obj 28 42 inlet~;
#X text 23 23 signal;
#X text 77 22 distortion %;
#X obj 28 151 outlet~;
#X connect 0 0 2 0;
#X connect 0 0 3 0;
#X connect 1 0 7 0;
#X connect 2 0 1 1;
#X connect 3 0 1 2;
#X connect 4 0 1 0;
#X restore 572 407 pd apply_distortion;
#X text 515 138 \$2 low pole (defaults to 500hz);
#X text 515 154 \$3 high pole (defaults to 15000hz);
#X floatatom 521 199 5 0 0 0 - - -;
#X floatatom 611 199 5 0 0 0 - - -;
#X text 30 30 // applies clipping and make-up gain to the original
signal \,;
#X text 31 15 // based on https://www.youtube.com/watch?v=hIkpUGbfI8o
;
#X text 31 61 // sums them all together.;
#X text 31 77 // NOTE: there's a lot of room for customization which
i'm not doing yet... like applying different clip amounts or make-up
amounts to different bands. right now the bands don't really matter.
;
#X obj 279 227 scaled 0 1 0 0.9;
#X text 31 45 // and also to 3 bands (poles specified with \$2 and
\$3) \, and;
#X obj 554 529 *~ 0.2;
#X obj 521 175 deff \$2 500;
#X obj 611 175 deff \$3 15000;
#X connect 0 0 14 0;
#X connect 1 0 2 0;
#X connect 2 0 4 0;
#X connect 3 0 19 0;
#X connect 4 0 30 0;
#X connect 5 0 12 0;
#X connect 6 0 0 0;
#X connect 6 0 3 0;
#X connect 6 0 9 0;
#X connect 6 0 16 0;
#X connect 8 0 6 0;
#X connect 9 0 1 0;
#X connect 12 0 28 0;
#X connect 13 0 12 0;
#X connect 14 0 1 1;
#X connect 15 0 2 1;
#X connect 16 0 17 0;
#X connect 16 0 18 0;
#X connect 17 0 15 0;
#X connect 18 0 15 0;
#X connect 19 0 4 1;
#X connect 22 0 0 1;
#X connect 22 0 18 1;
#X connect 23 0 17 1;
#X connect 23 0 3 1;
#X connect 28 0 9 1;
#X connect 28 0 19 1;
#X connect 28 0 15 1;
#X connect 28 0 14 1;
#X connect 30 0 7 0;
#X connect 31 0 22 0;
#X connect 32 0 23 0;
