#N canvas 268 112 771 597 12;
#X obj 136 177 inlet;
#X obj 43 177 inlet~;
#X text 38 153 signal;
#X text 133 153 \$1 distortion %;
#X obj 177 177 loadbang;
#X obj 43 504 outlet~;
#X obj 43 397 clip~ -1 1, f 19;
#X obj 43 201 *~;
#X obj 136 201 clip 0 1;
#X obj 136 289 ramp~;
#X obj 218 345 ramp~;
#X obj 43 463 *~, f 24;
#X floatatom 323 217 5 0 0 0 - - - 0;
#X floatatom 308 354 12 0 0 0 - - - 0;
#X obj 136 265 scaled 0 1 1 200;
#X obj 218 321 scaled 0 1 1 0.1;
#X obj 223 294 easeoutquint;
#X obj 136 225 easeinquart;
#X connect 0 0 8 0;
#X connect 1 0 7 0;
#X connect 6 0 11 0;
#X connect 7 0 6 0;
#X connect 8 0 16 0;
#X connect 8 0 17 0;
#X connect 9 0 7 1;
#X connect 10 0 11 1;
#X connect 11 0 5 0;
#X connect 14 0 9 0;
#X connect 14 0 12 0;
#X connect 15 0 10 0;
#X connect 15 0 13 0;
#X connect 16 0 15 0;
#X connect 17 0 14 0;
