#N canvas 92 130 679 517 12;
#X obj 264 173 inlet;
#X obj 353 173 inlet~;
#X obj 490 173 inlet;
#X obj 116 369 outlet~;
#X obj 247 369 outlet~;
#X obj 2 1 dt~.params;
#X text 266 149 gate;
#X text 493 146 params;
#X obj 379 369 outlet~;
#X text 378 148 signal;
#X obj 116 345 dt1~.impl, f 38;
#X connect 0 0 10 0;
#X connect 1 0 10 1;
#X connect 2 0 5 0;
#X connect 5 0 10 2;
#X connect 10 0 3 0;
#X connect 10 1 4 0;
#X connect 10 2 8 0;
#X coords 0 -1 1 1 204 241 2 2 1;
