#N canvas 0 38 1512 884 12;
#X obj 244 53 inlet~;
#X obj 45 53 inlet;
#X obj 1149 15 inlet;
#X obj 1149 39 route a h d s r, f 45;
#X obj 1319 378 print UNKNOWN_PARAM;
#X obj 1149 117 route cutoff q;
#X obj 1149 63 f;
#X obj 1149 87 s \$0-a;
#X obj 1211 63 f;
#X obj 1273 63 f;
#X obj 1336 63 clip 0 1;
#X obj 1398 63 f;
#X obj 1211 87 s \$0-h;
#X obj 1273 87 s \$0-d;
#X obj 1336 87 s \$0-s;
#X obj 1398 87 s \$0-r;
#X obj 1149 165 s \$0-cutoff;
#X obj 1149 141 f;
#X obj 1179 141 clip 0 1;
#X obj 1179 189 s \$0-q;
#X obj 1151 242 clip 0 1;
#X obj 1151 266 s \$0-spread;
#X obj 1151 218 route spread reroll;
#X obj 1216 241 bng 19 250 50 0 empty empty empty 0 -10 0 12 #fcfcfc #000000 #000000;
#X obj 1216 290 s \$0-reroll;
#X obj 1366 134 loadbang;
#X obj 1366 158 bng 19 250 50 0 empty empty empty 0 -10 0 12 #fcfcfc #000000 #000000;
#X msg 1366 182 reroll;
#X obj 1243 347 route maybe;
#X obj 1243 371 clip 0 1;
#X obj 1243 395 s \$0-maybe;
#X obj 1121 806 catch~ \$0-outL;
#X obj 1231 806 catch~ \$0-outR;
#X obj 1121 830 outlet~;
#X obj 1231 830 outlet~;
#N canvas 0 38 540 657 chain~ 0;
#X obj 84 43 inlet~;
#X obj 45 43 inlet;
#X obj 45 147 bng 19 250 50 0 empty empty empty 0 -10 0 12 #fcfcfc #000000 #000000;
#X obj 82 346 filter~, f 11;
#X obj 45 171 ahdsr~, f 39;
#X obj 119 274 r \$0-cutoff;
#X obj 119 298 sig~;
#X obj 156 322 sig~;
#X obj 156 298 r \$0-q;
#X obj 119 322 *~;
#X obj 272 377 r \$0-spread;
#X obj 392 377 r \$0-reroll;
#X obj 392 401 bng 19 250 50 0 empty empty empty 0 -10 0 12 #fcfcfc #000000 #000000;
#X obj 392 425 randrange 0 101;
#X obj 392 449 / 100;
#X obj 270 494 lerp 0.5;
#X floatatom 270 518 5 0 0 0 - - - 0;
#X floatatom 382 488 5 0 0 0 - - - 0;
#X obj 28 546 pan~;
#X obj 45 67 maybe 1;
#X obj 99 147 r \$0-a;
#X obj 153 147 r \$0-h;
#X obj 207 147 r \$0-d;
#X obj 261 147 r \$0-s;
#X obj 315 147 r \$0-r;
#X obj 28 591 throw~ \$0-outL;
#X obj 138 591 throw~ \$0-outR;
#X obj 154 43 r \$0-maybe;
#X obj 324 233 s~ \$0-env-1;
#X connect 0 0 3 0;
#X connect 1 0 19 0;
#X connect 2 0 4 0;
#X connect 3 0 18 0;
#X connect 4 0 9 1;
#X connect 4 0 28 0;
#X connect 5 0 6 0;
#X connect 6 0 9 0;
#X connect 7 0 3 2;
#X connect 8 0 7 0;
#X connect 9 0 3 1;
#X connect 10 0 15 0;
#X connect 11 0 12 0;
#X connect 12 0 13 0;
#X connect 13 0 14 0;
#X connect 14 0 15 2;
#X connect 14 0 17 0;
#X connect 15 0 16 0;
#X connect 16 0 18 1;
#X connect 18 0 25 0;
#X connect 18 1 26 0;
#X connect 19 0 2 0;
#X connect 20 0 4 1;
#X connect 21 0 4 2;
#X connect 22 0 4 3;
#X connect 23 0 4 4;
#X connect 24 0 4 5;
#X connect 27 0 19 1;
#X restore 203 100 pd chain~;
#X obj 494 53 inlet~;
#N canvas 0 38 540 657 chain~ 0;
#X obj 84 43 inlet~;
#X obj 45 43 inlet;
#X obj 45 147 bng 19 250 50 0 empty empty empty 0 -10 0 12 #fcfcfc #000000 #000000;
#X obj 82 346 filter~, f 11;
#X obj 45 171 ahdsr~, f 39;
#X obj 119 274 r \$0-cutoff;
#X obj 119 298 sig~;
#X obj 156 322 sig~;
#X obj 156 298 r \$0-q;
#X obj 119 322 *~;
#X obj 272 377 r \$0-spread;
#X obj 392 377 r \$0-reroll;
#X obj 392 401 bng 19 250 50 0 empty empty empty 0 -10 0 12 #fcfcfc #000000 #000000;
#X obj 392 425 randrange 0 101;
#X obj 392 449 / 100;
#X obj 270 494 lerp 0.5;
#X floatatom 270 518 5 0 0 0 - - - 0;
#X floatatom 382 488 5 0 0 0 - - - 0;
#X obj 28 546 pan~;
#X obj 45 67 maybe 1;
#X obj 99 147 r \$0-a;
#X obj 153 147 r \$0-h;
#X obj 207 147 r \$0-d;
#X obj 261 147 r \$0-s;
#X obj 315 147 r \$0-r;
#X obj 28 591 throw~ \$0-outL;
#X obj 138 591 throw~ \$0-outR;
#X obj 154 43 r \$0-maybe;
#X obj 324 233 s~ \$0-env-2;
#X connect 0 0 3 0;
#X connect 1 0 19 0;
#X connect 2 0 4 0;
#X connect 3 0 18 0;
#X connect 4 0 9 1;
#X connect 4 0 28 0;
#X connect 5 0 6 0;
#X connect 6 0 9 0;
#X connect 7 0 3 2;
#X connect 8 0 7 0;
#X connect 9 0 3 1;
#X connect 10 0 15 0;
#X connect 11 0 12 0;
#X connect 12 0 13 0;
#X connect 13 0 14 0;
#X connect 14 0 15 2;
#X connect 14 0 17 0;
#X connect 15 0 16 0;
#X connect 16 0 18 1;
#X connect 18 0 25 0;
#X connect 18 1 26 0;
#X connect 19 0 2 0;
#X connect 20 0 4 1;
#X connect 21 0 4 2;
#X connect 22 0 4 3;
#X connect 23 0 4 4;
#X connect 24 0 4 5;
#X connect 27 0 19 1;
#X restore 453 100 pd chain~;
#X obj 45 77 s \$0-gate;
#X obj 170 68 r \$0-gate;
#X obj 409 61 r \$0-gate;
#X obj 1338 830 outlet~;
#X obj 1338 766 r~ \$0-env-1;
#X obj 1419 766 r~ \$0-env-2;
#X obj 1338 790 max~;
#X connect 0 0 35 1;
#X connect 1 0 38 0;
#X connect 2 0 3 0;
#X connect 3 0 6 0;
#X connect 3 1 8 0;
#X connect 3 2 9 0;
#X connect 3 3 10 0;
#X connect 3 4 11 0;
#X connect 3 5 5 0;
#X connect 5 0 17 0;
#X connect 5 1 18 0;
#X connect 5 2 22 0;
#X connect 6 0 7 0;
#X connect 8 0 12 0;
#X connect 9 0 13 0;
#X connect 10 0 14 0;
#X connect 11 0 15 0;
#X connect 17 0 16 0;
#X connect 18 0 19 0;
#X connect 20 0 21 0;
#X connect 22 0 20 0;
#X connect 22 1 23 0;
#X connect 22 2 28 0;
#X connect 23 0 24 0;
#X connect 25 0 26 0;
#X connect 26 0 27 0;
#X connect 27 0 3 0;
#X connect 28 0 29 0;
#X connect 28 1 4 0;
#X connect 29 0 30 0;
#X connect 31 0 33 0;
#X connect 32 0 34 0;
#X connect 36 0 37 1;
#X connect 39 0 35 0;
#X connect 40 0 37 0;
#X connect 42 0 44 0;
#X connect 43 0 44 1;
#X connect 44 0 41 0;
