#N canvas 92 130 679 517 12;
#X obj 116 345 dt2~.impl, f 38;
#X obj 264 173 inlet;
#X obj 353 173 inlet~;
#X obj 399 173 inlet~;
#X obj 490 173 inlet;
#X obj 116 369 outlet~;
#X obj 247 369 outlet~;
#X obj 2 1 dt~.params;
#X text 266 149 gate;
#X text 378 148 signals;
#X text 493 146 params;
#X obj 379 369 outlet~;
#X connect 0 0 5 0;
#X connect 0 1 6 0;
#X connect 0 2 11 0;
#X connect 1 0 0 0;
#X connect 2 0 0 1;
#X connect 3 0 0 2;
#X connect 4 0 7 0;
#X connect 7 0 0 3;
#X coords 0 -1 1 1 204 241 2 2 1;
