#N canvas 0 38 1512 884 12;
#X obj 264 173 inlet;
#X obj 353 173 inlet~;
#X obj 399 173 inlet~;
#X obj 590 173 inlet;
#X obj 116 369 outlet~;
#X obj 246 369 outlet~;
#X obj 2 1 dt~.params;
#X text 266 149 gate;
#X text 378 148 signals;
#X text 593 146 params;
#X obj 116 345 dt4~.impl, f 19;
#X obj 445 173 inlet~;
#X obj 491 173 inlet~;
#X obj 328 372 outlet~;
#X connect 0 0 10 0;
#X connect 1 0 10 1;
#X connect 2 0 10 2;
#X connect 3 0 6 0;
#X connect 6 0 10 5;
#X connect 10 0 4 0;
#X connect 10 1 5 0;
#X connect 10 2 13 0;
#X connect 11 0 10 3;
#X connect 12 0 10 4;
#X coords 0 -1 1 1 204 241 2 2 1;
