#N canvas 0 38 1512 884 12;
#X obj 1149 15 inlet;
#X obj 1149 39 route a h d s r, f 45;
#X obj 1319 378 print UNKNOWN_PARAM;
#X obj 1149 117 route cutoff q;
#X obj 1149 63 f;
#X obj 1149 87 s \$0-a;
#X obj 1211 63 f;
#X obj 1273 63 f;
#X obj 1336 63 clip 0 1;
#X obj 1398 63 f;
#X obj 1211 87 s \$0-h;
#X obj 1273 87 s \$0-d;
#X obj 1336 87 s \$0-s;
#X obj 1398 87 s \$0-r;
#X obj 1149 165 s \$0-cutoff;
#X obj 1149 141 f;
#X obj 1179 141 clip 0 1;
#X obj 1179 189 s \$0-q;
#X obj 1151 242 clip 0 1;
#X obj 1151 266 s \$0-spread;
#X obj 1151 218 route spread reroll;
#X obj 1216 241 bng 19 250 50 0 empty empty empty 0 -10 0 12 #fcfcfc #000000 #000000;
#X obj 1216 290 s \$0-reroll;
#X obj 1366 134 loadbang;
#X obj 1366 158 bng 19 250 50 0 empty empty empty 0 -10 0 12 #fcfcfc #000000 #000000;
#X msg 1366 182 reroll;
#X obj 1243 347 route maybe;
#X obj 1243 371 clip 0 1;
#X obj 1243 395 s \$0-maybe;
#X obj 2 50 mspparam a 0 500 5;
#X obj 2 86 mspparam d 0 500 50;
#X obj 2 68 mspparam h 0 500 0;
#X obj 2 104 mspparam s 0 1 0.25;
#X obj 2 122 mspparam r 0 2000 200;
#X obj 2 168 mspparam q 0 1 0;
#X obj 2 150 mspparam cutoff 0 24000 12000;
#X obj 2 196 mspparam spread 0 1 0;
#X obj 187 31 bng 19 250 50 0 empty empty reroll -30 10 0 8 #fcfcfc #000000 #000000;
#X obj 2 224 mspparam maybe 0 1 1;
#X obj 432 31 r \$0-a;
#X obj 432 50 r \$0-h;
#X obj 432 69 r \$0-d;
#X obj 432 88 r \$0-s;
#X obj 432 107 r \$0-r;
#X obj 432 136 r \$0-cutoff;
#X obj 432 155 r \$0-q;
#X obj 432 184 r \$0-spread;
#X obj 432 213 r \$0-maybe;
#X msg 240 26 reroll;
#X obj 17 498 outlet;
#X obj 570 18 r \$0-reroll;
#X text 30 8 ----- dt~ :) -----;
#X connect 0 0 1 0;
#X connect 1 0 4 0;
#X connect 1 1 6 0;
#X connect 1 2 7 0;
#X connect 1 3 8 0;
#X connect 1 4 9 0;
#X connect 1 5 3 0;
#X connect 3 0 15 0;
#X connect 3 1 16 0;
#X connect 3 2 20 0;
#X connect 4 0 5 0;
#X connect 6 0 10 0;
#X connect 7 0 11 0;
#X connect 8 0 12 0;
#X connect 9 0 13 0;
#X connect 15 0 14 0;
#X connect 16 0 17 0;
#X connect 18 0 19 0;
#X connect 20 0 18 0;
#X connect 20 1 21 0;
#X connect 20 2 26 0;
#X connect 21 0 22 0;
#X connect 23 0 24 0;
#X connect 24 0 25 0;
#X connect 25 0 1 0;
#X connect 26 0 27 0;
#X connect 26 1 2 0;
#X connect 27 0 28 0;
#X connect 29 0 49 0;
#X connect 30 0 49 0;
#X connect 31 0 49 0;
#X connect 32 0 49 0;
#X connect 33 0 49 0;
#X connect 34 0 49 0;
#X connect 35 0 49 0;
#X connect 36 0 49 0;
#X connect 37 0 48 0;
#X connect 38 0 49 0;
#X connect 39 0 29 0;
#X connect 40 0 31 0;
#X connect 41 0 30 0;
#X connect 42 0 32 0;
#X connect 43 0 33 0;
#X connect 44 0 35 0;
#X connect 45 0 34 0;
#X connect 46 0 36 0;
#X connect 47 0 38 0;
#X connect 48 0 49 0;
#X connect 50 0 37 0;
#X coords 0 -1 1 1 204 241 2 2 1;
