#N canvas 0 25 633 548 12;
#X obj 15 31 inlet~;
#X obj 263 31 inlet~;
#X obj 15 72 outlet~;
#X obj 264 488 outlet~;
#X obj 264 453 *~;
#X obj 15 101 loadbang;
#X obj 358 31 inlet;
#X obj 86 297 pack 1 500;
#X obj 497 31 inlet;
#X text 18 10 ducker;
#X text 253 8 ducked signal;
#X obj 104 65 env~ 1024;
#X obj 15 149 sig~;
#X obj 86 171 -~;
#X obj 86 219 pow~;
#X obj 358 119 sig~;
#X obj 86 327 line~;
#X obj 86 266 snapshot~;
#X obj 15 231 metro 10;
#X obj 15 210 tgl 15 0 empty empty empty 17 7 0 10 -262144 -1 -1 1
1;
#X obj 104 89 sig~;
#X obj 15 185 loadbang;
#X obj 358 95 clip 0 1;
#X msg 15 125 100;
#X obj 86 195 /~ 100;
#X text 358 12 \$1 duck %;
#X text 498 9 \$2 attack/release;
#X obj 86 351 percentgraph~;
#X obj 358 55 deff \$1 1;
#X obj 497 55 deff \$2 50;
#X connect 0 0 2 0;
#X connect 0 0 11 0;
#X connect 1 0 4 0;
#X connect 4 0 3 0;
#X connect 5 0 23 0;
#X connect 6 0 28 0;
#X connect 7 0 16 0;
#X connect 8 0 29 0;
#X connect 11 0 20 0;
#X connect 12 0 13 0;
#X connect 13 0 24 0;
#X connect 14 0 17 0;
#X connect 15 0 14 1;
#X connect 16 0 27 0;
#X connect 17 0 7 0;
#X connect 18 0 17 0;
#X connect 19 0 18 0;
#X connect 20 0 13 1;
#X connect 21 0 19 0;
#X connect 22 0 15 0;
#X connect 23 0 12 0;
#X connect 24 0 14 0;
#X connect 27 0 4 1;
#X connect 28 0 22 0;
#X connect 29 0 7 1;
