#N canvas 1014 385 266 300 12;
#X obj 103 49 inlet;
#X obj 103 73 t b f;
#X obj 103 97 pi;
#X obj 103 121 *, f 5;
#X obj 103 145 / 2;
#X obj 103 169 cos;
#X obj 103 193 t b f;
#X msg 103 217 1;
#X obj 103 241 -, f 5;
#X obj 103 265 outlet;
#X text 14 8 /// 1 - cos((x * PI) / 2) per https://easings.net/#easeInSine
;
#X connect 0 0 1 0;
#X connect 1 0 2 0;
#X connect 1 1 3 1;
#X connect 2 0 3 0;
#X connect 3 0 4 0;
#X connect 4 0 5 0;
#X connect 5 0 6 0;
#X connect 6 0 7 0;
#X connect 6 1 8 1;
#X connect 7 0 8 0;
#X connect 8 0 9 0;
