#N canvas 830 350 450 300 12;
#X text 16 11 /// 1 - pow(1 - x \, 3) per https://easings.net/#easeOutCubic
;
#X obj 204 58 inlet;
#X obj 204 82 t b f;
#X msg 204 106 1;
#X obj 204 130 -, f 5;
#X obj 204 154 pow 3;
#X obj 204 178 t b f;
#X msg 204 202 1;
#X obj 204 226 -, f 5;
#X obj 204 250 outlet;
#X connect 1 0 2 0;
#X connect 2 0 3 0;
#X connect 2 1 4 1;
#X connect 3 0 4 0;
#X connect 4 0 5 0;
#X connect 5 0 6 0;
#X connect 6 0 7 0;
#X connect 6 1 8 1;
#X connect 7 0 8 0;
#X connect 8 0 9 0;
