#N canvas 150 188 690 391 12;
#X obj 207 106 inlet;
#X obj 207 130 fbank2, f 42;
#X obj 207 154 < 0.5;
#X obj 207 178 sel 1 0;
#X obj 352 322 outlet;
#X obj 498 154 * -2;
#X obj 498 178 + 2;
#X obj 498 226 / 2;
#X obj 498 250 oneminus;
#X text 90 8 return x < 0.5 ? 8 * x * x * x * x : 1 - Math.pow(-2 * x + 2 \, 4) / 2 \; per https://easings.net/#easeInOutQuart;
#X obj 352 154 pow 4;
#X obj 352 178 * 8;
#X obj 498 202 pow 4;
#X connect 0 0 1 0;
#X connect 1 0 2 0;
#X connect 1 1 10 0;
#X connect 1 2 5 0;
#X connect 2 0 3 0;
#X connect 3 0 1 1;
#X connect 3 1 1 2;
#X connect 5 0 6 0;
#X connect 6 0 12 0;
#X connect 7 0 8 0;
#X connect 8 0 4 0;
#X connect 10 0 11 0;
#X connect 11 0 4 0;
#X connect 12 0 7 0;
