#N canvas 459 117 455 393 12;
#X text 29 11 /// const c4 = (2 * Math.PI) / 3 \; return x === 0 ?
0 : x === 1 ? 1 : -pow(2 \, 10 * x - 10) * sin((x * 10 - 10.75) * c4)
\;;
#X text 30 56 per https://easings.net/#easeInElastic;
#X obj 37 110 inlet;
#X obj 336 121 loadbang;
#X obj 336 145 pi;
#X obj 336 169 * 2;
#X obj 336 193 / 3;
#X obj 37 134 sel 0 1, f 11;
#X msg 37 326 0;
#X msg 74 326 1;
#X obj 111 182 * 10;
#X obj 111 206 - 10;
#X obj 111 326 *, f 17;
#X obj 111 158 t f f, f 17;
#X obj 227 182 * 10;
#X obj 227 206 - 10.75;
#X obj 227 230 *, f 16;
#X obj 227 254 sin;
#X obj 111 302 * -1;
#X obj 111 350 outlet;
#X obj 111 278 pow, f 5;
#X obj 111 230 t b f;
#X msg 111 254 2;
#X connect 2 0 7 0;
#X connect 3 0 4 0;
#X connect 4 0 5 0;
#X connect 5 0 6 0;
#X connect 6 0 16 1;
#X connect 7 0 8 0;
#X connect 7 1 9 0;
#X connect 7 2 13 0;
#X connect 8 0 19 0;
#X connect 9 0 19 0;
#X connect 10 0 11 0;
#X connect 11 0 21 0;
#X connect 12 0 19 0;
#X connect 13 0 10 0;
#X connect 13 1 14 0;
#X connect 14 0 15 0;
#X connect 15 0 16 0;
#X connect 16 0 17 0;
#X connect 17 0 12 1;
#X connect 18 0 12 0;
#X connect 20 0 18 0;
#X connect 21 0 22 0;
#X connect 21 1 20 1;
#X connect 22 0 20 0;
