#N canvas 237 275 450 300 12;
#X obj 180 82 inlet;
#X obj 180 130 oneminus;
#X obj 180 106 clip 0 1;
#X obj 180 178 oneminus;
#X obj 180 202 outlet;
#X text 81 16 /// 1 - Math.pow(1 - x \, 4) \; per https://easings.net/#easeOutQuart;
#X obj 180 154 pow 4;
#X connect 0 0 2 0;
#X connect 1 0 6 0;
#X connect 2 0 1 0;
#X connect 3 0 4 0;
#X connect 6 0 3 0;
