#N canvas 262 247 450 300 12;
#X text 81 16 /// 1 - Math.pow(1 - x \, 5) \; per https://easings.net/#easeOutQuint;
#X obj 180 82 inlet;
#X obj 180 130 oneminus;
#X obj 180 106 clip 0 1;
#X obj 180 154 pow 5;
#X obj 180 178 oneminus;
#X obj 180 202 outlet;
#X connect 1 0 3 0;
#X connect 2 0 4 0;
#X connect 3 0 2 0;
#X connect 4 0 5 0;
#X connect 5 0 6 0;
