#N canvas 633 321 273 279 12;
#X text 7 6 /// -(cos(PI * x) - 1) / 2 per https://easings.net/#easeInOutSine
;
#X obj 104 55 inlet;
#X obj 104 79 t b f;
#X obj 104 103 pi;
#X obj 104 127 *, f 5;
#X obj 104 151 cos;
#X obj 104 175 - 1;
#X obj 104 199 * -1;
#X obj 104 223 / 2;
#X obj 104 247 outlet;
#X connect 1 0 2 0;
#X connect 2 0 3 0;
#X connect 2 1 4 1;
#X connect 3 0 4 0;
#X connect 4 0 5 0;
#X connect 5 0 6 0;
#X connect 6 0 7 0;
#X connect 7 0 8 0;
#X connect 8 0 9 0;
