#N canvas 92 130 672 380 12;
#X text 90 8 return x < 0.5 ? 16 * x * x * x * x * x : 1 - Math.pow(-2 * x + 2 \, 5) / 2 \; per https://easings.net/#easeInOutQuint;
#X obj 207 106 inlet;
#X obj 207 130 fbank2, f 42;
#X obj 207 154 < 0.5;
#X obj 207 178 sel 1 0;
#X obj 352 154 pow 5;
#X obj 352 178 * 16;
#X obj 352 322 outlet;
#X obj 498 154 * -2;
#X obj 498 178 + 2;
#X obj 498 202 pow 5;
#X obj 498 226 / 2;
#X obj 498 250 oneminus;
#X connect 1 0 2 0;
#X connect 2 0 3 0;
#X connect 2 1 5 0;
#X connect 2 2 8 0;
#X connect 3 0 4 0;
#X connect 4 0 2 1;
#X connect 4 1 2 2;
#X connect 5 0 6 0;
#X connect 6 0 7 0;
#X connect 8 0 9 0;
#X connect 9 0 10 0;
#X connect 10 0 11 0;
#X connect 11 0 12 0;
#X connect 12 0 7 0;
