#N canvas 939 38 471 547 12;
#X text 12 12 const c5 = (2 * Math.PI) / 4.5 \; return x === 0 ? 0
: x === 1 ? 1 : x < 0.5 ? -(pow(2 \, 20 * x - 10) * sin((20 * x - 11.125)
* c5)) / 2 : (pow(2 \, -20 * x + 10) * sin((20 * x - 11.125) * c5))
/ 2 + 1 \;;
#X text 13 84 per https://easings.net/#easeInOutElastic;
#X obj 387 151 loadbang;
#X obj 387 175 pi;
#X obj 387 199 * 2;
#X obj 387 223 / 4.5;
#X obj 37 150 inlet;
#X obj 37 174 sel 0 1, f 11;
#X msg 37 486 0;
#X msg 74 486 1;
#X obj 111 222 < 0.5;
#X obj 111 246 sel 0 1, f 31;
#X obj 111 198 t f f f, f 18;
#X obj 218 318 * 20;
#X obj 218 342 - 10;
#X obj 218 366 t b f;
#X msg 218 390 2;
#X obj 218 414 pow, f 5;
#X obj 218 438 *, f 9;
#X obj 218 270 f;
#X obj 218 294 t f f, f 9;
#X obj 278 318 * 20;
#X obj 278 342 - 11.125;
#X obj 278 366 *, f 16;
#X obj 278 390 sin;
#X obj 218 486 / 2;
#X obj 111 270 f;
#X obj 111 294 t f f, f 7;
#X obj 111 318 * -20;
#X obj 111 342 + 10;
#X obj 111 366 t b f;
#X msg 111 390 2;
#X obj 111 414 pow, f 5;
#X obj 111 438 *, f 7;
#X obj 157 318 * 20;
#X obj 157 342 - 11.125;
#X obj 157 366 *;
#X obj 157 390 sin;
#X obj 111 462 / 2;
#X obj 111 486 + 1;
#X obj 111 510 outlet;
#X obj 218 462 * -1;
#X connect 2 0 3 0;
#X connect 3 0 4 0;
#X connect 4 0 5 0;
#X connect 5 0 23 1;
#X connect 5 0 36 1;
#X connect 6 0 7 0;
#X connect 7 0 8 0;
#X connect 7 1 9 0;
#X connect 7 2 12 0;
#X connect 8 0 40 0;
#X connect 9 0 40 0;
#X connect 10 0 11 0;
#X connect 11 0 26 0;
#X connect 11 1 19 0;
#X connect 12 0 10 0;
#X connect 12 1 26 1;
#X connect 12 2 19 1;
#X connect 13 0 14 0;
#X connect 14 0 15 0;
#X connect 15 0 16 0;
#X connect 15 1 17 1;
#X connect 16 0 17 0;
#X connect 17 0 18 0;
#X connect 18 0 41 0;
#X connect 19 0 20 0;
#X connect 20 0 13 0;
#X connect 20 1 21 0;
#X connect 21 0 22 0;
#X connect 22 0 23 0;
#X connect 23 0 24 0;
#X connect 24 0 18 1;
#X connect 25 0 40 0;
#X connect 26 0 27 0;
#X connect 27 0 28 0;
#X connect 27 1 34 0;
#X connect 28 0 29 0;
#X connect 29 0 30 0;
#X connect 30 0 31 0;
#X connect 30 1 32 1;
#X connect 31 0 32 0;
#X connect 32 0 33 0;
#X connect 33 0 38 0;
#X connect 34 0 35 0;
#X connect 35 0 36 0;
#X connect 36 0 37 0;
#X connect 37 0 33 1;
#X connect 38 0 39 0;
#X connect 39 0 40 0;
#X connect 41 0 25 0;
