#N canvas 731 112 453 418 12;
#X text 19 9 /// const c4 = (2 * Math.PI) / 3 \; return x === 0 ? 0
: x === 1 ? 1 : pow(2 \, -10 * x) * sin((x * 10 - 0.75) * c4) + 1 \;
;
#X text 17 65 per https://easings.net/#easeOutElastic;
#X obj 329 171 loadbang;
#X obj 329 195 pi;
#X obj 329 219 * 2;
#X obj 329 243 / 3;
#X obj 37 160 inlet;
#X obj 37 184 sel 0 1, f 11;
#X msg 37 352 0;
#X msg 74 352 1;
#X obj 111 208 t f f, f 13;
#X obj 111 232 * -10;
#X obj 111 256 t b f;
#X msg 111 280 2;
#X obj 111 304 pow, f 5;
#X obj 111 328 *, f 13;
#X obj 199 232 * 10;
#X obj 199 256 - 0.75;
#X obj 199 280 *, f 19;
#X obj 199 304 sin;
#X obj 111 352 + 1;
#X obj 111 376 outlet;
#X connect 2 0 3 0;
#X connect 3 0 4 0;
#X connect 4 0 5 0;
#X connect 5 0 18 1;
#X connect 6 0 7 0;
#X connect 7 0 8 0;
#X connect 7 1 9 0;
#X connect 7 2 10 0;
#X connect 8 0 21 0;
#X connect 9 0 21 0;
#X connect 10 0 11 0;
#X connect 10 1 16 0;
#X connect 11 0 12 0;
#X connect 12 0 13 0;
#X connect 12 1 14 1;
#X connect 13 0 14 0;
#X connect 14 0 15 0;
#X connect 15 0 20 0;
#X connect 16 0 17 0;
#X connect 17 0 18 0;
#X connect 18 0 19 0;
#X connect 19 0 15 1;
#X connect 20 0 21 0;
