#N canvas 694 472 450 228 12;
#X text 7 5 /// sin((x * PI) / 2) per https://easings.net/#easeOutSine
;
#X obj 196 40 inlet;
#X obj 196 64 t b f;
#X obj 196 88 pi;
#X obj 196 112 *, f 5;
#X obj 196 136 / 2;
#X obj 196 160 sin;
#X obj 196 184 outlet;
#X connect 1 0 2 0;
#X connect 2 0 3 0;
#X connect 2 1 4 1;
#X connect 3 0 4 0;
#X connect 4 0 5 0;
#X connect 5 0 6 0;
#X connect 6 0 7 0;
