#N canvas 830 232 450 456 12;
#X text 14 10 /// x < 0.5 ? 4 * x * x * x : 1 - pow(-2 * x + 2 \, 3)
/ 2 per https://easings.net/#easeInOutCubic;
#X obj 158 58 inlet;
#X obj 158 106 < 0.5;
#X obj 158 82 t f f f, f 16;
#X obj 158 130 sel 0 1, f 16;
#X obj 212 154 f;
#X obj 212 178 pow 3;
#X obj 212 202 * 4;
#X obj 158 154 f;
#X obj 158 178 * -2;
#X obj 158 202 + 2;
#X obj 158 226 pow 3;
#X obj 158 250 / 2;
#X obj 158 274 t b f;
#X msg 158 298 1;
#X obj 158 322 -, f 5;
#X obj 212 415 outlet;
#X obj 212 378 clip -1 1;
#X connect 1 0 3 0;
#X connect 2 0 4 0;
#X connect 3 0 2 0;
#X connect 3 1 8 1;
#X connect 3 2 5 1;
#X connect 4 0 8 0;
#X connect 4 1 5 0;
#X connect 5 0 6 0;
#X connect 6 0 7 0;
#X connect 7 0 17 0;
#X connect 8 0 9 0;
#X connect 9 0 10 0;
#X connect 10 0 11 0;
#X connect 11 0 12 0;
#X connect 12 0 13 0;
#X connect 13 0 14 0;
#X connect 13 1 15 1;
#X connect 14 0 15 0;
#X connect 15 0 17 0;
#X connect 17 0 16 0;
