#N canvas 443 170 478 410 12;
#X text 18 4 /// DELAYS AN AUDIO SIGNAL AND FEEDS BACK INTO ITSELF
;
#X text 16 21 /// SEEALSO: [delonce~] FOR A NON-ECHOING VERSION OF
THIS \, \; /// OR [tapeecho~] FOR A VERSION OF THIS THAT CHANGES \;
/// PITCH AS YOU CHANGE DELAY TIME.;
#X obj 14 120 inlet~;
#X obj 250 120 inlet;
#X obj 369 120 inlet;
#X obj 250 144 f \$1;
#X obj 301 120 loadbang;
#X obj 369 144 f \$2;
#X obj 250 345 *~;
#X text 13 96 signal;
#X obj 250 369 outlet~;
#X obj 250 321 vd~ broadcast-echo-\$0;
#X msg 369 252 \$1 10;
#X obj 369 276 line~;
#X obj 250 168 max 1;
#X obj 369 168 clip 0 0.95;
#X text 229 97 \$1 delay time;
#X text 367 98 \$2 feedback;
#X obj 250 212 debounce 50;
#X obj 250 276 sig~;
#X obj 14 144 delwrite~ broadcast-echo-\$0 60000;
#X connect 2 0 20 0;
#X connect 3 0 5 0;
#X connect 4 0 7 0;
#X connect 5 0 14 0;
#X connect 6 0 5 0;
#X connect 6 0 7 0;
#X connect 7 0 15 0;
#X connect 8 0 10 0;
#X connect 8 0 20 0;
#X connect 11 0 8 0;
#X connect 12 0 13 0;
#X connect 13 0 8 1;
#X connect 14 0 18 0;
#X connect 15 0 12 0;
#X connect 18 0 19 0;
#X connect 19 0 11 0;
