#N canvas 93 130 450 300 12;
#X obj 196 78 inlet;
#X obj 196 102 bng 19 250 50 0 empty empty empty 0 -10 0 12 #fcfcfc #000000 #000000;
#X obj 196 150 sel 0;
#X obj 196 174 bng 19 250 50 0 empty empty empty 0 -10 0 12 #fcfcfc #000000 #000000;
#X obj 196 198 outlet;
#X obj 196 126 counter \$1;
#X connect 0 0 1 0;
#X connect 1 0 5 0;
#X connect 2 0 3 0;
#X connect 3 0 4 0;
#X connect 5 0 2 0;
