#N canvas 507 51 477 312 12;
#X obj 200 73 inlet;
#X obj 208 145 bng 15 250 50 0 empty empty empty 17 7 0 10 -262144
-1 -1;
#X obj 242 169 bng 15 250 50 0 empty empty empty 17 7 0 10 -262144
-1 -1;
#X obj 208 97 inlet;
#X obj 242 121 inlet;
#X obj 200 285 outlet;
#X obj 208 237 outlet;
#X obj 242 261 outlet;
#X text 13 6 /// PASS AN f TO FIRST INLET. ITS VALUE GETS RETURNED
FROM \; /// FIRST OUTLET \, AND CACHED IN A BUNCH OF [f] OBJECTS. \;
/// BANG ONE OF THE OTHER INLETS TO GET THE VALUE RETURNED \; /// FROM
THE CORRESPONDING OUTLET.;
#X obj 200 189 t f f f, f 10;
#X obj 208 213 f \$1;
#X obj 242 213 f \$1;
#X connect 0 0 9 0;
#X connect 1 0 10 0;
#X connect 2 0 11 0;
#X connect 3 0 1 0;
#X connect 4 0 2 0;
#X connect 9 0 5 0;
#X connect 9 1 10 1;
#X connect 9 2 11 1;
#X connect 10 0 6 0;
#X connect 11 0 7 0;
