#N canvas 706 353 721 444 12;
#X obj 17 11 notein, f 18;
#X obj 17 82 route 64 65 66 67 68 69 70 71, f 98;
#X obj 17 106 sel 0 127;
#X msg 17 130 0;
#X msg 47 130 1;
#X obj 17 154 tgl 15 0 ffb1 empty empty 17 7 0 10 #fcfcfc #000000 #000000
0 1;
#X obj 17 58 pack f f, f 9;
#X obj 102 106 sel 0 127;
#X msg 102 130 0;
#X msg 132 130 1;
#X obj 32 154 tgl 15 0 ffb2 empty empty 17 7 0 10 #fcfcfc #000000 #000000
0 1;
#X obj 187 106 sel 0 127;
#X msg 187 130 0;
#X msg 217 130 1;
#X obj 47 154 tgl 15 0 ffb3 empty empty 17 7 0 10 #fcfcfc #000000 #000000
0 1;
#X obj 273 106 sel 0 127;
#X msg 273 130 0;
#X msg 303 130 1;
#X obj 62 154 tgl 15 0 ffb4 empty empty 17 7 0 10 #fcfcfc #000000 #000000
0 1;
#X obj 358 106 sel 0 127;
#X msg 358 130 0;
#X msg 388 130 1;
#X obj 77 154 tgl 15 0 ffb5 empty empty 17 7 0 10 #fcfcfc #000000 #000000
0 1;
#X obj 443 106 sel 0 127;
#X msg 443 130 0;
#X msg 473 130 1;
#X obj 92 154 tgl 15 0 ffb6 empty empty 17 7 0 10 #fcfcfc #000000 #000000
0 1;
#X obj 529 106 sel 0 127;
#X msg 529 130 0;
#X msg 559 130 1;
#X obj 107 154 tgl 15 0 ffb7 empty empty 17 7 0 10 #fcfcfc #000000
#000000 0 1;
#X obj 614 106 sel 0 127;
#X msg 614 130 0;
#X msg 644 130 1;
#X obj 122 154 tgl 15 0 ffb8 empty empty 17 7 0 10 #fcfcfc #000000
#000000 0 1;
#X obj 292 200 r ffb1;
#X obj 292 224 outlet;
#X obj 338 224 outlet;
#X obj 384 224 outlet;
#X obj 430 224 outlet;
#X obj 476 224 outlet;
#X obj 522 224 outlet;
#X obj 568 224 outlet;
#X obj 614 224 outlet;
#X obj 338 200 r ffb2;
#X obj 384 200 r ffb3;
#X obj 430 200 r ffb4;
#X obj 476 200 r ffb5;
#X obj 522 200 r ffb6;
#X obj 568 200 r ffb7;
#X obj 614 200 r ffb8;
#X obj 17 35 spigot;
#X obj 78 35 spigot;
#X obj 139 59 tgl 15 0 empty empty empty 17 7 0 10 #fcfcfc #000000
#000000 0 1;
#X obj 139 35 == 1;
#X connect 0 0 51 0;
#X connect 0 1 52 0;
#X connect 0 2 54 0;
#X connect 1 0 2 0;
#X connect 1 1 7 0;
#X connect 1 2 11 0;
#X connect 1 3 15 0;
#X connect 1 4 19 0;
#X connect 1 5 23 0;
#X connect 1 6 27 0;
#X connect 1 7 31 0;
#X connect 2 0 3 0;
#X connect 2 1 4 0;
#X connect 3 0 5 0;
#X connect 4 0 5 0;
#X connect 6 0 1 0;
#X connect 7 0 8 0;
#X connect 7 1 9 0;
#X connect 8 0 10 0;
#X connect 9 0 10 0;
#X connect 11 0 12 0;
#X connect 11 1 13 0;
#X connect 12 0 14 0;
#X connect 13 0 14 0;
#X connect 15 0 16 0;
#X connect 15 1 17 0;
#X connect 16 0 18 0;
#X connect 17 0 18 0;
#X connect 19 0 20 0;
#X connect 19 1 21 0;
#X connect 20 0 22 0;
#X connect 21 0 22 0;
#X connect 23 0 24 0;
#X connect 23 1 25 0;
#X connect 24 0 26 0;
#X connect 25 0 26 0;
#X connect 27 0 28 0;
#X connect 27 1 29 0;
#X connect 28 0 30 0;
#X connect 29 0 30 0;
#X connect 31 0 32 0;
#X connect 31 1 33 0;
#X connect 32 0 34 0;
#X connect 33 0 34 0;
#X connect 35 0 36 0;
#X connect 44 0 37 0;
#X connect 45 0 38 0;
#X connect 46 0 39 0;
#X connect 47 0 40 0;
#X connect 48 0 41 0;
#X connect 49 0 42 0;
#X connect 50 0 43 0;
#X connect 51 0 6 0;
#X connect 52 0 6 1;
#X connect 53 0 51 1;
#X connect 53 0 52 1;
#X connect 54 0 53 0;
#X coords 0 -1 1 1 120 15 2 17 154;
