#N canvas 0 41 1512 884 12;
#X obj 226 146 sig~;
#X obj 276 146 sig~;
#X obj 326 146 sig~;
#X obj 376 146 sig~;
#X obj 426 146 sig~;
#X obj 476 146 sig~;
#X obj 526 146 sig~;
#X obj 576 146 sig~;
#X obj 626 146 sig~;
#X obj 774 151 inlet~;
#X obj 214 194 *~;
#X obj 264 194 *~;
#X obj 314 194 *~;
#X obj 364 194 *~;
#X obj 414 194 *~;
#X obj 464 194 *~;
#X obj 514 194 *~;
#X obj 564 194 *~;
#X obj 614 194 *~;
#X obj 674 194 *~;
#X obj 774 175 clip~ 0 1;
#X obj 844 151 inlet~;
#X obj 844 175 clip~ 0 1;
#X obj 914 151 inlet~;
#X obj 914 175 clip~ 0 1;
#X obj 984 151 inlet~;
#X obj 984 175 clip~ 0 1;
#X obj 1054 151 inlet~;
#X obj 1054 175 clip~ 0 1;
#X obj 1124 151 inlet~;
#X obj 1124 175 clip~ 0 1;
#X obj 1194 151 inlet~;
#X obj 1194 175 clip~ 0 1;
#X obj 1264 151 inlet~;
#X obj 1264 175 clip~ 0 1;
#X obj 1334 151 inlet~;
#X obj 1334 175 clip~ 0 1;
#X obj 1404 151 inlet~;
#X obj 1404 175 clip~ 0 1;
#X obj 156 151 inlet~;
#X obj 18 11 inlet;
#X obj 18 35 route q shift;
#X obj 226 6 loadbang;
#X msg 226 30 250;
#X obj 226 78 t f f f f f f f f f f, f 83;
#X obj 226 54 f;
#X obj 226 102 * 0.7;
#X obj 290 102 * 1;
#X obj 354 102 * 1.4;
#X obj 418 102 * 2;
#X obj 483 102 * 2.8;
#X obj 547 102 * 4;
#X obj 611 102 * 5.6;
#X obj 675 102 * 8;
#X obj 740 102 * 11.2;
#X obj 804 102 * 16;
#X obj 1485 238 inlet~;
#X obj 411 269 *~;
#X obj 411 293 outlet~;
#X obj 214 170 bob~;
#X obj 264 170 bob~;
#X obj 314 170 bob~;
#X obj 364 170 bob~;
#X obj 414 170 bob~;
#X obj 464 170 bob~;
#X obj 514 170 bob~;
#X obj 564 170 bob~;
#X obj 614 170 bob~;
#X obj 674 170 bob~;
#X obj 18 59 clip 0 8;
#X obj 18 151 ramp~;
#X connect 0 0 59 1;
#X connect 1 0 60 1;
#X connect 2 0 61 1;
#X connect 3 0 62 1;
#X connect 4 0 63 1;
#X connect 5 0 64 1;
#X connect 6 0 65 1;
#X connect 7 0 66 1;
#X connect 8 0 67 1;
#X connect 9 0 20 0;
#X connect 10 0 57 0;
#X connect 11 0 57 0;
#X connect 12 0 57 0;
#X connect 13 0 57 0;
#X connect 14 0 57 0;
#X connect 15 0 57 0;
#X connect 16 0 57 0;
#X connect 17 0 57 0;
#X connect 18 0 57 0;
#X connect 19 0 57 0;
#X connect 20 0 10 1;
#X connect 21 0 22 0;
#X connect 22 0 11 1;
#X connect 23 0 24 0;
#X connect 24 0 12 1;
#X connect 25 0 26 0;
#X connect 26 0 13 1;
#X connect 27 0 28 0;
#X connect 28 0 14 1;
#X connect 29 0 30 0;
#X connect 30 0 15 1;
#X connect 31 0 32 0;
#X connect 32 0 16 1;
#X connect 33 0 34 0;
#X connect 34 0 17 1;
#X connect 35 0 36 0;
#X connect 36 0 18 1;
#X connect 37 0 38 0;
#X connect 38 0 19 1;
#X connect 39 0 59 0;
#X connect 39 0 60 0;
#X connect 39 0 61 0;
#X connect 39 0 62 0;
#X connect 39 0 63 0;
#X connect 39 0 64 0;
#X connect 39 0 65 0;
#X connect 39 0 66 0;
#X connect 39 0 67 0;
#X connect 39 0 68 0;
#X connect 40 0 41 0;
#X connect 41 0 69 0;
#X connect 41 1 45 0;
#X connect 42 0 43 0;
#X connect 43 0 45 0;
#X connect 44 0 46 0;
#X connect 44 1 47 0;
#X connect 44 2 48 0;
#X connect 44 3 49 0;
#X connect 44 4 50 0;
#X connect 44 5 51 0;
#X connect 44 6 52 0;
#X connect 44 7 53 0;
#X connect 44 8 54 0;
#X connect 44 9 55 0;
#X connect 45 0 44 0;
#X connect 46 0 0 0;
#X connect 47 0 1 0;
#X connect 48 0 2 0;
#X connect 49 0 3 0;
#X connect 50 0 4 0;
#X connect 51 0 5 0;
#X connect 52 0 6 0;
#X connect 53 0 7 0;
#X connect 54 0 8 0;
#X connect 55 0 68 1;
#X connect 56 0 57 1;
#X connect 57 0 58 0;
#X connect 59 0 10 0;
#X connect 60 0 11 0;
#X connect 61 0 12 0;
#X connect 62 0 13 0;
#X connect 63 0 14 0;
#X connect 64 0 15 0;
#X connect 65 0 16 0;
#X connect 66 0 17 0;
#X connect 67 0 18 0;
#X connect 68 0 19 0;
#X connect 69 0 70 0;
#X connect 70 0 59 2;
#X connect 70 0 68 2;
#X connect 70 0 67 2;
#X connect 70 0 66 2;
#X connect 70 0 65 2;
#X connect 70 0 64 2;
#X connect 70 0 63 2;
#X connect 70 0 62 2;
#X connect 70 0 61 2;
#X connect 70 0 60 2;
