#N canvas 593 697 555 238 12;
#X obj 17 11 ctlin, f 14;
#X floatatom 17 35 5 0 0 0 - - -;
#X floatatom 64 35 5 0 0 0 - - -;
#X obj 17 82 pack f f;
#X obj 17 58 t b f, f 8;
#X obj 17 130 scaled 0 127 0 1;
#X obj 146 130 scaled 0 127 0 1;
#X obj 275 130 scaled 0 127 0 1;
#X obj 404 130 scaled 0 127 0 1;
#X floatatom 17 157 5 0 1 0 - - ffk1;
#X floatatom 54 157 5 0 1 0 - - ffk2;
#X floatatom 91 157 5 0 1 0 - - ffk3;
#X floatatom 128 157 5 0 1 0 - - ffk4;
#X obj 17 106 route 8 9 10 11, f 74;
#X obj 221 173 r ffk1;
#X obj 221 197 outlet;
#X obj 272 173 r ffk2;
#X obj 272 197 outlet;
#X obj 323 197 outlet;
#X obj 374 197 outlet;
#X obj 323 173 r ffk3;
#X obj 374 173 r ffk4;
#X connect 0 0 1 0;
#X connect 0 1 2 0;
#X connect 1 0 4 0;
#X connect 2 0 3 0;
#X connect 3 0 13 0;
#X connect 4 0 3 0;
#X connect 4 1 3 1;
#X connect 5 0 9 0;
#X connect 6 0 10 0;
#X connect 7 0 11 0;
#X connect 8 0 12 0;
#X connect 13 0 5 0;
#X connect 13 1 6 0;
#X connect 13 2 7 0;
#X connect 13 3 8 0;
#X connect 14 0 15 0;
#X connect 16 0 17 0;
#X connect 20 0 18 0;
#X connect 21 0 19 0;
#X coords 0 -1 1 1 148 18 2 17 157;
