#N canvas 489 372 377 281 12;
#X floatatom 17 35 5 0 0 0 - - -;
#X floatatom 78 35 5 0 0 0 - - -;
#X obj 17 11 notein, f 18;
#X obj 17 106 sel 0 127;
#X msg 17 130 0;
#X msg 47 130 1;
#X obj 17 154 tgl 15 0 ffkb1 empty empty 17 7 0 10 -262144 -1 -1 0
1;
#X obj 17 58 pack f f, f 9;
#X obj 102 106 sel 0 127;
#X msg 102 130 0;
#X msg 132 130 1;
#X obj 32 154 tgl 15 0 ffkb2 empty empty 17 7 0 10 -262144 -1 -1 0
1;
#X obj 187 106 sel 0 127;
#X msg 187 130 0;
#X msg 217 130 1;
#X obj 47 154 tgl 15 0 ffkb3 empty empty 17 7 0 10 -262144 -1 -1 0
1;
#X obj 272 106 sel 0 127;
#X msg 272 130 0;
#X msg 302 130 1;
#X obj 62 154 tgl 15 0 ffkb4 empty empty 17 7 0 10 -262144 -1 -1 0
1;
#X obj 17 82 route 0 1 2 3, f 49;
#X obj 119 221 outlet;
#X obj 177 221 outlet;
#X obj 235 221 outlet;
#X obj 293 221 outlet;
#X obj 119 197 r ffkb1;
#X obj 177 197 r ffkb2;
#X obj 235 197 r ffkb3;
#X obj 293 197 r ffkb4;
#X connect 0 0 7 0;
#X connect 1 0 7 1;
#X connect 2 0 0 0;
#X connect 2 1 1 0;
#X connect 3 0 4 0;
#X connect 3 1 5 0;
#X connect 4 0 6 0;
#X connect 5 0 6 0;
#X connect 7 0 20 0;
#X connect 8 0 9 0;
#X connect 8 1 10 0;
#X connect 9 0 11 0;
#X connect 10 0 11 0;
#X connect 12 0 13 0;
#X connect 12 1 14 0;
#X connect 13 0 15 0;
#X connect 14 0 15 0;
#X connect 16 0 17 0;
#X connect 16 1 18 0;
#X connect 17 0 19 0;
#X connect 18 0 19 0;
#X connect 20 0 3 0;
#X connect 20 1 8 0;
#X connect 20 2 12 0;
#X connect 20 3 16 0;
#X connect 25 0 21 0;
#X connect 26 0 22 0;
#X connect 27 0 23 0;
#X connect 28 0 24 0;
#X coords 0 -1 1 1 60 15 2 17 154;
