#N canvas 678 343 271 187 12;
#X obj 17 11 ctlin, f 14;
#X floatatom 17 35 5 0 0 0 - - -;
#X obj 17 82 pack f f;
#X obj 17 58 t b f, f 8;
#X obj 17 130 scaled 0 127 0 1;
#X obj 17 106 route 112, f 16;
#X obj 20 154 hsl 115 15 0 1 0 0 ffx empty empty -2 -8 0 10 -262144
-1 -1 4757 1;
#X obj 190 119 r ffx;
#X obj 190 143 outlet;
#X connect 0 0 1 0;
#X connect 0 1 2 0;
#X connect 1 0 3 0;
#X connect 2 0 5 0;
#X connect 3 0 2 0;
#X connect 3 1 2 1;
#X connect 4 0 6 0;
#X connect 5 0 4 0;
#X connect 7 0 8 0;
#X coords 0 -1 1 1 120 15 2 17 154;
