#N canvas 706 236 450 300 12;
#X obj 109 104 inlet~;
#X obj 109 128 bob~, f 24;
#X obj 109 152 outlet~;
#X obj 191 104 inlet~;
#X obj 274 56 inlet~;
#X obj 274 80 clip~ 0 1;
#X obj 274 104 *~ 8;
#X connect 0 0 1 0;
#X connect 1 0 2 0;
#X connect 3 0 1 1;
#X connect 4 0 5 0;
#X connect 5 0 6 0;
#X connect 6 0 1 2;
