#N canvas 2 276 626 496 12;
#X obj 52 50 inlet;
#X obj 52 368 +~;
#X obj 52 402 osc~;
#X obj 52 426 outlet~;
#X obj 193 51 inlet;
#X obj 175 240 *~;
#X obj 175 348 *~;
#X obj 325 52 inlet;
#X obj 289 323 *~;
#X obj 52 208 sig~;
#X obj 193 215 sig~;
#X obj 307 296 sig~;
#X obj 497 47 inlet;
#X obj 367 216 ahdsr 0 10 0 1 1000;
#X obj 307 240 *;
#X obj 52 154 t f b;
#X floatatom 367 240 5 0 0 0 - - -;
#X floatatom 307 264 5 0 0 0 - - -;
#X obj 254 72 loadbang;
#X text 182 23 \$1 harmonicity;
#X text 293 29 \$2 modulation index;
#X text 443 26 \$3 modulation index decay;
#X text 32 27 frequency;
#X obj 175 324 osc~;
#X obj 193 115 deff \$1 1;
#X obj 325 116 deff \$2 1;
#X obj 497 111 deff \$3 50;
#X connect 0 0 15 0;
#X connect 1 0 2 0;
#X connect 2 0 3 0;
#X connect 4 0 24 0;
#X connect 5 0 8 0;
#X connect 5 0 23 0;
#X connect 6 0 1 1;
#X connect 7 0 25 0;
#X connect 8 0 6 1;
#X connect 9 0 1 0;
#X connect 9 0 5 0;
#X connect 10 0 5 1;
#X connect 11 0 8 1;
#X connect 12 0 26 0;
#X connect 13 0 16 0;
#X connect 14 0 17 0;
#X connect 15 0 9 0;
#X connect 15 1 13 0;
#X connect 16 0 14 0;
#X connect 17 0 11 0;
#X connect 18 0 24 0;
#X connect 18 0 25 0;
#X connect 18 0 26 0;
#X connect 23 0 6 0;
#X connect 24 0 10 0;
#X connect 25 0 14 1;
#X connect 26 0 13 5;
