#N canvas 573 68 617 662 12;
#X obj 14 102 inlet~;
#X obj 140 102 inlet~;
#X obj 13 623 outlet~;
#X obj 123 623 outlet~;
#X obj 336 102 inlet;
#X obj 336 126 bng 15 250 50 0 empty empty empty 17 7 0 10 -262144
-1 -1;
#X obj 336 146 counter 2;
#X obj 336 194 sel 0, f 14;
#X obj 336 238 t b b;
#X obj 431 238 t b b;
#X msg 336 262 1;
#X msg 368 262 0;
#X msg 431 262 1;
#X msg 463 262 0;
#X floatatom 336 170 5 0 0 0 - - -;
#X obj 15 287 tabwrite~ \$0-a-L;
#X obj 46 135 loadbang;
#X obj 141 287 tabwrite~ \$0-a-R;
#X obj 25 306 tabwrite~ \$0-b-L;
#X obj 151 306 tabwrite~ \$0-b-R;
#X obj 46 183 t b b, f 20;
#X obj 46 207 spigot;
#X obj 183 207 spigot;
#X obj 12 407 tabread~ \$0-a-L;
#X obj 22 426 tabread~ \$0-b-L;
#X obj 122 407 tabread~ \$0-a-R;
#X obj 132 426 tabread~ \$0-b-R;
#X obj 13 462 *~, f 45;
#X obj 23 481 *~, f 48;
#X obj 123 522 *~, f 44;
#X obj 133 541 *~, f 48;
#X obj 431 217 bng 15 250 50 0 empty empty empty 17 7 0 10 -262144
-1 -1;
#X obj 13 599 *~;
#X obj 123 599 *~;
#N canvas 0 23 565 300 player 0;
#X obj 277 98 t b b;
#X obj 277 196 line~;
#X obj 277 128 del 5;
#X msg 277 152 1 5;
#X msg 328 154 0 5;
#X obj 98 172 line~;
#X obj 98 95 del 5;
#X msg 172 143 0 0;
#X obj 98 71 t b b b, f 26;
#X obj 98 52 bng 15 250 50 0 empty empty empty 17 7 0 10 -262144 -1
-1;
#X obj 98 28 loadbang;
#X obj 98 226 outlet~;
#X obj 277 220 outlet~;
#X text 88 249 playhead;
#X text 206 242 final gain stage for looping without clicks;
#X obj 98 119 t b b, f 11;
#X msg 98 143 1 100;
#X obj 98 196 *~ 4410;
#X obj 187 95 del 100;
#X connect 0 0 2 0;
#X connect 0 1 4 0;
#X connect 1 0 12 0;
#X connect 2 0 3 0;
#X connect 3 0 1 0;
#X connect 4 0 1 0;
#X connect 5 0 17 0;
#X connect 6 0 15 0;
#X connect 7 0 5 0;
#X connect 8 0 6 0;
#X connect 8 1 18 0;
#X connect 8 2 0 0;
#X connect 9 0 8 0;
#X connect 10 0 9 0;
#X connect 15 0 16 0;
#X connect 15 1 7 0;
#X connect 16 0 5 0;
#X connect 17 0 11 0;
#X connect 18 0 9 0;
#X restore 83 353 pd player;
#X obj 365 23 table \$0-a-L 4410;
#X obj 365 42 table \$0-b-L 4410;
#X obj 488 23 table \$0-a-R 4410;
#X obj 488 42 table \$0-b-R 4410;
#X obj 46 159 metro 100;
#X obj 305 432 line~;
#X obj 369 432 line~;
#X obj 420 432 line~;
#X obj 472 432 line~;
#X msg 305 303 \$1 10;
#X msg 365 303 \$1 10;
#X msg 425 303 \$1 10;
#X msg 485 303 \$1 10;
#X obj 375 102 loadbang;
#X text 21 13 /// PASS STEREO AUDIO INTO FIRST TWO INLETS. \; /// BANG
THIRD INLET TO REPEATEDLY LOOP THE \; /// PRECEDING 100ms OF THE INPUT
AUDIO FROM \; /// THE TWO OUTLETS.;
#X connect 0 0 15 0;
#X connect 0 0 18 0;
#X connect 1 0 17 0;
#X connect 1 0 19 0;
#X connect 4 0 5 0;
#X connect 5 0 6 0;
#X connect 6 0 14 0;
#X connect 7 0 8 0;
#X connect 7 1 31 0;
#X connect 8 0 10 0;
#X connect 8 1 11 0;
#X connect 9 0 12 0;
#X connect 9 1 13 0;
#X connect 10 0 21 1;
#X connect 10 0 44 0;
#X connect 11 0 22 1;
#X connect 11 0 45 0;
#X connect 12 0 22 1;
#X connect 12 0 46 0;
#X connect 13 0 21 1;
#X connect 13 0 47 0;
#X connect 14 0 7 0;
#X connect 16 0 39 0;
#X connect 20 0 21 0;
#X connect 20 1 22 0;
#X connect 21 0 15 0;
#X connect 21 0 17 0;
#X connect 22 0 18 0;
#X connect 22 0 19 0;
#X connect 23 0 27 0;
#X connect 24 0 28 0;
#X connect 25 0 29 0;
#X connect 26 0 30 0;
#X connect 27 0 32 0;
#X connect 28 0 32 0;
#X connect 29 0 33 0;
#X connect 30 0 33 0;
#X connect 31 0 9 0;
#X connect 32 0 2 0;
#X connect 33 0 3 0;
#X connect 34 0 23 0;
#X connect 34 0 26 0;
#X connect 34 0 25 0;
#X connect 34 0 24 0;
#X connect 34 1 32 1;
#X connect 34 1 33 1;
#X connect 39 0 20 0;
#X connect 40 0 27 1;
#X connect 41 0 28 1;
#X connect 42 0 29 1;
#X connect 43 0 30 1;
#X connect 44 0 41 0;
#X connect 44 0 43 0;
#X connect 45 0 40 0;
#X connect 45 0 42 0;
#X connect 46 0 40 0;
#X connect 46 0 42 0;
#X connect 47 0 41 0;
#X connect 47 0 43 0;
#X connect 48 0 5 0;
