#N canvas 498 61 898 598 12;
#X obj 169 439 f, f 5;
#X obj 169 415 t b f, f 8;
#X obj 169 487 pack f f;
#X obj 137 319 t f f;
#X obj 169 343 spigot;
#X obj 169 367 t b f;
#X obj 208 207 tgl 15 0 empty empty empty 17 7 0 10 #fcfcfc #000000
#000000 0 1;
#X obj 169 511 route 0 1 2 3 4 5 6 7;
#X obj 169 463 % 8;
#X obj 151 559 outlet;
#X obj 137 181 inlet;
#X obj 208 181 inlet;
#X obj 264 188 loadbang;
#X obj 169 391 sampleablerandwalk \$1 \$2;
#X text 7 17 /// PASS OUTPUT OF [metronome] TO FIRST INLET TO OUTPUT
\; /// RANDOM VALUES BETWEEN 0 AND 1 \; /// PASS A 0 TO SECOND INLET
TO LOCK PREVIOUS 8 STEPS \; /// INTO PLACE \, SO THE OUTPUT LOOPS THE
PREVIOUS 8 VALUES. \; /// PASS A 1 TO SECOND INLET TO RESUME GENERATING
RANDOM \; /// VALUES. \; /// INITIALIZE WITH \$1 AND \$2 BEING THE
MIN AND MAX \; /// DURATIONS IN MILLISECONDS TO HAVE A SINGLE NOTE
RUN \; /// LAST FOR IN THE GENERATIVE ALGORITHM. RECOMMENDED TO \;
/// SET \$1 TO THE [metronome] RATE.;
#X obj 137 245 - 1;
#X text 12 230 because 8step is \; 0-based but \; [metronome] is \;
1-based.;
#X obj 151 535 16steprecallable, f 44;
#X obj 456 193 inlet;
#X text 468 26 /// FINAL INLET ACCEPTS MESSAGES OF THE FORM "save 3"
\; /// OR "recall 5" \, WITH NUMBERS RANGING FROM 1-8 \, \; /// INCLUSIVE.
USE THESE TO SAVE AND RECALL PATTERNS.;
#X connect 0 0 8 0;
#X connect 1 0 0 0;
#X connect 1 1 2 1;
#X connect 2 0 7 0;
#X connect 3 0 17 0;
#X connect 3 1 4 0;
#X connect 4 0 5 0;
#X connect 5 0 13 0;
#X connect 5 1 0 1;
#X connect 6 0 4 1;
#X connect 7 0 17 1;
#X connect 7 1 17 2;
#X connect 7 2 17 3;
#X connect 7 3 17 4;
#X connect 7 4 17 5;
#X connect 7 5 17 6;
#X connect 7 6 17 7;
#X connect 7 7 17 8;
#X connect 8 0 2 0;
#X connect 10 0 15 0;
#X connect 11 0 6 0;
#X connect 12 0 6 0;
#X connect 13 0 1 0;
#X connect 15 0 3 0;
#X connect 17 0 9 0;
#X connect 18 0 17 17;
