#N canvas 2 25 1280 747 12;
#X obj 16 288 t b f, f 9;
#X obj 16 264 mspkey \$2;
#X obj 34 27 loadbang;
#X obj 34 51 countrange 0 25;
#X obj 34 75 t f f, f 8;
#X obj 34 123 pack f f;
#X obj 87 99 + \$1;
#X obj 34 147 route 0 1 2 3 4 5 6 7 8 9 10 11, f 120;
#X obj 16 312 f;
#X obj 16 336 pack f f, f 9;
#X obj 86 288 t b f, f 9;
#X obj 86 312 f;
#X obj 86 336 pack f f, f 9;
#X obj 86 264 mspkey \$3;
#X obj 156 288 t b f, f 9;
#X obj 156 312 f;
#X obj 156 336 pack f f, f 9;
#X obj 226 288 t b f, f 9;
#X obj 226 312 f;
#X obj 226 336 pack f f, f 9;
#X obj 296 288 t b f, f 9;
#X obj 296 336 pack f f, f 9;
#X obj 366 288 t b f, f 9;
#X obj 366 312 f;
#X obj 366 336 pack f f, f 9;
#X obj 436 288 t b f, f 9;
#X obj 436 312 f;
#X obj 436 336 pack f f, f 9;
#X obj 506 288 t b f, f 9;
#X obj 506 312 f;
#X obj 506 336 pack f f, f 9;
#X obj 576 288 t b f, f 9;
#X obj 576 336 pack f f, f 9;
#X obj 653 288 t b f, f 9;
#X obj 653 312 f;
#X obj 653 336 pack f f, f 9;
#X obj 156 264 mspkey \$4;
#X obj 226 264 mspkey \$5;
#X obj 296 264 mspkey \$6;
#X obj 366 264 mspkey \$7;
#X obj 436 264 mspkey \$8;
#X obj 506 264 mspkey \$9;
#X obj 576 264 mspkey \$10;
#X obj 653 264 mspkey \$11;
#X obj 296 312 f;
#X obj 576 312 f;
#X obj 730 288 t b f, f 9;
#X obj 730 336 pack f f, f 9;
#X obj 807 288 t b f, f 9;
#X obj 807 312 f;
#X obj 807 336 pack f f, f 9;
#X obj 730 312 f;
#X obj 730 264 mspkey \$12;
#X obj 899 176 route 12 13 14 15 16 17 18 19 20 21 22 23 24, f 146
;
#X obj 884 288 t b f, f 9;
#X obj 884 312 f;
#X obj 884 336 pack f f, f 9;
#X obj 961 288 t b f, f 9;
#X obj 961 336 pack f f, f 9;
#X obj 1038 288 t b f, f 9;
#X obj 1038 312 f;
#X obj 1038 336 pack f f, f 9;
#X obj 961 312 f;
#X obj 1115 288 t b f, f 9;
#X obj 1115 312 f;
#X obj 1115 336 pack f f, f 9;
#X obj 1192 288 t b f, f 9;
#X obj 1192 336 pack f f, f 9;
#X obj 1269 288 t b f, f 9;
#X obj 1269 312 f;
#X obj 1269 336 pack f f, f 9;
#X obj 1192 312 f;
#X obj 1346 288 t b f, f 9;
#X obj 1346 312 f;
#X obj 1346 336 pack f f, f 9;
#X obj 1423 288 t b f, f 9;
#X obj 1423 336 pack f f, f 9;
#X obj 1500 288 t b f, f 9;
#X obj 1500 312 f;
#X obj 1500 336 pack f f, f 9;
#X obj 1423 312 f;
#X obj 1577 288 t b f, f 9;
#X obj 1577 312 f;
#X obj 1577 336 pack f f, f 9;
#X obj 1654 288 t b f, f 9;
#X obj 1654 336 pack f f, f 9;
#X obj 1731 288 t b f, f 9;
#X obj 1731 312 f;
#X obj 1731 336 pack f f, f 9;
#X obj 1654 312 f;
#X obj 1808 288 t b f, f 9;
#X obj 1808 312 f;
#X obj 1808 336 pack f f, f 9;
#X obj 807 264 mspkey \$13;
#X obj 884 264 mspkey \$14;
#X obj 961 264 mspkey \$15;
#X obj 1038 264 mspkey \$16;
#X obj 1115 264 mspkey \$17;
#X obj 1192 264 mspkey \$18;
#X obj 1269 264 mspkey \$19;
#X obj 1346 264 mspkey \$20;
#X obj 1423 264 mspkey \$21;
#X obj 1500 264 mspkey \$22;
#X obj 1577 264 mspkey \$23;
#X obj 1654 264 mspkey \$24;
#X obj 1731 264 mspkey \$25;
#X obj 1808 264 mspkey \$26;
#X text 387 31 /// SET \$1 TO A MIDI NOTE \, AND \$2-\$26 TO KEY CODES.
\; /// WHEN \$2 IS PRESSED \, \$1 MIDI NOTE WILL BE EMITTED IN A \;
/// LIST LIKE "48 1" \, ASSUMING \$1 WAS SET TO 48 WHEN \; /// RELEASED
\, "48 0" WILL BE EMITTED. WHEN \$3 IS PRESSED \, \; /// "49 1" WILL
BE EMITTED \, ETC. \, ALL THE WAY UP TO \$26 \; /// MAPPING TO THE
VALUE OF \$1 PLUS 24;
#X obj 732 673 outlet;
#X connect 0 0 8 0;
#X connect 0 1 9 1;
#X connect 1 0 0 0;
#X connect 2 0 3 0;
#X connect 3 0 4 0;
#X connect 4 0 5 0;
#X connect 4 1 6 0;
#X connect 5 0 7 0;
#X connect 6 0 5 1;
#X connect 7 0 8 1;
#X connect 7 1 11 1;
#X connect 7 2 15 1;
#X connect 7 3 18 1;
#X connect 7 4 44 1;
#X connect 7 5 23 1;
#X connect 7 6 26 1;
#X connect 7 7 29 1;
#X connect 7 8 45 1;
#X connect 7 9 34 1;
#X connect 7 10 51 1;
#X connect 7 11 49 1;
#X connect 7 12 53 0;
#X connect 8 0 9 0;
#X connect 9 0 108 0;
#X connect 10 0 11 0;
#X connect 10 1 12 1;
#X connect 11 0 12 0;
#X connect 12 0 108 0;
#X connect 13 0 10 0;
#X connect 14 0 15 0;
#X connect 14 1 16 1;
#X connect 15 0 16 0;
#X connect 16 0 108 0;
#X connect 17 0 18 0;
#X connect 17 1 19 1;
#X connect 18 0 19 0;
#X connect 19 0 108 0;
#X connect 20 0 44 0;
#X connect 20 1 21 1;
#X connect 21 0 108 0;
#X connect 22 0 23 0;
#X connect 22 1 24 1;
#X connect 23 0 24 0;
#X connect 24 0 108 0;
#X connect 25 0 26 0;
#X connect 25 1 27 1;
#X connect 26 0 27 0;
#X connect 27 0 108 0;
#X connect 28 0 29 0;
#X connect 28 1 30 1;
#X connect 29 0 30 0;
#X connect 30 0 108 0;
#X connect 31 0 45 0;
#X connect 31 1 32 1;
#X connect 32 0 108 0;
#X connect 33 0 34 0;
#X connect 33 1 35 1;
#X connect 34 0 35 0;
#X connect 35 0 108 0;
#X connect 36 0 14 0;
#X connect 37 0 17 0;
#X connect 38 0 20 0;
#X connect 39 0 22 0;
#X connect 40 0 25 0;
#X connect 41 0 28 0;
#X connect 42 0 31 0;
#X connect 43 0 33 0;
#X connect 44 0 21 0;
#X connect 45 0 32 0;
#X connect 46 0 51 0;
#X connect 46 1 47 1;
#X connect 47 0 108 0;
#X connect 48 0 49 0;
#X connect 48 1 50 1;
#X connect 49 0 50 0;
#X connect 50 0 108 0;
#X connect 51 0 47 0;
#X connect 52 0 46 0;
#X connect 53 0 55 1;
#X connect 53 1 62 1;
#X connect 53 2 60 1;
#X connect 53 3 64 1;
#X connect 53 4 71 1;
#X connect 53 5 69 1;
#X connect 53 6 73 1;
#X connect 53 7 80 1;
#X connect 53 8 78 1;
#X connect 53 9 82 1;
#X connect 53 10 89 1;
#X connect 53 11 87 1;
#X connect 53 12 91 1;
#X connect 54 0 55 0;
#X connect 54 1 56 1;
#X connect 55 0 56 0;
#X connect 56 0 108 0;
#X connect 57 0 62 0;
#X connect 57 1 58 1;
#X connect 58 0 108 0;
#X connect 59 0 60 0;
#X connect 59 1 61 1;
#X connect 60 0 61 0;
#X connect 61 0 108 0;
#X connect 62 0 58 0;
#X connect 63 0 64 0;
#X connect 63 1 65 1;
#X connect 64 0 65 0;
#X connect 65 0 108 0;
#X connect 66 0 71 0;
#X connect 66 1 67 1;
#X connect 67 0 108 0;
#X connect 68 0 69 0;
#X connect 68 1 70 1;
#X connect 69 0 70 0;
#X connect 70 0 108 0;
#X connect 71 0 67 0;
#X connect 72 0 73 0;
#X connect 72 1 74 1;
#X connect 73 0 74 0;
#X connect 74 0 108 0;
#X connect 75 0 80 0;
#X connect 75 1 76 1;
#X connect 76 0 108 0;
#X connect 77 0 78 0;
#X connect 77 1 79 1;
#X connect 78 0 79 0;
#X connect 79 0 108 0;
#X connect 80 0 76 0;
#X connect 81 0 82 0;
#X connect 81 1 83 1;
#X connect 82 0 83 0;
#X connect 83 0 108 0;
#X connect 84 0 89 0;
#X connect 84 1 85 1;
#X connect 85 0 108 0;
#X connect 86 0 87 0;
#X connect 86 1 88 1;
#X connect 87 0 88 0;
#X connect 88 0 108 0;
#X connect 89 0 85 0;
#X connect 90 0 91 0;
#X connect 90 1 92 1;
#X connect 91 0 92 0;
#X connect 92 0 108 0;
#X connect 93 0 48 0;
#X connect 94 0 54 0;
#X connect 95 0 57 0;
#X connect 96 0 59 0;
#X connect 97 0 63 0;
#X connect 98 0 66 0;
#X connect 99 0 68 0;
#X connect 100 0 72 0;
#X connect 101 0 75 0;
#X connect 102 0 77 0;
#X connect 103 0 81 0;
#X connect 104 0 84 0;
#X connect 105 0 86 0;
#X connect 106 0 90 0;
