#N canvas 586 25 637 538 12;
#X obj 26 258 t b f, f 9;
#X obj 96 258 t b f, f 9;
#X obj 96 234 mspkey \$3;
#X obj 166 258 t b f, f 9;
#X obj 236 258 t b f, f 9;
#X obj 306 258 t b f, f 9;
#X obj 383 258 t b f, f 9;
#X obj 460 258 t b f, f 9;
#X obj 537 258 t b f, f 9;
#X text 77 31 /// SET ODD CREATION ARGS TO KEYCODES \, AND EVEN ONES
TO \; /// SYMBOLS. ONLY \$1 THROUGH \$16 SUPPORTED. \; /// WHEN \$1
IS PRESSED \, \$2 SYMBOL WILL BE EMITTED IN A \; /// LIST LIKE "hello
1" \, ASSUMING \$1 WAS SET TO "hello". \; /// WHEN RELEASED \, "hello
0" WILL BE EMITTED. \;;
#X obj 26 234 mspkey \$1;
#X obj 166 234 mspkey \$5;
#X obj 236 234 mspkey \$7;
#X obj 306 234 mspkey \$9;
#X obj 383 234 mspkey \$11;
#X obj 460 234 mspkey \$13;
#X obj 537 234 mspkey \$15;
#X obj 96 306 pack s f, f 9;
#X obj 167 306 pack s f, f 9;
#X obj 236 306 pack s f, f 9;
#X obj 306 306 pack s f, f 9;
#X obj 384 306 pack s f, f 9;
#X obj 460 306 pack s f, f 9;
#X obj 537 306 pack s f, f 9;
#X obj 96 282 symbol \$4;
#X obj 166 282 symbol \$6;
#X obj 236 282 symbol \$8;
#X obj 306 282 symbol \$10;
#X obj 383 282 symbol \$12;
#X obj 460 282 symbol \$14;
#X obj 537 282 symbol \$16;
#X obj 26 306 pack s f, f 9;
#X obj 26 282 symbol \$2;
#X obj 275 477 route list;
#X obj 275 501 outlet;
#X connect 0 0 32 0;
#X connect 0 1 31 1;
#X connect 1 0 24 0;
#X connect 1 1 17 1;
#X connect 2 0 1 0;
#X connect 3 0 25 0;
#X connect 3 1 18 1;
#X connect 4 0 26 0;
#X connect 4 1 19 1;
#X connect 5 0 27 0;
#X connect 5 1 20 1;
#X connect 6 0 28 0;
#X connect 6 1 21 1;
#X connect 7 0 29 0;
#X connect 7 1 22 1;
#X connect 8 0 30 0;
#X connect 8 1 23 1;
#X connect 10 0 0 0;
#X connect 11 0 3 0;
#X connect 12 0 4 0;
#X connect 13 0 5 0;
#X connect 14 0 6 0;
#X connect 15 0 7 0;
#X connect 16 0 8 0;
#X connect 17 0 33 0;
#X connect 18 0 33 0;
#X connect 19 0 33 0;
#X connect 20 0 33 0;
#X connect 21 0 33 0;
#X connect 22 0 33 0;
#X connect 23 0 33 0;
#X connect 24 0 17 0;
#X connect 25 0 18 0;
#X connect 26 0 19 0;
#X connect 27 0 20 0;
#X connect 28 0 21 0;
#X connect 29 0 22 0;
#X connect 30 0 23 0;
#X connect 31 0 33 0;
#X connect 32 0 31 0;
#X connect 33 0 34 0;
