#N canvas 0 38 1159 522 12;
#N canvas 104 63 800 616 grain 0;
#X obj 45 93 inlet;
#X floatatom 45 117 10 0 0 0 - - - 0;
#X obj 45 314 pack f f f, f 31;
#X obj 127 279 +;
#X floatatom 259 117 5 0 0 0 - - - 0;
#X obj 45 362 line~;
#X obj 45 467 tabread4~ clip-\$1;
#X msg 45 338 \$1 \, \$2 \$3;
#X text 14 69 start point in samples;
#X text 258 73 duration (ms);
#X obj 45 140 t f f b, f 24;
#X obj 45 491 *~, f 6;
#X text 139 172 grain playback rate %;
#X obj 145 255 *, f 47;
#X obj 438 190 t b f;
#X obj 145 231 f 1;
#X obj 259 93 r \$0-grain-dur;
#X obj 145 195 r \$0-grain-rate;
#N canvas 558 164 233 357 env 0;
#X floatatom 53 59 5 0 0 0 - - - 0;
#X obj 53 121 / 10;
#X obj 53 145 clip 5 50;
#X obj 53 169 t f f f, f 14;
#X obj 148 193 * 2;
#X obj 148 217 swap, f 5;
#X obj 148 241 -, f 5;
#X obj 32 279 ahdsr~ 0 0 0 1 0;
#X obj 53 35 r \$0-grain-dur;
#X obj 53 82 t f f, f 18;
#X obj 10 35 inlet;
#X obj 32 303 outlet~;
#X connect 0 0 9 0;
#X connect 1 0 2 0;
#X connect 2 0 3 0;
#X connect 3 0 7 1;
#X connect 3 1 7 5;
#X connect 3 2 4 0;
#X connect 4 0 5 0;
#X connect 5 0 6 0;
#X connect 5 1 6 1;
#X connect 6 0 7 3;
#X connect 7 0 11 0;
#X connect 8 0 0 0;
#X connect 9 0 1 0;
#X connect 9 1 5 1;
#X connect 10 0 7 0;
#X restore 210 362 pd env;
#X obj 259 140 t f f, f 26;
#N canvas 0 25 450 300 ms_to_samples 0;
#X obj 287 60 loadbang;
#X obj 287 84 samplerate~;
#X obj 287 108 / 1000;
#X obj 59 139 * 44.1, f 33;
#X obj 59 115 inlet;
#X obj 59 163 outlet;
#X connect 0 0 1 0;
#X connect 1 0 2 0;
#X connect 2 0 3 1;
#X connect 3 0 5 0;
#X connect 4 0 3 0;
#X restore 438 166 pd ms_to_samples;
#X text 266 313 pack into: start (samples) \, end (samples) \, duration
(ms);
#X text 153 279 add start offset + length in samples;
#X text 477 256 scale playback rate by # of samples to play;
#X text 21 15 /// \$1 IS SAMPLE NAME;
#X obj 45 515 throw~ \$0-out;
#X connect 0 0 1 0;
#X connect 1 0 10 0;
#X connect 2 0 7 0;
#X connect 3 0 2 1;
#X connect 4 0 19 0;
#X connect 5 0 6 0;
#X connect 6 0 11 0;
#X connect 7 0 5 0;
#X connect 10 0 2 0;
#X connect 10 1 3 0;
#X connect 10 2 18 0;
#X connect 11 0 25 0;
#X connect 13 0 3 1;
#X connect 14 0 15 0;
#X connect 14 1 13 1;
#X connect 15 0 13 0;
#X connect 16 0 4 0;
#X connect 17 0 15 0;
#X connect 18 0 11 1;
#X connect 19 0 2 2;
#X connect 19 1 20 0;
#X connect 20 0 14 0;
#X restore 26 293 pd grain;
#X obj 26 134 inlet;
#X text 15 111 % through clip to play;
#X obj 221 135 inlet;
#X text 196 111 grain dur (ms);
#X obj 26 158 t b f, f 13;
#X obj 26 234 pack f f, f 13;
#X obj 77 454 outlet~;
#X obj 346 136 inlet;
#X text 322 111 grain playback rate %;
#X obj 26 263 route 0 1 2 3 4 5 6 7 8 9 10 11 12 13 14 15 16 17 18
19 20 21 22 23 24 25 26 27 28 29 30 31, f 154;
#N canvas 32 25 808 616 grain 0;
#X obj 45 93 inlet;
#X floatatom 45 117 10 0 0 0 - - - 0;
#X obj 45 314 pack f f f, f 31;
#X obj 127 279 +;
#X floatatom 259 117 5 0 0 0 - - - 0;
#X obj 45 362 line~;
#X obj 45 467 tabread4~ clip-\$1;
#X msg 45 338 \$1 \, \$2 \$3;
#X text 14 69 start point in samples;
#X text 258 73 duration (ms);
#X obj 45 140 t f f b, f 24;
#X obj 45 491 *~, f 6;
#X text 139 172 grain playback rate %;
#X obj 145 255 *, f 47;
#X obj 438 190 t b f;
#X obj 145 231 f 1;
#X obj 259 93 r \$0-grain-dur;
#X obj 145 195 r \$0-grain-rate;
#N canvas 558 164 233 357 env 0;
#X floatatom 53 59 5 0 0 0 - - - 0;
#X obj 53 121 / 10;
#X obj 53 145 clip 5 50;
#X obj 53 169 t f f f, f 14;
#X obj 148 193 * 2;
#X obj 148 217 swap, f 5;
#X obj 148 241 -, f 5;
#X obj 32 279 ahdsr~ 0 0 0 1 0;
#X obj 53 35 r \$0-grain-dur;
#X obj 53 82 t f f, f 18;
#X obj 10 35 inlet;
#X obj 32 303 outlet~;
#X connect 0 0 9 0;
#X connect 1 0 2 0;
#X connect 2 0 3 0;
#X connect 3 0 7 1;
#X connect 3 1 7 5;
#X connect 3 2 4 0;
#X connect 4 0 5 0;
#X connect 5 0 6 0;
#X connect 5 1 6 1;
#X connect 6 0 7 3;
#X connect 7 0 11 0;
#X connect 8 0 0 0;
#X connect 9 0 1 0;
#X connect 9 1 5 1;
#X connect 10 0 7 0;
#X restore 210 362 pd env;
#X obj 259 140 t f f, f 26;
#N canvas 0 25 450 300 ms_to_samples 0;
#X obj 287 60 loadbang;
#X obj 287 84 samplerate~;
#X obj 287 108 / 1000;
#X obj 59 139 * 44.1, f 33;
#X obj 59 115 inlet;
#X obj 59 163 outlet;
#X connect 0 0 1 0;
#X connect 1 0 2 0;
#X connect 2 0 3 1;
#X connect 3 0 5 0;
#X connect 4 0 3 0;
#X restore 438 166 pd ms_to_samples;
#X text 266 313 pack into: start (samples) \, end (samples) \, duration
(ms);
#X text 153 279 add start offset + length in samples;
#X text 477 256 scale playback rate by # of samples to play;
#X text 21 15 /// \$1 IS SAMPLE NAME;
#X obj 45 515 throw~ \$0-out;
#X connect 0 0 1 0;
#X connect 1 0 10 0;
#X connect 2 0 7 0;
#X connect 3 0 2 1;
#X connect 4 0 19 0;
#X connect 5 0 6 0;
#X connect 6 0 11 0;
#X connect 7 0 5 0;
#X connect 10 0 2 0;
#X connect 10 1 3 0;
#X connect 10 2 18 0;
#X connect 11 0 25 0;
#X connect 13 0 3 1;
#X connect 14 0 15 0;
#X connect 14 1 13 1;
#X connect 15 0 13 0;
#X connect 16 0 4 0;
#X connect 17 0 15 0;
#X connect 18 0 11 1;
#X connect 19 0 2 2;
#X connect 19 1 20 0;
#X connect 20 0 14 0;
#X restore 59 323 pd grain;
#N canvas 32 25 830 616 grain 0;
#X obj 45 93 inlet;
#X floatatom 45 117 10 0 0 0 - - - 0;
#X obj 45 314 pack f f f, f 31;
#X obj 127 279 +;
#X floatatom 259 117 5 0 0 0 - - - 0;
#X obj 45 362 line~;
#X obj 45 467 tabread4~ clip-\$1;
#X msg 45 338 \$1 \, \$2 \$3;
#X text 14 69 start point in samples;
#X text 258 73 duration (ms);
#X obj 45 140 t f f b, f 24;
#X obj 45 491 *~, f 6;
#X text 139 172 grain playback rate %;
#X obj 145 255 *, f 47;
#X obj 438 190 t b f;
#X obj 145 231 f 1;
#X obj 259 93 r \$0-grain-dur;
#X obj 145 195 r \$0-grain-rate;
#N canvas 558 164 233 357 env 0;
#X floatatom 53 59 5 0 0 0 - - - 0;
#X obj 53 121 / 10;
#X obj 53 145 clip 5 50;
#X obj 53 169 t f f f, f 14;
#X obj 148 193 * 2;
#X obj 148 217 swap, f 5;
#X obj 148 241 -, f 5;
#X obj 32 279 ahdsr~ 0 0 0 1 0;
#X obj 53 35 r \$0-grain-dur;
#X obj 53 82 t f f, f 18;
#X obj 10 35 inlet;
#X obj 32 303 outlet~;
#X connect 0 0 9 0;
#X connect 1 0 2 0;
#X connect 2 0 3 0;
#X connect 3 0 7 1;
#X connect 3 1 7 5;
#X connect 3 2 4 0;
#X connect 4 0 5 0;
#X connect 5 0 6 0;
#X connect 5 1 6 1;
#X connect 6 0 7 3;
#X connect 7 0 11 0;
#X connect 8 0 0 0;
#X connect 9 0 1 0;
#X connect 9 1 5 1;
#X connect 10 0 7 0;
#X restore 210 362 pd env;
#X obj 259 140 t f f, f 26;
#N canvas 0 25 450 300 ms_to_samples 0;
#X obj 287 60 loadbang;
#X obj 287 84 samplerate~;
#X obj 287 108 / 1000;
#X obj 59 139 * 44.1, f 33;
#X obj 59 115 inlet;
#X obj 59 163 outlet;
#X connect 0 0 1 0;
#X connect 1 0 2 0;
#X connect 2 0 3 1;
#X connect 3 0 5 0;
#X connect 4 0 3 0;
#X restore 438 166 pd ms_to_samples;
#X text 266 313 pack into: start (samples) \, end (samples) \, duration
(ms);
#X text 153 279 add start offset + length in samples;
#X text 477 256 scale playback rate by # of samples to play;
#X text 21 15 /// \$1 IS SAMPLE NAME;
#X obj 45 515 throw~ \$0-out;
#X connect 0 0 1 0;
#X connect 1 0 10 0;
#X connect 2 0 7 0;
#X connect 3 0 2 1;
#X connect 4 0 19 0;
#X connect 5 0 6 0;
#X connect 6 0 11 0;
#X connect 7 0 5 0;
#X connect 10 0 2 0;
#X connect 10 1 3 0;
#X connect 10 2 18 0;
#X connect 11 0 25 0;
#X connect 13 0 3 1;
#X connect 14 0 15 0;
#X connect 14 1 13 1;
#X connect 15 0 13 0;
#X connect 16 0 4 0;
#X connect 17 0 15 0;
#X connect 18 0 11 1;
#X connect 19 0 2 2;
#X connect 19 1 20 0;
#X connect 20 0 14 0;
#X restore 93 353 pd grain;
#N canvas 32 25 818 616 grain 0;
#X obj 45 93 inlet;
#X floatatom 45 117 10 0 0 0 - - - 0;
#X obj 45 314 pack f f f, f 31;
#X obj 127 279 +;
#X floatatom 259 117 5 0 0 0 - - - 0;
#X obj 45 362 line~;
#X obj 45 467 tabread4~ clip-\$1;
#X msg 45 338 \$1 \, \$2 \$3;
#X text 14 69 start point in samples;
#X text 258 73 duration (ms);
#X obj 45 140 t f f b, f 24;
#X obj 45 491 *~, f 6;
#X text 139 172 grain playback rate %;
#X obj 145 255 *, f 47;
#X obj 438 190 t b f;
#X obj 145 231 f 1;
#X obj 259 93 r \$0-grain-dur;
#X obj 145 195 r \$0-grain-rate;
#N canvas 558 164 233 357 env 0;
#X floatatom 53 59 5 0 0 0 - - - 0;
#X obj 53 121 / 10;
#X obj 53 145 clip 5 50;
#X obj 53 169 t f f f, f 14;
#X obj 148 193 * 2;
#X obj 148 217 swap, f 5;
#X obj 148 241 -, f 5;
#X obj 32 279 ahdsr~ 0 0 0 1 0;
#X obj 53 35 r \$0-grain-dur;
#X obj 53 82 t f f, f 18;
#X obj 10 35 inlet;
#X obj 32 303 outlet~;
#X connect 0 0 9 0;
#X connect 1 0 2 0;
#X connect 2 0 3 0;
#X connect 3 0 7 1;
#X connect 3 1 7 5;
#X connect 3 2 4 0;
#X connect 4 0 5 0;
#X connect 5 0 6 0;
#X connect 5 1 6 1;
#X connect 6 0 7 3;
#X connect 7 0 11 0;
#X connect 8 0 0 0;
#X connect 9 0 1 0;
#X connect 9 1 5 1;
#X connect 10 0 7 0;
#X restore 210 362 pd env;
#X obj 259 140 t f f, f 26;
#N canvas 0 25 450 300 ms_to_samples 0;
#X obj 287 60 loadbang;
#X obj 287 84 samplerate~;
#X obj 287 108 / 1000;
#X obj 59 139 * 44.1, f 33;
#X obj 59 115 inlet;
#X obj 59 163 outlet;
#X connect 0 0 1 0;
#X connect 1 0 2 0;
#X connect 2 0 3 1;
#X connect 3 0 5 0;
#X connect 4 0 3 0;
#X restore 438 166 pd ms_to_samples;
#X text 266 313 pack into: start (samples) \, end (samples) \, duration
(ms);
#X text 153 279 add start offset + length in samples;
#X text 477 256 scale playback rate by # of samples to play;
#X text 21 15 /// \$1 IS SAMPLE NAME;
#X obj 45 515 throw~ \$0-out;
#X connect 0 0 1 0;
#X connect 1 0 10 0;
#X connect 2 0 7 0;
#X connect 3 0 2 1;
#X connect 4 0 19 0;
#X connect 5 0 6 0;
#X connect 6 0 11 0;
#X connect 7 0 5 0;
#X connect 10 0 2 0;
#X connect 10 1 3 0;
#X connect 10 2 18 0;
#X connect 11 0 25 0;
#X connect 13 0 3 1;
#X connect 14 0 15 0;
#X connect 14 1 13 1;
#X connect 15 0 13 0;
#X connect 16 0 4 0;
#X connect 17 0 15 0;
#X connect 18 0 11 1;
#X connect 19 0 2 2;
#X connect 19 1 20 0;
#X connect 20 0 14 0;
#X restore 126 383 pd grain;
#N canvas 32 25 817 616 grain 0;
#X obj 45 93 inlet;
#X floatatom 45 117 10 0 0 0 - - - 0;
#X obj 45 314 pack f f f, f 31;
#X obj 127 279 +;
#X floatatom 259 117 5 0 0 0 - - - 0;
#X obj 45 362 line~;
#X obj 45 467 tabread4~ clip-\$1;
#X msg 45 338 \$1 \, \$2 \$3;
#X text 14 69 start point in samples;
#X text 258 73 duration (ms);
#X obj 45 140 t f f b, f 24;
#X obj 45 491 *~, f 6;
#X text 139 172 grain playback rate %;
#X obj 145 255 *, f 47;
#X obj 438 190 t b f;
#X obj 145 231 f 1;
#X obj 259 93 r \$0-grain-dur;
#X obj 145 195 r \$0-grain-rate;
#N canvas 558 164 233 357 env 0;
#X floatatom 53 59 5 0 0 0 - - - 0;
#X obj 53 121 / 10;
#X obj 53 145 clip 5 50;
#X obj 53 169 t f f f, f 14;
#X obj 148 193 * 2;
#X obj 148 217 swap, f 5;
#X obj 148 241 -, f 5;
#X obj 32 279 ahdsr~ 0 0 0 1 0;
#X obj 53 35 r \$0-grain-dur;
#X obj 53 82 t f f, f 18;
#X obj 10 35 inlet;
#X obj 32 303 outlet~;
#X connect 0 0 9 0;
#X connect 1 0 2 0;
#X connect 2 0 3 0;
#X connect 3 0 7 1;
#X connect 3 1 7 5;
#X connect 3 2 4 0;
#X connect 4 0 5 0;
#X connect 5 0 6 0;
#X connect 5 1 6 1;
#X connect 6 0 7 3;
#X connect 7 0 11 0;
#X connect 8 0 0 0;
#X connect 9 0 1 0;
#X connect 9 1 5 1;
#X connect 10 0 7 0;
#X restore 210 362 pd env;
#X obj 259 140 t f f, f 26;
#N canvas 0 25 450 300 ms_to_samples 0;
#X obj 287 60 loadbang;
#X obj 287 84 samplerate~;
#X obj 287 108 / 1000;
#X obj 59 139 * 44.1, f 33;
#X obj 59 115 inlet;
#X obj 59 163 outlet;
#X connect 0 0 1 0;
#X connect 1 0 2 0;
#X connect 2 0 3 1;
#X connect 3 0 5 0;
#X connect 4 0 3 0;
#X restore 438 166 pd ms_to_samples;
#X text 266 313 pack into: start (samples) \, end (samples) \, duration
(ms);
#X text 153 279 add start offset + length in samples;
#X text 477 256 scale playback rate by # of samples to play;
#X text 21 15 /// \$1 IS SAMPLE NAME;
#X obj 45 515 throw~ \$0-out;
#X connect 0 0 1 0;
#X connect 1 0 10 0;
#X connect 2 0 7 0;
#X connect 3 0 2 1;
#X connect 4 0 19 0;
#X connect 5 0 6 0;
#X connect 6 0 11 0;
#X connect 7 0 5 0;
#X connect 10 0 2 0;
#X connect 10 1 3 0;
#X connect 10 2 18 0;
#X connect 11 0 25 0;
#X connect 13 0 3 1;
#X connect 14 0 15 0;
#X connect 14 1 13 1;
#X connect 15 0 13 0;
#X connect 16 0 4 0;
#X connect 17 0 15 0;
#X connect 18 0 11 1;
#X connect 19 0 2 2;
#X connect 19 1 20 0;
#X connect 20 0 14 0;
#X restore 160 293 pd grain;
#N canvas 32 25 800 616 grain 0;
#X obj 45 93 inlet;
#X floatatom 45 117 10 0 0 0 - - - 0;
#X obj 45 314 pack f f f, f 31;
#X obj 127 279 +;
#X floatatom 259 117 5 0 0 0 - - - 0;
#X obj 45 362 line~;
#X obj 45 467 tabread4~ clip-\$1;
#X msg 45 338 \$1 \, \$2 \$3;
#X text 14 69 start point in samples;
#X text 258 73 duration (ms);
#X obj 45 140 t f f b, f 24;
#X obj 45 491 *~, f 6;
#X text 139 172 grain playback rate %;
#X obj 145 255 *, f 47;
#X obj 438 190 t b f;
#X obj 145 231 f 1;
#X obj 259 93 r \$0-grain-dur;
#X obj 145 195 r \$0-grain-rate;
#N canvas 558 164 233 357 env 0;
#X floatatom 53 59 5 0 0 0 - - - 0;
#X obj 53 121 / 10;
#X obj 53 145 clip 5 50;
#X obj 53 169 t f f f, f 14;
#X obj 148 193 * 2;
#X obj 148 217 swap, f 5;
#X obj 148 241 -, f 5;
#X obj 32 279 ahdsr~ 0 0 0 1 0;
#X obj 53 35 r \$0-grain-dur;
#X obj 53 82 t f f, f 18;
#X obj 10 35 inlet;
#X obj 32 303 outlet~;
#X connect 0 0 9 0;
#X connect 1 0 2 0;
#X connect 2 0 3 0;
#X connect 3 0 7 1;
#X connect 3 1 7 5;
#X connect 3 2 4 0;
#X connect 4 0 5 0;
#X connect 5 0 6 0;
#X connect 5 1 6 1;
#X connect 6 0 7 3;
#X connect 7 0 11 0;
#X connect 8 0 0 0;
#X connect 9 0 1 0;
#X connect 9 1 5 1;
#X connect 10 0 7 0;
#X restore 210 362 pd env;
#X obj 259 140 t f f, f 26;
#N canvas 0 25 450 300 ms_to_samples 0;
#X obj 287 60 loadbang;
#X obj 287 84 samplerate~;
#X obj 287 108 / 1000;
#X obj 59 139 * 44.1, f 33;
#X obj 59 115 inlet;
#X obj 59 163 outlet;
#X connect 0 0 1 0;
#X connect 1 0 2 0;
#X connect 2 0 3 1;
#X connect 3 0 5 0;
#X connect 4 0 3 0;
#X restore 438 166 pd ms_to_samples;
#X text 266 313 pack into: start (samples) \, end (samples) \, duration
(ms);
#X text 153 279 add start offset + length in samples;
#X text 477 256 scale playback rate by # of samples to play;
#X text 21 15 /// \$1 IS SAMPLE NAME;
#X obj 45 515 throw~ \$0-out;
#X connect 0 0 1 0;
#X connect 1 0 10 0;
#X connect 2 0 7 0;
#X connect 3 0 2 1;
#X connect 4 0 19 0;
#X connect 5 0 6 0;
#X connect 6 0 11 0;
#X connect 7 0 5 0;
#X connect 10 0 2 0;
#X connect 10 1 3 0;
#X connect 10 2 18 0;
#X connect 11 0 25 0;
#X connect 13 0 3 1;
#X connect 14 0 15 0;
#X connect 14 1 13 1;
#X connect 15 0 13 0;
#X connect 16 0 4 0;
#X connect 17 0 15 0;
#X connect 18 0 11 1;
#X connect 19 0 2 2;
#X connect 19 1 20 0;
#X connect 20 0 14 0;
#X restore 193 323 pd grain;
#N canvas 32 25 831 616 grain 0;
#X obj 45 93 inlet;
#X floatatom 45 117 10 0 0 0 - - - 0;
#X obj 45 314 pack f f f, f 31;
#X obj 127 279 +;
#X floatatom 259 117 5 0 0 0 - - - 0;
#X obj 45 362 line~;
#X obj 45 467 tabread4~ clip-\$1;
#X msg 45 338 \$1 \, \$2 \$3;
#X text 14 69 start point in samples;
#X text 258 73 duration (ms);
#X obj 45 140 t f f b, f 24;
#X obj 45 491 *~, f 6;
#X text 139 172 grain playback rate %;
#X obj 145 255 *, f 47;
#X obj 438 190 t b f;
#X obj 145 231 f 1;
#X obj 259 93 r \$0-grain-dur;
#X obj 145 195 r \$0-grain-rate;
#N canvas 558 164 233 357 env 0;
#X floatatom 53 59 5 0 0 0 - - - 0;
#X obj 53 121 / 10;
#X obj 53 145 clip 5 50;
#X obj 53 169 t f f f, f 14;
#X obj 148 193 * 2;
#X obj 148 217 swap, f 5;
#X obj 148 241 -, f 5;
#X obj 32 279 ahdsr~ 0 0 0 1 0;
#X obj 53 35 r \$0-grain-dur;
#X obj 53 82 t f f, f 18;
#X obj 10 35 inlet;
#X obj 32 303 outlet~;
#X connect 0 0 9 0;
#X connect 1 0 2 0;
#X connect 2 0 3 0;
#X connect 3 0 7 1;
#X connect 3 1 7 5;
#X connect 3 2 4 0;
#X connect 4 0 5 0;
#X connect 5 0 6 0;
#X connect 5 1 6 1;
#X connect 6 0 7 3;
#X connect 7 0 11 0;
#X connect 8 0 0 0;
#X connect 9 0 1 0;
#X connect 9 1 5 1;
#X connect 10 0 7 0;
#X restore 210 362 pd env;
#X obj 259 140 t f f, f 26;
#N canvas 0 25 450 300 ms_to_samples 0;
#X obj 287 60 loadbang;
#X obj 287 84 samplerate~;
#X obj 287 108 / 1000;
#X obj 59 139 * 44.1, f 33;
#X obj 59 115 inlet;
#X obj 59 163 outlet;
#X connect 0 0 1 0;
#X connect 1 0 2 0;
#X connect 2 0 3 1;
#X connect 3 0 5 0;
#X connect 4 0 3 0;
#X restore 438 166 pd ms_to_samples;
#X text 266 313 pack into: start (samples) \, end (samples) \, duration
(ms);
#X text 153 279 add start offset + length in samples;
#X text 477 256 scale playback rate by # of samples to play;
#X text 21 15 /// \$1 IS SAMPLE NAME;
#X obj 45 515 throw~ \$0-out;
#X connect 0 0 1 0;
#X connect 1 0 10 0;
#X connect 2 0 7 0;
#X connect 3 0 2 1;
#X connect 4 0 19 0;
#X connect 5 0 6 0;
#X connect 6 0 11 0;
#X connect 7 0 5 0;
#X connect 10 0 2 0;
#X connect 10 1 3 0;
#X connect 10 2 18 0;
#X connect 11 0 25 0;
#X connect 13 0 3 1;
#X connect 14 0 15 0;
#X connect 14 1 13 1;
#X connect 15 0 13 0;
#X connect 16 0 4 0;
#X connect 17 0 15 0;
#X connect 18 0 11 1;
#X connect 19 0 2 2;
#X connect 19 1 20 0;
#X connect 20 0 14 0;
#X restore 227 353 pd grain;
#N canvas 32 25 817 616 grain 0;
#X obj 45 93 inlet;
#X floatatom 45 117 10 0 0 0 - - - 0;
#X obj 45 314 pack f f f, f 31;
#X obj 127 279 +;
#X floatatom 259 117 5 0 0 0 - - - 0;
#X obj 45 362 line~;
#X obj 45 467 tabread4~ clip-\$1;
#X msg 45 338 \$1 \, \$2 \$3;
#X text 14 69 start point in samples;
#X text 258 73 duration (ms);
#X obj 45 140 t f f b, f 24;
#X obj 45 491 *~, f 6;
#X text 139 172 grain playback rate %;
#X obj 145 255 *, f 47;
#X obj 438 190 t b f;
#X obj 145 231 f 1;
#X obj 259 93 r \$0-grain-dur;
#X obj 145 195 r \$0-grain-rate;
#N canvas 558 164 233 357 env 0;
#X floatatom 53 59 5 0 0 0 - - - 0;
#X obj 53 121 / 10;
#X obj 53 145 clip 5 50;
#X obj 53 169 t f f f, f 14;
#X obj 148 193 * 2;
#X obj 148 217 swap, f 5;
#X obj 148 241 -, f 5;
#X obj 32 279 ahdsr~ 0 0 0 1 0;
#X obj 53 35 r \$0-grain-dur;
#X obj 53 82 t f f, f 18;
#X obj 10 35 inlet;
#X obj 32 303 outlet~;
#X connect 0 0 9 0;
#X connect 1 0 2 0;
#X connect 2 0 3 0;
#X connect 3 0 7 1;
#X connect 3 1 7 5;
#X connect 3 2 4 0;
#X connect 4 0 5 0;
#X connect 5 0 6 0;
#X connect 5 1 6 1;
#X connect 6 0 7 3;
#X connect 7 0 11 0;
#X connect 8 0 0 0;
#X connect 9 0 1 0;
#X connect 9 1 5 1;
#X connect 10 0 7 0;
#X restore 210 362 pd env;
#X obj 259 140 t f f, f 26;
#N canvas 0 25 450 300 ms_to_samples 0;
#X obj 287 60 loadbang;
#X obj 287 84 samplerate~;
#X obj 287 108 / 1000;
#X obj 59 139 * 44.1, f 33;
#X obj 59 115 inlet;
#X obj 59 163 outlet;
#X connect 0 0 1 0;
#X connect 1 0 2 0;
#X connect 2 0 3 1;
#X connect 3 0 5 0;
#X connect 4 0 3 0;
#X restore 438 166 pd ms_to_samples;
#X text 266 313 pack into: start (samples) \, end (samples) \, duration
(ms);
#X text 153 279 add start offset + length in samples;
#X text 477 256 scale playback rate by # of samples to play;
#X text 21 15 /// \$1 IS SAMPLE NAME;
#X obj 45 515 throw~ \$0-out;
#X connect 0 0 1 0;
#X connect 1 0 10 0;
#X connect 2 0 7 0;
#X connect 3 0 2 1;
#X connect 4 0 19 0;
#X connect 5 0 6 0;
#X connect 6 0 11 0;
#X connect 7 0 5 0;
#X connect 10 0 2 0;
#X connect 10 1 3 0;
#X connect 10 2 18 0;
#X connect 11 0 25 0;
#X connect 13 0 3 1;
#X connect 14 0 15 0;
#X connect 14 1 13 1;
#X connect 15 0 13 0;
#X connect 16 0 4 0;
#X connect 17 0 15 0;
#X connect 18 0 11 1;
#X connect 19 0 2 2;
#X connect 19 1 20 0;
#X connect 20 0 14 0;
#X restore 261 383 pd grain;
#N canvas 32 25 839 616 grain 0;
#X obj 45 93 inlet;
#X floatatom 45 117 10 0 0 0 - - - 0;
#X obj 45 314 pack f f f, f 31;
#X obj 127 279 +;
#X floatatom 259 117 5 0 0 0 - - - 0;
#X obj 45 362 line~;
#X obj 45 467 tabread4~ clip-\$1;
#X msg 45 338 \$1 \, \$2 \$3;
#X text 14 69 start point in samples;
#X text 258 73 duration (ms);
#X obj 45 140 t f f b, f 24;
#X obj 45 491 *~, f 6;
#X text 139 172 grain playback rate %;
#X obj 145 255 *, f 47;
#X obj 438 190 t b f;
#X obj 145 231 f 1;
#X obj 259 93 r \$0-grain-dur;
#X obj 145 195 r \$0-grain-rate;
#N canvas 558 164 233 357 env 0;
#X floatatom 53 59 5 0 0 0 - - - 0;
#X obj 53 121 / 10;
#X obj 53 145 clip 5 50;
#X obj 53 169 t f f f, f 14;
#X obj 148 193 * 2;
#X obj 148 217 swap, f 5;
#X obj 148 241 -, f 5;
#X obj 32 279 ahdsr~ 0 0 0 1 0;
#X obj 53 35 r \$0-grain-dur;
#X obj 53 82 t f f, f 18;
#X obj 10 35 inlet;
#X obj 32 303 outlet~;
#X connect 0 0 9 0;
#X connect 1 0 2 0;
#X connect 2 0 3 0;
#X connect 3 0 7 1;
#X connect 3 1 7 5;
#X connect 3 2 4 0;
#X connect 4 0 5 0;
#X connect 5 0 6 0;
#X connect 5 1 6 1;
#X connect 6 0 7 3;
#X connect 7 0 11 0;
#X connect 8 0 0 0;
#X connect 9 0 1 0;
#X connect 9 1 5 1;
#X connect 10 0 7 0;
#X restore 210 362 pd env;
#X obj 259 140 t f f, f 26;
#N canvas 0 25 450 300 ms_to_samples 0;
#X obj 287 60 loadbang;
#X obj 287 84 samplerate~;
#X obj 287 108 / 1000;
#X obj 59 139 * 44.1, f 33;
#X obj 59 115 inlet;
#X obj 59 163 outlet;
#X connect 0 0 1 0;
#X connect 1 0 2 0;
#X connect 2 0 3 1;
#X connect 3 0 5 0;
#X connect 4 0 3 0;
#X restore 438 166 pd ms_to_samples;
#X text 266 313 pack into: start (samples) \, end (samples) \, duration
(ms);
#X text 153 279 add start offset + length in samples;
#X text 477 256 scale playback rate by # of samples to play;
#X text 21 15 /// \$1 IS SAMPLE NAME;
#X obj 45 515 throw~ \$0-out;
#X connect 0 0 1 0;
#X connect 1 0 10 0;
#X connect 2 0 7 0;
#X connect 3 0 2 1;
#X connect 4 0 19 0;
#X connect 5 0 6 0;
#X connect 6 0 11 0;
#X connect 7 0 5 0;
#X connect 10 0 2 0;
#X connect 10 1 3 0;
#X connect 10 2 18 0;
#X connect 11 0 25 0;
#X connect 13 0 3 1;
#X connect 14 0 15 0;
#X connect 14 1 13 1;
#X connect 15 0 13 0;
#X connect 16 0 4 0;
#X connect 17 0 15 0;
#X connect 18 0 11 1;
#X connect 19 0 2 2;
#X connect 19 1 20 0;
#X connect 20 0 14 0;
#X restore 294 293 pd grain;
#N canvas 32 38 830 616 grain 0;
#X obj 45 93 inlet;
#X floatatom 45 117 10 0 0 0 - - - 0;
#X obj 45 314 pack f f f, f 31;
#X obj 127 279 +;
#X floatatom 259 117 5 0 0 0 - - - 0;
#X obj 45 362 line~;
#X obj 45 467 tabread4~ clip-\$1;
#X msg 45 338 \$1 \, \$2 \$3;
#X text 14 69 start point in samples;
#X text 258 73 duration (ms);
#X obj 45 140 t f f b, f 24;
#X obj 45 491 *~, f 6;
#X text 139 172 grain playback rate %;
#X obj 145 255 *, f 47;
#X obj 438 190 t b f;
#X obj 145 231 f 1;
#X obj 259 93 r \$0-grain-dur;
#X obj 145 195 r \$0-grain-rate;
#N canvas 558 164 233 357 env 0;
#X floatatom 53 59 5 0 0 0 - - - 0;
#X obj 53 121 / 10;
#X obj 53 145 clip 5 50;
#X obj 53 169 t f f f, f 14;
#X obj 148 193 * 2;
#X obj 148 217 swap, f 5;
#X obj 148 241 -, f 5;
#X obj 32 279 ahdsr~ 0 0 0 1 0;
#X obj 53 35 r \$0-grain-dur;
#X obj 53 82 t f f, f 18;
#X obj 10 35 inlet;
#X obj 32 303 outlet~;
#X connect 0 0 9 0;
#X connect 1 0 2 0;
#X connect 2 0 3 0;
#X connect 3 0 7 1;
#X connect 3 1 7 5;
#X connect 3 2 4 0;
#X connect 4 0 5 0;
#X connect 5 0 6 0;
#X connect 5 1 6 1;
#X connect 6 0 7 3;
#X connect 7 0 11 0;
#X connect 8 0 0 0;
#X connect 9 0 1 0;
#X connect 9 1 5 1;
#X connect 10 0 7 0;
#X restore 210 362 pd env;
#X obj 259 140 t f f, f 26;
#N canvas 0 25 450 300 ms_to_samples 0;
#X obj 287 60 loadbang;
#X obj 287 84 samplerate~;
#X obj 287 108 / 1000;
#X obj 59 139 * 44.1, f 33;
#X obj 59 115 inlet;
#X obj 59 163 outlet;
#X connect 0 0 1 0;
#X connect 1 0 2 0;
#X connect 2 0 3 1;
#X connect 3 0 5 0;
#X connect 4 0 3 0;
#X restore 438 166 pd ms_to_samples;
#X text 266 313 pack into: start (samples) \, end (samples) \, duration
(ms);
#X text 153 279 add start offset + length in samples;
#X text 477 256 scale playback rate by # of samples to play;
#X text 21 15 /// \$1 IS SAMPLE NAME;
#X obj 45 515 throw~ \$0-out;
#X connect 0 0 1 0;
#X connect 1 0 10 0;
#X connect 2 0 7 0;
#X connect 3 0 2 1;
#X connect 4 0 19 0;
#X connect 5 0 6 0;
#X connect 6 0 11 0;
#X connect 7 0 5 0;
#X connect 10 0 2 0;
#X connect 10 1 3 0;
#X connect 10 2 18 0;
#X connect 11 0 25 0;
#X connect 13 0 3 1;
#X connect 14 0 15 0;
#X connect 14 1 13 1;
#X connect 15 0 13 0;
#X connect 16 0 4 0;
#X connect 17 0 15 0;
#X connect 18 0 11 1;
#X connect 19 0 2 2;
#X connect 19 1 20 0;
#X connect 20 0 14 0;
#X restore 328 323 pd grain;
#N canvas 32 25 809 616 grain 0;
#X obj 45 93 inlet;
#X floatatom 45 117 10 0 0 0 - - - 0;
#X obj 45 314 pack f f f, f 31;
#X obj 127 279 +;
#X floatatom 259 117 5 0 0 0 - - - 0;
#X obj 45 362 line~;
#X obj 45 467 tabread4~ clip-\$1;
#X msg 45 338 \$1 \, \$2 \$3;
#X text 14 69 start point in samples;
#X text 258 73 duration (ms);
#X obj 45 140 t f f b, f 24;
#X obj 45 491 *~, f 6;
#X text 139 172 grain playback rate %;
#X obj 145 255 *, f 47;
#X obj 438 190 t b f;
#X obj 145 231 f 1;
#X obj 259 93 r \$0-grain-dur;
#X obj 145 195 r \$0-grain-rate;
#N canvas 558 164 233 357 env 0;
#X floatatom 53 59 5 0 0 0 - - - 0;
#X obj 53 121 / 10;
#X obj 53 145 clip 5 50;
#X obj 53 169 t f f f, f 14;
#X obj 148 193 * 2;
#X obj 148 217 swap, f 5;
#X obj 148 241 -, f 5;
#X obj 32 279 ahdsr~ 0 0 0 1 0;
#X obj 53 35 r \$0-grain-dur;
#X obj 53 82 t f f, f 18;
#X obj 10 35 inlet;
#X obj 32 303 outlet~;
#X connect 0 0 9 0;
#X connect 1 0 2 0;
#X connect 2 0 3 0;
#X connect 3 0 7 1;
#X connect 3 1 7 5;
#X connect 3 2 4 0;
#X connect 4 0 5 0;
#X connect 5 0 6 0;
#X connect 5 1 6 1;
#X connect 6 0 7 3;
#X connect 7 0 11 0;
#X connect 8 0 0 0;
#X connect 9 0 1 0;
#X connect 9 1 5 1;
#X connect 10 0 7 0;
#X restore 210 362 pd env;
#X obj 259 140 t f f, f 26;
#N canvas 0 25 450 300 ms_to_samples 0;
#X obj 287 60 loadbang;
#X obj 287 84 samplerate~;
#X obj 287 108 / 1000;
#X obj 59 139 * 44.1, f 33;
#X obj 59 115 inlet;
#X obj 59 163 outlet;
#X connect 0 0 1 0;
#X connect 1 0 2 0;
#X connect 2 0 3 1;
#X connect 3 0 5 0;
#X connect 4 0 3 0;
#X restore 438 166 pd ms_to_samples;
#X text 266 313 pack into: start (samples) \, end (samples) \, duration
(ms);
#X text 153 279 add start offset + length in samples;
#X text 477 256 scale playback rate by # of samples to play;
#X text 21 15 /// \$1 IS SAMPLE NAME;
#X obj 45 515 throw~ \$0-out;
#X connect 0 0 1 0;
#X connect 1 0 10 0;
#X connect 2 0 7 0;
#X connect 3 0 2 1;
#X connect 4 0 19 0;
#X connect 5 0 6 0;
#X connect 6 0 11 0;
#X connect 7 0 5 0;
#X connect 10 0 2 0;
#X connect 10 1 3 0;
#X connect 10 2 18 0;
#X connect 11 0 25 0;
#X connect 13 0 3 1;
#X connect 14 0 15 0;
#X connect 14 1 13 1;
#X connect 15 0 13 0;
#X connect 16 0 4 0;
#X connect 17 0 15 0;
#X connect 18 0 11 1;
#X connect 19 0 2 2;
#X connect 19 1 20 0;
#X connect 20 0 14 0;
#X restore 361 353 pd grain;
#N canvas 32 25 818 616 grain 0;
#X obj 45 93 inlet;
#X floatatom 45 117 10 0 0 0 - - - 0;
#X obj 45 314 pack f f f, f 31;
#X obj 127 279 +;
#X floatatom 259 117 5 0 0 0 - - - 0;
#X obj 45 362 line~;
#X obj 45 467 tabread4~ clip-\$1;
#X msg 45 338 \$1 \, \$2 \$3;
#X text 14 69 start point in samples;
#X text 258 73 duration (ms);
#X obj 45 140 t f f b, f 24;
#X obj 45 491 *~, f 6;
#X text 139 172 grain playback rate %;
#X obj 145 255 *, f 47;
#X obj 438 190 t b f;
#X obj 145 231 f 1;
#X obj 259 93 r \$0-grain-dur;
#X obj 145 195 r \$0-grain-rate;
#N canvas 558 164 233 357 env 0;
#X floatatom 53 59 5 0 0 0 - - - 0;
#X obj 53 121 / 10;
#X obj 53 145 clip 5 50;
#X obj 53 169 t f f f, f 14;
#X obj 148 193 * 2;
#X obj 148 217 swap, f 5;
#X obj 148 241 -, f 5;
#X obj 32 279 ahdsr~ 0 0 0 1 0;
#X obj 53 35 r \$0-grain-dur;
#X obj 53 82 t f f, f 18;
#X obj 10 35 inlet;
#X obj 32 303 outlet~;
#X connect 0 0 9 0;
#X connect 1 0 2 0;
#X connect 2 0 3 0;
#X connect 3 0 7 1;
#X connect 3 1 7 5;
#X connect 3 2 4 0;
#X connect 4 0 5 0;
#X connect 5 0 6 0;
#X connect 5 1 6 1;
#X connect 6 0 7 3;
#X connect 7 0 11 0;
#X connect 8 0 0 0;
#X connect 9 0 1 0;
#X connect 9 1 5 1;
#X connect 10 0 7 0;
#X restore 210 362 pd env;
#X obj 259 140 t f f, f 26;
#N canvas 0 25 450 300 ms_to_samples 0;
#X obj 287 60 loadbang;
#X obj 287 84 samplerate~;
#X obj 287 108 / 1000;
#X obj 59 139 * 44.1, f 33;
#X obj 59 115 inlet;
#X obj 59 163 outlet;
#X connect 0 0 1 0;
#X connect 1 0 2 0;
#X connect 2 0 3 1;
#X connect 3 0 5 0;
#X connect 4 0 3 0;
#X restore 438 166 pd ms_to_samples;
#X text 266 313 pack into: start (samples) \, end (samples) \, duration
(ms);
#X text 153 279 add start offset + length in samples;
#X text 477 256 scale playback rate by # of samples to play;
#X text 21 15 /// \$1 IS SAMPLE NAME;
#X obj 45 515 throw~ \$0-out;
#X connect 0 0 1 0;
#X connect 1 0 10 0;
#X connect 2 0 7 0;
#X connect 3 0 2 1;
#X connect 4 0 19 0;
#X connect 5 0 6 0;
#X connect 6 0 11 0;
#X connect 7 0 5 0;
#X connect 10 0 2 0;
#X connect 10 1 3 0;
#X connect 10 2 18 0;
#X connect 11 0 25 0;
#X connect 13 0 3 1;
#X connect 14 0 15 0;
#X connect 14 1 13 1;
#X connect 15 0 13 0;
#X connect 16 0 4 0;
#X connect 17 0 15 0;
#X connect 18 0 11 1;
#X connect 19 0 2 2;
#X connect 19 1 20 0;
#X connect 20 0 14 0;
#X restore 395 383 pd grain;
#N canvas 32 25 814 616 grain 0;
#X obj 45 93 inlet;
#X floatatom 45 117 10 0 0 0 - - - 0;
#X obj 45 314 pack f f f, f 31;
#X obj 127 279 +;
#X floatatom 259 117 5 0 0 0 - - - 0;
#X obj 45 362 line~;
#X obj 45 467 tabread4~ clip-\$1;
#X msg 45 338 \$1 \, \$2 \$3;
#X text 14 69 start point in samples;
#X text 258 73 duration (ms);
#X obj 45 140 t f f b, f 24;
#X obj 45 491 *~, f 6;
#X text 139 172 grain playback rate %;
#X obj 145 255 *, f 47;
#X obj 438 190 t b f;
#X obj 145 231 f 1;
#X obj 259 93 r \$0-grain-dur;
#X obj 145 195 r \$0-grain-rate;
#N canvas 558 164 233 357 env 0;
#X floatatom 53 59 5 0 0 0 - - - 0;
#X obj 53 121 / 10;
#X obj 53 145 clip 5 50;
#X obj 53 169 t f f f, f 14;
#X obj 148 193 * 2;
#X obj 148 217 swap, f 5;
#X obj 148 241 -, f 5;
#X obj 32 279 ahdsr~ 0 0 0 1 0;
#X obj 53 35 r \$0-grain-dur;
#X obj 53 82 t f f, f 18;
#X obj 10 35 inlet;
#X obj 32 303 outlet~;
#X connect 0 0 9 0;
#X connect 1 0 2 0;
#X connect 2 0 3 0;
#X connect 3 0 7 1;
#X connect 3 1 7 5;
#X connect 3 2 4 0;
#X connect 4 0 5 0;
#X connect 5 0 6 0;
#X connect 5 1 6 1;
#X connect 6 0 7 3;
#X connect 7 0 11 0;
#X connect 8 0 0 0;
#X connect 9 0 1 0;
#X connect 9 1 5 1;
#X connect 10 0 7 0;
#X restore 210 362 pd env;
#X obj 259 140 t f f, f 26;
#N canvas 0 25 450 300 ms_to_samples 0;
#X obj 287 60 loadbang;
#X obj 287 84 samplerate~;
#X obj 287 108 / 1000;
#X obj 59 139 * 44.1, f 33;
#X obj 59 115 inlet;
#X obj 59 163 outlet;
#X connect 0 0 1 0;
#X connect 1 0 2 0;
#X connect 2 0 3 1;
#X connect 3 0 5 0;
#X connect 4 0 3 0;
#X restore 438 166 pd ms_to_samples;
#X text 266 313 pack into: start (samples) \, end (samples) \, duration
(ms);
#X text 153 279 add start offset + length in samples;
#X text 477 256 scale playback rate by # of samples to play;
#X text 21 15 /// \$1 IS SAMPLE NAME;
#X obj 45 515 throw~ \$0-out;
#X connect 0 0 1 0;
#X connect 1 0 10 0;
#X connect 2 0 7 0;
#X connect 3 0 2 1;
#X connect 4 0 19 0;
#X connect 5 0 6 0;
#X connect 6 0 11 0;
#X connect 7 0 5 0;
#X connect 10 0 2 0;
#X connect 10 1 3 0;
#X connect 10 2 18 0;
#X connect 11 0 25 0;
#X connect 13 0 3 1;
#X connect 14 0 15 0;
#X connect 14 1 13 1;
#X connect 15 0 13 0;
#X connect 16 0 4 0;
#X connect 17 0 15 0;
#X connect 18 0 11 1;
#X connect 19 0 2 2;
#X connect 19 1 20 0;
#X connect 20 0 14 0;
#X restore 429 293 pd grain;
#N canvas 32 25 812 616 grain 0;
#X obj 45 93 inlet;
#X floatatom 45 117 10 0 0 0 - - - 0;
#X obj 45 314 pack f f f, f 31;
#X obj 127 279 +;
#X floatatom 259 117 5 0 0 0 - - - 0;
#X obj 45 362 line~;
#X obj 45 467 tabread4~ clip-\$1;
#X msg 45 338 \$1 \, \$2 \$3;
#X text 14 69 start point in samples;
#X text 258 73 duration (ms);
#X obj 45 140 t f f b, f 24;
#X obj 45 491 *~, f 6;
#X text 139 172 grain playback rate %;
#X obj 145 255 *, f 47;
#X obj 438 190 t b f;
#X obj 145 231 f 1;
#X obj 259 93 r \$0-grain-dur;
#X obj 145 195 r \$0-grain-rate;
#N canvas 558 164 233 357 env 0;
#X floatatom 53 59 5 0 0 0 - - - 0;
#X obj 53 121 / 10;
#X obj 53 145 clip 5 50;
#X obj 53 169 t f f f, f 14;
#X obj 148 193 * 2;
#X obj 148 217 swap, f 5;
#X obj 148 241 -, f 5;
#X obj 32 279 ahdsr~ 0 0 0 1 0;
#X obj 53 35 r \$0-grain-dur;
#X obj 53 82 t f f, f 18;
#X obj 10 35 inlet;
#X obj 32 303 outlet~;
#X connect 0 0 9 0;
#X connect 1 0 2 0;
#X connect 2 0 3 0;
#X connect 3 0 7 1;
#X connect 3 1 7 5;
#X connect 3 2 4 0;
#X connect 4 0 5 0;
#X connect 5 0 6 0;
#X connect 5 1 6 1;
#X connect 6 0 7 3;
#X connect 7 0 11 0;
#X connect 8 0 0 0;
#X connect 9 0 1 0;
#X connect 9 1 5 1;
#X connect 10 0 7 0;
#X restore 210 362 pd env;
#X obj 259 140 t f f, f 26;
#N canvas 0 25 450 300 ms_to_samples 0;
#X obj 287 60 loadbang;
#X obj 287 84 samplerate~;
#X obj 287 108 / 1000;
#X obj 59 139 * 44.1, f 33;
#X obj 59 115 inlet;
#X obj 59 163 outlet;
#X connect 0 0 1 0;
#X connect 1 0 2 0;
#X connect 2 0 3 1;
#X connect 3 0 5 0;
#X connect 4 0 3 0;
#X restore 438 166 pd ms_to_samples;
#X text 266 313 pack into: start (samples) \, end (samples) \, duration
(ms);
#X text 153 279 add start offset + length in samples;
#X text 477 256 scale playback rate by # of samples to play;
#X text 21 15 /// \$1 IS SAMPLE NAME;
#X obj 45 515 throw~ \$0-out;
#X connect 0 0 1 0;
#X connect 1 0 10 0;
#X connect 2 0 7 0;
#X connect 3 0 2 1;
#X connect 4 0 19 0;
#X connect 5 0 6 0;
#X connect 6 0 11 0;
#X connect 7 0 5 0;
#X connect 10 0 2 0;
#X connect 10 1 3 0;
#X connect 10 2 18 0;
#X connect 11 0 25 0;
#X connect 13 0 3 1;
#X connect 14 0 15 0;
#X connect 14 1 13 1;
#X connect 15 0 13 0;
#X connect 16 0 4 0;
#X connect 17 0 15 0;
#X connect 18 0 11 1;
#X connect 19 0 2 2;
#X connect 19 1 20 0;
#X connect 20 0 14 0;
#X restore 462 323 pd grain;
#N canvas 32 25 802 616 grain 0;
#X obj 45 93 inlet;
#X floatatom 45 117 10 0 0 0 - - - 0;
#X obj 45 314 pack f f f, f 31;
#X obj 127 279 +;
#X floatatom 259 117 5 0 0 0 - - - 0;
#X obj 45 362 line~;
#X obj 45 467 tabread4~ clip-\$1;
#X msg 45 338 \$1 \, \$2 \$3;
#X text 14 69 start point in samples;
#X text 258 73 duration (ms);
#X obj 45 140 t f f b, f 24;
#X obj 45 491 *~, f 6;
#X text 139 172 grain playback rate %;
#X obj 145 255 *, f 47;
#X obj 438 190 t b f;
#X obj 145 231 f 1;
#X obj 259 93 r \$0-grain-dur;
#X obj 145 195 r \$0-grain-rate;
#N canvas 558 164 233 357 env 0;
#X floatatom 53 59 5 0 0 0 - - - 0;
#X obj 53 121 / 10;
#X obj 53 145 clip 5 50;
#X obj 53 169 t f f f, f 14;
#X obj 148 193 * 2;
#X obj 148 217 swap, f 5;
#X obj 148 241 -, f 5;
#X obj 32 279 ahdsr~ 0 0 0 1 0;
#X obj 53 35 r \$0-grain-dur;
#X obj 53 82 t f f, f 18;
#X obj 10 35 inlet;
#X obj 32 303 outlet~;
#X connect 0 0 9 0;
#X connect 1 0 2 0;
#X connect 2 0 3 0;
#X connect 3 0 7 1;
#X connect 3 1 7 5;
#X connect 3 2 4 0;
#X connect 4 0 5 0;
#X connect 5 0 6 0;
#X connect 5 1 6 1;
#X connect 6 0 7 3;
#X connect 7 0 11 0;
#X connect 8 0 0 0;
#X connect 9 0 1 0;
#X connect 9 1 5 1;
#X connect 10 0 7 0;
#X restore 210 362 pd env;
#X obj 259 140 t f f, f 26;
#N canvas 0 25 450 300 ms_to_samples 0;
#X obj 287 60 loadbang;
#X obj 287 84 samplerate~;
#X obj 287 108 / 1000;
#X obj 59 139 * 44.1, f 33;
#X obj 59 115 inlet;
#X obj 59 163 outlet;
#X connect 0 0 1 0;
#X connect 1 0 2 0;
#X connect 2 0 3 1;
#X connect 3 0 5 0;
#X connect 4 0 3 0;
#X restore 438 166 pd ms_to_samples;
#X text 266 313 pack into: start (samples) \, end (samples) \, duration
(ms);
#X text 153 279 add start offset + length in samples;
#X text 477 256 scale playback rate by # of samples to play;
#X text 21 15 /// \$1 IS SAMPLE NAME;
#X obj 45 515 throw~ \$0-out;
#X connect 0 0 1 0;
#X connect 1 0 10 0;
#X connect 2 0 7 0;
#X connect 3 0 2 1;
#X connect 4 0 19 0;
#X connect 5 0 6 0;
#X connect 6 0 11 0;
#X connect 7 0 5 0;
#X connect 10 0 2 0;
#X connect 10 1 3 0;
#X connect 10 2 18 0;
#X connect 11 0 25 0;
#X connect 13 0 3 1;
#X connect 14 0 15 0;
#X connect 14 1 13 1;
#X connect 15 0 13 0;
#X connect 16 0 4 0;
#X connect 17 0 15 0;
#X connect 18 0 11 1;
#X connect 19 0 2 2;
#X connect 19 1 20 0;
#X connect 20 0 14 0;
#X restore 496 353 pd grain;
#N canvas 32 25 811 616 grain 0;
#X obj 45 93 inlet;
#X floatatom 45 117 10 0 0 0 - - - 0;
#X obj 45 314 pack f f f, f 31;
#X obj 127 279 +;
#X floatatom 259 117 5 0 0 0 - - - 0;
#X obj 45 362 line~;
#X obj 45 467 tabread4~ clip-\$1;
#X msg 45 338 \$1 \, \$2 \$3;
#X text 14 69 start point in samples;
#X text 258 73 duration (ms);
#X obj 45 140 t f f b, f 24;
#X obj 45 491 *~, f 6;
#X text 139 172 grain playback rate %;
#X obj 145 255 *, f 47;
#X obj 438 190 t b f;
#X obj 145 231 f 1;
#X obj 259 93 r \$0-grain-dur;
#X obj 145 195 r \$0-grain-rate;
#N canvas 558 164 233 357 env 0;
#X floatatom 53 59 5 0 0 0 - - - 0;
#X obj 53 121 / 10;
#X obj 53 145 clip 5 50;
#X obj 53 169 t f f f, f 14;
#X obj 148 193 * 2;
#X obj 148 217 swap, f 5;
#X obj 148 241 -, f 5;
#X obj 32 279 ahdsr~ 0 0 0 1 0;
#X obj 53 35 r \$0-grain-dur;
#X obj 53 82 t f f, f 18;
#X obj 10 35 inlet;
#X obj 32 303 outlet~;
#X connect 0 0 9 0;
#X connect 1 0 2 0;
#X connect 2 0 3 0;
#X connect 3 0 7 1;
#X connect 3 1 7 5;
#X connect 3 2 4 0;
#X connect 4 0 5 0;
#X connect 5 0 6 0;
#X connect 5 1 6 1;
#X connect 6 0 7 3;
#X connect 7 0 11 0;
#X connect 8 0 0 0;
#X connect 9 0 1 0;
#X connect 9 1 5 1;
#X connect 10 0 7 0;
#X restore 210 362 pd env;
#X obj 259 140 t f f, f 26;
#N canvas 0 25 450 300 ms_to_samples 0;
#X obj 287 60 loadbang;
#X obj 287 84 samplerate~;
#X obj 287 108 / 1000;
#X obj 59 139 * 44.1, f 33;
#X obj 59 115 inlet;
#X obj 59 163 outlet;
#X connect 0 0 1 0;
#X connect 1 0 2 0;
#X connect 2 0 3 1;
#X connect 3 0 5 0;
#X connect 4 0 3 0;
#X restore 438 166 pd ms_to_samples;
#X text 266 313 pack into: start (samples) \, end (samples) \, duration
(ms);
#X text 153 279 add start offset + length in samples;
#X text 477 256 scale playback rate by # of samples to play;
#X text 21 15 /// \$1 IS SAMPLE NAME;
#X obj 45 515 throw~ \$0-out;
#X connect 0 0 1 0;
#X connect 1 0 10 0;
#X connect 2 0 7 0;
#X connect 3 0 2 1;
#X connect 4 0 19 0;
#X connect 5 0 6 0;
#X connect 6 0 11 0;
#X connect 7 0 5 0;
#X connect 10 0 2 0;
#X connect 10 1 3 0;
#X connect 10 2 18 0;
#X connect 11 0 25 0;
#X connect 13 0 3 1;
#X connect 14 0 15 0;
#X connect 14 1 13 1;
#X connect 15 0 13 0;
#X connect 16 0 4 0;
#X connect 17 0 15 0;
#X connect 18 0 11 1;
#X connect 19 0 2 2;
#X connect 19 1 20 0;
#X connect 20 0 14 0;
#X restore 529 383 pd grain;
#N canvas 32 25 805 616 grain 0;
#X obj 45 93 inlet;
#X floatatom 45 117 10 0 0 0 - - - 0;
#X obj 45 314 pack f f f, f 31;
#X obj 127 279 +;
#X floatatom 259 117 5 0 0 0 - - - 0;
#X obj 45 362 line~;
#X obj 45 467 tabread4~ clip-\$1;
#X msg 45 338 \$1 \, \$2 \$3;
#X text 14 69 start point in samples;
#X text 258 73 duration (ms);
#X obj 45 140 t f f b, f 24;
#X obj 45 491 *~, f 6;
#X text 139 172 grain playback rate %;
#X obj 145 255 *, f 47;
#X obj 438 190 t b f;
#X obj 145 231 f 1;
#X obj 259 93 r \$0-grain-dur;
#X obj 145 195 r \$0-grain-rate;
#N canvas 558 164 233 357 env 0;
#X floatatom 53 59 5 0 0 0 - - - 0;
#X obj 53 121 / 10;
#X obj 53 145 clip 5 50;
#X obj 53 169 t f f f, f 14;
#X obj 148 193 * 2;
#X obj 148 217 swap, f 5;
#X obj 148 241 -, f 5;
#X obj 32 279 ahdsr~ 0 0 0 1 0;
#X obj 53 35 r \$0-grain-dur;
#X obj 53 82 t f f, f 18;
#X obj 10 35 inlet;
#X obj 32 303 outlet~;
#X connect 0 0 9 0;
#X connect 1 0 2 0;
#X connect 2 0 3 0;
#X connect 3 0 7 1;
#X connect 3 1 7 5;
#X connect 3 2 4 0;
#X connect 4 0 5 0;
#X connect 5 0 6 0;
#X connect 5 1 6 1;
#X connect 6 0 7 3;
#X connect 7 0 11 0;
#X connect 8 0 0 0;
#X connect 9 0 1 0;
#X connect 9 1 5 1;
#X connect 10 0 7 0;
#X restore 210 362 pd env;
#X obj 259 140 t f f, f 26;
#N canvas 0 25 450 300 ms_to_samples 0;
#X obj 287 60 loadbang;
#X obj 287 84 samplerate~;
#X obj 287 108 / 1000;
#X obj 59 139 * 44.1, f 33;
#X obj 59 115 inlet;
#X obj 59 163 outlet;
#X connect 0 0 1 0;
#X connect 1 0 2 0;
#X connect 2 0 3 1;
#X connect 3 0 5 0;
#X connect 4 0 3 0;
#X restore 438 166 pd ms_to_samples;
#X text 266 313 pack into: start (samples) \, end (samples) \, duration
(ms);
#X text 153 279 add start offset + length in samples;
#X text 477 256 scale playback rate by # of samples to play;
#X text 21 15 /// \$1 IS SAMPLE NAME;
#X obj 45 515 throw~ \$0-out;
#X connect 0 0 1 0;
#X connect 1 0 10 0;
#X connect 2 0 7 0;
#X connect 3 0 2 1;
#X connect 4 0 19 0;
#X connect 5 0 6 0;
#X connect 6 0 11 0;
#X connect 7 0 5 0;
#X connect 10 0 2 0;
#X connect 10 1 3 0;
#X connect 10 2 18 0;
#X connect 11 0 25 0;
#X connect 13 0 3 1;
#X connect 14 0 15 0;
#X connect 14 1 13 1;
#X connect 15 0 13 0;
#X connect 16 0 4 0;
#X connect 17 0 15 0;
#X connect 18 0 11 1;
#X connect 19 0 2 2;
#X connect 19 1 20 0;
#X connect 20 0 14 0;
#X restore 563 293 pd grain;
#N canvas 32 25 795 616 grain 0;
#X obj 45 93 inlet;
#X floatatom 45 117 10 0 0 0 - - - 0;
#X obj 45 314 pack f f f, f 31;
#X obj 127 279 +;
#X floatatom 259 117 5 0 0 0 - - - 0;
#X obj 45 362 line~;
#X obj 45 467 tabread4~ clip-\$1;
#X msg 45 338 \$1 \, \$2 \$3;
#X text 14 69 start point in samples;
#X text 258 73 duration (ms);
#X obj 45 140 t f f b, f 24;
#X obj 45 491 *~, f 6;
#X text 139 172 grain playback rate %;
#X obj 145 255 *, f 47;
#X obj 438 190 t b f;
#X obj 145 231 f 1;
#X obj 259 93 r \$0-grain-dur;
#X obj 145 195 r \$0-grain-rate;
#N canvas 558 164 233 357 env 0;
#X floatatom 53 59 5 0 0 0 - - - 0;
#X obj 53 121 / 10;
#X obj 53 145 clip 5 50;
#X obj 53 169 t f f f, f 14;
#X obj 148 193 * 2;
#X obj 148 217 swap, f 5;
#X obj 148 241 -, f 5;
#X obj 32 279 ahdsr~ 0 0 0 1 0;
#X obj 53 35 r \$0-grain-dur;
#X obj 53 82 t f f, f 18;
#X obj 10 35 inlet;
#X obj 32 303 outlet~;
#X connect 0 0 9 0;
#X connect 1 0 2 0;
#X connect 2 0 3 0;
#X connect 3 0 7 1;
#X connect 3 1 7 5;
#X connect 3 2 4 0;
#X connect 4 0 5 0;
#X connect 5 0 6 0;
#X connect 5 1 6 1;
#X connect 6 0 7 3;
#X connect 7 0 11 0;
#X connect 8 0 0 0;
#X connect 9 0 1 0;
#X connect 9 1 5 1;
#X connect 10 0 7 0;
#X restore 210 362 pd env;
#X obj 259 140 t f f, f 26;
#N canvas 0 25 450 300 ms_to_samples 0;
#X obj 287 60 loadbang;
#X obj 287 84 samplerate~;
#X obj 287 108 / 1000;
#X obj 59 139 * 44.1, f 33;
#X obj 59 115 inlet;
#X obj 59 163 outlet;
#X connect 0 0 1 0;
#X connect 1 0 2 0;
#X connect 2 0 3 1;
#X connect 3 0 5 0;
#X connect 4 0 3 0;
#X restore 438 166 pd ms_to_samples;
#X text 266 313 pack into: start (samples) \, end (samples) \, duration
(ms);
#X text 153 279 add start offset + length in samples;
#X text 477 256 scale playback rate by # of samples to play;
#X text 21 15 /// \$1 IS SAMPLE NAME;
#X obj 45 515 throw~ \$0-out;
#X connect 0 0 1 0;
#X connect 1 0 10 0;
#X connect 2 0 7 0;
#X connect 3 0 2 1;
#X connect 4 0 19 0;
#X connect 5 0 6 0;
#X connect 6 0 11 0;
#X connect 7 0 5 0;
#X connect 10 0 2 0;
#X connect 10 1 3 0;
#X connect 10 2 18 0;
#X connect 11 0 25 0;
#X connect 13 0 3 1;
#X connect 14 0 15 0;
#X connect 14 1 13 1;
#X connect 15 0 13 0;
#X connect 16 0 4 0;
#X connect 17 0 15 0;
#X connect 18 0 11 1;
#X connect 19 0 2 2;
#X connect 19 1 20 0;
#X connect 20 0 14 0;
#X restore 597 323 pd grain;
#N canvas 32 25 821 616 grain 0;
#X obj 45 93 inlet;
#X floatatom 45 117 10 0 0 0 - - - 0;
#X obj 45 314 pack f f f, f 31;
#X obj 127 279 +;
#X floatatom 259 117 5 0 0 0 - - - 0;
#X obj 45 362 line~;
#X obj 45 467 tabread4~ clip-\$1;
#X msg 45 338 \$1 \, \$2 \$3;
#X text 14 69 start point in samples;
#X text 258 73 duration (ms);
#X obj 45 140 t f f b, f 24;
#X obj 45 491 *~, f 6;
#X text 139 172 grain playback rate %;
#X obj 145 255 *, f 47;
#X obj 438 190 t b f;
#X obj 145 231 f 1;
#X obj 259 93 r \$0-grain-dur;
#X obj 145 195 r \$0-grain-rate;
#N canvas 558 164 233 357 env 0;
#X floatatom 53 59 5 0 0 0 - - - 0;
#X obj 53 121 / 10;
#X obj 53 145 clip 5 50;
#X obj 53 169 t f f f, f 14;
#X obj 148 193 * 2;
#X obj 148 217 swap, f 5;
#X obj 148 241 -, f 5;
#X obj 32 279 ahdsr~ 0 0 0 1 0;
#X obj 53 35 r \$0-grain-dur;
#X obj 53 82 t f f, f 18;
#X obj 10 35 inlet;
#X obj 32 303 outlet~;
#X connect 0 0 9 0;
#X connect 1 0 2 0;
#X connect 2 0 3 0;
#X connect 3 0 7 1;
#X connect 3 1 7 5;
#X connect 3 2 4 0;
#X connect 4 0 5 0;
#X connect 5 0 6 0;
#X connect 5 1 6 1;
#X connect 6 0 7 3;
#X connect 7 0 11 0;
#X connect 8 0 0 0;
#X connect 9 0 1 0;
#X connect 9 1 5 1;
#X connect 10 0 7 0;
#X restore 210 362 pd env;
#X obj 259 140 t f f, f 26;
#N canvas 0 25 450 300 ms_to_samples 0;
#X obj 287 60 loadbang;
#X obj 287 84 samplerate~;
#X obj 287 108 / 1000;
#X obj 59 139 * 44.1, f 33;
#X obj 59 115 inlet;
#X obj 59 163 outlet;
#X connect 0 0 1 0;
#X connect 1 0 2 0;
#X connect 2 0 3 1;
#X connect 3 0 5 0;
#X connect 4 0 3 0;
#X restore 438 166 pd ms_to_samples;
#X text 266 313 pack into: start (samples) \, end (samples) \, duration
(ms);
#X text 153 279 add start offset + length in samples;
#X text 477 256 scale playback rate by # of samples to play;
#X text 21 15 /// \$1 IS SAMPLE NAME;
#X obj 45 515 throw~ \$0-out;
#X connect 0 0 1 0;
#X connect 1 0 10 0;
#X connect 2 0 7 0;
#X connect 3 0 2 1;
#X connect 4 0 19 0;
#X connect 5 0 6 0;
#X connect 6 0 11 0;
#X connect 7 0 5 0;
#X connect 10 0 2 0;
#X connect 10 1 3 0;
#X connect 10 2 18 0;
#X connect 11 0 25 0;
#X connect 13 0 3 1;
#X connect 14 0 15 0;
#X connect 14 1 13 1;
#X connect 15 0 13 0;
#X connect 16 0 4 0;
#X connect 17 0 15 0;
#X connect 18 0 11 1;
#X connect 19 0 2 2;
#X connect 19 1 20 0;
#X connect 20 0 14 0;
#X restore 630 353 pd grain;
#N canvas 32 25 808 616 grain 0;
#X obj 45 93 inlet;
#X floatatom 45 117 10 0 0 0 - - - 0;
#X obj 45 314 pack f f f, f 31;
#X obj 127 279 +;
#X floatatom 259 117 5 0 0 0 - - - 0;
#X obj 45 362 line~;
#X obj 45 467 tabread4~ clip-\$1;
#X msg 45 338 \$1 \, \$2 \$3;
#X text 14 69 start point in samples;
#X text 258 73 duration (ms);
#X obj 45 140 t f f b, f 24;
#X obj 45 491 *~, f 6;
#X text 139 172 grain playback rate %;
#X obj 145 255 *, f 47;
#X obj 438 190 t b f;
#X obj 145 231 f 1;
#X obj 259 93 r \$0-grain-dur;
#X obj 145 195 r \$0-grain-rate;
#N canvas 558 164 233 357 env 0;
#X floatatom 53 59 5 0 0 0 - - - 0;
#X obj 53 121 / 10;
#X obj 53 145 clip 5 50;
#X obj 53 169 t f f f, f 14;
#X obj 148 193 * 2;
#X obj 148 217 swap, f 5;
#X obj 148 241 -, f 5;
#X obj 32 279 ahdsr~ 0 0 0 1 0;
#X obj 53 35 r \$0-grain-dur;
#X obj 53 82 t f f, f 18;
#X obj 10 35 inlet;
#X obj 32 303 outlet~;
#X connect 0 0 9 0;
#X connect 1 0 2 0;
#X connect 2 0 3 0;
#X connect 3 0 7 1;
#X connect 3 1 7 5;
#X connect 3 2 4 0;
#X connect 4 0 5 0;
#X connect 5 0 6 0;
#X connect 5 1 6 1;
#X connect 6 0 7 3;
#X connect 7 0 11 0;
#X connect 8 0 0 0;
#X connect 9 0 1 0;
#X connect 9 1 5 1;
#X connect 10 0 7 0;
#X restore 210 362 pd env;
#X obj 259 140 t f f, f 26;
#N canvas 0 25 450 300 ms_to_samples 0;
#X obj 287 60 loadbang;
#X obj 287 84 samplerate~;
#X obj 287 108 / 1000;
#X obj 59 139 * 44.1, f 33;
#X obj 59 115 inlet;
#X obj 59 163 outlet;
#X connect 0 0 1 0;
#X connect 1 0 2 0;
#X connect 2 0 3 1;
#X connect 3 0 5 0;
#X connect 4 0 3 0;
#X restore 438 166 pd ms_to_samples;
#X text 266 313 pack into: start (samples) \, end (samples) \, duration
(ms);
#X text 153 279 add start offset + length in samples;
#X text 477 256 scale playback rate by # of samples to play;
#X text 21 15 /// \$1 IS SAMPLE NAME;
#X obj 45 515 throw~ \$0-out;
#X connect 0 0 1 0;
#X connect 1 0 10 0;
#X connect 2 0 7 0;
#X connect 3 0 2 1;
#X connect 4 0 19 0;
#X connect 5 0 6 0;
#X connect 6 0 11 0;
#X connect 7 0 5 0;
#X connect 10 0 2 0;
#X connect 10 1 3 0;
#X connect 10 2 18 0;
#X connect 11 0 25 0;
#X connect 13 0 3 1;
#X connect 14 0 15 0;
#X connect 14 1 13 1;
#X connect 15 0 13 0;
#X connect 16 0 4 0;
#X connect 17 0 15 0;
#X connect 18 0 11 1;
#X connect 19 0 2 2;
#X connect 19 1 20 0;
#X connect 20 0 14 0;
#X restore 664 383 pd grain;
#N canvas 32 25 819 616 grain 0;
#X obj 45 93 inlet;
#X floatatom 45 117 10 0 0 0 - - - 0;
#X obj 45 314 pack f f f, f 31;
#X obj 127 279 +;
#X floatatom 259 117 5 0 0 0 - - - 0;
#X obj 45 362 line~;
#X obj 45 467 tabread4~ clip-\$1;
#X msg 45 338 \$1 \, \$2 \$3;
#X text 14 69 start point in samples;
#X text 258 73 duration (ms);
#X obj 45 140 t f f b, f 24;
#X obj 45 491 *~, f 6;
#X text 139 172 grain playback rate %;
#X obj 145 255 *, f 47;
#X obj 438 190 t b f;
#X obj 145 231 f 1;
#X obj 259 93 r \$0-grain-dur;
#X obj 145 195 r \$0-grain-rate;
#N canvas 558 164 233 357 env 0;
#X floatatom 53 59 5 0 0 0 - - - 0;
#X obj 53 121 / 10;
#X obj 53 145 clip 5 50;
#X obj 53 169 t f f f, f 14;
#X obj 148 193 * 2;
#X obj 148 217 swap, f 5;
#X obj 148 241 -, f 5;
#X obj 32 279 ahdsr~ 0 0 0 1 0;
#X obj 53 35 r \$0-grain-dur;
#X obj 53 82 t f f, f 18;
#X obj 10 35 inlet;
#X obj 32 303 outlet~;
#X connect 0 0 9 0;
#X connect 1 0 2 0;
#X connect 2 0 3 0;
#X connect 3 0 7 1;
#X connect 3 1 7 5;
#X connect 3 2 4 0;
#X connect 4 0 5 0;
#X connect 5 0 6 0;
#X connect 5 1 6 1;
#X connect 6 0 7 3;
#X connect 7 0 11 0;
#X connect 8 0 0 0;
#X connect 9 0 1 0;
#X connect 9 1 5 1;
#X connect 10 0 7 0;
#X restore 210 362 pd env;
#X obj 259 140 t f f, f 26;
#N canvas 0 25 450 300 ms_to_samples 0;
#X obj 287 60 loadbang;
#X obj 287 84 samplerate~;
#X obj 287 108 / 1000;
#X obj 59 139 * 44.1, f 33;
#X obj 59 115 inlet;
#X obj 59 163 outlet;
#X connect 0 0 1 0;
#X connect 1 0 2 0;
#X connect 2 0 3 1;
#X connect 3 0 5 0;
#X connect 4 0 3 0;
#X restore 438 166 pd ms_to_samples;
#X text 266 313 pack into: start (samples) \, end (samples) \, duration
(ms);
#X text 153 279 add start offset + length in samples;
#X text 477 256 scale playback rate by # of samples to play;
#X text 21 15 /// \$1 IS SAMPLE NAME;
#X obj 45 515 throw~ \$0-out;
#X connect 0 0 1 0;
#X connect 1 0 10 0;
#X connect 2 0 7 0;
#X connect 3 0 2 1;
#X connect 4 0 19 0;
#X connect 5 0 6 0;
#X connect 6 0 11 0;
#X connect 7 0 5 0;
#X connect 10 0 2 0;
#X connect 10 1 3 0;
#X connect 10 2 18 0;
#X connect 11 0 25 0;
#X connect 13 0 3 1;
#X connect 14 0 15 0;
#X connect 14 1 13 1;
#X connect 15 0 13 0;
#X connect 16 0 4 0;
#X connect 17 0 15 0;
#X connect 18 0 11 1;
#X connect 19 0 2 2;
#X connect 19 1 20 0;
#X connect 20 0 14 0;
#X restore 697 293 pd grain;
#N canvas 32 25 806 616 grain 0;
#X obj 45 93 inlet;
#X floatatom 45 117 10 0 0 0 - - - 0;
#X obj 45 314 pack f f f, f 31;
#X obj 127 279 +;
#X floatatom 259 117 5 0 0 0 - - - 0;
#X obj 45 362 line~;
#X obj 45 467 tabread4~ clip-\$1;
#X msg 45 338 \$1 \, \$2 \$3;
#X text 14 69 start point in samples;
#X text 258 73 duration (ms);
#X obj 45 140 t f f b, f 24;
#X obj 45 491 *~, f 6;
#X text 139 172 grain playback rate %;
#X obj 145 255 *, f 47;
#X obj 438 190 t b f;
#X obj 145 231 f 1;
#X obj 259 93 r \$0-grain-dur;
#X obj 145 195 r \$0-grain-rate;
#N canvas 558 164 233 357 env 0;
#X floatatom 53 59 5 0 0 0 - - - 0;
#X obj 53 121 / 10;
#X obj 53 145 clip 5 50;
#X obj 53 169 t f f f, f 14;
#X obj 148 193 * 2;
#X obj 148 217 swap, f 5;
#X obj 148 241 -, f 5;
#X obj 32 279 ahdsr~ 0 0 0 1 0;
#X obj 53 35 r \$0-grain-dur;
#X obj 53 82 t f f, f 18;
#X obj 10 35 inlet;
#X obj 32 303 outlet~;
#X connect 0 0 9 0;
#X connect 1 0 2 0;
#X connect 2 0 3 0;
#X connect 3 0 7 1;
#X connect 3 1 7 5;
#X connect 3 2 4 0;
#X connect 4 0 5 0;
#X connect 5 0 6 0;
#X connect 5 1 6 1;
#X connect 6 0 7 3;
#X connect 7 0 11 0;
#X connect 8 0 0 0;
#X connect 9 0 1 0;
#X connect 9 1 5 1;
#X connect 10 0 7 0;
#X restore 210 362 pd env;
#X obj 259 140 t f f, f 26;
#N canvas 0 25 450 300 ms_to_samples 0;
#X obj 287 60 loadbang;
#X obj 287 84 samplerate~;
#X obj 287 108 / 1000;
#X obj 59 139 * 44.1, f 33;
#X obj 59 115 inlet;
#X obj 59 163 outlet;
#X connect 0 0 1 0;
#X connect 1 0 2 0;
#X connect 2 0 3 1;
#X connect 3 0 5 0;
#X connect 4 0 3 0;
#X restore 438 166 pd ms_to_samples;
#X text 266 313 pack into: start (samples) \, end (samples) \, duration
(ms);
#X text 153 279 add start offset + length in samples;
#X text 477 256 scale playback rate by # of samples to play;
#X text 21 15 /// \$1 IS SAMPLE NAME;
#X obj 45 515 throw~ \$0-out;
#X connect 0 0 1 0;
#X connect 1 0 10 0;
#X connect 2 0 7 0;
#X connect 3 0 2 1;
#X connect 4 0 19 0;
#X connect 5 0 6 0;
#X connect 6 0 11 0;
#X connect 7 0 5 0;
#X connect 10 0 2 0;
#X connect 10 1 3 0;
#X connect 10 2 18 0;
#X connect 11 0 25 0;
#X connect 13 0 3 1;
#X connect 14 0 15 0;
#X connect 14 1 13 1;
#X connect 15 0 13 0;
#X connect 16 0 4 0;
#X connect 17 0 15 0;
#X connect 18 0 11 1;
#X connect 19 0 2 2;
#X connect 19 1 20 0;
#X connect 20 0 14 0;
#X restore 731 323 pd grain;
#N canvas 32 25 809 616 grain 0;
#X obj 45 93 inlet;
#X floatatom 45 117 10 0 0 0 - - - 0;
#X obj 45 314 pack f f f, f 31;
#X obj 127 279 +;
#X floatatom 259 117 5 0 0 0 - - - 0;
#X obj 45 362 line~;
#X obj 45 467 tabread4~ clip-\$1;
#X msg 45 338 \$1 \, \$2 \$3;
#X text 14 69 start point in samples;
#X text 258 73 duration (ms);
#X obj 45 140 t f f b, f 24;
#X obj 45 491 *~, f 6;
#X text 139 172 grain playback rate %;
#X obj 145 255 *, f 47;
#X obj 438 190 t b f;
#X obj 145 231 f 1;
#X obj 259 93 r \$0-grain-dur;
#X obj 145 195 r \$0-grain-rate;
#N canvas 558 164 233 357 env 0;
#X floatatom 53 59 5 0 0 0 - - - 0;
#X obj 53 121 / 10;
#X obj 53 145 clip 5 50;
#X obj 53 169 t f f f, f 14;
#X obj 148 193 * 2;
#X obj 148 217 swap, f 5;
#X obj 148 241 -, f 5;
#X obj 32 279 ahdsr~ 0 0 0 1 0;
#X obj 53 35 r \$0-grain-dur;
#X obj 53 82 t f f, f 18;
#X obj 10 35 inlet;
#X obj 32 303 outlet~;
#X connect 0 0 9 0;
#X connect 1 0 2 0;
#X connect 2 0 3 0;
#X connect 3 0 7 1;
#X connect 3 1 7 5;
#X connect 3 2 4 0;
#X connect 4 0 5 0;
#X connect 5 0 6 0;
#X connect 5 1 6 1;
#X connect 6 0 7 3;
#X connect 7 0 11 0;
#X connect 8 0 0 0;
#X connect 9 0 1 0;
#X connect 9 1 5 1;
#X connect 10 0 7 0;
#X restore 210 362 pd env;
#X obj 259 140 t f f, f 26;
#N canvas 0 25 450 300 ms_to_samples 0;
#X obj 287 60 loadbang;
#X obj 287 84 samplerate~;
#X obj 287 108 / 1000;
#X obj 59 139 * 44.1, f 33;
#X obj 59 115 inlet;
#X obj 59 163 outlet;
#X connect 0 0 1 0;
#X connect 1 0 2 0;
#X connect 2 0 3 1;
#X connect 3 0 5 0;
#X connect 4 0 3 0;
#X restore 438 166 pd ms_to_samples;
#X text 266 313 pack into: start (samples) \, end (samples) \, duration
(ms);
#X text 153 279 add start offset + length in samples;
#X text 477 256 scale playback rate by # of samples to play;
#X text 21 15 /// \$1 IS SAMPLE NAME;
#X obj 45 515 throw~ \$0-out;
#X connect 0 0 1 0;
#X connect 1 0 10 0;
#X connect 2 0 7 0;
#X connect 3 0 2 1;
#X connect 4 0 19 0;
#X connect 5 0 6 0;
#X connect 6 0 11 0;
#X connect 7 0 5 0;
#X connect 10 0 2 0;
#X connect 10 1 3 0;
#X connect 10 2 18 0;
#X connect 11 0 25 0;
#X connect 13 0 3 1;
#X connect 14 0 15 0;
#X connect 14 1 13 1;
#X connect 15 0 13 0;
#X connect 16 0 4 0;
#X connect 17 0 15 0;
#X connect 18 0 11 1;
#X connect 19 0 2 2;
#X connect 19 1 20 0;
#X connect 20 0 14 0;
#X restore 765 353 pd grain;
#N canvas 32 25 837 616 grain 0;
#X obj 45 93 inlet;
#X floatatom 45 117 10 0 0 0 - - - 0;
#X obj 45 314 pack f f f, f 31;
#X obj 127 279 +;
#X floatatom 259 117 5 0 0 0 - - - 0;
#X obj 45 362 line~;
#X obj 45 467 tabread4~ clip-\$1;
#X msg 45 338 \$1 \, \$2 \$3;
#X text 14 69 start point in samples;
#X text 258 73 duration (ms);
#X obj 45 140 t f f b, f 24;
#X obj 45 491 *~, f 6;
#X text 139 172 grain playback rate %;
#X obj 145 255 *, f 47;
#X obj 438 190 t b f;
#X obj 145 231 f 1;
#X obj 259 93 r \$0-grain-dur;
#X obj 145 195 r \$0-grain-rate;
#N canvas 558 164 233 357 env 0;
#X floatatom 53 59 5 0 0 0 - - - 0;
#X obj 53 121 / 10;
#X obj 53 145 clip 5 50;
#X obj 53 169 t f f f, f 14;
#X obj 148 193 * 2;
#X obj 148 217 swap, f 5;
#X obj 148 241 -, f 5;
#X obj 32 279 ahdsr~ 0 0 0 1 0;
#X obj 53 35 r \$0-grain-dur;
#X obj 53 82 t f f, f 18;
#X obj 10 35 inlet;
#X obj 32 303 outlet~;
#X connect 0 0 9 0;
#X connect 1 0 2 0;
#X connect 2 0 3 0;
#X connect 3 0 7 1;
#X connect 3 1 7 5;
#X connect 3 2 4 0;
#X connect 4 0 5 0;
#X connect 5 0 6 0;
#X connect 5 1 6 1;
#X connect 6 0 7 3;
#X connect 7 0 11 0;
#X connect 8 0 0 0;
#X connect 9 0 1 0;
#X connect 9 1 5 1;
#X connect 10 0 7 0;
#X restore 210 362 pd env;
#X obj 259 140 t f f, f 26;
#N canvas 0 25 450 300 ms_to_samples 0;
#X obj 287 60 loadbang;
#X obj 287 84 samplerate~;
#X obj 287 108 / 1000;
#X obj 59 139 * 44.1, f 33;
#X obj 59 115 inlet;
#X obj 59 163 outlet;
#X connect 0 0 1 0;
#X connect 1 0 2 0;
#X connect 2 0 3 1;
#X connect 3 0 5 0;
#X connect 4 0 3 0;
#X restore 438 166 pd ms_to_samples;
#X text 266 313 pack into: start (samples) \, end (samples) \, duration
(ms);
#X text 153 279 add start offset + length in samples;
#X text 477 256 scale playback rate by # of samples to play;
#X text 21 15 /// \$1 IS SAMPLE NAME;
#X obj 45 515 throw~ \$0-out;
#X connect 0 0 1 0;
#X connect 1 0 10 0;
#X connect 2 0 7 0;
#X connect 3 0 2 1;
#X connect 4 0 19 0;
#X connect 5 0 6 0;
#X connect 6 0 11 0;
#X connect 7 0 5 0;
#X connect 10 0 2 0;
#X connect 10 1 3 0;
#X connect 10 2 18 0;
#X connect 11 0 25 0;
#X connect 13 0 3 1;
#X connect 14 0 15 0;
#X connect 14 1 13 1;
#X connect 15 0 13 0;
#X connect 16 0 4 0;
#X connect 17 0 15 0;
#X connect 18 0 11 1;
#X connect 19 0 2 2;
#X connect 19 1 20 0;
#X connect 20 0 14 0;
#X restore 798 383 pd grain;
#N canvas 32 25 845 616 grain 0;
#X obj 45 93 inlet;
#X floatatom 45 117 10 0 0 0 - - - 0;
#X obj 45 314 pack f f f, f 31;
#X obj 127 279 +;
#X floatatom 259 117 5 0 0 0 - - - 0;
#X obj 45 362 line~;
#X obj 45 467 tabread4~ clip-\$1;
#X msg 45 338 \$1 \, \$2 \$3;
#X text 14 69 start point in samples;
#X text 258 73 duration (ms);
#X obj 45 140 t f f b, f 24;
#X obj 45 491 *~, f 6;
#X text 139 172 grain playback rate %;
#X obj 145 255 *, f 47;
#X obj 438 190 t b f;
#X obj 145 231 f 1;
#X obj 259 93 r \$0-grain-dur;
#X obj 145 195 r \$0-grain-rate;
#N canvas 558 164 233 357 env 0;
#X floatatom 53 59 5 0 0 0 - - - 0;
#X obj 53 121 / 10;
#X obj 53 145 clip 5 50;
#X obj 53 169 t f f f, f 14;
#X obj 148 193 * 2;
#X obj 148 217 swap, f 5;
#X obj 148 241 -, f 5;
#X obj 32 279 ahdsr~ 0 0 0 1 0;
#X obj 53 35 r \$0-grain-dur;
#X obj 53 82 t f f, f 18;
#X obj 10 35 inlet;
#X obj 32 303 outlet~;
#X connect 0 0 9 0;
#X connect 1 0 2 0;
#X connect 2 0 3 0;
#X connect 3 0 7 1;
#X connect 3 1 7 5;
#X connect 3 2 4 0;
#X connect 4 0 5 0;
#X connect 5 0 6 0;
#X connect 5 1 6 1;
#X connect 6 0 7 3;
#X connect 7 0 11 0;
#X connect 8 0 0 0;
#X connect 9 0 1 0;
#X connect 9 1 5 1;
#X connect 10 0 7 0;
#X restore 210 362 pd env;
#X obj 259 140 t f f, f 26;
#N canvas 0 25 450 300 ms_to_samples 0;
#X obj 287 60 loadbang;
#X obj 287 84 samplerate~;
#X obj 287 108 / 1000;
#X obj 59 139 * 44.1, f 33;
#X obj 59 115 inlet;
#X obj 59 163 outlet;
#X connect 0 0 1 0;
#X connect 1 0 2 0;
#X connect 2 0 3 1;
#X connect 3 0 5 0;
#X connect 4 0 3 0;
#X restore 438 166 pd ms_to_samples;
#X text 266 313 pack into: start (samples) \, end (samples) \, duration
(ms);
#X text 153 279 add start offset + length in samples;
#X text 477 256 scale playback rate by # of samples to play;
#X text 21 15 /// \$1 IS SAMPLE NAME;
#X obj 45 515 throw~ \$0-out;
#X connect 0 0 1 0;
#X connect 1 0 10 0;
#X connect 2 0 7 0;
#X connect 3 0 2 1;
#X connect 4 0 19 0;
#X connect 5 0 6 0;
#X connect 6 0 11 0;
#X connect 7 0 5 0;
#X connect 10 0 2 0;
#X connect 10 1 3 0;
#X connect 10 2 18 0;
#X connect 11 0 25 0;
#X connect 13 0 3 1;
#X connect 14 0 15 0;
#X connect 14 1 13 1;
#X connect 15 0 13 0;
#X connect 16 0 4 0;
#X connect 17 0 15 0;
#X connect 18 0 11 1;
#X connect 19 0 2 2;
#X connect 19 1 20 0;
#X connect 20 0 14 0;
#X restore 832 293 pd grain;
#N canvas 32 25 803 616 grain 0;
#X obj 45 93 inlet;
#X floatatom 45 117 10 0 0 0 - - - 0;
#X obj 45 314 pack f f f, f 31;
#X obj 127 279 +;
#X floatatom 259 117 5 0 0 0 - - - 0;
#X obj 45 362 line~;
#X obj 45 467 tabread4~ clip-\$1;
#X msg 45 338 \$1 \, \$2 \$3;
#X text 14 69 start point in samples;
#X text 258 73 duration (ms);
#X obj 45 140 t f f b, f 24;
#X obj 45 491 *~, f 6;
#X text 139 172 grain playback rate %;
#X obj 145 255 *, f 47;
#X obj 438 190 t b f;
#X obj 145 231 f 1;
#X obj 259 93 r \$0-grain-dur;
#X obj 145 195 r \$0-grain-rate;
#N canvas 558 164 233 357 env 0;
#X floatatom 53 59 5 0 0 0 - - - 0;
#X obj 53 121 / 10;
#X obj 53 145 clip 5 50;
#X obj 53 169 t f f f, f 14;
#X obj 148 193 * 2;
#X obj 148 217 swap, f 5;
#X obj 148 241 -, f 5;
#X obj 32 279 ahdsr~ 0 0 0 1 0;
#X obj 53 35 r \$0-grain-dur;
#X obj 53 82 t f f, f 18;
#X obj 10 35 inlet;
#X obj 32 303 outlet~;
#X connect 0 0 9 0;
#X connect 1 0 2 0;
#X connect 2 0 3 0;
#X connect 3 0 7 1;
#X connect 3 1 7 5;
#X connect 3 2 4 0;
#X connect 4 0 5 0;
#X connect 5 0 6 0;
#X connect 5 1 6 1;
#X connect 6 0 7 3;
#X connect 7 0 11 0;
#X connect 8 0 0 0;
#X connect 9 0 1 0;
#X connect 9 1 5 1;
#X connect 10 0 7 0;
#X restore 210 362 pd env;
#X obj 259 140 t f f, f 26;
#N canvas 0 25 450 300 ms_to_samples 0;
#X obj 287 60 loadbang;
#X obj 287 84 samplerate~;
#X obj 287 108 / 1000;
#X obj 59 139 * 44.1, f 33;
#X obj 59 115 inlet;
#X obj 59 163 outlet;
#X connect 0 0 1 0;
#X connect 1 0 2 0;
#X connect 2 0 3 1;
#X connect 3 0 5 0;
#X connect 4 0 3 0;
#X restore 438 166 pd ms_to_samples;
#X text 266 313 pack into: start (samples) \, end (samples) \, duration
(ms);
#X text 153 279 add start offset + length in samples;
#X text 477 256 scale playback rate by # of samples to play;
#X text 21 15 /// \$1 IS SAMPLE NAME;
#X obj 45 515 throw~ \$0-out;
#X connect 0 0 1 0;
#X connect 1 0 10 0;
#X connect 2 0 7 0;
#X connect 3 0 2 1;
#X connect 4 0 19 0;
#X connect 5 0 6 0;
#X connect 6 0 11 0;
#X connect 7 0 5 0;
#X connect 10 0 2 0;
#X connect 10 1 3 0;
#X connect 10 2 18 0;
#X connect 11 0 25 0;
#X connect 13 0 3 1;
#X connect 14 0 15 0;
#X connect 14 1 13 1;
#X connect 15 0 13 0;
#X connect 16 0 4 0;
#X connect 17 0 15 0;
#X connect 18 0 11 1;
#X connect 19 0 2 2;
#X connect 19 1 20 0;
#X connect 20 0 14 0;
#X restore 865 323 pd grain;
#N canvas 32 25 819 616 grain 0;
#X obj 45 93 inlet;
#X floatatom 45 117 10 0 0 0 - - - 0;
#X obj 45 314 pack f f f, f 31;
#X obj 127 279 +;
#X floatatom 259 117 5 0 0 0 - - - 0;
#X obj 45 362 line~;
#X obj 45 467 tabread4~ clip-\$1;
#X msg 45 338 \$1 \, \$2 \$3;
#X text 14 69 start point in samples;
#X text 258 73 duration (ms);
#X obj 45 140 t f f b, f 24;
#X obj 45 491 *~, f 6;
#X text 139 172 grain playback rate %;
#X obj 145 255 *, f 47;
#X obj 438 190 t b f;
#X obj 145 231 f 1;
#X obj 259 93 r \$0-grain-dur;
#X obj 145 195 r \$0-grain-rate;
#N canvas 558 164 233 357 env 0;
#X floatatom 53 59 5 0 0 0 - - - 0;
#X obj 53 121 / 10;
#X obj 53 145 clip 5 50;
#X obj 53 169 t f f f, f 14;
#X obj 148 193 * 2;
#X obj 148 217 swap, f 5;
#X obj 148 241 -, f 5;
#X obj 32 279 ahdsr~ 0 0 0 1 0;
#X obj 53 35 r \$0-grain-dur;
#X obj 53 82 t f f, f 18;
#X obj 10 35 inlet;
#X obj 32 303 outlet~;
#X connect 0 0 9 0;
#X connect 1 0 2 0;
#X connect 2 0 3 0;
#X connect 3 0 7 1;
#X connect 3 1 7 5;
#X connect 3 2 4 0;
#X connect 4 0 5 0;
#X connect 5 0 6 0;
#X connect 5 1 6 1;
#X connect 6 0 7 3;
#X connect 7 0 11 0;
#X connect 8 0 0 0;
#X connect 9 0 1 0;
#X connect 9 1 5 1;
#X connect 10 0 7 0;
#X restore 210 362 pd env;
#X obj 259 140 t f f, f 26;
#N canvas 0 25 450 300 ms_to_samples 0;
#X obj 287 60 loadbang;
#X obj 287 84 samplerate~;
#X obj 287 108 / 1000;
#X obj 59 139 * 44.1, f 33;
#X obj 59 115 inlet;
#X obj 59 163 outlet;
#X connect 0 0 1 0;
#X connect 1 0 2 0;
#X connect 2 0 3 1;
#X connect 3 0 5 0;
#X connect 4 0 3 0;
#X restore 438 166 pd ms_to_samples;
#X text 266 313 pack into: start (samples) \, end (samples) \, duration
(ms);
#X text 153 279 add start offset + length in samples;
#X text 477 256 scale playback rate by # of samples to play;
#X text 21 15 /// \$1 IS SAMPLE NAME;
#X obj 45 515 throw~ \$0-out;
#X connect 0 0 1 0;
#X connect 1 0 10 0;
#X connect 2 0 7 0;
#X connect 3 0 2 1;
#X connect 4 0 19 0;
#X connect 5 0 6 0;
#X connect 6 0 11 0;
#X connect 7 0 5 0;
#X connect 10 0 2 0;
#X connect 10 1 3 0;
#X connect 10 2 18 0;
#X connect 11 0 25 0;
#X connect 13 0 3 1;
#X connect 14 0 15 0;
#X connect 14 1 13 1;
#X connect 15 0 13 0;
#X connect 16 0 4 0;
#X connect 17 0 15 0;
#X connect 18 0 11 1;
#X connect 19 0 2 2;
#X connect 19 1 20 0;
#X connect 20 0 14 0;
#X restore 899 353 pd grain;
#N canvas 32 25 846 616 grain 0;
#X obj 45 93 inlet;
#X floatatom 45 117 10 0 0 0 - - - 0;
#X obj 45 314 pack f f f, f 31;
#X obj 127 279 +;
#X floatatom 259 117 5 0 0 0 - - - 0;
#X obj 45 362 line~;
#X obj 45 467 tabread4~ clip-\$1;
#X msg 45 338 \$1 \, \$2 \$3;
#X text 14 69 start point in samples;
#X text 258 73 duration (ms);
#X obj 45 140 t f f b, f 24;
#X obj 45 491 *~, f 6;
#X text 139 172 grain playback rate %;
#X obj 145 255 *, f 47;
#X obj 438 190 t b f;
#X obj 145 231 f 1;
#X obj 259 93 r \$0-grain-dur;
#X obj 145 195 r \$0-grain-rate;
#N canvas 558 164 233 357 env 0;
#X floatatom 53 59 5 0 0 0 - - - 0;
#X obj 53 121 / 10;
#X obj 53 145 clip 5 50;
#X obj 53 169 t f f f, f 14;
#X obj 148 193 * 2;
#X obj 148 217 swap, f 5;
#X obj 148 241 -, f 5;
#X obj 32 279 ahdsr~ 0 0 0 1 0;
#X obj 53 35 r \$0-grain-dur;
#X obj 53 82 t f f, f 18;
#X obj 10 35 inlet;
#X obj 32 303 outlet~;
#X connect 0 0 9 0;
#X connect 1 0 2 0;
#X connect 2 0 3 0;
#X connect 3 0 7 1;
#X connect 3 1 7 5;
#X connect 3 2 4 0;
#X connect 4 0 5 0;
#X connect 5 0 6 0;
#X connect 5 1 6 1;
#X connect 6 0 7 3;
#X connect 7 0 11 0;
#X connect 8 0 0 0;
#X connect 9 0 1 0;
#X connect 9 1 5 1;
#X connect 10 0 7 0;
#X restore 210 362 pd env;
#X obj 259 140 t f f, f 26;
#N canvas 0 25 450 300 ms_to_samples 0;
#X obj 287 60 loadbang;
#X obj 287 84 samplerate~;
#X obj 287 108 / 1000;
#X obj 59 139 * 44.1, f 33;
#X obj 59 115 inlet;
#X obj 59 163 outlet;
#X connect 0 0 1 0;
#X connect 1 0 2 0;
#X connect 2 0 3 1;
#X connect 3 0 5 0;
#X connect 4 0 3 0;
#X restore 438 166 pd ms_to_samples;
#X text 266 313 pack into: start (samples) \, end (samples) \, duration
(ms);
#X text 153 279 add start offset + length in samples;
#X text 477 256 scale playback rate by # of samples to play;
#X text 21 15 /// \$1 IS SAMPLE NAME;
#X obj 45 515 throw~ \$0-out;
#X connect 0 0 1 0;
#X connect 1 0 10 0;
#X connect 2 0 7 0;
#X connect 3 0 2 1;
#X connect 4 0 19 0;
#X connect 5 0 6 0;
#X connect 6 0 11 0;
#X connect 7 0 5 0;
#X connect 10 0 2 0;
#X connect 10 1 3 0;
#X connect 10 2 18 0;
#X connect 11 0 25 0;
#X connect 13 0 3 1;
#X connect 14 0 15 0;
#X connect 14 1 13 1;
#X connect 15 0 13 0;
#X connect 16 0 4 0;
#X connect 17 0 15 0;
#X connect 18 0 11 1;
#X connect 19 0 2 2;
#X connect 19 1 20 0;
#X connect 20 0 14 0;
#X restore 933 383 pd grain;
#N canvas 32 25 806 616 grain 0;
#X obj 45 93 inlet;
#X floatatom 45 117 10 0 0 0 - - - 0;
#X obj 45 314 pack f f f, f 31;
#X obj 127 279 +;
#X floatatom 259 117 5 0 0 0 - - - 0;
#X obj 45 362 line~;
#X obj 45 467 tabread4~ clip-\$1;
#X msg 45 338 \$1 \, \$2 \$3;
#X text 14 69 start point in samples;
#X text 258 73 duration (ms);
#X obj 45 140 t f f b, f 24;
#X obj 45 491 *~, f 6;
#X text 139 172 grain playback rate %;
#X obj 145 255 *, f 47;
#X obj 438 190 t b f;
#X obj 145 231 f 1;
#X obj 259 93 r \$0-grain-dur;
#X obj 145 195 r \$0-grain-rate;
#N canvas 558 164 233 357 env 0;
#X floatatom 53 59 5 0 0 0 - - - 0;
#X obj 53 121 / 10;
#X obj 53 145 clip 5 50;
#X obj 53 169 t f f f, f 14;
#X obj 148 193 * 2;
#X obj 148 217 swap, f 5;
#X obj 148 241 -, f 5;
#X obj 32 279 ahdsr~ 0 0 0 1 0;
#X obj 53 35 r \$0-grain-dur;
#X obj 53 82 t f f, f 18;
#X obj 10 35 inlet;
#X obj 32 303 outlet~;
#X connect 0 0 9 0;
#X connect 1 0 2 0;
#X connect 2 0 3 0;
#X connect 3 0 7 1;
#X connect 3 1 7 5;
#X connect 3 2 4 0;
#X connect 4 0 5 0;
#X connect 5 0 6 0;
#X connect 5 1 6 1;
#X connect 6 0 7 3;
#X connect 7 0 11 0;
#X connect 8 0 0 0;
#X connect 9 0 1 0;
#X connect 9 1 5 1;
#X connect 10 0 7 0;
#X restore 210 362 pd env;
#X obj 259 140 t f f, f 26;
#N canvas 0 25 450 300 ms_to_samples 0;
#X obj 287 60 loadbang;
#X obj 287 84 samplerate~;
#X obj 287 108 / 1000;
#X obj 59 139 * 44.1, f 33;
#X obj 59 115 inlet;
#X obj 59 163 outlet;
#X connect 0 0 1 0;
#X connect 1 0 2 0;
#X connect 2 0 3 1;
#X connect 3 0 5 0;
#X connect 4 0 3 0;
#X restore 438 166 pd ms_to_samples;
#X text 266 313 pack into: start (samples) \, end (samples) \, duration
(ms);
#X text 153 279 add start offset + length in samples;
#X text 477 256 scale playback rate by # of samples to play;
#X text 21 15 /// \$1 IS SAMPLE NAME;
#X obj 45 515 throw~ \$0-out;
#X connect 0 0 1 0;
#X connect 1 0 10 0;
#X connect 2 0 7 0;
#X connect 3 0 2 1;
#X connect 4 0 19 0;
#X connect 5 0 6 0;
#X connect 6 0 11 0;
#X connect 7 0 5 0;
#X connect 10 0 2 0;
#X connect 10 1 3 0;
#X connect 10 2 18 0;
#X connect 11 0 25 0;
#X connect 13 0 3 1;
#X connect 14 0 15 0;
#X connect 14 1 13 1;
#X connect 15 0 13 0;
#X connect 16 0 4 0;
#X connect 17 0 15 0;
#X connect 18 0 11 1;
#X connect 19 0 2 2;
#X connect 19 1 20 0;
#X connect 20 0 14 0;
#X restore 966 293 pd grain;
#N canvas 32 25 794 616 grain 0;
#X obj 45 93 inlet;
#X floatatom 45 117 10 0 0 0 - - - 0;
#X obj 45 314 pack f f f, f 31;
#X obj 127 279 +;
#X floatatom 259 117 5 0 0 0 - - - 0;
#X obj 45 362 line~;
#X obj 45 467 tabread4~ clip-\$1;
#X msg 45 338 \$1 \, \$2 \$3;
#X text 14 69 start point in samples;
#X text 258 73 duration (ms);
#X obj 45 140 t f f b, f 24;
#X obj 45 491 *~, f 6;
#X text 139 172 grain playback rate %;
#X obj 145 255 *, f 47;
#X obj 438 190 t b f;
#X obj 145 231 f 1;
#X obj 259 93 r \$0-grain-dur;
#X obj 145 195 r \$0-grain-rate;
#N canvas 558 164 233 357 env 0;
#X floatatom 53 59 5 0 0 0 - - - 0;
#X obj 53 121 / 10;
#X obj 53 145 clip 5 50;
#X obj 53 169 t f f f, f 14;
#X obj 148 193 * 2;
#X obj 148 217 swap, f 5;
#X obj 148 241 -, f 5;
#X obj 32 279 ahdsr~ 0 0 0 1 0;
#X obj 53 35 r \$0-grain-dur;
#X obj 53 82 t f f, f 18;
#X obj 10 35 inlet;
#X obj 32 303 outlet~;
#X connect 0 0 9 0;
#X connect 1 0 2 0;
#X connect 2 0 3 0;
#X connect 3 0 7 1;
#X connect 3 1 7 5;
#X connect 3 2 4 0;
#X connect 4 0 5 0;
#X connect 5 0 6 0;
#X connect 5 1 6 1;
#X connect 6 0 7 3;
#X connect 7 0 11 0;
#X connect 8 0 0 0;
#X connect 9 0 1 0;
#X connect 9 1 5 1;
#X connect 10 0 7 0;
#X restore 210 362 pd env;
#X obj 259 140 t f f, f 26;
#N canvas 0 25 450 300 ms_to_samples 0;
#X obj 287 60 loadbang;
#X obj 287 84 samplerate~;
#X obj 287 108 / 1000;
#X obj 59 139 * 44.1, f 33;
#X obj 59 115 inlet;
#X obj 59 163 outlet;
#X connect 0 0 1 0;
#X connect 1 0 2 0;
#X connect 2 0 3 1;
#X connect 3 0 5 0;
#X connect 4 0 3 0;
#X restore 438 166 pd ms_to_samples;
#X text 266 313 pack into: start (samples) \, end (samples) \, duration
(ms);
#X text 153 279 add start offset + length in samples;
#X text 477 256 scale playback rate by # of samples to play;
#X text 21 15 /// \$1 IS SAMPLE NAME;
#X obj 45 515 throw~ \$0-out;
#X connect 0 0 1 0;
#X connect 1 0 10 0;
#X connect 2 0 7 0;
#X connect 3 0 2 1;
#X connect 4 0 19 0;
#X connect 5 0 6 0;
#X connect 6 0 11 0;
#X connect 7 0 5 0;
#X connect 10 0 2 0;
#X connect 10 1 3 0;
#X connect 10 2 18 0;
#X connect 11 0 25 0;
#X connect 13 0 3 1;
#X connect 14 0 15 0;
#X connect 14 1 13 1;
#X connect 15 0 13 0;
#X connect 16 0 4 0;
#X connect 17 0 15 0;
#X connect 18 0 11 1;
#X connect 19 0 2 2;
#X connect 19 1 20 0;
#X connect 20 0 14 0;
#X restore 1000 323 pd grain;
#N canvas 32 25 826 616 grain 0;
#X obj 45 93 inlet;
#X floatatom 45 117 10 0 0 0 - - - 0;
#X obj 45 314 pack f f f, f 31;
#X obj 127 279 +;
#X floatatom 259 117 5 0 0 0 - - - 0;
#X obj 45 362 line~;
#X obj 45 467 tabread4~ clip-\$1;
#X msg 45 338 \$1 \, \$2 \$3;
#X text 14 69 start point in samples;
#X text 258 73 duration (ms);
#X obj 45 140 t f f b, f 24;
#X obj 45 491 *~, f 6;
#X text 139 172 grain playback rate %;
#X obj 145 255 *, f 47;
#X obj 438 190 t b f;
#X obj 145 231 f 1;
#X obj 259 93 r \$0-grain-dur;
#X obj 145 195 r \$0-grain-rate;
#N canvas 558 164 233 357 env 0;
#X floatatom 53 59 5 0 0 0 - - - 0;
#X obj 53 121 / 10;
#X obj 53 145 clip 5 50;
#X obj 53 169 t f f f, f 14;
#X obj 148 193 * 2;
#X obj 148 217 swap, f 5;
#X obj 148 241 -, f 5;
#X obj 32 279 ahdsr~ 0 0 0 1 0;
#X obj 53 35 r \$0-grain-dur;
#X obj 53 82 t f f, f 18;
#X obj 10 35 inlet;
#X obj 32 303 outlet~;
#X connect 0 0 9 0;
#X connect 1 0 2 0;
#X connect 2 0 3 0;
#X connect 3 0 7 1;
#X connect 3 1 7 5;
#X connect 3 2 4 0;
#X connect 4 0 5 0;
#X connect 5 0 6 0;
#X connect 5 1 6 1;
#X connect 6 0 7 3;
#X connect 7 0 11 0;
#X connect 8 0 0 0;
#X connect 9 0 1 0;
#X connect 9 1 5 1;
#X connect 10 0 7 0;
#X restore 210 362 pd env;
#X obj 259 140 t f f, f 26;
#N canvas 0 25 450 300 ms_to_samples 0;
#X obj 287 60 loadbang;
#X obj 287 84 samplerate~;
#X obj 287 108 / 1000;
#X obj 59 139 * 44.1, f 33;
#X obj 59 115 inlet;
#X obj 59 163 outlet;
#X connect 0 0 1 0;
#X connect 1 0 2 0;
#X connect 2 0 3 1;
#X connect 3 0 5 0;
#X connect 4 0 3 0;
#X restore 438 166 pd ms_to_samples;
#X text 266 313 pack into: start (samples) \, end (samples) \, duration
(ms);
#X text 153 279 add start offset + length in samples;
#X text 477 256 scale playback rate by # of samples to play;
#X text 21 15 /// \$1 IS SAMPLE NAME;
#X obj 45 515 throw~ \$0-out;
#X connect 0 0 1 0;
#X connect 1 0 10 0;
#X connect 2 0 7 0;
#X connect 3 0 2 1;
#X connect 4 0 19 0;
#X connect 5 0 6 0;
#X connect 6 0 11 0;
#X connect 7 0 5 0;
#X connect 10 0 2 0;
#X connect 10 1 3 0;
#X connect 10 2 18 0;
#X connect 11 0 25 0;
#X connect 13 0 3 1;
#X connect 14 0 15 0;
#X connect 14 1 13 1;
#X connect 15 0 13 0;
#X connect 16 0 4 0;
#X connect 17 0 15 0;
#X connect 18 0 11 1;
#X connect 19 0 2 2;
#X connect 19 1 20 0;
#X connect 20 0 14 0;
#X restore 1033 353 pd grain;
#N canvas 32 25 850 616 grain 0;
#X obj 45 93 inlet;
#X floatatom 45 117 10 0 0 0 - - - 0;
#X obj 45 314 pack f f f, f 31;
#X obj 127 279 +;
#X floatatom 259 117 5 0 0 0 - - - 0;
#X obj 45 362 line~;
#X obj 45 467 tabread4~ clip-\$1;
#X msg 45 338 \$1 \, \$2 \$3;
#X text 14 69 start point in samples;
#X text 258 73 duration (ms);
#X obj 45 140 t f f b, f 24;
#X obj 45 491 *~, f 6;
#X text 139 172 grain playback rate %;
#X obj 145 255 *, f 47;
#X obj 438 190 t b f;
#X obj 145 231 f 1;
#X obj 259 93 r \$0-grain-dur;
#X obj 145 195 r \$0-grain-rate;
#N canvas 558 164 233 357 env 0;
#X floatatom 53 59 5 0 0 0 - - - 0;
#X obj 53 121 / 10;
#X obj 53 145 clip 5 50;
#X obj 53 169 t f f f, f 14;
#X obj 148 193 * 2;
#X obj 148 217 swap, f 5;
#X obj 148 241 -, f 5;
#X obj 32 279 ahdsr~ 0 0 0 1 0;
#X obj 53 35 r \$0-grain-dur;
#X obj 53 82 t f f, f 18;
#X obj 10 35 inlet;
#X obj 32 303 outlet~;
#X connect 0 0 9 0;
#X connect 1 0 2 0;
#X connect 2 0 3 0;
#X connect 3 0 7 1;
#X connect 3 1 7 5;
#X connect 3 2 4 0;
#X connect 4 0 5 0;
#X connect 5 0 6 0;
#X connect 5 1 6 1;
#X connect 6 0 7 3;
#X connect 7 0 11 0;
#X connect 8 0 0 0;
#X connect 9 0 1 0;
#X connect 9 1 5 1;
#X connect 10 0 7 0;
#X restore 210 362 pd env;
#X obj 259 140 t f f, f 26;
#N canvas 0 25 450 300 ms_to_samples 0;
#X obj 287 60 loadbang;
#X obj 287 84 samplerate~;
#X obj 287 108 / 1000;
#X obj 59 139 * 44.1, f 33;
#X obj 59 115 inlet;
#X obj 59 163 outlet;
#X connect 0 0 1 0;
#X connect 1 0 2 0;
#X connect 2 0 3 1;
#X connect 3 0 5 0;
#X connect 4 0 3 0;
#X restore 438 166 pd ms_to_samples;
#X text 266 313 pack into: start (samples) \, end (samples) \, duration
(ms);
#X text 153 279 add start offset + length in samples;
#X text 477 256 scale playback rate by # of samples to play;
#X text 21 15 /// \$1 IS SAMPLE NAME;
#X obj 45 515 throw~ \$0-out;
#X connect 0 0 1 0;
#X connect 1 0 10 0;
#X connect 2 0 7 0;
#X connect 3 0 2 1;
#X connect 4 0 19 0;
#X connect 5 0 6 0;
#X connect 6 0 11 0;
#X connect 7 0 5 0;
#X connect 10 0 2 0;
#X connect 10 1 3 0;
#X connect 10 2 18 0;
#X connect 11 0 25 0;
#X connect 13 0 3 1;
#X connect 14 0 15 0;
#X connect 14 1 13 1;
#X connect 15 0 13 0;
#X connect 16 0 4 0;
#X connect 17 0 15 0;
#X connect 18 0 11 1;
#X connect 19 0 2 2;
#X connect 19 1 20 0;
#X connect 20 0 14 0;
#X restore 1067 383 pd grain;
#X obj 221 183 s \$0-grain-dur;
#X obj 346 183 s \$0-grain-rate;
#X obj 26 187 counter 32;
#X floatatom 26 211 5 0 0 0 - - - 0;
#X obj 221 159 f 200;
#X obj 346 160 f 1;
#X obj 274 136 loadbang;
#X obj 77 430 catch~ \$0-out;
#X text 75 474 // out;
#X floatatom 581 207 10 0 0 0 - - - 0;
#X floatatom 143 223 10 0 0 0 - - - 0;
#X obj 581 183 samplecountprovider \$1;
#X obj 114 187 *;
#X text 10 8 /// TO USE: (1) initialize with creation args \$1 being
sample file name. there must also be an [audioclip~ \$1] or [__sample~
\$1] in this patch. (2) pass a float from 0 to 1 into left inlet to
play a grain at that percentage. middle inlet controls grain duration
in ms. right inlet controls grain playback rate.;
#X connect 1 0 5 0;
#X connect 3 0 46 0;
#X connect 5 0 44 0;
#X connect 5 1 54 0;
#X connect 6 0 10 0;
#X connect 8 0 47 0;
#X connect 10 0 0 0;
#X connect 10 1 11 0;
#X connect 10 2 12 0;
#X connect 10 3 13 0;
#X connect 10 4 14 0;
#X connect 10 5 15 0;
#X connect 10 6 16 0;
#X connect 10 7 17 0;
#X connect 10 8 18 0;
#X connect 10 9 19 0;
#X connect 10 10 20 0;
#X connect 10 11 21 0;
#X connect 10 12 22 0;
#X connect 10 13 23 0;
#X connect 10 14 24 0;
#X connect 10 15 25 0;
#X connect 10 16 26 0;
#X connect 10 17 27 0;
#X connect 10 18 28 0;
#X connect 10 19 29 0;
#X connect 10 20 30 0;
#X connect 10 21 31 0;
#X connect 10 22 32 0;
#X connect 10 23 33 0;
#X connect 10 24 34 0;
#X connect 10 25 35 0;
#X connect 10 26 36 0;
#X connect 10 27 37 0;
#X connect 10 28 38 0;
#X connect 10 29 39 0;
#X connect 10 30 40 0;
#X connect 10 31 41 0;
#X connect 44 0 45 0;
#X connect 45 0 6 0;
#X connect 46 0 42 0;
#X connect 47 0 43 0;
#X connect 48 0 47 0;
#X connect 48 0 46 0;
#X connect 49 0 7 0;
#X connect 51 0 54 1;
#X connect 53 0 51 0;
#X connect 54 0 6 1;
#X connect 54 0 52 0;
