#N canvas 0 38 450 432 12;
#X obj 27 217 phasor~;
#X obj 27 291 +~, f 19;
#X obj 27 345 -~, f 22;
#X obj 27 369 wrap~;
#X obj 182 241 *~;
#X obj 182 217 phasor~;
#X obj 182 305 samphold~;
#X obj 320 153 inlet;
#X obj 27 393 outlet~;
#X text 157 113 modulating freq;
#X text 23 101 carrier freq;
#X text 313 126 mod depth;
#X obj 320 177 clip 0 1;
#X text 29 23 implementation adapted from https://www.youtube.com/watch?v=L0FqIRCi0yk
;
#X obj 27 135 inlet~;
#X obj 182 137 inlet~;
#X msg 320 201 \$1 10;
#X obj 320 225 line~;
#X connect 0 0 1 0;
#X connect 0 0 6 1;
#X connect 1 0 2 0;
#X connect 2 0 3 0;
#X connect 3 0 8 0;
#X connect 4 0 6 0;
#X connect 4 0 1 1;
#X connect 5 0 4 0;
#X connect 6 0 2 1;
#X connect 7 0 12 0;
#X connect 12 0 16 0;
#X connect 14 0 0 0;
#X connect 15 0 5 0;
#X connect 16 0 17 0;
#X connect 17 0 4 1;
