#N canvas 445 168 678 577 12;
#X floatatom 161 505 10 0 0 0 - - - 0;
#X obj 290 40 inlet;
#X obj 161 528 outlet;
#X obj 161 40 inlet;
#X obj 290 245 t b f;
#X obj 161 313 f;
#X floatatom 161 64 5 0 0 0 - - - 0;
#X text 161 11 freq;
#X obj 425 43 inlet;
#X obj 425 91 clip 0 1;
#X obj 425 115 t b f;
#X floatatom 290 88 5 0 0 0 - - - 0;
#X obj 290 221 f;
#X text 411 16 percentage to apply the detune;
#X text 215 531 freq;
#X obj 214 361 *;
#X text 260 15 harmonic multiplier;
#X obj 290 64 deff \$1 1;
#X obj 425 67 deff \$2 1;
#X obj 161 337 t f f, f 8;
#X floatatom 161 386 5 0 0 0 - - - 0;
#X floatatom 214 386 5 0 0 0 - - - 0;
#X obj 457 301 t f f, f 10;
#X obj 457 325 oneminus;
#X floatatom 457 349 5 0 0 0 - - - 0;
#X floatatom 524 349 5 0 0 0 - - - 0;
#X obj 161 434 *;
#X obj 214 434 *;
#X floatatom 161 458 5 0 0 0 - - - 0;
#X floatatom 214 458 5 0 0 0 - - - 0;
#X obj 161 481 +, f 8;
#X connect 0 0 2 0;
#X connect 1 0 17 0;
#X connect 3 0 6 0;
#X connect 4 0 5 0;
#X connect 4 1 15 1;
#X connect 5 0 19 0;
#X connect 6 0 5 0;
#X connect 8 0 18 0;
#X connect 9 0 10 0;
#X connect 10 0 12 0;
#X connect 10 1 22 0;
#X connect 11 0 12 0;
#X connect 12 0 4 0;
#X connect 15 0 21 0;
#X connect 17 0 11 0;
#X connect 18 0 9 0;
#X connect 19 0 20 0;
#X connect 19 1 15 0;
#X connect 20 0 26 0;
#X connect 21 0 27 0;
#X connect 22 0 23 0;
#X connect 22 1 25 0;
#X connect 23 0 24 0;
#X connect 24 0 26 1;
#X connect 25 0 27 1;
#X connect 26 0 28 0;
#X connect 27 0 29 0;
#X connect 28 0 30 0;
#X connect 29 0 30 1;
#X connect 30 0 0 0;
