#N canvas 168 417 814 300 12;
#X obj 15 45 mspparam duration 0 3000 100;
#X obj 15 64 mspparam pitch 0 1 0.4635;
#X text 111 3 ----- hh :) -----;
#X obj 222 121 inlet;
#X obj 534 192 print UNKNOWN_PARAMETER;
#X obj 40 162 outlet;
#X obj 15 83 mspparam noisetopitchratio 0 1 0.2;
#X obj 15 26 mspparam velocity 0 1 0;
#X obj 222 145 route velocity duration pitch noisetopitchratio, f 72;
#X connect 0 0 5 0;
#X connect 1 0 5 0;
#X connect 3 0 8 0;
#X connect 6 0 5 0;
#X connect 7 0 5 0;
#X connect 8 0 7 0;
#X connect 8 1 0 0;
#X connect 8 2 1 0;
#X connect 8 3 6 0;
#X connect 8 4 4 0;
#X coords 0 -1 1 1 350 102 2 15 0;
