#N canvas 168 417 814 300 12;
#X obj 15 44 mspparam duration 0 3000 100;
#X obj 15 62 mspparam pitch 0 1 0.4635;
#X text 61 3 ----- hh :) -----;
#X obj 222 121 inlet;
#X obj 534 192 print UNKNOWN_PARAMETER;
#X obj 40 162 outlet;
#X obj 15 26 mspparam velocity 0 1 0;
#X obj 222 145 route velocity duration pitch pitchtonoise, f 72;
#X obj 15 80 mspparam pitchtonoise 0 1 0.2;
#X connect 0 0 5 0;
#X connect 1 0 5 0;
#X connect 3 0 7 0;
#X connect 6 0 5 0;
#X connect 7 0 6 0;
#X connect 7 1 0 0;
#X connect 7 2 1 0;
#X connect 7 3 8 0;
#X connect 7 4 4 0;
#X connect 8 0 5 0;
#X coords 0 -1 1 1 204 98 2 15 0;
