#N canvas 0 38 950 651 12;
#X obj 15 0 hh~.params;
#X obj 129 306 hh~.impl;
#X obj 129 330 outlet~;
#X obj 449 173 inlet;
#X connect 0 0 1 0;
#X connect 1 0 2 0;
#X connect 3 0 0 0;
#X coords 0 -1 1 1 204 98 2 15 0;
