#N canvas 0 38 1125 884 12;
#X obj 25 398 line~;
#X obj 25 736 *~, f 84;
#X obj 831 487 noise~;
#X obj 25 760 *~ 4;
#X obj 610 556 *~, f 11;
#X obj 684 492 square~;
#X obj 610 492 square~;
#X obj 610 378 t f f, f 11;
#X obj 610 620 +~, f 32;
#X obj 25 326 t b b;
#X msg 25 350 0;
#X obj 25 374 pack f f, f 12;
#X msg 57 350 1;
#X obj 106 236 deff \$1 100;
#X obj 25 808 outlet~;
#X obj 610 580 *~, f 23;
#X obj 866 283 t f f;
#X obj 898 460 sig~;
#X obj 831 511 *~, f 10;
#X obj 768 447 oneminus;
#X obj 768 471 sig~;
#X obj 684 412 t f f;
#X obj 716 436 * 100;
#X obj 610 644 hip~;
#X obj 610 668 hip~;
#X obj 610 692 hip~;
#X obj 610 284 t b f;
#X obj 610 332 f;
#X obj 610 308 del 1;
#X obj 610 402 * 0.4375;
#X obj 25 472 pow~ 9;
#X obj 610 354 scaled 0 1 5 8000;
#X obj 610 260 easeincubic;
#X obj 324 45 inlet;
#X obj 449 94 deff 100;
#X obj 449 118 s \$0-duration;
#X obj 574 94 deff 0.4635;
#X obj 574 118 clip 0 1;
#X obj 574 142 s \$0-pitch;
#X obj 699 118 clip 0 1;
#X obj 699 94 deff 0.2;
#X obj 610 212 r \$0-pitch;
#X obj 106 212 r \$0-duration;
#X obj 825 93 print UNKNOWN_PARAMETER;
#X obj 25 212 r \$0-bang;
#X obj 324 93 clip 0 1;
#X obj 324 117 t b f;
#X obj 324 141 s \$0-bang;
#X obj 384 171 s \$0-velocity;
#X obj 25 784 *~;
#X obj 99 765 r \$0-velocity;
#X obj 99 789 ramp~;
#X obj 324 69 route velocity duration pitch pitchtonoise, f 72;
#X obj 866 211 r \$0-pitchtonoise;
#X obj 699 142 s \$0-pitchtonoise;
#X connect 0 0 30 0;
#X connect 1 0 3 0;
#X connect 2 0 18 0;
#X connect 3 0 49 0;
#X connect 4 0 15 0;
#X connect 5 0 4 1;
#X connect 6 0 4 0;
#X connect 7 0 29 0;
#X connect 7 1 21 0;
#X connect 8 0 23 0;
#X connect 9 0 10 0;
#X connect 9 1 12 0;
#X connect 10 0 11 0;
#X connect 11 0 0 0;
#X connect 12 0 0 0;
#X connect 13 0 11 1;
#X connect 15 0 8 0;
#X connect 16 0 19 0;
#X connect 16 1 17 0;
#X connect 17 0 18 1;
#X connect 18 0 8 1;
#X connect 19 0 20 0;
#X connect 20 0 15 1;
#X connect 21 0 5 0;
#X connect 21 1 22 0;
#X connect 22 0 23 1;
#X connect 22 0 25 1;
#X connect 22 0 24 1;
#X connect 23 0 24 0;
#X connect 24 0 25 0;
#X connect 25 0 1 1;
#X connect 26 0 28 0;
#X connect 26 1 27 1;
#X connect 27 0 31 0;
#X connect 28 0 27 0;
#X connect 29 0 6 0;
#X connect 30 0 1 0;
#X connect 31 0 7 0;
#X connect 32 0 26 0;
#X connect 33 0 52 0;
#X connect 34 0 35 0;
#X connect 36 0 37 0;
#X connect 37 0 38 0;
#X connect 39 0 54 0;
#X connect 40 0 39 0;
#X connect 41 0 32 0;
#X connect 42 0 13 0;
#X connect 44 0 9 0;
#X connect 45 0 46 0;
#X connect 46 0 47 0;
#X connect 46 1 48 0;
#X connect 49 0 14 0;
#X connect 50 0 51 0;
#X connect 51 0 49 1;
#X connect 52 0 45 0;
#X connect 52 1 34 0;
#X connect 52 2 36 0;
#X connect 52 3 40 0;
#X connect 52 4 43 0;
#X connect 53 0 16 0;
