#N canvas 0 25 950 651 12;
#X obj 25 228 line~;
#X obj 25 566 *~, f 75;
#X obj 768 317 noise~;
#X obj 25 590 *~ 4;
#X obj 547 386 *~, f 11;
#X obj 621 322 square~;
#X obj 547 322 square~;
#X obj 547 42 inlet;
#X obj 547 208 t f f, f 11;
#X obj 547 450 +~, f 32;
#X obj 25 42 inlet;
#X obj 25 156 t b b;
#X msg 25 180 0;
#X obj 25 204 pack f f, f 12;
#X msg 57 180 1;
#X obj 106 42 inlet;
#X obj 106 66 deff \$1 100;
#X text 27 17 bang;
#X obj 25 614 outlet~;
#X obj 547 410 *~, f 23;
#X obj 803 41 inlet;
#X obj 803 89 clip 0 1;
#X obj 803 113 t f f;
#X obj 835 290 sig~;
#X obj 768 341 *~, f 10;
#X obj 705 277 oneminus;
#X obj 705 301 sig~;
#X obj 621 242 t f f;
#X obj 653 266 * 100;
#X obj 547 474 hip~;
#X obj 547 498 hip~;
#X obj 547 522 hip~;
#X obj 547 114 t b f;
#X obj 547 162 f;
#X obj 547 138 del 1;
#X obj 547 232 * 0.4375;
#X text 97 19 \$1 duration;
#X obj 25 302 pow~ 9;
#X text 540 19 \$2 pitch (0...1);
#X obj 803 65 deff \$3 0.2;
#X text 705 21 \$3 pitch-to-noise ratio (0...1);
#X obj 547 184 scaled 0 1 5 8000;
#X obj 547 90 easeincubic;
#X obj 547 66 deff \$2 0.4635;
#X connect 0 0 37 0;
#X connect 1 0 3 0;
#X connect 2 0 24 0;
#X connect 3 0 18 0;
#X connect 4 0 19 0;
#X connect 5 0 4 1;
#X connect 6 0 4 0;
#X connect 7 0 43 0;
#X connect 8 0 35 0;
#X connect 8 1 27 0;
#X connect 9 0 29 0;
#X connect 10 0 11 0;
#X connect 11 0 12 0;
#X connect 11 1 14 0;
#X connect 12 0 13 0;
#X connect 13 0 0 0;
#X connect 14 0 0 0;
#X connect 15 0 16 0;
#X connect 16 0 13 1;
#X connect 19 0 9 0;
#X connect 20 0 39 0;
#X connect 21 0 22 0;
#X connect 22 0 25 0;
#X connect 22 1 23 0;
#X connect 23 0 24 1;
#X connect 24 0 9 1;
#X connect 25 0 26 0;
#X connect 26 0 19 1;
#X connect 27 0 5 0;
#X connect 27 1 28 0;
#X connect 28 0 29 1;
#X connect 28 0 31 1;
#X connect 28 0 30 1;
#X connect 29 0 30 0;
#X connect 30 0 31 0;
#X connect 31 0 1 1;
#X connect 32 0 34 0;
#X connect 32 1 33 1;
#X connect 33 0 41 0;
#X connect 34 0 33 0;
#X connect 35 0 6 0;
#X connect 37 0 1 0;
#X connect 39 0 21 0;
#X connect 41 0 8 0;
#X connect 42 0 32 0;
#X connect 43 0 42 0;
