#N canvas 724 367 468 300 12;
#X obj 139 76 inlet~;
#X msg 211 102 \$1 10;
#X obj 211 126 line~;
#X obj 139 160 *~;
#X obj 139 184 outlet~;
#X obj 1 2 vsl 15 30 0 127 0 0 empty empty empty 0 -9 0 10 #fcfcfc
#000000 #000000 0 1;
#X obj 323 195 scaled 0 127 0 1;
#X obj 273 74 r mix_\$1 @hv_param 0 1 0;
#X text 64 7 /// GAINSTAGING CONVENIENCE ABSTRACTION FOR HV PATCHES
;
#X connect 0 0 3 0;
#X connect 1 0 2 0;
#X connect 2 0 3 1;
#X connect 3 0 4 0;
#X connect 5 0 6 0;
#X connect 6 0 1 0;
#X connect 7 0 1 0;
#X coords 0 -1 1 1 17 36 2 0 0;
