#N canvas 0 25 423 297 12;
#X obj 200 0 r \$1 @hv_param \$2 \$3 \$4;
#X floatatom 258 19 8 0 0 0 - - -;
#X obj 203 19 hsl 53 18 0 1 0 0 empty empty empty -2 -8 0 10 -262144
-1 -1 2600 1;
#X obj 200 57 outlet;
#X obj 6 4 loadbang;
#X obj 57 52 f \$2;
#X obj 110 52 f \$3;
#X obj 57 76 pack f f;
#X msg 57 100 range \$1 \$2;
#X obj 6 28 t b b b, f 15;
#X obj 6 52 f \$4;
#X msg 38 136 set \$1;
#X obj 6 76 t f f f;
#X obj 6 167 min \$3;
#X obj 6 191 max \$2;
#X connect 0 0 2 0;
#X connect 2 0 1 0;
#X connect 2 0 3 0;
#X connect 4 0 9 0;
#X connect 5 0 7 0;
#X connect 6 0 7 1;
#X connect 7 0 8 0;
#X connect 8 0 2 0;
#X connect 9 0 10 0;
#X connect 9 1 5 0;
#X connect 9 2 6 0;
#X connect 10 0 12 0;
#X connect 11 0 2 0;
#X connect 12 0 13 0;
#X connect 12 1 1 0;
#X connect 12 2 11 0;
#X connect 13 0 14 0;
#X connect 14 0 3 0;
#X coords 0 -1 1 1 116 37 1 200 0;
