#N canvas 151 188 576 535 12;
#X obj 254 185 inlet;
#X obj 254 233 bng 19 250 50 0 empty empty empty 0 -10 0 12 #fcfcfc #000000 #000000;
#X obj 308 281 f;
#X obj 308 475 spigot;
#X obj 308 499 outlet;
#X obj 146 185 inlet;
#X msg 254 281 0;
#X obj 146 209 t b f, f 23;
#X msg 146 233 1;
#X text 20 6 /// SEND A FLOAT TO LEFT INLET TO CACHE IT.;
#X text 20 136 /// BANG MIDDLE INLET TO CLEAR STATE WITHOUT OUTPUTTING ANYTHING.;
#X obj 201 185 inlet;
#X obj 201 233 bng 19 250 50 0 empty empty empty 0 -10 0 12 #fcfcfc #000000 #000000;
#X obj 363 396 f;
#X obj 254 258 t b b b, f 16;
#X obj 363 420 outlet;
#X text 20 26 /// BANG RIGHT INLET TO RETURN THE FLOAT FROM LEFT OUTLET.;
#X text 20 46 /// LEFT OUTLET WILL ONLY OUTPUT SOMETHING IF LEFT INLET HAD BEEN SET SINCE LAST BANG OF RIGHT INLET.;
#X text 20 86 /// UPON BANG OF RIGHT INLET \, RIGHT OUTLET WILL ALWAYS OUTPUT 1 OR 0 \, CORRESPONDING WITH WHETHER LEFT OUTLET RETURNED ANYTHING OR NOT.;
#X connect 0 0 1 0;
#X connect 1 0 14 0;
#X connect 2 0 3 0;
#X connect 3 0 4 0;
#X connect 5 0 7 0;
#X connect 6 0 3 1;
#X connect 6 0 13 1;
#X connect 7 0 8 0;
#X connect 7 1 2 1;
#X connect 8 0 3 1;
#X connect 8 0 13 1;
#X connect 11 0 12 0;
#X connect 12 0 6 0;
#X connect 13 0 15 0;
#X connect 14 0 6 0;
#X connect 14 1 2 0;
#X connect 14 2 13 0;
