#N canvas 480 86 450 572 12;
#X text 132 17 (v - a) / (b - a);
#X floatatom 202 119 5 0 0 0 - - - 0;
#X floatatom 269 119 5 0 0 0 - - - 0;
#X floatatom 123 120 5 0 0 0 - - - 0;
#X obj 202 142 t b f;
#X obj 269 142 t b f;
#X obj 123 143 t b f;
#X obj 19 161 s \$0-bang;
#X obj 234 167 s \$0-a;
#X obj 301 167 s \$0-b;
#X obj 155 167 s \$0-v;
#X obj 154 326 r \$0-a;
#X obj 221 326 r \$0-b;
#X obj 295 326 r \$0-v;
#X obj 154 350 fbank2;
#X obj 221 350 fbank2;
#X obj 295 350 fbank2;
#X obj 20 238 r \$0-bang;
#X obj 20 262 t b b b, f 14;
#X obj 20 286 t b b;
#X obj 67 286 t b b;
#X obj 115 286 t b b;
#X obj 171 443 -;
#X obj 153 467 f;
#X obj 279 428 -;
#X obj 261 457 f;
#X obj 153 491 /, f 15;
#X floatatom 153 515 5 0 0 0 - - - 0;
#X obj 153 538 outlet;
#X obj 202 55 inlet a;
#X obj 269 55 inlet b;
#X obj 123 56 inlet v;
#X obj 123 80 f;
#X obj 202 79 deff \$1 0;
#X obj 269 79 deff \$2 0;
#X connect 1 0 4 0;
#X connect 2 0 5 0;
#X connect 3 0 6 0;
#X connect 4 0 7 0;
#X connect 4 1 8 0;
#X connect 5 0 7 0;
#X connect 5 1 9 0;
#X connect 6 0 7 0;
#X connect 6 1 10 0;
#X connect 11 0 14 0;
#X connect 12 0 15 0;
#X connect 13 0 16 0;
#X connect 14 1 24 1;
#X connect 14 2 22 1;
#X connect 15 2 24 0;
#X connect 16 2 22 0;
#X connect 17 0 18 0;
#X connect 18 0 19 0;
#X connect 18 1 20 0;
#X connect 18 2 21 0;
#X connect 19 0 23 0;
#X connect 19 1 25 0;
#X connect 20 0 15 2;
#X connect 20 1 14 1;
#X connect 21 0 16 2;
#X connect 21 1 14 2;
#X connect 22 0 23 1;
#X connect 23 0 26 0;
#X connect 24 0 25 1;
#X connect 25 0 26 1;
#X connect 26 0 27 0;
#X connect 27 0 28 0;
#X connect 29 0 33 0;
#X connect 30 0 34 0;
#X connect 31 0 32 0;
#X connect 32 0 3 0;
#X connect 33 0 1 0;
#X connect 34 0 2 0;
