#N canvas 63 101 1084 515 12;
#X obj 244 164 inlet;
#X obj 244 364 unpack f f f f, f 18;
#X obj 624 164 inlet;
#X obj 624 212 clip 0 3;
#X obj 624 236 sel 0 1 2 3, f 48;
#X obj 467 383 +;
#X obj 498 383 +;
#X obj 530 383 +;
#X obj 562 383 +;
#X obj 467 407 pack f f f f, f 14;
#X obj 467 431 outlet;
#X msg 624 260 0 0 0 0;
#X obj 624 284 unpack f f f f;
#X msg 707 260 12 0 0 0;
#X msg 790 260 12 12 0 0;
#X msg 873 260 12 12 12 0;
#X text 225 135 output of [chord];
#X text 582 135 inversion # (0...3);
#X obj 254 188 bng 15 250 50 0 empty empty empty 17 7 0 10 #fcfcfc
#000000 #000000;
#X text 109 204 note that these connections were made in a deliberate
order \; didn't use a [t] because of hvcc limitations;
#X obj 624 188 i \$1;
#X connect 0 0 1 0;
#X connect 0 0 18 0;
#X connect 1 0 5 1;
#X connect 1 1 6 1;
#X connect 1 2 7 1;
#X connect 1 3 8 1;
#X connect 2 0 20 0;
#X connect 3 0 4 0;
#X connect 4 0 11 0;
#X connect 4 1 13 0;
#X connect 4 2 14 0;
#X connect 4 3 15 0;
#X connect 5 0 9 0;
#X connect 6 0 9 1;
#X connect 7 0 9 2;
#X connect 8 0 9 3;
#X connect 9 0 10 0;
#X connect 11 0 12 0;
#X connect 12 0 5 0;
#X connect 12 1 6 0;
#X connect 12 2 7 0;
#X connect 12 3 8 0;
#X connect 13 0 12 0;
#X connect 14 0 12 0;
#X connect 15 0 12 0;
#X connect 18 0 20 0;
#X connect 20 0 3 0;
