#N canvas 0 23 450 369 12;
#X obj 21 120 f;
#X obj 21 144 == 0;
#X obj 21 168 sel 1, f 44;
#X msg 149 247 1;
#X obj 21 212 t b b;
#X obj 21 75 inlet;
#X obj 21 324 outlet;
#X obj 21 99 bng 15 250 50 0 empty empty empty 17 7 0 10 -262144 -1
-1;
#X obj 191 75 inlet;
#X msg 191 99 0;
#X text 11 6 /// BANG LEFT INLET. OUTPUTS A BANG ON LEFT OUTLET IF
THIS IS THE FIRST BANG WE HAVE RECEIVED \, AND A BANG ON THE RIGHT
OUTLET OTHERWISE. RESET STATE BY BANGING THE RIGHT INLET.;
#X obj 326 324 outlet;
#X obj 326 197 bng 15 250 50 0 empty empty empty 17 7 0 10 -262144
-1 -1;
#X obj 21 192 bng 15 250 50 0 empty empty empty 17 7 0 10 -262144 -1
-1;
#X connect 0 0 1 0;
#X connect 1 0 2 0;
#X connect 2 0 13 0;
#X connect 2 1 12 0;
#X connect 3 0 0 1;
#X connect 4 0 6 0;
#X connect 4 1 3 0;
#X connect 5 0 7 0;
#X connect 7 0 0 0;
#X connect 8 0 9 0;
#X connect 9 0 0 1;
#X connect 12 0 11 0;
#X connect 13 0 4 0;
