#N canvas 662 374 433 208 12;
#X obj 191 70 inlet;
#X obj 191 94 > 0;
#X obj 191 118 sel 1, f 10;
#X obj 191 142 bng 15 250 50 0 empty empty empty 17 7 0 10 #fcfcfc
#000000 #000000;
#X obj 258 142 bng 15 250 50 0 empty empty empty 17 7 0 10 #fcfcfc
#000000 #000000;
#X obj 191 162 outlet;
#X obj 258 162 outlet;
#X text 9 14 /// BANGS LEFT OUTLET IF INLET IS GREATER THAN ZERO \,
AND RIGHT INLET OTHERWISE;
#X connect 0 0 1 0;
#X connect 1 0 2 0;
#X connect 2 0 3 0;
#X connect 2 1 4 0;
#X connect 3 0 5 0;
#X connect 4 0 6 0;
