#N canvas 52 294 717 475 12;
#X obj 25 359 *~, f 13;
#X obj 119 263 noise~;
#X obj 25 161 inlet;
#X obj 25 447 outlet~;
#X obj 25 185 bng 15 250 50 0 empty empty empty 17 7 0 10 #fcfcfc #000000
#000000;
#X obj 258 161 inlet;
#X obj 333 161 inlet;
#X obj 226 263 *~ \$1;
#X obj 119 287 vcf~ \$2, f 31;
#X obj 25 335 *~;
#X obj 333 185 max 1;
#X obj 226 239 envgen~ 0.1 20 0.4 10 1 20 0 20;
#X text 10 8 /// INITIALIZE WITH \$1 BEING MAX HZ OF BP FILTER \; ///
CUTOFF (VALUES BETWEEN 100 AND 2000 SEEM GOOD) \; /// AND \$2 BEING
Q OF FILTER (AT LOWER CUTOFFS \, \; /// A VALUE OF ~10 SEEMS GOOD \,
AND AT HIGHER \; /// CUTOFFS \, A VALUE OF 1 OR 2 SEEMS GOOD). \; ///
SET \$1 AND \$2 AT RUNTIME WITH SECOND AND \; /// THIRD INLET \, RESPECTIVELY.
\; /// BANG FIRST INLET TO GENERATE A FOOTSTEP \; /// SOUND.;
#X obj 522 356 *~;
#X obj 608 318 vcf~ 182 3;
#X obj 635 247 loadbang;
#X msg 635 271 182;
#X msg 674 272 3;
#X obj 25 215 t b b b, f 58;
#X obj 428 318 envgen~ 1 1 0.2 2 0 2;
#X obj 522 380 *~ 0.15;
#X obj 25 383 hip~ 5000;
#X obj 585 281 noise~;
#X obj 25 311 envgen~ 1 5 0.4 20 0 200;
#X connect 0 0 21 0;
#X connect 1 0 8 0;
#X connect 2 0 4 0;
#X connect 4 0 18 0;
#X connect 5 0 7 1;
#X connect 6 0 10 0;
#X connect 7 0 8 1;
#X connect 8 0 0 1;
#X connect 9 0 0 0;
#X connect 10 0 8 2;
#X connect 11 0 7 0;
#X connect 13 0 20 0;
#X connect 14 0 13 1;
#X connect 15 0 16 0;
#X connect 16 0 14 1;
#X connect 17 0 14 2;
#X connect 18 0 23 0;
#X connect 18 1 11 0;
#X connect 18 2 19 0;
#X connect 19 0 13 0;
#X connect 20 0 3 0;
#X connect 21 0 3 0;
#X connect 22 0 14 0;
#X connect 23 0 9 0;
#X connect 23 0 9 1;
