#N canvas 121 159 645 481 12;
#X obj 2 25 mspparam frequency 0 400;
#X obj 2 81 mspparam attack;
#X obj 2 100 mspparam decay;
#X obj 2 119 mspparam shape;
#X obj 2 44 mspparam range;
#X obj 2 355 outlet;
#X obj 2 157 mspparam velocity;
#X obj 181 201 inlet;
#X obj 181 225 route frequency range attack decay shape velocity;
#X text 111 3 ----- kick :) -----;
#X connect 0 0 5 0;
#X connect 1 0 5 0;
#X connect 2 0 5 0;
#X connect 3 0 5 0;
#X connect 4 0 5 0;
#X connect 6 0 5 0;
#X connect 7 0 8 0;
#X connect 8 0 0 0;
#X connect 8 1 4 0;
#X connect 8 2 1 0;
#X connect 8 3 2 0;
#X connect 8 4 3 0;
#X connect 8 5 6 0;
#X coords 0 -1 1 1 351 175 2 1 1;
