#N canvas 278 79 1148 768 12;
#X obj 37 687 outlet~;
#X obj 37 339 pow~, f 33;
#X obj 37 363 *~, f 45;
#X obj 384 363 ramp~;
#X obj 37 427 osc~;
#X obj 172 39 inlet;
#X obj 265 305 ramp~;
#X obj 963 142 print UNKNOWN_PARAMETER;
#X obj 172 87 s \$0-frequency;
#X obj 384 339 r \$0-frequency;
#X obj 296 135 s \$0-attack;
#X obj 78 281 r \$0-attack;
#X obj 420 135 s \$0-decay;
#X obj 545 135 s \$0-shape;
#X obj 161 281 r \$0-decay;
#X obj 265 281 r \$0-shape;
#X obj 37 387 +~, f 50;
#X obj 669 134 s \$0-range;
#X obj 349 305 ramp~;
#X obj 349 281 r \$0-range;
#X obj 669 86 easeincubic;
#X obj 37 451 *~, f 93;
#X obj 516 182 r \$0-bang;
#X obj 744 358 r \$0-attack;
#X obj 860 358 r \$0-decay;
#X obj 793 87 clip 0 1;
#X obj 867 159 s \$0-velocity;
#X obj 55 475 r \$0-velocity;
#X obj 37 523 *~;
#X obj 793 135 t b f, f 11;
#X obj 793 159 s \$0-bang;
#X text 18 10 /// TRIGGERS WHEN VELOCITY IS SET;
#X obj 55 499 sig~;
#X obj 377 11 loadbang;
#X msg 377 35 0;
#X obj 545 87 easeincubic;
#X obj 420 111 scaled 0 1 5 1000;
#X obj 545 111 scaled 0 1 1 250;
#X obj 296 87 easeincubic;
#X obj 420 87 easeincubic;
#X obj 37 305 ahdsr~ 5 5 50 0 5, f 30;
#X obj 686 382 ahdsr~ 5 5 50 0 5, f 42;
#X obj 296 111 scaled 0 1 1 15;
#X obj 517 376 *~;
#X obj 518 331 noise~;
#X obj 518 355 *~ 0.0025;
#X obj 727 433 pow~ 20;
#X obj 669 110 scaled 0 1 0 400;
#X obj 71 555 wavefolder~;
#X obj 208 492 loadbang;
#X obj 172 63 route frequency attack decay shape range velocity fold
, f 125;
#X obj 919 111 s \$0-fold;
#X obj 605 520 r \$0-fold;
#X obj 764 538 r \$0-attack;
#X obj 880 538 r \$0-decay;
#X obj 516 206 t b b b, f 9;
#X obj 706 562 ahdsr~ 5 5 50 0 5, f 42;
#X obj 605 544 ramp~;
#X obj 605 568 *~;
#X obj 656 593 oneminus~;
#X obj 39 659 *~;
#X obj 75 659 *~;
#X obj 919 87 scaled 0 1 0 0.5;
#X msg 208 516 wet 1 \, dry 0 \, foldamount 0.535;
#X connect 1 0 2 0;
#X connect 2 0 16 0;
#X connect 3 0 16 1;
#X connect 4 0 21 0;
#X connect 5 0 50 0;
#X connect 6 0 1 1;
#X connect 9 0 3 0;
#X connect 11 0 40 1;
#X connect 14 0 40 3;
#X connect 15 0 6 0;
#X connect 16 0 4 0;
#X connect 18 0 2 1;
#X connect 19 0 18 0;
#X connect 20 0 47 0;
#X connect 21 0 28 0;
#X connect 22 0 55 0;
#X connect 23 0 41 1;
#X connect 24 0 41 3;
#X connect 25 0 29 0;
#X connect 27 0 32 0;
#X connect 28 0 48 0;
#X connect 28 0 60 0;
#X connect 29 0 30 0;
#X connect 29 1 26 0;
#X connect 32 0 28 1;
#X connect 33 0 34 0;
#X connect 34 0 39 0;
#X connect 34 0 38 0;
#X connect 35 0 37 0;
#X connect 36 0 12 0;
#X connect 37 0 13 0;
#X connect 38 0 42 0;
#X connect 39 0 36 0;
#X connect 40 0 1 0;
#X connect 41 0 21 1;
#X connect 41 0 46 0;
#X connect 42 0 10 0;
#X connect 43 0 28 0;
#X connect 44 0 45 0;
#X connect 45 0 43 0;
#X connect 46 0 43 1;
#X connect 47 0 17 0;
#X connect 48 0 61 0;
#X connect 49 0 63 0;
#X connect 50 0 8 0;
#X connect 50 1 38 0;
#X connect 50 2 39 0;
#X connect 50 3 35 0;
#X connect 50 4 20 0;
#X connect 50 5 25 0;
#X connect 50 6 62 0;
#X connect 50 7 7 0;
#X connect 52 0 57 0;
#X connect 53 0 56 1;
#X connect 54 0 56 3;
#X connect 55 0 41 0;
#X connect 55 1 56 0;
#X connect 55 2 40 0;
#X connect 56 0 58 1;
#X connect 57 0 58 0;
#X connect 57 0 59 0;
#X connect 58 0 61 1;
#X connect 59 0 60 1;
#X connect 60 0 0 0;
#X connect 61 0 0 0;
#X connect 62 0 51 0;
#X connect 63 0 48 1;
