#N canvas 348 252 1037 502 12;
#X obj 37 467 outlet~;
#X obj 37 259 pow~, f 31;
#X obj 37 283 *~, f 41;
#X obj 387 273 ramp~;
#X obj 37 347 osc~;
#X obj 172 39 inlet;
#X obj 260 229 ramp~;
#X obj 829 138 print UNKNOWN_PARAMETER;
#X obj 172 93 s \$0-frequency;
#X obj 388 245 r \$0-frequency;
#X obj 297 112 s \$0-attack;
#X obj 68 200 r \$0-attack;
#X obj 420 112 s \$0-decay;
#X obj 545 135 s \$0-shape;
#X obj 158 200 r \$0-decay;
#X obj 249 199 r \$0-shape;
#X obj 37 307 +~, f 50;
#X obj 660 146 s \$0-range;
#X obj 338 237 ramp~;
#X obj 339 209 r \$0-range;
#X obj 671 86 easeincubic;
#X obj 37 371 *~, f 103;
#X obj 20 179 r \$0-bang;
#X obj 666 267 r \$0-bang;
#X obj 742 270 r \$0-attack;
#X obj 832 270 r \$0-decay;
#X obj 297 88 scaled 0 1 5 100;
#X obj 172 63 route frequency attack decay shape range velocity, f
107;
#X obj 799 87 clip 0 1;
#X obj 844 198 s \$0-velocity;
#X obj 134 400 r \$0-velocity;
#X obj 37 395 *~;
#X obj 788 172 t b f;
#X obj 765 204 s \$0-bang;
#X text 18 10 /// TRIGGERS WHEN VELOCITY IS SET;
#X obj 134 424 sig~;
#X obj 665 113 scaled 0 1 0 2000;
#X obj 517 170 loadbang;
#X msg 517 194 0;
#X obj 37 225 ahdsr~ 5 5 50 0 50, f 25;
#X obj 686 302 ahdsr~ 5 5 50 0 50, f 42;
#X obj 545 87 easeincubic;
#X obj 420 88 scaled 0 1 5 1000;
#X obj 545 111 scaled 0 1 1 250;
#X connect 1 0 2 0;
#X connect 2 0 16 0;
#X connect 3 0 16 1;
#X connect 4 0 21 0;
#X connect 5 0 27 0;
#X connect 6 0 1 1;
#X connect 9 0 3 0;
#X connect 11 0 39 1;
#X connect 14 0 39 3;
#X connect 15 0 6 0;
#X connect 16 0 4 0;
#X connect 18 0 2 1;
#X connect 19 0 18 0;
#X connect 20 0 36 0;
#X connect 21 0 31 0;
#X connect 22 0 39 0;
#X connect 23 0 40 0;
#X connect 24 0 40 1;
#X connect 25 0 40 3;
#X connect 26 0 10 0;
#X connect 27 0 8 0;
#X connect 27 1 26 0;
#X connect 27 2 42 0;
#X connect 27 3 41 0;
#X connect 27 4 20 0;
#X connect 27 5 28 0;
#X connect 27 6 7 0;
#X connect 28 0 32 0;
#X connect 30 0 35 0;
#X connect 31 0 0 0;
#X connect 32 0 33 0;
#X connect 32 1 29 0;
#X connect 35 0 31 1;
#X connect 36 0 17 0;
#X connect 37 0 38 0;
#X connect 38 0 26 0;
#X connect 38 0 42 0;
#X connect 39 0 1 0;
#X connect 40 0 21 1;
#X connect 41 0 43 0;
#X connect 42 0 12 0;
#X connect 43 0 13 0;
