#N canvas 0 38 1512 884 12;
#X obj 0 192 unpack f f f f f f f f f f f f f f f f f f f f f f f f
f f f f f f f f f f f f f f f f f f f f f f f f f f f f f f f f f f
f f f f f f f f f f f f f f f f f f f f f f f f f f f f f f f f f f
f f f f f f f f f f f f f f f f f f f f f f f f f f f f f f f f f f
f f f f f f f f f f f f f f f f f f f f f f f f f f f f f f f f f f
f f f f f f f f f f f f f f f f f f f f f f f f f f f f f f f f f f
f f f f f f f f f f f f f f f f f f f f f f f f f f f f f f f f f f
f f f f f f f f f f f f f f f f f f f f f f f f f f f f, f 766;
#X obj 261 539 bng 15 250 50 0 empty empty empty 17 7 0 10 #fcfcfc
#000000 #000000;
#X obj 281 539 bng 15 250 50 0 empty empty empty 17 7 0 10 #fcfcfc
#000000 #000000;
#X obj 301 539 bng 15 250 50 0 empty empty empty 17 7 0 10 #fcfcfc
#000000 #000000;
#X obj 321 539 bng 15 250 50 0 empty empty empty 17 7 0 10 #fcfcfc
#000000 #000000;
#X obj 341 539 bng 15 250 50 0 empty empty empty 17 7 0 10 #fcfcfc
#000000 #000000;
#X obj 361 539 bng 15 250 50 0 empty empty empty 17 7 0 10 #fcfcfc
#000000 #000000;
#X obj 381 539 bng 15 250 50 0 empty empty empty 17 7 0 10 #fcfcfc
#000000 #000000;
#X obj 401 539 bng 15 250 50 0 empty empty empty 17 7 0 10 #fcfcfc
#000000 #000000;
#X obj 421 539 bng 15 250 50 0 empty empty empty 17 7 0 10 #fcfcfc
#000000 #000000;
#X obj 441 539 bng 15 250 50 0 empty empty empty 17 7 0 10 #fcfcfc
#000000 #000000;
#X obj 461 539 bng 15 250 50 0 empty empty empty 17 7 0 10 #fcfcfc
#000000 #000000;
#X obj 481 539 bng 15 250 50 0 empty empty empty 17 7 0 10 #fcfcfc
#000000 #000000;
#X obj 501 539 bng 15 250 50 0 empty empty empty 17 7 0 10 #fcfcfc
#000000 #000000;
#X obj 521 539 bng 15 250 50 0 empty empty empty 17 7 0 10 #fcfcfc
#000000 #000000;
#X obj 541 539 bng 15 250 50 0 empty empty empty 17 7 0 10 #fcfcfc
#000000 #000000;
#X obj 561 539 bng 15 250 50 0 empty empty empty 17 7 0 10 #fcfcfc
#000000 #000000;
#X obj 581 539 bng 15 250 50 0 empty empty empty 17 7 0 10 #fcfcfc
#000000 #000000;
#X obj 601 539 bng 15 250 50 0 empty empty empty 17 7 0 10 #fcfcfc
#000000 #000000;
#X obj 621 539 bng 15 250 50 0 empty empty empty 17 7 0 10 #fcfcfc
#000000 #000000;
#X obj 641 539 bng 15 250 50 0 empty empty empty 17 7 0 10 #fcfcfc
#000000 #000000;
#X obj 661 539 bng 15 250 50 0 empty empty empty 17 7 0 10 #fcfcfc
#000000 #000000;
#X obj 681 539 bng 15 250 50 0 empty empty empty 17 7 0 10 #fcfcfc
#000000 #000000;
#X obj 701 539 bng 15 250 50 0 empty empty empty 17 7 0 10 #fcfcfc
#000000 #000000;
#X obj 721 539 bng 15 250 50 0 empty empty empty 17 7 0 10 #fcfcfc
#000000 #000000;
#X obj 741 539 bng 15 250 50 0 empty empty empty 17 7 0 10 #fcfcfc
#000000 #000000;
#X obj 761 539 bng 15 250 50 0 empty empty empty 17 7 0 10 #fcfcfc
#000000 #000000;
#X obj 781 539 bng 15 250 50 0 empty empty empty 17 7 0 10 #fcfcfc
#000000 #000000;
#X obj 801 539 bng 15 250 50 0 empty empty empty 17 7 0 10 #fcfcfc
#000000 #000000;
#X obj 821 539 bng 15 250 50 0 empty empty empty 17 7 0 10 #fcfcfc
#000000 #000000;
#X obj 841 539 bng 15 250 50 0 empty empty empty 17 7 0 10 #fcfcfc
#000000 #000000;
#X obj 861 539 bng 15 250 50 0 empty empty empty 17 7 0 10 #fcfcfc
#000000 #000000;
#X obj 881 539 bng 15 250 50 0 empty empty empty 17 7 0 10 #fcfcfc
#000000 #000000;
#X obj 901 539 bng 15 250 50 0 empty empty empty 17 7 0 10 #fcfcfc
#000000 #000000;
#X obj 921 539 bng 15 250 50 0 empty empty empty 17 7 0 10 #fcfcfc
#000000 #000000;
#X obj 941 539 bng 15 250 50 0 empty empty empty 17 7 0 10 #fcfcfc
#000000 #000000;
#X obj 961 539 bng 15 250 50 0 empty empty empty 17 7 0 10 #fcfcfc
#000000 #000000;
#X obj 981 539 bng 15 250 50 0 empty empty empty 17 7 0 10 #fcfcfc
#000000 #000000;
#X obj 1001 539 bng 15 250 50 0 empty empty empty 17 7 0 10 #fcfcfc
#000000 #000000;
#X obj 1021 539 bng 15 250 50 0 empty empty empty 17 7 0 10 #fcfcfc
#000000 #000000;
#X obj 1041 539 bng 15 250 50 0 empty empty empty 17 7 0 10 #fcfcfc
#000000 #000000;
#X obj 1061 539 bng 15 250 50 0 empty empty empty 17 7 0 10 #fcfcfc
#000000 #000000;
#X obj 1081 539 bng 15 250 50 0 empty empty empty 17 7 0 10 #fcfcfc
#000000 #000000;
#X obj 1101 539 bng 15 250 50 0 empty empty empty 17 7 0 10 #fcfcfc
#000000 #000000;
#X obj 1121 539 bng 15 250 50 0 empty empty empty 17 7 0 10 #fcfcfc
#000000 #000000;
#X obj 1141 539 bng 15 250 50 0 empty empty empty 17 7 0 10 #fcfcfc
#000000 #000000;
#X obj 1161 539 bng 15 250 50 0 empty empty empty 17 7 0 10 #fcfcfc
#000000 #000000;
#X obj 1181 539 bng 15 250 50 0 empty empty empty 17 7 0 10 #fcfcfc
#000000 #000000;
#X obj 1201 539 bng 15 250 50 0 empty empty empty 17 7 0 10 #fcfcfc
#000000 #000000;
#X obj 1221 539 bng 15 250 50 0 empty empty empty 17 7 0 10 #fcfcfc
#000000 #000000;
#X obj 1241 539 bng 15 250 50 0 empty empty empty 17 7 0 10 #fcfcfc
#000000 #000000;
#X obj 1261 539 bng 15 250 50 0 empty empty empty 17 7 0 10 #fcfcfc
#000000 #000000;
#X obj 1281 539 bng 15 250 50 0 empty empty empty 17 7 0 10 #fcfcfc
#000000 #000000;
#X obj 1301 539 bng 15 250 50 0 empty empty empty 17 7 0 10 #fcfcfc
#000000 #000000;
#X obj 1321 539 bng 15 250 50 0 empty empty empty 17 7 0 10 #fcfcfc
#000000 #000000;
#X obj 1341 539 bng 15 250 50 0 empty empty empty 17 7 0 10 #fcfcfc
#000000 #000000;
#X obj 1361 539 bng 15 250 50 0 empty empty empty 17 7 0 10 #fcfcfc
#000000 #000000;
#X obj 1381 539 bng 15 250 50 0 empty empty empty 17 7 0 10 #fcfcfc
#000000 #000000;
#X obj 1401 539 bng 15 250 50 0 empty empty empty 17 7 0 10 #fcfcfc
#000000 #000000;
#X obj 1421 539 bng 15 250 50 0 empty empty empty 17 7 0 10 #fcfcfc
#000000 #000000;
#X obj 1441 539 bng 15 250 50 0 empty empty empty 17 7 0 10 #fcfcfc
#000000 #000000;
#X obj 1461 539 bng 15 250 50 0 empty empty empty 17 7 0 10 #fcfcfc
#000000 #000000;
#X obj 1481 539 bng 15 250 50 0 empty empty empty 17 7 0 10 #fcfcfc
#000000 #000000;
#X obj 1501 539 bng 15 250 50 0 empty empty empty 17 7 0 10 #fcfcfc
#000000 #000000;
#X obj 1521 539 bng 15 250 50 0 empty empty empty 17 7 0 10 #fcfcfc
#000000 #000000;
#X obj 1541 539 bng 15 250 50 0 empty empty empty 17 7 0 10 #fcfcfc
#000000 #000000;
#X obj 1561 539 bng 15 250 50 0 empty empty empty 17 7 0 10 #fcfcfc
#000000 #000000;
#X obj 1581 539 bng 15 250 50 0 empty empty empty 17 7 0 10 #fcfcfc
#000000 #000000;
#X obj 1601 539 bng 15 250 50 0 empty empty empty 17 7 0 10 #fcfcfc
#000000 #000000;
#X obj 1621 539 bng 15 250 50 0 empty empty empty 17 7 0 10 #fcfcfc
#000000 #000000;
#X obj 1641 539 bng 15 250 50 0 empty empty empty 17 7 0 10 #fcfcfc
#000000 #000000;
#X obj 1661 539 bng 15 250 50 0 empty empty empty 17 7 0 10 #fcfcfc
#000000 #000000;
#X obj 1681 539 bng 15 250 50 0 empty empty empty 17 7 0 10 #fcfcfc
#000000 #000000;
#X obj 1701 539 bng 15 250 50 0 empty empty empty 17 7 0 10 #fcfcfc
#000000 #000000;
#X obj 1721 539 bng 15 250 50 0 empty empty empty 17 7 0 10 #fcfcfc
#000000 #000000;
#X obj 1741 539 bng 15 250 50 0 empty empty empty 17 7 0 10 #fcfcfc
#000000 #000000;
#X obj 1761 539 bng 15 250 50 0 empty empty empty 17 7 0 10 #fcfcfc
#000000 #000000;
#X obj 1781 539 bng 15 250 50 0 empty empty empty 17 7 0 10 #fcfcfc
#000000 #000000;
#X obj 1801 539 bng 15 250 50 0 empty empty empty 17 7 0 10 #fcfcfc
#000000 #000000;
#X obj 1821 539 bng 15 250 50 0 empty empty empty 17 7 0 10 #fcfcfc
#000000 #000000;
#X obj 1841 539 bng 15 250 50 0 empty empty empty 17 7 0 10 #fcfcfc
#000000 #000000;
#X obj 1861 539 bng 15 250 50 0 empty empty empty 17 7 0 10 #fcfcfc
#000000 #000000;
#X obj 1881 539 bng 15 250 50 0 empty empty empty 17 7 0 10 #fcfcfc
#000000 #000000;
#X obj 1901 539 bng 15 250 50 0 empty empty empty 17 7 0 10 #fcfcfc
#000000 #000000;
#X obj 1921 539 bng 15 250 50 0 empty empty empty 17 7 0 10 #fcfcfc
#000000 #000000;
#X obj 1941 539 bng 15 250 50 0 empty empty empty 17 7 0 10 #fcfcfc
#000000 #000000;
#X obj 1961 539 bng 15 250 50 0 empty empty empty 17 7 0 10 #fcfcfc
#000000 #000000;
#X obj 1981 539 bng 15 250 50 0 empty empty empty 17 7 0 10 #fcfcfc
#000000 #000000;
#X obj 2001 539 bng 15 250 50 0 empty empty empty 17 7 0 10 #fcfcfc
#000000 #000000;
#X obj 2021 539 bng 15 250 50 0 empty empty empty 17 7 0 10 #fcfcfc
#000000 #000000;
#X obj 2041 539 bng 15 250 50 0 empty empty empty 17 7 0 10 #fcfcfc
#000000 #000000;
#X obj 2061 539 bng 15 250 50 0 empty empty empty 17 7 0 10 #fcfcfc
#000000 #000000;
#X obj 2081 539 bng 15 250 50 0 empty empty empty 17 7 0 10 #fcfcfc
#000000 #000000;
#X obj 2101 539 bng 15 250 50 0 empty empty empty 17 7 0 10 #fcfcfc
#000000 #000000;
#X obj 2121 539 bng 15 250 50 0 empty empty empty 17 7 0 10 #fcfcfc
#000000 #000000;
#X obj 2141 539 bng 15 250 50 0 empty empty empty 17 7 0 10 #fcfcfc
#000000 #000000;
#X obj 2161 539 bng 15 250 50 0 empty empty empty 17 7 0 10 #fcfcfc
#000000 #000000;
#X obj 2181 539 bng 15 250 50 0 empty empty empty 17 7 0 10 #fcfcfc
#000000 #000000;
#X obj 2201 539 bng 15 250 50 0 empty empty empty 17 7 0 10 #fcfcfc
#000000 #000000;
#X obj 2221 539 bng 15 250 50 0 empty empty empty 17 7 0 10 #fcfcfc
#000000 #000000;
#X obj 2241 539 bng 15 250 50 0 empty empty empty 17 7 0 10 #fcfcfc
#000000 #000000;
#X obj 2261 539 bng 15 250 50 0 empty empty empty 17 7 0 10 #fcfcfc
#000000 #000000;
#X obj 2281 539 bng 15 250 50 0 empty empty empty 17 7 0 10 #fcfcfc
#000000 #000000;
#X obj 2301 539 bng 15 250 50 0 empty empty empty 17 7 0 10 #fcfcfc
#000000 #000000;
#X obj 2321 539 bng 15 250 50 0 empty empty empty 17 7 0 10 #fcfcfc
#000000 #000000;
#X obj 2341 539 bng 15 250 50 0 empty empty empty 17 7 0 10 #fcfcfc
#000000 #000000;
#X obj 2361 539 bng 15 250 50 0 empty empty empty 17 7 0 10 #fcfcfc
#000000 #000000;
#X obj 2381 539 bng 15 250 50 0 empty empty empty 17 7 0 10 #fcfcfc
#000000 #000000;
#X obj 2401 539 bng 15 250 50 0 empty empty empty 17 7 0 10 #fcfcfc
#000000 #000000;
#X obj 2421 539 bng 15 250 50 0 empty empty empty 17 7 0 10 #fcfcfc
#000000 #000000;
#X obj 2441 539 bng 15 250 50 0 empty empty empty 17 7 0 10 #fcfcfc
#000000 #000000;
#X obj 2461 539 bng 15 250 50 0 empty empty empty 17 7 0 10 #fcfcfc
#000000 #000000;
#X obj 2481 539 bng 15 250 50 0 empty empty empty 17 7 0 10 #fcfcfc
#000000 #000000;
#X obj 2501 539 bng 15 250 50 0 empty empty empty 17 7 0 10 #fcfcfc
#000000 #000000;
#X obj 2521 539 bng 15 250 50 0 empty empty empty 17 7 0 10 #fcfcfc
#000000 #000000;
#X obj 2541 539 bng 15 250 50 0 empty empty empty 17 7 0 10 #fcfcfc
#000000 #000000;
#X obj 2561 539 bng 15 250 50 0 empty empty empty 17 7 0 10 #fcfcfc
#000000 #000000;
#X obj 2581 539 bng 15 250 50 0 empty empty empty 17 7 0 10 #fcfcfc
#000000 #000000;
#X obj 2601 539 bng 15 250 50 0 empty empty empty 17 7 0 10 #fcfcfc
#000000 #000000;
#X obj 2621 539 bng 15 250 50 0 empty empty empty 17 7 0 10 #fcfcfc
#000000 #000000;
#X obj 2641 539 bng 15 250 50 0 empty empty empty 17 7 0 10 #fcfcfc
#000000 #000000;
#X obj 2661 539 bng 15 250 50 0 empty empty empty 17 7 0 10 #fcfcfc
#000000 #000000;
#X obj 2681 539 bng 15 250 50 0 empty empty empty 17 7 0 10 #fcfcfc
#000000 #000000;
#X obj 2701 539 bng 15 250 50 0 empty empty empty 17 7 0 10 #fcfcfc
#000000 #000000;
#X obj 2721 539 bng 15 250 50 0 empty empty empty 17 7 0 10 #fcfcfc
#000000 #000000;
#X obj 2741 539 bng 15 250 50 0 empty empty empty 17 7 0 10 #fcfcfc
#000000 #000000;
#X obj 2761 539 bng 15 250 50 0 empty empty empty 17 7 0 10 #fcfcfc
#000000 #000000;
#X obj 2781 539 bng 15 250 50 0 empty empty empty 17 7 0 10 #fcfcfc
#000000 #000000;
#X obj 2801 539 bng 15 250 50 0 empty empty empty 17 7 0 10 #fcfcfc
#000000 #000000;
#X obj 2821 539 bng 15 250 50 0 empty empty empty 17 7 0 10 #fcfcfc
#000000 #000000;
#X obj 2841 539 bng 15 250 50 0 empty empty empty 17 7 0 10 #fcfcfc
#000000 #000000;
#X obj 2861 539 bng 15 250 50 0 empty empty empty 17 7 0 10 #fcfcfc
#000000 #000000;
#X obj 2881 539 bng 15 250 50 0 empty empty empty 17 7 0 10 #fcfcfc
#000000 #000000;
#X obj 2901 539 bng 15 250 50 0 empty empty empty 17 7 0 10 #fcfcfc
#000000 #000000;
#X obj 2921 539 bng 15 250 50 0 empty empty empty 17 7 0 10 #fcfcfc
#000000 #000000;
#X obj 2941 539 bng 15 250 50 0 empty empty empty 17 7 0 10 #fcfcfc
#000000 #000000;
#X obj 2961 539 bng 15 250 50 0 empty empty empty 17 7 0 10 #fcfcfc
#000000 #000000;
#X obj 2981 539 bng 15 250 50 0 empty empty empty 17 7 0 10 #fcfcfc
#000000 #000000;
#X obj 3001 539 bng 15 250 50 0 empty empty empty 17 7 0 10 #fcfcfc
#000000 #000000;
#X obj 3021 539 bng 15 250 50 0 empty empty empty 17 7 0 10 #fcfcfc
#000000 #000000;
#X obj 3041 539 bng 15 250 50 0 empty empty empty 17 7 0 10 #fcfcfc
#000000 #000000;
#X obj 3061 539 bng 15 250 50 0 empty empty empty 17 7 0 10 #fcfcfc
#000000 #000000;
#X obj 3081 539 bng 15 250 50 0 empty empty empty 17 7 0 10 #fcfcfc
#000000 #000000;
#X obj 3101 539 bng 15 250 50 0 empty empty empty 17 7 0 10 #fcfcfc
#000000 #000000;
#X obj 3121 539 bng 15 250 50 0 empty empty empty 17 7 0 10 #fcfcfc
#000000 #000000;
#X obj 3141 539 bng 15 250 50 0 empty empty empty 17 7 0 10 #fcfcfc
#000000 #000000;
#X obj 3161 539 bng 15 250 50 0 empty empty empty 17 7 0 10 #fcfcfc
#000000 #000000;
#X obj 3181 539 bng 15 250 50 0 empty empty empty 17 7 0 10 #fcfcfc
#000000 #000000;
#X obj 3201 539 bng 15 250 50 0 empty empty empty 17 7 0 10 #fcfcfc
#000000 #000000;
#X obj 3221 539 bng 15 250 50 0 empty empty empty 17 7 0 10 #fcfcfc
#000000 #000000;
#X obj 3241 539 bng 15 250 50 0 empty empty empty 17 7 0 10 #fcfcfc
#000000 #000000;
#X obj 3261 539 bng 15 250 50 0 empty empty empty 17 7 0 10 #fcfcfc
#000000 #000000;
#X obj 3281 539 bng 15 250 50 0 empty empty empty 17 7 0 10 #fcfcfc
#000000 #000000;
#X obj 3301 539 bng 15 250 50 0 empty empty empty 17 7 0 10 #fcfcfc
#000000 #000000;
#X obj 3321 539 bng 15 250 50 0 empty empty empty 17 7 0 10 #fcfcfc
#000000 #000000;
#X obj 3341 539 bng 15 250 50 0 empty empty empty 17 7 0 10 #fcfcfc
#000000 #000000;
#X obj 3361 539 bng 15 250 50 0 empty empty empty 17 7 0 10 #fcfcfc
#000000 #000000;
#X obj 3381 539 bng 15 250 50 0 empty empty empty 17 7 0 10 #fcfcfc
#000000 #000000;
#X obj 3401 539 bng 15 250 50 0 empty empty empty 17 7 0 10 #fcfcfc
#000000 #000000;
#X obj 3421 539 bng 15 250 50 0 empty empty empty 17 7 0 10 #fcfcfc
#000000 #000000;
#X obj 3441 539 bng 15 250 50 0 empty empty empty 17 7 0 10 #fcfcfc
#000000 #000000;
#X obj 3461 539 bng 15 250 50 0 empty empty empty 17 7 0 10 #fcfcfc
#000000 #000000;
#X obj 3481 539 bng 15 250 50 0 empty empty empty 17 7 0 10 #fcfcfc
#000000 #000000;
#X obj 3501 539 bng 15 250 50 0 empty empty empty 17 7 0 10 #fcfcfc
#000000 #000000;
#X obj 3521 539 bng 15 250 50 0 empty empty empty 17 7 0 10 #fcfcfc
#000000 #000000;
#X obj 3541 539 bng 15 250 50 0 empty empty empty 17 7 0 10 #fcfcfc
#000000 #000000;
#X obj 3561 539 bng 15 250 50 0 empty empty empty 17 7 0 10 #fcfcfc
#000000 #000000;
#X obj 3581 539 bng 15 250 50 0 empty empty empty 17 7 0 10 #fcfcfc
#000000 #000000;
#X obj 3601 539 bng 15 250 50 0 empty empty empty 17 7 0 10 #fcfcfc
#000000 #000000;
#X obj 3621 539 bng 15 250 50 0 empty empty empty 17 7 0 10 #fcfcfc
#000000 #000000;
#X obj 3641 539 bng 15 250 50 0 empty empty empty 17 7 0 10 #fcfcfc
#000000 #000000;
#X obj 3661 539 bng 15 250 50 0 empty empty empty 17 7 0 10 #fcfcfc
#000000 #000000;
#X obj 3681 539 bng 15 250 50 0 empty empty empty 17 7 0 10 #fcfcfc
#000000 #000000;
#X obj 3701 539 bng 15 250 50 0 empty empty empty 17 7 0 10 #fcfcfc
#000000 #000000;
#X obj 3721 539 bng 15 250 50 0 empty empty empty 17 7 0 10 #fcfcfc
#000000 #000000;
#X obj 3741 539 bng 15 250 50 0 empty empty empty 17 7 0 10 #fcfcfc
#000000 #000000;
#X obj 3761 539 bng 15 250 50 0 empty empty empty 17 7 0 10 #fcfcfc
#000000 #000000;
#X obj 3781 539 bng 15 250 50 0 empty empty empty 17 7 0 10 #fcfcfc
#000000 #000000;
#X obj 3801 539 bng 15 250 50 0 empty empty empty 17 7 0 10 #fcfcfc
#000000 #000000;
#X obj 3821 539 bng 15 250 50 0 empty empty empty 17 7 0 10 #fcfcfc
#000000 #000000;
#X obj 3841 539 bng 15 250 50 0 empty empty empty 17 7 0 10 #fcfcfc
#000000 #000000;
#X obj 3861 539 bng 15 250 50 0 empty empty empty 17 7 0 10 #fcfcfc
#000000 #000000;
#X obj 3881 539 bng 15 250 50 0 empty empty empty 17 7 0 10 #fcfcfc
#000000 #000000;
#X obj 3901 539 bng 15 250 50 0 empty empty empty 17 7 0 10 #fcfcfc
#000000 #000000;
#X obj 3921 539 bng 15 250 50 0 empty empty empty 17 7 0 10 #fcfcfc
#000000 #000000;
#X obj 3941 539 bng 15 250 50 0 empty empty empty 17 7 0 10 #fcfcfc
#000000 #000000;
#X obj 3961 539 bng 15 250 50 0 empty empty empty 17 7 0 10 #fcfcfc
#000000 #000000;
#X obj 3981 539 bng 15 250 50 0 empty empty empty 17 7 0 10 #fcfcfc
#000000 #000000;
#X obj 4001 539 bng 15 250 50 0 empty empty empty 17 7 0 10 #fcfcfc
#000000 #000000;
#X obj 4021 539 bng 15 250 50 0 empty empty empty 17 7 0 10 #fcfcfc
#000000 #000000;
#X obj 4041 539 bng 15 250 50 0 empty empty empty 17 7 0 10 #fcfcfc
#000000 #000000;
#X obj 4061 539 bng 15 250 50 0 empty empty empty 17 7 0 10 #fcfcfc
#000000 #000000;
#X obj 4081 539 bng 15 250 50 0 empty empty empty 17 7 0 10 #fcfcfc
#000000 #000000;
#X obj 4101 539 bng 15 250 50 0 empty empty empty 17 7 0 10 #fcfcfc
#000000 #000000;
#X obj 4121 539 bng 15 250 50 0 empty empty empty 17 7 0 10 #fcfcfc
#000000 #000000;
#X obj 4141 539 bng 15 250 50 0 empty empty empty 17 7 0 10 #fcfcfc
#000000 #000000;
#X obj 4161 539 bng 15 250 50 0 empty empty empty 17 7 0 10 #fcfcfc
#000000 #000000;
#X obj 4181 539 bng 15 250 50 0 empty empty empty 17 7 0 10 #fcfcfc
#000000 #000000;
#X obj 4201 539 bng 15 250 50 0 empty empty empty 17 7 0 10 #fcfcfc
#000000 #000000;
#X obj 4221 539 bng 15 250 50 0 empty empty empty 17 7 0 10 #fcfcfc
#000000 #000000;
#X obj 4241 539 bng 15 250 50 0 empty empty empty 17 7 0 10 #fcfcfc
#000000 #000000;
#X obj 4261 539 bng 15 250 50 0 empty empty empty 17 7 0 10 #fcfcfc
#000000 #000000;
#X obj 4281 539 bng 15 250 50 0 empty empty empty 17 7 0 10 #fcfcfc
#000000 #000000;
#X obj 4301 539 bng 15 250 50 0 empty empty empty 17 7 0 10 #fcfcfc
#000000 #000000;
#X obj 4321 539 bng 15 250 50 0 empty empty empty 17 7 0 10 #fcfcfc
#000000 #000000;
#X obj 4341 539 bng 15 250 50 0 empty empty empty 17 7 0 10 #fcfcfc
#000000 #000000;
#X obj 4361 539 bng 15 250 50 0 empty empty empty 17 7 0 10 #fcfcfc
#000000 #000000;
#X obj 4381 539 bng 15 250 50 0 empty empty empty 17 7 0 10 #fcfcfc
#000000 #000000;
#X obj 4401 539 bng 15 250 50 0 empty empty empty 17 7 0 10 #fcfcfc
#000000 #000000;
#X obj 4421 539 bng 15 250 50 0 empty empty empty 17 7 0 10 #fcfcfc
#000000 #000000;
#X obj 4441 539 bng 15 250 50 0 empty empty empty 17 7 0 10 #fcfcfc
#000000 #000000;
#X obj 4461 539 bng 15 250 50 0 empty empty empty 17 7 0 10 #fcfcfc
#000000 #000000;
#X obj 4481 539 bng 15 250 50 0 empty empty empty 17 7 0 10 #fcfcfc
#000000 #000000;
#X obj 4501 539 bng 15 250 50 0 empty empty empty 17 7 0 10 #fcfcfc
#000000 #000000;
#X obj 4521 539 bng 15 250 50 0 empty empty empty 17 7 0 10 #fcfcfc
#000000 #000000;
#X obj 4541 539 bng 15 250 50 0 empty empty empty 17 7 0 10 #fcfcfc
#000000 #000000;
#X obj 4561 539 bng 15 250 50 0 empty empty empty 17 7 0 10 #fcfcfc
#000000 #000000;
#X obj 4581 539 bng 15 250 50 0 empty empty empty 17 7 0 10 #fcfcfc
#000000 #000000;
#X obj 4601 539 bng 15 250 50 0 empty empty empty 17 7 0 10 #fcfcfc
#000000 #000000;
#X obj 4621 539 bng 15 250 50 0 empty empty empty 17 7 0 10 #fcfcfc
#000000 #000000;
#X obj 4641 539 bng 15 250 50 0 empty empty empty 17 7 0 10 #fcfcfc
#000000 #000000;
#X obj 4661 539 bng 15 250 50 0 empty empty empty 17 7 0 10 #fcfcfc
#000000 #000000;
#X obj 4681 539 bng 15 250 50 0 empty empty empty 17 7 0 10 #fcfcfc
#000000 #000000;
#X obj 4701 539 bng 15 250 50 0 empty empty empty 17 7 0 10 #fcfcfc
#000000 #000000;
#X obj 4721 539 bng 15 250 50 0 empty empty empty 17 7 0 10 #fcfcfc
#000000 #000000;
#X obj 4741 539 bng 15 250 50 0 empty empty empty 17 7 0 10 #fcfcfc
#000000 #000000;
#X obj 4761 539 bng 15 250 50 0 empty empty empty 17 7 0 10 #fcfcfc
#000000 #000000;
#X obj 4781 539 bng 15 250 50 0 empty empty empty 17 7 0 10 #fcfcfc
#000000 #000000;
#X obj 4801 539 bng 15 250 50 0 empty empty empty 17 7 0 10 #fcfcfc
#000000 #000000;
#X obj 4821 539 bng 15 250 50 0 empty empty empty 17 7 0 10 #fcfcfc
#000000 #000000;
#X obj 4841 539 bng 15 250 50 0 empty empty empty 17 7 0 10 #fcfcfc
#000000 #000000;
#X obj 4861 539 bng 15 250 50 0 empty empty empty 17 7 0 10 #fcfcfc
#000000 #000000;
#X obj 4881 539 bng 15 250 50 0 empty empty empty 17 7 0 10 #fcfcfc
#000000 #000000;
#X obj 4901 539 bng 15 250 50 0 empty empty empty 17 7 0 10 #fcfcfc
#000000 #000000;
#X obj 4921 539 bng 15 250 50 0 empty empty empty 17 7 0 10 #fcfcfc
#000000 #000000;
#X obj 4941 539 bng 15 250 50 0 empty empty empty 17 7 0 10 #fcfcfc
#000000 #000000;
#X obj 4961 539 bng 15 250 50 0 empty empty empty 17 7 0 10 #fcfcfc
#000000 #000000;
#X obj 4981 539 bng 15 250 50 0 empty empty empty 17 7 0 10 #fcfcfc
#000000 #000000;
#X obj 5001 539 bng 15 250 50 0 empty empty empty 17 7 0 10 #fcfcfc
#000000 #000000;
#X obj 5021 539 bng 15 250 50 0 empty empty empty 17 7 0 10 #fcfcfc
#000000 #000000;
#X obj 5041 539 bng 15 250 50 0 empty empty empty 17 7 0 10 #fcfcfc
#000000 #000000;
#X obj 5061 539 bng 15 250 50 0 empty empty empty 17 7 0 10 #fcfcfc
#000000 #000000;
#X obj 5081 539 bng 15 250 50 0 empty empty empty 17 7 0 10 #fcfcfc
#000000 #000000;
#X obj 5101 539 bng 15 250 50 0 empty empty empty 17 7 0 10 #fcfcfc
#000000 #000000;
#X obj 5121 539 bng 15 250 50 0 empty empty empty 17 7 0 10 #fcfcfc
#000000 #000000;
#X obj 5141 539 bng 15 250 50 0 empty empty empty 17 7 0 10 #fcfcfc
#000000 #000000;
#X obj 5161 539 bng 15 250 50 0 empty empty empty 17 7 0 10 #fcfcfc
#000000 #000000;
#X obj 5181 539 bng 15 250 50 0 empty empty empty 17 7 0 10 #fcfcfc
#000000 #000000;
#X obj 5201 539 bng 15 250 50 0 empty empty empty 17 7 0 10 #fcfcfc
#000000 #000000;
#X obj 5221 539 bng 15 250 50 0 empty empty empty 17 7 0 10 #fcfcfc
#000000 #000000;
#X obj 5241 539 bng 15 250 50 0 empty empty empty 17 7 0 10 #fcfcfc
#000000 #000000;
#X obj 5261 539 bng 15 250 50 0 empty empty empty 17 7 0 10 #fcfcfc
#000000 #000000;
#X obj 5281 539 bng 15 250 50 0 empty empty empty 17 7 0 10 #fcfcfc
#000000 #000000;
#X obj 5301 539 bng 15 250 50 0 empty empty empty 17 7 0 10 #fcfcfc
#000000 #000000;
#X obj 5321 539 bng 15 250 50 0 empty empty empty 17 7 0 10 #fcfcfc
#000000 #000000;
#X obj 5341 539 bng 15 250 50 0 empty empty empty 17 7 0 10 #fcfcfc
#000000 #000000;
#X obj 5361 539 bng 15 250 50 0 empty empty empty 17 7 0 10 #fcfcfc
#000000 #000000;
#X obj 135 495 t b b;
#X obj 186 780 accumulator;
#X msg 543 645 1;
#X floatatom 186 804 5 0 0 0 - - - 0;
#X obj 0 159 inlet;
#X obj 186 827 outlet;
#X text 178 39 /// PASS A LIST OF FLOATS TO INLET TO GET LIST LENGTH
FROM OUTLET. ONLY WORKS FOR LISTS UP TO 256 IN LENGTH \, AND BEYOND
THAT \, JUST RETURNS 256;
#X connect 0 0 257 0;
#X connect 0 1 2 0;
#X connect 0 2 3 0;
#X connect 0 3 4 0;
#X connect 0 4 5 0;
#X connect 0 5 6 0;
#X connect 0 6 7 0;
#X connect 0 7 8 0;
#X connect 0 8 9 0;
#X connect 0 9 10 0;
#X connect 0 10 11 0;
#X connect 0 11 12 0;
#X connect 0 12 13 0;
#X connect 0 13 14 0;
#X connect 0 14 15 0;
#X connect 0 15 16 0;
#X connect 0 16 17 0;
#X connect 0 17 18 0;
#X connect 0 18 19 0;
#X connect 0 19 20 0;
#X connect 0 20 21 0;
#X connect 0 21 22 0;
#X connect 0 22 23 0;
#X connect 0 23 24 0;
#X connect 0 24 25 0;
#X connect 0 25 26 0;
#X connect 0 26 27 0;
#X connect 0 27 28 0;
#X connect 0 28 29 0;
#X connect 0 29 30 0;
#X connect 0 30 31 0;
#X connect 0 31 32 0;
#X connect 0 32 33 0;
#X connect 0 33 34 0;
#X connect 0 34 35 0;
#X connect 0 35 36 0;
#X connect 0 36 37 0;
#X connect 0 37 38 0;
#X connect 0 38 39 0;
#X connect 0 39 40 0;
#X connect 0 40 41 0;
#X connect 0 41 42 0;
#X connect 0 42 43 0;
#X connect 0 43 44 0;
#X connect 0 44 45 0;
#X connect 0 45 46 0;
#X connect 0 46 47 0;
#X connect 0 47 48 0;
#X connect 0 48 49 0;
#X connect 0 49 50 0;
#X connect 0 50 51 0;
#X connect 0 51 52 0;
#X connect 0 52 53 0;
#X connect 0 53 54 0;
#X connect 0 54 55 0;
#X connect 0 55 56 0;
#X connect 0 56 57 0;
#X connect 0 57 58 0;
#X connect 0 58 59 0;
#X connect 0 59 60 0;
#X connect 0 60 61 0;
#X connect 0 61 62 0;
#X connect 0 62 63 0;
#X connect 0 63 64 0;
#X connect 0 64 65 0;
#X connect 0 65 66 0;
#X connect 0 66 67 0;
#X connect 0 67 68 0;
#X connect 0 68 69 0;
#X connect 0 69 70 0;
#X connect 0 70 71 0;
#X connect 0 71 72 0;
#X connect 0 72 73 0;
#X connect 0 73 74 0;
#X connect 0 74 75 0;
#X connect 0 75 76 0;
#X connect 0 76 77 0;
#X connect 0 77 78 0;
#X connect 0 78 79 0;
#X connect 0 79 80 0;
#X connect 0 80 81 0;
#X connect 0 81 82 0;
#X connect 0 82 83 0;
#X connect 0 83 84 0;
#X connect 0 84 85 0;
#X connect 0 85 86 0;
#X connect 0 86 87 0;
#X connect 0 87 88 0;
#X connect 0 88 89 0;
#X connect 0 89 90 0;
#X connect 0 90 91 0;
#X connect 0 91 92 0;
#X connect 0 92 93 0;
#X connect 0 93 94 0;
#X connect 0 94 95 0;
#X connect 0 95 96 0;
#X connect 0 96 97 0;
#X connect 0 97 98 0;
#X connect 0 98 99 0;
#X connect 0 99 100 0;
#X connect 0 100 101 0;
#X connect 0 101 102 0;
#X connect 0 102 103 0;
#X connect 0 103 104 0;
#X connect 0 104 105 0;
#X connect 0 105 106 0;
#X connect 0 106 107 0;
#X connect 0 107 108 0;
#X connect 0 108 109 0;
#X connect 0 109 110 0;
#X connect 0 110 111 0;
#X connect 0 111 112 0;
#X connect 0 112 113 0;
#X connect 0 113 114 0;
#X connect 0 114 115 0;
#X connect 0 115 116 0;
#X connect 0 116 117 0;
#X connect 0 117 118 0;
#X connect 0 118 119 0;
#X connect 0 119 120 0;
#X connect 0 120 121 0;
#X connect 0 121 122 0;
#X connect 0 122 123 0;
#X connect 0 123 124 0;
#X connect 0 124 125 0;
#X connect 0 125 126 0;
#X connect 0 126 127 0;
#X connect 0 127 128 0;
#X connect 0 128 129 0;
#X connect 0 129 130 0;
#X connect 0 130 131 0;
#X connect 0 131 132 0;
#X connect 0 132 133 0;
#X connect 0 133 134 0;
#X connect 0 134 135 0;
#X connect 0 135 136 0;
#X connect 0 136 137 0;
#X connect 0 137 138 0;
#X connect 0 138 139 0;
#X connect 0 139 140 0;
#X connect 0 140 141 0;
#X connect 0 141 142 0;
#X connect 0 142 143 0;
#X connect 0 143 144 0;
#X connect 0 144 145 0;
#X connect 0 145 146 0;
#X connect 0 146 147 0;
#X connect 0 147 148 0;
#X connect 0 148 149 0;
#X connect 0 149 150 0;
#X connect 0 150 151 0;
#X connect 0 151 152 0;
#X connect 0 152 153 0;
#X connect 0 153 154 0;
#X connect 0 154 155 0;
#X connect 0 155 156 0;
#X connect 0 156 157 0;
#X connect 0 157 158 0;
#X connect 0 158 159 0;
#X connect 0 159 160 0;
#X connect 0 160 161 0;
#X connect 0 161 162 0;
#X connect 0 162 163 0;
#X connect 0 163 164 0;
#X connect 0 164 165 0;
#X connect 0 165 166 0;
#X connect 0 166 167 0;
#X connect 0 167 168 0;
#X connect 0 168 169 0;
#X connect 0 169 170 0;
#X connect 0 170 171 0;
#X connect 0 171 172 0;
#X connect 0 172 173 0;
#X connect 0 173 174 0;
#X connect 0 174 175 0;
#X connect 0 175 176 0;
#X connect 0 176 177 0;
#X connect 0 177 178 0;
#X connect 0 178 179 0;
#X connect 0 179 180 0;
#X connect 0 180 181 0;
#X connect 0 181 182 0;
#X connect 0 182 183 0;
#X connect 0 183 184 0;
#X connect 0 184 185 0;
#X connect 0 185 186 0;
#X connect 0 186 187 0;
#X connect 0 187 188 0;
#X connect 0 188 189 0;
#X connect 0 189 190 0;
#X connect 0 190 191 0;
#X connect 0 191 192 0;
#X connect 0 192 193 0;
#X connect 0 193 194 0;
#X connect 0 194 195 0;
#X connect 0 195 196 0;
#X connect 0 196 197 0;
#X connect 0 197 198 0;
#X connect 0 198 199 0;
#X connect 0 199 200 0;
#X connect 0 200 201 0;
#X connect 0 201 202 0;
#X connect 0 202 203 0;
#X connect 0 203 204 0;
#X connect 0 204 205 0;
#X connect 0 205 206 0;
#X connect 0 206 207 0;
#X connect 0 207 208 0;
#X connect 0 208 209 0;
#X connect 0 209 210 0;
#X connect 0 210 211 0;
#X connect 0 211 212 0;
#X connect 0 212 213 0;
#X connect 0 213 214 0;
#X connect 0 214 215 0;
#X connect 0 215 216 0;
#X connect 0 216 217 0;
#X connect 0 217 218 0;
#X connect 0 218 219 0;
#X connect 0 219 220 0;
#X connect 0 220 221 0;
#X connect 0 221 222 0;
#X connect 0 222 223 0;
#X connect 0 223 224 0;
#X connect 0 224 225 0;
#X connect 0 225 226 0;
#X connect 0 226 227 0;
#X connect 0 227 228 0;
#X connect 0 228 229 0;
#X connect 0 229 230 0;
#X connect 0 230 231 0;
#X connect 0 231 232 0;
#X connect 0 232 233 0;
#X connect 0 233 234 0;
#X connect 0 234 235 0;
#X connect 0 235 236 0;
#X connect 0 236 237 0;
#X connect 0 237 238 0;
#X connect 0 238 239 0;
#X connect 0 239 240 0;
#X connect 0 240 241 0;
#X connect 0 241 242 0;
#X connect 0 242 243 0;
#X connect 0 243 244 0;
#X connect 0 244 245 0;
#X connect 0 245 246 0;
#X connect 0 246 247 0;
#X connect 0 247 248 0;
#X connect 0 248 249 0;
#X connect 0 249 250 0;
#X connect 0 250 251 0;
#X connect 0 251 252 0;
#X connect 0 252 253 0;
#X connect 0 253 254 0;
#X connect 0 254 255 0;
#X connect 0 255 256 0;
#X connect 1 0 259 0;
#X connect 2 0 259 0;
#X connect 3 0 259 0;
#X connect 4 0 259 0;
#X connect 5 0 259 0;
#X connect 6 0 259 0;
#X connect 7 0 259 0;
#X connect 8 0 259 0;
#X connect 9 0 259 0;
#X connect 10 0 259 0;
#X connect 11 0 259 0;
#X connect 12 0 259 0;
#X connect 13 0 259 0;
#X connect 14 0 259 0;
#X connect 15 0 259 0;
#X connect 16 0 259 0;
#X connect 17 0 259 0;
#X connect 18 0 259 0;
#X connect 19 0 259 0;
#X connect 20 0 259 0;
#X connect 21 0 259 0;
#X connect 22 0 259 0;
#X connect 23 0 259 0;
#X connect 24 0 259 0;
#X connect 25 0 259 0;
#X connect 26 0 259 0;
#X connect 27 0 259 0;
#X connect 28 0 259 0;
#X connect 29 0 259 0;
#X connect 30 0 259 0;
#X connect 31 0 259 0;
#X connect 32 0 259 0;
#X connect 33 0 259 0;
#X connect 34 0 259 0;
#X connect 35 0 259 0;
#X connect 36 0 259 0;
#X connect 37 0 259 0;
#X connect 38 0 259 0;
#X connect 39 0 259 0;
#X connect 40 0 259 0;
#X connect 41 0 259 0;
#X connect 42 0 259 0;
#X connect 43 0 259 0;
#X connect 44 0 259 0;
#X connect 45 0 259 0;
#X connect 46 0 259 0;
#X connect 47 0 259 0;
#X connect 48 0 259 0;
#X connect 49 0 259 0;
#X connect 50 0 259 0;
#X connect 51 0 259 0;
#X connect 52 0 259 0;
#X connect 53 0 259 0;
#X connect 54 0 259 0;
#X connect 55 0 259 0;
#X connect 56 0 259 0;
#X connect 57 0 259 0;
#X connect 58 0 259 0;
#X connect 59 0 259 0;
#X connect 60 0 259 0;
#X connect 61 0 259 0;
#X connect 62 0 259 0;
#X connect 63 0 259 0;
#X connect 64 0 259 0;
#X connect 65 0 259 0;
#X connect 66 0 259 0;
#X connect 67 0 259 0;
#X connect 68 0 259 0;
#X connect 69 0 259 0;
#X connect 70 0 259 0;
#X connect 71 0 259 0;
#X connect 72 0 259 0;
#X connect 73 0 259 0;
#X connect 74 0 259 0;
#X connect 75 0 259 0;
#X connect 76 0 259 0;
#X connect 77 0 259 0;
#X connect 78 0 259 0;
#X connect 79 0 259 0;
#X connect 80 0 259 0;
#X connect 81 0 259 0;
#X connect 82 0 259 0;
#X connect 83 0 259 0;
#X connect 84 0 259 0;
#X connect 85 0 259 0;
#X connect 86 0 259 0;
#X connect 87 0 259 0;
#X connect 88 0 259 0;
#X connect 89 0 259 0;
#X connect 90 0 259 0;
#X connect 91 0 259 0;
#X connect 92 0 259 0;
#X connect 93 0 259 0;
#X connect 94 0 259 0;
#X connect 95 0 259 0;
#X connect 96 0 259 0;
#X connect 97 0 259 0;
#X connect 98 0 259 0;
#X connect 99 0 259 0;
#X connect 100 0 259 0;
#X connect 101 0 259 0;
#X connect 102 0 259 0;
#X connect 103 0 259 0;
#X connect 104 0 259 0;
#X connect 105 0 259 0;
#X connect 106 0 259 0;
#X connect 107 0 259 0;
#X connect 108 0 259 0;
#X connect 109 0 259 0;
#X connect 110 0 259 0;
#X connect 111 0 259 0;
#X connect 112 0 259 0;
#X connect 113 0 259 0;
#X connect 114 0 259 0;
#X connect 115 0 259 0;
#X connect 116 0 259 0;
#X connect 117 0 259 0;
#X connect 118 0 259 0;
#X connect 119 0 259 0;
#X connect 120 0 259 0;
#X connect 121 0 259 0;
#X connect 122 0 259 0;
#X connect 123 0 259 0;
#X connect 124 0 259 0;
#X connect 125 0 259 0;
#X connect 126 0 259 0;
#X connect 127 0 259 0;
#X connect 128 0 259 0;
#X connect 129 0 259 0;
#X connect 130 0 259 0;
#X connect 131 0 259 0;
#X connect 132 0 259 0;
#X connect 133 0 259 0;
#X connect 134 0 259 0;
#X connect 135 0 259 0;
#X connect 136 0 259 0;
#X connect 137 0 259 0;
#X connect 138 0 259 0;
#X connect 139 0 259 0;
#X connect 140 0 259 0;
#X connect 141 0 259 0;
#X connect 142 0 259 0;
#X connect 143 0 259 0;
#X connect 144 0 259 0;
#X connect 145 0 259 0;
#X connect 146 0 259 0;
#X connect 147 0 259 0;
#X connect 148 0 259 0;
#X connect 149 0 259 0;
#X connect 150 0 259 0;
#X connect 151 0 259 0;
#X connect 152 0 259 0;
#X connect 153 0 259 0;
#X connect 154 0 259 0;
#X connect 155 0 259 0;
#X connect 156 0 259 0;
#X connect 157 0 259 0;
#X connect 158 0 259 0;
#X connect 159 0 259 0;
#X connect 160 0 259 0;
#X connect 161 0 259 0;
#X connect 162 0 259 0;
#X connect 163 0 259 0;
#X connect 164 0 259 0;
#X connect 165 0 259 0;
#X connect 166 0 259 0;
#X connect 167 0 259 0;
#X connect 168 0 259 0;
#X connect 169 0 259 0;
#X connect 170 0 259 0;
#X connect 171 0 259 0;
#X connect 172 0 259 0;
#X connect 173 0 259 0;
#X connect 174 0 259 0;
#X connect 175 0 259 0;
#X connect 176 0 259 0;
#X connect 177 0 259 0;
#X connect 178 0 259 0;
#X connect 179 0 259 0;
#X connect 180 0 259 0;
#X connect 181 0 259 0;
#X connect 182 0 259 0;
#X connect 183 0 259 0;
#X connect 184 0 259 0;
#X connect 185 0 259 0;
#X connect 186 0 259 0;
#X connect 187 0 259 0;
#X connect 188 0 259 0;
#X connect 189 0 259 0;
#X connect 190 0 259 0;
#X connect 191 0 259 0;
#X connect 192 0 259 0;
#X connect 193 0 259 0;
#X connect 194 0 259 0;
#X connect 195 0 259 0;
#X connect 196 0 259 0;
#X connect 197 0 259 0;
#X connect 198 0 259 0;
#X connect 199 0 259 0;
#X connect 200 0 259 0;
#X connect 201 0 259 0;
#X connect 202 0 259 0;
#X connect 203 0 259 0;
#X connect 204 0 259 0;
#X connect 205 0 259 0;
#X connect 206 0 259 0;
#X connect 207 0 259 0;
#X connect 208 0 259 0;
#X connect 209 0 259 0;
#X connect 210 0 259 0;
#X connect 211 0 259 0;
#X connect 212 0 259 0;
#X connect 213 0 259 0;
#X connect 214 0 259 0;
#X connect 215 0 259 0;
#X connect 216 0 259 0;
#X connect 217 0 259 0;
#X connect 218 0 259 0;
#X connect 219 0 259 0;
#X connect 220 0 259 0;
#X connect 221 0 259 0;
#X connect 222 0 259 0;
#X connect 223 0 259 0;
#X connect 224 0 259 0;
#X connect 225 0 259 0;
#X connect 226 0 259 0;
#X connect 227 0 259 0;
#X connect 228 0 259 0;
#X connect 229 0 259 0;
#X connect 230 0 259 0;
#X connect 231 0 259 0;
#X connect 232 0 259 0;
#X connect 233 0 259 0;
#X connect 234 0 259 0;
#X connect 235 0 259 0;
#X connect 236 0 259 0;
#X connect 237 0 259 0;
#X connect 238 0 259 0;
#X connect 239 0 259 0;
#X connect 240 0 259 0;
#X connect 241 0 259 0;
#X connect 242 0 259 0;
#X connect 243 0 259 0;
#X connect 244 0 259 0;
#X connect 245 0 259 0;
#X connect 246 0 259 0;
#X connect 247 0 259 0;
#X connect 248 0 259 0;
#X connect 249 0 259 0;
#X connect 250 0 259 0;
#X connect 251 0 259 0;
#X connect 252 0 259 0;
#X connect 253 0 259 0;
#X connect 254 0 259 0;
#X connect 255 0 259 0;
#X connect 256 0 259 0;
#X connect 257 0 258 1;
#X connect 257 1 1 0;
#X connect 258 0 260 0;
#X connect 259 0 258 0;
#X connect 260 0 262 0;
#X connect 261 0 0 0;
