#N canvas 23 86 450 571 12;
#X floatatom 130 87 5 0 0 0 t - - 0;
#X text 143 23 a + (b - a) * t;
#X obj 241 143 t b f;
#X obj 344 145 t b f;
#X obj 130 140 t b f;
#X obj 245 178 s \$0-a;
#X obj 345 178 s \$0-b;
#X obj 130 177 s \$0-t;
#X obj 10 166 s \$0-bang;
#X obj 57 338 r \$0-a;
#X obj 57 362 fbank2, f 14;
#X obj 167 362 fbank2, f 14;
#X obj 167 338 r \$0-b;
#X obj 277 362 fbank2, f 14;
#X obj 277 338 r \$0-t;
#X obj 141 210 r \$0-bang;
#X obj 141 234 t b b b, f 15;
#X obj 229 263 t b b;
#X obj 168 395 -;
#X obj 150 424 f;
#X obj 150 448 *;
#X obj 185 258 t b b;
#X obj 132 473 f;
#X obj 132 497 +;
#X obj 141 258 t b b;
#X floatatom 132 521 5 0 0 0 - - - 0;
#X obj 132 544 outlet;
#X obj 130 110 clip 0 1;
#X obj 216 47 inlet a;
#X obj 321 46 inlet b;
#X obj 123 47 inlet t;
#X obj 216 71 deff \$1 0;
#X obj 321 70 deff \$2 0;
#X floatatom 216 95 5 0 0 0 - - - 0;
#X floatatom 321 94 5 0 0 0 - - - 0;
#X connect 0 0 27 0;
#X connect 2 0 8 0;
#X connect 2 1 5 0;
#X connect 3 0 8 0;
#X connect 3 1 6 0;
#X connect 4 0 8 0;
#X connect 4 1 7 0;
#X connect 9 0 10 0;
#X connect 10 1 23 1;
#X connect 10 2 18 1;
#X connect 11 2 18 0;
#X connect 12 0 11 0;
#X connect 13 2 20 1;
#X connect 14 0 13 0;
#X connect 15 0 16 0;
#X connect 16 0 24 0;
#X connect 16 1 21 0;
#X connect 16 2 17 0;
#X connect 17 0 11 2;
#X connect 17 1 10 2;
#X connect 18 0 19 1;
#X connect 19 0 20 0;
#X connect 20 0 22 1;
#X connect 21 0 19 0;
#X connect 21 1 13 2;
#X connect 22 0 23 0;
#X connect 23 0 25 0;
#X connect 24 0 22 0;
#X connect 24 1 10 1;
#X connect 25 0 26 0;
#X connect 27 0 4 0;
#X connect 28 0 31 0;
#X connect 29 0 32 0;
#X connect 30 0 0 0;
#X connect 31 0 33 0;
#X connect 32 0 34 0;
#X connect 33 0 2 0;
#X connect 34 0 3 0;
