#N canvas 821 401 601 387 12;
#X obj 1 1 level~;
#X obj 58 62 loadbang;
#X msg 58 86 1;
#X obj 58 110 sig~;
#X obj 1 24 outlet~;
#X text 178 47 /// LIKE [level~] \, BUT DOESN'T HAVE AN INLET;
#X connect 0 0 4 0;
#X connect 1 0 2 0;
#X connect 2 0 3 0;
#X connect 3 0 0 0;
#X coords 0 -1 1 1 134 18 2 1 1;
