#N canvas 150 188 613 449 12;
#X obj 1 1 msphsl 0 1;
#X obj 375 224 loadbang;
#X obj 375 248 f \$1;
#X obj 117 1 tgl 18 0 empty empty empty 17 7 0 10 #fcfcfc #000000 #000000 0 1;
#X obj 210 21 sel 0 1;
#X msg 210 45 0;
#X obj 257 55 bng 15 250 50 0 empty empty empty 17 7 0 10 #fcfcfc #000000 #000000;
#X obj 191 186 f;
#X obj 60 131 spigot;
#X obj 33 60 t f f;
#X obj 116 23 t f f;
#X obj 360 55 loadbang;
#X msg 360 79 1;
#X obj 545 179 inlet;
#X obj 139 318 outlet;
#X connect 0 0 9 0;
#X connect 1 0 2 0;
#X connect 2 0 0 0;
#X connect 3 0 10 0;
#X connect 4 0 5 0;
#X connect 4 1 6 0;
#X connect 5 0 14 0;
#X connect 6 0 7 0;
#X connect 7 0 14 0;
#X connect 8 0 14 0;
#X connect 9 0 8 0;
#X connect 9 1 7 1;
#X connect 10 0 8 1;
#X connect 10 1 4 0;
#X connect 11 0 12 0;
#X connect 12 0 3 0;
#X connect 13 0 0 0;
#X coords 0 -1 1 1 134 18 2 1 1;
