#N canvas 0 25 568 448 12;
#X obj 90 56 sel sqr tri sin saw, f 37;
#X obj 90 80 t b b;
#X obj 90 32 symbol \$1;
#X obj 90 8 inlet;
#X obj 72 254 square~ \$2;
#X obj 151 254 triangle~ \$2;
#X obj 244 254 osc~ \$2;
#X obj 72 302 *~;
#X obj 151 302 *~;
#X obj 244 302 *~;
#X obj 302 302 *~;
#X obj 90 278 sig~;
#X obj 169 278 sig~;
#X obj 262 278 sig~;
#X obj 320 278 sig~;
#X obj 154 80 t b b;
#X obj 218 80 t b b;
#X obj 282 80 t b b;
#X msg 122 104 0;
#X msg 186 104 0;
#X msg 250 104 0;
#X msg 314 104 0;
#X msg 90 104 1;
#X msg 154 104 1;
#X msg 218 104 1;
#X msg 282 104 1;
#X obj 72 376 scaled~ -1 1 0 1;
#X obj 72 400 snapshot~;
#X obj 7 356 tgl 15 0 empty empty empty 17 7 0 10 -262144 -1 -1 1 1
;
#X obj 7 376 metro 10;
#X obj 7 332 loadbang;
#X obj 72 424 outlet;
#X obj 25 8 loadbang;
#X obj 510 8 inlet;
#X obj 510 32 f \$2;
#X obj 445 8 loadbang;
#X obj 302 254 saw~ \$2;
#X connect 0 0 1 0;
#X connect 0 1 15 0;
#X connect 0 2 16 0;
#X connect 0 3 17 0;
#X connect 1 0 22 0;
#X connect 1 1 18 0;
#X connect 2 0 0 0;
#X connect 3 0 2 0;
#X connect 4 0 7 0;
#X connect 5 0 8 0;
#X connect 6 0 9 0;
#X connect 7 0 26 0;
#X connect 8 0 26 0;
#X connect 9 0 26 0;
#X connect 10 0 26 0;
#X connect 11 0 7 1;
#X connect 12 0 8 1;
#X connect 13 0 9 1;
#X connect 14 0 10 1;
#X connect 15 0 23 0;
#X connect 15 1 19 0;
#X connect 16 0 24 0;
#X connect 16 1 20 0;
#X connect 17 0 25 0;
#X connect 17 1 21 0;
#X connect 18 0 12 0;
#X connect 18 0 14 0;
#X connect 18 0 13 0;
#X connect 19 0 11 0;
#X connect 19 0 14 0;
#X connect 19 0 13 0;
#X connect 20 0 12 0;
#X connect 20 0 14 0;
#X connect 20 0 11 0;
#X connect 21 0 13 0;
#X connect 21 0 12 0;
#X connect 21 0 11 0;
#X connect 22 0 11 0;
#X connect 23 0 12 0;
#X connect 24 0 13 0;
#X connect 25 0 14 0;
#X connect 26 0 27 0;
#X connect 27 0 31 0;
#X connect 28 0 29 0;
#X connect 29 0 27 0;
#X connect 30 0 28 0;
#X connect 32 0 2 0;
#X connect 33 0 34 0;
#X connect 34 0 4 0;
#X connect 34 0 6 0;
#X connect 34 0 5 0;
#X connect 34 0 36 0;
#X connect 35 0 34 0;
#X connect 36 0 10 0;
