#N canvas 93 130 450 300 12;
#X floatatom 29 1 5 0 0 0 from - - 10;
#X floatatom 29 16 5 0 0 0 to - - 10;
#X floatatom 29 31 5 0 0 0 ms - - 10;
#X text 90 16 e;
#X text 90 32 r;
#X text 64 28 :);
#X text 62 0 l i n;
#X obj 249 34 inlet;
#X obj 249 58 route from to ms;
#X obj 8 74 inlet;
#X obj 8 98 bng 19 250 50 0 empty empty empty 0 -10 0 12 #fcfcfc #000000 #000000;
#X obj 8 176 pack f f f, f 27;
#X msg 8 200 \$1 \, \$2 \$3;
#X obj 8 224 line;
#X obj 8 248 outlet;
#X obj 8 152 f, f 16;
#X obj 288 175 bng 19 250 50 0 empty empty empty 0 -10 0 12 #fcfcfc #000000 #000000;
#X obj 288 199 outlet;
#X obj 216 125 del;
#X obj 136 78 t f f;
#X msg 244 100 stop;
#X obj 8 122 t b b b;
#X connect 0 0 15 1;
#X connect 1 0 11 1;
#X connect 2 0 19 0;
#X connect 7 0 8 0;
#X connect 8 0 0 0;
#X connect 8 1 1 0;
#X connect 8 2 2 0;
#X connect 9 0 10 0;
#X connect 10 0 21 0;
#X connect 11 0 12 0;
#X connect 12 0 13 0;
#X connect 13 0 14 0;
#X connect 15 0 11 0;
#X connect 16 0 17 0;
#X connect 18 0 16 0;
#X connect 19 0 18 1;
#X connect 19 1 11 2;
#X connect 20 0 18 0;
#X connect 21 0 18 0;
#X connect 21 1 15 0;
#X connect 21 2 20 0;
#X coords 0 -1 1 1 100 50 2 1 1;
