#N canvas 422 176 419 588 12;
#X obj 19 35 tgl 15 0 empty empty empty 17 7 0 10 #fcfcfc #000000 #000000 0 1;
#X msg 19 56 connect \$1;
#X obj 19 80 abl_link~, f 32;
#X obj 19 11 loadbang;
#X floatatom 74 357 5 0 0 0 - - - 0;
#X floatatom 126 428 5 0 0 0 - - - 0;
#X obj 126 451 i;
#X obj 126 475 change;
#X floatatom 126 499 5 0 0 0 - - - 0;
#X floatatom 179 428 5 0 0 0 - - - 0;
#X obj 179 451 i;
#X obj 179 475 change;
#X floatatom 179 499 5 0 0 0 - - - 0;
#X obj 179 404 * 4;
#X floatatom 231 428 5 0 0 0 - - - 0;
#X obj 231 451 i;
#X obj 231 475 change;
#X floatatom 231 499 5 0 0 0 - - - 0;
#X floatatom 284 428 5 0 0 0 - - - 0;
#X obj 284 451 i;
#X obj 284 475 change;
#X floatatom 284 499 5 0 0 0 - - - 0;
#X obj 126 404 * 2;
#X obj 231 404 * 8;
#X obj 284 404 * 16;
#X floatatom 337 428 5 0 0 0 - - - 0;
#X obj 337 451 i;
#X obj 337 475 change;
#X floatatom 337 499 5 0 0 0 - - - 0;
#X obj 337 404 * 32;
#X obj 74 380 t f f f f f f, f 38;
#X floatatom 74 428 5 0 0 0 - - - 0;
#X obj 74 451 i;
#X obj 74 475 change;
#X floatatom 74 499 5 0 0 0 - - - 0;
#X obj 74 404 * 1;
#X obj 74 522 s l-4;
#X obj 126 522 s l-8;
#X obj 179 522 s l-16;
#X obj 231 522 s l-32;
#X obj 284 522 s l-64;
#X obj 337 522 s l-128;
#X floatatom 184 104 5 0 0 0 - - - 0;
#X obj 184 127 s l-bpm;
#X obj 240 104 tgl 19 0 empty empty empty 0 -10 0 12 #fcfcfc #000000 #000000 0 1;
#X obj 240 128 t f f;
#X obj 272 152 sel 0;
#X msg 272 200 0;
#X obj 74 174 spigot, f 24;
#X obj 74 198 t f f;
#X obj 74 333 spigot, f 18;
#X obj 106 270 sel 0;
#X msg 106 294 1;
#X obj 106 222 i;
#X obj 106 246 change;
#X obj 272 176 t b b, f 6;
#X obj 311 200 s l-stop;
#X obj 150 24 loadbang;
#X msg 150 48 offset 350;
#X connect 0 0 1 0;
#X connect 1 0 2 0;
#X connect 2 0 53 0;
#X connect 2 1 48 0;
#X connect 2 3 42 0;
#X connect 2 4 44 0;
#X connect 3 0 0 0;
#X connect 4 0 30 0;
#X connect 5 0 6 0;
#X connect 6 0 7 0;
#X connect 7 0 8 0;
#X connect 8 0 37 0;
#X connect 9 0 10 0;
#X connect 10 0 11 0;
#X connect 11 0 12 0;
#X connect 12 0 38 0;
#X connect 13 0 9 0;
#X connect 14 0 15 0;
#X connect 15 0 16 0;
#X connect 16 0 17 0;
#X connect 17 0 39 0;
#X connect 18 0 19 0;
#X connect 19 0 20 0;
#X connect 20 0 21 0;
#X connect 21 0 40 0;
#X connect 22 0 5 0;
#X connect 23 0 14 0;
#X connect 24 0 18 0;
#X connect 25 0 26 0;
#X connect 26 0 27 0;
#X connect 27 0 28 0;
#X connect 28 0 41 0;
#X connect 29 0 25 0;
#X connect 30 0 35 0;
#X connect 30 1 22 0;
#X connect 30 2 13 0;
#X connect 30 3 23 0;
#X connect 30 4 24 0;
#X connect 30 5 29 0;
#X connect 31 0 32 0;
#X connect 32 0 33 0;
#X connect 33 0 34 0;
#X connect 34 0 36 0;
#X connect 35 0 31 0;
#X connect 42 0 43 0;
#X connect 44 0 45 0;
#X connect 45 0 48 1;
#X connect 45 1 46 0;
#X connect 46 0 55 0;
#X connect 47 0 50 1;
#X connect 48 0 49 0;
#X connect 49 0 50 0;
#X connect 50 0 4 0;
#X connect 51 0 52 0;
#X connect 52 0 50 1;
#X connect 53 0 54 0;
#X connect 54 0 51 0;
#X connect 55 0 47 0;
#X connect 55 1 56 0;
#X connect 57 0 58 0;
#X connect 58 0 2 0;
