#N canvas 1 38 1512 884 12;
#X obj 77 101 inlet;
#X obj 77 125 unpack f f f f f f f f f f f f f f f f f f f f f f f
f f f f f f f f f f f f f f f f f f f f f f f f f f f f f f f f f f
f f f f f f f, f 201;
#X obj 77 149 change;
#X obj 87 159 change;
#X obj 97 169 change;
#X obj 107 179 change;
#X obj 117 189 change;
#X obj 127 199 change;
#X obj 137 209 change;
#X obj 147 219 change;
#X obj 157 229 change;
#X obj 167 239 change;
#X obj 177 249 change;
#X obj 187 259 change;
#X obj 197 269 change;
#X obj 207 279 change;
#X obj 217 289 change;
#X obj 227 299 change;
#X obj 237 309 change;
#X obj 247 319 change;
#X obj 257 329 change;
#X obj 267 339 change;
#X obj 277 349 change;
#X obj 287 359 change;
#X obj 297 369 change;
#X obj 307 379 change;
#X obj 317 389 change;
#X obj 327 399 change;
#X obj 337 409 change;
#X obj 347 419 change;
#X obj 357 429 change;
#X obj 367 439 change;
#X obj 377 449 change;
#X obj 387 459 change;
#X obj 397 469 change;
#X obj 407 479 change;
#X obj 417 489 change;
#X obj 427 499 change;
#X obj 437 509 change;
#X obj 447 519 change;
#X obj 457 529 change;
#X obj 467 539 change;
#X obj 477 549 change;
#X obj 487 559 change;
#X obj 497 569 change;
#X obj 507 579 change;
#X obj 517 589 change;
#X obj 527 599 change;
#X obj 537 609 change;
#X obj 547 619 change;
#X obj 557 629 change;
#X obj 567 639 change;
#X obj 577 649 change;
#X obj 587 659 change;
#X obj 597 669 change;
#X obj 607 679 change;
#X obj 617 689 change;
#X obj 627 699 change;
#X obj 637 709 change;
#X obj 647 719 change;
#X obj 657 729 change;
#X obj 667 739 change;
#X obj 677 749 change;
#X obj 687 759 change;
#X obj 697 769 change;
#X obj 77 824 bng 15 250 50 0 empty empty empty 17 7 0 10 #fcfcfc #000000
#000000;
#X obj 77 848 outlet;
#X text 604 26 /// RETURNS WHETHER THE LIST IS DIFFERENT THAN THE LAST
LIST WE RECEIVED. SUPPORTS MAX LIST SIZE OF 64 I THINK? MIGHT NEED
TO COUNT THAT.;
#X connect 0 0 1 0;
#X connect 1 0 2 0;
#X connect 1 1 2 0;
#X connect 1 2 3 0;
#X connect 1 3 4 0;
#X connect 1 4 5 0;
#X connect 1 5 6 0;
#X connect 1 6 7 0;
#X connect 1 7 8 0;
#X connect 1 8 9 0;
#X connect 1 9 10 0;
#X connect 1 10 11 0;
#X connect 1 11 12 0;
#X connect 1 12 13 0;
#X connect 1 13 14 0;
#X connect 1 14 15 0;
#X connect 1 15 16 0;
#X connect 1 16 17 0;
#X connect 1 17 18 0;
#X connect 1 18 19 0;
#X connect 1 19 20 0;
#X connect 1 20 21 0;
#X connect 1 21 22 0;
#X connect 1 22 23 0;
#X connect 1 23 24 0;
#X connect 1 24 25 0;
#X connect 1 25 26 0;
#X connect 1 26 27 0;
#X connect 1 27 28 0;
#X connect 1 28 29 0;
#X connect 1 29 30 0;
#X connect 1 30 31 0;
#X connect 1 31 32 0;
#X connect 1 32 33 0;
#X connect 1 33 34 0;
#X connect 1 34 35 0;
#X connect 1 35 36 0;
#X connect 1 36 37 0;
#X connect 1 37 38 0;
#X connect 1 38 39 0;
#X connect 1 39 40 0;
#X connect 1 40 41 0;
#X connect 1 41 42 0;
#X connect 1 42 43 0;
#X connect 1 43 44 0;
#X connect 1 44 45 0;
#X connect 1 45 46 0;
#X connect 1 46 47 0;
#X connect 1 47 48 0;
#X connect 1 48 49 0;
#X connect 1 49 50 0;
#X connect 1 50 51 0;
#X connect 1 51 52 0;
#X connect 1 52 53 0;
#X connect 1 53 54 0;
#X connect 1 54 55 0;
#X connect 1 55 56 0;
#X connect 1 56 57 0;
#X connect 1 57 58 0;
#X connect 1 58 59 0;
#X connect 1 59 60 0;
#X connect 1 60 61 0;
#X connect 1 61 62 0;
#X connect 1 62 63 0;
#X connect 1 63 64 0;
#X connect 2 0 65 0;
#X connect 3 0 65 0;
#X connect 4 0 65 0;
#X connect 5 0 65 0;
#X connect 6 0 65 0;
#X connect 7 0 65 0;
#X connect 8 0 65 0;
#X connect 9 0 65 0;
#X connect 10 0 65 0;
#X connect 11 0 65 0;
#X connect 12 0 65 0;
#X connect 13 0 65 0;
#X connect 14 0 65 0;
#X connect 15 0 65 0;
#X connect 16 0 65 0;
#X connect 17 0 65 0;
#X connect 18 0 65 0;
#X connect 19 0 65 0;
#X connect 20 0 65 0;
#X connect 21 0 65 0;
#X connect 22 0 65 0;
#X connect 23 0 65 0;
#X connect 24 0 65 0;
#X connect 25 0 65 0;
#X connect 26 0 65 0;
#X connect 27 0 65 0;
#X connect 28 0 65 0;
#X connect 29 0 65 0;
#X connect 30 0 65 0;
#X connect 31 0 65 0;
#X connect 32 0 65 0;
#X connect 33 0 65 0;
#X connect 34 0 65 0;
#X connect 35 0 65 0;
#X connect 36 0 65 0;
#X connect 37 0 65 0;
#X connect 38 0 65 0;
#X connect 39 0 65 0;
#X connect 40 0 65 0;
#X connect 41 0 65 0;
#X connect 42 0 65 0;
#X connect 43 0 65 0;
#X connect 44 0 65 0;
#X connect 45 0 65 0;
#X connect 46 0 65 0;
#X connect 47 0 65 0;
#X connect 48 0 65 0;
#X connect 49 0 65 0;
#X connect 50 0 65 0;
#X connect 51 0 65 0;
#X connect 52 0 65 0;
#X connect 53 0 65 0;
#X connect 54 0 65 0;
#X connect 55 0 65 0;
#X connect 56 0 65 0;
#X connect 57 0 65 0;
#X connect 58 0 65 0;
#X connect 59 0 65 0;
#X connect 60 0 65 0;
#X connect 61 0 65 0;
#X connect 62 0 65 0;
#X connect 63 0 65 0;
#X connect 64 0 65 0;
#X connect 65 0 66 0;
