#N canvas 387 221 1125 672 12;
#X obj 63 77 inlet;
#X obj 63 101 t b f, f 13;
#X obj 63 125 counter \$1;
#X obj 63 173 pack f f, f 13;
#X obj 63 197 route 0 1 2 3 4 5 6 7 8 9 10 11 12 13 14 15 16, f 137
;
#X obj 7 221 16step, f 129;
#X obj 63 149 t f f;
#X obj 113 245 loadbang;
#X obj 113 269 f \$1;
#X obj 113 293 - 1;
#X obj 95 323 ==;
#X obj 95 347 sel 1;
#X obj 95 371 bng 15 250 50 0 empty empty empty 17 7 0 10 #fcfcfc #000000
#000000;
#X obj 95 391 countrange 0 \$1;
#X obj 95 487 t f f;
#X obj 7 555 swap, f 8;
#N canvas 0 38 1512 884 makelist 0;
#X obj 72 318 spigot;
#X obj 111 250 sel 1, f 7;
#X msg 111 274 1;
#X msg 157 274 0;
#X obj 111 298 tgl 15 0 empty empty empty 17 7 0 10 #fcfcfc #000000
#000000 0 1;
#X obj 152 318 spigot;
#X msg 191 274 1;
#X msg 237 274 0;
#X obj 191 298 tgl 15 0 empty empty empty 17 7 0 10 #fcfcfc #000000
#000000 0 1;
#X obj 232 318 spigot;
#X msg 271 274 1;
#X msg 317 274 0;
#X obj 271 298 tgl 15 0 empty empty empty 17 7 0 10 #fcfcfc #000000
#000000 0 1;
#X obj 312 318 spigot;
#X msg 351 274 1;
#X msg 397 274 0;
#X obj 351 298 tgl 15 0 empty empty empty 17 7 0 10 #fcfcfc #000000
#000000 0 1;
#X obj 392 318 spigot;
#X msg 431 274 1;
#X msg 477 274 0;
#X obj 431 298 tgl 15 0 empty empty empty 17 7 0 10 #fcfcfc #000000
#000000 0 1;
#X obj 472 318 spigot;
#X msg 511 274 1;
#X msg 557 274 0;
#X obj 511 298 tgl 15 0 empty empty empty 17 7 0 10 #fcfcfc #000000
#000000 0 1;
#X obj 552 318 spigot;
#X msg 591 274 1;
#X msg 637 274 0;
#X obj 591 298 tgl 15 0 empty empty empty 17 7 0 10 #fcfcfc #000000
#000000 0 1;
#X obj 632 318 spigot;
#X obj 791 32 loadbang;
#X obj 791 56 f \$1;
#X msg 671 274 1;
#X msg 717 274 0;
#X obj 671 298 tgl 15 0 empty empty empty 17 7 0 10 #fcfcfc #000000
#000000 0 1;
#X obj 712 318 spigot;
#X msg 751 274 1;
#X msg 797 274 0;
#X obj 751 298 tgl 15 0 empty empty empty 17 7 0 10 #fcfcfc #000000
#000000 0 1;
#X obj 792 318 spigot;
#X msg 831 274 1;
#X msg 877 274 0;
#X obj 831 298 tgl 15 0 empty empty empty 17 7 0 10 #fcfcfc #000000
#000000 0 1;
#X obj 872 318 spigot;
#X msg 911 274 1;
#X msg 957 274 0;
#X obj 911 298 tgl 15 0 empty empty empty 17 7 0 10 #fcfcfc #000000
#000000 0 1;
#X obj 952 318 spigot;
#X msg 991 274 1;
#X msg 1037 274 0;
#X obj 991 298 tgl 15 0 empty empty empty 17 7 0 10 #fcfcfc #000000
#000000 0 1;
#X obj 1032 318 spigot;
#X msg 1071 274 1;
#X msg 1117 274 0;
#X obj 1071 298 tgl 15 0 empty empty empty 17 7 0 10 #fcfcfc #000000
#000000 0 1;
#X obj 1112 318 spigot;
#X msg 1151 274 1;
#X msg 1197 274 0;
#X obj 1151 298 tgl 15 0 empty empty empty 17 7 0 10 #fcfcfc #000000
#000000 0 1;
#X obj 1192 318 spigot;
#X msg 1231 274 1;
#X msg 1277 274 0;
#X obj 1231 298 tgl 15 0 empty empty empty 17 7 0 10 #fcfcfc #000000
#000000 0 1;
#X obj 1272 318 spigot;
#X msg 1311 274 1;
#X msg 1357 274 0;
#X obj 1311 298 tgl 15 0 empty empty empty 17 7 0 10 #fcfcfc #000000
#000000 0 1;
#X obj 191 250 sel 2, f 7;
#X obj 271 250 sel 3, f 7;
#X obj 351 250 sel 4, f 7;
#X obj 431 250 sel 5, f 7;
#X obj 511 250 sel 6, f 7;
#X obj 591 250 sel 7, f 7;
#X obj 671 250 sel 8, f 7;
#X obj 751 250 sel 9, f 7;
#X obj 831 250 sel 10, f 7;
#X obj 911 250 sel 11, f 7;
#X obj 991 250 sel 12, f 7;
#X obj 1071 250 sel 13, f 7;
#X obj 1151 250 sel 14, f 7;
#X obj 1231 250 sel 15, f 7;
#X obj 1311 250 sel 16, f 7;
#X obj 14 299 inlet;
#X obj 72 342 route 0;
#X obj 152 372 route 0 1;
#X obj 232 402 route 0 1 2;
#X obj 312 432 route 0 1 2 3;
#X obj 392 482 route 0 1 2 3 4;
#X obj 472 532 route 0 1 2 3 4 5;
#X obj 552 582 route 0 1 2 3 4 5 6;
#X obj 632 632 route 0 1 2 3 4 5 6 7;
#X obj 712 342 route 0 1 2 3 4 5 6 7 8;
#X obj 792 392 route 0 1 2 3 4 5 6 7 8 9;
#X obj 872 442 route 0 1 2 3 4 5 6 7 8 9 10;
#X obj 952 492 route 0 1 2 3 4 5 6 7 8 9 10 11;
#X obj 1032 542 route 0 1 2 3 4 5 6 7 8 9 10 11 12;
#X obj 1112 592 route 0 1 2 3 4 5 6 7 8 9 10 11 12 13;
#X obj 1192 642 route 0 1 2 3 4 5 6 7 8 9 10 11 12 13 14;
#X obj 1272 692 route 0 1 2 3 4 5 6 7 8 9 10 11 12 13 14 15;
#X obj 755 805 outlet;
#X obj 72 366 pack f;
#X obj 152 396 pack f f;
#X obj 232 426 pack f f f;
#X obj 312 456 pack f f f f;
#X obj 392 506 pack f f f f f;
#X obj 472 556 pack f f f f f f;
#X obj 552 606 pack f f f f f f f;
#X obj 632 656 pack f f f f f f f f;
#X obj 712 366 pack f f f f f f f f f;
#X obj 792 416 pack f f f f f f f f f f;
#X obj 872 466 pack f f f f f f f f f f f;
#X obj 952 516 pack f f f f f f f f f f f f;
#X obj 1032 566 pack f f f f f f f f f f f f f;
#X obj 1112 616 pack f f f f f f f f f f f f f f;
#X obj 1192 666 pack f f f f f f f f f f f f f f f;
#X obj 1272 716 pack f f f f f f f f f f f f f f f f;
#X connect 0 0 83 0;
#X connect 1 0 2 0;
#X connect 1 1 3 0;
#X connect 2 0 4 0;
#X connect 3 0 4 0;
#X connect 4 0 0 1;
#X connect 5 0 84 0;
#X connect 6 0 8 0;
#X connect 7 0 8 0;
#X connect 8 0 5 1;
#X connect 9 0 85 0;
#X connect 10 0 12 0;
#X connect 11 0 12 0;
#X connect 12 0 9 1;
#X connect 13 0 86 0;
#X connect 14 0 16 0;
#X connect 15 0 16 0;
#X connect 16 0 13 1;
#X connect 17 0 87 0;
#X connect 18 0 20 0;
#X connect 19 0 20 0;
#X connect 20 0 17 1;
#X connect 21 0 88 0;
#X connect 22 0 24 0;
#X connect 23 0 24 0;
#X connect 24 0 21 1;
#X connect 25 0 89 0;
#X connect 26 0 28 0;
#X connect 27 0 28 0;
#X connect 28 0 25 1;
#X connect 29 0 90 0;
#X connect 30 0 31 0;
#X connect 31 0 1 0;
#X connect 31 0 67 0;
#X connect 31 0 68 0;
#X connect 31 0 69 0;
#X connect 31 0 70 0;
#X connect 31 0 71 0;
#X connect 31 0 72 0;
#X connect 31 0 73 0;
#X connect 31 0 74 0;
#X connect 31 0 75 0;
#X connect 31 0 76 0;
#X connect 31 0 77 0;
#X connect 31 0 78 0;
#X connect 31 0 79 0;
#X connect 31 0 80 0;
#X connect 31 0 81 0;
#X connect 32 0 34 0;
#X connect 33 0 34 0;
#X connect 34 0 29 1;
#X connect 35 0 91 0;
#X connect 36 0 38 0;
#X connect 37 0 38 0;
#X connect 38 0 35 1;
#X connect 39 0 92 0;
#X connect 40 0 42 0;
#X connect 41 0 42 0;
#X connect 42 0 39 1;
#X connect 43 0 93 0;
#X connect 44 0 46 0;
#X connect 45 0 46 0;
#X connect 46 0 43 1;
#X connect 47 0 94 0;
#X connect 48 0 50 0;
#X connect 49 0 50 0;
#X connect 50 0 47 1;
#X connect 51 0 95 0;
#X connect 52 0 54 0;
#X connect 53 0 54 0;
#X connect 54 0 51 1;
#X connect 55 0 96 0;
#X connect 56 0 58 0;
#X connect 57 0 58 0;
#X connect 58 0 55 1;
#X connect 59 0 97 0;
#X connect 60 0 62 0;
#X connect 61 0 62 0;
#X connect 62 0 59 1;
#X connect 63 0 98 0;
#X connect 64 0 66 0;
#X connect 65 0 66 0;
#X connect 66 0 63 1;
#X connect 67 0 6 0;
#X connect 67 1 7 0;
#X connect 68 0 10 0;
#X connect 68 1 11 0;
#X connect 69 0 14 0;
#X connect 69 1 15 0;
#X connect 70 0 18 0;
#X connect 70 1 19 0;
#X connect 71 0 22 0;
#X connect 71 1 23 0;
#X connect 72 0 26 0;
#X connect 72 1 27 0;
#X connect 73 0 32 0;
#X connect 73 1 33 0;
#X connect 74 0 36 0;
#X connect 74 1 37 0;
#X connect 75 0 40 0;
#X connect 75 1 41 0;
#X connect 76 0 44 0;
#X connect 76 1 45 0;
#X connect 77 0 48 0;
#X connect 77 1 49 0;
#X connect 78 0 52 0;
#X connect 78 1 53 0;
#X connect 79 0 56 0;
#X connect 79 1 57 0;
#X connect 80 0 60 0;
#X connect 80 1 61 0;
#X connect 81 0 64 0;
#X connect 81 1 65 0;
#X connect 82 0 0 0;
#X connect 82 0 63 0;
#X connect 82 0 59 0;
#X connect 82 0 55 0;
#X connect 82 0 51 0;
#X connect 82 0 47 0;
#X connect 82 0 43 0;
#X connect 82 0 39 0;
#X connect 82 0 35 0;
#X connect 82 0 29 0;
#X connect 82 0 25 0;
#X connect 82 0 17 0;
#X connect 82 0 13 0;
#X connect 82 0 9 0;
#X connect 82 0 5 0;
#X connect 82 0 21 0;
#X connect 83 0 100 0;
#X connect 84 0 101 0;
#X connect 84 1 101 1;
#X connect 85 0 102 0;
#X connect 85 1 102 1;
#X connect 85 2 102 2;
#X connect 86 0 103 0;
#X connect 86 1 103 1;
#X connect 86 2 103 2;
#X connect 86 3 103 3;
#X connect 87 0 104 0;
#X connect 87 1 104 1;
#X connect 87 2 104 2;
#X connect 87 3 104 3;
#X connect 87 4 104 4;
#X connect 88 0 105 0;
#X connect 88 1 105 1;
#X connect 88 2 105 2;
#X connect 88 3 105 3;
#X connect 88 4 105 4;
#X connect 88 5 105 5;
#X connect 89 0 106 0;
#X connect 89 1 106 1;
#X connect 89 2 106 2;
#X connect 89 3 106 3;
#X connect 89 4 106 4;
#X connect 89 5 106 5;
#X connect 89 6 106 6;
#X connect 90 0 107 0;
#X connect 90 1 107 1;
#X connect 90 2 107 2;
#X connect 90 3 107 3;
#X connect 90 4 107 4;
#X connect 90 5 107 5;
#X connect 90 6 107 6;
#X connect 90 7 107 7;
#X connect 91 0 108 0;
#X connect 91 1 108 1;
#X connect 91 2 108 2;
#X connect 91 3 108 3;
#X connect 91 4 108 4;
#X connect 91 5 108 5;
#X connect 91 6 108 6;
#X connect 91 7 108 7;
#X connect 91 8 108 8;
#X connect 92 0 109 0;
#X connect 92 1 109 1;
#X connect 92 2 109 2;
#X connect 92 3 109 3;
#X connect 92 4 109 4;
#X connect 92 5 109 5;
#X connect 92 6 109 6;
#X connect 92 7 109 7;
#X connect 92 8 109 8;
#X connect 92 9 109 9;
#X connect 93 0 110 0;
#X connect 93 1 110 1;
#X connect 93 2 110 2;
#X connect 93 3 110 3;
#X connect 93 4 110 4;
#X connect 93 5 110 5;
#X connect 93 6 110 6;
#X connect 93 7 110 7;
#X connect 93 8 110 8;
#X connect 93 9 110 9;
#X connect 93 10 110 10;
#X connect 94 0 111 0;
#X connect 94 1 111 1;
#X connect 94 2 111 2;
#X connect 94 3 111 3;
#X connect 94 4 111 4;
#X connect 94 5 111 5;
#X connect 94 6 111 6;
#X connect 94 7 111 7;
#X connect 94 8 111 8;
#X connect 94 9 111 9;
#X connect 94 10 111 10;
#X connect 94 11 111 11;
#X connect 95 0 112 0;
#X connect 95 1 112 1;
#X connect 95 2 112 2;
#X connect 95 3 112 3;
#X connect 95 4 112 4;
#X connect 95 5 112 5;
#X connect 95 6 112 6;
#X connect 95 7 112 7;
#X connect 95 8 112 8;
#X connect 95 9 112 9;
#X connect 95 10 112 10;
#X connect 95 11 112 11;
#X connect 95 12 112 12;
#X connect 96 0 113 0;
#X connect 96 1 113 1;
#X connect 96 2 113 2;
#X connect 96 3 113 3;
#X connect 96 4 113 4;
#X connect 96 5 113 5;
#X connect 96 6 113 6;
#X connect 96 7 113 7;
#X connect 96 8 113 8;
#X connect 96 9 113 9;
#X connect 96 10 113 10;
#X connect 96 11 113 11;
#X connect 96 12 113 12;
#X connect 96 13 113 13;
#X connect 97 0 114 0;
#X connect 97 1 114 1;
#X connect 97 2 114 2;
#X connect 97 3 114 3;
#X connect 97 4 114 4;
#X connect 97 5 114 5;
#X connect 97 6 114 6;
#X connect 97 7 114 7;
#X connect 97 8 114 8;
#X connect 97 9 114 9;
#X connect 97 10 114 10;
#X connect 97 11 114 11;
#X connect 97 12 114 12;
#X connect 97 13 114 13;
#X connect 97 14 114 14;
#X connect 98 0 115 0;
#X connect 98 1 115 1;
#X connect 98 2 115 2;
#X connect 98 3 115 3;
#X connect 98 4 115 4;
#X connect 98 5 115 5;
#X connect 98 6 115 6;
#X connect 98 7 115 7;
#X connect 98 8 115 8;
#X connect 98 9 115 9;
#X connect 98 10 115 10;
#X connect 98 11 115 11;
#X connect 98 12 115 12;
#X connect 98 13 115 13;
#X connect 98 14 115 14;
#X connect 98 15 115 15;
#X connect 100 0 99 0;
#X connect 101 0 99 0;
#X connect 102 0 99 0;
#X connect 103 0 99 0;
#X connect 104 0 99 0;
#X connect 105 0 99 0;
#X connect 106 0 99 0;
#X connect 107 0 99 0;
#X connect 108 0 99 0;
#X connect 109 0 99 0;
#X connect 110 0 99 0;
#X connect 111 0 99 0;
#X connect 112 0 99 0;
#X connect 113 0 99 0;
#X connect 114 0 99 0;
#X connect 115 0 99 0;
#X restore 7 603 pd makelist;
#X obj 7 579 pack f f;
#X obj 7 627 outlet;
#X obj 95 415 swap \$1;
#X obj 95 439 -, f 7;
#X obj 95 463 - 1;
#X obj 355 104 inlet;
#X obj 355 128 bng 15 250 50 0 empty empty empty 17 7 0 10 #fcfcfc
#000000 #000000;
#X obj 355 148 t b b;
#X msg 1057 202 0;
#X text 351 9 /// INITIALIZE WITH \$1 BEING LENGTH OF LIST \, THEN
PASS THAT MANY FLOATS INTO THE INLET. IT WILL OUTPUT THOSE FLOATS IN
A LIST. BANG SECOND INLET TO RESET STATE (FOR INSTANCE IF YOU INPUT
3 FLOATS WITH A \$1 OF 8 \, AND THEN DIDN'T WANT TO CONTINUE INPUTTING
THE REMAINING 5).;
#X connect 0 0 1 0;
#X connect 1 0 2 0;
#X connect 1 1 3 1;
#X connect 2 0 6 0;
#X connect 3 0 4 0;
#X connect 4 0 5 1;
#X connect 4 1 5 2;
#X connect 4 2 5 3;
#X connect 4 3 5 4;
#X connect 4 4 5 5;
#X connect 4 5 5 6;
#X connect 4 6 5 7;
#X connect 4 7 5 8;
#X connect 4 8 5 9;
#X connect 4 9 5 10;
#X connect 4 10 5 11;
#X connect 4 11 5 12;
#X connect 4 12 5 13;
#X connect 4 13 5 14;
#X connect 4 14 5 15;
#X connect 4 15 5 16;
#X connect 5 0 15 0;
#X connect 6 0 10 0;
#X connect 6 1 3 0;
#X connect 7 0 8 0;
#X connect 8 0 9 0;
#X connect 9 0 10 1;
#X connect 10 0 11 0;
#X connect 11 0 12 0;
#X connect 12 0 13 0;
#X connect 13 0 19 0;
#X connect 14 0 5 0;
#X connect 14 1 15 1;
#X connect 15 0 17 0;
#X connect 15 1 17 1;
#X connect 16 0 18 0;
#X connect 17 0 16 0;
#X connect 19 0 20 0;
#X connect 19 1 20 1;
#X connect 20 0 21 0;
#X connect 21 0 14 0;
#X connect 22 0 23 0;
#X connect 23 0 24 0;
#X connect 24 0 2 1;
#X connect 24 1 25 0;
#X connect 25 0 5 1;
#X connect 25 0 5 2;
#X connect 25 0 5 3;
#X connect 25 0 5 4;
#X connect 25 0 5 5;
#X connect 25 0 5 6;
#X connect 25 0 5 7;
#X connect 25 0 5 8;
#X connect 25 0 5 9;
#X connect 25 0 5 10;
#X connect 25 0 5 11;
#X connect 25 0 5 12;
#X connect 25 0 5 13;
#X connect 25 0 5 14;
#X connect 25 0 5 15;
#X connect 25 0 5 16;
