#N canvas 0 38 1512 884 12;
#X obj 603 274 memory;
#X obj 1 1 tgl 19 0 empty empty empty 0 -10 0 12 #fcfcfc #000000 #000000 0 1;
#X floatatom 20 1 2 0 8 0 - - - 0;
#X obj 1 20 tgl 19 0 empty empty empty 0 -10 0 12 #fcfcfc #000000 #000000 0 1;
#X floatatom 20 20 2 0 8 0 - - - 0;
#X obj 1 39 tgl 19 0 empty empty empty 0 -10 0 12 #fcfcfc #000000 #000000 0 1;
#X floatatom 20 39 2 0 8 0 - - - 0;
#X obj 1 58 tgl 19 0 empty empty empty 0 -10 0 12 #fcfcfc #000000 #000000 0 1;
#X floatatom 20 58 2 0 8 0 - - - 0;
#X obj 1 77 tgl 19 0 empty empty empty 0 -10 0 12 #fcfcfc #000000 #000000 0 1;
#X floatatom 20 77 2 0 8 0 - - - 0;
#X obj 1 96 tgl 19 0 empty empty empty 0 -10 0 12 #fcfcfc #000000 #000000 0 1;
#X floatatom 20 96 2 0 8 0 - - - 0;
#X obj 1 115 tgl 19 0 empty empty empty 0 -10 0 12 #fcfcfc #000000 #000000 0 1;
#X floatatom 20 115 2 0 8 0 - - - 0;
#X obj 1 134 tgl 19 0 empty empty empty 0 -10 0 12 #fcfcfc #000000 #000000 0 1;
#X floatatom 20 134 2 0 8 0 - - - 0;
#X obj 603 303 memory;
#X obj 603 334 memory;
#X obj 603 363 memory;
#X obj 603 394 memory;
#X obj 603 423 memory;
#X obj 603 454 memory;
#X obj 603 483 memory;
#X obj 855 113 inlet;
#X obj 855 137 route save recall, f 22;
#X obj 855 161 s \$0-save;
#X obj 930 161 s \$0-recall;
#X obj 642 238 r \$0-save;
#X obj 717 238 r \$0-recall;
#X obj 692 615 16f, f 88;
#X obj 692 663 sel 1;
#X obj 692 639 == 0;
#X msg 692 687 0;
#X obj 692 711 s \$0-length;
#X obj 742 663 sel 1;
#X obj 742 639 == 0;
#X obj 792 663 sel 1;
#X obj 792 639 == 0;
#X obj 842 663 sel 1;
#X obj 842 639 == 0;
#X obj 892 663 sel 1;
#X obj 892 639 == 0;
#X obj 942 663 sel 1;
#X obj 942 639 == 0;
#X obj 992 663 sel 1;
#X obj 992 639 == 0;
#X obj 1042 663 sel 1;
#X obj 1042 639 == 0;
#X msg 1042 687 7;
#X msg 992 687 6;
#X msg 942 687 5;
#X msg 892 687 4;
#X msg 842 687 3;
#X msg 792 687 2;
#X msg 742 687 1;
#X obj 1184 222 r \$0-length;
#X obj 1110 246 counter, f 11;
#X obj 262 615 8step, f 42;
#X obj 658 89 inlet;
#X obj 658 161 s \$0-bang;
#X obj 1110 222 r \$0-bang;
#X msg 262 639 recall \$1;
#X obj 262 663 outlet;
#X obj 1110 270 s \$0-step;
#X obj 262 591 r \$0-step;
#X obj 514 53 r \$0-step;
#X obj 514 77 == 0;
#X obj 514 96 == 1;
#X obj 514 115 == 2;
#X obj 514 134 == 3;
#X obj 514 153 == 4;
#X obj 514 172 == 5;
#X obj 514 191 == 6;
#X obj 514 210 == 7;
#X obj 658 113 bng 19 250 50 0 empty empty empty 0 -10 0 12 #fcfcfc #000000 #000000;
#X obj 658 137 t b b, f 11;
#X obj 732 161 s \$0-lengthcheck;
#X obj 871 402 r \$0-lengthcheck;
#X obj 871 426 t b b;
#X msg 903 450 8;
#X obj 903 474 s \$0-length;
#X text 40 2 m;
#X text 40 21 a;
#X text 40 40 e;
#X text 40 59 s;
#X text 40 78 t;
#X text 40 97 r;
#X text 40 116 o;
#X text 40 135 :);
#X text 1026 38 TODO:;
#X text 1027 67 - build out save/recall panel;
#X text 1029 89 - build the [everyn] directly into this object and expose it on the interface;
#X text 1029 119 - add an on/off toggle to the interface;
#X connect 0 0 30 1;
#X connect 0 0 58 1;
#X connect 2 0 0 0;
#X connect 4 0 17 0;
#X connect 6 0 18 0;
#X connect 8 0 19 0;
#X connect 10 0 20 0;
#X connect 12 0 21 0;
#X connect 14 0 22 0;
#X connect 16 0 23 0;
#X connect 17 0 30 2;
#X connect 17 0 58 2;
#X connect 18 0 30 3;
#X connect 18 0 58 3;
#X connect 19 0 30 4;
#X connect 19 0 58 4;
#X connect 20 0 30 5;
#X connect 20 0 58 5;
#X connect 21 0 30 6;
#X connect 21 0 58 6;
#X connect 22 0 30 7;
#X connect 22 0 58 7;
#X connect 23 0 30 8;
#X connect 23 0 58 8;
#X connect 24 0 25 0;
#X connect 25 0 26 0;
#X connect 25 1 27 0;
#X connect 28 0 0 1;
#X connect 28 0 23 1;
#X connect 28 0 22 1;
#X connect 28 0 21 1;
#X connect 28 0 20 1;
#X connect 28 0 19 1;
#X connect 28 0 18 1;
#X connect 28 0 17 1;
#X connect 29 0 0 1;
#X connect 29 0 23 1;
#X connect 29 0 22 1;
#X connect 29 0 21 1;
#X connect 29 0 20 1;
#X connect 29 0 19 1;
#X connect 29 0 18 1;
#X connect 29 0 17 1;
#X connect 30 0 32 0;
#X connect 30 1 36 0;
#X connect 30 2 38 0;
#X connect 30 3 40 0;
#X connect 30 4 42 0;
#X connect 30 5 44 0;
#X connect 30 6 46 0;
#X connect 30 7 48 0;
#X connect 31 0 33 0;
#X connect 32 0 31 0;
#X connect 33 0 34 0;
#X connect 35 0 55 0;
#X connect 36 0 35 0;
#X connect 37 0 54 0;
#X connect 38 0 37 0;
#X connect 39 0 53 0;
#X connect 40 0 39 0;
#X connect 41 0 52 0;
#X connect 42 0 41 0;
#X connect 43 0 51 0;
#X connect 44 0 43 0;
#X connect 45 0 50 0;
#X connect 46 0 45 0;
#X connect 47 0 49 0;
#X connect 48 0 47 0;
#X connect 49 0 34 0;
#X connect 50 0 34 0;
#X connect 51 0 34 0;
#X connect 52 0 34 0;
#X connect 53 0 34 0;
#X connect 54 0 34 0;
#X connect 55 0 34 0;
#X connect 56 0 57 2;
#X connect 57 0 64 0;
#X connect 58 0 62 0;
#X connect 59 0 75 0;
#X connect 61 0 57 0;
#X connect 62 0 63 0;
#X connect 65 0 58 0;
#X connect 66 0 67 0;
#X connect 66 0 68 0;
#X connect 66 0 69 0;
#X connect 66 0 70 0;
#X connect 66 0 71 0;
#X connect 66 0 72 0;
#X connect 66 0 73 0;
#X connect 66 0 74 0;
#X connect 67 0 1 0;
#X connect 68 0 3 0;
#X connect 69 0 5 0;
#X connect 70 0 7 0;
#X connect 71 0 9 0;
#X connect 72 0 11 0;
#X connect 73 0 13 0;
#X connect 74 0 15 0;
#X connect 75 0 76 0;
#X connect 76 0 60 0;
#X connect 76 1 77 0;
#X connect 78 0 79 0;
#X connect 79 0 30 0;
#X connect 79 1 80 0;
#X connect 80 0 81 0;
#X coords 0 -1 1 1 60 152 2 1 1;
