#N canvas 409 402 760 300 12;
#X obj 49 34 inlet;
#X obj 245 55 bng 15 250 50 0 empty empty empty 17 7 0 10 #fcfcfc #000000
#000000;
#X obj 245 31 inlet;
#X obj 49 118 fbank2, f 70;
#X obj 49 166 sel 1;
#X obj 49 190 t b b, f 28;
#X obj 535 172 outlet;
#X obj 49 142 > -2.14748e+09, f 35;
#X msg 245 75 -2.14748e+09;
#X obj 284 31 loadbang;
#X connect 0 0 3 0;
#X connect 1 0 8 0;
#X connect 2 0 1 0;
#X connect 3 0 7 0;
#X connect 3 1 7 1;
#X connect 3 2 6 0;
#X connect 4 0 5 0;
#X connect 5 0 3 2;
#X connect 5 1 3 1;
#X connect 7 0 4 0;
#X connect 8 0 7 1;
#X connect 9 0 1 0;
