#N canvas 498 232 401 298 12;
#X obj 130 55 inlet;
#X obj 257 57 inlet;
#X obj 130 79 t f b, f 6;
#X obj 257 105 clip 0 1;
#X obj 163 248 outlet;
#X text 127 27 float;
#X obj 169 112 random 1000;
#X obj 257 129 * 1000;
#X text 211 35 \$1 % chance from 0 to 1;
#X obj 214 248 outlet;
#X obj 169 183 sel 0 1;
#X obj 130 207 fbank2, f 11;
#X obj 169 160 >, f 13;
#X obj 1 21 msphsl 0 1;
#X text 7 2 -- maybe :) --;
#X obj 21 61 loadbang;
#X obj 257 81 f;
#X obj 21 85 f \$1;
#X obj 169 136 + 1;
#X connect 0 0 2 0;
#X connect 1 0 16 0;
#X connect 2 0 11 0;
#X connect 2 1 6 0;
#X connect 3 0 7 0;
#X connect 6 0 18 0;
#X connect 7 0 12 1;
#X connect 10 0 11 1;
#X connect 10 1 11 2;
#X connect 11 1 4 0;
#X connect 11 2 9 0;
#X connect 12 0 10 0;
#X connect 13 0 16 0;
#X connect 15 0 17 0;
#X connect 16 0 3 0;
#X connect 17 0 13 0;
#X connect 18 0 12 0;
#X coords 0 -1 1 1 116 38 2 1 1;
