#N canvas 498 232 291 248 12;
#X obj 23 41 inlet;
#X obj 150 43 inlet;
#X obj 150 67 f \$1;
#X obj 82 43 loadbang;
#X obj 23 190 spigot;
#X obj 23 65 t f b, f 6;
#X obj 150 91 clip 0 1;
#X obj 23 214 outlet;
#X text 20 13 float;
#X obj 62 146 <, f 13;
#X obj 62 123 random 1000;
#X obj 150 115 * 1000;
#X text 104 21 \$1 % chance from 0 to 1;
#X connect 0 0 5 0;
#X connect 1 0 2 0;
#X connect 2 0 6 0;
#X connect 3 0 2 0;
#X connect 4 0 7 0;
#X connect 5 0 4 0;
#X connect 5 1 10 0;
#X connect 6 0 11 0;
#X connect 9 0 4 1;
#X connect 10 0 9 0;
#X connect 11 0 9 1;
