#N canvas 4 50 1623 1021 10;
#X obj 682 74 inlet;
#X obj 985 210 print INVALID_PARAMETER;
#X obj 706 189 route save recall, f 47;
#X obj 903 327 pack f f, f 23;
#X obj 682 257 - 1;
#X obj 540 247 inlet;
#X obj 839 249 - 1;
#X obj 839 635 outlet;
#X obj 540 268 t f f;
#X obj 839 592 t f f;
#X obj 839 571 16step, f 51;
#X obj 903 530 route 0 1 2 3 4 5 6 7 8 9 10 11 12 13 14 15;
#X obj 706 213 clip 1 16;
#X obj 845 210 clip 1 16;
#X connect 0 0 2 0;
#X connect 2 0 12 0;
#X connect 2 1 13 0;
#X connect 2 2 1 0;
#X connect 3 0 11 0;
#X connect 4 0 3 0;
#X connect 5 0 8 0;
#X connect 6 0 10 0;
#X connect 8 0 7 0;
#X connect 8 1 3 1;
#X connect 9 0 7 0;
#X connect 9 1 3 1;
#X connect 10 0 9 0;
#X connect 11 0 10 1;
#X connect 11 1 10 2;
#X connect 11 2 10 3;
#X connect 11 3 10 4;
#X connect 11 4 10 5;
#X connect 11 5 10 6;
#X connect 11 6 10 7;
#X connect 11 7 10 8;
#X connect 11 8 10 9;
#X connect 11 9 10 10;
#X connect 11 10 10 11;
#X connect 11 11 10 12;
#X connect 11 12 10 13;
#X connect 11 13 10 14;
#X connect 11 14 10 15;
#X connect 11 15 10 16;
#X connect 12 0 4 0;
#X connect 13 0 6 0;
