#N canvas 452 223 461 381 12;
#X obj 30 189 tgl 15 0 empty empty empty 17 7 0 10 #fcfcfc #000000
#000000 0 1;
#X floatatom 30 270 5 0 0 0 - - - 0;
#X obj 30 79 inlet;
#X obj 202 79 inlet;
#X obj 305 79 inlet;
#X obj 30 340 outlet;
#X text 15 53 on/off toggle;
#X obj 30 208 metro \$1, f 25;
#X text 159 57 \$1 tick rate in ms;
#X obj 305 102 f \$2;
#X obj 243 79 loadbang;
#X text 308 58 \$2 loop length;
#X obj 30 293 + 1;
#X floatatom 30 317 5 0 0 0 - - - 0;
#X obj 30 242 counter;
#X text 11 14 emits ticks at rate \$1 from 1 to loop length (\$2) \,
inclusive;
#X connect 0 0 7 0;
#X connect 1 0 12 0;
#X connect 2 0 0 0;
#X connect 3 0 7 1;
#X connect 4 0 9 0;
#X connect 7 0 14 0;
#X connect 9 0 14 2;
#X connect 10 0 9 0;
#X connect 12 0 13 0;
#X connect 13 0 5 0;
#X connect 14 0 1 0;
