#N canvas 817 148 547 179 12;
#X obj 23 44 inlet;
#X obj 116 44 inlet;
#X obj 23 140 noteout, f 27;
#X obj 209 92 loadbang;
#X text 8 15 midi pitch;
#X obj 116 68 clip 0 127;
#X text 113 15 velocity (0...127);
#X text 417 57 see also:;
#X obj 397 83 microbrutefilter;
#X msg 209 116 5;
#X connect 0 0 2 0;
#X connect 1 0 5 0;
#X connect 3 0 9 0;
#X connect 5 0 2 1;
#X connect 9 0 2 2;
