#N canvas 682 126 138 173 12;
#X obj 9 39 inlet;
#X obj 9 63 scaled 0 1 0 127;
#X obj 9 135 ctlout;
#X obj 36 87 loadbang;
#X msg 36 111 1;
#X text 3 9 value (0...1);
#X connect 0 0 1 0;
#X connect 1 0 2 0;
#X connect 3 0 4 0;
#X connect 4 0 2 1;
#X connect 4 0 2 2;
