#N canvas 868 40 383 768 10;
#X obj 98 18 midirealtimein;
#X floatatom 98 42 5 0 0 0 - - - 0;
#X obj 98 64 sel 248 250 251 252;
#X obj 125 159 bng 50 250 50 0 empty empty empty 17 7 0 10 #0c4410
#fcfcfc #000000;
#X obj 248 160 bng 50 250 50 0 empty empty empty 17 7 0 10 #fc0400
#fcfcfc #000000;
#X obj 186 159 bng 50 250 50 0 empty empty empty 17 7 0 10 #0400fc
#fcfcfc #000000;
#X text 183 211 continue;
#X text 245 211 stop;
#X text 123 211 start;
#X msg 244 373 0;
#X obj 233 461 tgl 15 0 empty empty empty 17 7 0 10 #fcfcfc #000000
#000000 0 1;
#X obj 194 682 outlet;
#X obj 46 451 bng 15 250 50 0 empty empty empty 17 7 0 10 #fcfcfc #000000
#000000;
#X obj 175 373 t b b;
#X obj 143 484 spigot;
#X msg 177 431 1;
#X obj 143 505 bng 15 250 50 0 empty empty empty 17 7 0 10 #fcfcfc
#000000 #000000;
#X obj 45 417 sel 0;
#X obj 45 396 counter 6;
#X connect 0 0 1 0;
#X connect 1 0 2 0;
#X connect 2 0 18 0;
#X connect 2 1 3 0;
#X connect 2 2 5 0;
#X connect 2 3 4 0;
#X connect 3 0 13 0;
#X connect 4 0 9 0;
#X connect 5 0 13 0;
#X connect 9 0 10 0;
#X connect 10 0 14 1;
#X connect 12 0 14 0;
#X connect 13 0 18 1;
#X connect 13 1 15 0;
#X connect 14 0 16 0;
#X connect 15 0 10 0;
#X connect 16 0 11 0;
#X connect 17 0 12 0;
#X connect 18 0 17 0;
