#N canvas 0 38 1512 884 12;
#X obj 10 8 table \$0-pitch-1 8192;
#X obj 10 27 table \$0-pitch-2 8192;
#X obj 10 46 table \$0-pitch-3 8192;
#X obj 10 65 table \$0-pitch-4 8192;
#X obj 10 94 table \$0-velocity-1 8192;
#X obj 10 113 table \$0-velocity-2 8192;
#X obj 10 132 table \$0-velocity-3 8192;
#X obj 10 151 table \$0-velocity-4 8192;
#X obj 902 44 inlet index;
#X obj 530 53 inlet pitch_and_velocity;
#X obj 530 101 unpack f f, f 39;
#X obj 902 68 s \$0-index;
#X obj 162 348 r \$0-index;
#X obj 32 372 tabwrite \$0-pitch-1;
#X obj 162 398 r \$0-index;
#X obj 162 448 r \$0-index;
#X obj 162 498 r \$0-index;
#X obj 413 348 r \$0-index;
#X obj 262 372 tabwrite \$0-velocity-1;
#X obj 413 398 r \$0-index;
#X obj 413 448 r \$0-index;
#X obj 413 498 r \$0-index;
#X obj 32 422 tabwrite \$0-pitch-2;
#X obj 32 472 tabwrite \$0-pitch-3;
#X obj 32 522 tabwrite \$0-pitch-4;
#X obj 262 422 tabwrite \$0-velocity-2;
#X obj 262 472 tabwrite \$0-velocity-3;
#X obj 262 522 tabwrite \$0-velocity-4;
#X obj 530 420 unpack f f;
#X obj 616 420 unpack f f;
#X obj 703 420 unpack f f;
#X obj 790 420 unpack f f;
#X obj 530 444 s \$0-p-1;
#X obj 597 468 s \$0-v-1;
#X obj 616 444 s \$0-p-2;
#X obj 683 468 s \$0-v-2;
#X obj 703 444 s \$0-p-3;
#X obj 770 468 s \$0-v-3;
#X obj 790 444 s \$0-p-4;
#X obj 857 468 s \$0-v-4;
#X obj 32 348 r \$0-p-1;
#X obj 32 398 r \$0-p-2;
#X obj 32 448 r \$0-p-3;
#X obj 32 498 r \$0-p-4;
#X obj 262 348 r \$0-v-1;
#X obj 262 398 r \$0-v-2;
#X obj 262 448 r \$0-v-3;
#X obj 262 498 r \$0-v-4;
#X obj 530 125 t b f, f 20;
#X obj 530 372 pack f f f, f 39;
#X obj 560 149 r \$0-index;
#X obj 145 568 r \$0-index;
#X obj 10 180 table \$0-mask 8192;
#X obj 867 583 r \$0-index;
#X obj 758 607 tabwrite \$0-mask;
#X obj 1010 858 tabread \$0-mask;
#X obj 1010 882 sel 0 1 2 3 4, f 66;
#X msg 1010 906 0;
#X obj 1010 930 s \$0-read-1;
#X obj 1010 960 s \$0-read-2;
#X obj 1010 990 s \$0-read-3;
#X obj 1010 1020 s \$0-read-4;
#X msg 1101 906 1;
#X msg 1132 906 0;
#X msg 1193 906 1;
#X msg 1224 906 0;
#X msg 1285 906 1;
#X msg 1316 906 0;
#X msg 1377 906 1;
#X obj 145 834 t f f, f 124;
#X obj 800 906 spigot;
#X obj 839 882 r \$0-read-1;
#X obj 145 858 t f f f f, f 94;
#X obj 800 930 t f f, f 8;
#X obj 800 954 tabread \$0-pitch-1;
#X obj 853 978 tabread \$0-velocity-1;
#X obj 800 1002 pack f f;
#X obj 807 1407 outlet;
#X obj 581 906 spigot;
#X obj 581 930 t f f, f 8;
#X obj 581 1002 pack f f;
#X obj 363 906 spigot;
#X obj 363 930 t f f, f 8;
#X obj 363 1002 pack f f;
#X obj 145 906 spigot;
#X obj 145 930 t f f, f 8;
#X obj 145 1002 pack f f;
#X obj 184 882 r \$0-read-4;
#X obj 145 954 tabread \$0-pitch-4;
#X obj 198 978 tabread \$0-velocity-4;
#X obj 402 882 r \$0-read-3;
#X obj 363 954 tabread \$0-pitch-3;
#X obj 416 978 tabread \$0-velocity-3;
#X obj 620 882 r \$0-read-2;
#X obj 581 954 tabread \$0-pitch-2;
#X obj 634 978 tabread \$0-velocity-2;
#X obj 1020 91 tgl 19 0 empty empty empty 0 -10 0 12 #fcfcfc #000000 #000000 0 1;
#X obj 1020 115 s \$0-clear;
#X obj 1155 450 r \$0-clear;
#X obj 1101 426 r \$0-index;
#X obj 1102 546 tabwrite \$0-mask;
#X text 792 555 writing to the mask;
#X text 1087 407 clearing the mask;
#X text 120 303 writing to pitch and velocity tables;
#X text 610 801 reading back data;
#X obj 1155 474 tgl 19 0 empty empty empty 0 -10 0 12 #fcfcfc #000000 #000000 0 1;
#X obj 1102 498 spigot, f 8;
#X obj 1101 450 t b f;
#X msg 1102 474 0;
#X obj 1102 522 t f b;
#X msg 1134 594 0 0;
#X obj 1134 570 t b b b b;
#X obj 1362 1129 r \$0-clear;
#X msg 1362 1153 stop;
#X obj 1362 1177 outlet;
#X obj 560 173 tabread \$0-mask;
#X obj 560 237 + 1;
#X obj 530 237 f;
#X obj 530 309 t f f;
#X obj 560 197 t f f;
#X obj 758 560 max;
#X floatatom 758 584 5 0 0 0 - - - 0;
#X obj 530 285 + 1;
#X floatatom 581 287 5 0 0 0 - - - 0;
#X obj 530 396 route 1 2 3 4, f 50;
#X obj 665 245 deff \$1 4;
#X obj 530 261 %;
#X obj 877 420 print MIDISEQUENCER_ERROR;
#X obj 665 269 clip 1 4;
#X obj 665 293 i;
#X obj 530 77 spigot, f 23;
#X obj 706 76 tgl 19 0 empty empty empty 0 -10 0 12 #fcfcfc #000000 #000000 0 1;
#X obj 145 642 t f f;
#X obj 145 738 f;
#X obj 145 666 %, f 10;
#X obj 234 568 r \$0-quantize;
#X obj 145 690 sel 0;
#X obj 145 714 bng 19 250 50 0 empty empty empty 0 -10 0 12 #fcfcfc #000000 #000000;
#X obj 145 762 t b f f, f 10;
#X obj 145 810 countrange;
#X obj 234 616 / 2;
#X obj 234 664 i;
#X obj 178 786 -;
#X obj 212 786 +;
#X obj 234 640 max 1;
#X obj 280 616 sel 1;
#X obj 234 592 t f f f;
#X msg 281 658 0;
#X msg 311 658 1;
#X msg 344 658 0;
#X msg 374 658 1;
#X obj 38 679 r \$0-index;
#X obj 38 703 spigot;
#X obj 145 592 spigot;
#X obj 193 592 tgl 19 0 empty empty empty 0 -10 0 12 #fcfcfc #000000 #000000 0 1;
#X obj 86 703 tgl 19 0 empty empty empty 0 -10 0 12 #fcfcfc #000000 #000000 0 1;
#X text 319 607 countrange (used for quantizing) doesn't work if the range is 1;
#X obj 331 1064 unpack f f, f 16;
#X obj 552 1256 maybe 1;
#X obj 331 1256 pack f f, f 16;
#X obj 661 1232 r \$0-maybe;
#X obj 1020 43 inlet params;
#X obj 1136 91 clip 0 1;
#X obj 1136 115 s \$0-maybe;
#X obj 1253 91 tgl 19 0 empty empty empty 0 -10 0 12 #fcfcfc #000000 #000000 0 1;
#X obj 1253 115 s \$0-record;
#X obj 706 53 r \$0-record;
#X obj 1371 91 clip 0 1;
#X obj 1371 187 s \$0-quantize;
#X obj 1272 155 loadbang;
#X msg 1272 179 2;
#X obj 1020 67 route clear maybe record quantize clear_all, f 84;
#X obj 1488 91 bng 19 250 50 0 empty empty empty 0 -10 0 12 #fcfcfc #000000 #000000;
#X obj 1488 115 s \$0-clear_all;
#X obj 1300 451 r \$0-clear_all;
#X msg 1300 499 \$0-pitch-1 const 0;
#X msg 1300 673 \$0-mask const 0;
#X text 1297 429 clearing the whole table;
#X obj 1254 1129 r \$0-clear_all;
#X msg 1300 518 \$0-pitch-2 const 0;
#X msg 1300 537 \$0-pitch-3 const 0;
#X msg 1300 556 \$0-pitch-4 const 0;
#X msg 1300 586 \$0-velocity-1 const 0;
#X msg 1300 605 \$0-velocity-2 const 0;
#X msg 1300 624 \$0-velocity-3 const 0;
#X msg 1300 643 \$0-velocity-4 const 0;
#X msg 1490 479 const 0;
#X obj 1472 524 s \$0-pitch-1;
#X obj 1472 611 s \$0-velocity-1;
#X obj 1472 698 s \$0-mask;
#X obj 1472 543 s \$0-pitch-2;
#X obj 1472 562 s \$0-pitch-3;
#X obj 1472 581 s \$0-pitch-4;
#X obj 1472 630 s \$0-velocity-2;
#X obj 1472 649 s \$0-velocity-3;
#X obj 1472 668 s \$0-velocity-4;
#X obj 1259 477 bng 19 250 50 0 empty empty empty 0 -10 0 12 #fcfcfc #000000 #000000;
#X floatatom 1465 188 5 0 0 0 - - - 0;
#X obj 1371 115 * 6;
#X msg 1371 163 1;
#X msg 1408 163 2;
#X msg 1446 163 4;
#X msg 1483 163 8;
#X msg 1521 163 16;
#X msg 1558 163 32;
#X obj 1371 139 sel 0 1 2 3 4 5 6, f 38;
#X msg 1596 163 64;
#X obj 440 1088 sel 0, f 34;
#X obj 552 1299 pack f f, f 18;
#X text 540 1069 only have [maybe] affect note ons;
#X msg 440 1160 0;
#X obj 331 1184 t f f, f 32;
#X obj 331 1232 spigot;
#X obj 552 1232 spigot;
#X obj 440 1112 t b b;
#X msg 468 1136 1;
#X msg 498 1136 0;
#X msg 698 1136 1;
#X msg 728 1136 0;
#X obj 370 1208 tgl 19 0 empty empty empty 0 -10 0 12 #fcfcfc #000000 #000000 0 1;
#X obj 591 1208 tgl 19 0 empty empty empty 0 -10 0 12 #fcfcfc #000000 #000000 0 1;
#X obj 675 1112 t f b;
#X connect 8 0 11 0;
#X connect 9 0 130 0;
#X connect 9 0 77 0;
#X connect 10 0 48 0;
#X connect 10 1 49 2;
#X connect 12 0 13 1;
#X connect 14 0 22 1;
#X connect 15 0 23 1;
#X connect 16 0 24 1;
#X connect 17 0 18 1;
#X connect 19 0 25 1;
#X connect 20 0 26 1;
#X connect 21 0 27 1;
#X connect 28 0 32 0;
#X connect 28 1 33 0;
#X connect 29 0 34 0;
#X connect 29 1 35 0;
#X connect 30 0 36 0;
#X connect 30 1 37 0;
#X connect 31 0 38 0;
#X connect 31 1 39 0;
#X connect 40 0 13 0;
#X connect 41 0 22 0;
#X connect 42 0 23 0;
#X connect 43 0 24 0;
#X connect 44 0 18 0;
#X connect 45 0 25 0;
#X connect 46 0 26 0;
#X connect 47 0 27 0;
#X connect 48 0 117 0;
#X connect 48 1 49 1;
#X connect 49 0 124 0;
#X connect 50 0 115 0;
#X connect 51 0 153 0;
#X connect 53 0 54 1;
#X connect 55 0 56 0;
#X connect 56 0 57 0;
#X connect 56 1 62 0;
#X connect 56 1 63 0;
#X connect 56 2 64 0;
#X connect 56 2 65 0;
#X connect 56 3 66 0;
#X connect 56 3 67 0;
#X connect 56 4 68 0;
#X connect 57 0 58 0;
#X connect 57 0 59 0;
#X connect 57 0 61 0;
#X connect 57 0 60 0;
#X connect 62 0 58 0;
#X connect 63 0 59 0;
#X connect 63 0 61 0;
#X connect 63 0 60 0;
#X connect 64 0 58 0;
#X connect 64 0 59 0;
#X connect 65 0 60 0;
#X connect 65 0 61 0;
#X connect 66 0 58 0;
#X connect 66 0 60 0;
#X connect 66 0 59 0;
#X connect 67 0 61 0;
#X connect 68 0 61 0;
#X connect 68 0 60 0;
#X connect 68 0 59 0;
#X connect 68 0 58 0;
#X connect 69 0 72 0;
#X connect 69 1 55 0;
#X connect 70 0 73 0;
#X connect 71 0 70 1;
#X connect 72 0 84 0;
#X connect 72 1 81 0;
#X connect 72 2 78 0;
#X connect 72 3 70 0;
#X connect 73 0 74 0;
#X connect 73 1 75 0;
#X connect 74 0 76 0;
#X connect 75 0 76 1;
#X connect 76 0 157 0;
#X connect 78 0 79 0;
#X connect 79 0 94 0;
#X connect 79 1 95 0;
#X connect 80 0 157 0;
#X connect 81 0 82 0;
#X connect 82 0 91 0;
#X connect 82 1 92 0;
#X connect 83 0 157 0;
#X connect 84 0 85 0;
#X connect 85 0 88 0;
#X connect 85 1 89 0;
#X connect 86 0 157 0;
#X connect 87 0 84 1;
#X connect 88 0 86 0;
#X connect 89 0 86 1;
#X connect 90 0 81 1;
#X connect 91 0 83 0;
#X connect 92 0 83 1;
#X connect 93 0 78 1;
#X connect 94 0 80 0;
#X connect 95 0 80 1;
#X connect 96 0 97 0;
#X connect 98 0 105 0;
#X connect 99 0 107 0;
#X connect 105 0 106 1;
#X connect 106 0 109 0;
#X connect 107 0 108 0;
#X connect 107 1 100 1;
#X connect 108 0 106 0;
#X connect 109 0 100 0;
#X connect 109 1 111 0;
#X connect 110 0 77 0;
#X connect 111 0 110 0;
#X connect 111 1 110 0;
#X connect 111 2 110 0;
#X connect 111 3 110 0;
#X connect 112 0 113 0;
#X connect 113 0 114 0;
#X connect 115 0 119 0;
#X connect 116 0 117 1;
#X connect 117 0 116 0;
#X connect 117 0 126 0;
#X connect 118 0 49 0;
#X connect 118 1 120 0;
#X connect 119 0 117 1;
#X connect 119 1 120 1;
#X connect 120 0 121 0;
#X connect 121 0 54 0;
#X connect 122 0 118 0;
#X connect 122 0 123 0;
#X connect 124 0 28 0;
#X connect 124 1 29 0;
#X connect 124 2 30 0;
#X connect 124 3 31 0;
#X connect 124 4 127 0;
#X connect 125 0 128 0;
#X connect 126 0 122 0;
#X connect 128 0 129 0;
#X connect 129 0 126 1;
#X connect 130 0 10 0;
#X connect 131 0 130 1;
#X connect 132 0 134 0;
#X connect 132 1 133 1;
#X connect 133 0 138 0;
#X connect 134 0 136 0;
#X connect 135 0 146 0;
#X connect 136 0 137 0;
#X connect 137 0 133 0;
#X connect 138 0 139 0;
#X connect 138 1 142 0;
#X connect 138 2 143 0;
#X connect 139 0 69 0;
#X connect 140 0 144 0;
#X connect 141 0 143 1;
#X connect 141 0 142 1;
#X connect 142 0 139 1;
#X connect 143 0 139 2;
#X connect 144 0 141 0;
#X connect 145 0 147 0;
#X connect 145 0 148 0;
#X connect 145 1 149 0;
#X connect 145 1 150 0;
#X connect 146 0 140 0;
#X connect 146 1 134 1;
#X connect 146 2 145 0;
#X connect 147 0 154 0;
#X connect 148 0 155 0;
#X connect 149 0 155 0;
#X connect 150 0 154 0;
#X connect 151 0 152 0;
#X connect 152 0 69 0;
#X connect 153 0 132 0;
#X connect 154 0 153 1;
#X connect 155 0 152 1;
#X connect 157 0 211 0;
#X connect 157 1 207 0;
#X connect 158 0 208 0;
#X connect 159 0 77 0;
#X connect 160 0 158 1;
#X connect 161 0 171 0;
#X connect 162 0 163 0;
#X connect 164 0 165 0;
#X connect 166 0 131 0;
#X connect 167 0 198 0;
#X connect 169 0 170 0;
#X connect 170 0 168 0;
#X connect 171 0 96 0;
#X connect 171 1 162 0;
#X connect 171 2 164 0;
#X connect 171 3 167 0;
#X connect 171 4 172 0;
#X connect 172 0 173 0;
#X connect 174 0 186 0;
#X connect 178 0 113 0;
#X connect 186 0 187 0;
#X connect 186 0 195 0;
#X connect 186 0 194 0;
#X connect 186 0 193 0;
#X connect 186 0 192 0;
#X connect 186 0 191 0;
#X connect 186 0 190 0;
#X connect 186 0 189 0;
#X connect 186 0 188 0;
#X connect 196 0 175 0;
#X connect 196 0 185 0;
#X connect 196 0 184 0;
#X connect 196 0 183 0;
#X connect 196 0 182 0;
#X connect 196 0 181 0;
#X connect 196 0 180 0;
#X connect 196 0 179 0;
#X connect 196 0 176 0;
#X connect 198 0 205 0;
#X connect 199 0 168 0;
#X connect 199 0 197 0;
#X connect 200 0 168 0;
#X connect 200 0 197 0;
#X connect 201 0 168 0;
#X connect 201 0 197 0;
#X connect 202 0 168 0;
#X connect 202 0 197 0;
#X connect 203 0 168 0;
#X connect 203 0 197 0;
#X connect 204 0 168 0;
#X connect 204 0 197 0;
#X connect 205 0 199 0;
#X connect 205 1 200 0;
#X connect 205 2 201 0;
#X connect 205 3 202 0;
#X connect 205 4 203 0;
#X connect 205 5 204 0;
#X connect 205 6 206 0;
#X connect 206 0 168 0;
#X connect 206 0 197 0;
#X connect 207 0 214 0;
#X connect 207 1 221 0;
#X connect 208 0 77 0;
#X connect 210 0 159 1;
#X connect 211 0 212 0;
#X connect 211 1 213 0;
#X connect 212 0 159 0;
#X connect 213 0 158 0;
#X connect 214 0 210 0;
#X connect 214 1 215 0;
#X connect 214 1 216 0;
#X connect 215 0 219 0;
#X connect 216 0 220 0;
#X connect 217 0 220 0;
#X connect 218 0 219 0;
#X connect 219 0 212 1;
#X connect 220 0 213 1;
#X connect 221 0 208 1;
#X connect 221 1 218 0;
#X connect 221 1 217 0;
