#N canvas 359 38 1097 884 12;
#X obj 1 1 midisequencer.params;
#X obj 430 339 midisequencer.impl;
#X obj 430 363 outlet;
#X obj 553 363 outlet;
#X obj 245 187 inlet pitch-and-velocity;
#X obj 446 186 inlet index;
#X obj 553 184 inlet params;
#X connect 0 0 1 2;
#X connect 1 0 2 0;
#X connect 1 1 3 0;
#X connect 4 0 1 0;
#X connect 5 0 1 1;
#X connect 6 0 0 0;
#X coords 0 -1 1 1 204 78 2 1 1;
