#N canvas 502 79 776 444 12;
#X obj 356 30 inlet;
#X obj 121 255 outlet;
#X obj 1 24 tgl 19 0 empty empty clear 20 10 0 12 #fcfcfc #000000 #000000 0 1;
#X msg 121 216 clear \$1;
#X text 14 4 --- midisequencer :) ---;
#X obj 1 61 mspparam maybe 0 1 1;
#X obj 186 24 tgl 19 0 empty empty record -43 10 0 12 #fcfcfc #000000 #000000 0 1;
#X msg 230 156 record \$1;
#X obj 59 24 bng 19 250 50 0 empty empty empty 0 -10 0 12 #fcfcfc #000000 #000000;
#X obj 391 111 route clear maybe record quantize clear_all;
#X msg 358 234 clear_all;
#X obj 79 43 hradio 18 1 0 7 empty empty quantize -58 10 0 12 #fcfcfc #000000 #000000 0;
#X msg 158 346 quantize \$1;
#X obj 569 142 clip 0 1;
#X obj 569 166 * 6;
#X obj 40 341 / 6;
#X obj 493 279 loadbang;
#X msg 493 303 1;
#X connect 0 0 9 0;
#X connect 2 0 3 0;
#X connect 3 0 1 0;
#X connect 5 0 1 0;
#X connect 6 0 7 0;
#X connect 7 0 1 0;
#X connect 8 0 10 0;
#X connect 9 0 2 0;
#X connect 9 1 5 0;
#X connect 9 2 6 0;
#X connect 9 3 13 0;
#X connect 9 4 8 0;
#X connect 10 0 1 0;
#X connect 11 0 15 0;
#X connect 12 0 1 0;
#X connect 13 0 14 0;
#X connect 14 0 11 0;
#X connect 15 0 12 0;
#X connect 16 0 17 0;
#X connect 17 0 11 0;
#X coords 0 -1 1 1 204 78 2 1 1;
