#N canvas 866 266 450 300 12;
#X obj 63 149 inlet~;
#X obj 121 149 inlet~;
#X obj 63 173 *~ 0.5;
#X obj 121 173 *~ 0.5;
#X obj 63 197 +~;
#X obj 121 197 -~;
#X text 15 147 left;
#X text 177 148 right;
#X text 22 220 mid;
#X text 182 219 side;
#X obj 63 221 outlet~;
#X obj 121 221 outlet~;
#X text 14 19 adapted from https://www.youtube.com/watch?v=uaKayJt5kHY
;
#X connect 0 0 2 0;
#X connect 1 0 3 0;
#X connect 2 0 4 0;
#X connect 2 0 5 0;
#X connect 3 0 4 1;
#X connect 3 0 5 1;
#X connect 4 0 10 0;
#X connect 5 0 11 0;
