#N canvas 150 188 1070 300 12;
#X obj 515 43 route x y randomness kickdensity snaredensity hatdensity
, f 66;
#X obj 1 29 mspparam x;
#X obj 1 48 mspparam y;
#X obj 1 67 mspparam randomness;
#X obj 1 86 mspparam kickdensity;
#X obj 1 105 mspparam snaredensity;
#X obj 1 124 mspparam hatdensity;
#X text 103 6 ----- grids :) -----;
#X obj 515 14 inlet;
#X obj 1 227 outlet;
#X connect 0 0 1 0;
#X connect 0 1 2 0;
#X connect 0 2 3 0;
#X connect 0 3 4 0;
#X connect 0 4 5 0;
#X connect 0 5 6 0;
#X connect 1 0 9 0;
#X connect 2 0 9 0;
#X connect 3 0 9 0;
#X connect 4 0 9 0;
#X connect 5 0 9 0;
#X connect 6 0 9 0;
#X connect 8 0 0 0;
#X coords 0 -1 1 1 350 142 2 1 1;
