#N canvas 0 38 1512 884 12;
#N canvas 0 25 1280 747 read_from_drum_map 0;
#N canvas 0 25 1280 747 drum_map 0;
#X obj 44 13 inlet;
#X obj 44 133 sel 0 1 2 3 4 5 6 7 8 9 10 11 12 13 14 15 16 17 18 19
20 21 22 23 24, f 74;
#X text 14 235 node_10;
#X text 24 315 node_8;
#X text 34 395 node_0;
#X text 44 475 node_9;
#X text 54 555 node_11;
#X text 64 635 node_15;
#X text 74 715 node_7;
#X text 84 795 node_13;
#X text 94 875 node_12;
#X text 104 955 node_6;
#X text 114 1035 node_18;
#X text 124 1115 node_14;
#X text 134 1195 node_4;
#X text 144 1275 node_5;
#X text 154 1355 node_3;
#X text 164 1435 node_23;
#X text 174 1515 node_16;
#X text 184 1595 node_21;
#X text 194 1675 node_1;
#X text 204 1755 node_2;
#X text 214 1835 node_24;
#X text 224 1915 node_19;
#X text 234 1995 node_17;
#X text 244 2075 node_20;
#X text 254 2155 node_22;
#X msg 79 209 145 0 0 0 0 0 109 0 0 0 0 0 255 0 109 0 72 0 218 0 0
0 0 0 36 0 0 0 182 0 0 0 0 0 127 0 159 0 127 0 159 0 191 0 223 0 63
0 255 0 95 0 31 0 95 0 31 0 8 0 63 0 8 0 255 0 0 0 145 0 0 0 182 0
109 0 109 0 109 0 218 0 0 0 72 0 0 0 182 0 72 0 182 0 36 0;
#X msg 89 289 255 0 0 0 218 0 0 0 36 0 0 0 218 0 0 0 182 0 109 0 255
0 0 0 0 0 0 0 145 0 72 0 159 0 0 0 31 0 127 0 255 0 31 0 0 0 95 0 8
0 0 0 191 0 31 0 255 0 31 0 223 0 63 0 255 0 31 0 63 0 31 0 95 0 31
0 63 0 127 0 159 0 31 0 63 0 31 0 223 0 223 0 191 0 191 0;
#X msg 99 369 255 0 0 0 0 0 145 0 0 0 0 0 218 0 0 0 72 0 36 0 182 0
0 0 109 0 0 0 72 0 0 0 36 0 109 0 0 0 8 0 255 0 0 0 0 0 72 0 0 0 182
0 0 0 36 0 218 0 0 0 145 0 0 0 170 0 113 0 255 0 56 0 170 0 141 0 198
0 56 0 170 0 113 0 226 0 28 0 170 0 113 0 198 0 85 0;
#X msg 109 449 226 0 28 0 28 0 141 0 8 0 8 0 255 0 8 0 113 0 28 0 198
0 85 0 56 0 198 0 170 0 28 0 8 0 95 0 8 0 8 0 255 0 63 0 31 0 223 0
8 0 31 0 191 0 8 0 255 0 127 0 127 0 159 0 115 0 46 0 255 0 185 0 139
0 23 0 208 0 115 0 231 0 69 0 255 0 162 0 139 0 115 0 231 0 92 0;
#X msg 119 529 255 0 0 0 0 0 0 0 0 0 0 0 0 0 0 0 255 0 0 0 218 0 72
36 0 0 182 0 0 0 145 109 0 0 127 0 0 0 42 0 212 0 0 212 0 0 212 0 0
0 0 0 42 0 0 0 255 0 0 0 170 170 127 85 145 0 109 109 218 109 72 0
145 0 72 0 218 0 109 0 182 0 109 0 255 0 72 0 182 109 36 109 255 109
109 0;
#X msg 129 609 255 0 0 0 0 0 0 0 36 0 0 0 182 0 0 0 218 0 0 0 0 0 0
0 72 0 0 0 145 0 109 0 36 0 36 0 0 0 0 0 255 0 0 0 182 0 0 0 0 0 0
0 0 0 0 109 218 0 0 0 145 0 72 72 255 0 28 0 226 0 56 0 198 0 0 0 0
0 28 28 170 0 0 0 141 0 0 0 113 0 0 0 85 85 85 85;
#X msg 139 689 223 0 0 0 63 0 0 0 95 0 0 0 223 0 31 0 255 0 0 0 159
0 0 0 127 0 31 0 191 0 31 0 0 0 0 0 109 0 0 0 218 0 0 0 182 0 72 0
8 0 36 0 145 0 36 0 255 0 8 0 182 0 72 0 255 0 72 0 218 0 36 0 218
0 0 0 145 0 0 0 255 0 36 0 182 0 36 0 182 0 0 0 109 0 0 0;
#X msg 149 769 255 0 0 0 0 0 63 0 191 0 95 0 31 0 223 0 255 0 63 0
95 0 63 0 159 0 0 0 0 0 127 0 72 0 0 0 0 0 0 0 255 0 0 0 0 0 0 0 72
0 72 0 36 0 8 0 218 0 182 0 145 0 109 0 255 0 162 0 231 0 162 0 231
0 115 0 208 0 139 0 185 0 92 0 185 0 46 0 162 0 69 0 162 0 23 0;
#X msg 159 849 255 0 0 0 255 0 191 0 0 0 0 0 95 0 63 0 31 0 0 0 223
0 223 0 0 0 8 0 159 0 127 0 0 0 85 0 56 0 28 0 255 0 28 0 0 0 226 0
0 0 170 0 56 0 113 0 198 0 0 0 113 0 141 0 255 0 42 0 233 0 63 0 212
0 85 0 191 0 106 0 191 0 21 0 170 0 8 0 170 0 127 0 148 0 148 0;
#X msg 169 929 255 0 0 0 223 0 0 0 31 0 8 0 127 0 0 0 95 0 0 0 159
0 0 0 95 0 63 0 191 0 0 0 51 0 204 0 0 0 102 0 255 0 127 0 8 0 178
0 25 0 229 0 0 0 76 0 204 0 153 0 51 0 25 0 255 0 226 0 255 0 255 0
198 0 28 0 141 0 56 0 170 0 56 0 85 0 28 0 170 0 28 0 113 0 56 0;
#X msg 179 1009 255 0 8 0 28 0 28 0 198 0 56 0 56 0 85 0 255 0 85 0
113 0 113 0 226 0 141 0 170 0 141 0 0 0 0 0 0 0 0 0 255 0 0 0 127 0
0 0 0 0 0 0 0 0 0 0 63 0 0 0 191 0 0 0 255 0 0 0 255 0 127 0 0 0 85
0 0 0 212 0 0 0 212 0 42 0 170 0 0 0 127 0 0 0 0 0;
#X msg 189 1089 255 0 0 0 51 0 0 0 0 0 0 0 102 0 0 0 204 0 0 0 153
0 0 0 0 0 0 0 51 0 0 0 0 0 0 0 8 0 36 0 255 0 0 0 182 0 8 0 0 0 0 0
72 0 109 0 145 0 0 0 255 0 218 0 212 0 8 0 170 0 0 0 127 0 0 0 85 0
8 0 255 0 8 0 170 0 0 0 127 0 0 0 42 0 8 0;
#X msg 199 1169 255 0 31 0 63 0 63 0 127 0 95 0 191 0 63 0 223 0 31
0 159 0 63 0 31 0 63 0 95 0 31 0 8 0 0 0 95 0 63 0 255 0 0 0 127 0
0 0 8 0 0 0 159 0 63 0 255 0 223 0 191 0 31 0 76 0 25 0 255 0 127 0
153 0 51 0 204 0 102 0 76 0 51 0 229 0 127 0 153 0 51 0 178 0 102 0
;
#X msg 209 1249 255 0 51 0 25 0 76 0 0 0 0 0 102 0 0 0 204 0 229 0
0 0 178 0 0 0 153 0 127 0 8 0 178 0 127 0 153 0 204 0 255 0 0 0 25
0 76 0 102 0 51 0 0 0 0 0 229 0 25 0 25 0 204 0 178 0 102 0 255 0 76
0 127 0 76 0 229 0 76 0 153 0 102 0 255 0 25 0 127 0 51 0 204 0 51
0;
#X msg 219 1329 255 0 212 0 63 0 0 0 106 0 148 0 85 0 127 0 191 0 21
0 233 0 0 0 21 0 170 0 0 0 42 0 0 0 0 0 141 0 113 0 255 0 198 0 0 0
56 0 0 0 85 0 56 0 28 0 226 0 28 0 170 0 56 0 255 0 231 0 255 0 208
0 139 0 92 0 115 0 92 0 185 0 69 0 46 0 46 0 162 0 23 0 208 0 46 0
;
#X msg 229 1409 255 0 0 0 229 0 0 0 204 0 204 0 0 0 76 0 178 0 153
0 51 0 178 0 178 0 127 0 102 51 51 25 0 0 0 0 0 0 0 31 0 0 0 0 255
0 0 31 0 0 8 0 0 0 191 159 127 95 95 0 223 0 63 0 255 0 255 0 204 204
204 204 0 0 51 51 51 51 0 0 204 0 204 0 153 153 153 153 153 0 0 0 102
102 102 102;
#X msg 239 1489 255 0 0 0 0 0 95 0 0 0 127 0 0 0 0 0 223 0 95 0 63
0 31 0 191 0 0 0 159 0 0 0 0 0 31 0 255 0 0 0 0 0 95 0 223 0 0 0 0
0 63 0 191 0 0 0 0 0 0 0 159 0 127 0 141 0 28 0 28 0 28 0 113 0 8 0
8 0 8 0 255 0 0 0 226 0 0 0 198 0 56 0 170 0 85 0;
#X msg 249 1569 255 0 0 0 218 0 0 0 145 0 0 0 36 0 0 0 218 0 0 0 36
0 0 0 182 0 72 0 0 0 109 0 0 0 0 0 8 0 0 0 255 0 85 0 212 0 42 0 0
0 0 0 8 0 0 0 85 0 170 0 127 0 42 0 109 0 109 0 255 0 0 0 72 0 72 0
218 0 0 0 145 0 182 0 255 0 0 0 36 0 36 0 218 0 8 0;
#X msg 259 1649 229 0 25 0 102 0 25 0 204 0 25 0 76 0 8 0 255 0 8 0
51 0 25 0 178 0 25 0 153 0 127 0 28 0 198 0 56 0 56 0 226 0 28 0 141
0 28 0 28 0 170 0 28 0 28 0 255 0 113 0 85 0 85 0 159 0 159 0 255 0
63 0 159 0 159 0 191 0 31 0 159 0 127 0 255 0 31 0 159 0 127 0 223
0 95 0;
#X msg 269 1729 255 0 0 0 127 0 0 0 0 0 102 0 0 0 229 0 0 0 178 0 204
0 0 0 76 0 51 0 153 0 25 0 0 0 127 0 0 0 0 0 255 0 191 0 31 0 63 0
0 0 95 0 0 0 0 0 223 0 0 0 31 0 159 0 255 0 85 0 148 0 85 0 127 0 85
0 106 0 63 0 212 0 170 0 191 0 170 0 85 0 42 0 233 0 21 0;
#X msg 279 1809 170 0 0 0 0 255 0 0 198 0 0 0 0 28 0 0 141 0 0 0 0
226 0 0 56 0 0 113 0 85 0 0 255 0 0 0 0 113 0 0 85 0 0 0 0 226 0 0
141 0 0 8 0 170 56 56 198 0 0 56 0 141 28 0 255 0 0 0 0 191 0 0 159
0 0 0 0 223 0 0 95 0 0 0 0 63 0 0 127 0 0 0 0 31 0 0;
#X msg 289 1889 255 0 0 0 0 0 218 0 182 0 0 0 0 0 145 0 145 0 36 0
0 0 109 0 109 0 0 0 72 0 36 0 0 0 0 0 109 0 8 0 72 0 0 0 255 0 182
0 0 0 0 0 145 0 8 0 36 0 8 0 218 0 182 0 255 0 0 0 0 0 226 0 85 0 0
0 141 0 0 0 0 0 0 0 170 0 56 0 198 0 0 0 113 0 28 0;
#X msg 299 1969 255 0 0 0 8 0 0 0 182 0 0 0 72 0 0 0 218 0 0 0 36 0
0 0 145 0 0 0 109 0 0 0 0 0 51 25 76 25 25 0 153 0 0 0 127 102 178
0 204 0 0 0 0 0 255 0 0 0 102 0 229 0 76 0 113 0 0 0 141 0 85 0 0 0
0 0 170 0 0 0 56 28 255 0 0 0 0 0 198 0 0 0 226 0 0 0;
#X msg 309 2049 255 0 0 0 113 0 0 0 198 0 56 0 85 0 28 0 255 0 0 0
226 0 0 0 170 0 0 0 141 0 0 0 0 0 0 0 0 0 0 0 255 0 145 0 109 0 218
0 36 0 182 0 72 0 72 0 255 0 0 0 0 0 109 0 36 0 36 0 145 0 0 0 72 0
72 0 182 0 0 0 72 0 72 0 218 0 0 0 109 0 109 0 255 0 0 0;
#X msg 319 2129 255 0 0 0 42 0 0 0 212 0 0 0 8 0 212 0 170 0 0 0 85
0 0 0 212 0 8 0 127 0 8 0 255 0 85 0 0 0 0 0 226 0 85 0 0 0 198 0 0
0 141 0 56 0 0 0 170 0 28 0 0 0 113 0 113 0 56 0 255 0 0 0 85 0 56
0 226 0 0 0 0 0 170 0 0 0 141 0 28 0 28 0 198 0 28 0;
#X obj 1061 1606 outlet;
#X text 311 43 values lifted from https://github.com/spoitras/Pd-Grids/blob/master/resources.h
;
#X connect 0 0 1 0;
#X connect 1 0 27 0;
#X connect 1 1 28 0;
#X connect 1 2 29 0;
#X connect 1 3 30 0;
#X connect 1 4 31 0;
#X connect 1 5 32 0;
#X connect 1 6 33 0;
#X connect 1 7 34 0;
#X connect 1 8 35 0;
#X connect 1 9 36 0;
#X connect 1 10 37 0;
#X connect 1 11 38 0;
#X connect 1 12 39 0;
#X connect 1 13 40 0;
#X connect 1 14 41 0;
#X connect 1 15 42 0;
#X connect 1 16 43 0;
#X connect 1 17 44 0;
#X connect 1 18 45 0;
#X connect 1 19 46 0;
#X connect 1 20 47 0;
#X connect 1 21 48 0;
#X connect 1 22 49 0;
#X connect 1 23 50 0;
#X connect 1 24 51 0;
#X connect 27 0 52 0;
#X connect 28 0 52 0;
#X connect 29 0 52 0;
#X connect 30 0 52 0;
#X connect 31 0 52 0;
#X connect 32 0 52 0;
#X connect 33 0 52 0;
#X connect 34 0 52 0;
#X connect 35 0 52 0;
#X connect 36 0 52 0;
#X connect 37 0 52 0;
#X connect 38 0 52 0;
#X connect 39 0 52 0;
#X connect 40 0 52 0;
#X connect 41 0 52 0;
#X connect 42 0 52 0;
#X connect 43 0 52 0;
#X connect 44 0 52 0;
#X connect 45 0 52 0;
#X connect 46 0 52 0;
#X connect 47 0 52 0;
#X connect 48 0 52 0;
#X connect 49 0 52 0;
#X connect 50 0 52 0;
#X connect 51 0 52 0;
#X restore 30 183 pd drum_map;
#X obj 30 273 unpack f f f f f f f f f f f f f f f f f f f f f f f
f f f f f f f f f f f f f f f f f f f f f f f f f f f f f f f f f f
f f f f f f f f f f f f f f f f f f f f f f f f f f f f f f f f f f
f f f f f, f 177;
#X obj 12 384 f;
#X obj 37 384 f;
#X obj 62 384 f;
#X obj 87 384 f;
#X obj 112 384 f;
#X obj 137 384 f;
#X obj 162 384 f;
#X obj 187 384 f;
#X obj 212 384 f;
#X obj 237 384 f;
#X obj 262 384 f;
#X obj 287 384 f;
#X obj 312 384 f;
#X obj 337 384 f;
#X obj 362 384 f;
#X obj 387 384 f;
#X obj 412 384 f;
#X obj 437 384 f;
#X obj 462 384 f;
#X obj 487 384 f;
#X obj 512 384 f;
#X obj 537 384 f;
#X obj 562 384 f;
#X obj 587 384 f;
#X obj 612 384 f;
#X obj 637 384 f;
#X obj 662 384 f;
#X obj 687 384 f;
#X obj 712 384 f;
#X obj 737 384 f;
#X obj 762 384 f;
#X obj 787 384 f;
#X obj 309 560 f;
#X obj 334 560 f;
#X obj 359 560 f;
#X obj 384 560 f;
#X obj 409 560 f;
#X obj 434 560 f;
#X obj 459 560 f;
#X obj 484 560 f;
#X obj 509 560 f;
#X obj 534 560 f;
#X obj 559 560 f;
#X obj 584 560 f;
#X obj 609 560 f;
#X obj 634 560 f;
#X obj 659 560 f;
#X obj 684 560 f;
#X obj 709 560 f;
#X obj 734 560 f;
#X obj 759 560 f;
#X obj 784 560 f;
#X obj 809 560 f;
#X obj 834 560 f;
#X obj 859 560 f;
#X obj 884 560 f;
#X obj 909 560 f;
#X obj 934 560 f;
#X obj 959 560 f;
#X obj 984 560 f;
#X obj 1009 560 f;
#X obj 1034 560 f;
#X obj 1059 560 f;
#X obj 1084 560 f;
#X obj 473 744 f;
#X obj 498 744 f;
#X obj 523 744 f;
#X obj 548 744 f;
#X obj 573 744 f;
#X obj 598 744 f;
#X obj 623 744 f;
#X obj 648 744 f;
#X obj 673 744 f;
#X obj 698 744 f;
#X obj 723 744 f;
#X obj 748 744 f;
#X obj 773 744 f;
#X obj 798 744 f;
#X obj 823 744 f;
#X obj 848 744 f;
#X obj 873 744 f;
#X obj 898 744 f;
#X obj 923 744 f;
#X obj 948 744 f;
#X obj 973 744 f;
#X obj 998 744 f;
#X obj 1023 744 f;
#X obj 1048 744 f;
#X obj 1073 744 f;
#X obj 1098 744 f;
#X obj 1123 744 f;
#X obj 1148 744 f;
#X obj 1173 744 f;
#X obj 1198 744 f;
#X obj 1223 744 f;
#X obj 1248 744 f;
#X obj 30 63 inlet;
#X obj 104 63 inlet;
#X obj 30 87 clip 0 4;
#X obj 104 87 clip 0 4;
#X obj 237 62 inlet;
#X obj 237 86 unpack f f;
#X obj 304 110 clip 0 31;
#X obj 237 134 * 32;
#X obj 237 158 +, f 10;
#X obj 237 110 clip 0 2;
#X obj 237 222 sel 0 1 2 3 4 5 6 7 8 9 10 11 12 13 14 15 16 17 18 19
20 21 22 23 24 25 26 27 28 29 30 31 32 33 34 35 36 37 38 39 40 41 42
43 44 45 46 47 48 49 50 51 52 53 54 55 56 57 58 59 60 61 62 63 64 65
66 67 68 69 70 71 72 73 74 75 76 77 78 79 80 81 82 83 84 85 86 87 88
89 90 91 92 93 94 95, f 147;
#X floatatom 56 730 5 0 0 0 - - - 0;
#X obj 56 753 outlet;
#X obj 30 159 +, f 16;
#X obj 143 135 * 5;
#X obj 104 111 t b f, f 6;
#X text 25 1 x \; does not \; output a \; value.;
#X text 97 1 y \; does not \; output a \; value.;
#X obj 655 53 inlet;
#X text 178 14 list in the form of "f f". first f is instrument value
(0...2) and second f is step (0...31). setting this does not output
a value.;
#X obj 655 117 bng 15 250 50 0 empty empty empty 17 7 0 10 #fcfcfc
#000000 #000000;
#X obj 232 192 f;
#X text 634 27 bang to output a value;
#X connect 0 0 1 0;
#X connect 1 0 2 1;
#X connect 1 1 3 1;
#X connect 1 2 4 1;
#X connect 1 3 5 1;
#X connect 1 4 6 1;
#X connect 1 5 7 1;
#X connect 1 6 8 1;
#X connect 1 7 9 1;
#X connect 1 8 10 1;
#X connect 1 9 11 1;
#X connect 1 10 12 1;
#X connect 1 11 13 1;
#X connect 1 12 14 1;
#X connect 1 13 15 1;
#X connect 1 14 16 1;
#X connect 1 15 17 1;
#X connect 1 16 18 1;
#X connect 1 17 19 1;
#X connect 1 18 20 1;
#X connect 1 19 21 1;
#X connect 1 20 22 1;
#X connect 1 21 23 1;
#X connect 1 22 24 1;
#X connect 1 23 25 1;
#X connect 1 24 26 1;
#X connect 1 25 27 1;
#X connect 1 26 28 1;
#X connect 1 27 29 1;
#X connect 1 28 30 1;
#X connect 1 29 31 1;
#X connect 1 30 32 1;
#X connect 1 31 33 1;
#X connect 1 32 34 1;
#X connect 1 33 35 1;
#X connect 1 34 36 1;
#X connect 1 35 37 1;
#X connect 1 36 38 1;
#X connect 1 37 39 1;
#X connect 1 38 40 1;
#X connect 1 39 41 1;
#X connect 1 40 42 1;
#X connect 1 41 43 1;
#X connect 1 42 44 1;
#X connect 1 43 45 1;
#X connect 1 44 46 1;
#X connect 1 45 47 1;
#X connect 1 46 48 1;
#X connect 1 47 49 1;
#X connect 1 48 50 1;
#X connect 1 49 51 1;
#X connect 1 50 52 1;
#X connect 1 51 53 1;
#X connect 1 52 54 1;
#X connect 1 53 55 1;
#X connect 1 54 56 1;
#X connect 1 55 57 1;
#X connect 1 56 58 1;
#X connect 1 57 59 1;
#X connect 1 58 60 1;
#X connect 1 59 61 1;
#X connect 1 60 62 1;
#X connect 1 61 63 1;
#X connect 1 62 64 1;
#X connect 1 63 65 1;
#X connect 1 64 66 1;
#X connect 1 65 67 1;
#X connect 1 66 68 1;
#X connect 1 67 69 1;
#X connect 1 68 70 1;
#X connect 1 69 71 1;
#X connect 1 70 72 1;
#X connect 1 71 73 1;
#X connect 1 72 74 1;
#X connect 1 73 75 1;
#X connect 1 74 76 1;
#X connect 1 75 77 1;
#X connect 1 76 78 1;
#X connect 1 77 79 1;
#X connect 1 78 80 1;
#X connect 1 79 81 1;
#X connect 1 80 82 1;
#X connect 1 81 83 1;
#X connect 1 82 84 1;
#X connect 1 83 85 1;
#X connect 1 84 86 1;
#X connect 1 85 87 1;
#X connect 1 86 88 1;
#X connect 1 87 89 1;
#X connect 1 88 90 1;
#X connect 1 89 91 1;
#X connect 1 90 92 1;
#X connect 1 91 93 1;
#X connect 1 92 94 1;
#X connect 1 93 95 1;
#X connect 1 94 96 1;
#X connect 1 95 97 1;
#X connect 2 0 109 0;
#X connect 3 0 109 0;
#X connect 4 0 109 0;
#X connect 5 0 109 0;
#X connect 6 0 109 0;
#X connect 7 0 109 0;
#X connect 8 0 109 0;
#X connect 9 0 109 0;
#X connect 10 0 109 0;
#X connect 11 0 109 0;
#X connect 12 0 109 0;
#X connect 13 0 109 0;
#X connect 14 0 109 0;
#X connect 15 0 109 0;
#X connect 16 0 109 0;
#X connect 17 0 109 0;
#X connect 18 0 109 0;
#X connect 19 0 109 0;
#X connect 20 0 109 0;
#X connect 21 0 109 0;
#X connect 22 0 109 0;
#X connect 23 0 109 0;
#X connect 24 0 109 0;
#X connect 25 0 109 0;
#X connect 26 0 109 0;
#X connect 27 0 109 0;
#X connect 28 0 109 0;
#X connect 29 0 109 0;
#X connect 30 0 109 0;
#X connect 31 0 109 0;
#X connect 32 0 109 0;
#X connect 33 0 109 0;
#X connect 34 0 109 0;
#X connect 35 0 109 0;
#X connect 36 0 109 0;
#X connect 37 0 109 0;
#X connect 38 0 109 0;
#X connect 39 0 109 0;
#X connect 40 0 109 0;
#X connect 41 0 109 0;
#X connect 42 0 109 0;
#X connect 43 0 109 0;
#X connect 44 0 109 0;
#X connect 45 0 109 0;
#X connect 46 0 109 0;
#X connect 47 0 109 0;
#X connect 48 0 109 0;
#X connect 49 0 109 0;
#X connect 50 0 109 0;
#X connect 51 0 109 0;
#X connect 52 0 109 0;
#X connect 53 0 109 0;
#X connect 54 0 109 0;
#X connect 55 0 109 0;
#X connect 56 0 109 0;
#X connect 57 0 109 0;
#X connect 58 0 109 0;
#X connect 59 0 109 0;
#X connect 60 0 109 0;
#X connect 61 0 109 0;
#X connect 62 0 109 0;
#X connect 63 0 109 0;
#X connect 64 0 109 0;
#X connect 65 0 109 0;
#X connect 66 0 109 0;
#X connect 67 0 109 0;
#X connect 68 0 109 0;
#X connect 69 0 109 0;
#X connect 70 0 109 0;
#X connect 71 0 109 0;
#X connect 72 0 109 0;
#X connect 73 0 109 0;
#X connect 74 0 109 0;
#X connect 75 0 109 0;
#X connect 76 0 109 0;
#X connect 77 0 109 0;
#X connect 78 0 109 0;
#X connect 79 0 109 0;
#X connect 80 0 109 0;
#X connect 81 0 109 0;
#X connect 82 0 109 0;
#X connect 83 0 109 0;
#X connect 84 0 109 0;
#X connect 85 0 109 0;
#X connect 86 0 109 0;
#X connect 87 0 109 0;
#X connect 88 0 109 0;
#X connect 89 0 109 0;
#X connect 90 0 109 0;
#X connect 91 0 109 0;
#X connect 92 0 109 0;
#X connect 93 0 109 0;
#X connect 94 0 109 0;
#X connect 95 0 109 0;
#X connect 96 0 109 0;
#X connect 97 0 109 0;
#X connect 98 0 100 0;
#X connect 99 0 101 0;
#X connect 100 0 111 0;
#X connect 101 0 113 0;
#X connect 102 0 103 0;
#X connect 103 0 107 0;
#X connect 103 1 104 0;
#X connect 104 0 106 1;
#X connect 105 0 106 0;
#X connect 106 0 119 1;
#X connect 107 0 105 0;
#X connect 108 0 2 0;
#X connect 108 1 3 0;
#X connect 108 2 4 0;
#X connect 108 3 5 0;
#X connect 108 4 6 0;
#X connect 108 5 7 0;
#X connect 108 6 8 0;
#X connect 108 7 9 0;
#X connect 108 8 10 0;
#X connect 108 9 11 0;
#X connect 108 10 12 0;
#X connect 108 11 13 0;
#X connect 108 12 14 0;
#X connect 108 13 15 0;
#X connect 108 14 16 0;
#X connect 108 15 17 0;
#X connect 108 16 18 0;
#X connect 108 17 19 0;
#X connect 108 18 20 0;
#X connect 108 19 21 0;
#X connect 108 20 22 0;
#X connect 108 21 23 0;
#X connect 108 22 24 0;
#X connect 108 23 25 0;
#X connect 108 24 26 0;
#X connect 108 25 27 0;
#X connect 108 26 28 0;
#X connect 108 27 29 0;
#X connect 108 28 30 0;
#X connect 108 29 31 0;
#X connect 108 30 32 0;
#X connect 108 31 33 0;
#X connect 108 32 34 0;
#X connect 108 33 35 0;
#X connect 108 34 36 0;
#X connect 108 35 37 0;
#X connect 108 36 38 0;
#X connect 108 37 39 0;
#X connect 108 38 40 0;
#X connect 108 39 41 0;
#X connect 108 40 42 0;
#X connect 108 41 43 0;
#X connect 108 42 44 0;
#X connect 108 43 45 0;
#X connect 108 44 46 0;
#X connect 108 45 47 0;
#X connect 108 46 48 0;
#X connect 108 47 49 0;
#X connect 108 48 50 0;
#X connect 108 49 51 0;
#X connect 108 50 52 0;
#X connect 108 51 53 0;
#X connect 108 52 54 0;
#X connect 108 53 55 0;
#X connect 108 54 56 0;
#X connect 108 55 57 0;
#X connect 108 56 58 0;
#X connect 108 57 59 0;
#X connect 108 58 60 0;
#X connect 108 59 61 0;
#X connect 108 60 62 0;
#X connect 108 61 63 0;
#X connect 108 62 64 0;
#X connect 108 63 65 0;
#X connect 108 64 66 0;
#X connect 108 65 67 0;
#X connect 108 66 68 0;
#X connect 108 67 69 0;
#X connect 108 68 70 0;
#X connect 108 69 71 0;
#X connect 108 70 72 0;
#X connect 108 71 73 0;
#X connect 108 72 74 0;
#X connect 108 73 75 0;
#X connect 108 74 76 0;
#X connect 108 75 77 0;
#X connect 108 76 78 0;
#X connect 108 77 79 0;
#X connect 108 78 80 0;
#X connect 108 79 81 0;
#X connect 108 80 82 0;
#X connect 108 81 83 0;
#X connect 108 82 84 0;
#X connect 108 83 85 0;
#X connect 108 84 86 0;
#X connect 108 85 87 0;
#X connect 108 86 88 0;
#X connect 108 87 89 0;
#X connect 108 88 90 0;
#X connect 108 89 91 0;
#X connect 108 90 92 0;
#X connect 108 91 93 0;
#X connect 108 92 94 0;
#X connect 108 93 95 0;
#X connect 108 94 96 0;
#X connect 108 95 97 0;
#X connect 109 0 110 0;
#X connect 111 0 0 0;
#X connect 112 0 111 1;
#X connect 113 0 111 0;
#X connect 113 1 112 0;
#X connect 116 0 118 0;
#X connect 118 0 119 0;
#X connect 119 0 108 0;
#X restore 249 399 pd read_from_drum_map;
#X obj 190 47 inlet;
#X obj 190 71 % 32;
#X obj 190 119 countrange 0 3;
#X obj 227 167 pack f f;
#X text 367 94 step #;
#X text 290 168 "instrument# step#";
#X obj 242 326 fbank4, f 14;
#X obj 190 195 countrange 0 4;
#X obj 236 243 sel 0 1 2 3, f 30;
#X text 292 120 instrument #;
#X obj 361 327 fbank4, f 14;
#X obj 250 363 + 0;
#X obj 280 363 + 1;
#X obj 310 363 + 0;
#X obj 340 363 + 1;
#X obj 384 363 + 0;
#X obj 474 363 + 1;
#X obj 414 363 + 0;
#X obj 444 363 + 1;
#X text 292 195 lookup table #;
#N canvas 0 25 1226 747 calculate_final_velocity 0;
#X obj 242 49 inlet;
#X obj 292 49 inlet;
#X obj 342 49 inlet;
#X obj 392 49 inlet;
#X obj 216 675 outlet;
#X obj 91 48 inlet;
#X obj 91 72 bng 15 250 50 0 empty empty empty 17 7 0 10 #fcfcfc #000000
#000000;
#X obj 437 48 inlet;
#X obj 487 48 inlet;
#X text 253 27 x;
#X text 302 27 y;
#X text 347 28 a;
#X text 399 26 b;
#X text 445 26 c;
#X text 499 27 d;
#X text 759 227 ((a * x) + (b * (maxValue - x)) * y)+ \; ((c * x) +
(d * (maxValue - x)) * (maxValue - y)) \; / maxValue \; / maxValue
;
#X obj 59 220 fbank4, f 35;
#X obj 348 221 fbank2, f 36;
#X obj 36 111 t b b b b b b b b b b b b b b, f 57;
#X obj 80 276 *;
#X obj 74 475 +;
#X obj 145 285 t b f;
#X msg 145 309 127;
#X obj 145 333 -, f 5;
#X obj 145 357 t b f;
#X obj 131 400 f;
#X obj 131 424 *;
#X obj 110 510 *, f 18;
#X obj 216 574 +, f 14;
#X obj 288 298 *;
#X obj 327 486 +;
#X obj 374 304 t b f;
#X msg 374 328 127;
#X obj 374 352 -, f 5;
#X obj 374 376 t b f;
#X obj 360 419 f;
#X obj 360 443 *, f 4;
#X obj 399 542 *, f 18;
#X obj 495 312 t b f;
#X msg 495 336 127;
#X obj 495 360 -, f 5;
#X obj 216 598 / 127;
#X obj 216 622 / 127;
#X text 81 25 calculate!;
#X text 710 110 based on https://github.com/spoitras/Pd-Grids/blob/295ec032c5b6e3c3721eefc92e5480ac7767bf1f/grids.c#L230-L254
;
#X text 43 217 x;
#X text 332 219 y;
#X connect 0 0 16 0;
#X connect 1 0 17 0;
#X connect 2 0 19 1;
#X connect 3 0 25 1;
#X connect 5 0 6 0;
#X connect 6 0 18 0;
#X connect 7 0 29 1;
#X connect 8 0 35 1;
#X connect 16 1 19 0;
#X connect 16 2 21 0;
#X connect 16 3 29 0;
#X connect 16 4 31 0;
#X connect 17 1 27 0;
#X connect 17 2 38 0;
#X connect 18 8 17 2;
#X connect 18 9 16 4;
#X connect 18 10 16 3;
#X connect 18 11 17 1;
#X connect 18 12 16 2;
#X connect 18 13 16 1;
#X connect 19 0 20 1;
#X connect 20 0 27 1;
#X connect 21 0 22 0;
#X connect 21 1 23 1;
#X connect 22 0 23 0;
#X connect 23 0 24 0;
#X connect 24 0 25 0;
#X connect 24 1 26 1;
#X connect 25 0 26 0;
#X connect 26 0 20 0;
#X connect 27 0 28 1;
#X connect 28 0 41 0;
#X connect 29 0 30 1;
#X connect 30 0 37 1;
#X connect 31 0 32 0;
#X connect 31 1 33 1;
#X connect 32 0 33 0;
#X connect 33 0 34 0;
#X connect 34 0 35 0;
#X connect 34 1 36 1;
#X connect 35 0 36 0;
#X connect 36 0 30 0;
#X connect 37 0 28 0;
#X connect 38 0 39 0;
#X connect 38 1 40 1;
#X connect 39 0 40 0;
#X connect 40 0 37 0;
#X connect 41 0 42 0;
#X connect 42 0 4 0;
#X restore 169 564 pd calculate_final_velocity;
#X obj 52 254 t f f;
#X obj 532 261 t f f;
#X text 177 11 step # (int 0...31) \; only inlet that produces a result
;
#X obj 249 423 t b f;
#X obj 249 447 f;
#X obj 190 219 t b f f, f 14;
#X obj 249 471 pack f f;
#X text 312 473 "lookuptable# velocity";
#X obj 249 495 route 0 1 2 3, f 57;
#X obj 168 408 t b f;
#X obj 169 612 f;
#X text 196 613 instrument #;
#X obj 169 588 t b f, f 8;
#X obj 169 636 pack f f;
#X text 235 638 "instrument# velocity";
#X obj 292 1351 outlet;
#X obj 169 660 route 0 1 2, f 24;
#X obj 169 684 / 255;
#X obj 224 684 / 255;
#X obj 279 684 / 255;
#X obj 964 41 inlet;
#X obj 169 708 f;
#X obj 224 708 f;
#X obj 279 708 f;
#X obj 184 1145 oneminus;
#X obj 166 1193 sel 1;
#X obj 342 1351 outlet;
#X obj 324 1145 oneminus;
#X obj 306 1193 sel 1;
#X obj 392 1351 outlet;
#X obj 474 1145 oneminus;
#X obj 456 1193 sel 1;
#X obj 166 1169 > 0.5;
#X obj 306 1169 > 0.5;
#X obj 456 1169 > 0.5;
#X obj 166 1257 fbank2, f 8;
#X obj 316 1257 fbank2, f 8;
#X obj 456 1257 fbank2, f 8;
#X obj 552 1352 outlet;
#X obj 602 1351 outlet;
#X obj 652 1351 outlet;
#X obj 166 981 t f f f, f 14;
#X obj 306 981 t f f f, f 15;
#X obj 456 981 t f f f, f 14;
#X obj 213 1045 > 0.75;
#X obj 213 1069 sel 1;
#X obj 353 1045 > 0.75;
#X obj 353 1069 sel 1;
#X obj 503 1045 > 0.75;
#X obj 503 1069 sel 1;
#X text 506 65 adaptation of https://github.com/spoitras/Pd-Grids/blob/master/grids.c
\; first three outlets are normal outlets \, and next three are accent
outlets.;
#X text 320 1379 normal outs;
#X text 591 1375 accent outs;
#X obj 200 1015 f;
#X obj 166 1217 t b b;
#X obj 306 1217 t b b;
#X obj 346 1013 f;
#X obj 487 1015 f;
#X obj 456 1217 t b b;
#X obj 320 753 clip 0 1;
#X text 185 942 see if instrument velocites exceed threshold \, and
output velocities if so. do the same thing with accent outs too.;
#X obj 190 95 t b f f, f 24;
#X obj 141 786 sel 0;
#X obj 165 858 +;
#X obj 225 858 +;
#X obj 285 858 +;
#X obj 165 882 clip 0 1;
#X obj 225 882 clip 0 1;
#X obj 285 882 clip 0 1;
#X text 322 686 convert from 0...255 to 0..1;
#X obj 141 810 bng 15 250 50 0 empty empty empty 17 7 0 10 #fcfcfc
#000000 #000000;
#N canvas 0 25 614 278 calculate_random_offsets 0;
#X obj 220 21 inlet;
#X obj 220 45 bng 15 250 50 0 empty empty empty 17 7 0 10 #fcfcfc #000000
#000000;
#X obj 349 22 inlet;
#X obj 25 225 outlet;
#N canvas 0 25 450 300 calculate_random_offset 0;
#X obj 120 109 randrange 0 1000;
#X obj 161 65 bng 15 250 50 0 empty empty empty 17 7 0 10 #fcfcfc #000000
#000000;
#X floatatom 193 222 5 0 0 0 - - - 0;
#X obj 120 133 / 1000;
#X obj 240 109 randrange 0 1000;
#X obj 240 133 / 1000;
#X floatatom 122 181 5 0 0 0 - - - 0;
#X obj 240 157 * -1;
#X floatatom 240 181 5 0 0 0 - - - 0;
#X obj 161 85 t b b;
#X obj 192 200 +;
#X obj 122 18 inlet;
#X obj 244 16 inlet;
#X obj 193 245 outlet;
#X obj 244 40 scaled 0 1 0 1000;
#X connect 0 0 3 0;
#X connect 1 0 9 0;
#X connect 2 0 13 0;
#X connect 3 0 6 0;
#X connect 4 0 5 0;
#X connect 5 0 7 0;
#X connect 6 0 10 0;
#X connect 7 0 8 0;
#X connect 8 0 10 1;
#X connect 9 0 0 0;
#X connect 9 1 4 0;
#X connect 10 0 2 0;
#X connect 11 0 1 0;
#X connect 12 0 14 0;
#X connect 14 0 0 2;
#X connect 14 0 4 2;
#X restore 24 177 pd calculate_random_offset;
#N canvas 0 25 450 300 calculate_random_offset 0;
#X obj 120 109 randrange 0 1000;
#X obj 172 64 bng 15 250 50 0 empty empty empty 17 7 0 10 #fcfcfc #000000
#000000;
#X floatatom 193 222 5 0 0 0 - - - 0;
#X obj 120 133 / 1000;
#X obj 240 109 randrange 0 1000;
#X obj 240 133 / 1000;
#X floatatom 122 181 5 0 0 0 - - - 0;
#X obj 240 157 * -1;
#X floatatom 240 181 5 0 0 0 - - - 0;
#X obj 172 84 t b b;
#X obj 192 200 +;
#X obj 122 18 inlet;
#X obj 244 16 inlet;
#X obj 193 245 outlet;
#X obj 244 40 scaled 0 1 0 1000;
#X connect 0 0 3 0;
#X connect 1 0 9 0;
#X connect 2 0 13 0;
#X connect 3 0 6 0;
#X connect 4 0 5 0;
#X connect 5 0 7 0;
#X connect 6 0 10 0;
#X connect 7 0 8 0;
#X connect 8 0 10 1;
#X connect 9 0 0 0;
#X connect 9 1 4 0;
#X connect 10 0 2 0;
#X connect 11 0 1 0;
#X connect 12 0 14 0;
#X connect 14 0 0 2;
#X connect 14 0 4 2;
#X restore 214 181 pd calculate_random_offset;
#N canvas 0 25 450 300 calculate_random_offset 0;
#X obj 120 109 randrange 0 1000;
#X obj 161 65 bng 15 250 50 0 empty empty empty 17 7 0 10 #fcfcfc #000000
#000000;
#X floatatom 193 222 5 0 0 0 - - - 0;
#X obj 120 133 / 1000;
#X obj 240 109 randrange 0 1000;
#X obj 240 133 / 1000;
#X floatatom 122 181 5 0 0 0 - - - 0;
#X obj 240 157 * -1;
#X floatatom 240 181 5 0 0 0 - - - 0;
#X obj 161 85 t b b;
#X obj 192 200 +;
#X obj 122 18 inlet;
#X obj 244 16 inlet;
#X obj 193 245 outlet;
#X obj 244 40 scaled 0 1 0 1000;
#X connect 0 0 3 0;
#X connect 1 0 9 0;
#X connect 2 0 13 0;
#X connect 3 0 6 0;
#X connect 4 0 5 0;
#X connect 5 0 7 0;
#X connect 6 0 10 0;
#X connect 7 0 8 0;
#X connect 8 0 10 1;
#X connect 9 0 0 0;
#X connect 9 1 4 0;
#X connect 10 0 2 0;
#X connect 11 0 1 0;
#X connect 12 0 14 0;
#X connect 14 0 0 2;
#X connect 14 0 4 2;
#X restore 409 183 pd calculate_random_offset;
#X obj 24 196 msphsl -1 1;
#X obj 214 200 msphsl -1 1;
#X obj 409 202 msphsl -1 1;
#X obj 214 230 outlet;
#X obj 409 227 outlet;
#X connect 0 0 1 0;
#X connect 1 0 4 0;
#X connect 1 0 6 0;
#X connect 1 0 5 0;
#X connect 2 0 4 1;
#X connect 2 0 6 1;
#X connect 2 0 5 1;
#X connect 4 0 7 0;
#X connect 5 0 8 0;
#X connect 6 0 9 0;
#X connect 7 0 3 0;
#X connect 8 0 10 0;
#X connect 9 0 11 0;
#X restore 141 828 pd calculate_random_offsets;
#X obj 168 143 t f b f, f 9;
#X text 158 807 apply random per-instr velocity offsets at start of
each bar;
#X obj 964 65 route x y randomness kickdensity snaredensity hatdensity
, f 99;
#X obj 964 161 clip 0 3;
#X obj 964 89 scaled 0 1 0 4;
#X obj 964 113 i;
#X obj 964 137 min 3;
#X obj 964 185 s \$0-x;
#X obj 1079 161 clip 0 3;
#X obj 1079 89 scaled 0 1 0 4;
#X obj 1079 113 i;
#X obj 1079 137 min 3;
#X obj 1079 185 s \$0-y;
#X obj 1194 89 clip 0 1;
#X obj 1194 113 s \$0-randomness;
#X obj 1309 89 clip 0 1;
#X obj 1424 89 clip 0 1;
#X obj 1539 89 clip 0 1;
#X obj 1492 167 print INVALID_PARAMETER;
#X obj 1309 113 s \$0-kickdensity;
#X obj 1424 113 s \$0-snaredensity;
#X obj 1539 113 s \$0-hatdensity;
#X obj 52 230 r \$0-x;
#X obj 532 237 r \$0-y;
#X obj 320 729 r \$0-randomness;
#X obj 21 1079 r \$0-kickdensity;
#X obj 263 1110 r \$0-snaredensity;
#X obj 552 1102 r \$0-hatdensity;
#X connect 0 0 25 0;
#X connect 1 0 2 0;
#X connect 2 0 83 0;
#X connect 3 0 94 0;
#X connect 4 0 0 2;
#X connect 7 1 12 0;
#X connect 7 2 13 0;
#X connect 7 3 14 0;
#X connect 7 4 15 0;
#X connect 8 0 27 0;
#X connect 9 0 7 1;
#X connect 9 0 11 1;
#X connect 9 1 7 2;
#X connect 9 1 11 2;
#X connect 9 2 7 3;
#X connect 9 2 11 3;
#X connect 9 3 7 4;
#X connect 9 3 11 4;
#X connect 11 1 16 0;
#X connect 11 2 18 0;
#X connect 11 3 19 0;
#X connect 11 4 17 0;
#X connect 12 0 0 0;
#X connect 13 0 0 0;
#X connect 14 0 0 0;
#X connect 15 0 0 0;
#X connect 16 0 0 1;
#X connect 17 0 0 1;
#X connect 18 0 0 1;
#X connect 19 0 0 1;
#X connect 21 0 34 0;
#X connect 22 0 7 0;
#X connect 22 1 21 1;
#X connect 23 0 11 0;
#X connect 23 1 21 2;
#X connect 25 0 26 0;
#X connect 25 1 28 1;
#X connect 26 0 28 0;
#X connect 27 0 0 3;
#X connect 27 1 9 0;
#X connect 27 2 26 1;
#X connect 28 0 30 0;
#X connect 30 0 21 3;
#X connect 30 1 21 4;
#X connect 30 2 21 5;
#X connect 30 3 21 6;
#X connect 31 0 21 0;
#X connect 31 1 32 1;
#X connect 32 0 35 0;
#X connect 34 0 32 0;
#X connect 34 1 35 1;
#X connect 35 0 38 0;
#X connect 38 0 39 0;
#X connect 38 1 40 0;
#X connect 38 2 41 0;
#X connect 39 0 43 0;
#X connect 40 0 44 0;
#X connect 41 0 45 0;
#X connect 42 0 96 0;
#X connect 43 0 85 0;
#X connect 44 0 86 0;
#X connect 45 0 87 0;
#X connect 46 0 54 1;
#X connect 47 0 76 0;
#X connect 49 0 55 1;
#X connect 50 0 77 0;
#X connect 52 0 56 1;
#X connect 53 0 80 0;
#X connect 54 0 47 0;
#X connect 55 0 50 0;
#X connect 56 0 53 0;
#X connect 57 1 37 0;
#X connect 57 2 60 0;
#X connect 58 1 48 0;
#X connect 58 2 61 0;
#X connect 59 1 51 0;
#X connect 59 2 62 0;
#X connect 63 0 54 0;
#X connect 63 1 75 1;
#X connect 63 2 57 0;
#X connect 64 0 55 0;
#X connect 64 1 78 1;
#X connect 64 2 58 0;
#X connect 65 0 56 0;
#X connect 65 1 79 1;
#X connect 65 2 59 0;
#X connect 66 0 67 0;
#X connect 67 0 57 2;
#X connect 68 0 69 0;
#X connect 69 0 58 2;
#X connect 70 0 71 0;
#X connect 71 0 59 2;
#X connect 75 0 66 0;
#X connect 76 0 75 0;
#X connect 76 1 57 1;
#X connect 77 0 78 0;
#X connect 77 1 58 1;
#X connect 78 0 68 0;
#X connect 79 0 70 0;
#X connect 80 0 79 0;
#X connect 80 1 59 1;
#X connect 81 0 93 1;
#X connect 83 0 3 0;
#X connect 83 1 4 1;
#X connect 83 2 84 0;
#X connect 84 0 92 0;
#X connect 85 0 88 0;
#X connect 86 0 89 0;
#X connect 87 0 90 0;
#X connect 88 0 63 0;
#X connect 89 0 64 0;
#X connect 90 0 65 0;
#X connect 92 0 93 0;
#X connect 93 0 85 1;
#X connect 93 1 86 1;
#X connect 93 2 87 1;
#X connect 94 0 31 0;
#X connect 94 1 8 0;
#X connect 94 2 4 0;
#X connect 96 0 98 0;
#X connect 96 1 103 0;
#X connect 96 2 107 0;
#X connect 96 3 109 0;
#X connect 96 4 110 0;
#X connect 96 5 111 0;
#X connect 96 6 112 0;
#X connect 97 0 101 0;
#X connect 98 0 99 0;
#X connect 99 0 100 0;
#X connect 100 0 97 0;
#X connect 102 0 106 0;
#X connect 103 0 104 0;
#X connect 104 0 105 0;
#X connect 105 0 102 0;
#X connect 107 0 108 0;
#X connect 109 0 113 0;
#X connect 110 0 114 0;
#X connect 111 0 115 0;
#X connect 116 0 22 0;
#X connect 117 0 23 0;
#X connect 118 0 81 0;
#X connect 119 0 46 0;
#X connect 120 0 49 0;
#X connect 121 0 52 0;
