#N canvas 208 246 528 413 12;
#X obj 1 1 migrids.params;
#X obj 397 162 inlet;
#X obj 1 208 migrids.impl, f 60;
#X obj 15 262 outlet;
#X obj 65 262 outlet;
#X obj 115 262 outlet;
#X obj 165 262 outlet;
#X obj 215 262 outlet;
#X obj 265 262 outlet;
#X obj 10 156 inlet;
#X connect 0 0 2 1;
#X connect 1 0 0 0;
#X connect 2 0 3 0;
#X connect 2 1 4 0;
#X connect 2 2 5 0;
#X connect 2 3 6 0;
#X connect 2 4 7 0;
#X connect 2 5 8 0;
#X connect 9 0 2 0;
#X coords 0 -1 1 1 350 144 2 1 1;
