#N canvas 262 183 586 334 12;
#X obj 31 56 inlet~;
#X obj 152 56 inlet~;
#X obj 343 56 inlet;
#X obj 343 110 clip 0 1;
#X obj 343 158 t f f, f 12;
#X obj 424 206 sig~;
#X obj 343 182 oneminus;
#X obj 343 206 sig~;
#X obj 31 250 *~;
#X obj 152 250 *~;
#X obj 31 274 +~;
#X obj 31 298 outlet~;
#X obj 343 134 debounce 50;
#X text 17 32 signal a;
#X text 144 31 signal b;
#X text 244 31 0 is all signal a \, and 1 is all signal b;
#X connect 0 0 8 0;
#X connect 1 0 9 0;
#X connect 2 0 3 0;
#X connect 3 0 12 0;
#X connect 4 0 6 0;
#X connect 4 1 5 0;
#X connect 5 0 9 1;
#X connect 6 0 7 0;
#X connect 7 0 8 1;
#X connect 8 0 10 0;
#X connect 9 0 10 1;
#X connect 10 0 11 0;
#X connect 12 0 4 0;
