#N canvas 385 237 530 294 12;
#X obj 7 136 inlet~;
#X obj 69 136 inlet~;
#X obj 131 136 inlet~;
#X obj 193 136 inlet~;
#X obj 255 136 inlet~;
#X obj 317 136 inlet~;
#X obj 379 136 inlet~;
#X obj 441 136 inlet~;
#X obj 120 23 vsl 15 40 0 1 0 0 empty empty empty 0 -9 0 10 -262144
-1 -1 3900 1;
#X obj 135 23 vsl 15 40 0 1 0 0 empty empty empty 0 -9 0 10 -262144
-1 -1 3900 1;
#X obj 150 23 vsl 15 40 0 1 0 0 empty empty empty 0 -9 0 10 -262144
-1 -1 3900 1;
#X obj 165 23 vsl 15 40 0 1 0 0 empty empty empty 0 -9 0 10 -262144
-1 -1 3900 1;
#X obj 180 23 vsl 15 40 0 1 0 0 empty empty empty 0 -9 0 10 -262144
-1 -1 3900 1;
#X obj 195 23 vsl 15 40 0 1 0 0 empty empty empty 0 -9 0 10 -262144
-1 -1 3900 1;
#X obj 210 23 vsl 15 40 0 1 0 0 empty empty empty 0 -9 0 10 -262144
-1 -1 3900 1;
#X obj 225 23 vsl 15 40 0 1 0 0 empty empty empty 0 -9 0 10 -262144
-1 -1 3900 1;
#X obj 7 163 *~;
#X obj 69 163 *~;
#X obj 131 163 *~;
#X obj 193 166 *~;
#X obj 255 167 *~;
#X obj 317 164 *~;
#X obj 379 166 *~;
#X obj 441 166 *~;
#X obj 152 243 *~ 1;
#X obj 152 267 outlet~;
#X obj 25 105 line~ 50;
#X obj 87 104 line~ 50;
#X obj 149 104 line~ 50;
#X obj 211 104 line~ 50;
#X obj 273 104 line~ 50;
#X obj 335 104 line~ 50;
#X obj 397 104 line~ 50;
#X obj 459 104 line~ 50;
#X obj 344 17 loadbang;
#X msg 344 41 1;
#X obj 25 83 clip 0 1;
#X obj 87 83 clip 0 1;
#X obj 149 83 clip 0 1;
#X obj 211 83 clip 0 1;
#X obj 273 83 clip 0 1;
#X obj 335 83 clip 0 1;
#X obj 397 83 clip 0 1;
#X obj 459 83 clip 0 1;
#X connect 0 0 16 0;
#X connect 1 0 17 0;
#X connect 2 0 18 0;
#X connect 3 0 19 0;
#X connect 4 0 20 0;
#X connect 5 0 21 0;
#X connect 6 0 22 0;
#X connect 7 0 23 0;
#X connect 8 0 36 0;
#X connect 9 0 37 0;
#X connect 10 0 38 0;
#X connect 11 0 39 0;
#X connect 12 0 40 0;
#X connect 13 0 41 0;
#X connect 14 0 42 0;
#X connect 15 0 43 0;
#X connect 16 0 24 0;
#X connect 17 0 24 0;
#X connect 18 0 24 0;
#X connect 19 0 24 0;
#X connect 20 0 24 0;
#X connect 21 0 24 0;
#X connect 22 0 24 0;
#X connect 23 0 24 0;
#X connect 24 0 25 0;
#X connect 26 0 16 1;
#X connect 27 0 17 1;
#X connect 28 0 18 1;
#X connect 29 0 19 1;
#X connect 30 0 20 1;
#X connect 31 0 21 1;
#X connect 32 0 22 1;
#X connect 33 0 23 1;
#X connect 34 0 35 0;
#X connect 35 0 8 0;
#X connect 35 0 15 0;
#X connect 35 0 14 0;
#X connect 35 0 13 0;
#X connect 35 0 12 0;
#X connect 35 0 11 0;
#X connect 35 0 10 0;
#X connect 35 0 9 0;
#X connect 36 0 26 0;
#X connect 37 0 27 0;
#X connect 38 0 28 0;
#X connect 39 0 29 0;
#X connect 40 0 30 0;
#X connect 41 0 31 0;
#X connect 42 0 32 0;
#X connect 43 0 33 0;
#X coords 0 -1 1 1 120 46 1 120 20;
