#N canvas 939 224 517 300 12;
#X obj 98 97 inlet~;
#X obj 98 164 hv.lt, f 16;
#X obj 259 97 loadbang;
#X obj 259 121 f \$1;
#X obj 259 145 sig~;
#X obj 71 223 *~;
#X obj 174 223 *~;
#X obj 71 247 outlet~;
#X obj 174 247 outlet~;
#X obj 188 192 hv.eq;
#X obj 328 183 loadbang;
#X msg 328 207 0;
#X obj 328 231 sig~;
#X text 75 21 /// LIKE [moses] \, BUT SIGNAL-RATE. \; /// INITIALIZE
WITH \$1 BEING THE VALUE AT WHICH TO RETURN FROM RIGHT OUTLET.;
#X connect 0 0 1 0;
#X connect 0 0 5 0;
#X connect 0 0 6 0;
#X connect 1 0 5 1;
#X connect 1 0 9 0;
#X connect 2 0 3 0;
#X connect 3 0 4 0;
#X connect 4 0 1 1;
#X connect 5 0 7 0;
#X connect 6 0 8 0;
#X connect 9 0 6 1;
#X connect 10 0 11 0;
#X connect 11 0 12 0;
#X connect 12 0 9 1;
