#N canvas 939 224 517 300 12;
#X obj 98 97 inlet~;
#X obj 229 74 loadbang;
#X obj 229 98 f \$1;
#X obj 229 122 sig~;
#X obj 71 223 *~;
#X obj 219 215 *~;
#X obj 71 247 outlet~;
#X obj 219 239 outlet~;
#X text 75 21 /// LIKE [moses] \, BUT SIGNAL-RATE. \; /// INITIALIZE
WITH \$1 BEING THE VALUE AT WHICH TO RETURN FROM RIGHT OUTLET.;
#X obj 98 164 heavylib/hv.lt, f 16;
#X obj 236 164 heavylib/hv.gte;
#X connect 0 0 4 0;
#X connect 0 0 5 0;
#X connect 0 0 9 0;
#X connect 0 0 10 0;
#X connect 1 0 2 0;
#X connect 2 0 3 0;
#X connect 3 0 9 1;
#X connect 3 0 10 1;
#X connect 4 0 6 0;
#X connect 5 0 7 0;
#X connect 9 0 4 1;
#X connect 10 0 5 1;
