#N canvas 0 38 1512 884 12;
#X obj 54 999 *~;
#X obj 619 541 noise~;
#X obj 72 926 msphsl 0 1;
#X msg 72 950 \$1 20;
#X obj 72 974 line~;
#X obj 619 679 *~;
#X obj 637 607 msphsl 0 1;
#X msg 637 631 \$1 20;
#X obj 637 655 line~;
#X obj 809 1104 vcf~, f 26;
#X obj 1581 932 *~;
#X obj 1664 857 *;
#X obj 897 760 *~;
#X obj 54 372 *;
#X obj 54 503 +;
#X obj 54 528 +;
#X floatatom 175 485 5 0 0 0 - - - 0;
#X obj 897 921 +~;
#X obj 75 277 hsl 40 20 -1 1 0 0 empty empty empty -2 -8 0 10 #fcfcfc
#000000 #000000 0 1;
#X floatatom 72 350 5 0 0 0 - - - 0;
#X obj 72 302 easeinoutcubic;
#X obj 54 480 *;
#X obj 897 898 *~;
#X obj 320 994 *~;
#X obj 338 921 msphsl 0 1;
#X msg 338 945 \$1 20;
#X obj 338 969 line~;
#X obj 338 370 *;
#X obj 338 501 +;
#X obj 338 526 +;
#X floatatom 459 483 5 0 0 0 - - - 0;
#X obj 359 275 hsl 40 20 -1 1 0 0 empty empty empty -2 -8 0 10 #fcfcfc
#000000 #000000 0 1;
#X floatatom 356 348 5 0 0 0 - - - 0;
#X obj 356 300 easeinoutcubic;
#X obj 338 478 *;
#X obj 1032 771 hsl 50 20 0 1 0 0 empty empty empty -2 -8 0 10 #fcfcfc
#000000 #000000 0 1;
#X obj 1029 796 easeincubic;
#X obj 993 640 hsl 50 20 0 1 0 0 empty empty empty -2 -8 0 10 #fcfcfc
#000000 #000000 0 1;
#X obj 900 556 hsl 50 20 0 1 0 0 empty empty empty -2 -8 0 10 #fcfcfc
#000000 #000000 0 1;
#X obj 897 581 easeincubic;
#X obj 1068 1036 hsl 50 20 0 1 0 0 empty empty empty -2 -8 0 10 #fcfcfc
#000000 #000000 0 1;
#X text 407 275 vco 2 eg amount;
#X text 121 276 vco 1 eg amount;
#X text 193 925 vco 1 level;
#X text 457 920 vco 2 level;
#X text 754 607 noise level;
#X text 1047 640 vcf decay;
#X text 956 553 vcf eg amount;
#X text 1087 770 cutoff;
#X text 1125 1035 resonance;
#X text 251 48 vco decay;
#N canvas 0 38 314 300 seqpitchmodtoggle 0;
#X obj 32 210 spigot, f 26;
#X obj 163 92 tgl 15 0 empty empty empty 17 7 0 10 #fcfcfc #000000
#000000 0 1;
#X obj 163 112 sel 0 1, f 15;
#X obj 163 136 t b b;
#X msg 195 160 0;
#X msg 163 160 0;
#X msg 214 136 1;
#X msg 163 68 1;
#X msg 195 68 0;
#X obj 32 234 outlet;
#X obj 32 186 inlet;
#X obj 163 44 sel 0 1 2;
#X obj 163 20 r \$0-seqpitchmod;
#X connect 0 0 9 0;
#X connect 1 0 2 0;
#X connect 2 0 3 0;
#X connect 2 1 6 0;
#X connect 3 0 5 0;
#X connect 3 1 4 0;
#X connect 4 0 0 1;
#X connect 5 0 9 0;
#X connect 6 0 0 1;
#X connect 7 0 1 0;
#X connect 8 0 1 0;
#X connect 10 0 0 0;
#X connect 11 0 7 0;
#X connect 11 1 8 0;
#X connect 11 2 8 0;
#X connect 12 0 11 0;
#X restore 170 532 pd seqpitchmodtoggle;
#N canvas 0 368 314 300 seqpitchmodtoggle 0;
#X obj 32 210 spigot, f 26;
#X obj 163 92 tgl 15 0 empty empty empty 17 7 0 10 #fcfcfc #000000
#000000 0 1;
#X obj 163 112 sel 0 1, f 15;
#X obj 163 136 t b b;
#X msg 195 160 0;
#X msg 163 160 0;
#X msg 214 136 1;
#X msg 163 68 1;
#X msg 195 68 0;
#X obj 32 234 outlet;
#X obj 32 186 inlet;
#X obj 163 44 sel 0 1 2;
#X obj 163 20 r \$0-seqpitchmod;
#X connect 0 0 9 0;
#X connect 1 0 2 0;
#X connect 2 0 3 0;
#X connect 2 1 6 0;
#X connect 3 0 5 0;
#X connect 3 1 4 0;
#X connect 4 0 0 1;
#X connect 5 0 9 0;
#X connect 6 0 0 1;
#X connect 7 0 1 0;
#X connect 8 0 1 0;
#X connect 10 0 0 0;
#X connect 11 0 7 0;
#X connect 11 1 8 0;
#X connect 11 2 7 0;
#X connect 12 0 11 0;
#X restore 454 529 pd seqpitchmodtoggle;
#X obj 320 794 +~;
#X text 150 724 fm amount;
#X floatatom 108 726 5 0 1000 0 - - - 0;
#N canvas 0 38 189 221 fm 0;
#X obj 60 164 *~;
#X obj 15 22 inlet~;
#X obj 77 22 inlet;
#X floatatom 77 46 5 0 0 0 - - - 0;
#X floatatom 77 93 5 0 0 0 - - - 0;
#X obj 60 188 outlet~;
#X obj 77 69 clip 0 1000;
#X obj 77 140 line~;
#X msg 77 116 \$1 10;
#X connect 0 0 5 0;
#X connect 1 0 0 0;
#X connect 2 0 3 0;
#X connect 3 0 6 0;
#X connect 4 0 8 0;
#X connect 6 0 4 0;
#X connect 7 0 0 1;
#X connect 8 0 7 0;
#X restore 76 750 pd fm;
#X obj 205 48 hsl 40 20 0 1 0 0 empty empty empty -2 -8 0 10 #fcfcfc
#000000 #000000 0 1;
#X floatatom 202 122 5 0 0 0 - - - 0;
#X obj 633 837 *~, f 7;
#X text 728 737 noise / vcf mod;
#X obj 879 945 +~;
#X obj 682 738 hsl 40 20 0 1 0 0 empty empty empty -2 -8 0 10 #fcfcfc
#000000 #000000 0 1;
#X obj 879 969 +~, f 44;
#X obj 642 884 +~;
#N canvas 0 38 208 181 patch_pitch_to_vcf~ 0;
#X obj 12 32 sel 0 1, f 11;
#X msg 12 56 0;
#X msg 49 56 1;
#X obj 12 128 *~, f 15;
#X obj 12 152 outlet~;
#X obj 12 8 r \$0-patch_pitch_to_vcf;
#X obj 114 57 r \$0-pitch;
#X msg 12 80 \$1 10;
#X obj 12 104 line~;
#X msg 114 81 \$1 10;
#X obj 114 105 line~;
#X connect 0 0 1 0;
#X connect 0 1 2 0;
#X connect 1 0 7 0;
#X connect 2 0 7 0;
#X connect 3 0 4 0;
#X connect 5 0 0 0;
#X connect 6 0 9 0;
#X connect 7 0 8 0;
#X connect 8 0 3 0;
#X connect 9 0 10 0;
#X connect 10 0 3 1;
#X restore 1184 944 pd patch_pitch_to_vcf~;
#N canvas 0 38 232 190 patch_pitch_to_noisemod~ 0;
#X obj 18 40 sel 0 1, f 11;
#X msg 18 64 0;
#X msg 55 64 1;
#X obj 18 136 *~, f 15;
#X obj 18 160 outlet~;
#X obj 18 16 r \$0-patch_pitch_to_noisemod;
#X obj 119 64 r \$0-pitch;
#X msg 18 88 \$1 10;
#X obj 18 112 line~;
#X msg 119 88 \$1 10;
#X obj 119 112 line~;
#X connect 0 0 1 0;
#X connect 0 1 2 0;
#X connect 1 0 7 0;
#X connect 2 0 7 0;
#X connect 3 0 4 0;
#X connect 5 0 0 0;
#X connect 6 0 9 0;
#X connect 7 0 8 0;
#X connect 8 0 3 0;
#X connect 9 0 10 0;
#X connect 10 0 3 1;
#X restore 660 860 pd patch_pitch_to_noisemod~;
#N canvas 0 38 450 300 noise_vc_mod~ 0;
#X msg 45 137 \$1 20;
#X obj 45 161 line~;
#X obj 45 66 easeincubic;
#X floatatom 45 114 5 0 0 0 - - - 0;
#X obj 45 17 inlet;
#X obj 45 41 clip 0 1;
#X obj 45 185 outlet~;
#X obj 45 90 * 3000;
#X connect 0 0 1 0;
#X connect 1 0 6 0;
#X connect 2 0 7 0;
#X connect 3 0 0 0;
#X connect 4 0 5 0;
#X connect 5 0 2 0;
#X connect 7 0 3 0;
#X restore 679 766 pd noise_vc_mod~;
#X obj 8 626 oscillators~;
#X obj 273 818 oscillators~;
#X text 462 767 sync amount;
#X obj 419 766 hsl 40 20 0 1 0 0 empty empty empty -2 -8 0 10 #fcfcfc
#000000 #000000 0 1;
#X obj 1586 974 *~ 1;
#X obj 542 21 inlet;
#X obj 542 45 route vcodecay vco1egamount vco2egamount vco1frequency
vco2frequency vco1wave vco2wave vco1level vco2level fmamount syncamount
noiselevel noisevcfmod vcfegamount vcfdecay vcfcutoff vcfresonance
vcadecay pitch velocity, f 361;
#X obj 3385 635 print UNKNOWN_PARAMETER;
#X obj 542 69 clip 0 1;
#X obj 542 117 s \$0-vcodecay;
#X obj 668 69 scaled 0 1 -1 1;
#X obj 668 93 s \$0-vco1egamount;
#X obj 794 69 scaled 0 1 -1 1;
#X obj 794 93 s \$0-vco2egamount;
#X obj 920 93 s \$0-vco1frequency;
#X obj 1046 93 s \$0-vco2frequency;
#X obj 1173 117 s \$0-vco1wave;
#X obj 1299 117 s \$0-vco2wave;
#X obj 1425 69 clip 0 1;
#X obj 1425 93 s \$0-vco1level;
#X obj 1550 69 clip 0 1;
#X obj 1550 93 s \$0-vco2level;
#X obj 1677 117 scaled 0 1 0 1000;
#X obj 1677 141 s \$0-fmamount;
#X obj 1804 69 clip 0 1;
#X obj 1804 93 s \$0-syncamount;
#X obj 1930 69 clip 0 1;
#X obj 1930 93 s \$0-noiselevel;
#X obj 2056 69 clip 0 1;
#X obj 2056 93 s \$0-noisevcfmod;
#X obj 2182 69 clip 0 1;
#X obj 2182 93 s \$0-vcfegamount;
#X obj 2308 69 clip 0 1;
#X obj 2308 93 s \$0-vcfdecay;
#X obj 2435 69 clip 0 1;
#X obj 2435 93 s \$0-vcfcutoff;
#X obj 2561 93 s \$0-vcfresonance;
#X obj 2687 93 s \$0-vcadecay;
#X obj 2845 165 s \$0-pitch;
#X obj 2939 93 s \$0-velocity;
#X obj 202 24 r \$0-vcodecay;
#X obj 72 251 r \$0-vco1egamount;
#X obj 356 251 r \$0-vco2egamount;
#X obj 175 388 r \$0-vco1frequency;
#X obj 459 386 r \$0-vco2frequency;
#X obj 170 509 r \$0-pitch;
#X obj 454 507 r \$0-pitch;
#X obj -50 592 r \$0-vco1wave;
#X obj 166 796 r \$0-vco2wave;
#X obj 72 902 r \$0-vco1level;
#X obj 338 897 r \$0-vco2level;
#X obj 108 702 r \$0-fmamount;
#X obj 416 742 r \$0-syncamount;
#X obj 637 583 r \$0-noiselevel;
#X obj 679 714 r \$0-noisevcfmod;
#X obj 897 532 r \$0-vcfegamount;
#X obj 990 616 r \$0-vcfdecay;
#X obj 1029 747 r \$0-vcfcutoff;
#X obj 915 785 r \$0-velocity;
#X obj 1065 1012 r \$0-vcfresonance;
#X obj 1664 640 r \$0-velocity;
#X obj 1682 714 r \$0-vcadecay;
#X obj 1589 858 r \$0-tick;
#X obj 2813 69 clip 0 1;
#X obj 2813 93 easeincubic;
#X obj 3066 158 int;
#X obj 3066 182 clip 0 1;
#X obj 3066 206 tgl 15 0 empty empty empty 17 7 0 10 #fcfcfc #000000
#000000 0 1;
#X obj 3066 226 s \$0-patch_pitch_to_vcf;
#X obj 3191 258 int;
#X obj 3191 282 clip 0 1;
#X obj 3191 306 tgl 15 0 empty empty empty 17 7 0 10 #fcfcfc #000000
#000000 0 1;
#X obj 3191 326 s \$0-patch_pitch_to_noisemod;
#X obj 3316 158 int;
#X obj 3316 182 clip 0 2;
#X obj 3316 226 s \$0-seqpitchmod;
#X obj 72 456 r \$0-velocity;
#X obj 356 454 r \$0-velocity;
#X obj 54 129 r \$0-tick;
#X obj 338 127 r \$0-tick;
#X obj 915 690 r \$0-tick;
#X obj 3316 206 hradio 15 1 0 3 empty empty empty 0 -8 0 10 #fcfcfc
#000000 #000000 0;
#X obj 2813 117 scaled 0 1 30 800;
#X obj 1682 762 msphsl 0 1;
#X msg 897 629 \$1 10;
#X obj 897 653 line~;
#X msg 915 809 \$1 10;
#X obj 915 833 line~;
#X msg 1029 844 \$1 10;
#X obj 1029 868 line~;
#X msg 338 550 \$1 10;
#X obj 338 574 line~;
#X msg 54 552 \$1 10;
#X obj 54 576 line~;
#X obj 1029 820 scaled 0 1 50 10000;
#X obj 897 605 * 10000;
#X obj 1173 69 int;
#X obj 1173 93 clip 0 3;
#X obj 1299 69 int;
#X obj 1299 93 clip 0 3;
#X obj 2939 69 scaled 0 1 0.1 1;
#X obj 2687 69 scaled 0 1 0.01 1;
#X obj 2561 69 scaled 0 1 0.25 0.9;
#X obj 1664 833 f;
#X obj 1682 785 t b f;
#X obj 72 326 * 800;
#X obj 356 324 * 800;
#X obj 1586 998 outlet~;
#X obj 1599 882 ahdsr~ 5 5 0 0 10;
#X obj 915 712 ahdsr~ 5 5 0 0 10;
#X obj 338 151 ahdsr 5 0 0 0 10;
#X obj 54 153 ahdsr 5 0 0 0 10;
#X obj 1664 664 scaled 0 1 0 7500;
#X obj 990 689 scaled 0 1 5 7500;
#X obj 202 98 * 7500;
#X obj 3066 134 route patchpitchtovcf patchpitchtonoisemod seqpitchmod
, f 79;
#X obj 3030 434 route vcoegexponent vcfegexponent vcaegexponent, f
79;
#X obj 3030 458 scaled 0 1 1 8;
#X obj 3213 458 scaled 0 1 1 8;
#X obj 3396 458 scaled 0 1 1 8;
#X obj 3030 482 s \$0-vcoegexponent;
#X obj 3213 482 s \$0-vcfegexponent;
#X obj 3396 482 s \$0-vcaegexponent;
#X obj 172 192 r \$0-vcoegexponent;
#X obj 54 177 pow;
#X obj 338 175 pow;
#X obj 1145 717 r \$0-vcfegexponent;
#X obj 915 736 pow~;
#X obj 1754 887 r \$0-vcaegexponent;
#X obj 1599 906 pow~;
#X obj 321 1053 *~ 0.5;
#X obj 542 93 easeincubic;
#X obj 2813 141 t b f;
#X obj 2813 189 s \$0-tick;
#X obj 1677 69 clip 0 1;
#X obj 1677 93 easeincubic;
#X connect 0 0 198 0;
#X connect 1 0 5 0;
#X connect 1 0 59 0;
#X connect 2 0 3 0;
#X connect 3 0 4 0;
#X connect 4 0 0 1;
#X connect 5 0 198 0;
#X connect 6 0 7 0;
#X connect 7 0 8 0;
#X connect 8 0 5 1;
#X connect 9 1 10 0;
#X connect 10 0 72 0;
#X connect 11 0 176 3;
#X connect 12 0 22 0;
#X connect 13 0 21 0;
#X connect 14 0 15 0;
#X connect 15 0 160 0;
#X connect 16 0 14 1;
#X connect 17 0 61 1;
#X connect 18 0 20 0;
#X connect 19 0 13 1;
#X connect 20 0 173 0;
#X connect 21 0 14 0;
#X connect 22 0 17 0;
#X connect 23 0 198 0;
#X connect 24 0 25 0;
#X connect 25 0 26 0;
#X connect 26 0 23 1;
#X connect 27 0 34 0;
#X connect 28 0 29 0;
#X connect 29 0 158 0;
#X connect 30 0 28 1;
#X connect 31 0 33 0;
#X connect 32 0 27 1;
#X connect 33 0 174 0;
#X connect 34 0 28 0;
#X connect 35 0 36 0;
#X connect 36 0 162 0;
#X connect 37 0 181 0;
#X connect 38 0 39 0;
#X connect 39 0 163 0;
#X connect 40 0 9 2;
#X connect 51 0 15 1;
#X connect 52 0 29 1;
#X connect 53 0 69 1;
#X connect 55 0 56 1;
#X connect 56 0 53 0;
#X connect 57 0 182 0;
#X connect 58 0 178 3;
#X connect 58 0 179 3;
#X connect 59 0 64 0;
#X connect 61 0 63 0;
#X connect 62 0 67 0;
#X connect 63 0 9 1;
#X connect 64 0 61 0;
#X connect 65 0 63 1;
#X connect 66 0 64 1;
#X connect 67 0 59 1;
#X connect 68 0 56 0;
#X connect 68 0 0 0;
#X connect 69 0 23 0;
#X connect 71 0 69 3;
#X connect 72 0 175 0;
#X connect 73 0 74 0;
#X connect 74 0 76 0;
#X connect 74 1 78 0;
#X connect 74 2 80 0;
#X connect 74 3 82 0;
#X connect 74 4 83 0;
#X connect 74 5 164 0;
#X connect 74 6 166 0;
#X connect 74 7 86 0;
#X connect 74 8 88 0;
#X connect 74 9 202 0;
#X connect 74 10 92 0;
#X connect 74 11 94 0;
#X connect 74 12 96 0;
#X connect 74 13 98 0;
#X connect 74 14 100 0;
#X connect 74 15 102 0;
#X connect 74 16 170 0;
#X connect 74 17 169 0;
#X connect 74 18 131 0;
#X connect 74 19 168 0;
#X connect 74 20 183 0;
#X connect 76 0 199 0;
#X connect 78 0 79 0;
#X connect 80 0 81 0;
#X connect 86 0 87 0;
#X connect 88 0 89 0;
#X connect 90 0 91 0;
#X connect 92 0 93 0;
#X connect 94 0 95 0;
#X connect 96 0 97 0;
#X connect 98 0 99 0;
#X connect 100 0 101 0;
#X connect 102 0 103 0;
#X connect 108 0 57 0;
#X connect 109 0 18 0;
#X connect 110 0 31 0;
#X connect 111 0 16 0;
#X connect 112 0 30 0;
#X connect 113 0 51 0;
#X connect 114 0 52 0;
#X connect 115 0 68 0;
#X connect 116 0 69 0;
#X connect 117 0 2 0;
#X connect 118 0 24 0;
#X connect 119 0 55 0;
#X connect 120 0 71 0;
#X connect 121 0 6 0;
#X connect 122 0 62 0;
#X connect 123 0 38 0;
#X connect 124 0 37 0;
#X connect 125 0 35 0;
#X connect 126 0 154 0;
#X connect 127 0 40 0;
#X connect 128 0 180 0;
#X connect 129 0 151 0;
#X connect 130 0 176 0;
#X connect 131 0 132 0;
#X connect 132 0 150 0;
#X connect 133 0 134 0;
#X connect 134 0 135 0;
#X connect 135 0 136 0;
#X connect 137 0 138 0;
#X connect 138 0 139 0;
#X connect 139 0 140 0;
#X connect 141 0 142 0;
#X connect 142 0 149 0;
#X connect 144 0 21 1;
#X connect 145 0 34 1;
#X connect 146 0 179 0;
#X connect 147 0 178 0;
#X connect 148 0 177 0;
#X connect 149 0 143 0;
#X connect 150 0 200 0;
#X connect 151 0 172 0;
#X connect 152 0 153 0;
#X connect 153 0 12 0;
#X connect 154 0 155 0;
#X connect 155 0 22 1;
#X connect 156 0 157 0;
#X connect 157 0 17 1;
#X connect 158 0 159 0;
#X connect 159 0 53 1;
#X connect 160 0 161 0;
#X connect 161 0 68 1;
#X connect 161 0 69 2;
#X connect 162 0 156 0;
#X connect 163 0 152 0;
#X connect 164 0 165 0;
#X connect 165 0 84 0;
#X connect 166 0 167 0;
#X connect 167 0 85 0;
#X connect 168 0 107 0;
#X connect 169 0 105 0;
#X connect 170 0 104 0;
#X connect 171 0 11 0;
#X connect 172 0 171 0;
#X connect 172 1 11 1;
#X connect 173 0 19 0;
#X connect 174 0 32 0;
#X connect 176 0 197 0;
#X connect 177 0 195 0;
#X connect 178 0 193 0;
#X connect 179 0 192 0;
#X connect 180 0 171 0;
#X connect 181 0 177 3;
#X connect 182 0 58 0;
#X connect 183 0 133 0;
#X connect 183 1 137 0;
#X connect 183 2 141 0;
#X connect 183 3 184 0;
#X connect 184 0 185 0;
#X connect 184 1 186 0;
#X connect 184 2 187 0;
#X connect 184 3 75 0;
#X connect 185 0 188 0;
#X connect 186 0 189 0;
#X connect 187 0 190 0;
#X connect 191 0 192 1;
#X connect 191 0 193 1;
#X connect 192 0 13 0;
#X connect 193 0 27 0;
#X connect 194 0 195 1;
#X connect 195 0 12 1;
#X connect 196 0 197 1;
#X connect 197 0 10 1;
#X connect 198 0 9 0;
#X connect 199 0 77 0;
#X connect 200 0 201 0;
#X connect 200 1 106 0;
#X connect 202 0 203 0;
#X connect 203 0 90 0;
