#N canvas 0 38 1512 884 12;
#X obj 23 576 mspparam vcfcutoff;
#X obj 13 306 mspparam vco1egamount;
#X obj 16 383 mspparam vco2egamount;
#X obj 14 325 mspparam vco1frequency;
#X obj 17 402 mspparam vco2frequency;
#X obj 15 344 mspparam vco1level;
#X obj 18 421 mspparam vco2level;
#X obj 19 460 mspparam fmamount;
#X obj 20 479 mspparam syncamount;
#X obj 21 518 mspparam noiselevel;
#X obj 22 537 mspparam noisevcfmod;
#X obj 24 595 mspparam vcfegamount;
#X obj 25 614 mspparam vcfdecay;
#X obj 27 652 mspparam vcfresonance;
#X obj 28 691 mspparam vcadecay;
#X obj 9 210 mspparam pitch;
#X obj 10 229 mspparam velocity;
#X obj 11 248 mspparam vcodecay;
#X obj 493 710 hradio 15 1 0 4 empty empty vco1wave 0 -8 0 10 #fcfcfc
#000000 #000000 0;
#X obj 579 710 hradio 15 1 0 4 empty empty vco2wave 0 -8 0 10 #fcfcfc
#000000 #000000 0;
#X msg 493 725 vco1wave \$1;
#X msg 579 725 vco2wave \$1;
#X obj 385 710 hradio 15 1 0 3 empty empty seqpitchmod 0 -8 0 10 #fcfcfc
#000000 #000000 0;
#X msg 385 725 seqpitchmod \$1;
#X obj 666 710 tgl 15 0 empty empty patchpitchtovcf 17 7 0 10 #fcfcfc
#000000 #000000 0 1;
#X obj 802 710 tgl 15 0 empty empty patchpitchtonoisemod 17 7 0 10
#fcfcfc #000000 #000000 0 1;
#X msg 666 725 patchpitchtovcf \$1;
#X msg 802 725 patchpitchtonoisemod \$1;
#X obj 8 750 outlet;
#X obj 619 73 inlet;
#X obj 591 284 hradio 15 1 0 2 empty empty presets 0 -8 0 10 #fcfcfc
#000000 #000000 0;
#X obj 15 98 loadbang;
#X msg 10 156 0;
#X obj 1001 238 sel 0 1, f 84;
#X obj 1086 149 print INVALID PARAM;
#X obj 15 122 del 3;
#X obj 678 326 bng 15 250 50 0 empty empty print\\\ current\\\ settings
17 7 0 10 #fcfcfc #000000 #000000;
#X obj 12 267 mspparam vcoegexponent;
#X obj 26 633 mspparam vcfegexponent;
#X obj 29 710 mspparam vcaegexponent;
#X obj 619 97 route pitch velocity vcodecay vcoegexponent vco1egamount
vco1frequency vco1level vco2egamount vco2frequency vco2level fmamount
syncamount noiselevel noisevcfmod vcfcutoff vcfegamount vcfdecay vcfegexponent
vcfresonance vcadecay vcaegexponent seqpitchmod vco1wave vco2wave patchpitchtovcf
patchpitchtonoisemod;
#X msg 1001 262 vcodecay 0.3 \, vcoegexponent 0.3 \, vco1egamount 0.5
\, vco1frequency 0.3 \, vco1level 1 \, vco2egamount 0.5 \, vco2frequency
0.35 \, vco2level 1 \, fmamount 0 \, syncamount 0 \, noiselevel 0.1
\, noisevcfmod 0 \, vcfcutoff 0.05 \, vcfegamount 0.5 \, vcfdecay 0.2
\, vcfegexponent 0.3 \, vcfresonance 0.2 \, vcadecay 0.3 \, vcaegexponent
0.3 \, seqpitchmod 1 \, vco1wave 2 \, vco2wave 2 \, patchpitchtovcf
0 \, patchpitchtonoisemod 0;
#X connect 0 0 28 0;
#X connect 1 0 28 0;
#X connect 2 0 28 0;
#X connect 3 0 28 0;
#X connect 4 0 28 0;
#X connect 5 0 28 0;
#X connect 6 0 28 0;
#X connect 7 0 28 0;
#X connect 8 0 28 0;
#X connect 9 0 28 0;
#X connect 10 0 28 0;
#X connect 11 0 28 0;
#X connect 12 0 28 0;
#X connect 13 0 28 0;
#X connect 14 0 28 0;
#X connect 15 0 28 0;
#X connect 16 0 28 0;
#X connect 17 0 28 0;
#X connect 18 0 20 0;
#X connect 19 0 21 0;
#X connect 20 0 28 0;
#X connect 21 0 28 0;
#X connect 22 0 23 0;
#X connect 23 0 28 0;
#X connect 24 0 26 0;
#X connect 25 0 27 0;
#X connect 26 0 28 0;
#X connect 27 0 28 0;
#X connect 29 0 40 0;
#X connect 30 0 33 0;
#X connect 31 0 35 0;
#X connect 32 0 30 0;
#X connect 33 0 41 0;
#X connect 35 0 32 0;
#X connect 37 0 28 0;
#X connect 38 0 28 0;
#X connect 39 0 28 0;
#X connect 40 0 15 0;
#X connect 40 1 16 0;
#X connect 40 2 17 0;
#X connect 40 3 37 0;
#X connect 40 4 1 0;
#X connect 40 5 3 0;
#X connect 40 6 5 0;
#X connect 40 7 2 0;
#X connect 40 8 4 0;
#X connect 40 9 6 0;
#X connect 40 10 7 0;
#X connect 40 11 8 0;
#X connect 40 12 9 0;
#X connect 40 13 10 0;
#X connect 40 14 0 0;
#X connect 40 15 11 0;
#X connect 40 16 12 0;
#X connect 40 17 38 0;
#X connect 40 18 13 0;
#X connect 40 19 14 0;
#X connect 40 20 39 0;
#X connect 40 21 22 0;
#X connect 40 22 18 0;
#X connect 40 23 19 0;
#X connect 40 24 24 0;
#X connect 40 25 25 0;
#X connect 40 26 34 0;
#X connect 41 0 40 0;
#X coords 0 0 1 1 975 535 2 0 200;
