#N canvas 158 123 744 656 12;
#X obj 81 619 outlet~;
#X obj 683 189 inlet;
#X obj 2 2 mspdfam~.params;
#X obj 81 595 mspdfam~.impl;
#X connect 1 0 2 0;
#X connect 2 0 3 0;
#X connect 3 0 0 0;
#X coords 0 -1 1 1 580 535 2 2 2;
