#N canvas 581 75 327 547 12;
#X obj 24 362 line, f 12;
#X obj 24 119 sel 1, f 11;
#X obj 24 304 t f b, f 14;
#X msg 119 328 stop;
#X obj 24 95 mspkey \$1;
#X obj 181 95 mspkey \$2;
#X obj 24 511 outlet;
#X obj 24 386 t f f;
#X obj 56 410 > 0;
#X obj 56 434 sel 0 1, f 12;
#X msg 56 458 -1;
#X msg 96 458 1;
#X obj 24 410 abs;
#X obj 24 487 *;
#X obj 24 434 sqrt;
#X obj 24 143 t b b;
#X msg 56 167 1;
#X msg 24 167 -1;
#X obj 63 208 or;
#X obj 24 256 spigot;
#X obj 63 232 t f f;
#X obj 95 256 sel 0;
#X msg 95 280 0;
#X msg 98 167 0;
#X obj 181 119 sel 1, f 11;
#X obj 181 143 t b b;
#X msg 213 167 1;
#X msg 255 167 0;
#X msg 181 167 1;
#X text 3 10 initialize with \$1 and \$2 being the keynums \; for the
-1 and 1 poles of the axis. listens \; for those keypresses and outputs
the current \; axis position. takes 5ms to get from any \; one of -1
\, 0 \, 1 to any other.;
#X msg 24 328 \$1 5;
#X connect 0 0 7 0;
#X connect 1 0 15 0;
#X connect 1 1 23 0;
#X connect 2 0 30 0;
#X connect 2 1 3 0;
#X connect 3 0 0 0;
#X connect 4 0 1 0;
#X connect 5 0 24 0;
#X connect 7 0 12 0;
#X connect 7 1 8 0;
#X connect 8 0 9 0;
#X connect 9 0 10 0;
#X connect 9 1 11 0;
#X connect 10 0 13 1;
#X connect 11 0 13 1;
#X connect 12 0 14 0;
#X connect 13 0 6 0;
#X connect 14 0 13 0;
#X connect 15 0 17 0;
#X connect 15 1 16 0;
#X connect 16 0 18 0;
#X connect 17 0 19 0;
#X connect 18 0 20 0;
#X connect 19 0 2 0;
#X connect 20 0 19 1;
#X connect 20 1 21 0;
#X connect 21 0 22 0;
#X connect 22 0 2 0;
#X connect 23 0 18 0;
#X connect 24 0 25 0;
#X connect 24 1 27 0;
#X connect 25 0 28 0;
#X connect 25 1 26 0;
#X connect 26 0 18 1;
#X connect 27 0 18 1;
#X connect 28 0 19 0;
#X connect 30 0 0 0;
