#N canvas 121 159 998 604 12;
#X obj 84 540 outlet;
#X obj 84 62 mspkey 49;
#X obj 163 62 mspkey 50;
#X obj 242 62 mspkey 51;
#X obj 321 62 mspkey 52;
#X obj 400 62 mspkey 53;
#X obj 479 62 mspkey 54;
#X obj 558 62 mspkey 55;
#X obj 637 62 mspkey 56;
#X obj 716 62 mspkey 57;
#X obj 795 62 mspkey 48;
#X text 84 41 1;
#X text 163 41 2;
#X text 242 41 3;
#X text 321 41 4;
#X text 400 41 5;
#X text 479 41 6;
#X text 558 41 7;
#X text 637 41 8;
#X text 716 41 9;
#X text 795 41 0;
#X msg 84 86 1 \$1;
#X msg 163 86 2 \$1;
#X msg 242 86 3 \$1;
#X msg 321 86 4 \$1;
#X msg 400 86 5 \$1;
#X msg 479 86 6 \$1;
#X msg 558 86 7 \$1;
#X msg 637 86 8 \$1;
#X msg 716 86 9 \$1;
#X msg 795 86 0 \$1;
#X connect 1 0 21 0;
#X connect 2 0 22 0;
#X connect 3 0 23 0;
#X connect 4 0 24 0;
#X connect 5 0 25 0;
#X connect 6 0 26 0;
#X connect 7 0 27 0;
#X connect 8 0 28 0;
#X connect 9 0 29 0;
#X connect 10 0 30 0;
#X connect 21 0 0 0;
#X connect 22 0 0 0;
#X connect 23 0 0 0;
#X connect 24 0 0 0;
#X connect 25 0 0 0;
#X connect 26 0 0 0;
#X connect 27 0 0 0;
#X connect 28 0 0 0;
#X connect 29 0 0 0;
#X connect 30 0 0 0;
