#N canvas 0 23 1005 620 12;
#X msg 34 117 button1 \$1;
#X msg 113 117 button2 \$1;
#X msg 192 117 button3 \$1;
#X msg 508 117 axis1 \$1;
#X msg 573 141 axis2 \$1;
#X msg 271 117 button4 \$1;
#X msg 350 117 button5 \$1;
#X msg 429 117 button6 \$1;
#X obj 34 571 outlet;
#X text 34 72 l;
#X obj 34 93 mspkey 108;
#X text 113 72 \;;
#X obj 113 93 mspkey 59;
#X text 192 72 ';
#X obj 192 93 mspkey 39;
#X text 271 72 o;
#X obj 271 93 mspkey 111;
#X text 350 72 p;
#X obj 350 93 mspkey 112;
#X text 429 72 [;
#X obj 429 93 mspkey 91;
#X text 587 75 a;
#X text 350 22 c;
#X obj 350 43 mspkey 99;
#X text 429 22 v;
#X obj 429 43 mspkey 118;
#X text 616 75 d;
#X obj 508 93 mspkeyaxis 97 100;
#X msg 638 165 axis3 \$1;
#X msg 703 189 axis4 \$1;
#X msg 768 261 axis5 \$1;
#X msg 833 333 axis6 \$1;
#X obj 573 117 mspkeyaxis 115 119;
#X text 652 99 s;
#X text 681 99 w;
#X text 717 123 g;
#X text 746 123 j;
#X obj 638 141 mspkeyaxis 103 106;
#X text 782 147 h;
#X obj 703 165 mspkeyaxis 104 121;
#X text 811 147 y;
#X text 847 171 q;
#X text 912 243 e;
#X obj 768 189 mspkeyaxis 113;
#X obj 833 261 mspkeyaxis 101;
#X obj 768 213 * -1;
#X obj 768 237 scaled 0 1 -1 1;
#X obj 833 285 * -1;
#X obj 833 309 scaled 0 1 -1 1;
#X connect 0 0 8 0;
#X connect 1 0 8 0;
#X connect 2 0 8 0;
#X connect 3 0 8 0;
#X connect 4 0 8 0;
#X connect 5 0 8 0;
#X connect 6 0 8 0;
#X connect 7 0 8 0;
#X connect 10 0 0 0;
#X connect 12 0 1 0;
#X connect 14 0 2 0;
#X connect 16 0 5 0;
#X connect 18 0 6 0;
#X connect 20 0 7 0;
#X connect 23 0 6 0;
#X connect 25 0 7 0;
#X connect 27 0 3 0;
#X connect 28 0 8 0;
#X connect 29 0 8 0;
#X connect 30 0 8 0;
#X connect 31 0 8 0;
#X connect 32 0 4 0;
#X connect 37 0 28 0;
#X connect 39 0 29 0;
#X connect 43 0 45 0;
#X connect 44 0 47 0;
#X connect 45 0 46 0;
#X connect 46 0 30 0;
#X connect 47 0 48 0;
#X connect 48 0 31 0;
