#N canvas 92 44 635 392 12;
#X floatatom 233 101 5 0 0 1 \$1 - - 0;
#X obj 233 124 t b f, f 12;
#X obj 233 148 symbol \$1;
#X obj 233 172 pack s f, f 12;
#X obj 233 196 route list;
#X obj 233 220 outlet;
#X obj 85 11 inlet;
#X obj 424 66 deff \$2 0;
#X obj 523 61 deff \$3 1;
#X msg 497 155 range \$1 \$2;
#X obj 495 131 pack f f;
#X obj 103 100 hsl 128 19 0 1 0 0 empty empty empty -2 -8 0 10 #fcfcfc
#000000 #000000 0 1;
#X obj 449 10 loadbang;
#X obj 85 35 clip, f 31;
#X obj 449 34 t b b b;
#X obj 359 23 deff \$4 0;
#X connect 0 0 1 0;
#X connect 1 0 2 0;
#X connect 1 1 3 1;
#X connect 2 0 3 0;
#X connect 3 0 4 0;
#X connect 4 0 5 0;
#X connect 6 0 13 0;
#X connect 7 0 10 0;
#X connect 7 0 13 1;
#X connect 8 0 10 1;
#X connect 8 0 13 2;
#X connect 9 0 11 0;
#X connect 10 0 9 0;
#X connect 11 0 0 0;
#X connect 12 0 14 0;
#X connect 13 0 11 0;
#X connect 14 0 15 0;
#X connect 14 1 7 0;
#X connect 14 2 8 0;
#X connect 15 0 13 0;
#X coords 0 -1 1 1 350 19 2 100 100;
