#N canvas 92 130 635 300 12;
#X floatatom 233 101 5 0 0 1 \$1 - - 0;
#X obj 103 100 hsl 128 18 0 1 0 0 empty empty empty -2 -8 0 10 #fcfcfc
#000000 #000000 0 1;
#X obj 233 124 t b f, f 12;
#X obj 233 148 symbol \$1;
#X obj 233 172 pack s f, f 12;
#X obj 233 196 route list;
#X obj 233 220 outlet;
#X obj 259 11 inlet;
#X obj 259 35 clip 0 1;
#X connect 0 0 2 0;
#X connect 1 0 0 0;
#X connect 2 0 3 0;
#X connect 2 1 4 1;
#X connect 3 0 4 0;
#X connect 4 0 5 0;
#X connect 5 0 6 0;
#X connect 7 0 8 0;
#X connect 8 0 1 0;
#X coords 0 -1 1 1 350 19 2 100 100;
