#N canvas 743 253 343 398 12;
#X obj 20 14 inlet;
#X obj 20 38 unpack f f f f f, f 37;
#X obj 100 100 tgl 15 0 empty empty empty 17 7 0 10 -262144 -1 -1 1
1;
#X obj 115 100 tgl 15 0 empty empty empty 17 7 0 10 -262144 -1 -1 0
1;
#X obj 130 100 tgl 15 0 empty empty empty 17 7 0 10 -262144 -1 -1 0
1;
#X obj 145 100 tgl 15 0 empty empty empty 17 7 0 10 -262144 -1 -1 0
1;
#X obj 160 100 tgl 15 0 empty empty empty 17 7 0 10 -262144 -1 -1 1
1;
#X obj 100 150 outlet;
#X obj 115 204 outlet;
#X obj 132 258 outlet;
#X obj 147 312 outlet;
#X obj 162 366 outlet;
#X obj 100 126 sel 1;
#X obj 115 180 sel 1;
#X obj 132 234 sel 1;
#X obj 147 288 sel 1;
#X obj 162 342 sel 1;
#X connect 0 0 1 0;
#X connect 1 0 2 0;
#X connect 1 1 3 0;
#X connect 1 2 4 0;
#X connect 1 3 5 0;
#X connect 1 4 6 0;
#X connect 2 0 12 0;
#X connect 3 0 13 0;
#X connect 4 0 14 0;
#X connect 5 0 15 0;
#X connect 6 0 16 0;
#X connect 12 0 7 0;
#X connect 13 0 8 0;
#X connect 14 0 9 0;
#X connect 15 0 10 0;
#X connect 16 0 11 0;
#X coords 0 -1 1 1 75 15 2 100 100;
