#N canvas 198 156 1432 936 12;
#X obj 58 149 bng 15 250 50 0 empty empty empty 17 7 0 10 -262144 -1
-1;
#N canvas 0 25 596 423 binarytodecimal 0;
#X obj 37 30 inlet;
#X floatatom 37 94 5 0 0 0 - - -;
#X obj 37 117 clip 0 1;
#X obj 37 141 i;
#X obj 17 289 i;
#X obj 102 30 inlet;
#X floatatom 102 94 5 0 0 0 - - -;
#X obj 102 117 clip 0 1;
#X obj 102 141 i;
#X obj 82 289 i;
#X obj 167 30 inlet;
#X floatatom 167 94 5 0 0 0 - - -;
#X obj 167 117 clip 0 1;
#X obj 167 141 i;
#X obj 147 289 i;
#X obj 232 30 inlet;
#X floatatom 232 94 5 0 0 0 - - -;
#X obj 232 117 clip 0 1;
#X obj 232 141 i;
#X obj 212 289 i;
#X obj 297 30 inlet;
#X floatatom 297 94 5 0 0 0 - - -;
#X obj 297 117 clip 0 1;
#X obj 297 141 i;
#X obj 277 289 i;
#X obj 362 30 inlet;
#X floatatom 362 94 5 0 0 0 - - -;
#X obj 362 117 clip 0 1;
#X obj 362 141 i;
#X obj 342 289 i;
#X obj 427 30 inlet;
#X floatatom 427 94 5 0 0 0 - - -;
#X obj 427 117 clip 0 1;
#X obj 427 141 i;
#X obj 407 289 i;
#X obj 492 30 inlet;
#X floatatom 492 94 5 0 0 0 - - -;
#X obj 492 117 clip 0 1;
#X obj 492 141 i;
#X obj 492 165 * 1;
#X obj 472 289 i;
#X obj 37 54 t b f;
#X obj 102 54 t b f;
#X obj 167 54 t b f;
#X obj 232 54 t b f;
#X obj 297 54 t b f;
#X obj 362 54 t b f;
#X obj 427 54 t b f;
#X obj 492 54 t b f;
#X obj 17 250 t b b b b b b b b, f 65;
#X obj 427 165 * 2;
#X obj 362 165 * 4;
#X obj 297 165 * 8;
#X obj 232 165 * 16;
#X obj 167 165 * 32;
#X obj 102 165 * 64;
#X obj 37 165 * 128;
#X obj 407 313 +;
#X obj 342 313 +;
#X obj 277 313 +;
#X obj 212 313 +;
#X obj 147 313 +;
#X obj 82 313 +;
#X obj 17 313 +;
#X obj 17 337 outlet;
#X connect 0 0 41 0;
#X connect 1 0 2 0;
#X connect 2 0 3 0;
#X connect 3 0 56 0;
#X connect 4 0 63 0;
#X connect 5 0 42 0;
#X connect 6 0 7 0;
#X connect 7 0 8 0;
#X connect 8 0 55 0;
#X connect 9 0 62 0;
#X connect 10 0 43 0;
#X connect 11 0 12 0;
#X connect 12 0 13 0;
#X connect 13 0 54 0;
#X connect 14 0 61 0;
#X connect 15 0 44 0;
#X connect 16 0 17 0;
#X connect 17 0 18 0;
#X connect 18 0 53 0;
#X connect 19 0 60 0;
#X connect 20 0 45 0;
#X connect 21 0 22 0;
#X connect 22 0 23 0;
#X connect 23 0 52 0;
#X connect 24 0 59 0;
#X connect 25 0 46 0;
#X connect 26 0 27 0;
#X connect 27 0 28 0;
#X connect 28 0 51 0;
#X connect 29 0 58 0;
#X connect 30 0 47 0;
#X connect 31 0 32 0;
#X connect 32 0 33 0;
#X connect 33 0 50 0;
#X connect 34 0 57 0;
#X connect 35 0 48 0;
#X connect 36 0 37 0;
#X connect 37 0 38 0;
#X connect 38 0 39 0;
#X connect 39 0 40 1;
#X connect 40 0 57 1;
#X connect 41 0 49 0;
#X connect 41 1 1 0;
#X connect 42 0 49 0;
#X connect 42 1 6 0;
#X connect 43 0 49 0;
#X connect 43 1 11 0;
#X connect 44 0 49 0;
#X connect 44 1 16 0;
#X connect 45 0 49 0;
#X connect 45 1 21 0;
#X connect 46 0 49 0;
#X connect 46 1 26 0;
#X connect 47 0 49 0;
#X connect 47 1 31 0;
#X connect 48 0 49 0;
#X connect 48 1 36 0;
#X connect 49 0 4 0;
#X connect 49 1 9 0;
#X connect 49 2 14 0;
#X connect 49 3 19 0;
#X connect 49 4 24 0;
#X connect 49 5 29 0;
#X connect 49 6 34 0;
#X connect 49 7 40 0;
#X connect 50 0 34 1;
#X connect 51 0 29 1;
#X connect 52 0 24 1;
#X connect 53 0 19 1;
#X connect 54 0 14 1;
#X connect 55 0 9 1;
#X connect 56 0 4 1;
#X connect 57 0 58 1;
#X connect 58 0 59 1;
#X connect 59 0 60 1;
#X connect 60 0 61 1;
#X connect 61 0 62 1;
#X connect 62 0 63 1;
#X connect 63 0 64 0;
#X restore 104 778 pd binarytodecimal;
#X obj 58 825 f, f 7;
#X obj 427 377 f;
#X obj 591 377 f;
#X obj 754 377 f;
#X obj 918 377 f;
#X obj 1081 377 f;
#X obj 1245 377 f;
#X obj 1081 591 t f f;
#X obj 1245 591 t f f;
#X obj 409 840 f;
#X obj 573 840 f;
#X obj 736 840 f;
#X obj 900 840 f;
#X obj 1063 840 f;
#X obj 1227 840 f;
#X obj 58 329 t b b b, f 23;
#X obj 264 354 t b b b b b b b b, f 164;
#X obj 278 812 t b b b b b b b b, f 152;
#X obj 264 377 f;
#X obj 279 840 f;
#X floatatom 369 291 5 0 0 0 - - -;
#X obj 58 896 outlet;
#X obj 58 125 inlet;
#X obj 369 125 inlet;
#X obj 369 149 clip 0 1;
#X obj 369 243 * 100;
#X obj 58 849 / 256;
#X obj 315 125 inlet;
#X obj 315 259 f;
#X text 21 22 /// BASED ON THE MUSIC THING TURING MACHINE MODULE. \;
\; https://musicthing.co.uk/collateral/TuringRev1Docs.pdf;
#X floatatom 427 568 5 0 0 0 - - -;
#X floatatom 591 568 5 0 0 0 - - -;
#X floatatom 754 568 5 0 0 0 - - -;
#X floatatom 918 568 5 0 0 0 - - -;
#X floatatom 1081 568 5 0 0 0 - - -;
#X floatatom 1245 568 5 0 0 0 - - -;
#X floatatom 297 568 5 0 0 0 - - -;
#X floatatom 104 802 5 0 0 0 - - -;
#X floatatom 58 873 5 0 0 0 - - -;
#X obj 1359 377 f;
#X obj 1359 591 t f f;
#X obj 1341 840 f;
#X floatatom 1359 568 5 0 0 0 - - -;
#X obj 366 498 bng 30 250 50 0 empty empty the_bit_flipped! 17 7 0
10 -262144 -159808 -1;
#N canvas 848 202 881 588 maybeflipbit 0;
#X obj 171 240 f, f 4;
#X obj 171 148 random 100;
#X obj 237 288 f;
#X obj 171 196 sel 0 1, f 16;
#X obj 171 264 sel 0 1, f 8;
#X msg 171 288 1;
#X msg 202 288 0;
#X obj 50 319 f, f 17;
#X obj 54 124 t b b b f f, f 34;
#X obj 75 229 f;
#X obj 75 253 sel -1 1, f 10;
#X msg 75 277 0;
#X msg 108 277 1;
#X obj 113 188 bng 15 250 50 0 empty empty empty 17 7 0 10 -262144
-1 -1;
#X msg 113 208 0;
#X obj 171 220 bng 15 250 50 0 empty empty empty 17 7 0 10 -262144
-1 -1;
#X obj 225 220 bng 15 250 50 0 empty empty empty 17 7 0 10 -262144
-1 -1;
#X obj 171 172 <, f 13;
#X obj 50 343 outlet;
#X obj 54 62 inlet;
#X obj 94 62 inlet;
#X obj 259 59 inlet;
#X obj 566 388 outlet;
#X text 556 357 bangs when we flip the bit;
#X connect 0 0 4 0;
#X connect 1 0 17 0;
#X connect 2 0 7 1;
#X connect 3 0 15 0;
#X connect 3 1 16 0;
#X connect 4 0 5 0;
#X connect 4 1 6 0;
#X connect 5 0 7 1;
#X connect 6 0 7 1;
#X connect 7 0 18 0;
#X connect 8 0 7 0;
#X connect 8 1 9 0;
#X connect 8 2 1 0;
#X connect 8 3 0 1;
#X connect 8 4 2 1;
#X connect 9 0 10 0;
#X connect 10 0 11 0;
#X connect 10 1 12 0;
#X connect 10 2 13 0;
#X connect 11 0 7 1;
#X connect 12 0 7 1;
#X connect 13 0 14 0;
#X connect 14 0 9 1;
#X connect 15 0 0 0;
#X connect 15 0 22 0;
#X connect 16 0 2 0;
#X connect 17 0 3 0;
#X connect 19 0 8 0;
#X connect 20 0 9 1;
#X connect 21 0 17 1;
#X restore 264 473 pd maybeflipbit;
#X obj 58 169 t b b;
#X obj 369 267 i;
#X floatatom 264 450 5 0 0 0 - - -;
#X obj 645 738 pack f f f f f;
#X obj 297 590 t f f f;
#X obj 427 591 t f f f;
#X obj 591 591 t f f f;
#X obj 754 591 t f f f;
#X obj 918 591 t f f f;
#X obj 645 896 outlet;
#X floatatom 369 173 5 0 0 0 - - -;
#X obj 369 196 easeinoutcubic;
#X floatatom 369 220 5 0 0 0 - - -;
#X text 707 22 /// USAGE: \; \; /// BANG FIRST INLET TO PASS IN CLOCK.
\; \; /// PASS A NUMBER BETWEEN 0 AND 1 TO THIRD INLET. O.5 IS COMPLETELY
RANDOM \, 1 IS COMPLETELY LOCKED IN REPEATING 8-STEP SEQUENCE \, AND
0 IS COMPLETELY LOCKED IN REPEATING 16-STEP SEQUENCE. IT'S FUN TO KEEP
IT AT 0.5 FOR A BIT TO GENERATE SOME RANDOMNESS \, AND THEN BUMP TO
1 OR 0 TO LOCK IT IN A REPEATING PATTERN \, AND THEN LATER ON FOR SOME
VARIATION BUMP TO ~0.15 OR ~0.85 SO IT MUTATES SLOWLY. \; \; /// MIDDLE
INLET IS TO NUDGE THE PATTERN UP OR DOWN. PASS 1 TO NUDGE IT UP. IT
WILL BE CONTINUALLY NUDGED UP WITH EACH CLOCK PULSE UNTIL RECEIVING
A NON-1 VALUE. PASS -1 TO NUDGE IT DOWN (AND SIMILARLY \, NON- -1 TO
COMPLETE THE NUDGING). \; \; /// FIRST OUTLET RETURNS A VALUE BETWEEN
0 AND 1 \; \; /// SECOND OUTLET RETURNS A PACKED LIST OF THE FIRST
FIVE SIGNIFICANT BITS.;
#X connect 0 0 47 0;
#X connect 1 0 39 0;
#X connect 2 0 28 0;
#X connect 3 0 32 0;
#X connect 4 0 33 0;
#X connect 5 0 34 0;
#X connect 6 0 35 0;
#X connect 7 0 36 0;
#X connect 8 0 37 0;
#X connect 9 0 15 1;
#X connect 9 1 1 5;
#X connect 10 0 16 1;
#X connect 10 1 1 6;
#X connect 11 0 4 1;
#X connect 12 0 5 1;
#X connect 13 0 6 1;
#X connect 14 0 7 1;
#X connect 15 0 8 1;
#X connect 16 0 41 1;
#X connect 17 0 2 0;
#X connect 17 1 19 0;
#X connect 17 2 18 0;
#X connect 18 0 20 0;
#X connect 18 1 3 0;
#X connect 18 2 4 0;
#X connect 18 3 5 0;
#X connect 18 4 6 0;
#X connect 18 5 7 0;
#X connect 18 6 8 0;
#X connect 18 7 41 0;
#X connect 19 0 21 0;
#X connect 19 1 11 0;
#X connect 19 2 12 0;
#X connect 19 3 13 0;
#X connect 19 4 14 0;
#X connect 19 5 15 0;
#X connect 19 6 16 0;
#X connect 19 7 43 0;
#X connect 20 0 49 0;
#X connect 21 0 3 1;
#X connect 22 0 46 2;
#X connect 24 0 0 0;
#X connect 25 0 26 0;
#X connect 26 0 57 0;
#X connect 27 0 48 0;
#X connect 28 0 40 0;
#X connect 29 0 30 0;
#X connect 30 0 46 1;
#X connect 32 0 52 0;
#X connect 33 0 53 0;
#X connect 34 0 54 0;
#X connect 35 0 55 0;
#X connect 36 0 9 0;
#X connect 37 0 10 0;
#X connect 38 0 51 0;
#X connect 39 0 2 1;
#X connect 40 0 23 0;
#X connect 41 0 44 0;
#X connect 42 0 43 1;
#X connect 42 1 1 7;
#X connect 43 0 20 1;
#X connect 44 0 42 0;
#X connect 46 0 38 0;
#X connect 46 1 45 0;
#X connect 47 0 17 0;
#X connect 47 1 30 0;
#X connect 48 0 22 0;
#X connect 49 0 46 0;
#X connect 50 0 56 0;
#X connect 51 0 21 1;
#X connect 51 1 1 0;
#X connect 51 2 50 0;
#X connect 52 0 11 1;
#X connect 52 1 1 1;
#X connect 52 2 50 1;
#X connect 53 0 12 1;
#X connect 53 1 1 2;
#X connect 53 2 50 2;
#X connect 54 0 13 1;
#X connect 54 1 1 3;
#X connect 54 2 50 3;
#X connect 55 0 14 1;
#X connect 55 1 1 4;
#X connect 55 2 50 4;
#X connect 57 0 58 0;
#X connect 58 0 59 0;
#X connect 59 0 27 0;
