#N canvas 0 25 624 300 12;
#X obj 55 15 inlet;
#X obj 55 109 unpack f f f f f, f 40;
#X obj 262 157 +, f 10;
#X obj 193 181 +, f 10;
#X obj 124 205 +, f 10;
#X obj 55 229 +, f 10;
#X obj 55 253 outlet;
#X obj 55 133 *;
#X obj 124 133 *;
#X obj 193 133 *;
#X obj 262 133 *;
#X obj 332 133 *;
#X obj 105 15 inlet;
#X obj 105 39 clip 0 1;
#X obj 105 63 * 0.2;
#X obj 175 15 inlet;
#X obj 175 39 clip 0 1;
#X obj 175 63 * 0.2;
#X obj 245 15 inlet;
#X obj 245 39 clip 0 1;
#X obj 245 63 * 0.2;
#X obj 315 15 inlet;
#X obj 315 39 clip 0 1;
#X obj 315 63 * 0.2;
#X obj 385 15 inlet;
#X obj 385 39 clip 0 1;
#X obj 385 63 * 0.2;
#X connect 0 0 1 0;
#X connect 1 0 7 0;
#X connect 1 1 8 0;
#X connect 1 2 9 0;
#X connect 1 3 10 0;
#X connect 1 4 11 0;
#X connect 2 0 3 1;
#X connect 3 0 4 1;
#X connect 4 0 5 1;
#X connect 5 0 6 0;
#X connect 7 0 5 0;
#X connect 8 0 4 0;
#X connect 9 0 3 0;
#X connect 10 0 2 0;
#X connect 11 0 2 1;
#X connect 12 0 13 0;
#X connect 13 0 14 0;
#X connect 14 0 7 1;
#X connect 15 0 16 0;
#X connect 16 0 17 0;
#X connect 17 0 8 1;
#X connect 18 0 19 0;
#X connect 19 0 20 0;
#X connect 20 0 9 1;
#X connect 21 0 22 0;
#X connect 22 0 23 0;
#X connect 23 0 10 1;
#X connect 24 0 25 0;
#X connect 25 0 26 0;
#X connect 26 0 11 1;
