#N canvas 121 159 918 572 12;
#X obj 128 107 f;
#X obj 588 217 f;
#X obj 128 155 i;
#X obj 128 203 t f f, f 20;
#X obj 265 227 / 12;
#X floatatom 265 275 5 0 0 0 - - -;
#X obj 128 227 % 12;
#X floatatom 128 299 5 0 0 0 - - -;
#X obj 265 251 i;
#X floatatom 306 198 5 0 0 0 - - -;
#X obj 128 394 unpack f f f f;
#X obj 265 298 * 12;
#X obj 128 418 +;
#X obj 160 418 +;
#X obj 191 418 +;
#X floatatom 265 322 5 0 0 0 - - -;
#X floatatom 128 251 5 0 0 0 - - -;
#X obj 588 265 i;
#X floatatom 772 332 5 0 0 0 - - -;
#X floatatom 75 418 5 0 0 0 - - -;
#X obj 128 76 inlet;
#X obj 588 109 inlet;
#X obj 128 442 outlet;
#X obj 180 442 outlet;
#X obj 231 442 outlet;
#X obj 588 434 outlet;
#X obj 128 179 quantizedmode \$1;
#X obj 588 313 quantizedmode \$1;
#X obj 128 346 chord \$1;
#X obj 128 275 scaledegree \$1;
#X obj 128 322 change;
#X obj 588 289 change;
#X obj 128 370 inversion \$2;
#X text 591 74 y;
#X text 141 45 x;
#X obj 128 131 scaled 0 1 20 100;
#X obj 588 241 scaled 0 1 20 100;
#X connect 0 0 35 0;
#X connect 1 0 36 0;
#X connect 2 0 26 0;
#X connect 3 0 6 0;
#X connect 3 1 4 0;
#X connect 4 0 8 0;
#X connect 5 0 11 0;
#X connect 6 0 16 0;
#X connect 7 0 30 0;
#X connect 8 0 5 0;
#X connect 10 0 12 0;
#X connect 10 0 19 0;
#X connect 10 1 13 0;
#X connect 10 2 14 0;
#X connect 11 0 15 0;
#X connect 12 0 22 0;
#X connect 13 0 23 0;
#X connect 14 0 24 0;
#X connect 15 0 14 1;
#X connect 15 0 13 1;
#X connect 15 0 12 1;
#X connect 16 0 29 0;
#X connect 17 0 31 0;
#X connect 20 0 0 0;
#X connect 21 0 1 0;
#X connect 26 0 3 0;
#X connect 26 0 9 0;
#X connect 27 0 18 0;
#X connect 27 0 25 0;
#X connect 28 0 32 0;
#X connect 29 0 7 0;
#X connect 30 0 28 0;
#X connect 31 0 27 0;
#X connect 32 0 10 0;
#X connect 35 0 2 0;
#X connect 36 0 17 0;
