#N canvas 121 159 918 572 12;
#X obj 128 107 f;
#X obj 388 107 f;
#X obj 128 131 scaled 0 1 32 97;
#X obj 128 155 i;
#X obj 128 203 t f f;
#X obj 160 227 / 12;
#X floatatom 276 281 5 0 0 0 - - - 0;
#X obj 128 227 % 12;
#X floatatom 128 299 5 0 0 0 - - - 0;
#X obj 160 251 i;
#X floatatom 312 208 5 0 0 0 - - - 0;
#X obj 128 346 unpack f f f f;
#X obj 276 304 * 12;
#X obj 128 370 +;
#X obj 160 370 +;
#X obj 191 370 +;
#X floatatom 276 328 5 0 0 0 - - - 0;
#X floatatom 128 251 5 0 0 0 - - - 0;
#X obj 388 131 scaled 0 1 32 97;
#X obj 388 155 i;
#X floatatom 572 208 5 0 0 0 - - - 0;
#X floatatom 75 370 5 0 0 0 - - - 0;
#X obj 128 76 inlet;
#X obj 388 69 inlet;
#X obj 128 394 outlet;
#X obj 180 394 outlet;
#X obj 231 394 outlet;
#X obj 388 394 outlet;
#X obj 128 179 quantizedmode \$1;
#X obj 388 179 quantizedmode \$1;
#X obj 128 322 chord \$1;
#X obj 128 275 scaledegree \$1;
#X connect 0 0 2 0;
#X connect 1 0 18 0;
#X connect 2 0 3 0;
#X connect 3 0 28 0;
#X connect 4 0 7 0;
#X connect 4 1 5 0;
#X connect 5 0 9 0;
#X connect 6 0 12 0;
#X connect 7 0 17 0;
#X connect 8 0 30 0;
#X connect 9 0 6 0;
#X connect 11 0 13 0;
#X connect 11 0 21 0;
#X connect 11 1 14 0;
#X connect 11 2 15 0;
#X connect 12 0 16 0;
#X connect 13 0 24 0;
#X connect 14 0 25 0;
#X connect 15 0 26 0;
#X connect 16 0 15 1;
#X connect 16 0 14 1;
#X connect 16 0 13 1;
#X connect 17 0 31 0;
#X connect 18 0 19 0;
#X connect 19 0 29 0;
#X connect 22 0 0 0;
#X connect 23 0 1 0;
#X connect 28 0 4 0;
#X connect 28 0 10 0;
#X connect 29 0 20 0;
#X connect 29 0 27 0;
#X connect 30 0 11 0;
#X connect 31 0 8 0;
