#N canvas 0 38 651 464 12;
#X obj 105 167 noise~;
#X obj 249 266 outlet~;
#X obj 105 191 vcf~ 80, f 21;
#X obj 249 223 *~ 20;
#X obj 177 167 inlet~;
#X connect 0 0 2 0;
#X connect 2 1 3 0;
#X connect 3 0 1 0;
#X connect 4 0 2 1;
