#N canvas 23 408 1470 385 12;
#X obj 8 124 t b f, f 9;
#X obj 8 172 pack f f, f 9;
#X obj 8 100 mspkey 122;
#X obj 8 148 f 0.05;
#X obj 88 124 t b f, f 9;
#X obj 88 172 pack f f, f 9;
#X obj 88 100 mspkey 120;
#X obj 88 148 f 0.092;
#X obj 168 124 t b f, f 9;
#X obj 168 172 pack f f, f 9;
#X obj 168 100 mspkey 99;
#X obj 168 148 f 0.113;
#X obj 248 124 t b f, f 9;
#X obj 248 172 pack f f, f 9;
#X obj 248 100 mspkey 118;
#X obj 248 148 f 0.134;
#X obj 328 124 t b f, f 9;
#X obj 328 172 pack f f, f 9;
#X obj 328 100 mspkey 98;
#X obj 328 148 f 0.155;
#X obj 408 124 t b f, f 9;
#X obj 408 172 pack f f, f 9;
#X obj 408 100 mspkey 110;
#X obj 408 148 f 0.176;
#X obj 488 124 t b f, f 9;
#X obj 488 172 pack f f, f 9;
#X obj 488 100 mspkey 109;
#X obj 488 148 f 0.197;
#X obj 568 124 t b f, f 9;
#X obj 568 172 pack f f, f 9;
#X obj 568 100 mspkey 44;
#X obj 568 148 f 0.218;
#X obj 648 124 t b f, f 9;
#X obj 648 172 pack f f, f 9;
#X obj 648 100 mspkey 46;
#X obj 648 148 f 0.24;
#X obj 728 124 t b f, f 9;
#X obj 728 172 pack f f, f 9;
#X obj 728 100 mspkey 47;
#X obj 728 148 f 0.261;
#X obj 808 124 t b f, f 9;
#X obj 808 172 pack f f, f 9;
#X obj 808 100 mspkey 97;
#X obj 808 148 f 0.282;
#X obj 888 124 t b f, f 9;
#X obj 888 172 pack f f, f 9;
#X obj 888 100 mspkey 115;
#X obj 888 148 f 0.303;
#X obj 968 124 t b f, f 9;
#X obj 968 172 pack f f, f 9;
#X obj 968 100 mspkey 100;
#X obj 968 148 f 0.324;
#X obj 1048 124 t b f, f 9;
#X obj 1048 172 pack f f, f 9;
#X obj 1048 100 mspkey 102;
#X obj 1048 148 f 0.345;
#X obj 1128 124 t b f, f 9;
#X obj 1128 172 pack f f, f 9;
#X obj 1128 100 mspkey 103;
#X obj 1128 148 f 0.366;
#X obj 1208 124 t b f, f 9;
#X obj 1208 172 pack f f, f 9;
#X obj 1208 100 mspkey 104;
#X obj 1208 148 f 0.387;
#X obj 1288 124 t b f, f 9;
#X obj 1288 172 pack f f, f 9;
#X obj 1288 100 mspkey 106;
#X obj 1288 148 f 0.408;
#X obj 1368 124 t b f, f 9;
#X obj 1368 172 pack f f, f 9;
#X obj 1368 100 mspkey 107;
#X obj 1368 148 f 0.43;
#X obj 1448 124 t b f, f 9;
#X obj 1448 172 pack f f, f 9;
#X obj 1448 100 mspkey 108;
#X obj 1448 148 f 0.451;
#X obj 1528 124 t b f, f 9;
#X obj 1528 172 pack f f, f 9;
#X obj 1528 100 mspkey 59;
#X obj 1528 148 f 0.472;
#X obj 1608 124 t b f, f 9;
#X obj 1608 172 pack f f, f 9;
#X obj 1608 100 mspkey 39;
#X obj 1608 148 f 0.493;
#X obj 1688 124 t b f, f 9;
#X obj 1688 172 pack f f, f 9;
#X obj 1688 100 mspkey 113;
#X obj 1688 148 f 0.514;
#X obj 1768 124 t b f, f 9;
#X obj 1768 172 pack f f, f 9;
#X obj 1768 100 mspkey 119;
#X obj 1768 148 f 0.535;
#X obj 1848 124 t b f, f 9;
#X obj 1848 172 pack f f, f 9;
#X obj 1848 100 mspkey 101;
#X obj 1848 148 f 0.556;
#X obj 1928 124 t b f, f 9;
#X obj 1928 172 pack f f, f 9;
#X obj 1928 100 mspkey 114;
#X obj 1928 148 f 0.577;
#X obj 2008 124 t b f, f 9;
#X obj 2008 172 pack f f, f 9;
#X obj 2008 100 mspkey 116;
#X obj 2008 148 f 0.598;
#X obj 2088 124 t b f, f 9;
#X obj 2088 172 pack f f, f 9;
#X obj 2088 100 mspkey 121;
#X obj 2088 148 f 0.62;
#X obj 2168 124 t b f, f 9;
#X obj 2168 172 pack f f, f 9;
#X obj 2168 100 mspkey 117;
#X obj 2168 148 f 0.641;
#X obj 2248 124 t b f, f 9;
#X obj 2248 172 pack f f, f 9;
#X obj 2248 100 mspkey 105;
#X obj 2248 148 f 0.662;
#X obj 2328 124 t b f, f 9;
#X obj 2328 172 pack f f, f 9;
#X obj 2328 100 mspkey 111;
#X obj 2328 148 f 0.683;
#X obj 2408 124 t b f, f 9;
#X obj 2408 172 pack f f, f 9;
#X obj 2408 100 mspkey 112;
#X obj 2408 148 f 0.704;
#X obj 2488 124 t b f, f 9;
#X obj 2488 172 pack f f, f 9;
#X obj 2488 100 mspkey 91;
#X obj 2488 148 f 0.725;
#X obj 2568 124 t b f, f 9;
#X obj 2568 172 pack f f, f 9;
#X obj 2568 100 mspkey 93;
#X obj 2568 148 f 0.746;
#X obj 2648 124 t b f, f 9;
#X obj 2648 172 pack f f, f 9;
#X obj 2648 100 mspkey 49;
#X obj 2648 148 f 0.767;
#X obj 2728 124 t b f, f 9;
#X obj 2728 172 pack f f, f 9;
#X obj 2728 100 mspkey 50;
#X obj 2728 148 f 0.788;
#X obj 2808 124 t b f, f 9;
#X obj 2808 172 pack f f, f 9;
#X obj 2808 100 mspkey 51;
#X obj 2808 148 f 0.81;
#X obj 2888 124 t b f, f 9;
#X obj 2888 172 pack f f, f 9;
#X obj 2888 100 mspkey 52;
#X obj 2888 148 f 0.831;
#X obj 2968 124 t b f, f 9;
#X obj 2968 172 pack f f, f 9;
#X obj 2968 100 mspkey 53;
#X obj 2968 148 f 0.852;
#X obj 3048 124 t b f, f 9;
#X obj 3048 172 pack f f, f 9;
#X obj 3048 100 mspkey 54;
#X obj 3048 148 f 0.873;
#X obj 3128 124 t b f, f 9;
#X obj 3128 172 pack f f, f 9;
#X obj 3128 100 mspkey 55;
#X obj 3128 148 f 0.894;
#X obj 3208 124 t b f, f 9;
#X obj 3208 172 pack f f, f 9;
#X obj 3208 100 mspkey 56;
#X obj 3208 148 f 0.915;
#X obj 3288 124 t b f, f 9;
#X obj 3288 172 pack f f, f 9;
#X obj 3288 100 mspkey 57;
#X obj 3288 148 f 0.936;
#X obj 3368 124 t b f, f 9;
#X obj 3368 172 pack f f, f 9;
#X obj 3368 100 mspkey 48;
#X obj 3368 148 f 0.957;
#X obj 3448 124 t b f, f 9;
#X obj 3448 172 pack f f, f 9;
#X obj 3448 100 mspkey 45;
#X obj 3448 148 f 0.978;
#X obj 3528 124 t b f, f 9;
#X obj 3528 172 pack f f, f 9;
#X obj 3528 100 mspkey 61;
#X obj 3528 148 f 1;
#X text 280 9 a keyboard with these keys \, going up from 0.05 to 1:;
#X text 282 28 zxcvbnm \, ./;
#X text 378 28 asdfghjkl \; ';
#X text 470 29 qwertyuiop[];
#X text 580 28 1234567890-=;
#X obj 932 246 spigot;
#X obj 932 270 outlet;
#X obj 20 23 tgl 18 0 empty empty empty 0 -10 0 12 #fcfcfc #000000 #000000 0 1;
#X obj 152 4 s \$0-is-on;
#X obj 1043 259 r \$0-is-on;
#X floatatom 38 23 6 0 0 0 - - - 0;
#X floatatom 82 23 3 0 0 0 - - - 0;
#X obj 112 73 unpack;
#X obj 1 22 bng 19 250 50 0 empty empty empty 0 -10 0 12 #fcfcfc #000000 #000000;
#X msg 77 243 1;
#X text 4 1 --- kb :) ---;
#X obj 126 255 r deactivate-normalized-keyboard;
#X obj 123 310 spigot;
#X obj 159 278 tgl 19 0 empty empty empty 0 -10 0 12 #fcfcfc #000000 #000000 0 1;
#X msg 123 334 0;
#X obj 424 257 t b b b, f 22;
#X msg 423 285 1;
#X msg 568 299 0;
#X obj 450 331 s deactivate-normalized-keyboard;
#X obj 492 287 bng 19 250 50 0 empty empty empty 0 -10 0 12 #fcfcfc #000000 #000000;
#X obj 198 302 loadbang;
#X msg 198 326 1;
#X text 823 12 the ui controls \, from left to right \, are:;
#X text 823 27 arm (exclusive) \, arm \, outgoing pitch \, outgoing velocity;
#X text 840 50 ^ this one disarms all other [normalizedkeyboard]s;
#X connect 0 0 3 0;
#X connect 0 1 1 1;
#X connect 1 0 185 0;
#X connect 2 0 0 0;
#X connect 3 0 1 0;
#X connect 4 0 7 0;
#X connect 4 1 5 1;
#X connect 5 0 185 0;
#X connect 6 0 4 0;
#X connect 7 0 5 0;
#X connect 8 0 11 0;
#X connect 8 1 9 1;
#X connect 9 0 185 0;
#X connect 10 0 8 0;
#X connect 11 0 9 0;
#X connect 12 0 15 0;
#X connect 12 1 13 1;
#X connect 13 0 185 0;
#X connect 14 0 12 0;
#X connect 15 0 13 0;
#X connect 16 0 19 0;
#X connect 16 1 17 1;
#X connect 17 0 185 0;
#X connect 18 0 16 0;
#X connect 19 0 17 0;
#X connect 20 0 23 0;
#X connect 20 1 21 1;
#X connect 21 0 185 0;
#X connect 22 0 20 0;
#X connect 23 0 21 0;
#X connect 24 0 27 0;
#X connect 24 1 25 1;
#X connect 25 0 185 0;
#X connect 26 0 24 0;
#X connect 27 0 25 0;
#X connect 28 0 31 0;
#X connect 28 1 29 1;
#X connect 29 0 185 0;
#X connect 30 0 28 0;
#X connect 31 0 29 0;
#X connect 32 0 35 0;
#X connect 32 1 33 1;
#X connect 33 0 185 0;
#X connect 34 0 32 0;
#X connect 35 0 33 0;
#X connect 36 0 39 0;
#X connect 36 1 37 1;
#X connect 37 0 185 0;
#X connect 38 0 36 0;
#X connect 39 0 37 0;
#X connect 40 0 43 0;
#X connect 40 1 41 1;
#X connect 41 0 185 0;
#X connect 42 0 40 0;
#X connect 43 0 41 0;
#X connect 44 0 47 0;
#X connect 44 1 45 1;
#X connect 45 0 185 0;
#X connect 46 0 44 0;
#X connect 47 0 45 0;
#X connect 48 0 51 0;
#X connect 48 1 49 1;
#X connect 49 0 185 0;
#X connect 50 0 48 0;
#X connect 51 0 49 0;
#X connect 52 0 55 0;
#X connect 52 1 53 1;
#X connect 53 0 185 0;
#X connect 54 0 52 0;
#X connect 55 0 53 0;
#X connect 56 0 59 0;
#X connect 56 1 57 1;
#X connect 57 0 185 0;
#X connect 58 0 56 0;
#X connect 59 0 57 0;
#X connect 60 0 63 0;
#X connect 60 1 61 1;
#X connect 61 0 185 0;
#X connect 62 0 60 0;
#X connect 63 0 61 0;
#X connect 64 0 67 0;
#X connect 64 1 65 1;
#X connect 65 0 185 0;
#X connect 66 0 64 0;
#X connect 67 0 65 0;
#X connect 68 0 71 0;
#X connect 68 1 69 1;
#X connect 69 0 185 0;
#X connect 70 0 68 0;
#X connect 71 0 69 0;
#X connect 72 0 75 0;
#X connect 72 1 73 1;
#X connect 73 0 185 0;
#X connect 74 0 72 0;
#X connect 75 0 73 0;
#X connect 76 0 79 0;
#X connect 76 1 77 1;
#X connect 77 0 185 0;
#X connect 78 0 76 0;
#X connect 79 0 77 0;
#X connect 80 0 83 0;
#X connect 80 1 81 1;
#X connect 81 0 185 0;
#X connect 82 0 80 0;
#X connect 83 0 81 0;
#X connect 84 0 87 0;
#X connect 84 1 85 1;
#X connect 85 0 185 0;
#X connect 86 0 84 0;
#X connect 87 0 85 0;
#X connect 88 0 91 0;
#X connect 88 1 89 1;
#X connect 89 0 185 0;
#X connect 90 0 88 0;
#X connect 91 0 89 0;
#X connect 92 0 95 0;
#X connect 92 1 93 1;
#X connect 93 0 185 0;
#X connect 94 0 92 0;
#X connect 95 0 93 0;
#X connect 96 0 99 0;
#X connect 96 1 97 1;
#X connect 97 0 185 0;
#X connect 98 0 96 0;
#X connect 99 0 97 0;
#X connect 100 0 103 0;
#X connect 100 1 101 1;
#X connect 101 0 185 0;
#X connect 102 0 100 0;
#X connect 103 0 101 0;
#X connect 104 0 107 0;
#X connect 104 1 105 1;
#X connect 105 0 185 0;
#X connect 106 0 104 0;
#X connect 107 0 105 0;
#X connect 108 0 111 0;
#X connect 108 1 109 1;
#X connect 109 0 185 0;
#X connect 110 0 108 0;
#X connect 111 0 109 0;
#X connect 112 0 115 0;
#X connect 112 1 113 1;
#X connect 113 0 185 0;
#X connect 114 0 112 0;
#X connect 115 0 113 0;
#X connect 116 0 119 0;
#X connect 116 1 117 1;
#X connect 117 0 185 0;
#X connect 118 0 116 0;
#X connect 119 0 117 0;
#X connect 120 0 123 0;
#X connect 120 1 121 1;
#X connect 121 0 185 0;
#X connect 122 0 120 0;
#X connect 123 0 121 0;
#X connect 124 0 127 0;
#X connect 124 1 125 1;
#X connect 125 0 185 0;
#X connect 126 0 124 0;
#X connect 127 0 125 0;
#X connect 128 0 131 0;
#X connect 128 1 129 1;
#X connect 129 0 185 0;
#X connect 130 0 128 0;
#X connect 131 0 129 0;
#X connect 132 0 135 0;
#X connect 132 1 133 1;
#X connect 133 0 185 0;
#X connect 134 0 132 0;
#X connect 135 0 133 0;
#X connect 136 0 139 0;
#X connect 136 1 137 1;
#X connect 137 0 185 0;
#X connect 138 0 136 0;
#X connect 139 0 137 0;
#X connect 140 0 143 0;
#X connect 140 1 141 1;
#X connect 141 0 185 0;
#X connect 142 0 140 0;
#X connect 143 0 141 0;
#X connect 144 0 147 0;
#X connect 144 1 145 1;
#X connect 145 0 185 0;
#X connect 146 0 144 0;
#X connect 147 0 145 0;
#X connect 148 0 151 0;
#X connect 148 1 149 1;
#X connect 149 0 185 0;
#X connect 150 0 148 0;
#X connect 151 0 149 0;
#X connect 152 0 155 0;
#X connect 152 1 153 1;
#X connect 153 0 185 0;
#X connect 154 0 152 0;
#X connect 155 0 153 0;
#X connect 156 0 159 0;
#X connect 156 1 157 1;
#X connect 157 0 185 0;
#X connect 158 0 156 0;
#X connect 159 0 157 0;
#X connect 160 0 163 0;
#X connect 160 1 161 1;
#X connect 161 0 185 0;
#X connect 162 0 160 0;
#X connect 163 0 161 0;
#X connect 164 0 167 0;
#X connect 164 1 165 1;
#X connect 165 0 185 0;
#X connect 166 0 164 0;
#X connect 167 0 165 0;
#X connect 168 0 171 0;
#X connect 168 1 169 1;
#X connect 169 0 185 0;
#X connect 170 0 168 0;
#X connect 171 0 169 0;
#X connect 172 0 175 0;
#X connect 172 1 173 1;
#X connect 173 0 185 0;
#X connect 174 0 172 0;
#X connect 175 0 173 0;
#X connect 176 0 179 0;
#X connect 176 1 177 1;
#X connect 177 0 185 0;
#X connect 178 0 176 0;
#X connect 179 0 177 0;
#X connect 185 0 186 0;
#X connect 185 0 192 0;
#X connect 187 0 188 0;
#X connect 189 0 185 1;
#X connect 192 0 190 0;
#X connect 192 1 191 0;
#X connect 193 0 194 0;
#X connect 193 0 200 0;
#X connect 194 0 187 0;
#X connect 196 0 197 0;
#X connect 197 0 199 0;
#X connect 198 0 197 1;
#X connect 199 0 187 0;
#X connect 200 0 201 0;
#X connect 200 1 204 0;
#X connect 200 2 202 0;
#X connect 201 0 198 0;
#X connect 202 0 198 0;
#X connect 204 0 203 0;
#X connect 205 0 206 0;
#X connect 206 0 198 0;
#X coords 0 -1 1 1 104 40 2 1 1;
