#N canvas 191 169 927 211 12;
#X obj 15 24 inlet;
#X msg 15 126 0;
#X msg 68 126 1;
#X msg 121 126 2;
#X msg 175 126 3;
#X msg 228 126 4;
#X msg 282 126 5;
#X msg 335 126 6;
#X msg 389 126 7;
#X msg 442 126 8;
#X msg 496 126 9;
#X msg 549 126 10;
#X msg 603 126 11;
#X msg 656 126 12;
#X msg 710 126 13;
#X msg 763 126 14;
#X msg 817 126 15;
#X obj 15 180 outlet;
#X text 5 0 1-indexed input beat;
#X text 282 8 \$1 - \$16 are 1-indexed beats that \, when matched by
the input beat \, will emit a 0-indexed number indicating their index
in this list;
#X obj 54 63 inlet;
#X obj 15 87 sel \$1;
#X obj 107 63 inlet;
#X obj 160 63 inlet;
#X obj 213 63 inlet;
#X obj 267 63 inlet;
#X obj 321 63 inlet;
#X obj 374 63 inlet;
#X obj 428 63 inlet;
#X obj 481 63 inlet;
#X obj 540 63 inlet;
#X obj 595 63 inlet;
#X obj 649 63 inlet;
#X obj 702 63 inlet;
#X obj 756 63 inlet;
#X obj 809 63 inlet;
#X obj 862 63 inlet;
#X obj 68 87 sel \$2;
#X obj 121 87 sel \$3;
#X obj 174 87 sel \$4;
#X obj 228 87 sel \$5;
#X obj 282 87 sel \$6;
#X obj 335 87 sel \$7;
#X obj 389 87 sel \$8;
#X obj 442 87 sel \$9;
#X obj 494 87 sel \$10;
#X obj 549 87 sel \$11;
#X obj 603 87 sel \$12;
#X obj 656 87 sel \$13;
#X obj 710 87 sel \$14;
#X obj 763 87 sel \$15;
#X obj 816 87 sel \$16;
#X connect 0 0 21 0;
#X connect 0 0 51 0;
#X connect 0 0 50 0;
#X connect 0 0 49 0;
#X connect 0 0 48 0;
#X connect 0 0 47 0;
#X connect 0 0 46 0;
#X connect 0 0 45 0;
#X connect 0 0 44 0;
#X connect 0 0 43 0;
#X connect 0 0 42 0;
#X connect 0 0 41 0;
#X connect 0 0 40 0;
#X connect 0 0 39 0;
#X connect 0 0 38 0;
#X connect 0 0 37 0;
#X connect 1 0 17 0;
#X connect 2 0 17 0;
#X connect 3 0 17 0;
#X connect 4 0 17 0;
#X connect 5 0 17 0;
#X connect 6 0 17 0;
#X connect 7 0 17 0;
#X connect 8 0 17 0;
#X connect 9 0 17 0;
#X connect 10 0 17 0;
#X connect 11 0 17 0;
#X connect 12 0 17 0;
#X connect 13 0 17 0;
#X connect 14 0 17 0;
#X connect 15 0 17 0;
#X connect 16 0 17 0;
#X connect 20 0 21 1;
#X connect 21 0 1 0;
#X connect 22 0 37 1;
#X connect 23 0 38 1;
#X connect 24 0 39 1;
#X connect 25 0 40 1;
#X connect 26 0 41 1;
#X connect 27 0 42 1;
#X connect 28 0 43 1;
#X connect 29 0 44 1;
#X connect 30 0 45 1;
#X connect 31 0 46 1;
#X connect 32 0 47 1;
#X connect 33 0 48 1;
#X connect 34 0 49 1;
#X connect 35 0 50 1;
#X connect 36 0 51 1;
#X connect 37 0 2 0;
#X connect 38 0 3 0;
#X connect 39 0 4 0;
#X connect 40 0 5 0;
#X connect 41 0 6 0;
#X connect 42 0 7 0;
#X connect 43 0 8 0;
#X connect 44 0 9 0;
#X connect 45 0 10 0;
#X connect 46 0 11 0;
#X connect 47 0 12 0;
#X connect 48 0 13 0;
#X connect 49 0 14 0;
#X connect 50 0 15 0;
#X connect 51 0 16 0;
