#N canvas 961 671 152 146 12;
#X obj 13 10 inlet~;
#X obj 13 106 outlet~;
#X obj 73 15 loadbang;
#X msg 13 34 1;
#X obj 13 58 sig~;
#X obj 13 82 -~;
#X connect 0 0 5 1;
#X connect 2 0 3 0;
#X connect 3 0 4 0;
#X connect 4 0 5 0;
#X connect 5 0 1 0;
