#N canvas 266 102 75 140 12;
#X obj 13 10 inlet;
#X obj 13 34 t b f;
#X msg 13 58 1;
#X obj 13 82 -, f 5;
#X obj 13 106 outlet;
#X connect 0 0 1 0;
#X connect 1 0 2 0;
#X connect 1 1 3 1;
#X connect 2 0 3 0;
#X connect 3 0 4 0;
