#N canvas 250 214 815 300 12;
#X obj 126 43 inlet~;
#N canvas 962 313 450 300 saw~ 0;
#X obj 16 134 outlet~;
#X obj 16 14 inlet~;
#X obj 16 38 hv.osc saw;
#X connect 1 0 2 0;
#X connect 2 0 0 0;
#X restore 87 161 pd saw~;
#N canvas 991 342 450 300 square~ 0;
#X obj 15 238 outlet~;
#X text 167 6 pw;
#X text 60 11 freq;
#X obj 15 10 inlet~;
#X obj 15 34 hv.osc square;
#X obj 121 7 inlet;
#X connect 3 0 4 0;
#X connect 4 0 0 0;
#X connect 5 0 4 1;
#X restore 175 164 pd square~;
#X obj 184 256 outlet~;
#X obj 87 185 *~;
#X obj 175 188 *~;
#X obj 282 186 *~;
#X obj 184 232 *~ 1;
#X obj 435 36 inlet;
#X obj 435 60 route saw square triangle pw, f 47;
#X obj 435 84 clip 0 1;
#X msg 435 108 \$1 10;
#X obj 435 132 line~;
#X obj 516 84 clip 0 1;
#X msg 516 108 \$1 10;
#X obj 516 132 line~;
#X obj 599 84 clip 0 1;
#X msg 599 108 \$1 10;
#X obj 599 132 line~;
#X obj 679 84 clip 0 1;
#X msg 679 108 \$1 10;
#X obj 679 132 line;
#X obj 282 162 triangle~;
#X connect 0 0 1 0;
#X connect 0 0 2 0;
#X connect 0 0 22 0;
#X connect 1 0 4 0;
#X connect 2 0 5 0;
#X connect 4 0 7 0;
#X connect 5 0 7 0;
#X connect 6 0 7 0;
#X connect 7 0 3 0;
#X connect 8 0 9 0;
#X connect 9 0 10 0;
#X connect 9 1 13 0;
#X connect 9 2 16 0;
#X connect 9 3 19 0;
#X connect 10 0 11 0;
#X connect 11 0 12 0;
#X connect 12 0 4 1;
#X connect 13 0 14 0;
#X connect 14 0 15 0;
#X connect 15 0 5 1;
#X connect 16 0 17 0;
#X connect 17 0 18 0;
#X connect 18 0 6 1;
#X connect 19 0 20 0;
#X connect 20 0 21 0;
#X connect 21 0 2 1;
#X connect 22 0 6 0;
