#N canvas 250 214 815 300 12;
#X obj 126 43 inlet~;
#X obj 126 67 phasor~;
#N canvas 962 313 450 300 saw~ 0;
#X obj 16 134 outlet~;
#X obj 16 86 *~ 2;
#X obj 16 110 -~ 1;
#X obj 16 14 inlet~;
#X connect 1 0 2 0;
#X connect 2 0 0 0;
#X connect 3 0 1 0;
#X restore 87 161 pd saw~;
#N canvas 991 342 450 300 square~ 0;
#X obj 15 142 -~;
#X obj 74 85 +~;
#X obj 74 109 wrap~;
#X obj 15 166 +~, f 16;
#X obj 15 190 *~ 2;
#X obj 15 214 -~ 1;
#X obj 15 238 outlet~;
#X text 167 6 pw;
#X text 60 11 freq;
#X obj 15 10 inlet~;
#X obj 121 7 inlet~;
#X obj 121 75 clip~ 0 1;
#X obj 242 25 loadbang;
#X msg 242 49 0.5;
#X obj 242 73 sig~;
#X connect 0 0 3 0;
#X connect 1 0 2 0;
#X connect 2 0 0 1;
#X connect 3 0 4 0;
#X connect 4 0 5 0;
#X connect 5 0 6 0;
#X connect 9 0 0 0;
#X connect 9 0 1 0;
#X connect 10 0 11 0;
#X connect 11 0 3 1;
#X connect 11 0 1 1;
#X connect 12 0 13 0;
#X connect 13 0 14 0;
#X connect 14 0 11 0;
#X restore 175 164 pd square~;
#N canvas 1020 371 450 300 triangle~ 0;
#X obj 9 6 inlet~;
#X obj 9 54 -~ 0.5;
#X obj 9 78 abs~;
#X obj 9 102 *~ 4;
#X obj 9 126 -~ 1;
#X obj 9 150 outlet~;
#X connect 0 0 1 0;
#X connect 1 0 2 0;
#X connect 2 0 3 0;
#X connect 3 0 4 0;
#X connect 4 0 5 0;
#X restore 282 162 pd triangle~;
#X obj 184 256 outlet~;
#X obj 87 185 *~;
#X obj 175 188 *~;
#X obj 282 186 *~;
#X obj 184 232 *~ 1;
#X obj 435 36 inlet;
#X obj 435 60 route saw square triangle pw, f 47;
#X obj 435 84 clip 0 1;
#X msg 435 108 \$1 10;
#X obj 435 132 line~;
#X obj 516 84 clip 0 1;
#X msg 516 108 \$1 10;
#X obj 516 132 line~;
#X obj 599 84 clip 0 1;
#X msg 599 108 \$1 10;
#X obj 599 132 line~;
#X obj 679 84 clip 0 1;
#X msg 679 108 \$1 10;
#X obj 679 132 line~;
#X connect 0 0 1 0;
#X connect 1 0 2 0;
#X connect 1 0 4 0;
#X connect 1 0 3 0;
#X connect 2 0 6 0;
#X connect 3 0 7 0;
#X connect 4 0 8 0;
#X connect 6 0 9 0;
#X connect 7 0 9 0;
#X connect 8 0 9 0;
#X connect 9 0 5 0;
#X connect 10 0 11 0;
#X connect 11 0 12 0;
#X connect 11 1 15 0;
#X connect 11 2 18 0;
#X connect 11 3 21 0;
#X connect 12 0 13 0;
#X connect 13 0 14 0;
#X connect 14 0 6 1;
#X connect 15 0 16 0;
#X connect 16 0 17 0;
#X connect 17 0 7 1;
#X connect 18 0 19 0;
#X connect 19 0 20 0;
#X connect 20 0 8 1;
#X connect 21 0 22 0;
#X connect 22 0 23 0;
#X connect 23 0 3 1;
