#N canvas 497 225 1028 539 12;
#X obj 371 38 hardsyncphasor~;
#X obj 473 6 inlet;
#X obj 371 8 inlet~;
#X obj 422 8 inlet~;
#X obj 232 294 phasordrivensine~;
#X obj 385 294 phasordriventriangle~;
#X obj 538 294 phasordrivensquare~;
#X obj 691 294 phasordrivensaw~;
#X obj 5 39 hradio 15 1 0 4 empty empty sine_triangle_square_saw 0
-8 0 10 -262144 -1 -1 0;
#X obj 250 186 sel 0 1 2 3, f 88;
#X obj 232 388 *~;
#X obj 385 388 *~;
#X obj 538 388 *~;
#X obj 691 388 *~;
#X msg 250 334 \$1 50;
#X obj 250 358 line~;
#X msg 403 334 \$1 50;
#X obj 403 358 line~;
#X msg 556 334 \$1 50;
#X obj 556 358 line~;
#X msg 709 334 \$1 50;
#X obj 709 358 line~;
#X msg 219 210 0;
#X msg 250 210 1;
#X msg 372 210 0;
#X msg 403 210 1;
#X msg 525 210 0;
#X msg 556 210 1;
#X msg 678 210 0;
#X msg 709 210 1;
#X obj 458 462 outlet~;
#X connect 0 0 4 0;
#X connect 0 0 7 0;
#X connect 0 0 6 0;
#X connect 0 0 5 0;
#X connect 1 0 0 2;
#X connect 2 0 0 0;
#X connect 3 0 0 1;
#X connect 4 0 10 0;
#X connect 5 0 11 0;
#X connect 6 0 12 0;
#X connect 7 0 13 0;
#X connect 8 0 9 0;
#X connect 9 0 22 0;
#X connect 9 0 23 0;
#X connect 9 1 24 0;
#X connect 9 1 25 0;
#X connect 9 2 26 0;
#X connect 9 2 27 0;
#X connect 9 3 28 0;
#X connect 9 3 29 0;
#X connect 10 0 30 0;
#X connect 11 0 30 0;
#X connect 12 0 30 0;
#X connect 13 0 30 0;
#X connect 14 0 15 0;
#X connect 15 0 10 1;
#X connect 16 0 17 0;
#X connect 17 0 11 1;
#X connect 18 0 19 0;
#X connect 19 0 12 1;
#X connect 20 0 21 0;
#X connect 21 0 13 1;
#X connect 22 0 16 0;
#X connect 22 0 20 0;
#X connect 22 0 18 0;
#X connect 23 0 14 0;
#X connect 24 0 14 0;
#X connect 24 0 20 0;
#X connect 24 0 18 0;
#X connect 25 0 16 0;
#X connect 26 0 14 0;
#X connect 26 0 20 0;
#X connect 26 0 16 0;
#X connect 27 0 18 0;
#X connect 28 0 14 0;
#X connect 28 0 18 0;
#X connect 28 0 16 0;
#X connect 29 0 20 0;
#X coords 0 -1 1 1 150 60 1 0 0;
