#N canvas 878 428 582 494 12;
#X obj 100 100 out~;
#X obj 89 386 writesf~ 2;
#X obj 71 23 inlet~;
#X obj 141 25 inlet~;
#X msg 234 334 open \$1;
#X msg 302 335 start;
#X msg 370 326 stop;
#N canvas 873 210 450 330 randomstring 0;
#X obj 73 31 inlet;
#X obj 128 289 outlet;
#X obj 140 97 randrange 0 999999;
#X obj 133 57 bng 15 250 50 0 empty empty empty 17 7 0 10 #fcfcfc #000000
#000000;
#X connect 0 0 3 0;
#X connect 2 0 1 0;
#X connect 3 0 2 0;
#X restore 270 234 pd randomstring;
#X obj 240 211 bng 15 250 50 0 empty empty empty 17 7 0 10 #fcfcfc
#000000 #000000;
#X obj 131 115 tgl 15 0 empty empty empty 17 7 0 10 #fcfcfc #000000
#000000 0 1;
#X obj 255 138 sel 0 1;
#X obj 278 162 t b b;
#X obj 297 44 inlet;
#X obj 240 288 makefilename /Users/michaelpace/Desktop/%d.wav;
#X connect 0 0 1 0;
#X connect 0 1 1 1;
#X connect 2 0 0 0;
#X connect 3 0 0 1;
#X connect 4 0 1 0;
#X connect 5 0 1 0;
#X connect 6 0 1 0;
#X connect 7 0 13 0;
#X connect 8 0 7 0;
#X connect 9 0 10 0;
#X connect 10 0 6 0;
#X connect 10 1 11 0;
#X connect 11 0 5 0;
#X connect 11 1 8 0;
#X connect 12 0 9 0;
#X connect 13 0 4 0;
#X coords 0 -1 1 1 46 45 2 100 100;
