#N canvas 404 300 382 407 12;
#X obj 131 130 tgl 15 0 empty empty empty 17 7 0 10 #fcfcfc #000000
#000000 0 1;
#X obj 19 225 *~;
#X obj 99 225 *~;
#X obj 17 11 inlet~;
#X obj 124 11 inlet~;
#X obj 100 102 vsl 15 40 0 100 0 0 empty empty empty 0 -9 0 10 #fcfcfc
#000000 #000000 0 1;
#X obj 29 53 env~ 1024;
#X obj 197 92 loadbang;
#X obj 156 197 sig~;
#X msg 156 150 \$1 10;
#X obj 156 174 line;
#X obj 116 102 vsl 15 40 0 100 0 0 empty empty empty 0 -9 0 10 #fcfcfc
#000000 #000000 0 1;
#X obj 126 53 env~ 1024;
#X obj 19 383 dac~, f 12;
#X obj 19 152 *~ 0.5;
#X obj 100 152 *~ 0.5;
#X obj 19 333 clip~ -1 1;
#X obj 100 333 clip~ -1 1;
#X obj 159 391 outlet~;
#X obj 222 392 outlet~;
#X obj 19 273 hip~ 20;
#X obj 19 297 hip~ 20;
#X obj 19 249 hip~ 20;
#X obj 100 249 hip~ 20;
#X obj 100 273 hip~ 20;
#X obj 100 297 hip~ 20;
#X connect 0 0 9 0;
#X connect 1 0 22 0;
#X connect 2 0 23 0;
#X connect 3 0 6 0;
#X connect 3 0 14 0;
#X connect 4 0 12 0;
#X connect 4 0 15 0;
#X connect 6 0 5 0;
#X connect 7 0 0 0;
#X connect 8 0 1 1;
#X connect 8 0 2 1;
#X connect 9 0 10 0;
#X connect 10 0 8 0;
#X connect 12 0 11 0;
#X connect 14 0 1 0;
#X connect 15 0 2 0;
#X connect 16 0 13 0;
#X connect 16 0 18 0;
#X connect 17 0 13 1;
#X connect 17 0 19 0;
#X connect 20 0 21 0;
#X connect 21 0 16 0;
#X connect 22 0 20 0;
#X connect 23 0 24 0;
#X connect 24 0 25 0;
#X connect 25 0 17 0;
#X coords 0 -1 1 1 46 45 2 100 100;
