#N canvas 692 256 629 572 12;
#X obj 117 219 inlet;
#X obj 117 243 t b b, f 14;
#X obj 117 363 mtturing;
#X obj 212 363 mtturing;
#X obj 117 483 bng 15 250 50 0 empty empty empty 17 7 0 10 #fcfcfc
#000000 #000000;
#X obj 117 503 f, f 14;
#X obj 117 527 outlet;
#X obj 117 459 sel 1;
#X obj 117 435 <;
#X obj 478 316 s \$0-isactive;
#X obj 478 268 inlet;
#X obj 478 292 == \$3;
#X obj 135 387 conditionalr \$2 \$0-isactive;
#X obj 170 267 conditionalr \$1 \$0-isactive;
#X obj 265 315 conditionalr \$1 \$0-isactive;
#X text 82 16 /// WRAPPER FOR TWO TURING MACHINES. ONE DETERMINES PROBABILITY
AND THE OTHER DETERMINES THE ACTUAL SEQUENCE. INITIALIZE WITH \$1 BEING
THE SYMBOL FOR AN [s] FOR THE NORMAL TURING KNOB — IT'LL APPLY TO
BOTH TURING MACHINES — AND \$2 BEING THE SYMBOL FOR AN [s] FOR THE
PROBABILITY CUTOFF BETWEEN 0 AND 1 REQUIRED TO EMIT THE EVENT. \; \;
/// PASS A NUMBER TO SECOND INLET. IF IT MATCHES \$3 \, CHANGES TO
\$1 AND \$2 WILL BE HONORED \; OTHERWISE THEY WILL NOT BE.;
#X obj 170 291 passthrough 0.2;
#X obj 265 339 passthrough 0.2;
#X obj 135 411 passthrough 0.2;
#X connect 0 0 1 0;
#X connect 1 0 2 0;
#X connect 1 1 3 0;
#X connect 2 0 8 0;
#X connect 3 0 5 1;
#X connect 4 0 5 0;
#X connect 5 0 6 0;
#X connect 7 0 4 0;
#X connect 8 0 7 0;
#X connect 10 0 11 0;
#X connect 11 0 9 0;
#X connect 12 0 18 0;
#X connect 13 0 16 0;
#X connect 14 0 17 0;
#X connect 16 0 2 2;
#X connect 17 0 3 2;
#X connect 18 0 8 1;
