#N canvas 102 62 637 611 12;
#X obj 75 11 inlet;
#X obj 40 546 outlet;
#X obj 103 565 hsl 40 15 0 127 0 0 empty empty empty -2 -8 0 10 -262144
-1 -1 0 1;
#X obj 145 565 bng 15 250 50 0 empty empty empty 17 7 0 10 -262144
-1 -1;
#X obj 174 548 outlet;
#X obj 75 198 tabwrite msp-param-\$0;
#X floatatom 329 33 5 0 0 0 - - -;
#X floatatom 75 293 5 0 0 0 - - -;
#X obj 75 316 tabread msp-param-\$0;
#X obj 174 499 == 127;
#X obj 174 523 sel 1;
#X obj 75 35 clip 0 127;
#X obj 378 9 table msp-param-\$0 2048;
#X obj 329 9 r tick;
#X obj 75 127 + 100;
#X obj 75 363 - 100;
#X obj 75 340 t f f, f 8;
#X obj 75 389 spigot, f 8;
#X obj 128 365 != 0;
#X text 118 115 shift. we'll un-shift later.;
#X text 118 128 this is so we can distinguish input of 0 from;
#X text 118 141 unset values in the table \, which are also 0;
#X obj 116 450 spigot;
#X obj 297 288 tgl 15 0 empty empty empty 17 7 0 10 -262144 -1 -1 0
1;
#X obj 219 165 t f b;
#X msg 297 253 0;
#X obj 297 308 == 0;
#X floatatom 155 426 5 0 0 0 - - -;
#X obj 164 11 inlet;
#X obj 75 269 spigot, f 10;
#X text 331 291 if the input is 0 \, read from the table.;
#X text 332 307 otherwise \, honor the input.;
#X obj 145 550 tgl 15 0 empty empty empty 17 7 0 10 -262144 -1 -1 0
1;
#X text 106 548 loop:;
#X obj 173 572 s msp-param-\$0-loop;
#X obj 142 246 r msp-param-\$0-loop;
#X obj 164 34 s msp-param-\$0-loop;
#X obj 75 58 t f f f f f;
#X obj 329 56 t f f;
#X connect 0 0 11 0;
#X connect 6 0 38 0;
#X connect 7 0 8 0;
#X connect 8 0 16 0;
#X connect 9 0 10 0;
#X connect 10 0 3 0;
#X connect 10 0 4 0;
#X connect 11 0 37 0;
#X connect 13 0 6 0;
#X connect 14 0 5 0;
#X connect 15 0 17 0;
#X connect 16 0 15 0;
#X connect 16 1 18 0;
#X connect 17 0 22 0;
#X connect 18 0 17 1;
#X connect 22 0 1 0;
#X connect 22 0 9 0;
#X connect 22 0 2 0;
#X connect 23 0 26 0;
#X connect 24 0 5 1;
#X connect 24 1 25 0;
#X connect 25 0 23 0;
#X connect 26 0 27 0;
#X connect 27 0 22 1;
#X connect 28 0 36 0;
#X connect 29 0 7 0;
#X connect 32 0 34 0;
#X connect 35 0 29 1;
#X connect 37 0 9 0;
#X connect 37 1 2 0;
#X connect 37 2 23 0;
#X connect 37 3 14 0;
#X connect 37 4 1 0;
#X connect 38 0 29 0;
#X connect 38 1 24 0;
#X coords 0 -1 1 1 60 30 2 100 550;
