#N canvas 500 200 242 126 12;
#X obj 80 19 loadbang;
#X obj 80 43 metro 10;
#X obj 80 67 snapshot~;
#X obj 15 16 inlet~;
#X obj 84 92 hsl 80 19 0 1 0 0 empty empty empty -2 -8 0 10 -45076
-262144 -1 0 1;
#X obj 15 67 outlet~;
#X connect 0 0 1 0;
#X connect 1 0 2 0;
#X connect 2 0 4 0;
#X connect 3 0 2 0;
#X connect 3 0 5 0;
#X coords 0 -1 1 1 85 19 2 81 92;
