#N canvas 0 25 120 167 12;
#X obj 18 35 -~ 0.5;
#X obj 18 83 *~ 200;
#X obj 18 107 clip~ -1 1;
#X obj 18 59 *~ 2;
#X obj 18 11 inlet~;
#X obj 18 131 outlet~;
#X connect 0 0 3 0;
#X connect 1 0 2 0;
#X connect 2 0 5 0;
#X connect 3 0 1 0;
#X connect 4 0 0 0;
