#N canvas 104 172 572 437 12;
#X obj 22 84 inlet~;
#X obj 22 398 outlet~;
#X obj 47 129 delwrite~ \$0-phase-1 100;
#X obj 37 159 delwrite~ \$0-phase-2 100;
#X obj 228 197 phasor~;
#X obj 228 241 cos~;
#X obj 228 313 vd~ \$0-phase-1;
#X obj 336 233 +~ 0.5;
#X obj 336 257 wrap~;
#X obj 336 281 cos~;
#X obj 336 353 vd~ \$0-phase-2;
#X obj 228 83 inlet;
#X obj 334 83 inlet;
#X obj 446 83 inlet;
#X obj 228 265 *~;
#X obj 228 289 +~;
#X obj 336 305 *~;
#X obj 336 329 +~;
#X obj 334 155 sig~;
#X obj 228 337 *~;
#X obj 336 377 *~;
#X text 20 58 signal;
#X text 10 2 based on https://guitarextended.wordpress.com/2011/12/28/phaserchorus-effect-with-pure-data/
;
#X text 217 58 \$1 speed;
#X text 326 58 \$2 depth;
#X text 442 59 \$3 feedback;
#X obj 228 131 scaled 0 1 0 5;
#X obj 446 131 scaled 0 1 0 0.9;
#X obj 446 107 deff \$3 0.5;
#X obj 228 107 deff \$1 0.2;
#X obj 334 131 scaled 0 1 0 50;
#X obj 446 155 sig~;
#X obj 334 107 deff \$2 0.1;
#X connect 0 0 1 0;
#X connect 0 0 2 0;
#X connect 0 0 3 0;
#X connect 4 0 5 0;
#X connect 4 0 7 0;
#X connect 5 0 14 0;
#X connect 6 0 19 0;
#X connect 7 0 8 0;
#X connect 8 0 9 0;
#X connect 9 0 16 0;
#X connect 10 0 20 0;
#X connect 11 0 29 0;
#X connect 12 0 32 0;
#X connect 13 0 28 0;
#X connect 14 0 15 0;
#X connect 15 0 6 0;
#X connect 16 0 17 0;
#X connect 17 0 10 0;
#X connect 18 0 14 1;
#X connect 18 0 17 1;
#X connect 18 0 16 1;
#X connect 18 0 15 1;
#X connect 19 0 2 0;
#X connect 19 0 1 0;
#X connect 20 0 3 0;
#X connect 20 0 1 0;
#X connect 26 0 4 0;
#X connect 27 0 31 0;
#X connect 28 0 27 0;
#X connect 29 0 26 0;
#X connect 30 0 18 0;
#X connect 31 0 19 1;
#X connect 31 0 20 1;
#X connect 32 0 30 0;
