#N canvas 868 206 658 397 12;
#X obj 85 72 inlet~;
#X obj 85 339 outlet~;
#X obj 246 339 outlet~;
#X obj 85 197 delonce~ \$1 \$2;
#X obj 246 245 delonce~ \$1 \$2;
#X obj 267 280 s~ \$0-pingpongfeedback;
#X obj 124 153 r~ \$0-pingpongfeedback;
#X text 6 197 left delay;
#X text 162 244 right delay;
#X text 288 152 receive feedback from right;
#X text 430 281 pass back to left;
#X text 82 362 left out;
#X text 241 362 right out;
#X obj 235 71 inlet;
#X obj 370 72 inlet;
#X text 12 8 /// \$1 IS RATE IN MS \; /// \$2 IS ECHO FEEDBACK;
#X text 237 51 rate;
#X text 365 53 feedback;
#X obj 235 119 line;
#X msg 235 95 \$1 500;
#X connect 0 0 3 0;
#X connect 3 0 1 0;
#X connect 3 0 4 0;
#X connect 4 0 5 0;
#X connect 4 0 2 0;
#X connect 6 0 3 0;
#X connect 13 0 19 0;
#X connect 14 0 3 2;
#X connect 14 0 4 2;
#X connect 18 0 3 1;
#X connect 18 0 4 1;
#X connect 19 0 18 0;
