#N canvas 427 148 652 429 12;
#X obj 235 300 sig~;
#X obj 235 209 inlet;
#X obj 235 253 f 1;
#X floatatom 235 277 5 0 0 0 - - -;
#X obj 170 209 loadbang;
#X text 232 174 /// cold: playback rate;
#X text 232 187 /// defaults to 1;
#X obj 235 362 outlet;
#X obj 21 361 outlet~;
#X text 17 383 /// L out;
#N canvas 175 169 933 579 playatrate~ 0;
#X obj 161 201 phasor~, f 30;
#X obj 161 147 sig~;
#X obj 161 311 +~ 1;
#X obj 161 171 *~, f 25;
#X obj 162 60 bng 15 250 50 0 empty empty empty 17 7 0 10 -262144 -1
-1;
#X obj 161 410 *~, f 14;
#X msg 256 360 1;
#X obj 256 383 sig~;
#X obj 465 456 outlet;
#X obj 161 455 outlet~;
#X text 461 476 /// bangs when playback complete (accurate within 5ms)
;
#X obj 465 280 spigot, f 35;
#X msg 644 328 0;
#X obj 465 328 bng 15 250 50 0 empty empty empty 17 7 0 10 -262144
-1 -1;
#X obj 162 80 t b b b b, f 89;
#X msg 707 254 1;
#X msg 584 328 0;
#X obj 207 220 hsl 125 9 0 1 0 0 empty empty empty -2 -8 0 10 -45076
-262144 -1 11379 1;
#X obj 26 151 loadbang;
#X obj 26 198 snapshot~;
#X msg 368 123 0;
#X obj 26 174 metro 20;
#X obj 162 36 inlet;
#N canvas 0 23 646 476 bangwhenwrap~ 0;
#X obj 38 70 snapshot~;
#X obj 92 16 loadbang;
#X obj 92 40 metro 5;
#X obj 47 326 -, f 32;
#X obj 47 350 abs;
#X obj 47 374 > 0.5;
#X obj 47 398 sel 1;
#X obj 47 421 bng 15 250 50 0 empty empty empty 17 7 0 10 -262144 -1
-1;
#X obj 175 235 f, f 4;
#X obj 343 232 f;
#X obj 38 116 isfirst, f 44;
#X obj 343 255 t f f;
#X obj 38 38 inlet~;
#X text 2 161 first: subtract the float from itself.;
#X text 204 133 not first: subtract the float from the previous value
\, and then overwrite the previous value.;
#X obj 38 93 t b f f, f 47;
#X obj 175 259 t f f;
#X text 116 72 first \, cache the snapshot value in two floats.;
#X text 92 371 if we traveled over 0.5 \, assume we wrapped around
the phasor and output a bang.;
#X obj 47 441 outlet;
#X obj 343 37 inlet;
#X text 339 19 /// bang to reset state;
#X connect 0 0 15 0;
#X connect 1 0 2 0;
#X connect 2 0 0 0;
#X connect 3 0 4 0;
#X connect 4 0 5 0;
#X connect 5 0 6 0;
#X connect 6 0 7 0;
#X connect 7 0 19 0;
#X connect 8 0 16 0;
#X connect 9 0 11 0;
#X connect 10 0 8 0;
#X connect 10 1 9 0;
#X connect 11 0 3 1;
#X connect 11 1 3 0;
#X connect 12 0 0 0;
#X connect 15 0 10 0;
#X connect 15 1 8 1;
#X connect 15 2 9 1;
#X connect 16 0 3 0;
#X connect 16 1 3 1;
#X connect 20 0 10 1;
#X restore 465 223 pd bangwhenwrap~;
#X obj 465 247 bng 15 250 50 0 empty empty empty 17 7 0 10 -262144
-1 -1;
#X obj 465 304 t b b b b, f 26;
#X msg 524 328 0;
#X text 4 131 for the percentgraph;
#X text 156 17 /// bang to play clip;
#X text 331 17 /// playback rate;
#X obj 333 36 inlet~;
#X obj 161 123 r \$0-hz;
#X obj 4 273 r \$1-sample-count;
#X obj 127 273 f \$2;
#X obj 76 237 loadbang;
#X obj 161 287 *~;
#X obj 60 313 f;
#X obj 60 337 sig~;
#X obj 256 268 t b, f 20;
#X text 157 477 /// out;
#X obj 161 336 tabread4~ clip-\$1;
#X connect 0 0 19 0;
#X connect 0 0 23 0;
#X connect 0 0 35 0;
#X connect 1 0 3 0;
#X connect 2 0 40 0;
#X connect 3 0 0 0;
#X connect 4 0 14 0;
#X connect 5 0 9 0;
#X connect 6 0 7 0;
#X connect 7 0 5 1;
#X connect 11 0 25 0;
#X connect 12 0 11 1;
#X connect 13 0 8 0;
#X connect 14 0 38 0;
#X connect 14 1 20 0;
#X connect 14 2 23 1;
#X connect 14 3 15 0;
#X connect 15 0 11 1;
#X connect 18 0 21 0;
#X connect 19 0 17 0;
#X connect 20 0 0 1;
#X connect 21 0 19 0;
#X connect 22 0 4 0;
#X connect 23 0 24 0;
#X connect 24 0 11 0;
#X connect 25 0 13 0;
#X connect 25 1 26 0;
#X connect 25 2 16 0;
#X connect 25 3 12 0;
#X connect 26 0 7 0;
#X connect 30 0 3 1;
#X connect 31 0 1 0;
#X connect 32 0 36 0;
#X connect 33 0 36 0;
#X connect 34 0 33 0;
#X connect 35 0 2 0;
#X connect 36 0 37 0;
#X connect 37 0 35 1;
#X connect 38 0 6 0;
#X connect 40 0 5 0;
#X restore 21 324 pd playatrate~;
#X obj 21 206 inlet;
#X text 17 183 /// hot: bang to play clip.;
#X obj 460 14 loadbang;
#X obj 460 61 f \$2;
#X obj 460 85 swap, f 6;
#X obj 460 109 /, f 6;
#X obj 499 61 samplerate~;
#X obj 460 134 s \$0-hz;
#X obj 460 37 t b b, f 6;
#X text 5 10 /// TO USE: (1) initialize with creation args \$1 and
\$2. there needs to be an [audioclip~ \$1 \$2] in this patch. (2) bang
the left outlet to play the clip once \, from start to finish. it plays
at the playback rate specified by the right inlet. 1 represents the
original playback rate \, 2 is double speed \, -0.5 is half-speed and
backwards \, etc. all audio comes out of the first two outlets \, which
are audio-rate \, one for L and one for R. the rightmost outlet bangs
when playback of the sample is complete.;
#X text 231 382 /// bangs when playback complete (accurate within 5ms)
;
#X obj 387 242 r \$1-sample-count;
#X connect 0 0 10 1;
#X connect 1 0 2 0;
#X connect 2 0 3 0;
#X connect 3 0 0 0;
#X connect 4 0 2 0;
#X connect 10 0 8 0;
#X connect 10 1 7 0;
#X connect 11 0 10 0;
#X connect 13 0 19 0;
#X connect 14 0 15 0;
#X connect 15 0 16 0;
#X connect 15 1 16 1;
#X connect 16 0 18 0;
#X connect 17 0 15 1;
#X connect 19 0 14 0;
#X connect 19 1 17 0;
#X connect 22 0 14 0;
