#N canvas -1227 111 515 477 12;
#X obj 33 96 pack 0 0 0;
#X obj 33 42 poly 4 1, f 10;
#X obj 33 140 route 0 1 2 3;
#X obj 33 68 - 1;
#X obj 33 187 synthstring~;
#X obj 130 187 synthstring~;
#X obj 227 187 synthstring~;
#X obj 324 187 synthstring~;
#X obj 33 13 inlet;
#X obj 32 327 outlet~;
#X obj 32 303 *~ 1;
#X text 76 10 accepts messages like "60 64" where 60 is the pitch and
64 is the velocity \, from 0 to 127;
#X obj 100 68 clip 0 127;
#X connect 0 0 2 0;
#X connect 1 0 3 0;
#X connect 1 1 0 1;
#X connect 1 2 12 0;
#X connect 2 0 4 0;
#X connect 2 1 5 0;
#X connect 2 2 6 0;
#X connect 2 3 7 0;
#X connect 3 0 0 0;
#X connect 4 0 10 0;
#X connect 5 0 10 0;
#X connect 6 0 10 0;
#X connect 7 0 10 0;
#X connect 8 0 1 0;
#X connect 10 0 9 0;
#X connect 12 0 0 2;
