#N canvas 997 315 450 323 12;
#X floatatom 79 76 5 0 0 0 - - -;
#X floatatom 188 76 5 0 0 0 - - -;
#X obj 79 167 t f f;
#X obj 79 191 *, f 5;
#X obj 188 167 t f f;
#X obj 188 191 *, f 5;
#X obj 79 143 f;
#X obj 188 143 f;
#X obj 79 215 +, f 16;
#X obj 79 239 sqrt;
#X floatatom 79 263 5 0 0 0 - - -;
#X obj 79 99 t f b;
#X obj 188 99 t b f;
#X obj 79 52 inlet;
#X obj 188 52 inlet;
#X obj 79 286 outlet;
#X text 18 5 /// SOLVES FOR c IN c=sqrt(a^2 + b^2). \; /// BOTH INLETS
ARE HOT.;
#X connect 0 0 11 0;
#X connect 1 0 12 0;
#X connect 2 0 3 0;
#X connect 2 1 3 1;
#X connect 3 0 8 0;
#X connect 4 0 5 0;
#X connect 4 1 5 1;
#X connect 5 0 8 1;
#X connect 6 0 2 0;
#X connect 7 0 4 0;
#X connect 8 0 9 0;
#X connect 9 0 10 0;
#X connect 10 0 15 0;
#X connect 11 0 6 0;
#X connect 11 1 7 0;
#X connect 12 0 6 0;
#X connect 12 1 7 0;
#X connect 13 0 0 0;
#X connect 14 0 1 0;
