#N canvas 419 282 1174 517 12;
#X obj 49 78 inlet;
#X obj 323 182 mode \$1;
#X obj 234 127 loadbang;
#X obj 49 126 t f f;
#X obj 81 150 / 12;
#X floatatom 81 174 5 0 0 0 - - -;
#X obj 81 288 i;
#X obj 81 312 * 12;
#X obj 49 150 % 12;
#X obj 279 290 quantizedinlets, f 71;
#X obj 306 235 + 1;
#X obj 340 232 + 1;
#X obj 371 235 + 1;
#X obj 400 235 + 1;
#X obj 427 237 + 1;
#X obj 463 234 + 1;
#X obj 49 174 + 1;
#X obj 63 417 +;
#X obj 63 471 outlet;
#X obj 252 322 sel 0;
#X obj 284 349 - 1;
#X obj 496 237 + 1;
#X text 106 287 round toward zero;
#X obj 581 83 loadbang;
#X obj 492 111 f \$2;
#X obj 492 135 % 12;
#X obj 49 102 -;
#X obj 492 159 t f f;
#X obj 63 441 +;
#X text 22 3 /// INITIALIZE WITH \$1 BEING A MODE AND \$2 BEING A ROOT
\; /// NOTE IN MIDI. WILL QUANTTIZE THE INLET TO THE CORRECT \; ///
MODE.;
#X text 695 239 hack because [quantizedinlets] doesn't work with values
of 0 (same deal with all other +1 and -1 boxes in this patch);
#X obj 526 237 + 1;
#X obj 557 236 + 1;
#X obj 590 239 + 1;
#X obj 620 239 + 1;
#X obj 323 206 unpack f f f f f f f f f f f f, f 48;
#X obj 650 239 + 1;
#X obj 323 109 inlet;
#X obj 323 158 symbol \$1;
#X obj 492 87 inlet;
#X floatatom 446 394 5 0 0 0 - - -;
#X obj 430 122 bng 15 250 50 0 empty empty empty 17 7 0 10 -262144
-1 -1;
#X connect 0 0 26 0;
#X connect 1 0 35 0;
#X connect 2 0 38 0;
#X connect 3 0 8 0;
#X connect 3 1 4 0;
#X connect 4 0 5 0;
#X connect 5 0 6 0;
#X connect 6 0 7 0;
#X connect 7 0 17 1;
#X connect 8 0 16 0;
#X connect 9 0 19 0;
#X connect 10 0 9 1;
#X connect 11 0 9 2;
#X connect 12 0 9 3;
#X connect 13 0 9 4;
#X connect 14 0 9 5;
#X connect 15 0 9 6;
#X connect 16 0 9 0;
#X connect 17 0 28 0;
#X connect 19 1 20 0;
#X connect 20 0 17 0;
#X connect 20 0 40 0;
#X connect 21 0 9 7;
#X connect 23 0 24 0;
#X connect 24 0 25 0;
#X connect 25 0 27 0;
#X connect 26 0 3 0;
#X connect 27 0 28 1;
#X connect 27 1 26 1;
#X connect 28 0 18 0;
#X connect 31 0 9 8;
#X connect 32 0 9 9;
#X connect 33 0 9 10;
#X connect 34 0 9 11;
#X connect 35 0 10 0;
#X connect 35 1 11 0;
#X connect 35 2 12 0;
#X connect 35 3 13 0;
#X connect 35 4 14 0;
#X connect 35 5 15 0;
#X connect 35 6 21 0;
#X connect 35 7 31 0;
#X connect 35 8 32 0;
#X connect 35 9 33 0;
#X connect 35 10 34 0;
#X connect 35 11 36 0;
#X connect 36 0 9 12;
#X connect 37 0 41 0;
#X connect 37 0 38 0;
#X connect 38 0 1 0;
#X connect 39 0 24 0;
#X connect 41 0 9 17;
