#N canvas 0 23 1280 755 12;
#X obj 18 18 inlet;
#X obj 18 42 t f f f f f f f f f f f f f f f f, f 131;
#X obj 18 150 abs;
#X obj 78 150 abs;
#X obj 139 150 abs;
#X obj 200 150 abs;
#X obj 261 150 abs;
#X obj 322 150 abs;
#X obj 383 150 abs;
#X obj 444 150 abs;
#X obj 505 150 abs;
#X obj 566 150 abs;
#X obj 627 150 abs;
#X obj 688 150 abs;
#X obj 749 150 abs;
#X obj 810 150 abs;
#X obj 871 150 abs;
#X obj 932 150 abs;
#X obj 18 126 -;
#X obj 78 126 -;
#X obj 139 126 -;
#X obj 200 126 -;
#X obj 261 126 -;
#X obj 322 126 -;
#X obj 383 126 -;
#X obj 444 126 -;
#X obj 505 126 -;
#X obj 566 126 -;
#X obj 627 126 -;
#X obj 688 126 -;
#X obj 749 126 -;
#X obj 810 126 -;
#X obj 871 126 -;
#X obj 932 126 -;
#X obj 36 69 deff \$1 1e+09;
#X obj 96 95 deff \$2 1e+09;
#X obj 157 69 deff \$3 1e+09;
#X obj 218 95 deff \$4 1e+09;
#X obj 279 69 deff \$5 1e+09;
#X obj 340 95 deff \$6 1e+09;
#X obj 401 69 deff \$7 1e+09;
#X obj 462 95 deff \$8 1e+09;
#X obj 523 69 deff \$9 1e+09;
#X obj 584 95 deff \$10 1e+09;
#X obj 645 69 deff \$11 1e+09;
#X obj 706 95 deff \$12 1e+09;
#X obj 767 69 deff \$13 1e+09;
#X obj 828 95 deff \$14 1e+09;
#X obj 889 69 deff \$15 1e+09;
#X obj 950 95 deff \$16 1e+09;
#X obj 932 174 t f f;
#X obj 946 664 ==;
#X obj 871 174 t f f;
#X obj 885 664 ==;
#X obj 810 174 t f f;
#X obj 824 664 ==;
#X obj 749 174 t f f;
#X obj 763 664 ==;
#X obj 688 174 t f f;
#X obj 702 664 ==;
#X obj 627 174 t f f;
#X obj 641 664 ==;
#X obj 566 174 t f f;
#X obj 580 664 ==;
#X obj 505 174 t f f;
#X obj 519 664 ==;
#X obj 444 174 t f f;
#X obj 458 664 ==;
#X obj 383 174 t f f;
#X obj 397 664 ==;
#X obj 322 174 t f f;
#X obj 336 664 ==;
#X obj 261 174 t f f;
#X obj 275 664 ==;
#X obj 200 174 t f f;
#X obj 214 664 ==;
#X obj 139 174 t f f;
#X obj 153 664 ==;
#X obj 78 174 t f f;
#X obj 92 664 ==;
#X obj 18 174 t f f;
#X obj 32 664 ==;
#X obj 32 688 sel 1;
#X obj 92 688 sel 1;
#X obj 153 688 sel 1;
#X obj 214 688 sel 1;
#X obj 275 688 sel 1;
#X obj 336 688 sel 1;
#X obj 397 688 sel 1;
#X obj 458 688 sel 1;
#X obj 519 688 sel 1;
#X obj 580 688 sel 1;
#X obj 641 688 sel 1;
#X obj 702 688 sel 1;
#X obj 763 688 sel 1;
#X obj 824 688 sel 1;
#X obj 885 688 sel 1;
#X obj 946 688 sel 1;
#X obj 871 200 min, f 9;
#X obj 810 228 min, f 9;
#X obj 749 258 min, f 9;
#X obj 688 288 min, f 9;
#X obj 627 318 min, f 9;
#X obj 566 348 min, f 9;
#X obj 505 378 min, f 9;
#X obj 444 408 min, f 9;
#X obj 383 438 min, f 9;
#X obj 322 468 min, f 9;
#X obj 261 498 min, f 9;
#X obj 200 528 min, f 9;
#X obj 139 558 min, f 9;
#X obj 78 588 min, f 9;
#X obj 18 618 min, f 9;
#X obj 32 712 f \$1;
#X obj 92 712 f \$2;
#X obj 153 712 f \$3;
#X obj 214 712 f \$4;
#X obj 275 712 f \$5;
#X obj 336 712 f \$6;
#X obj 397 712 f \$7;
#X obj 458 712 f \$8;
#X obj 519 712 f \$9;
#X obj 580 712 f \$10;
#X obj 641 712 f \$11;
#X obj 702 712 f \$12;
#X obj 763 712 f \$13;
#X obj 824 712 f \$14;
#X obj 885 712 f \$15;
#X obj 946 712 f \$16;
#X obj 32 816 outlet;
#X text 82 3 /// SNAPS THE INPUT VALUE TO THE CLOSEST OF \$1 \, \$2
\, ... \, \$16.;
#X text 525 3 /// NOTE: IF YOU WANT ONE OF THE VALUES TO BE 0 \, PASS
IN SOMETHING LIKE 1e-06 INSTEAD;
#X connect 0 0 1 0;
#X connect 1 0 18 0;
#X connect 1 1 19 0;
#X connect 1 2 20 0;
#X connect 1 3 21 0;
#X connect 1 4 22 0;
#X connect 1 5 23 0;
#X connect 1 6 24 0;
#X connect 1 7 25 0;
#X connect 1 8 26 0;
#X connect 1 9 27 0;
#X connect 1 10 28 0;
#X connect 1 11 29 0;
#X connect 1 12 30 0;
#X connect 1 13 31 0;
#X connect 1 14 32 0;
#X connect 1 15 33 0;
#X connect 2 0 80 0;
#X connect 3 0 78 0;
#X connect 4 0 76 0;
#X connect 5 0 74 0;
#X connect 6 0 72 0;
#X connect 7 0 70 0;
#X connect 8 0 68 0;
#X connect 9 0 66 0;
#X connect 10 0 64 0;
#X connect 11 0 62 0;
#X connect 12 0 60 0;
#X connect 13 0 58 0;
#X connect 14 0 56 0;
#X connect 15 0 54 0;
#X connect 16 0 52 0;
#X connect 17 0 50 0;
#X connect 18 0 2 0;
#X connect 19 0 3 0;
#X connect 20 0 4 0;
#X connect 21 0 5 0;
#X connect 22 0 6 0;
#X connect 23 0 7 0;
#X connect 24 0 8 0;
#X connect 25 0 9 0;
#X connect 26 0 10 0;
#X connect 27 0 11 0;
#X connect 28 0 12 0;
#X connect 29 0 13 0;
#X connect 30 0 14 0;
#X connect 31 0 15 0;
#X connect 32 0 16 0;
#X connect 33 0 17 0;
#X connect 34 0 18 1;
#X connect 35 0 19 1;
#X connect 36 0 20 1;
#X connect 37 0 21 1;
#X connect 38 0 22 1;
#X connect 39 0 23 1;
#X connect 40 0 24 1;
#X connect 41 0 25 1;
#X connect 42 0 26 1;
#X connect 43 0 27 1;
#X connect 44 0 28 1;
#X connect 45 0 29 1;
#X connect 46 0 30 1;
#X connect 47 0 31 1;
#X connect 48 0 32 1;
#X connect 49 0 33 1;
#X connect 50 0 98 1;
#X connect 50 1 51 1;
#X connect 51 0 97 0;
#X connect 52 0 98 0;
#X connect 52 1 53 1;
#X connect 53 0 96 0;
#X connect 54 0 99 0;
#X connect 54 1 55 1;
#X connect 55 0 95 0;
#X connect 56 0 100 0;
#X connect 56 1 57 1;
#X connect 57 0 94 0;
#X connect 58 0 101 0;
#X connect 58 1 59 1;
#X connect 59 0 93 0;
#X connect 60 0 102 0;
#X connect 60 1 61 1;
#X connect 61 0 92 0;
#X connect 62 0 103 0;
#X connect 62 1 63 1;
#X connect 63 0 91 0;
#X connect 64 0 104 0;
#X connect 64 1 65 1;
#X connect 65 0 90 0;
#X connect 66 0 105 0;
#X connect 66 1 67 1;
#X connect 67 0 89 0;
#X connect 68 0 106 0;
#X connect 68 1 69 1;
#X connect 69 0 88 0;
#X connect 70 0 107 0;
#X connect 70 1 71 1;
#X connect 71 0 87 0;
#X connect 72 0 108 0;
#X connect 72 1 73 1;
#X connect 73 0 86 0;
#X connect 74 0 109 0;
#X connect 74 1 75 1;
#X connect 75 0 85 0;
#X connect 76 0 110 0;
#X connect 76 1 77 1;
#X connect 77 0 84 0;
#X connect 78 0 111 0;
#X connect 78 1 79 1;
#X connect 79 0 83 0;
#X connect 80 0 112 0;
#X connect 80 1 81 1;
#X connect 81 0 82 0;
#X connect 82 0 113 0;
#X connect 83 0 114 0;
#X connect 84 0 115 0;
#X connect 85 0 116 0;
#X connect 86 0 117 0;
#X connect 87 0 118 0;
#X connect 88 0 119 0;
#X connect 89 0 120 0;
#X connect 90 0 121 0;
#X connect 91 0 122 0;
#X connect 92 0 123 0;
#X connect 93 0 124 0;
#X connect 94 0 125 0;
#X connect 95 0 126 0;
#X connect 96 0 127 0;
#X connect 97 0 128 0;
#X connect 98 0 99 1;
#X connect 99 0 100 1;
#X connect 100 0 101 1;
#X connect 101 0 102 1;
#X connect 102 0 103 1;
#X connect 103 0 104 1;
#X connect 104 0 105 1;
#X connect 105 0 106 1;
#X connect 106 0 107 1;
#X connect 107 0 108 1;
#X connect 108 0 109 1;
#X connect 109 0 110 1;
#X connect 110 0 111 1;
#X connect 111 0 112 1;
#X connect 112 0 81 0;
#X connect 112 0 79 0;
#X connect 112 0 77 0;
#X connect 112 0 75 0;
#X connect 112 0 73 0;
#X connect 112 0 71 0;
#X connect 112 0 69 0;
#X connect 112 0 67 0;
#X connect 112 0 65 0;
#X connect 112 0 63 0;
#X connect 112 0 61 0;
#X connect 112 0 59 0;
#X connect 112 0 57 0;
#X connect 112 0 55 0;
#X connect 112 0 53 0;
#X connect 112 0 51 0;
#X connect 113 0 129 0;
#X connect 114 0 129 0;
#X connect 115 0 129 0;
#X connect 116 0 129 0;
#X connect 117 0 129 0;
#X connect 118 0 129 0;
#X connect 119 0 129 0;
#X connect 120 0 129 0;
#X connect 121 0 129 0;
#X connect 122 0 129 0;
#X connect 123 0 129 0;
#X connect 124 0 129 0;
#X connect 125 0 129 0;
#X connect 126 0 129 0;
#X connect 127 0 129 0;
#X connect 128 0 129 0;
