#N canvas 4 50 1912 860 12;
#X obj 18 18 inlet;
#X obj 71 150 abs;
#X obj 131 150 abs;
#X obj 192 150 abs;
#X obj 253 150 abs;
#X obj 314 150 abs;
#X obj 375 150 abs;
#X obj 436 150 abs;
#X obj 497 150 abs;
#X obj 558 150 abs;
#X obj 619 150 abs;
#X obj 680 150 abs;
#X obj 741 150 abs;
#X obj 802 150 abs;
#X obj 863 150 abs;
#X obj 924 150 abs;
#X obj 985 150 abs;
#X obj 71 126 -;
#X obj 131 126 -;
#X obj 192 126 -;
#X obj 253 126 -;
#X obj 314 126 -;
#X obj 375 126 -;
#X obj 436 126 -;
#X obj 497 126 -;
#X obj 558 126 -;
#X obj 619 126 -;
#X obj 680 126 -;
#X obj 741 126 -;
#X obj 802 126 -;
#X obj 863 126 -;
#X obj 924 126 -;
#X obj 985 126 -;
#X obj 985 174 t f f;
#X obj 999 664 ==;
#X obj 924 174 t f f;
#X obj 938 664 ==;
#X obj 863 174 t f f;
#X obj 877 664 ==;
#X obj 802 174 t f f;
#X obj 816 664 ==;
#X obj 741 174 t f f;
#X obj 755 664 ==;
#X obj 680 174 t f f;
#X obj 694 664 ==;
#X obj 619 174 t f f;
#X obj 633 664 ==;
#X obj 558 174 t f f;
#X obj 572 664 ==;
#X obj 497 174 t f f;
#X obj 511 664 ==;
#X obj 436 174 t f f;
#X obj 450 664 ==;
#X obj 375 174 t f f;
#X obj 389 664 ==;
#X obj 314 174 t f f;
#X obj 328 664 ==;
#X obj 253 174 t f f;
#X obj 267 664 ==;
#X obj 192 174 t f f;
#X obj 206 664 ==;
#X obj 131 174 t f f;
#X obj 145 664 ==;
#X obj 71 174 t f f;
#X obj 85 664 ==;
#X obj 85 688 sel 1;
#X obj 145 688 sel 1;
#X obj 206 688 sel 1;
#X obj 267 688 sel 1;
#X obj 328 688 sel 1;
#X obj 389 688 sel 1;
#X obj 450 688 sel 1;
#X obj 511 688 sel 1;
#X obj 572 688 sel 1;
#X obj 633 688 sel 1;
#X obj 694 688 sel 1;
#X obj 755 688 sel 1;
#X obj 816 688 sel 1;
#X obj 877 688 sel 1;
#X obj 938 688 sel 1;
#X obj 999 688 sel 1;
#X obj 924 200 min, f 9;
#X obj 863 228 min, f 9;
#X obj 802 258 min, f 9;
#X obj 741 288 min, f 9;
#X obj 680 318 min, f 9;
#X obj 619 348 min, f 9;
#X obj 558 378 min, f 9;
#X obj 497 408 min, f 9;
#X obj 436 438 min, f 9;
#X obj 375 468 min, f 9;
#X obj 314 498 min, f 9;
#X obj 253 528 min, f 9;
#X obj 192 558 min, f 9;
#X obj 131 588 min, f 9;
#X obj 71 618 min, f 9;
#X obj 33 797 outlet;
#X obj 1086 45 inlet;
#X obj 1130 45 inlet;
#X obj 1174 45 inlet;
#X obj 1218 45 inlet;
#X obj 1262 45 inlet;
#X obj 1306 45 inlet;
#X obj 1350 45 inlet;
#X obj 1394 45 inlet;
#X obj 1438 45 inlet;
#X obj 1482 45 inlet;
#X obj 1526 45 inlet;
#X obj 1570 45 inlet;
#X obj 1614 45 inlet;
#X obj 1658 45 inlet;
#X obj 1702 45 inlet;
#X obj 1746 45 inlet;
#X obj 85 712 f;
#X obj 145 712 f;
#X obj 206 712 f;
#X obj 267 712 f;
#X obj 328 712 f;
#X obj 389 712 f;
#X obj 450 712 f;
#X obj 511 712 f;
#X obj 572 712 f;
#X obj 633 712 f;
#X obj 694 712 f;
#X obj 755 712 f;
#X obj 816 712 f;
#X obj 877 712 f;
#X obj 938 712 f;
#X obj 999 712 f;
#X text 525 3 /// NOTE: VALUES CANNOT BE 0;
#X text 82 3 /// SNAPS THE FIRST INLET VALUE TO THE CLOSEST OF THE
\; /// OTHER INLETS.;
#X obj 33 773 first, f 150;
#X obj 18 42 t b f f f f f f f f f f f f f f f f b, f 148;
#X obj 1806 46 inlet reset;
#X obj 1806 70 bng 15 250 50 0 empty empty empty 17 7 0 10 -262144
-1 -1;
#X msg 1806 90 0;
#X connect 0 0 132 0;
#X connect 1 0 63 0;
#X connect 2 0 61 0;
#X connect 3 0 59 0;
#X connect 4 0 57 0;
#X connect 5 0 55 0;
#X connect 6 0 53 0;
#X connect 7 0 51 0;
#X connect 8 0 49 0;
#X connect 9 0 47 0;
#X connect 10 0 45 0;
#X connect 11 0 43 0;
#X connect 12 0 41 0;
#X connect 13 0 39 0;
#X connect 14 0 37 0;
#X connect 15 0 35 0;
#X connect 16 0 33 0;
#X connect 17 0 1 0;
#X connect 18 0 2 0;
#X connect 19 0 3 0;
#X connect 20 0 4 0;
#X connect 21 0 5 0;
#X connect 22 0 6 0;
#X connect 23 0 7 0;
#X connect 24 0 8 0;
#X connect 25 0 9 0;
#X connect 26 0 10 0;
#X connect 27 0 11 0;
#X connect 28 0 12 0;
#X connect 29 0 13 0;
#X connect 30 0 14 0;
#X connect 31 0 15 0;
#X connect 32 0 16 0;
#X connect 33 0 81 1;
#X connect 33 1 34 1;
#X connect 34 0 80 0;
#X connect 35 0 81 0;
#X connect 35 1 36 1;
#X connect 36 0 79 0;
#X connect 37 0 82 0;
#X connect 37 1 38 1;
#X connect 38 0 78 0;
#X connect 39 0 83 0;
#X connect 39 1 40 1;
#X connect 40 0 77 0;
#X connect 41 0 84 0;
#X connect 41 1 42 1;
#X connect 42 0 76 0;
#X connect 43 0 85 0;
#X connect 43 1 44 1;
#X connect 44 0 75 0;
#X connect 45 0 86 0;
#X connect 45 1 46 1;
#X connect 46 0 74 0;
#X connect 47 0 87 0;
#X connect 47 1 48 1;
#X connect 48 0 73 0;
#X connect 49 0 88 0;
#X connect 49 1 50 1;
#X connect 50 0 72 0;
#X connect 51 0 89 0;
#X connect 51 1 52 1;
#X connect 52 0 71 0;
#X connect 53 0 90 0;
#X connect 53 1 54 1;
#X connect 54 0 70 0;
#X connect 55 0 91 0;
#X connect 55 1 56 1;
#X connect 56 0 69 0;
#X connect 57 0 92 0;
#X connect 57 1 58 1;
#X connect 58 0 68 0;
#X connect 59 0 93 0;
#X connect 59 1 60 1;
#X connect 60 0 67 0;
#X connect 61 0 94 0;
#X connect 61 1 62 1;
#X connect 62 0 66 0;
#X connect 63 0 95 0;
#X connect 63 1 64 1;
#X connect 64 0 65 0;
#X connect 65 0 113 0;
#X connect 66 0 114 0;
#X connect 67 0 115 0;
#X connect 68 0 116 0;
#X connect 69 0 117 0;
#X connect 70 0 118 0;
#X connect 71 0 119 0;
#X connect 72 0 120 0;
#X connect 73 0 121 0;
#X connect 74 0 122 0;
#X connect 75 0 123 0;
#X connect 76 0 124 0;
#X connect 77 0 125 0;
#X connect 78 0 126 0;
#X connect 79 0 127 0;
#X connect 80 0 128 0;
#X connect 81 0 82 1;
#X connect 82 0 83 1;
#X connect 83 0 84 1;
#X connect 84 0 85 1;
#X connect 85 0 86 1;
#X connect 86 0 87 1;
#X connect 87 0 88 1;
#X connect 88 0 89 1;
#X connect 89 0 90 1;
#X connect 90 0 91 1;
#X connect 91 0 92 1;
#X connect 92 0 93 1;
#X connect 93 0 94 1;
#X connect 94 0 95 1;
#X connect 95 0 64 0;
#X connect 95 0 62 0;
#X connect 95 0 60 0;
#X connect 95 0 58 0;
#X connect 95 0 56 0;
#X connect 95 0 54 0;
#X connect 95 0 52 0;
#X connect 95 0 50 0;
#X connect 95 0 48 0;
#X connect 95 0 46 0;
#X connect 95 0 44 0;
#X connect 95 0 42 0;
#X connect 95 0 40 0;
#X connect 95 0 38 0;
#X connect 95 0 36 0;
#X connect 95 0 34 0;
#X connect 97 0 113 1;
#X connect 97 0 17 1;
#X connect 98 0 18 1;
#X connect 98 0 114 1;
#X connect 99 0 19 1;
#X connect 99 0 115 1;
#X connect 100 0 20 1;
#X connect 100 0 116 1;
#X connect 101 0 21 1;
#X connect 101 0 117 1;
#X connect 102 0 22 1;
#X connect 102 0 118 1;
#X connect 103 0 23 1;
#X connect 103 0 119 1;
#X connect 104 0 24 1;
#X connect 104 0 120 1;
#X connect 105 0 25 1;
#X connect 105 0 121 1;
#X connect 106 0 26 1;
#X connect 106 0 122 1;
#X connect 107 0 27 1;
#X connect 107 0 123 1;
#X connect 108 0 28 1;
#X connect 108 0 124 1;
#X connect 109 0 29 1;
#X connect 109 0 125 1;
#X connect 110 0 30 1;
#X connect 110 0 126 1;
#X connect 111 0 31 1;
#X connect 111 0 127 1;
#X connect 112 0 32 1;
#X connect 112 0 128 1;
#X connect 113 0 131 1;
#X connect 114 0 131 1;
#X connect 115 0 131 1;
#X connect 116 0 131 1;
#X connect 117 0 131 1;
#X connect 118 0 131 1;
#X connect 119 0 131 1;
#X connect 120 0 131 1;
#X connect 121 0 131 1;
#X connect 122 0 131 1;
#X connect 123 0 131 1;
#X connect 124 0 131 1;
#X connect 125 0 131 1;
#X connect 126 0 131 1;
#X connect 127 0 131 1;
#X connect 128 0 131 1;
#X connect 131 0 96 0;
#X connect 132 0 131 0;
#X connect 132 1 17 0;
#X connect 132 2 18 0;
#X connect 132 3 19 0;
#X connect 132 4 20 0;
#X connect 132 5 21 0;
#X connect 132 6 22 0;
#X connect 132 7 23 0;
#X connect 132 8 24 0;
#X connect 132 9 25 0;
#X connect 132 10 26 0;
#X connect 132 11 27 0;
#X connect 132 12 28 0;
#X connect 132 13 29 0;
#X connect 132 14 30 0;
#X connect 132 15 31 0;
#X connect 132 16 32 0;
#X connect 132 17 131 2;
#X connect 133 0 134 0;
#X connect 134 0 135 0;
#X connect 135 0 128 0;
#X connect 135 0 127 0;
#X connect 135 0 126 0;
#X connect 135 0 125 0;
#X connect 135 0 124 0;
#X connect 135 0 123 0;
#X connect 135 0 122 0;
#X connect 135 0 121 0;
#X connect 135 0 120 0;
#X connect 135 0 119 0;
#X connect 135 0 118 0;
#X connect 135 0 117 0;
#X connect 135 0 116 0;
#X connect 135 0 115 0;
#X connect 135 0 114 0;
#X connect 135 0 113 0;
