#N canvas 121 159 196 182 12;
#X obj 50 37 inlet;
#X obj 50 109 line~;
#X obj 50 133 outlet~;
#X obj 50 85 pack f f;
#X obj 103 61 deff \$1 10;
#X obj 103 37 inlet;
#X connect 0 0 3 0;
#X connect 1 0 2 0;
#X connect 3 0 1 0;
#X connect 4 0 3 1;
#X connect 5 0 4 0;
