#N canvas 92 130 450 300 12;
#X obj 50 37 inlet;
#X obj 50 85 pack f f;
#X obj 103 61 deff \$1 10;
#X obj 103 37 inlet;
#X obj 50 109 line;
#X obj 50 133 outlet;
#X connect 0 0 1 0;
#X connect 1 0 4 0;
#X connect 2 0 1 1;
#X connect 3 0 2 0;
#X connect 4 0 5 0;
