#N canvas 816 246 450 652 12;
#X obj 51 48 inlet;
#X obj 51 116 bng 15 250 50 0 empty empty empty 17 7 0 10 #fcfcfc #000000
#000000;
#X obj 51 156 t b b, f 22;
#X obj 51 180 random 1000;
#X obj 202 180 random 1000;
#X obj 51 204 / 1000;
#X obj 202 204 / 1000;
#X obj 162 276 bng 15 250 50 0 empty empty empty 17 7 0 10 #fcfcfc
#000000 #000000;
#X obj 51 308 f;
#X obj 202 228 t b f;
#X obj 51 332 t f b;
#X obj 50 411 pack f f;
#X obj 147 598 outlet;
#X obj 83 381 t f f;
#X obj 311 474 del;
#X obj 311 498 bng 15 250 50 0 empty empty empty 17 7 0 10 #fcfcfc
#000000 #000000;
#X obj 311 518 outlet;
#X obj 83 357 randrange \$1 \$2;
#X obj 217 473 line;
#X obj 162 252 del \$1;
#X obj 237 261 pack;
#X obj 328 201 loadbang;
#X obj 328 225 f \$1;
#X text 24 18 /// LERPS BETWEEN TWO RANDOM VALUES BETWEEN 0 AND 1 \;
/// IN A RANDOM DURATION BETEEN \$1 MS AND \$2 MS.;
#X obj 51 72 isfirst;
#X obj 97 97 bng 15 250 50 0 empty empty empty 17 7 0 10 #fcfcfc #000000
#000000;
#X obj 101 116 t b b;
#X floatatom 263 226 5 0 0 0 - - - 0;
#X floatatom 94 228 5 0 0 0 - - - 0;
#X obj 100 548 msphsl 0 1;
#X connect 0 0 24 0;
#X connect 1 0 2 0;
#X connect 2 0 3 0;
#X connect 2 1 4 0;
#X connect 3 0 5 0;
#X connect 4 0 6 0;
#X connect 5 0 8 1;
#X connect 5 0 28 0;
#X connect 6 0 9 0;
#X connect 6 0 27 0;
#X connect 7 0 8 0;
#X connect 8 0 10 0;
#X connect 9 0 19 0;
#X connect 9 1 20 0;
#X connect 10 0 11 0;
#X connect 10 1 17 0;
#X connect 11 0 18 0;
#X connect 13 0 11 1;
#X connect 13 1 14 0;
#X connect 14 0 15 0;
#X connect 15 0 16 0;
#X connect 17 0 13 0;
#X connect 18 0 29 0;
#X connect 19 0 7 0;
#X connect 20 0 18 0;
#X connect 21 0 22 0;
#X connect 22 0 20 1;
#X connect 24 0 1 0;
#X connect 24 1 25 0;
#X connect 25 0 26 0;
#X connect 26 0 8 0;
#X connect 26 1 3 0;
#X connect 29 0 12 0;
#X coords 0 -1 1 1 116 36 1 100 530;
