#N canvas 0 23 1280 755 12;
#X text 22 9 /// RETURNS A RANDOM VALUE FROM \$1 \, \$2 \, \$3 \, ...
\, \$16.;
#X obj 76 114 inlet;
#X obj 76 138 bng 15 250 50 0 empty empty empty 17 7 0 10 -262144 -1
-1;
#X obj 76 158 random, f 7;
#X obj 76 182 sel 0 1 2 3 4 5 6 7 8 9 10 11 12 13 14 15, f 103;
#X obj 76 206 f \$1;
#X obj 120 206 f \$2;
#X obj 165 206 f \$3;
#X obj 210 206 f \$4;
#X obj 255 206 f \$5;
#X obj 300 206 f \$6;
#X obj 345 206 f \$7;
#X obj 390 206 f \$8;
#X obj 435 206 f \$9;
#X obj 479 206 f \$10;
#X obj 524 206 f \$11;
#X obj 569 206 f \$12;
#X obj 614 206 f \$13;
#X obj 659 206 f \$14;
#X obj 704 206 f \$15;
#X obj 749 206 f \$16;
#X obj 396 390 outlet;
#X floatatom 188 141 5 0 0 0 - - -;
#N canvas 0 23 1280 755 determinenumberofcreationargs 0;
#X obj 3 197 deff \$1 1e+08;
#X obj 82 225 deff \$2 1e+08;
#X obj 161 199 deff \$3 1e+08;
#X obj 240 228 deff \$4 1e+08;
#X obj 319 200 deff \$5 1e+08;
#X obj 398 226 deff \$6 1e+08;
#X obj 477 198 deff \$7 1e+08;
#X obj 556 228 deff \$8 1e+08;
#X obj 635 199 deff \$9 1e+08;
#X obj 714 228 deff \$10 1e+08;
#X obj 793 197 deff \$11 1e+08;
#X obj 872 227 deff \$12 1e+08;
#X obj 951 197 deff \$13 1e+08;
#X obj 1030 232 deff \$14 1e+08;
#X obj 1109 197 deff \$15 1e+08;
#X obj 1174 230 deff \$16 1e+08;
#X obj 3 34 loadbang;
#X obj 3 268 == 1e+08;
#X obj 3 122 until;
#X obj 3 146 counter 16;
#X msg 3 98 16;
#X obj 3 170 sel 0 1 2 3 4 5 6 7 8 9 10 11 12 13 14 15, f 181;
#X obj 3 292 sel 0;
#X msg 3 316 1;
#X obj 591 577 f;
#X obj 3 58 t b b;
#X obj 82 268 == 1e+08;
#X obj 82 292 sel 0;
#X obj 162 268 == 1e+08;
#X obj 162 292 sel 0;
#X obj 240 268 == 1e+08;
#X obj 240 292 sel 0;
#X obj 319 268 == 1e+08;
#X obj 319 292 sel 0;
#X obj 398 268 == 1e+08;
#X obj 398 292 sel 0;
#X obj 477 268 == 1e+08;
#X obj 477 292 sel 0;
#X obj 556 268 == 1e+08;
#X obj 556 292 sel 0;
#X obj 635 268 == 1e+08;
#X obj 635 292 sel 0;
#X obj 714 268 == 1e+08;
#X obj 714 292 sel 0;
#X obj 793 268 == 1e+08;
#X obj 793 292 sel 0;
#X obj 872 268 == 1e+08;
#X obj 872 292 sel 0;
#X obj 951 268 == 1e+08;
#X obj 951 292 sel 0;
#X obj 1030 268 == 1e+08;
#X obj 1030 292 sel 0;
#X obj 1109 268 == 1e+08;
#X obj 1109 292 sel 0;
#X obj 1194 268 == 1e+08;
#X obj 1194 292 sel 0;
#X msg 82 316 2;
#X msg 162 316 3;
#X msg 240 316 4;
#X msg 319 316 5;
#X msg 398 316 6;
#X msg 477 316 7;
#X msg 556 316 8;
#X msg 635 316 9;
#X msg 714 316 10;
#X msg 793 316 11;
#X msg 872 316 12;
#X msg 951 316 13;
#X msg 1030 316 14;
#X msg 1109 316 15;
#X msg 1194 316 16;
#X obj 591 601 outlet;
#X connect 0 0 17 0;
#X connect 1 0 26 0;
#X connect 2 0 28 0;
#X connect 3 0 30 0;
#X connect 4 0 32 0;
#X connect 5 0 34 0;
#X connect 6 0 36 0;
#X connect 7 0 38 0;
#X connect 8 0 40 0;
#X connect 9 0 42 0;
#X connect 10 0 44 0;
#X connect 11 0 46 0;
#X connect 12 0 48 0;
#X connect 13 0 50 0;
#X connect 14 0 52 0;
#X connect 15 0 54 0;
#X connect 16 0 25 0;
#X connect 17 0 22 0;
#X connect 18 0 19 0;
#X connect 19 0 21 0;
#X connect 20 0 18 0;
#X connect 21 0 0 0;
#X connect 21 1 1 0;
#X connect 21 2 2 0;
#X connect 21 3 3 0;
#X connect 21 4 4 0;
#X connect 21 5 5 0;
#X connect 21 6 6 0;
#X connect 21 7 7 0;
#X connect 21 8 8 0;
#X connect 21 9 9 0;
#X connect 21 10 10 0;
#X connect 21 11 11 0;
#X connect 21 12 12 0;
#X connect 21 13 13 0;
#X connect 21 14 14 0;
#X connect 21 15 15 0;
#X connect 22 0 23 0;
#X connect 23 0 24 1;
#X connect 24 0 71 0;
#X connect 25 0 24 0;
#X connect 25 1 20 0;
#X connect 26 0 27 0;
#X connect 27 0 56 0;
#X connect 28 0 29 0;
#X connect 29 0 57 0;
#X connect 30 0 31 0;
#X connect 31 0 58 0;
#X connect 32 0 33 0;
#X connect 33 0 59 0;
#X connect 34 0 35 0;
#X connect 35 0 60 0;
#X connect 36 0 37 0;
#X connect 37 0 61 0;
#X connect 38 0 39 0;
#X connect 39 0 62 0;
#X connect 40 0 41 0;
#X connect 41 0 63 0;
#X connect 42 0 43 0;
#X connect 43 0 64 0;
#X connect 44 0 45 0;
#X connect 45 0 65 0;
#X connect 46 0 47 0;
#X connect 47 0 66 0;
#X connect 48 0 49 0;
#X connect 49 0 67 0;
#X connect 50 0 51 0;
#X connect 51 0 68 0;
#X connect 52 0 53 0;
#X connect 53 0 69 0;
#X connect 54 0 55 0;
#X connect 55 0 70 0;
#X connect 56 0 24 1;
#X connect 57 0 24 1;
#X connect 58 0 24 1;
#X connect 59 0 24 1;
#X connect 60 0 24 1;
#X connect 61 0 24 1;
#X connect 62 0 24 1;
#X connect 63 0 24 1;
#X connect 64 0 24 1;
#X connect 65 0 24 1;
#X connect 66 0 24 1;
#X connect 67 0 24 1;
#X connect 68 0 24 1;
#X connect 69 0 24 1;
#X connect 70 0 24 1;
#X restore 122 114 pd determinenumberofcreationargs;
#X connect 1 0 2 0;
#X connect 2 0 3 0;
#X connect 3 0 4 0;
#X connect 4 0 5 0;
#X connect 4 1 6 0;
#X connect 4 2 7 0;
#X connect 4 3 8 0;
#X connect 4 4 9 0;
#X connect 4 5 10 0;
#X connect 4 6 11 0;
#X connect 4 7 12 0;
#X connect 4 8 13 0;
#X connect 4 9 14 0;
#X connect 4 10 15 0;
#X connect 4 11 16 0;
#X connect 4 12 17 0;
#X connect 4 13 18 0;
#X connect 4 14 19 0;
#X connect 4 15 20 0;
#X connect 5 0 21 0;
#X connect 6 0 21 0;
#X connect 7 0 21 0;
#X connect 8 0 21 0;
#X connect 9 0 21 0;
#X connect 10 0 21 0;
#X connect 11 0 21 0;
#X connect 12 0 21 0;
#X connect 13 0 21 0;
#X connect 14 0 21 0;
#X connect 15 0 21 0;
#X connect 16 0 21 0;
#X connect 17 0 21 0;
#X connect 18 0 21 0;
#X connect 19 0 21 0;
#X connect 20 0 21 0;
#X connect 23 0 3 1;
#X connect 23 0 22 0;
