#N canvas 325 124 561 300 12;
#X obj 151 126 inlet;
#X obj 151 150 bng 15 250 50 0 empty empty empty 17 7 0 10 #fcfcfc
#000000 #000000;
#X obj 151 170 t b b, f 15;
#X obj 151 194 random 1000;
#X obj 151 218 / 1000;
#X obj 151 242 outlet;
#X obj 320 126 inlet;
#X obj 376 126 inlet;
#X obj 253 194 counter \$1;
#X obj 253 218 sel 0;
#X obj 253 242 f, f 18;
#X msg 253 266 seed \$1;
#X floatatom 376 150 5 0 0 0 - - - 0;
#X floatatom 320 150 5 0 0 0 - - - 0;
#X text 84 7 /// BANG LEFTMOST INLET TO EMIT THE NEXT ITEM IN A RANDOM
\; /// LOOPING SEQUENCE. LOOP LENGTH IS DETERMINED BY \$1 \, OR \;
/// CAN CHANGE VIA SECOND INLET. THIRD INLET SELECTS THE \; /// SEQUENCE
(THE RANDOM SEED) \, SO PASS FLOATS THERE TO \; /// SWITCH TO A DIFFERENT
SEQUENCE. EMITTED VALUES ARE IN \; /// THE RANGE 0...1. UNSURE IF THE
[seed \$1( USAGE WORKS \; /// WITH HVCC.;
#X connect 0 0 1 0;
#X connect 1 0 2 0;
#X connect 2 0 3 0;
#X connect 2 1 8 0;
#X connect 3 0 4 0;
#X connect 4 0 5 0;
#X connect 6 0 13 0;
#X connect 7 0 12 0;
#X connect 8 0 9 0;
#X connect 9 0 10 0;
#X connect 10 0 11 0;
#X connect 11 0 3 0;
#X connect 12 0 10 1;
#X connect 13 0 8 2;
