#N canvas 0 23 956 275 12;
#X obj 27 80 inlet;
#X obj 27 104 bng 15 250 50 0 empty empty empty 17 7 0 10 -262144 -1
-1;
#X obj 27 124 t b b b b b b, f 104;
#X obj 752 226 bng 15 250 50 0 empty empty empty 17 7 0 10 -262144
-1 -1;
#X obj 752 246 outlet;
#X obj 27 202 ahdsr~, f 104;
#X obj 27 251 outlet~;
#X obj 27 226 percentgraph~;
#X obj 172 148 random 10000;
#X obj 317 148 random 10000;
#X obj 462 148 random 10000;
#X obj 607 148 random 10000;
#X obj 752 148 random 10000;
#X obj 172 172 scaled 0 10000 \$1 \$2;
#X obj 317 172 scaled 0 10000 \$1 \$2;
#X obj 462 172 scaled 0 10000 \$1 \$2;
#X obj 607 172 scaled 0 10000 \$1 \$2;
#X obj 752 172 scaled 0 10000 \$1 \$2;
#X text 35 13 /// LEFT OUTLET RETURNS THE OUTPUT OF AN [ahdsr~] WITH
RANDOMIZED INPUTS \, WHERE EACH INPUT IS BETWEEN \$1ms AND \$2ms LONG.
RIGHT OUTLET BANGS WHEN COMPLETE.;
#X connect 0 0 1 0;
#X connect 1 0 2 0;
#X connect 2 0 5 0;
#X connect 2 1 8 0;
#X connect 2 2 9 0;
#X connect 2 3 10 0;
#X connect 2 4 11 0;
#X connect 2 5 12 0;
#X connect 3 0 4 0;
#X connect 5 0 7 0;
#X connect 5 1 3 0;
#X connect 7 0 6 0;
#X connect 8 0 13 0;
#X connect 9 0 14 0;
#X connect 10 0 15 0;
#X connect 11 0 16 0;
#X connect 12 0 17 0;
#X connect 13 0 5 1;
#X connect 14 0 5 2;
#X connect 15 0 5 3;
#X connect 16 0 5 4;
#X connect 17 0 5 5;
