#N canvas 713 221 618 380 12;
#X obj 39 122 t b b b b, f 41;
#X obj 539 105 metro 10;
#X obj 539 129 bng 15 250 50 0 empty empty empty 17 7 0 10 -262144
-1 -1;
#X obj 539 149 f;
#X obj 568 149 + 10;
#X obj 305 191 ==;
#X obj 210 191 ==;
#X obj 115 191 ==;
#X obj 21 191 ==;
#X obj 21 215 sel 1;
#X obj 115 215 sel 1;
#X obj 210 215 sel 1;
#X obj 305 215 sel 1;
#X obj 539 62 loadbang;
#X obj 539 86 tgl 15 0 empty empty empty 17 7 0 10 -262144 -1 -1 1
1;
#X obj 21 239 bng 15 250 50 0 empty empty empty 17 7 0 10 -262144 -1
-1;
#X obj 115 239 bng 15 250 50 0 empty empty empty 17 7 0 10 -262144
-1 -1;
#X obj 210 239 bng 15 250 50 0 empty empty empty 17 7 0 10 -262144
-1 -1;
#X obj 305 239 bng 15 250 50 0 empty empty empty 17 7 0 10 -262144
-1 -1;
#X floatatom 330 192 5 0 0 0 - - -;
#X floatatom 235 192 5 0 0 0 - - -;
#X floatatom 140 192 5 0 0 0 - - -;
#X floatatom 46 192 5 0 0 0 - - -;
#X floatatom 539 196 5 0 0 0 - - -;
#X obj 39 169 * 10;
#X obj 133 169 * 10;
#X obj 228 169 * 10;
#X obj 323 169 * 10;
#X obj 39 103 bng 15 250 50 0 empty empty empty 17 7 0 10 -262144 -1
-1;
#X obj 151 339 outlet;
#X obj 539 172 % \$1;
#X obj 413 102 f \$1;
#X obj 413 126 / 10;
#X obj 39 145 random;
#X obj 133 145 random;
#X obj 228 145 random;
#X obj 323 145 random;
#X obj 39 80 t b b, f 54;
#X obj 101 38 inlet;
#X obj 39 61 bng 15 250 50 0 empty empty empty 17 7 0 10 -262144 -1
-1;
#X obj 39 38 loadbang;
#X obj 442 22 inlet;
#X obj 442 46 t b b f;
#X obj 465 105 t b b;
#X msg 465 129 1;
#X msg 497 129 0;
#X connect 0 0 33 0;
#X connect 0 1 34 0;
#X connect 0 2 35 0;
#X connect 0 3 36 0;
#X connect 1 0 2 0;
#X connect 2 0 3 0;
#X connect 3 0 4 0;
#X connect 3 0 30 0;
#X connect 4 0 3 1;
#X connect 5 0 12 0;
#X connect 6 0 11 0;
#X connect 7 0 10 0;
#X connect 8 0 9 0;
#X connect 9 0 15 0;
#X connect 10 0 16 0;
#X connect 11 0 17 0;
#X connect 12 0 18 0;
#X connect 13 0 14 0;
#X connect 14 0 1 0;
#X connect 15 0 29 0;
#X connect 16 0 29 0;
#X connect 17 0 29 0;
#X connect 18 0 29 0;
#X connect 24 0 8 1;
#X connect 24 0 22 0;
#X connect 25 0 7 1;
#X connect 25 0 21 0;
#X connect 26 0 6 1;
#X connect 26 0 20 0;
#X connect 27 0 5 1;
#X connect 27 0 19 0;
#X connect 28 0 0 0;
#X connect 30 0 5 0;
#X connect 30 0 6 0;
#X connect 30 0 7 0;
#X connect 30 0 8 0;
#X connect 30 0 23 0;
#X connect 31 0 32 0;
#X connect 32 0 33 1;
#X connect 32 0 34 1;
#X connect 32 0 35 1;
#X connect 32 0 36 1;
#X connect 33 0 24 0;
#X connect 34 0 25 0;
#X connect 35 0 26 0;
#X connect 36 0 27 0;
#X connect 37 0 28 0;
#X connect 37 1 31 0;
#X connect 38 0 39 0;
#X connect 39 0 37 0;
#X connect 40 0 39 0;
#X connect 41 0 42 0;
#X connect 42 0 43 0;
#X connect 42 1 31 0;
#X connect 42 1 39 0;
#X connect 42 2 30 1;
#X connect 43 0 44 0;
#X connect 43 1 45 0;
#X connect 44 0 14 0;
#X connect 45 0 14 0;
