#N canvas 150 188 776 641 12;
#X obj 169 439 f, f 5;
#X obj 169 415 t b f, f 8;
#X obj 169 487 pack f f;
#X obj 137 319 t f f;
#X obj 169 343 spigot;
#X obj 169 367 t b f;
#X obj 208 207 tgl 15 0 empty empty empty 17 7 0 10 #fcfcfc #000000
#000000 0 1;
#X obj 151 559 outlet;
#X obj 137 181 inlet;
#X obj 208 181 inlet;
#X obj 264 188 loadbang;
#X obj 137 245 - 1;
#X obj 151 535 16steprecallable, f 47;
#X obj 477 193 inlet;
#X text 468 26 /// FINAL INLET ACCEPTS MESSAGES OF THE FORM "save 3"
\; /// OR "recall 5" \, WITH NUMBERS RANGING FROM 1-8 \, \; /// INCLUSIVE.
USE THESE TO SAVE AND RECALL PATTERNS.;
#X obj 169 511 route 0 1 2 3 4 5 6 7 8 9 10 11 12 13 14 15;
#X obj 169 463 % 16;
#X text 7 17 /// PASS OUTPUT OF [metronome] TO FIRST INLET TO OUTPUT
\; /// RANDOM VALUES BETWEEN 0 AND 1 \; /// PASS A 0 TO SECOND INLET
TO LOCK PREVIOUS 16 STEPS \; /// INTO PLACE \, SO THE OUTPUT LOOPS
THE PREVIOUS 16 VALUES. \; /// PASS A 1 TO SECOND INLET TO RESUME GENERATING
RANDOM \; /// VALUES. \;;
#X text 3 230 because 16step is \; 0-based but \; [metronome] is \;
1-based.;
#X obj 360 337 randrange 0 1000;
#X obj 360 361 / 1000;
#X connect 0 0 16 0;
#X connect 1 0 0 0;
#X connect 1 1 2 1;
#X connect 2 0 15 0;
#X connect 3 0 12 0;
#X connect 3 1 4 0;
#X connect 4 0 5 0;
#X connect 5 0 19 0;
#X connect 5 1 0 1;
#X connect 6 0 4 1;
#X connect 8 0 11 0;
#X connect 9 0 6 0;
#X connect 10 0 6 0;
#X connect 11 0 3 0;
#X connect 12 0 7 0;
#X connect 13 0 12 17;
#X connect 15 0 12 1;
#X connect 15 1 12 2;
#X connect 15 2 12 3;
#X connect 15 3 12 4;
#X connect 15 4 12 5;
#X connect 15 5 12 6;
#X connect 15 6 12 7;
#X connect 15 7 12 8;
#X connect 15 8 12 9;
#X connect 15 9 12 10;
#X connect 15 10 12 11;
#X connect 15 11 12 12;
#X connect 15 12 12 13;
#X connect 15 13 12 14;
#X connect 15 14 12 15;
#X connect 15 15 12 16;
#X connect 16 0 2 0;
#X connect 19 0 20 0;
#X connect 20 0 1 0;
