#N canvas 0 23 450 446 12;
#X text 13 17 /// ALLOWS THE INLET THROUGH ONCE EVERY \$1 ms. MESSAGES
THAT DON'T MAKE IT THROUGH ARE DROPPED \; THEY ARE NOT QUEUED.;
#X obj 124 109 inlet;
#X text 20 86 message;
#X text 110 87 delay between messages in ms;
#X obj 25 109 inlet~;
#X obj 25 353 *~;
#X obj 25 377 outlet~;
#X obj 124 177 metro \$1;
#X obj 59 133 loadbang;
#X obj 124 201 t b b, f 7;
#X msg 170 226 1 5;
#X obj 170 290 line;
#X obj 170 314 sig~;
#X obj 124 225 del 5;
#X msg 124 249 0 5;
#X obj 124 133 t b f, f 8;
#X connect 1 0 15 0;
#X connect 4 0 5 0;
#X connect 5 0 6 0;
#X connect 7 0 9 0;
#X connect 8 0 7 0;
#X connect 9 0 13 0;
#X connect 9 1 10 0;
#X connect 10 0 11 0;
#X connect 11 0 12 0;
#X connect 12 0 5 1;
#X connect 13 0 14 0;
#X connect 14 0 11 0;
#X connect 15 0 7 0;
#X connect 15 1 7 1;
