#N canvas 109 388 1221 342 12;
#X obj 121 53 route feedback dry-gain wet-gain highcut lowcut crossfreq
damp predelay_ms, f 150;
#X obj 121 26 inlet;
#X obj 121 77 scaled 0 1 0 100;
#X obj 251 77 scaled 0 1 0 100;
#X obj 382 77 scaled 0 1 0 100;
#X obj 121 101 s \$0-feedback;
#X obj 251 101 s \$0-dry-gain;
#X obj 382 101 s \$0-wet-gain;
#X obj 513 77 s \$0-highcut;
#X obj 644 77 s \$0-lowcut;
#X obj 775 77 s \$0-crossfreq;
#X obj 906 77 scaled 0 1 0 100;
#X obj 906 101 s \$0-damp;
#X obj 1037 77 s \$0-predelay_ms;
#X obj 177 178 r \$0-feedback;
#X obj 272 178 r \$0-dry-gain;
#X obj 367 178 r \$0-wet-gain;
#X obj 462 178 r \$0-highcut;
#X obj 550 178 r \$0-lowcut;
#X obj 631 178 r \$0-crossfreq;
#X obj 733 178 r \$0-damp;
#X obj 800 178 r \$0-predelay_ms;
#X obj 25 26 inlet~;
#X obj 171 291 outlet~;
#X obj 231 291 outlet~;
#X obj 1015 149 print INVALID_PARAMETER;
#X msg 177 202 feedback \$1;
#X msg 272 202 dry-gain \$1;
#X msg 367 202 wet-gain \$1;
#X msg 550 202 lowcut \$1;
#X msg 462 202 highcut \$1;
#X msg 631 202 crossfreq \$1;
#X msg 733 202 damp \$1;
#X msg 800 202 predelay_ms \$1;
#X obj 171 267 heavylib/hv.reverb;
#X connect 0 0 2 0;
#X connect 0 1 3 0;
#X connect 0 2 4 0;
#X connect 0 3 8 0;
#X connect 0 4 9 0;
#X connect 0 5 10 0;
#X connect 0 6 11 0;
#X connect 0 7 13 0;
#X connect 0 8 25 0;
#X connect 1 0 0 0;
#X connect 2 0 5 0;
#X connect 3 0 6 0;
#X connect 4 0 7 0;
#X connect 11 0 12 0;
#X connect 14 0 26 0;
#X connect 15 0 27 0;
#X connect 16 0 28 0;
#X connect 17 0 30 0;
#X connect 18 0 29 0;
#X connect 19 0 31 0;
#X connect 20 0 32 0;
#X connect 21 0 33 0;
#X connect 22 0 34 0;
#X connect 26 0 34 1;
#X connect 27 0 34 1;
#X connect 28 0 34 1;
#X connect 29 0 34 1;
#X connect 30 0 34 1;
#X connect 31 0 34 1;
#X connect 32 0 34 1;
#X connect 33 0 34 1;
#X connect 34 0 23 0;
#X connect 34 1 24 0;
