#N canvas 150 188 1085 300 12;
#X obj 1 21 mspparam feedback;
#X obj 1 39 mspparam dry-gain;
#X obj 1 57 mspparam wet-gain 0 1 1;
#X obj 1 75 mspparam highcut 0 24000 24000;
#X obj 1 93 mspparam lowcut 0 24000 5;
#X obj 1 111 mspparam crossfreq 0 24000 3000;
#X obj 1 129 mspparam damp 0 1 0.6;
#X obj 1 147 mspparam predelay_ms 0 10000 0;
#X obj 2 221 outlet;
#X text 26 2 ----- reverb :) -----;
#X obj 546 70 inlet;
#X obj 546 94 route feedback dry-gain wet-gain highcut lowcut crossfreq damp predelay_ms;
#X obj 525 188 loadbang;
#X obj 525 212 del 1;
#X connect 0 0 8 0;
#X connect 1 0 8 0;
#X connect 2 0 8 0;
#X connect 3 0 8 0;
#X connect 4 0 8 0;
#X connect 5 0 8 0;
#X connect 6 0 8 0;
#X connect 7 0 8 0;
#X connect 10 0 11 0;
#X connect 11 0 0 0;
#X connect 11 1 1 0;
#X connect 11 2 2 0;
#X connect 11 3 3 0;
#X connect 11 4 4 0;
#X connect 11 5 5 0;
#X connect 11 6 6 0;
#X connect 11 7 7 0;
#X connect 12 0 13 0;
#X connect 13 0 0 0;
#X connect 13 0 7 0;
#X connect 13 0 6 0;
#X connect 13 0 5 0;
#X connect 13 0 4 0;
#X connect 13 0 3 0;
#X connect 13 0 2 0;
#X connect 13 0 1 0;
#X coords 0 -1 1 1 204 164 2 1 1;
