#N canvas 0 25 1280 747 12;
#X obj 59 17 inlet~;
#X obj 60 113 snapshot~;
#X obj 443 66 f;
#X obj 477 66 f;
#X obj 535 65 f;
#X obj 573 65 f;
#X obj 544 196 f;
#X obj 578 196 f;
#X obj 616 195 f;
#X obj 654 195 f;
#X obj 634 356 f;
#X obj 668 356 f;
#X obj 706 355 f;
#X obj 744 355 f;
#X obj 724 516 f;
#X obj 758 516 f;
#X obj 796 515 f;
#X obj 834 515 f;
#X floatatom 90 200 5 0 0 0 - - -;
#X obj 458 19 route 0 1 2 3 4 5 6 7 8 9 10 11 12 13 14 15;
#X obj 443 130 max;
#X obj 477 130 t b f;
#X obj 535 129 max;
#X obj 573 129 t b f;
#X obj 443 184 max;
#X obj 489 183 t b f;
#X obj 544 290 max;
#X obj 578 290 t b f;
#X obj 636 289 max;
#X obj 674 289 t b f;
#X obj 544 344 max;
#X obj 588 345 t b f;
#X obj 633 445 max;
#X obj 667 445 t b f;
#X obj 725 444 max;
#X obj 763 444 t b f;
#X obj 633 499 max;
#X obj 671 498 t b f;
#X obj 723 593 max;
#X obj 757 593 t b f;
#X obj 815 592 max;
#X obj 853 592 t b f;
#X obj 723 647 max;
#X obj 819 641 t b f;
#X obj 472 680 max;
#X obj 518 678 t b f;
#X obj 573 681 max;
#X obj 622 682 t b f;
#X obj 474 805 max;
#X obj 560 813 t b f;
#X floatatom 474 829 5 0 0 0 - - -;
#X floatatom 443 90 5 0 0 0 - - -;
#X floatatom 477 90 5 0 0 0 - - -;
#X floatatom 535 89 5 0 0 0 - - -;
#X floatatom 573 89 5 0 0 0 - - -;
#X floatatom 443 154 5 0 0 0 - - -;
#X floatatom 535 153 5 0 0 0 - - -;
#X floatatom 443 208 5 0 0 0 - - -;
#X floatatom 544 220 5 0 0 0 - - -;
#X floatatom 578 220 5 0 0 0 - - -;
#X floatatom 616 219 5 0 0 0 - - -;
#X floatatom 654 219 5 0 0 0 - - -;
#X floatatom 544 314 5 0 0 0 - - -;
#X floatatom 636 313 5 0 0 0 - - -;
#X floatatom 544 368 5 0 0 0 - - -;
#X floatatom 634 380 5 0 0 0 - - -;
#X floatatom 668 380 5 0 0 0 - - -;
#X floatatom 706 379 5 0 0 0 - - -;
#X floatatom 744 379 5 0 0 0 - - -;
#X floatatom 633 469 5 0 0 0 - - -;
#X floatatom 725 468 5 0 0 0 - - -;
#X floatatom 724 540 5 0 0 0 - - -;
#X floatatom 758 540 5 0 0 0 - - -;
#X floatatom 796 539 5 0 0 0 - - -;
#X floatatom 834 539 5 0 0 0 - - -;
#X floatatom 723 617 5 0 0 0 - - -;
#X floatatom 815 616 5 0 0 0 - - -;
#X floatatom 723 671 5 0 0 0 - - -;
#X floatatom 472 704 5 0 0 0 - - -;
#X floatatom 573 705 5 0 0 0 - - -;
#X obj 474 852 outlet;
#X obj 127 20 inlet;
#X obj 128 73 bng 15 250 50 0 empty empty empty 17 7 0 10 -262144 -1
-1;
#X obj 25 260 pack f f;
#X obj 95 164 counter 16;
#X connect 0 0 1 0;
#X connect 1 0 83 1;
#X connect 2 0 51 0;
#X connect 3 0 52 0;
#X connect 4 0 53 0;
#X connect 5 0 54 0;
#X connect 6 0 58 0;
#X connect 7 0 59 0;
#X connect 8 0 60 0;
#X connect 9 0 61 0;
#X connect 10 0 65 0;
#X connect 11 0 66 0;
#X connect 12 0 67 0;
#X connect 13 0 68 0;
#X connect 14 0 71 0;
#X connect 15 0 72 0;
#X connect 16 0 73 0;
#X connect 17 0 74 0;
#X connect 18 0 83 0;
#X connect 19 0 2 0;
#X connect 19 1 3 0;
#X connect 19 2 4 0;
#X connect 19 3 5 0;
#X connect 19 4 6 0;
#X connect 19 5 7 0;
#X connect 19 6 8 0;
#X connect 19 7 9 0;
#X connect 19 8 10 0;
#X connect 19 9 11 0;
#X connect 19 10 12 0;
#X connect 19 11 13 0;
#X connect 19 12 14 0;
#X connect 19 13 15 0;
#X connect 19 14 16 0;
#X connect 19 15 17 0;
#X connect 20 0 55 0;
#X connect 21 0 20 0;
#X connect 21 1 20 1;
#X connect 22 0 56 0;
#X connect 23 0 22 0;
#X connect 23 1 22 1;
#X connect 24 0 57 0;
#X connect 25 0 24 0;
#X connect 25 1 24 1;
#X connect 26 0 62 0;
#X connect 27 0 26 0;
#X connect 27 1 26 1;
#X connect 28 0 63 0;
#X connect 29 0 28 0;
#X connect 29 1 28 1;
#X connect 30 0 64 0;
#X connect 31 0 30 0;
#X connect 31 1 30 1;
#X connect 32 0 69 0;
#X connect 33 0 32 0;
#X connect 33 1 32 1;
#X connect 34 0 70 0;
#X connect 35 0 34 0;
#X connect 35 1 34 1;
#X connect 36 0 46 0;
#X connect 37 0 36 0;
#X connect 37 1 36 1;
#X connect 38 0 75 0;
#X connect 39 0 38 0;
#X connect 39 1 38 1;
#X connect 40 0 76 0;
#X connect 41 0 40 0;
#X connect 41 1 40 1;
#X connect 42 0 77 0;
#X connect 43 0 42 0;
#X connect 43 1 42 1;
#X connect 44 0 78 0;
#X connect 45 0 44 0;
#X connect 45 1 44 1;
#X connect 46 0 79 0;
#X connect 47 0 46 0;
#X connect 47 1 46 1;
#X connect 48 0 50 0;
#X connect 49 0 48 0;
#X connect 49 1 48 1;
#X connect 50 0 80 0;
#X connect 51 0 20 0;
#X connect 52 0 21 0;
#X connect 53 0 22 0;
#X connect 54 0 23 0;
#X connect 55 0 24 0;
#X connect 56 0 25 0;
#X connect 57 0 44 0;
#X connect 58 0 26 0;
#X connect 59 0 27 0;
#X connect 60 0 28 0;
#X connect 61 0 29 0;
#X connect 62 0 30 0;
#X connect 63 0 31 0;
#X connect 64 0 45 0;
#X connect 65 0 32 0;
#X connect 66 0 33 0;
#X connect 67 0 34 0;
#X connect 68 0 35 0;
#X connect 69 0 36 0;
#X connect 70 0 37 0;
#X connect 71 0 38 0;
#X connect 72 0 39 0;
#X connect 73 0 40 0;
#X connect 74 0 41 0;
#X connect 75 0 42 0;
#X connect 76 0 43 0;
#X connect 77 0 47 0;
#X connect 78 0 48 0;
#X connect 79 0 49 0;
#X connect 81 0 82 0;
#X connect 82 0 1 0;
#X connect 82 0 84 0;
#X connect 83 0 19 0;
#X connect 84 0 18 0;
