#N canvas 0 25 1280 747 12;
#X obj 59 17 inlet~;
#X obj 60 113 snapshot~;
#X obj 90 87 metro 20;
#X obj 143 18 inlet;
#X obj 443 66 f;
#X obj 477 66 f;
#X obj 535 65 f;
#X obj 573 65 f;
#X obj 544 196 f;
#X obj 578 196 f;
#X obj 616 195 f;
#X obj 654 195 f;
#X obj 634 356 f;
#X obj 668 356 f;
#X obj 706 355 f;
#X obj 744 355 f;
#X obj 724 516 f;
#X obj 758 516 f;
#X obj 796 515 f;
#X obj 834 515 f;
#X floatatom 90 200 5 0 0 0 - - -;
#X obj 458 19 route 0 1 2 3 4 5 6 7 8 9 10 11 12 13 14 15;
#X obj 477 130 t b f;
#X obj 573 129 t b f;
#X obj 489 183 t b f;
#X obj 578 290 t b f;
#X obj 674 289 t b f;
#X obj 588 345 t b f;
#X obj 667 445 t b f;
#X obj 763 444 t b f;
#X obj 671 498 t b f;
#X obj 757 593 t b f;
#X obj 853 592 t b f;
#X obj 819 641 t b f;
#X obj 518 678 t b f;
#X obj 622 682 t b f;
#X obj 560 813 t b f;
#X floatatom 474 829 5 0 0 0 - - -;
#X floatatom 443 90 5 0 0 0 - - -;
#X floatatom 477 90 5 0 0 0 - - -;
#X floatatom 535 89 5 0 0 0 - - -;
#X floatatom 573 89 5 0 0 0 - - -;
#X floatatom 443 154 5 0 0 0 - - -;
#X floatatom 535 153 5 0 0 0 - - -;
#X floatatom 443 208 5 0 0 0 - - -;
#X floatatom 544 220 5 0 0 0 - - -;
#X floatatom 578 220 5 0 0 0 - - -;
#X floatatom 616 219 5 0 0 0 - - -;
#X floatatom 654 219 5 0 0 0 - - -;
#X floatatom 544 314 5 0 0 0 - - -;
#X floatatom 636 313 5 0 0 0 - - -;
#X floatatom 544 368 5 0 0 0 - - -;
#X floatatom 634 380 5 0 0 0 - - -;
#X floatatom 668 380 5 0 0 0 - - -;
#X floatatom 706 379 5 0 0 0 - - -;
#X floatatom 744 379 5 0 0 0 - - -;
#X floatatom 633 469 5 0 0 0 - - -;
#X floatatom 725 468 5 0 0 0 - - -;
#X floatatom 724 540 5 0 0 0 - - -;
#X floatatom 758 540 5 0 0 0 - - -;
#X floatatom 796 539 5 0 0 0 - - -;
#X floatatom 834 539 5 0 0 0 - - -;
#X floatatom 723 617 5 0 0 0 - - -;
#X floatatom 815 616 5 0 0 0 - - -;
#X floatatom 723 671 5 0 0 0 - - -;
#X floatatom 472 704 5 0 0 0 - - -;
#X floatatom 573 705 5 0 0 0 - - -;
#X obj 474 852 outlet;
#X obj 90 48 loadbang;
#X obj 443 130 min;
#X obj 535 129 min;
#X obj 443 184 min;
#X obj 544 290 min;
#X obj 636 289 min;
#X obj 544 344 min;
#X obj 633 445 min;
#X obj 725 444 min;
#X obj 633 499 min;
#X obj 723 593 min;
#X obj 815 592 min;
#X obj 723 647 min;
#X obj 472 680 min;
#X obj 573 681 min;
#X obj 474 805 min;
#X obj 92 165 counter 16;
#X obj 25 260 pack f f;
#X connect 0 0 1 0;
#X connect 1 0 85 1;
#X connect 2 0 1 0;
#X connect 2 0 84 0;
#X connect 3 0 2 1;
#X connect 4 0 38 0;
#X connect 5 0 39 0;
#X connect 6 0 40 0;
#X connect 7 0 41 0;
#X connect 8 0 45 0;
#X connect 9 0 46 0;
#X connect 10 0 47 0;
#X connect 11 0 48 0;
#X connect 12 0 52 0;
#X connect 13 0 53 0;
#X connect 14 0 54 0;
#X connect 15 0 55 0;
#X connect 16 0 58 0;
#X connect 17 0 59 0;
#X connect 18 0 60 0;
#X connect 19 0 61 0;
#X connect 20 0 85 0;
#X connect 21 0 4 0;
#X connect 21 1 5 0;
#X connect 21 2 6 0;
#X connect 21 3 7 0;
#X connect 21 4 8 0;
#X connect 21 5 9 0;
#X connect 21 6 10 0;
#X connect 21 7 11 0;
#X connect 21 8 12 0;
#X connect 21 9 13 0;
#X connect 21 10 14 0;
#X connect 21 11 15 0;
#X connect 21 12 16 0;
#X connect 21 13 17 0;
#X connect 21 14 18 0;
#X connect 21 15 19 0;
#X connect 22 0 69 0;
#X connect 22 1 69 1;
#X connect 23 0 70 0;
#X connect 23 1 70 1;
#X connect 24 0 71 0;
#X connect 24 1 71 1;
#X connect 25 0 72 0;
#X connect 25 1 72 1;
#X connect 26 0 73 0;
#X connect 26 1 73 1;
#X connect 27 0 74 0;
#X connect 27 1 74 1;
#X connect 28 0 75 0;
#X connect 28 1 75 1;
#X connect 29 0 76 0;
#X connect 29 1 76 1;
#X connect 30 0 77 0;
#X connect 30 1 77 1;
#X connect 31 0 78 0;
#X connect 31 1 78 1;
#X connect 32 0 79 0;
#X connect 32 1 79 1;
#X connect 33 0 80 0;
#X connect 33 1 80 1;
#X connect 34 0 81 0;
#X connect 34 1 81 1;
#X connect 35 0 82 0;
#X connect 35 1 82 1;
#X connect 36 0 83 0;
#X connect 36 1 83 1;
#X connect 37 0 67 0;
#X connect 38 0 69 0;
#X connect 39 0 22 0;
#X connect 40 0 70 0;
#X connect 41 0 23 0;
#X connect 42 0 71 0;
#X connect 43 0 24 0;
#X connect 44 0 81 0;
#X connect 45 0 72 0;
#X connect 46 0 25 0;
#X connect 47 0 73 0;
#X connect 48 0 26 0;
#X connect 49 0 74 0;
#X connect 50 0 27 0;
#X connect 51 0 34 0;
#X connect 52 0 75 0;
#X connect 53 0 28 0;
#X connect 54 0 76 0;
#X connect 55 0 29 0;
#X connect 56 0 77 0;
#X connect 57 0 30 0;
#X connect 58 0 78 0;
#X connect 59 0 31 0;
#X connect 60 0 79 0;
#X connect 61 0 32 0;
#X connect 62 0 80 0;
#X connect 63 0 33 0;
#X connect 64 0 35 0;
#X connect 65 0 83 0;
#X connect 66 0 36 0;
#X connect 68 0 2 0;
#X connect 69 0 42 0;
#X connect 70 0 43 0;
#X connect 71 0 44 0;
#X connect 72 0 49 0;
#X connect 73 0 50 0;
#X connect 74 0 51 0;
#X connect 75 0 56 0;
#X connect 76 0 57 0;
#X connect 77 0 82 0;
#X connect 78 0 62 0;
#X connect 79 0 63 0;
#X connect 80 0 64 0;
#X connect 81 0 65 0;
#X connect 82 0 66 0;
#X connect 83 0 37 0;
#X connect 84 0 20 0;
#X connect 85 0 21 0;
