#N canvas 683 392 294 189 10;
#X obj 124 19 inlet;
#X obj 124 82 % \$1;
#X obj 124 61 t f f, f 7;
#X obj 124 145 outlet;
#X obj 124 103 swap, f 7;
#X obj 124 124 -, f 7;
#X obj 124 40 i;
#X connect 0 0 6 0;
#X connect 1 0 4 0;
#X connect 2 0 1 0;
#X connect 2 1 4 1;
#X connect 4 0 5 0;
#X connect 4 1 5 1;
#X connect 5 0 3 0;
#X connect 6 0 2 0;
