#N canvas 396 289 265 236 10;
#X obj 53 14 inlet;
#X obj 53 98 % \$1;
#X obj 53 77 t f f, f 21;
#X obj 156 182 +, f 5;
#X obj 156 203 outlet;
#X obj 156 140 swap \$1;
#X obj 156 161 -, f 7;
#X obj 53 35 i;
#X obj 53 119 sel 0, f 18;
#X obj 53 56 fbank2, f 11;
#X connect 0 0 7 0;
#X connect 1 0 8 0;
#X connect 2 0 1 0;
#X connect 2 1 3 1;
#X connect 3 0 4 0;
#X connect 5 0 6 0;
#X connect 5 1 6 1;
#X connect 6 0 3 0;
#X connect 7 0 9 0;
#X connect 8 0 9 1;
#X connect 8 1 5 0;
#X connect 9 0 2 0;
#X connect 9 1 4 0;
