#N canvas 254 202 401 221 10;
#X obj 53 23 inlet;
#X floatatom 53 44 5 0 0 0 - - -;
#X obj 53 85 % \$1;
#X obj 314 23 loadbang;
#X obj 314 44 f \$1;
#X obj 314 65 / 2;
#X obj 53 106 >, f 44;
#X obj 53 127 sel 0 1, f 27;
#X obj 174 184 outlet;
#X obj 212 85 roundup \$1;
#X obj 132 85 rounddown \$1;
#X obj 53 64 fbank2, f 27;
#X connect 0 0 1 0;
#X connect 1 0 11 0;
#X connect 2 0 6 0;
#X connect 3 0 4 0;
#X connect 4 0 5 0;
#X connect 5 0 6 1;
#X connect 6 0 7 0;
#X connect 7 0 11 1;
#X connect 7 1 11 2;
#X connect 9 0 8 0;
#X connect 10 0 8 0;
#X connect 11 0 2 0;
#X connect 11 1 10 0;
#X connect 11 2 9 0;
