#N canvas 574 110 450 300 12;
#X obj 149 74 inlet;
#X obj 222 98 bng 15 250 50 0 empty empty empty 17 7 0 10 #fcfcfc #000000
#000000;
#X obj 222 74 loadbang;
#X obj 222 118 randwalk \$1 \$2;
#X obj 204 165 f;
#X obj 149 98 bng 15 250 50 0 empty empty empty 17 7 0 10 #fcfcfc #000000
#000000;
#X obj 204 189 outlet;
#X connect 0 0 5 0;
#X connect 1 0 3 0;
#X connect 2 0 1 0;
#X connect 3 0 4 1;
#X connect 3 1 1 0;
#X connect 4 0 6 0;
#X connect 5 0 4 0;
