#N canvas 401 139 148 139 12;
#X obj 16 14 inlet;
#X obj 16 38 sig~;
#X obj 16 86 scaled~ 0 1 -1 1;
#X obj 16 110 outlet~;
#X obj 16 62 phasor~ \$1;
#X connect 0 0 1 0;
#X connect 1 0 4 0;
#X connect 2 0 3 0;
#X connect 4 0 2 0;
