#N canvas 239 104 820 303 12;
#X obj 22 117 inlet;
#X obj 22 237 outlet;
#X text 21 9 // SCALES INLET (0-127) BETWEEN;
#X text 20 23 // FOUR CREATION ARGS;
#X text 18 37 // from_floor from_ceil to_floor to_ceil;
#X text 18 53 // ALL INCLUSIVE;
#X obj 371 111 inlet;
#X obj 465 52 loadbang;
#X obj 415 76 t b b b b b, f 29;
#X obj 615 100 f \$3;
#X obj 565 100 f \$4;
#X obj 515 100 f \$1;
#X obj 465 100 f \$2;
#X obj 683 189 s \$0-to-low;
#X obj 579 189 s \$0-to-high;
#X obj 475 189 s \$0-from-low;
#X obj 371 189 s \$0-from-high;
#X obj 393 147 route from-low from-high to-low to-high;
#X obj 22 141 inverselerp \$1 \$2;
#X obj 22 213 lerp \$3 \$4, f 17;
#X obj 80 93 r \$0-from-low;
#X obj 138 117 r \$0-from-high;
#X obj 80 165 r \$0-to-low;
#X obj 138 189 r \$0-to-high;
#X obj 355 219 r \$0-from-low;
#X obj 669 219 r \$0-to-high;
#X obj 563 219 r \$0-to-low;
#X floatatom 458 243 5 0 0 0 - - - 0;
#X floatatom 355 243 5 0 0 0 - - - 0;
#X floatatom 669 243 5 0 0 0 - - - 0;
#X floatatom 563 243 5 0 0 0 - - - 0;
#X obj 458 219 r \$0-from-high;
#X connect 0 0 18 0;
#X connect 6 0 17 0;
#X connect 7 0 8 0;
#X connect 8 1 12 0;
#X connect 8 2 11 0;
#X connect 8 3 10 0;
#X connect 8 4 9 0;
#X connect 9 0 13 0;
#X connect 10 0 14 0;
#X connect 11 0 15 0;
#X connect 12 0 16 0;
#X connect 17 0 15 0;
#X connect 17 1 16 0;
#X connect 17 2 13 0;
#X connect 17 3 14 0;
#X connect 18 0 19 0;
#X connect 19 0 1 0;
#X connect 20 0 18 1;
#X connect 21 0 18 2;
#X connect 22 0 19 1;
#X connect 23 0 19 2;
#X connect 24 0 28 0;
#X connect 25 0 29 0;
#X connect 26 0 30 0;
#X connect 31 0 27 0;
