#N canvas 255 159 506 584 12;
#X obj 22 77 inlet;
#X obj 181 77 loadbang;
#X obj 181 99 t b b;
#X obj 181 157 -, f 9;
#X obj 181 181 f;
#X obj 22 305 *;
#X obj 22 551 outlet;
#X text 21 9 // SCALES INLET (0-127) BETWEEN;
#X text 20 23 // FOUR CREATION ARGS;
#X text 18 37 // from_floor from_ceil to_floor to_ceil;
#X text 18 53 // ALL INCLUSIVE;
#X obj 22 99 clip \$1 \$2;
#X obj 181 128 f \$3;
#X obj 216 128 f \$4;
#X obj 22 440 clip \$3 \$4;
#X obj 22 353 + \$3;
#X obj 22 329 f;
#X obj 22 123 - \$1;
#X obj 40 150 loadbang;
#X obj 40 174 t b b;
#X obj 40 203 f \$1;
#X obj 75 203 f \$2;
#X obj 40 232 -, f 9;
#X obj 40 256 f;
#X obj 22 281 /;
#X obj 345 88 loadbang;
#X obj 345 112 t b b;
#X obj 345 136 f \$3;
#X obj 377 136 f \$4;
#X obj 345 184 sel 0 1, f 18;
#X obj 345 160 >, f 5;
#X obj 22 416 spigot, f 13;
#X obj 122 416 spigot, f 37;
#X msg 345 208 0;
#X msg 375 208 1;
#X msg 406 208 0;
#X msg 436 208 1;
#X connect 0 0 11 0;
#X connect 1 0 2 0;
#X connect 2 0 13 0;
#X connect 2 1 12 0;
#X connect 3 0 4 0;
#X connect 4 0 5 1;
#X connect 5 0 16 0;
#X connect 11 0 17 0;
#X connect 12 0 3 1;
#X connect 13 0 3 0;
#X connect 14 0 6 0;
#X connect 15 0 31 0;
#X connect 15 0 32 0;
#X connect 16 0 15 0;
#X connect 17 0 24 0;
#X connect 18 0 19 0;
#X connect 19 0 21 0;
#X connect 19 1 20 0;
#X connect 20 0 22 1;
#X connect 21 0 22 0;
#X connect 22 0 23 0;
#X connect 23 0 24 1;
#X connect 24 0 5 0;
#X connect 25 0 26 0;
#X connect 26 0 27 0;
#X connect 26 1 28 0;
#X connect 27 0 30 0;
#X connect 28 0 30 1;
#X connect 29 0 33 0;
#X connect 29 0 34 0;
#X connect 29 1 35 0;
#X connect 29 1 36 0;
#X connect 30 0 29 0;
#X connect 31 0 14 0;
#X connect 32 0 6 0;
#X connect 33 0 32 1;
#X connect 34 0 31 1;
#X connect 35 0 31 1;
#X connect 36 0 32 1;
