#N canvas 255 159 1071 738 12;
#X obj 22 77 inlet;
#X obj 181 247 -, f 9;
#X obj 181 271 f;
#X obj 22 465 *;
#X obj 22 661 outlet;
#X text 21 9 // SCALES INLET (0-127) BETWEEN;
#X text 20 23 // FOUR CREATION ARGS;
#X text 18 37 // from_floor from_ceil to_floor to_ceil;
#X text 18 53 // ALL INCLUSIVE;
#X obj 22 489 f;
#X obj 40 392 -, f 9;
#X obj 40 416 f;
#X obj 22 441 /;
#X obj 345 88 loadbang;
#X obj 345 112 t b b;
#X obj 345 294 sel 0 1, f 18;
#X obj 345 270 >, f 5;
#X obj 22 536 spigot, f 13;
#X obj 122 602 spigot, f 37;
#X msg 345 318 0;
#X msg 375 318 1;
#X msg 406 318 0;
#X msg 436 318 1;
#X obj 569 55 inlet;
#X obj 569 79 unpack f f f f, f 45;
#X obj 569 103 s \$0-from-low;
#X obj 777 103 s \$0-to-low;
#X obj 881 103 s \$0-to-high;
#X obj 673 103 s \$0-from-high;
#X obj 663 6 loadbang;
#X obj 663 30 t b b b b, f 22;
#X obj 663 54 f \$1;
#X obj 713 54 f \$2;
#X obj 763 54 f \$3;
#X obj 814 54 f \$4;
#X obj 40 267 r \$0-from-low;
#X obj 102 136 r \$0-from-high;
#X obj 181 155 r \$0-to-low;
#X obj 455 217 r \$0-to-high;
#X obj 43 117 r \$0-from-low;
#X obj 75 289 r \$0-from-high;
#X obj 363 217 r \$0-to-low;
#X obj 60 480 r \$0-to-low;
#X obj 216 174 r \$0-to-high;
#X obj 89 568 r \$0-to-high;
#X obj 22 169 clip, f 12;
#X obj 22 193 -;
#X obj 40 313 f;
#X obj 75 313 f;
#X obj 22 513 +;
#X obj 22 600 clip, f 10;
#X obj 181 198 f;
#X obj 216 198 f;
#X obj 345 246 f;
#X obj 377 246 f;
#X obj 40 337 t b f;
#X obj 181 222 t b f;
#X connect 0 0 45 0;
#X connect 1 0 2 0;
#X connect 2 0 3 1;
#X connect 3 0 9 0;
#X connect 9 0 49 0;
#X connect 10 0 11 0;
#X connect 11 0 12 1;
#X connect 12 0 3 0;
#X connect 13 0 14 0;
#X connect 14 0 53 0;
#X connect 14 1 54 0;
#X connect 15 0 19 0;
#X connect 15 0 20 0;
#X connect 15 1 21 0;
#X connect 15 1 22 0;
#X connect 16 0 15 0;
#X connect 17 0 50 0;
#X connect 18 0 4 0;
#X connect 19 0 18 1;
#X connect 20 0 17 1;
#X connect 21 0 17 1;
#X connect 22 0 18 1;
#X connect 23 0 24 0;
#X connect 24 0 25 0;
#X connect 24 1 28 0;
#X connect 24 2 26 0;
#X connect 24 3 27 0;
#X connect 29 0 30 0;
#X connect 30 0 31 0;
#X connect 30 1 32 0;
#X connect 30 2 33 0;
#X connect 30 3 34 0;
#X connect 31 0 25 0;
#X connect 32 0 28 0;
#X connect 33 0 26 0;
#X connect 34 0 27 0;
#X connect 35 0 47 0;
#X connect 36 0 45 2;
#X connect 37 0 51 0;
#X connect 38 0 54 1;
#X connect 39 0 45 1;
#X connect 39 0 46 1;
#X connect 40 0 48 0;
#X connect 41 0 53 1;
#X connect 42 0 49 1;
#X connect 42 0 50 1;
#X connect 43 0 52 0;
#X connect 44 0 50 2;
#X connect 45 0 46 0;
#X connect 46 0 12 0;
#X connect 47 0 55 0;
#X connect 48 0 10 0;
#X connect 49 0 17 0;
#X connect 49 0 18 0;
#X connect 50 0 4 0;
#X connect 51 0 56 0;
#X connect 52 0 1 0;
#X connect 53 0 16 0;
#X connect 54 0 16 1;
#X connect 55 0 10 0;
#X connect 55 1 10 1;
#X connect 56 0 1 0;
#X connect 56 1 1 1;
