#N canvas 402 209 474 317 12;
#X obj 17 107 inlet~;
#X obj 17 131 clip~ 0 1;
#X obj 17 251 outlet~;
#X text 14 86 /// audio rate to play clip at that percentage.;
#X obj 244 174 sig~;
#X obj 17 155 *~;
#X text 13 273 /// out;
#X obj 17 227 tabread4~ clip-\$1;
#X obj 244 127 samplecountprovider \$1;
#X floatatom 244 151 10 0 0 0 - - - 0;
#X text 16 7 /// TO USE: (1) initialize with creation arg \$1 being
the sample name. there must be an [audioclip~ \$1] or [__sample~ \$1]
in this patch. (2) pass audio rate normalized from 0 to 1 into left
inlet to play the clip at that percentage.;
#X connect 0 0 1 0;
#X connect 1 0 5 0;
#X connect 4 0 5 1;
#X connect 5 0 7 0;
#X connect 7 0 2 0;
#X connect 8 0 9 0;
#X connect 9 0 4 0;
