#N canvas 135 38 1201 883 12;
#X obj 129 127 inlet;
#X obj 129 656 bng 15 250 50 0 empty empty empty 17 7 0 10 #fcfcfc
#000000 #000000;
#X obj 129 676 f, f 24;
#X obj 129 700 outlet;
#X obj 129 632 sel 1;
#X obj 129 608 <;
#X obj 147 584 easeinsine;
#X text 7 534 gate probability;
#X text 411 536 sequence of values;
#X obj 129 536 generative16step;
#X obj 294 536 generative16step;
#X obj 129 478 t f f, f 24;
#X obj 129 420 stepper 16, f 42;
#X obj 129 454 + 1;
#X text 166 454 because [generative16step] expects 1...16;
#X obj 682 74 inlet;
#X obj 682 146 s \$0-generate;
#X obj 807 122 clip 0 1;
#X obj 932 122 clip 1 16;
#X obj 932 146 s \$0-length;
#X obj 1057 122 clip 0 15;
#X obj 1057 146 s \$0-offset;
#X obj 1005 237 print INVALID_PARAMETER;
#X obj 323 396 r \$0-length;
#X obj 420 396 r \$0-offset;
#X obj 807 146 s \$0-density;
#X obj 147 560 r \$0-density;
#X obj 301 820 8step, f 40;
#X obj 597 820 8step, f 40;
#X obj 894 820 8step, f 40;
#X text 477 749 length;
#X text 715 757 offset;
#X text 984 752 density;
#X obj 799 693 r \$0-density;
#X obj 626 728 pack f f;
#X obj 686 728 pack f f;
#X obj 746 728 pack f f;
#X obj 679 655 r \$0-length;
#X obj 739 674 r \$0-offset;
#X obj 706 237 s \$0-save;
#X obj 788 237 s \$0-recall;
#X obj 706 213 clip 1 8;
#X obj 788 213 clip 1 8;
#X obj 526 493 r \$0-save;
#X msg 526 517 save \$1;
#X obj 596 493 r \$0-recall;
#X msg 596 517 recall \$1;
#X obj 590 663 r \$0-save;
#X obj 198 776 r \$0-recall;
#X obj 301 844 s \$0-length;
#X obj 597 844 s \$0-offset;
#X obj 894 844 s \$0-density;
#X obj 198 801 - 1;
#X obj 590 687 - 1;
#X obj 372 780 route 0 1 2 3 4 5 6 7;
#X obj 652 786 route 0 1 2 3 4 5 6 7;
#X obj 958 779 route 0 1 2 3 4 5 6 7;
#X text 572 631 save and recall of length \, offset \, and density
;
#X text 698 51 input routing;
#X text 243 100 main logic;
#X text 82 16 /// 16-STEP GENERATIVE SEQUENCER SUPPORTING PATTERN SAVE
AND RECALL WITH 8 MEMORY SLOTS.;
#X obj 937 24 loadbang;
#X msg 937 48 16;
#X msg 988 51 0;
#X obj 129 151 counter;
#X obj 129 175 sel 0;
#X obj 129 199 bng 15 250 50 0 empty empty empty 17 7 0 10 #fcfcfc
#000000 #000000;
#X obj 682 98 route generate density length offset, f 72;
#X obj 706 189 route save recall clockdivision, f 36;
#X obj 870 260 s \$0-clockdivision;
#X obj 175 127 r \$0-clockdivision;
#X obj 870 212 i;
#X obj 870 236 max 1;
#X obj 682 122 clip 0 1;
#X obj 161 267 randrange 0 1000;
#X obj 161 243 t b b, f 20;
#X obj 298 267 f;
#X obj 316 243 r \$0-generate;
#X obj 298 315 * 1000;
#X obj 161 291 <;
#X obj 161 315 sel 1;
#X msg 161 339 1;
#X msg 193 339 0;
#X obj 161 363 s \$0-generate-internal;
#X obj 183 512 r \$0-generate-internal;
#X obj 348 512 r \$0-generate-internal;
#X obj 129 219 t b b;
#X text 170 219 figure out if we should generate this step;
#X obj 298 291 easeinsine;
#X connect 0 0 64 0;
#X connect 1 0 2 0;
#X connect 2 0 3 0;
#X connect 4 0 1 0;
#X connect 5 0 4 0;
#X connect 6 0 5 1;
#X connect 9 0 5 0;
#X connect 10 0 2 1;
#X connect 11 0 9 0;
#X connect 11 1 10 0;
#X connect 12 0 13 0;
#X connect 13 0 11 0;
#X connect 15 0 67 0;
#X connect 17 0 25 0;
#X connect 18 0 19 0;
#X connect 20 0 21 0;
#X connect 23 0 12 2;
#X connect 24 0 12 3;
#X connect 26 0 6 0;
#X connect 27 0 49 0;
#X connect 28 0 50 0;
#X connect 29 0 51 0;
#X connect 33 0 36 1;
#X connect 34 0 54 0;
#X connect 35 0 55 0;
#X connect 36 0 56 0;
#X connect 37 0 34 1;
#X connect 38 0 35 1;
#X connect 41 0 39 0;
#X connect 42 0 40 0;
#X connect 43 0 44 0;
#X connect 44 0 10 2;
#X connect 44 0 9 2;
#X connect 45 0 46 0;
#X connect 46 0 10 2;
#X connect 46 0 9 2;
#X connect 47 0 53 0;
#X connect 48 0 52 0;
#X connect 52 0 27 0;
#X connect 52 0 29 0;
#X connect 52 0 28 0;
#X connect 53 0 34 0;
#X connect 53 0 36 0;
#X connect 53 0 35 0;
#X connect 54 0 27 1;
#X connect 54 1 27 2;
#X connect 54 2 27 3;
#X connect 54 3 27 4;
#X connect 54 4 27 5;
#X connect 54 5 27 6;
#X connect 54 6 27 7;
#X connect 54 7 27 8;
#X connect 55 0 28 1;
#X connect 55 1 28 2;
#X connect 55 2 28 3;
#X connect 55 3 28 4;
#X connect 55 4 28 5;
#X connect 55 5 28 6;
#X connect 55 6 28 7;
#X connect 55 7 28 8;
#X connect 56 0 29 1;
#X connect 56 1 29 2;
#X connect 56 2 29 3;
#X connect 56 3 29 4;
#X connect 56 4 29 5;
#X connect 56 5 29 6;
#X connect 56 6 29 7;
#X connect 56 7 29 8;
#X connect 61 0 62 0;
#X connect 61 0 63 0;
#X connect 62 0 18 0;
#X connect 63 0 20 0;
#X connect 64 0 65 0;
#X connect 65 0 66 0;
#X connect 66 0 86 0;
#X connect 67 0 73 0;
#X connect 67 1 17 0;
#X connect 67 2 18 0;
#X connect 67 3 20 0;
#X connect 67 4 68 0;
#X connect 68 0 41 0;
#X connect 68 1 42 0;
#X connect 68 2 71 0;
#X connect 68 3 22 0;
#X connect 70 0 64 2;
#X connect 71 0 72 0;
#X connect 72 0 69 0;
#X connect 73 0 16 0;
#X connect 74 0 79 0;
#X connect 75 0 74 0;
#X connect 75 1 76 0;
#X connect 76 0 88 0;
#X connect 77 0 76 1;
#X connect 78 0 79 1;
#X connect 79 0 80 0;
#X connect 80 0 81 0;
#X connect 80 1 82 0;
#X connect 81 0 83 0;
#X connect 82 0 83 0;
#X connect 84 0 9 1;
#X connect 85 0 10 1;
#X connect 86 0 12 0;
#X connect 86 1 75 0;
#X connect 88 0 78 0;
