#N canvas 0 38 1512 884 12;
#X obj 409 7 loadbang;
#X msg 445 35 16;
#X msg 500 22 0;
#X obj 58 790 outlet;
#X msg 176 545 generate \$1;
#X obj 638 413 8step, f 40;
#X obj 934 413 8step, f 40;
#X obj 1231 413 8step, f 40;
#X text 814 342 length;
#X text 1052 350 offset;
#X text 1321 345 density;
#X obj 1136 256 r \$0-density;
#X obj 963 291 pack f f;
#X obj 1023 291 pack f f;
#X obj 1083 291 pack f f;
#X obj 1016 218 r \$0-length;
#X obj 1076 237 r \$0-offset;
#X obj 927 196 r \$0-save;
#X obj 535 340 r \$0-recall;
#X obj 558 394 - 1;
#X obj 927 250 - 1;
#X obj 709 373 route 0 1 2 3 4 5 6 7;
#X obj 989 379 route 0 1 2 3 4 5 6 7;
#X obj 1295 372 route 0 1 2 3 4 5 6 7;
#X obj 34 606 s \$0-save;
#X obj 104 606 s \$0-recall;
#X obj 306 671 s \$0-length;
#X obj 461 688 s \$0-offset;
#X obj 705 696 s \$0-density;
#X obj 535 364 t b f b;
#X obj 581 464 s \$0-begin-recall;
#X obj 535 487 s \$0-end-recall;
#X obj 314 617 spigot;
#X obj 410 624 spigot;
#X obj 621 644 spigot;
#X obj 479 543 r \$0-begin-recall;
#X obj 602 543 r \$0-end-recall;
#X obj 350 597 tgl 15 0 empty empty empty 17 7 0 10 #fcfcfc #000000 #000000 0 1;
#X obj 452 605 tgl 15 0 empty empty empty 17 7 0 10 #fcfcfc #000000 #000000 0 1;
#X obj 656 594 tgl 15 0 empty empty empty 17 7 0 10 #fcfcfc #000000 #000000 0 1;
#X msg 479 567 0;
#X msg 602 567 1;
#X obj 638 437 s \$0-recall-length;
#X obj 934 437 s \$0-recall-offset;
#X obj 1231 437 s \$0-recall-density;
#X obj 619 46 r \$0-recall-length;
#X obj 679 65 r \$0-recall-offset;
#X obj 739 84 r \$0-recall-density;
#X obj 314 641 t f f;
#X msg 197 674 length \$1;
#X obj 410 648 t f f;
#X msg 395 704 offset \$1;
#X obj 621 668 t f f;
#X msg 621 692 density \$1;
#X obj 908 6 inlet;
#X obj 927 220 t f f;
#X obj 813 251 s \$0-recall;
#X msg 374 25 0;
#X obj 613 516 loadbang;
#X msg 409 31 1;
#X obj 436 60 s \$0-length;
#X obj 374 117 s \$0-density;
#X obj 511 45 s \$0-offset;
#X floatatom 42 46 3 1 1e+07 0 div - - 12;
#X obj 908 29 route generate length offset save recall density clockdivision, f 72;
#X obj 280 176 i;
#X msg 284 231 clockdivision \$1;
#X obj 295 212 s \$0-clockdivision;
#X obj 1222 201 r \$0-clockdivision;
#X obj 1143 291 pack f f;
#X obj 1520 413 8step, f 40;
#X obj 1584 372 route 0 1 2 3 4 5 6 7;
#X text 1610 345 clockdivision;
#X obj 1520 437 s \$0-recall-clockdivision;
#X obj 827 114 r \$0-recall-clockdivision;
#X msg 535 129 1;
#X obj 535 153 s \$0-clockdivision;
#X floatatom 37 28 4 0 1 1 - - - 0;
#X obj 25 28 tgl 12 0 empty empty gen -22 8 0 12 #fcfcfc #000000 #000000 0 1;
#X obj 355 153 sel 1;
#X msg 344 176 set 1;
#X msg 392 176 set 0;
#X floatatom 42 64 3 1 16 0 len - - 12;
#X floatatom 42 82 3 0 15 0 off - - 12;
#X obj 5 149 hsl 60 10 0 1 0 0 empty empty empty -55 7 0 12 #fcfcfc #000000 #000000 0 1;
#X text 4 5 sequ :);
#X obj 457 367 + 0;
#X obj 619 70 - 0;
#X obj 2 100 bng 12 250 50 0 empty empty empty 17 7 0 10 #fcfcfc #000000 #000000;
#X obj 2 112 bng 12 250 50 0 empty empty empty 17 7 0 10 #fcfcfc #000000 #000000;
#X obj 2 124 bng 12 250 50 0 empty empty empty 17 7 0 10 #fcfcfc #000000 #000000;
#X obj 2 136 bng 12 250 50 0 empty empty empty 17 7 0 10 #fcfcfc #000000 #000000;
#X obj 14 100 bng 12 250 50 0 empty empty empty 17 7 0 10 #fcfcfc #000000 #000000;
#X obj 14 112 bng 12 250 50 0 empty empty empty 17 7 0 10 #fcfcfc #000000 #000000;
#X obj 14 124 bng 12 250 50 0 empty empty empty 17 7 0 10 #fcfcfc #000000 #000000;
#X obj 14 136 bng 12 250 50 0 empty empty empty 17 7 0 10 #fcfcfc #000000 #000000;
#X msg -10 455 1;
#X msg 20 455 2;
#X msg 50 455 3;
#X msg 80 455 4;
#X msg 110 455 5;
#X msg 140 454 6;
#X msg 170 455 7;
#X msg 200 455 8;
#X msg -10 479 save \$1;
#X obj 43 100 bng 12 250 50 0 empty empty empty 17 7 0 10 #fcfcfc #000000 #000000;
#X obj 43 112 bng 12 250 50 0 empty empty empty 17 7 0 10 #fcfcfc #000000 #000000;
#X obj 43 124 bng 12 250 50 0 empty empty empty 17 7 0 10 #fcfcfc #000000 #000000;
#X obj 43 136 bng 12 250 50 0 empty empty empty 17 7 0 10 #fcfcfc #000000 #000000;
#X obj 55 100 bng 12 250 50 0 empty empty empty 17 7 0 10 #fcfcfc #000000 #000000;
#X obj 55 112 bng 12 250 50 0 empty empty empty 17 7 0 10 #fcfcfc #000000 #000000;
#X obj 55 124 bng 12 250 50 0 empty empty empty 17 7 0 10 #fcfcfc #000000 #000000;
#X obj 55 136 bng 12 250 50 0 empty empty empty 17 7 0 10 #fcfcfc #000000 #000000;
#X msg 241 468 1;
#X msg 271 468 2;
#X msg 301 468 3;
#X msg 331 468 4;
#X msg 361 468 5;
#X msg 391 467 6;
#X msg 421 468 7;
#X msg 451 468 8;
#X msg 241 492 recall \$1;
#N canvas 1020 371 261 220 labeller 0;
#X obj 10 11 inlet;
#X obj 78 138 outlet;
#X msg 10 95 label .\$1;
#X obj 116 14 inlet;
#X obj 116 38 bng 15 250 50 0 empty empty empty 17 7 0 10 #fcfcfc #000000 #000000;
#X obj 10 65 fbank2, f 11;
#X msg 113 100 label .\$1*;
#X connect 0 0 5 0;
#X connect 2 0 1 0;
#X connect 3 0 4 0;
#X connect 4 0 5 1;
#X connect 5 0 2 0;
#X connect 5 1 6 0;
#X connect 6 0 1 0;
#X restore 182 166 pd labeller;
#X obj 30 110 bng 8 50 10 0 empty empty .3 -6 20 0 10 #ffffff #ffffff #000000;
#X obj 372 277 s \$0-dirty-recall-display;
#X obj 138 140 r \$0-dirty-recall-display;
#X floatatom 1179 88 5 0 0 0 - - - 0;
#X floatatom 1075 85 5 0 0 0 - - - 0;
#X obj 1075 108 s \$0-save-in;
#X obj 1179 111 s \$0-recall-in;
#X obj 86 11 r \$0-save-in;
#X obj 229 11 r \$0-recall-in;
#X obj 86 35 sel 1 2 3 4 5 6 7 8;
#X obj 229 35 sel 1 2 3 4 5 6 7 8;
#X connect 0 0 1 0;
#X connect 0 0 57 0;
#X connect 0 0 59 0;
#X connect 0 0 2 0;
#X connect 0 0 75 0;
#X connect 1 0 60 0;
#X connect 1 0 82 0;
#X connect 2 0 62 0;
#X connect 2 0 83 0;
#X connect 4 0 3 0;
#X connect 4 0 124 0;
#X connect 5 0 42 0;
#X connect 6 0 43 0;
#X connect 7 0 44 0;
#X connect 11 0 14 1;
#X connect 12 0 21 0;
#X connect 13 0 22 0;
#X connect 14 0 23 0;
#X connect 15 0 12 1;
#X connect 16 0 13 1;
#X connect 17 0 55 0;
#X connect 18 0 29 0;
#X connect 19 0 5 0;
#X connect 19 0 7 0;
#X connect 19 0 6 0;
#X connect 19 0 70 0;
#X connect 20 0 12 0;
#X connect 20 0 14 0;
#X connect 20 0 13 0;
#X connect 20 0 69 0;
#X connect 21 0 5 1;
#X connect 21 1 5 2;
#X connect 21 2 5 3;
#X connect 21 3 5 4;
#X connect 21 4 5 5;
#X connect 21 5 5 6;
#X connect 21 6 5 7;
#X connect 21 7 5 8;
#X connect 22 0 6 1;
#X connect 22 1 6 2;
#X connect 22 2 6 3;
#X connect 22 3 6 4;
#X connect 22 4 6 5;
#X connect 22 5 6 6;
#X connect 22 6 6 7;
#X connect 22 7 6 8;
#X connect 23 0 7 1;
#X connect 23 1 7 2;
#X connect 23 2 7 3;
#X connect 23 3 7 4;
#X connect 23 4 7 5;
#X connect 23 5 7 6;
#X connect 23 6 7 7;
#X connect 23 7 7 8;
#X connect 29 0 31 0;
#X connect 29 1 19 0;
#X connect 29 2 30 0;
#X connect 32 0 48 0;
#X connect 33 0 50 0;
#X connect 34 0 52 0;
#X connect 35 0 40 0;
#X connect 36 0 41 0;
#X connect 37 0 32 1;
#X connect 38 0 33 1;
#X connect 39 0 34 1;
#X connect 40 0 38 0;
#X connect 40 0 37 0;
#X connect 40 0 39 0;
#X connect 41 0 39 0;
#X connect 41 0 37 0;
#X connect 41 0 38 0;
#X connect 45 0 87 0;
#X connect 46 0 83 0;
#X connect 47 0 84 0;
#X connect 48 0 49 0;
#X connect 48 1 26 0;
#X connect 49 0 3 0;
#X connect 49 0 124 0;
#X connect 50 0 51 0;
#X connect 50 1 27 0;
#X connect 51 0 3 0;
#X connect 51 0 124 0;
#X connect 52 0 53 0;
#X connect 52 1 28 0;
#X connect 53 0 3 0;
#X connect 53 0 124 0;
#X connect 54 0 64 0;
#X connect 55 0 56 0;
#X connect 55 1 20 0;
#X connect 57 0 61 0;
#X connect 57 0 84 0;
#X connect 58 0 41 0;
#X connect 59 0 77 0;
#X connect 63 0 65 0;
#X connect 64 0 77 0;
#X connect 64 1 87 0;
#X connect 64 2 83 0;
#X connect 64 3 127 0;
#X connect 64 4 126 0;
#X connect 64 5 84 0;
#X connect 64 6 63 0;
#X connect 65 0 66 0;
#X connect 65 0 67 0;
#X connect 66 0 3 0;
#X connect 66 0 124 0;
#X connect 68 0 69 1;
#X connect 69 0 71 0;
#X connect 70 0 73 0;
#X connect 71 0 70 1;
#X connect 71 1 70 2;
#X connect 71 2 70 3;
#X connect 71 3 70 4;
#X connect 71 4 70 5;
#X connect 71 5 70 6;
#X connect 71 6 70 7;
#X connect 71 7 70 8;
#X connect 74 0 63 0;
#X connect 75 0 76 0;
#X connect 75 0 63 0;
#X connect 77 0 4 0;
#X connect 77 0 79 0;
#X connect 78 0 77 0;
#X connect 79 0 80 0;
#X connect 79 1 81 0;
#X connect 80 0 78 0;
#X connect 81 0 78 0;
#X connect 82 0 86 0;
#X connect 83 0 33 0;
#X connect 84 0 34 0;
#X connect 86 0 32 0;
#X connect 87 0 82 0;
#X connect 88 0 96 0;
#X connect 88 0 105 0;
#X connect 89 0 97 0;
#X connect 89 0 106 0;
#X connect 90 0 98 0;
#X connect 90 0 107 0;
#X connect 91 0 99 0;
#X connect 91 0 108 0;
#X connect 92 0 100 0;
#X connect 92 0 109 0;
#X connect 93 0 101 0;
#X connect 93 0 110 0;
#X connect 94 0 102 0;
#X connect 94 0 111 0;
#X connect 95 0 103 0;
#X connect 95 0 112 0;
#X connect 96 0 104 0;
#X connect 96 0 24 0;
#X connect 97 0 104 0;
#X connect 97 0 24 0;
#X connect 98 0 104 0;
#X connect 98 0 24 0;
#X connect 99 0 104 0;
#X connect 99 0 24 0;
#X connect 100 0 104 0;
#X connect 100 0 24 0;
#X connect 101 0 104 0;
#X connect 101 0 24 0;
#X connect 102 0 104 0;
#X connect 102 0 24 0;
#X connect 103 0 104 0;
#X connect 103 0 24 0;
#X connect 104 0 3 0;
#X connect 105 0 113 0;
#X connect 106 0 114 0;
#X connect 107 0 115 0;
#X connect 108 0 116 0;
#X connect 109 0 117 0;
#X connect 110 0 118 0;
#X connect 111 0 119 0;
#X connect 112 0 120 0;
#X connect 113 0 121 0;
#X connect 113 0 25 0;
#X connect 113 0 122 0;
#X connect 114 0 121 0;
#X connect 114 0 25 0;
#X connect 114 0 122 0;
#X connect 115 0 121 0;
#X connect 115 0 25 0;
#X connect 115 0 122 0;
#X connect 116 0 121 0;
#X connect 116 0 25 0;
#X connect 116 0 122 0;
#X connect 117 0 121 0;
#X connect 117 0 25 0;
#X connect 117 0 122 0;
#X connect 118 0 121 0;
#X connect 118 0 25 0;
#X connect 118 0 122 0;
#X connect 119 0 121 0;
#X connect 119 0 25 0;
#X connect 119 0 122 0;
#X connect 120 0 121 0;
#X connect 120 0 25 0;
#X connect 120 0 122 0;
#X connect 121 0 3 0;
#X connect 122 0 123 0;
#X connect 125 0 122 1;
#X connect 126 0 129 0;
#X connect 127 0 128 0;
#X connect 130 0 132 0;
#X connect 131 0 133 0;
#X connect 132 0 88 0;
#X connect 132 1 89 0;
#X connect 132 2 90 0;
#X connect 132 3 91 0;
#X connect 132 4 92 0;
#X connect 132 5 93 0;
#X connect 132 6 94 0;
#X connect 132 7 95 0;
#X connect 133 0 105 0;
#X connect 133 1 106 0;
#X connect 133 2 107 0;
#X connect 133 3 108 0;
#X connect 133 4 109 0;
#X connect 133 5 110 0;
#X connect 133 6 111 0;
#X connect 133 7 112 0;
#X coords 0 -1 1 1 65 157 2 2 2;
