#N canvas 121 159 849 300 12;
#X msg 40 56 generate \$1;
#X msg 128 80 length \$1;
#X msg 208 104 offset \$1;
#X msg 288 128 save \$1;
#X msg 348 152 recall \$1;
#X msg 428 176 density \$1;
#X msg 518 200 clockdivision \$1;
#X obj 40 240 outlet;
#X text 420 36 set \$1 to a prefix to differentiate the [sequ.impl]
this will feed from other [sequ.impl]s;
#X obj 40 32 r sequ_\$1_generate @hv_param 0 1 0;
#X obj 128 56 r sequ_\$1_length @hv_param 1 16 16;
#X obj 208 80 r sequ_\$1_offset @hv_param 0 15 0;
#X obj 288 104 r sequ_\$1_save @hv_param 1 8 1;
#X obj 348 128 r sequ_\$1_recall @hv_param 1 8 1;
#X obj 428 152 r sequ_\$1_density @hv_param 0 1 0;
#X obj 518 176 r sequ_\$1_clockdivision @hv_param 1 1024 4;
#X connect 0 0 7 0;
#X connect 1 0 7 0;
#X connect 2 0 7 0;
#X connect 3 0 7 0;
#X connect 4 0 7 0;
#X connect 5 0 7 0;
#X connect 6 0 7 0;
#X connect 9 0 0 0;
#X connect 10 0 1 0;
#X connect 11 0 2 0;
#X connect 12 0 3 0;
#X connect 13 0 4 0;
#X connect 14 0 5 0;
#X connect 15 0 6 0;
