#N canvas 634 161 762 266 12;
#X obj 2 2 sequ.params;
#X obj 69 207 sequ.impl;
#X obj 69 231 outlet;
#X obj 23 169 inlet;
#X obj 497 117 inlet;
#X connect 0 0 1 1;
#X connect 1 0 2 0;
#X connect 3 0 1 0;
#X connect 4 0 0 0;
#X coords 0 -1 1 1 65 157 2 2 2;
