#N canvas 28 56 762 266 12;
#X obj 2 2 sequ.params;
#X obj 69 207 sequ.impl;
#X obj 69 231 outlet;
#X obj 23 169 inlet;
#X obj 497 117 inlet;
#X obj 18 35 bng 15 50 10 0 empty empty empty 17 7 0 10 #fcfcfc #000000
#000000;
#X connect 0 0 1 1;
#X connect 1 0 2 0;
#X connect 1 0 5 0;
#X connect 3 0 1 0;
#X connect 4 0 0 0;
#X coords 0 -1 1 1 350 120 2 2 2;
