#N canvas 0 38 1512 884 12;
#X msg 15 578 save \$1;
#X msg 72 578 recall \$1;
#X obj 14 486 t f f;
#X obj 409 7 loadbang;
#X msg 445 35 16;
#X msg 500 22 0;
#X obj 58 790 outlet;
#X msg 176 545 generate \$1;
#X obj 638 413 8step, f 40;
#X obj 934 413 8step, f 40;
#X obj 1231 413 8step, f 40;
#X text 814 342 length;
#X text 1052 350 offset;
#X text 1321 345 density;
#X obj 1136 256 r \$0-density;
#X obj 963 291 pack f f;
#X obj 1023 291 pack f f;
#X obj 1083 291 pack f f;
#X obj 1016 218 r \$0-length;
#X obj 1076 237 r \$0-offset;
#X obj 927 196 r \$0-save;
#X obj 535 340 r \$0-recall;
#X obj 558 394 - 1;
#X obj 927 250 - 1;
#X obj 709 373 route 0 1 2 3 4 5 6 7;
#X obj 989 379 route 0 1 2 3 4 5 6 7;
#X obj 1295 372 route 0 1 2 3 4 5 6 7;
#X obj 34 606 s \$0-save;
#X obj 104 606 s \$0-recall;
#X obj 306 671 s \$0-length;
#X obj 461 688 s \$0-offset;
#X obj 705 696 s \$0-density;
#X obj 535 364 t b f b;
#X obj 581 464 s \$0-begin-recall;
#X obj 535 487 s \$0-end-recall;
#X obj 314 617 spigot;
#X obj 410 624 spigot;
#X obj 621 644 spigot;
#X obj 479 543 r \$0-begin-recall;
#X obj 602 543 r \$0-end-recall;
#X obj 350 597 tgl 15 0 empty empty empty 17 7 0 10 #fcfcfc #000000
#000000 0 1;
#X obj 452 605 tgl 15 0 empty empty empty 17 7 0 10 #fcfcfc #000000
#000000 0 1;
#X obj 656 594 tgl 15 0 empty empty empty 17 7 0 10 #fcfcfc #000000
#000000 0 1;
#X msg 479 567 0;
#X msg 602 567 1;
#X obj 638 437 s \$0-recall-length;
#X obj 934 437 s \$0-recall-offset;
#X obj 1231 437 s \$0-recall-density;
#X obj 619 46 r \$0-recall-length;
#X obj 679 65 r \$0-recall-offset;
#X obj 739 84 r \$0-recall-density;
#X obj 314 641 t f f;
#X msg 197 674 length \$1;
#X obj 410 648 t f f;
#X msg 395 704 offset \$1;
#X obj 621 668 t f f;
#X msg 621 692 density \$1;
#X obj 908 6 inlet;
#X obj 927 220 t f f;
#X obj 813 251 s \$0-recall;
#X text 20 461 right after saving \, recall;
#X msg 374 25 0;
#X obj 613 516 loadbang;
#X msg 409 31 1;
#X obj 436 60 s \$0-length;
#X obj 374 117 s \$0-density;
#X obj 511 45 s \$0-offset;
#X floatatom 42 46 3 1 1e+07 0 div - - 12;
#X obj 908 29 route generate length offset save recall density clockdivision
, f 72;
#X obj 280 176 i;
#X msg 284 231 clockdivision \$1;
#X obj 295 212 s \$0-clockdivision;
#X obj 1222 201 r \$0-clockdivision;
#X obj 1143 291 pack f f;
#X obj 1520 413 8step, f 40;
#X obj 1584 372 route 0 1 2 3 4 5 6 7;
#X text 1610 345 clockdivision;
#X obj 1520 437 s \$0-recall-clockdivision;
#X obj 827 114 r \$0-recall-clockdivision;
#X msg 535 129 1;
#X obj 535 153 s \$0-clockdivision;
#X floatatom 37 28 4 0 1 1 - - - 0;
#X obj 25 28 tgl 12 0 empty empty gen -22 8 0 12 #fcfcfc #000000 #000000
0 1;
#X obj 355 153 sel 1;
#X msg 344 176 set 1;
#X msg 392 176 set 0;
#X floatatom 42 64 3 1 16 0 len - - 12;
#X floatatom 42 82 3 0 15 0 off - - 12;
#X floatatom 42 100 3 1 8 0 sav - - 12;
#X floatatom 42 118 3 1 8 0 rec - - 12;
#X obj 5 136 hsl 60 16 0 1 0 0 empty empty empty -55 7 0 12 #fcfcfc
#000000 #000000 0 1;
#X text 4 5 sequ :);
#X obj 266 423 + 0;
#X obj 619 70 - 0;
#X connect 0 0 6 0;
#X connect 1 0 6 0;
#X connect 2 0 89 0;
#X connect 2 1 0 0;
#X connect 2 1 27 0;
#X connect 3 0 4 0;
#X connect 3 0 61 0;
#X connect 3 0 63 0;
#X connect 3 0 5 0;
#X connect 3 0 79 0;
#X connect 4 0 64 0;
#X connect 4 0 86 0;
#X connect 5 0 66 0;
#X connect 5 0 87 0;
#X connect 7 0 6 0;
#X connect 8 0 45 0;
#X connect 9 0 46 0;
#X connect 10 0 47 0;
#X connect 14 0 17 1;
#X connect 15 0 24 0;
#X connect 16 0 25 0;
#X connect 17 0 26 0;
#X connect 18 0 15 1;
#X connect 19 0 16 1;
#X connect 20 0 58 0;
#X connect 21 0 32 0;
#X connect 22 0 8 0;
#X connect 22 0 10 0;
#X connect 22 0 9 0;
#X connect 22 0 74 0;
#X connect 23 0 15 0;
#X connect 23 0 17 0;
#X connect 23 0 16 0;
#X connect 23 0 73 0;
#X connect 24 0 8 1;
#X connect 24 1 8 2;
#X connect 24 2 8 3;
#X connect 24 3 8 4;
#X connect 24 4 8 5;
#X connect 24 5 8 6;
#X connect 24 6 8 7;
#X connect 24 7 8 8;
#X connect 25 0 9 1;
#X connect 25 1 9 2;
#X connect 25 2 9 3;
#X connect 25 3 9 4;
#X connect 25 4 9 5;
#X connect 25 5 9 6;
#X connect 25 6 9 7;
#X connect 25 7 9 8;
#X connect 26 0 10 1;
#X connect 26 1 10 2;
#X connect 26 2 10 3;
#X connect 26 3 10 4;
#X connect 26 4 10 5;
#X connect 26 5 10 6;
#X connect 26 6 10 7;
#X connect 26 7 10 8;
#X connect 32 0 34 0;
#X connect 32 1 22 0;
#X connect 32 2 33 0;
#X connect 35 0 51 0;
#X connect 36 0 53 0;
#X connect 37 0 55 0;
#X connect 38 0 43 0;
#X connect 39 0 44 0;
#X connect 40 0 35 1;
#X connect 41 0 36 1;
#X connect 42 0 37 1;
#X connect 43 0 41 0;
#X connect 43 0 40 0;
#X connect 43 0 42 0;
#X connect 44 0 42 0;
#X connect 44 0 40 0;
#X connect 44 0 41 0;
#X connect 48 0 93 0;
#X connect 49 0 87 0;
#X connect 50 0 90 0;
#X connect 51 0 52 0;
#X connect 51 1 29 0;
#X connect 52 0 6 0;
#X connect 53 0 54 0;
#X connect 53 1 30 0;
#X connect 54 0 6 0;
#X connect 55 0 56 0;
#X connect 55 1 31 0;
#X connect 56 0 6 0;
#X connect 57 0 68 0;
#X connect 58 0 59 0;
#X connect 58 1 23 0;
#X connect 61 0 65 0;
#X connect 61 0 90 0;
#X connect 62 0 44 0;
#X connect 63 0 81 0;
#X connect 67 0 69 0;
#X connect 68 0 81 0;
#X connect 68 1 93 0;
#X connect 68 2 87 0;
#X connect 68 3 88 0;
#X connect 68 4 89 0;
#X connect 68 5 90 0;
#X connect 68 6 67 0;
#X connect 69 0 70 0;
#X connect 69 0 71 0;
#X connect 70 0 6 0;
#X connect 72 0 73 1;
#X connect 73 0 75 0;
#X connect 74 0 77 0;
#X connect 75 0 74 1;
#X connect 75 1 74 2;
#X connect 75 2 74 3;
#X connect 75 3 74 4;
#X connect 75 4 74 5;
#X connect 75 5 74 6;
#X connect 75 6 74 7;
#X connect 75 7 74 8;
#X connect 78 0 67 0;
#X connect 79 0 80 0;
#X connect 79 0 67 0;
#X connect 81 0 7 0;
#X connect 81 0 83 0;
#X connect 82 0 81 0;
#X connect 83 0 84 0;
#X connect 83 1 85 0;
#X connect 84 0 82 0;
#X connect 85 0 82 0;
#X connect 86 0 92 0;
#X connect 87 0 36 0;
#X connect 88 0 2 0;
#X connect 89 0 1 0;
#X connect 89 0 28 0;
#X connect 90 0 37 0;
#X connect 92 0 35 0;
#X connect 93 0 86 0;
#X coords 0 -1 1 1 65 150 2 2 2;
