#N canvas 0 38 1512 884 12;
#X obj 193 73 hradio 15 1 0 8 empty empty save 124 8 0 10 #fcfcfc #000000
#000000 0;
#X obj 193 88 hradio 15 1 0 8 empty empty recall 124 8 0 10 #fcfcfc
#000000 #000000 0;
#X obj 15 554 + 1;
#X msg 15 578 save \$1;
#X obj 88 547 + 1;
#X msg 72 578 recall \$1;
#X obj 14 486 t f f;
#X obj 2 103 mspparam density 0 1 0;
#X obj 409 7 loadbang;
#X msg 445 35 16;
#X msg 500 22 0;
#X text 9 4 ----- sequ :) -----;
#X obj 58 790 outlet;
#X msg 176 545 generate \$1;
#X obj 73 43 hradio 15 1 0 16 empty empty length 242 8 0 10 #fcfcfc
#000000 #000000 0;
#X obj 73 58 hradio 15 1 0 16 empty empty offset 242 8 0 10 #fcfcfc
#000000 #000000 0;
#X obj 34 137 + 1;
#X obj 638 413 8step, f 40;
#X obj 934 413 8step, f 40;
#X obj 1231 413 8step, f 40;
#X text 814 342 length;
#X text 1052 350 offset;
#X text 1321 345 density;
#X obj 1136 256 r \$0-density;
#X obj 963 291 pack f f;
#X obj 1023 291 pack f f;
#X obj 1083 291 pack f f;
#X obj 1016 218 r \$0-length;
#X obj 1076 237 r \$0-offset;
#X obj 927 196 r \$0-save;
#X obj 535 340 r \$0-recall;
#X obj 558 394 - 1;
#X obj 927 250 - 1;
#X obj 709 373 route 0 1 2 3 4 5 6 7;
#X obj 989 379 route 0 1 2 3 4 5 6 7;
#X obj 1295 372 route 0 1 2 3 4 5 6 7;
#X obj 34 606 s \$0-save;
#X obj 104 606 s \$0-recall;
#X obj 306 671 s \$0-length;
#X obj 461 688 s \$0-offset;
#X obj 705 696 s \$0-density;
#X obj 535 364 t b f b;
#X obj 581 464 s \$0-begin-recall;
#X obj 535 487 s \$0-end-recall;
#X obj 314 617 spigot;
#X obj 410 624 spigot;
#X obj 621 644 spigot;
#X obj 479 543 r \$0-begin-recall;
#X obj 602 543 r \$0-end-recall;
#X obj 350 597 tgl 15 0 empty empty empty 17 7 0 10 #fcfcfc #000000
#000000 0 1;
#X obj 452 605 tgl 15 0 empty empty empty 17 7 0 10 #fcfcfc #000000
#000000 0 1;
#X obj 656 594 tgl 15 0 empty empty empty 17 7 0 10 #fcfcfc #000000
#000000 0 1;
#X msg 479 567 0;
#X msg 602 567 1;
#X obj 638 437 s \$0-recall-length;
#X obj 934 437 s \$0-recall-offset;
#X obj 1231 437 s \$0-recall-density;
#X obj 619 46 r \$0-recall-length;
#X obj 679 65 r \$0-recall-offset;
#X obj 739 84 r \$0-recall-density;
#X obj 619 621 route density;
#X obj 314 641 t f f;
#X msg 197 674 length \$1;
#X obj 410 648 t f f;
#X msg 395 704 offset \$1;
#X obj 621 668 t f f;
#X msg 621 692 density \$1;
#X obj 619 70 - 1;
#X obj 908 6 inlet;
#X obj 927 220 t f f;
#X obj 813 251 s \$0-recall;
#X text 20 461 right after saving \, recall;
#X msg 374 25 0;
#X obj 1111 68 - 1;
#X obj 1065 63 - 1;
#X obj 613 516 loadbang;
#X msg 409 31 1;
#X obj 445 59 s \$0-length;
#X obj 374 117 s \$0-density;
#X obj 511 45 s \$0-offset;
#X floatatom 294 20 8 1 1e+07 0 clockdiv - - 12;
#X obj 914 37 route generate length offset save recall density clockdivision
, f 72;
#X obj 280 176 i;
#X msg 284 231 clockdivision \$1;
#X obj 295 212 s \$0-clockdivision;
#X obj 1222 201 r \$0-clockdivision;
#X obj 1143 291 pack f f;
#X obj 1520 413 8step, f 40;
#X obj 1584 372 route 0 1 2 3 4 5 6 7;
#X text 1610 345 clockdivision;
#X obj 1520 437 s \$0-recall-clockdivision;
#X obj 827 114 r \$0-recall-clockdivision;
#X msg 535 129 1;
#X obj 535 153 s \$0-clockdivision;
#X floatatom 294 2 8 0 1 1 - - - 0;
#X obj 276 2 tgl 18 0 empty empty generate -58 7 0 12 #fcfcfc #000000
#000000 0 1;
#X obj 355 153 sel 1;
#X msg 344 176 set 1;
#X msg 392 176 set 0;
#X connect 0 0 6 0;
#X connect 1 0 4 0;
#X connect 2 0 3 0;
#X connect 2 0 36 0;
#X connect 3 0 12 0;
#X connect 4 0 5 0;
#X connect 4 0 37 0;
#X connect 5 0 12 0;
#X connect 6 0 1 0;
#X connect 6 1 2 0;
#X connect 7 0 60 0;
#X connect 8 0 9 0;
#X connect 8 0 72 0;
#X connect 8 0 76 0;
#X connect 8 0 10 0;
#X connect 8 0 92 0;
#X connect 9 0 14 0;
#X connect 9 0 77 0;
#X connect 10 0 15 0;
#X connect 10 0 79 0;
#X connect 13 0 12 0;
#X connect 14 0 16 0;
#X connect 15 0 45 0;
#X connect 16 0 44 0;
#X connect 17 0 54 0;
#X connect 18 0 55 0;
#X connect 19 0 56 0;
#X connect 23 0 26 1;
#X connect 24 0 33 0;
#X connect 25 0 34 0;
#X connect 26 0 35 0;
#X connect 27 0 24 1;
#X connect 28 0 25 1;
#X connect 29 0 69 0;
#X connect 30 0 41 0;
#X connect 31 0 17 0;
#X connect 31 0 19 0;
#X connect 31 0 18 0;
#X connect 31 0 87 0;
#X connect 32 0 24 0;
#X connect 32 0 26 0;
#X connect 32 0 25 0;
#X connect 32 0 86 0;
#X connect 33 0 17 1;
#X connect 33 1 17 2;
#X connect 33 2 17 3;
#X connect 33 3 17 4;
#X connect 33 4 17 5;
#X connect 33 5 17 6;
#X connect 33 6 17 7;
#X connect 33 7 17 8;
#X connect 34 0 18 1;
#X connect 34 1 18 2;
#X connect 34 2 18 3;
#X connect 34 3 18 4;
#X connect 34 4 18 5;
#X connect 34 5 18 6;
#X connect 34 6 18 7;
#X connect 34 7 18 8;
#X connect 35 0 19 1;
#X connect 35 1 19 2;
#X connect 35 2 19 3;
#X connect 35 3 19 4;
#X connect 35 4 19 5;
#X connect 35 5 19 6;
#X connect 35 6 19 7;
#X connect 35 7 19 8;
#X connect 41 0 43 0;
#X connect 41 1 31 0;
#X connect 41 2 42 0;
#X connect 44 0 61 0;
#X connect 45 0 63 0;
#X connect 46 0 65 0;
#X connect 47 0 52 0;
#X connect 48 0 53 0;
#X connect 49 0 44 1;
#X connect 50 0 45 1;
#X connect 51 0 46 1;
#X connect 52 0 50 0;
#X connect 52 0 49 0;
#X connect 52 0 51 0;
#X connect 53 0 51 0;
#X connect 53 0 49 0;
#X connect 53 0 50 0;
#X connect 57 0 67 0;
#X connect 58 0 15 0;
#X connect 59 0 7 0;
#X connect 60 0 46 0;
#X connect 61 0 62 0;
#X connect 61 1 38 0;
#X connect 62 0 12 0;
#X connect 63 0 64 0;
#X connect 63 1 39 0;
#X connect 64 0 12 0;
#X connect 65 0 66 0;
#X connect 65 1 40 0;
#X connect 66 0 12 0;
#X connect 67 0 14 0;
#X connect 68 0 81 0;
#X connect 69 0 70 0;
#X connect 69 1 32 0;
#X connect 72 0 7 0;
#X connect 72 0 78 0;
#X connect 73 0 1 0;
#X connect 74 0 0 0;
#X connect 75 0 53 0;
#X connect 76 0 94 0;
#X connect 80 0 82 0;
#X connect 81 0 94 0;
#X connect 81 1 67 0;
#X connect 81 2 15 0;
#X connect 81 3 74 0;
#X connect 81 4 73 0;
#X connect 81 5 7 0;
#X connect 81 6 80 0;
#X connect 82 0 83 0;
#X connect 82 0 84 0;
#X connect 83 0 12 0;
#X connect 85 0 86 1;
#X connect 86 0 88 0;
#X connect 87 0 90 0;
#X connect 88 0 87 1;
#X connect 88 1 87 2;
#X connect 88 2 87 3;
#X connect 88 3 87 4;
#X connect 88 4 87 5;
#X connect 88 5 87 6;
#X connect 88 6 87 7;
#X connect 88 7 87 8;
#X connect 91 0 80 0;
#X connect 92 0 93 0;
#X connect 92 0 80 0;
#X connect 94 0 13 0;
#X connect 94 0 96 0;
#X connect 95 0 94 0;
#X connect 96 0 97 0;
#X connect 96 1 98 0;
#X connect 97 0 95 0;
#X connect 98 0 95 0;
#X coords 0 -1 1 1 350 120 2 2 2;
