#N canvas 0 25 579 747 12;
#X obj 47 403 inlet~;
#X obj 47 427 *~, f 21;
#X obj 47 451 outlet~;
#X obj 190 331 inlet~;
#X obj 264 328 inlet~;
#X text 188 308 env in;
#X text 261 307 gate in;
#X obj 428 231 tgl 15 0 empty empty empty 17 7 0 10 -262144 -1 -1 0
1;
#X obj 190 355 *~;
#X obj 264 382 *~;
#X msg 428 275 1;
#X obj 428 299 -, f 5;
#X obj 428 323 sig~;
#X obj 495 275 sig~;
#X obj 428 251 t b f f, f 10;
#X obj 264 352 lop~ 100;
#X obj 120 194 vradio 15 1 0 2 empty empty empty 0 -8 0 10 -262144
-1 -1 0;
#X text 137 191 Gate;
#X text 139 208 Env;
#X obj 24 31 inlet;
#X obj 24 55 route mode;
#X text 119 172 Mode;
#X obj 290 60 loadbang;
#X msg 290 84 0;
#X connect 0 0 1 0;
#X connect 1 0 2 0;
#X connect 3 0 8 0;
#X connect 4 0 15 0;
#X connect 7 0 14 0;
#X connect 8 0 1 1;
#X connect 9 0 1 1;
#X connect 10 0 11 0;
#X connect 11 0 12 0;
#X connect 12 0 9 1;
#X connect 13 0 8 1;
#X connect 14 0 10 0;
#X connect 14 1 11 1;
#X connect 14 2 13 0;
#X connect 15 0 9 0;
#X connect 16 0 7 0;
#X connect 19 0 20 0;
#X connect 20 0 16 0;
#X connect 22 0 23 0;
#X connect 23 0 16 0;
#X coords 0 -1 1 1 85 190 2 100 100;
