#N canvas 0 25 583 747 12;
#X obj 265 358 inlet~;
#N canvas 0 25 174 190 vol~ 0;
#X obj 23 147 outlet~;
#X obj 23 123 *~, f 11;
#X msg 97 71 \$1 100;
#X obj 97 95 line~;
#X obj 97 48 * 0.01;
#X obj 23 24 inlet~;
#X obj 97 24 inlet;
#X connect 1 0 0 0;
#X connect 2 0 3 0;
#X connect 3 0 1 1;
#X connect 4 0 2 0;
#X connect 5 0 1 0;
#X connect 6 0 4 0;
#X restore 265 383 pd vol~;
#X obj 182 136 vsl 15 128 0 100 0 0 empty empty empty 0 -9 0 10 -262144
-1 -1 0 1;
#X obj 190 607 outlet~;
#X obj 9 14 inlet;
#X obj 9 38 route square saw sub noise, f 74;
#N canvas 0 25 174 190 vol~ 0;
#X obj 23 147 outlet~;
#X obj 23 123 *~, f 11;
#X msg 97 71 \$1 100;
#X obj 97 95 line~;
#X obj 97 48 * 0.01;
#X obj 23 24 inlet~;
#X obj 97 24 inlet;
#X connect 1 0 0 0;
#X connect 2 0 3 0;
#X connect 3 0 1 1;
#X connect 4 0 2 0;
#X connect 5 0 1 0;
#X connect 6 0 4 0;
#X restore 373 389 pd vol~;
#X obj 216 138 vsl 15 128 0 100 0 0 empty empty empty 0 -9 0 10 -262144
-1 -1 0 1;
#X obj 57 353 inlet~;
#N canvas 0 25 174 190 vol~ 0;
#X obj 23 147 outlet~;
#X obj 23 123 *~, f 11;
#X msg 97 71 \$1 100;
#X obj 97 95 line~;
#X obj 97 48 * 0.01;
#X obj 23 24 inlet~;
#X obj 97 24 inlet;
#X connect 1 0 0 0;
#X connect 2 0 3 0;
#X connect 3 0 1 1;
#X connect 4 0 2 0;
#X connect 5 0 1 0;
#X connect 6 0 4 0;
#X restore 57 378 pd vol~;
#X obj 110 136 vsl 15 128 0 100 0 0 empty empty empty 0 -9 0 10 -262144
-1 -1 0 1;
#X obj 165 359 inlet~;
#N canvas 0 25 174 190 vol~ 0;
#X obj 23 147 outlet~;
#X obj 23 123 *~, f 11;
#X msg 97 71 \$1 100;
#X obj 97 95 line~;
#X obj 97 48 * 0.01;
#X obj 23 24 inlet~;
#X obj 97 24 inlet;
#X connect 1 0 0 0;
#X connect 2 0 3 0;
#X connect 3 0 1 1;
#X connect 4 0 2 0;
#X connect 5 0 1 0;
#X connect 6 0 4 0;
#X restore 165 384 pd vol~;
#X obj 148 137 vsl 15 128 0 100 0 0 empty empty empty 0 -9 0 10 -262144
-1 -1 0 1;
#X text 105 113 Squ;
#X text 138 110 Saw;
#X text 172 110 Sub;
#X text 208 113 Noise;
#X obj 323 351 * 2;
#X obj 373 360 noise~;
#X obj 430 349 * 0.5;
#X connect 0 0 1 0;
#X connect 1 0 3 0;
#X connect 2 0 18 0;
#X connect 4 0 5 0;
#X connect 5 0 10 0;
#X connect 5 1 13 0;
#X connect 5 2 2 0;
#X connect 5 3 7 0;
#X connect 6 0 3 0;
#X connect 7 0 20 0;
#X connect 8 0 9 0;
#X connect 9 0 3 0;
#X connect 10 0 9 1;
#X connect 11 0 12 0;
#X connect 12 0 3 0;
#X connect 13 0 12 1;
#X connect 18 0 1 1;
#X connect 19 0 6 0;
#X connect 20 0 6 1;
#X coords 0 -1 1 1 150 190 2 100 100;
