#N canvas 0 25 582 747 12;
#X obj 138 632 inlet~;
#X obj 138 656 bob~ 100 0.5, f 60;
#X obj 138 680 outlet~;
#X obj 346 632 clip~ 10 19000;
#X obj 110 132 vsl 15 128 5 10000 1 0 empty empty empty 0 -9 0 10 -262144
-1 -1 0 1;
#X text 105 110 Freq;
#X obj 144 135 vsl 15 128 0.5 5 1 0 empty empty empty 0 -9 0 10 -262144
-1 -1 10000 1;
#X text 139 111 Res;
#X obj 27 36 inlet;
#X obj 27 60 route freq res;
#X msg 99 349 \$1 100;
#X obj 99 373 line~;
#X obj 99 397 +~;
#X obj 350 322 inlet~;
#X obj 203 374 *~;
#X obj 244 135 vsl 15 128 0.1 48 1 0 empty empty empty 0 -9 0 10 -262144
-1 -1 4000 1;
#X text 239 111 Kbd;
#X obj 214 135 vsl 15 128 0.05 5 1 0 empty empty empty 0 -9 0 10 -262144
-1 -1 0 1;
#X obj 184 135 vsl 15 128 10 4000 1 0 empty empty empty 0 -9 0 10 -262144
-1 -1 12600 1;
#X text 209 111 Mod;
#X text 179 111 Env;
#X obj 243 305 sig~;
#X text 402 323 freq in;
#X obj 109 437 +~;
#X obj 213 414 *~;
#X obj 317 352 inlet~;
#X text 369 353 env in;
#X obj 154 331 sig~;
#X obj 317 376 *~;
#X obj 154 301 - 10;
#X obj 406 136 - 0.05;
#X msg 406 160 \$1 100;
#X obj 406 184 line~;
#X obj 406 208 *~, f 9;
#X obj 523 36 inlet~;
#X obj 279 553 +~;
#X obj 512 461 *~;
#X text 519 12 mod in;
#X connect 0 0 1 0;
#X connect 1 0 2 0;
#X connect 3 0 1 1;
#X connect 4 0 10 0;
#X connect 6 0 1 2;
#X connect 8 0 9 0;
#X connect 9 0 4 0;
#X connect 9 0 6 0;
#X connect 10 0 11 0;
#X connect 11 0 12 0;
#X connect 12 0 23 0;
#X connect 13 0 14 0;
#X connect 14 0 12 1;
#X connect 15 0 21 0;
#X connect 17 0 30 0;
#X connect 18 0 29 0;
#X connect 21 0 14 1;
#X connect 23 0 35 0;
#X connect 23 0 36 0;
#X connect 24 0 23 1;
#X connect 25 0 28 0;
#X connect 25 0 28 1;
#X connect 27 0 24 1;
#X connect 28 0 24 0;
#X connect 29 0 27 0;
#X connect 30 0 31 0;
#X connect 31 0 32 0;
#X connect 32 0 33 0;
#X connect 33 0 36 1;
#X connect 34 0 33 1;
#X connect 35 0 3 0;
#X connect 36 0 35 1;
#X coords 0 -1 1 1 200 190 2 100 100;
