#N canvas 1 25 579 747 12;
#X obj 91 369 adsr~ 5 100 0.5 1000, f 31;
#X obj 81 433 outlet~;
#X obj 26 22 inlet;
#X obj 26 46 route env;
#X floatatom 86 70 5 0 0 0 - - -;
#X text 126 71 velocity. range: 0 to 1;
#X obj 405 360 > 0;
#X obj 405 384 sig~;
#X obj 405 408 outlet~;
#X text 80 455 env outlet;
#X text 399 430 on/off gate outlet;
#X obj 86 93 t f f f, f 23;
#X obj 147 131 > 0;
#X obj 313 139 vsl 15 128 5 4000 0 0 empty empty empty 0 -9 0 10 -262144
-1 -1 700 1;
#X obj 333 139 vsl 15 128 0 4000 0 0 empty empty empty 0 -9 0 10 -262144
-1 -1 600 1;
#X obj 353 139 vsl 15 128 0 1 0 0 empty empty empty 0 -9 0 10 -262144
-1 -1 1400 1;
#X obj 373 139 vsl 15 128 0 4000 0 0 empty empty empty 0 -9 0 10 -262144
-1 -1 0 1;
#X text 312 119 a;
#X text 334 117 d;
#X text 355 118 s;
#X text 377 116 r;
#X obj 199 2 unpack f f f f;
#X obj 210 616 snapshotter~;
#X obj 214 554 tgl 15 0 empty empty empty 17 7 0 10 -262144 -1 -1 0
1;
#X obj 91 393 *~;
#X obj 210 592 adsr~ 500 100 0.5 1000, f 31;
#X connect 0 0 24 0;
#X connect 0 0 24 1;
#X connect 2 0 3 0;
#X connect 3 0 21 0;
#X connect 3 1 4 0;
#X connect 4 0 11 0;
#X connect 6 0 7 0;
#X connect 7 0 8 0;
#X connect 11 1 12 0;
#X connect 11 2 6 0;
#X connect 12 0 0 0;
#X connect 13 0 0 1;
#X connect 14 0 0 2;
#X connect 15 0 0 3;
#X connect 16 0 0 4;
#X connect 21 0 13 0;
#X connect 21 1 14 0;
#X connect 21 2 15 0;
#X connect 21 3 16 0;
#X connect 23 0 25 0;
#X connect 24 0 1 0;
#X connect 25 0 22 0;
#X coords 0 -1 1 1 100 190 2 300 100;
