#N canvas 105 342 946 602 12;
#X obj 516 55 inlet;
#X obj 125 360 route 0 1 2 3 4 5 6 7 8 9 10 11 12 13 14 15, f 69;
#X obj 595 295 pack f f, f 11;
#X obj 595 269 counter 16;
#X floatatom 107 528 5 0 0 0 - - -;
#X obj 107 551 outlet;
#X obj 516 79 t b b f, f 23;
#X obj 125 133 i;
#X obj 155 133 + 1;
#X obj 125 157 min 16;
#X obj 107 56 inlet;
#X obj 107 81 bng 15 250 50 0 empty empty empty 17 7 0 10 -262144 -1
-1;
#X obj 107 181 f;
#X obj 107 208 t b f;
#X obj 107 257 random;
#X obj 107 281 sel 0 1 2 3 4 5 6 7 8 9 10 11 12 13 14 15;
#X text 510 32 pass a float to write to collection;
#X text 101 29 bang to get a random value from collection;
#X text 126 115 v the number of positions we've written so far;
#X obj 819 56 inlet;
#X obj 819 81 bng 15 250 50 0 empty empty empty 17 7 0 10 -262144 -1
-1;
#X text 816 29 bang to clear;
#X msg 842 361 0;
#X msg 819 246 0;
#X obj 146 234 + 1;
#X text 174 235 because random is 0...n-1;
#X obj 819 111 t b b b;
#X obj 107 439 f;
#X obj 137 439 f;
#X obj 167 439 f;
#X obj 197 439 f;
#X obj 227 439 f;
#X obj 257 439 f;
#X obj 287 439 f;
#X obj 317 439 f;
#X obj 347 439 f;
#X obj 377 439 f;
#X obj 407 439 f;
#X obj 437 439 f;
#X obj 467 439 f;
#X obj 497 439 f;
#X obj 527 439 f;
#X obj 557 439 f;
#X floatatom 125 416 5 0 0 0 - - -;
#X floatatom 155 416 5 0 0 0 - - -;
#X floatatom 185 416 5 0 0 0 - - -;
#X floatatom 215 416 5 0 0 0 - - -;
#X floatatom 245 416 5 0 0 0 - - -;
#X floatatom 275 416 5 0 0 0 - - -;
#X floatatom 305 416 5 0 0 0 - - -;
#X floatatom 335 416 5 0 0 0 - - -;
#X floatatom 365 416 5 0 0 0 - - -;
#X floatatom 395 416 5 0 0 0 - - -;
#X floatatom 425 416 5 0 0 0 - - -;
#X floatatom 455 416 5 0 0 0 - - -;
#X floatatom 485 416 5 0 0 0 - - -;
#X floatatom 515 416 5 0 0 0 - - -;
#X floatatom 545 416 5 0 0 0 - - -;
#X floatatom 575 416 5 0 0 0 - - -;
#X floatatom 175 158 5 0 0 0 - - -;
#X connect 0 0 6 0;
#X connect 1 0 43 0;
#X connect 1 1 44 0;
#X connect 1 2 45 0;
#X connect 1 3 46 0;
#X connect 1 4 47 0;
#X connect 1 5 48 0;
#X connect 1 6 49 0;
#X connect 1 7 50 0;
#X connect 1 8 51 0;
#X connect 1 9 52 0;
#X connect 1 10 53 0;
#X connect 1 11 54 0;
#X connect 1 12 55 0;
#X connect 1 13 56 0;
#X connect 1 14 57 0;
#X connect 1 15 58 0;
#X connect 2 0 1 0;
#X connect 3 0 2 0;
#X connect 4 0 5 0;
#X connect 6 0 7 0;
#X connect 6 1 3 0;
#X connect 6 2 2 1;
#X connect 7 0 8 0;
#X connect 7 0 9 0;
#X connect 8 0 7 1;
#X connect 8 0 59 0;
#X connect 9 0 12 1;
#X connect 10 0 11 0;
#X connect 11 0 12 0;
#X connect 12 0 13 0;
#X connect 13 0 14 0;
#X connect 13 1 24 0;
#X connect 14 0 15 0;
#X connect 15 0 27 0;
#X connect 15 1 28 0;
#X connect 15 2 29 0;
#X connect 15 3 30 0;
#X connect 15 4 31 0;
#X connect 15 5 32 0;
#X connect 15 6 33 0;
#X connect 15 7 34 0;
#X connect 15 8 35 0;
#X connect 15 9 36 0;
#X connect 15 10 37 0;
#X connect 15 11 38 0;
#X connect 15 12 39 0;
#X connect 15 13 40 0;
#X connect 15 14 41 0;
#X connect 15 15 42 0;
#X connect 19 0 20 0;
#X connect 20 0 26 0;
#X connect 22 0 43 0;
#X connect 22 0 58 0;
#X connect 22 0 57 0;
#X connect 22 0 56 0;
#X connect 22 0 55 0;
#X connect 22 0 54 0;
#X connect 22 0 53 0;
#X connect 22 0 52 0;
#X connect 22 0 51 0;
#X connect 22 0 50 0;
#X connect 22 0 49 0;
#X connect 22 0 48 0;
#X connect 22 0 47 0;
#X connect 22 0 46 0;
#X connect 22 0 45 0;
#X connect 22 0 44 0;
#X connect 23 0 7 1;
#X connect 24 0 14 1;
#X connect 26 0 23 0;
#X connect 26 1 22 0;
#X connect 26 2 3 1;
#X connect 27 0 4 0;
#X connect 28 0 4 0;
#X connect 29 0 4 0;
#X connect 30 0 4 0;
#X connect 31 0 4 0;
#X connect 32 0 4 0;
#X connect 33 0 4 0;
#X connect 34 0 4 0;
#X connect 35 0 4 0;
#X connect 36 0 4 0;
#X connect 37 0 4 0;
#X connect 38 0 4 0;
#X connect 39 0 4 0;
#X connect 40 0 4 0;
#X connect 41 0 4 0;
#X connect 42 0 4 0;
#X connect 43 0 27 1;
#X connect 44 0 28 1;
#X connect 45 0 29 1;
#X connect 46 0 30 1;
#X connect 47 0 31 1;
#X connect 48 0 32 1;
#X connect 49 0 33 1;
#X connect 50 0 34 1;
#X connect 51 0 35 1;
#X connect 52 0 36 1;
#X connect 53 0 37 1;
#X connect 54 0 38 1;
#X connect 55 0 39 1;
#X connect 56 0 40 1;
#X connect 57 0 41 1;
#X connect 58 0 42 1;
