#N canvas 330 425 512 339 12;
#X obj 16 89 inlet;
#X obj 16 113 moses \$1;
#X obj 69 137 moses \$2;
#X obj 122 161 moses \$3;
#X obj 175 185 moses \$4;
#X obj 228 209 moses \$5;
#X obj 281 233 moses \$6;
#X obj 334 257 moses \$7;
#X obj 387 281 moses \$8;
#X obj 16 137 outlet;
#X obj 69 161 outlet;
#X obj 122 185 outlet;
#X obj 175 209 outlet;
#X obj 228 233 outlet;
#X obj 281 257 outlet;
#X obj 334 281 outlet;
#X obj 387 305 outlet;
#X obj 440 305 outlet;
#X text 34 20 /// \$1 THROUGH \$8 SLICE UP THE RANGE \, EXCLUSIVE \,
AND GIVE THE INLET FROM THE CORRESPONDING OUTLET. ANYTHING \$8 OR GREATER
IS OUTPUT FROM THE FINAL OUTLET. ONLY WORKS FOR VALUES >= 0;
#X connect 0 0 1 0;
#X connect 1 0 9 0;
#X connect 1 1 2 0;
#X connect 2 0 10 0;
#X connect 2 1 3 0;
#X connect 3 0 11 0;
#X connect 3 1 4 0;
#X connect 4 0 12 0;
#X connect 4 1 5 0;
#X connect 5 0 13 0;
#X connect 5 1 6 0;
#X connect 6 0 14 0;
#X connect 6 1 7 0;
#X connect 7 0 15 0;
#X connect 7 1 8 0;
#X connect 8 0 16 0;
#X connect 8 1 17 0;
#X coords 0 339 1 338 180 20 0;
