#N canvas 396 296 1175 546 12;
#X obj 7 101 inlet;
#X obj 7 517 outlet;
#X obj 811 517 outlet;
#X text 14 9 /// LIKE [sel] \, EXCEPT IT OUTPUTS THE NUMBER INSTEAD
OF A BANG \; /// SUPPORTS \$1 THROUGH \$16 CREATION ARGS \; /// LEFT
OUTLET GIVES THE MATCHING NUMBER \; /// RIGHT OUTLET GIVES NON-MATCHING
NUMBERS.;
#X obj 7 279 f \$1;
#X obj 46 309 f \$2;
#X obj 85 279 f \$3;
#X obj 124 309 f \$4;
#X obj 197 279 f \$5;
#X obj 236 309 f \$6;
#X obj 275 279 f \$7;
#X obj 314 309 f \$8;
#X obj 407 279 f \$9;
#X obj 446 309 f \$10;
#X obj 492 279 f \$11;
#X obj 538 309 f \$12;
#X obj 627 279 f \$13;
#X obj 673 309 f \$14;
#X obj 719 279 f \$15;
#X obj 765 309 f \$16;
#X obj 7 125 sel \$1;
#X obj 46 149 sel \$2;
#X obj 85 175 sel \$3;
#X obj 124 199 sel \$4;
#X obj 197 125 sel \$5;
#X obj 236 149 sel \$6;
#X obj 275 175 sel \$7;
#X obj 314 199 sel \$8;
#X obj 407 125 sel \$9;
#X obj 446 149 sel \$10;
#X obj 492 175 sel \$11;
#X obj 538 199 sel \$12;
#X obj 627 125 sel \$13;
#X obj 673 149 sel \$14;
#X obj 719 175 sel \$15;
#X obj 765 199 sel \$16;
#X connect 0 0 20 0;
#X connect 4 0 1 0;
#X connect 5 0 1 0;
#X connect 6 0 1 0;
#X connect 7 0 1 0;
#X connect 8 0 1 0;
#X connect 9 0 1 0;
#X connect 10 0 1 0;
#X connect 11 0 1 0;
#X connect 12 0 1 0;
#X connect 13 0 1 0;
#X connect 14 0 1 0;
#X connect 15 0 1 0;
#X connect 16 0 1 0;
#X connect 17 0 1 0;
#X connect 18 0 1 0;
#X connect 19 0 1 0;
#X connect 20 0 4 0;
#X connect 20 1 21 0;
#X connect 21 0 5 0;
#X connect 21 1 22 0;
#X connect 22 0 6 0;
#X connect 22 1 23 0;
#X connect 23 0 7 0;
#X connect 23 1 24 0;
#X connect 24 0 8 0;
#X connect 24 1 25 0;
#X connect 25 0 9 0;
#X connect 25 1 26 0;
#X connect 26 0 10 0;
#X connect 26 1 27 0;
#X connect 27 0 11 0;
#X connect 27 1 28 0;
#X connect 28 0 12 0;
#X connect 28 1 29 0;
#X connect 29 0 13 0;
#X connect 29 1 30 0;
#X connect 30 0 14 0;
#X connect 30 1 31 0;
#X connect 31 0 15 0;
#X connect 31 1 32 0;
#X connect 32 0 16 0;
#X connect 32 1 33 0;
#X connect 33 0 17 0;
#X connect 33 1 34 0;
#X connect 34 0 18 0;
#X connect 34 1 35 0;
#X connect 35 0 19 0;
#X connect 35 1 2 0;