#N canvas 0 38 1512 884 12;
#X obj 29 120 bng 15 250 50 0 empty empty empty 17 7 0 10 #fcfcfc #000000
#000000;
#X obj 61 204 t f f, f 25;
#X obj 61 228 / 2051;
#X obj 61 252 * 6.28319;
#X obj 29 92 loadbang;
#X text 133 251 2pi \, since [sin] takes in radians (2pi*r);
#X obj 61 276 t b f;
#X obj 259 201 swap 2048;
#X obj 259 225 -;
#X obj 61 300 t f f f f f f f f f f f f f f f f f f f f f f f f f f
f f f f f f, f 197;
#X obj 61 324 * 1;
#X obj 61 348 sin;
#X obj 61 426 accumulator;
#X obj 106 348 sin;
#X obj 149 348 sin;
#X obj 194 348 sin;
#X obj 238 348 sin;
#X obj 283 348 sin;
#X obj 326 348 sin;
#X obj 371 348 sin;
#X obj 416 348 sin;
#X obj 461 348 sin;
#X obj 504 348 sin;
#X obj 549 348 sin;
#X obj 593 348 sin;
#X obj 638 348 sin;
#X obj 681 348 sin;
#X obj 726 348 sin;
#X obj 771 348 sin;
#X obj 816 348 sin;
#X obj 859 348 sin;
#X obj 904 348 sin;
#X obj 948 348 sin;
#X obj 993 348 sin;
#X obj 1036 348 sin;
#X obj 1081 348 sin;
#X obj 1127 348 sin;
#X obj 1172 348 sin;
#X obj 1215 348 sin;
#X obj 1260 348 sin;
#X obj 1304 348 sin;
#X obj 1349 348 sin;
#X obj 1392 348 sin;
#X obj 1437 348 sin;
#X obj 106 324 * 2;
#X obj 149 324 * 3;
#X obj 194 324 * 4;
#X obj 238 324 * 5;
#X obj 283 324 * 6;
#X obj 326 324 * 7;
#X obj 371 324 * 8;
#X obj 416 324 * 9;
#X obj 461 324 * 10;
#X obj 504 324 * 11;
#X obj 549 324 * 12;
#X obj 593 324 * 13;
#X obj 638 324 * 14;
#X obj 681 324 * 15;
#X obj 726 324 * 16;
#X obj 771 324 * 17;
#X obj 816 324 * 18;
#X obj 859 324 * 19;
#X obj 904 324 * 20;
#X obj 948 324 * 21;
#X obj 993 324 * 22;
#X obj 1036 324 * 23;
#X obj 1081 324 * 24;
#X obj 1127 324 * 25;
#X obj 1172 324 * 26;
#X obj 1215 324 * 27;
#X obj 1260 324 * 28;
#X obj 1304 324 * 29;
#X obj 1349 324 * 30;
#X obj 1392 324 * 31;
#X obj 1437 324 * 32;
#X obj 92 505 abs;
#X obj 61 450 t f f;
#X floatatom 92 553 5 0 0 0 - - - 0;
#X obj 92 529 maxseen;
#X obj 29 728 /, f 10;
#X obj 29 674 t f f, f 22;
#X text 211 646 then normalize;
#X text 192 170 first write to the table;
#X obj 580 158 inlet;
#X obj 580 200 unpack f f f f f f f f f f f f f f f f f f f f f f f
f f f f f f f f f, f 129;
#X obj 61 372 *;
#X obj 106 372 *;
#X obj 149 372 *;
#X obj 194 372 *;
#X obj 238 372 *;
#X obj 283 372 *;
#X obj 326 372 *;
#X obj 371 372 *;
#X obj 416 372 *;
#X obj 461 372 *;
#X obj 504 372 *;
#X obj 549 372 *;
#X obj 593 372 *;
#X obj 638 372 *;
#X obj 681 372 *;
#X obj 726 372 *;
#X obj 771 372 *;
#X obj 816 372 *;
#X obj 859 372 *;
#X obj 904 372 *;
#X obj 948 372 *;
#X obj 993 372 *;
#X obj 1036 372 *;
#X obj 1081 372 *;
#X obj 1127 372 *;
#X obj 1172 372 *;
#X obj 1215 372 *;
#X obj 1260 372 *;
#X obj 1304 372 *;
#X obj 1349 372 *;
#X obj 1392 372 *;
#X obj 1437 372 *;
#X obj 206 43 table sinesum-\$1 2051;
#X obj 61 474 tabwrite sinesum-\$1;
#X obj 29 704 tabread sinesum-\$1;
#X obj 29 752 tabwrite sinesum-\$1;
#X obj 29 140 t b b b, f 10;
#X obj 61 180 countrange 1 2049;
#X obj 29 650 countrange 1 2049;
#X msg 1496 353 0;
#X text 627 149 connections made in a specific order \; can't use a
[t] since input here is a list.;
#X text 516 119 list of up to 32 harmonics \, scaled to 0...1;
#X connect 0 0 121 0;
#X connect 1 0 2 0;
#X connect 1 1 7 0;
#X connect 2 0 3 0;
#X connect 3 0 6 0;
#X connect 4 0 0 0;
#X connect 6 0 12 1;
#X connect 6 1 9 0;
#X connect 7 0 8 0;
#X connect 7 1 8 1;
#X connect 8 0 118 1;
#X connect 9 0 10 0;
#X connect 9 1 44 0;
#X connect 9 2 45 0;
#X connect 9 3 46 0;
#X connect 9 4 47 0;
#X connect 9 5 48 0;
#X connect 9 6 49 0;
#X connect 9 7 50 0;
#X connect 9 8 51 0;
#X connect 9 9 52 0;
#X connect 9 10 53 0;
#X connect 9 11 54 0;
#X connect 9 12 55 0;
#X connect 9 13 56 0;
#X connect 9 14 57 0;
#X connect 9 15 58 0;
#X connect 9 16 59 0;
#X connect 9 17 60 0;
#X connect 9 18 61 0;
#X connect 9 19 62 0;
#X connect 9 20 63 0;
#X connect 9 21 64 0;
#X connect 9 22 65 0;
#X connect 9 23 66 0;
#X connect 9 24 67 0;
#X connect 9 25 68 0;
#X connect 9 26 69 0;
#X connect 9 27 70 0;
#X connect 9 28 71 0;
#X connect 9 29 72 0;
#X connect 9 30 73 0;
#X connect 9 31 74 0;
#X connect 10 0 11 0;
#X connect 11 0 85 0;
#X connect 12 0 76 0;
#X connect 13 0 86 0;
#X connect 14 0 87 0;
#X connect 15 0 88 0;
#X connect 16 0 89 0;
#X connect 17 0 90 0;
#X connect 18 0 91 0;
#X connect 19 0 92 0;
#X connect 20 0 93 0;
#X connect 21 0 94 0;
#X connect 22 0 95 0;
#X connect 23 0 96 0;
#X connect 24 0 97 0;
#X connect 25 0 98 0;
#X connect 26 0 99 0;
#X connect 27 0 100 0;
#X connect 28 0 101 0;
#X connect 29 0 102 0;
#X connect 30 0 103 0;
#X connect 31 0 104 0;
#X connect 32 0 105 0;
#X connect 33 0 106 0;
#X connect 34 0 107 0;
#X connect 35 0 108 0;
#X connect 36 0 109 0;
#X connect 37 0 110 0;
#X connect 38 0 111 0;
#X connect 39 0 112 0;
#X connect 40 0 113 0;
#X connect 41 0 114 0;
#X connect 42 0 115 0;
#X connect 43 0 116 0;
#X connect 44 0 13 0;
#X connect 45 0 14 0;
#X connect 46 0 15 0;
#X connect 47 0 16 0;
#X connect 48 0 17 0;
#X connect 49 0 18 0;
#X connect 50 0 19 0;
#X connect 51 0 20 0;
#X connect 52 0 21 0;
#X connect 53 0 22 0;
#X connect 54 0 23 0;
#X connect 55 0 24 0;
#X connect 56 0 25 0;
#X connect 57 0 26 0;
#X connect 58 0 27 0;
#X connect 59 0 28 0;
#X connect 60 0 29 0;
#X connect 61 0 30 0;
#X connect 62 0 31 0;
#X connect 63 0 32 0;
#X connect 64 0 33 0;
#X connect 65 0 34 0;
#X connect 66 0 35 0;
#X connect 67 0 36 0;
#X connect 68 0 37 0;
#X connect 69 0 38 0;
#X connect 70 0 39 0;
#X connect 71 0 40 0;
#X connect 72 0 41 0;
#X connect 73 0 42 0;
#X connect 74 0 43 0;
#X connect 75 0 78 0;
#X connect 76 0 118 0;
#X connect 76 1 75 0;
#X connect 77 0 79 1;
#X connect 78 0 77 0;
#X connect 79 0 120 0;
#X connect 80 0 119 0;
#X connect 80 1 120 1;
#X connect 83 0 124 0;
#X connect 83 0 84 0;
#X connect 83 0 0 0;
#X connect 84 0 85 1;
#X connect 84 1 86 1;
#X connect 84 2 87 1;
#X connect 84 3 88 1;
#X connect 84 4 89 1;
#X connect 84 5 90 1;
#X connect 84 6 91 1;
#X connect 84 7 92 1;
#X connect 84 8 93 1;
#X connect 84 9 94 1;
#X connect 84 10 95 1;
#X connect 84 11 96 1;
#X connect 84 12 97 1;
#X connect 84 13 98 1;
#X connect 84 14 99 1;
#X connect 84 15 100 1;
#X connect 84 16 101 1;
#X connect 84 17 102 1;
#X connect 84 18 103 1;
#X connect 84 19 104 1;
#X connect 84 20 105 1;
#X connect 84 21 106 1;
#X connect 84 22 107 1;
#X connect 84 23 108 1;
#X connect 84 24 109 1;
#X connect 84 25 110 1;
#X connect 84 26 111 1;
#X connect 84 27 112 1;
#X connect 84 28 113 1;
#X connect 84 29 114 1;
#X connect 84 30 115 1;
#X connect 84 31 116 1;
#X connect 85 0 12 0;
#X connect 86 0 12 0;
#X connect 87 0 12 0;
#X connect 88 0 12 0;
#X connect 89 0 12 0;
#X connect 90 0 12 0;
#X connect 91 0 12 0;
#X connect 92 0 12 0;
#X connect 93 0 12 0;
#X connect 94 0 12 0;
#X connect 95 0 12 0;
#X connect 96 0 12 0;
#X connect 97 0 12 0;
#X connect 98 0 12 0;
#X connect 99 0 12 0;
#X connect 100 0 12 0;
#X connect 101 0 12 0;
#X connect 102 0 12 0;
#X connect 103 0 12 0;
#X connect 104 0 12 0;
#X connect 105 0 12 0;
#X connect 106 0 12 0;
#X connect 107 0 12 0;
#X connect 108 0 12 0;
#X connect 109 0 12 0;
#X connect 110 0 12 0;
#X connect 111 0 12 0;
#X connect 112 0 12 0;
#X connect 113 0 12 0;
#X connect 114 0 12 0;
#X connect 115 0 12 0;
#X connect 116 0 12 0;
#X connect 119 0 79 0;
#X connect 121 0 123 0;
#X connect 121 1 122 0;
#X connect 121 2 78 1;
#X connect 122 0 1 0;
#X connect 123 0 80 0;
#X connect 124 0 116 1;
#X connect 124 0 115 1;
#X connect 124 0 114 1;
#X connect 124 0 113 1;
#X connect 124 0 112 1;
#X connect 124 0 111 1;
#X connect 124 0 110 1;
#X connect 124 0 109 1;
#X connect 124 0 108 1;
#X connect 124 0 107 1;
#X connect 124 0 106 1;
#X connect 124 0 105 1;
#X connect 124 0 104 1;
#X connect 124 0 103 1;
#X connect 124 0 102 1;
#X connect 124 0 101 1;
#X connect 124 0 100 1;
#X connect 124 0 99 1;
#X connect 124 0 98 1;
#X connect 124 0 97 1;
#X connect 124 0 96 1;
#X connect 124 0 95 1;
#X connect 124 0 94 1;
#X connect 124 0 93 1;
#X connect 124 0 92 1;
#X connect 124 0 91 1;
#X connect 124 0 90 1;
#X connect 124 0 89 1;
#X connect 124 0 88 1;
#X connect 124 0 87 1;
#X connect 124 0 86 1;
#X connect 124 0 85 1;
