#N canvas 3 366 1226 556 12;
#X obj 108 184 inlet;
#X obj 1 1 snare~.params;
#X obj 0 239 snare~.impl, f 49;
#X obj 0 263 outlet~;
#X connect 0 0 1 0;
#X connect 1 0 2 0;
#X connect 2 0 3 0;
#X coords 0 -1 1 1 351 159 2 1 1;
