#N canvas 0 137 1512 721 12;
#X obj 41 296 line~;
#X obj 41 344 *~, f 30;
#X obj 381 297 line~;
#X obj 381 321 pow~ 4;
#X obj 381 345 *~, f 29;
#X obj 41 440 +~, f 37;
#X obj 581 272 noise~;
#X obj 41 155 t b b, f 49;
#X obj 41 689 outlet~;
#X obj 248 320 osc~;
#X text 40 29 bang;
#X obj 41 224 t b b, f 21;
#X obj 41 272 pack f f, f 10;
#X msg 185 247 1;
#X msg 41 248 0;
#X obj 108 73 t f f, f 47;
#X obj 108 97 * 0.5;
#X obj 381 224 t b b, f 15;
#X obj 381 272 pack f f;
#X msg 483 247 1;
#X msg 381 248 0;
#X obj 581 296 hip~, f 14;
#X obj 41 502 lop~, f 112;
#X obj 581 320 bp~, f 49;
#X obj 676 68 t f f f, f 21;
#X obj 676 92 + 3000;
#X obj 748 92 + 5000;
#X obj 820 92 + 4000;
#X text 307 438 sum tone and noise signals;
#X text 55 200 tone;
#X text 83 295 ramp from 1 to 0;
#X text 89 319 for snapiness;
#X text 421 297 ramp from 1 to 0;
#X text 427 321 for snapiness;
#X obj 41 416 *~;
#X obj 59 392 ramp~;
#X obj 41 320 pow~ 20;
#X obj 41 73 bng 15 250 50 0 empty empty empty 17 7 0 10 #fcfcfc #000000 #000000;
#X text 427 202 noise;
#X obj 896 19 inlet;
#X obj 1077 396 print UNKNOWN_PARAMETER;
#X obj 896 91 s \$0-duration;
#X obj 992 91 s \$0-tonefreq;
#X obj 1088 91 clip 0 1;
#X obj 1088 139 scaled 0 1 0 10000;
#X obj 1088 162 s \$0-filteroffset;
#X obj 1281 115 s \$0-tonelevel;
#X obj 108 49 r \$0-duration;
#X obj 248 272 r \$0-tonefreq;
#X obj 676 44 r \$0-filteroffset;
#X obj 920 272 r \$0-q;
#X obj 920 296 f;
#X obj 59 368 r \$0-tonelevel;
#X obj 248 296 ramp~;
#X obj 896 43 route duration tonefreq filteroffset q tonelevel clip, f 83;
#X obj 1383 115 s \$0-clip;
#X obj 41 574 softclip~;
#X obj 384 526 r \$0-clip;
#X obj 1384 91 clip 0 1;
#X msg 384 550 amount \$1;
#X obj 1188 210 clip 0 1;
#X obj 1188 281 s \$0-q;
#X obj 1188 234 easeincubic;
#X obj 1188 258 scaled 0 1 2 100;
#X obj 1088 115 easeincubic;
#X obj 896 67 deff 200;
#X obj 992 67 deff 200;
#X obj 1088 67 deff 0;
#X obj 1188 186 deff 0;
#X obj 1281 67 deff 1;
#X obj 1384 67 deff 0;
#X obj 986 359 route velocity;
#X obj 986 383 clip 0 1;
#X obj 986 407 t b f;
#X obj 986 431 s \$0-bang;
#X obj 1018 455 s \$0-velocity;
#X obj 41 665 *~;
#X obj 59 617 r \$0-velocity;
#X obj 59 641 sig~;
#X obj 41 49 r \$0-bang;
#X connect 0 0 36 0;
#X connect 1 0 34 0;
#X connect 2 0 3 0;
#X connect 3 0 4 0;
#X connect 4 0 5 1;
#X connect 5 0 22 0;
#X connect 6 0 21 0;
#X connect 7 0 11 0;
#X connect 7 1 17 0;
#X connect 9 0 1 1;
#X connect 11 0 14 0;
#X connect 11 1 13 0;
#X connect 12 0 0 0;
#X connect 13 0 0 0;
#X connect 14 0 12 0;
#X connect 15 0 16 0;
#X connect 15 1 18 1;
#X connect 16 0 12 1;
#X connect 17 0 20 0;
#X connect 17 1 19 0;
#X connect 18 0 2 0;
#X connect 19 0 2 0;
#X connect 20 0 18 0;
#X connect 21 0 23 0;
#X connect 22 0 56 0;
#X connect 23 0 4 1;
#X connect 24 0 25 0;
#X connect 24 1 26 0;
#X connect 24 2 27 0;
#X connect 25 0 21 1;
#X connect 26 0 23 1;
#X connect 27 0 22 1;
#X connect 34 0 5 0;
#X connect 35 0 34 1;
#X connect 36 0 1 0;
#X connect 37 0 7 0;
#X connect 39 0 54 0;
#X connect 43 0 64 0;
#X connect 44 0 45 0;
#X connect 47 0 15 0;
#X connect 48 0 53 0;
#X connect 49 0 24 0;
#X connect 50 0 51 0;
#X connect 51 0 23 2;
#X connect 52 0 35 0;
#X connect 53 0 9 0;
#X connect 54 0 65 0;
#X connect 54 1 66 0;
#X connect 54 2 67 0;
#X connect 54 3 68 0;
#X connect 54 4 69 0;
#X connect 54 5 70 0;
#X connect 54 6 71 0;
#X connect 56 0 76 0;
#X connect 57 0 59 0;
#X connect 58 0 55 0;
#X connect 59 0 56 1;
#X connect 60 0 62 0;
#X connect 62 0 63 0;
#X connect 63 0 61 0;
#X connect 64 0 44 0;
#X connect 65 0 41 0;
#X connect 66 0 42 0;
#X connect 67 0 43 0;
#X connect 68 0 60 0;
#X connect 69 0 46 0;
#X connect 70 0 58 0;
#X connect 71 0 72 0;
#X connect 71 1 40 0;
#X connect 72 0 73 0;
#X connect 73 0 74 0;
#X connect 73 1 75 0;
#X connect 76 0 8 0;
#X connect 77 0 78 0;
#X connect 78 0 76 1;
#X connect 79 0 37 0;
