#N canvas 92 61 1226 556 12;
#X obj 41 296 line~;
#X obj 41 344 *~, f 30;
#X obj 381 297 line~;
#X obj 381 321 pow~ 4;
#X obj 381 345 *~, f 29;
#X obj 41 438 +~, f 37;
#X obj 581 272 noise~;
#X obj 41 155 t b b, f 49;
#X obj 41 526 outlet~;
#X obj 41 46 inlet;
#X obj 248 320 osc~;
#X obj 248 46 inlet;
#X text 40 26 bang;
#X obj 108 49 inlet;
#X obj 248 70 deff \$2 200;
#X obj 108 73 deff \$1 100;
#X obj 41 224 t b b, f 21;
#X obj 41 272 pack f f, f 10;
#X msg 185 247 1;
#X msg 41 248 0;
#X obj 108 97 t f f, f 34;
#X obj 108 121 * 0.5;
#X obj 381 224 t b b, f 15;
#X obj 381 272 pack f f;
#X msg 483 247 1;
#X msg 381 248 0;
#X obj 676 44 inlet;
#X obj 581 296 hip~, f 14;
#X obj 920 42 inlet;
#X obj 41 502 lop~, f 112;
#X obj 581 320 bp~, f 49;
#X obj 676 68 deff \$3 0;
#X obj 676 92 t f f f, f 21;
#X obj 676 116 + 3000;
#X obj 748 116 + 5000;
#X obj 820 116 + 4000;
#X text 916 20 \$4 q;
#X text 91 28 \$1 duration ms;
#X text 226 25 \$2 tone freq hz;
#X text 307 436 sum tone and noise signals;
#X text 55 200 tone;
#X text 427 202 noise;
#X text 83 295 ramp from 1 to 0;
#X text 89 319 for snapiness;
#X text 421 297 ramp from 1 to 0;
#X text 427 321 for snapiness;
#X text 662 23 \$3 filter offset;
#X obj 41 368 *~;
#X obj 1040 42 inlet;
#X text 1035 22 \$5 tone level;
#X obj 1040 66 deff \$5;
#X obj 920 66 deff \$4 2;
#X obj 1040 90 clip 0 1;
#X obj 1040 114 ramp~;
#X obj 41 320 pow~ 20;
#X connect 0 0 54 0;
#X connect 1 0 47 0;
#X connect 2 0 3 0;
#X connect 3 0 4 0;
#X connect 4 0 5 1;
#X connect 5 0 29 0;
#X connect 6 0 27 0;
#X connect 7 0 16 0;
#X connect 7 1 22 0;
#X connect 9 0 7 0;
#X connect 10 0 1 1;
#X connect 11 0 14 0;
#X connect 13 0 15 0;
#X connect 14 0 10 0;
#X connect 15 0 20 0;
#X connect 16 0 19 0;
#X connect 16 1 18 0;
#X connect 17 0 0 0;
#X connect 18 0 0 0;
#X connect 19 0 17 0;
#X connect 20 0 21 0;
#X connect 20 1 23 1;
#X connect 21 0 17 1;
#X connect 22 0 25 0;
#X connect 22 1 24 0;
#X connect 23 0 2 0;
#X connect 24 0 2 0;
#X connect 25 0 23 0;
#X connect 26 0 31 0;
#X connect 27 0 30 0;
#X connect 28 0 51 0;
#X connect 29 0 8 0;
#X connect 30 0 4 1;
#X connect 31 0 32 0;
#X connect 32 0 33 0;
#X connect 32 1 34 0;
#X connect 32 2 35 0;
#X connect 33 0 27 1;
#X connect 34 0 30 1;
#X connect 35 0 29 1;
#X connect 47 0 5 0;
#X connect 48 0 50 0;
#X connect 50 0 52 0;
#X connect 51 0 30 2;
#X connect 52 0 53 0;
#X connect 53 0 47 1;
#X connect 54 0 1 0;
