#N canvas 292 240 719 449 12;
#X obj 148 307 outlet;
#X obj 181 201 inlet;
#X text 111 3 ----- snare :) -----;
#X obj 2 27 mspparam duration 0 2000 200;
#X obj 2 84 mspparam filteroffset 0 1 0;
#X obj 2 65 mspparam tonelevel 0 1 1;
#X obj 493 272 print UNKNOWN_PARAMETER;
#X obj 2 122 mspparam clip 0 1 0;
#X obj 2 103 mspparam q 0 1 0;
#X obj 2 46 mspparam tonefreq 0 800 200;
#X obj 2 141 mspparam velocity 0 1 1;
#X obj 181 225 route duration tonefreq filteroffset q tonelevel clip
velocity, f 72;
#X connect 1 0 11 0;
#X connect 3 0 0 0;
#X connect 4 0 0 0;
#X connect 5 0 0 0;
#X connect 7 0 0 0;
#X connect 8 0 0 0;
#X connect 9 0 0 0;
#X connect 10 0 0 0;
#X connect 11 0 3 0;
#X connect 11 1 9 0;
#X connect 11 2 4 0;
#X connect 11 3 8 0;
#X connect 11 4 5 0;
#X connect 11 5 7 0;
#X connect 11 6 10 0;
#X connect 11 7 6 0;
#X coords 0 -1 1 1 351 159 2 1 1;
