#N canvas 719 355 450 300 12;
#N canvas 121 159 450 300 impl 0;
#X obj 65 187 inlet~;
#X obj 65 211 *~;
#X obj 185 190 inlet;
#X obj 185 238 scaled 0 1 1 4;
#X obj 185 262 ramp~;
#X obj 65 235 tanh~;
#X obj 65 259 outlet~;
#X obj 185 214 deff \$1 0;
#X connect 0 0 1 0;
#X connect 1 0 5 0;
#X connect 2 0 7 0;
#X connect 3 0 4 0;
#X connect 4 0 1 1;
#X connect 5 0 6 0;
#X connect 7 0 3 0;
#X restore 20 139 pd impl;
#X obj 0 19 mspparam amount 0 1 0;
#X obj 223 92 inlet;
#X obj 223 116 route amount;
#X obj 0 43 route amount;
#X obj 16 101 inlet~;
#X obj 20 163 outlet~;
#X text 80 0 ----- softclip :) -----;
#X connect 0 0 6 0;
#X connect 1 0 4 0;
#X connect 2 0 3 0;
#X connect 3 0 1 0;
#X connect 4 0 0 1;
#X connect 5 0 0 0;
#X coords 0 -1 1 1 350 38 2 0 0;
