#N canvas 0 25 450 300 12;
#X obj 230 80 loadbang;
#X obj 230 104 t b b;
#X msg 230 128 1;
#X msg 262 128 3;
#X obj 230 152 /, f 5;
#X obj 170 176 pow~ 3;
#X obj 170 200 *~, f 9;
#X obj 138 224 -~, f 5;
#X obj 138 105 inlet~;
#X obj 138 271 outlet~;
#X obj 230 176 sig~;
#X text 6 7 based on https://www.reddit.com/r/puredata/comments/qtzt5s/how_to_implement_x_13_x3_soft_clipper/
;
#X connect 0 0 1 0;
#X connect 1 0 2 0;
#X connect 1 1 3 0;
#X connect 2 0 4 0;
#X connect 3 0 4 1;
#X connect 4 0 10 0;
#X connect 5 0 6 0;
#X connect 6 0 7 1;
#X connect 7 0 9 0;
#X connect 8 0 5 0;
#X connect 8 0 7 0;
#X connect 10 0 6 1;
