#N canvas 719 355 608 430 12;
#N canvas 121 159 495 474 impl 0;
#X obj 65 139 inlet~;
#X obj 65 211 *~, f 18;
#X obj 188 139 inlet;
#X obj 188 163 scaled 0 1 1 4;
#X obj 188 187 ramp~;
#X obj 65 235 tanh~;
#X obj 65 259 outlet~;
#X connect 0 0 1 0;
#X connect 1 0 5 0;
#X connect 2 0 3 0;
#X connect 3 0 4 0;
#X connect 4 0 1 1;
#X connect 5 0 6 0;
#X restore 20 252 pd impl;
#X f 43;
#X obj 0 19 mspparam amount 0 1 0;
#X obj 343 52 inlet;
#X obj 343 76 route amount;
#X obj 0 43 route amount;
#X obj 20 191 inlet~;
#X obj 109 363 outlet~;
#X text 80 0 ----- softclip :) -----;
#X obj 226 180 sel 0, f 9;
#X obj 109 294 demux2~;
#X obj 286 204 t b f;
#X msg 226 204 1;
#X msg 286 228 0;
#X connect 0 0 9 0;
#X connect 1 0 4 0;
#X connect 2 0 3 0;
#X connect 3 0 1 0;
#X connect 4 0 8 0;
#X connect 5 0 0 0;
#X connect 5 0 9 1;
#X connect 8 0 11 0;
#X connect 8 1 10 0;
#X connect 9 0 6 0;
#X connect 10 0 12 0;
#X connect 10 1 0 1;
#X connect 11 0 9 2;
#X connect 12 0 9 2;
#X coords 0 -1 1 1 350 38 2 0 0;
