#N canvas 0 25 168 249 12;
#X obj 9 213 outlet~;
#X obj 9 117 phasor~;
#X obj 69 117 phasor~;
#X obj 69 93 *~ -1;
#X obj 55 16 loadbang;
#X msg 115 40 0.5;
#X msg 55 40 0;
#X obj 9 141 +~, f 9;
#X obj 9 165 -~ 1;
#X obj 9 189 *~ 2;
#X obj 9 16 inlet~;
#X connect 1 0 7 0;
#X connect 2 0 7 1;
#X connect 3 0 2 0;
#X connect 4 0 5 0;
#X connect 4 0 6 0;
#X connect 5 0 2 1;
#X connect 6 0 1 1;
#X connect 7 0 8 0;
#X connect 8 0 9 0;
#X connect 9 0 0 0;
#X connect 10 0 1 0;
#X connect 10 0 3 0;
