#N canvas 530 197 341 271 12;
#X obj 15 142 -~;
#X obj 74 85 +~;
#X obj 74 109 wrap~;
#X obj 15 166 +~, f 16;
#X obj 15 190 *~ 2;
#X obj 15 214 -~ 1;
#X obj 15 238 outlet~;
#X text 167 6 pw;
#X text 60 11 freq;
#X obj 15 10 inlet~;
#X obj 15 58 phasor~;
#X obj 189 31 deff \$1 0.5;
#X obj 121 7 inlet;
#X obj 189 55 clip 0 1;
#X msg 189 79 \$1 10;
#X obj 189 103 line~;
#X connect 0 0 3 0;
#X connect 1 0 2 0;
#X connect 2 0 0 1;
#X connect 3 0 4 0;
#X connect 4 0 5 0;
#X connect 5 0 6 0;
#X connect 9 0 10 0;
#X connect 10 0 0 0;
#X connect 10 0 1 0;
#X connect 11 0 13 0;
#X connect 12 0 11 0;
#X connect 13 0 14 0;
#X connect 14 0 15 0;
#X connect 15 0 1 1;
#X connect 15 0 3 1;
