#N canvas 532 197 162 246 12;
#X obj 9 213 outlet~;
#X obj 9 16 inlet;
#X obj 9 40 f \$1;
#X obj 9 64 sig~;
#X obj 9 117 phasor~;
#X obj 69 117 phasor~;
#X obj 69 93 *~ -1;
#X obj 55 16 loadbang;
#X msg 115 40 0.5;
#X msg 55 40 0;
#X obj 9 141 +~, f 9;
#X obj 9 165 -~ 1;
#X obj 9 189 *~ 2;
#X connect 1 0 2 0;
#X connect 2 0 3 0;
#X connect 3 0 4 0;
#X connect 3 0 6 0;
#X connect 4 0 10 0;
#X connect 5 0 10 1;
#X connect 6 0 5 0;
#X connect 7 0 8 0;
#X connect 7 0 9 0;
#X connect 8 0 5 1;
#X connect 9 0 4 1;
#X connect 10 0 11 0;
#X connect 11 0 12 0;
#X connect 12 0 0 0;
