#N canvas 530 197 341 271 12;
#X obj 15 238 outlet~;
#X text 167 6 pw;
#X text 60 11 freq;
#X obj 15 10 inlet~;
#X obj 121 7 inlet;
#X obj 47 88 hv.osc square;
#X obj 121 31 deff \$1 0.5;
#X connect 3 0 5 0;
#X connect 4 0 6 0;
#X connect 5 0 0 0;
#X connect 6 0 5 1;
