#N canvas 610 158 450 494 12;
#X obj 59 202 inlet;
#X obj 59 286 +;
#X obj 103 202 inlet;
#X obj 61 431 outlet;
#X msg 240 350 0;
#X obj 59 226 f;
#X obj 103 226 f;
#X obj 267 198 inlet;
#X obj 267 222 bng 15 250 50 0 empty empty empty 17 7 0 10 -262144
-1 -1;
#X obj 61 407 16step, f 44;
#X obj 81 359 pack f f;
#X obj 81 383 route 0 1 2 3 4 5 6 7 8 9 10 11 12 13 14 15;
#X text 11 9 /// SEND A FLOAT TO THE FIRST INLET \, AND THEN ANOTHER
\, \; /// AND THEN ANOTHER \, ETC. \; /// THEN PASS A 0-BASED INDEX
TO THE SECOND INLET. \; /// THE OUTLET WILL EMIT THE SUM OF THE FLOATS
UP TO THAT \; /// INDEX \, INCLUSIVE. SO PASSING 0 WILL JUST GIVE YOU
THE \; /// FIRST FLOAT BACK \, AND PASSING 2 WILL GIVE YOU THE SUM
\; /// OF THE FIRST 3 FLOATS BACK. \; /// BANG THE THIRD INLET TO CLEAR
OUT ALL STATE \, RESETTING \; /// EVERYTHING BACK TO 0;
#X obj 59 335 counter 16;
#X obj 59 310 t b f f, f 22;
#X connect 0 0 5 0;
#X connect 1 0 14 0;
#X connect 2 0 6 0;
#X connect 4 0 1 1;
#X connect 4 0 9 1;
#X connect 4 0 9 2;
#X connect 4 0 9 3;
#X connect 4 0 9 4;
#X connect 4 0 9 5;
#X connect 4 0 9 6;
#X connect 4 0 9 7;
#X connect 4 0 9 8;
#X connect 4 0 9 9;
#X connect 4 0 9 10;
#X connect 4 0 9 11;
#X connect 4 0 9 12;
#X connect 4 0 9 13;
#X connect 4 0 9 14;
#X connect 4 0 9 15;
#X connect 4 0 9 16;
#X connect 5 0 1 0;
#X connect 6 0 9 0;
#X connect 7 0 8 0;
#X connect 8 0 4 0;
#X connect 9 0 3 0;
#X connect 10 0 11 0;
#X connect 11 0 9 1;
#X connect 11 1 9 2;
#X connect 11 2 9 3;
#X connect 11 3 9 4;
#X connect 11 4 9 5;
#X connect 11 5 9 6;
#X connect 11 6 9 7;
#X connect 11 7 9 8;
#X connect 11 8 9 9;
#X connect 11 9 9 10;
#X connect 11 10 9 11;
#X connect 11 11 9 12;
#X connect 11 12 9 13;
#X connect 11 13 9 14;
#X connect 11 14 9 15;
#X connect 11 15 9 16;
#X connect 13 0 10 0;
#X connect 14 0 13 0;
#X connect 14 1 10 1;
#X connect 14 2 1 1;
