#N canvas 93 130 582 446 12;
#X obj 171 238 sig~;
#X obj 171 262 saw~;
#X obj 171 286 hip~ 500;
#X obj 171 310 lop~ 12000;
#X obj 171 334 chorus~ 0.35 0.75;
#X obj 171 184 mtof;
#X obj 211 238 sig~;
#X obj 211 262 saw~;
#X obj 178 134 t f f;
#X obj 211 160 - 0.19;
#X obj 211 184 mtof;
#X obj 171 358 *~, f 24;
#X obj 186 80 inlet;
#X obj 186 104 unpack f f;
#X obj 171 382 outlet~;
#X text 180 56 midi pitch \, velocity;
#X obj 288 142 adsr~ 200 100 0.5 500;
#X obj 171 208 t f f;
#X floatatom 381 235 5 0 0 0 - - - 0;
#X floatatom 393 281 12 0 0 0 - - - 0;
#X obj 393 257 * 80;
#X text 430 256 basic-ass key tracking;
#X connect 0 0 1 0;
#X connect 1 0 2 0;
#X connect 2 0 3 0;
#X connect 3 0 4 0;
#X connect 4 0 11 0;
#X connect 5 0 17 0;
#X connect 6 0 7 0;
#X connect 7 0 2 0;
#X connect 8 0 9 0;
#X connect 8 1 5 0;
#X connect 9 0 10 0;
#X connect 10 0 6 0;
#X connect 11 0 14 0;
#X connect 12 0 13 0;
#X connect 13 0 8 0;
#X connect 13 1 16 0;
#X connect 16 0 11 1;
#X connect 17 0 18 0;
#X connect 17 1 0 0;
#X connect 18 0 20 0;
#X connect 19 0 3 1;
#X connect 20 0 19 0;
