#N canvas 298 197 811 617 12;
#X obj 2 43 mspparam frequency 0 24000;
#X obj 2 81 mspparam spread;
#X obj 2 100 mspparam character;
#X obj 2 157 mspparam resonance;
#X obj 2 176 mspparam attack 0 100;
#X obj 2 233 mspparam noisemix;
#X obj 2 271 mspparam reverbmix;
#X text 105 2 ----- swarm :) -----;
#X obj 386 64 inlet;
#X obj 67 437 outlet;
#X obj 2 23 hradio 20 1 0 3 empty empty type 60 12 0 12 #fcfcfc #000000
#000000 0;
#X msg 172 396 type \$1;
#X obj 2 138 mspparam lowcutoff 0 24000 24000;
#X obj 2 195 mspparam decay 0 2000;
#X obj 2 62 mspparam velocity 0 1 1;
#X obj 2 119 mspparam highcutoff 0 5000 0;
#X obj 2 252 mspparam noiseshape 0 1 0;
#X obj 2 214 mspparam decayshape 0 1 0;
#X obj 386 88 route type frequency velocity spread character highcutoff
lowcutoff resonance attack decay decayshape noisemix noiseshape reverbmix
;
#X connect 0 0 9 0;
#X connect 1 0 9 0;
#X connect 2 0 9 0;
#X connect 3 0 9 0;
#X connect 4 0 9 0;
#X connect 5 0 9 0;
#X connect 6 0 9 0;
#X connect 8 0 18 0;
#X connect 10 0 11 0;
#X connect 11 0 9 0;
#X connect 12 0 9 0;
#X connect 13 0 9 0;
#X connect 14 0 9 0;
#X connect 15 0 9 0;
#X connect 16 0 9 0;
#X connect 17 0 9 0;
#X connect 18 0 10 0;
#X connect 18 1 0 0;
#X connect 18 2 14 0;
#X connect 18 3 1 0;
#X connect 18 4 2 0;
#X connect 18 5 15 0;
#X connect 18 6 12 0;
#X connect 18 7 3 0;
#X connect 18 8 4 0;
#X connect 18 9 13 0;
#X connect 18 10 17 0;
#X connect 18 11 5 0;
#X connect 18 12 16 0;
#X connect 18 13 6 0;
#X coords 0 -1 1 1 350 288 2 2 2;
