#N canvas 745 117 494 350 12;
#X obj 2 2 swarm~.params;
#X obj 2 323 outlet~;
#X obj 2 299 swarm~.impl;
#X obj 389 137 inlet;
#X connect 0 0 2 0;
#X connect 2 0 1 0;
#X connect 3 0 0 0;
#X coords 0 -1 1 1 204 308 2 2 2;
