#N canvas 298 197 811 617 12;
#X obj 1 42 mspparam frequency 0 24000;
#X obj 1 61 mspparam spread;
#X obj 1 80 mspparam character;
#X obj 1 137 mspparam resonance;
#X obj 1 156 mspparam attack 0 100;
#X obj 1 194 mspparam noisemix;
#X obj 1 213 mspparam reverbmix;
#X text 104 1 ----- swarm :) -----;
#X obj 385 63 inlet;
#X obj 213 329 outlet;
#X obj 1 22 hradio 20 1 0 3 empty empty type 60 12 0 12 #fcfcfc #000000
#000000 0;
#X msg 257 252 type \$1;
#X obj 1 99 mspparam highcutoff 0 24000 0;
#X obj 1 118 mspparam lowcutoff 0 24000 24000;
#X obj 1 175 mspparam decay 0 2000;
#X obj 385 87 route type frequency spread character highcutoff lowcutoff
resonance attack decay noisemix reverbmix;
#X connect 0 0 9 0;
#X connect 1 0 9 0;
#X connect 2 0 9 0;
#X connect 3 0 9 0;
#X connect 4 0 9 0;
#X connect 5 0 9 0;
#X connect 6 0 9 0;
#X connect 8 0 15 0;
#X connect 10 0 11 0;
#X connect 11 0 9 0;
#X connect 12 0 9 0;
#X connect 13 0 9 0;
#X connect 14 0 9 0;
#X connect 15 0 10 0;
#X connect 15 1 0 0;
#X connect 15 2 1 0;
#X connect 15 3 2 0;
#X connect 15 4 12 0;
#X connect 15 5 13 0;
#X connect 15 6 3 0;
#X connect 15 7 4 0;
#X connect 15 8 14 0;
#X connect 15 9 5 0;
#X connect 15 10 6 0;
#X coords 0 -1 1 1 350 231 2 1 1;
