#N canvas 0 38 1512 884 12;
#X floatatom 795 257 5 0 0 0 - - - 0;
#X obj 942 282 loadbang;
#X obj 942 306 bng 15 250 50 0 empty empty empty 17 7 0 10 #fcfcfc
#000000 #000000;
#X msg 942 326 0;
#X obj 57 611 wavefolder~;
#X obj 495 939 outlet~;
#X obj 26 16 inlet;
#X obj 26 64 s \$0-frequency;
#X obj 137 87 s \$0-spread;
#X obj 137 63 clip 0 1;
#X obj 246 67 clip 0 1;
#X obj 246 139 s \$0-character;
#X obj 795 200 r \$0-frequency;
#X obj 662 368 r \$0-character;
#X obj 677 243 r \$0-spread;
#X obj 1310 175 print INVALID_PARAMETER;
#X obj 116 238 unpack f f f f f f f f, f 71;
#X obj 384 68 i;
#X obj 384 92 clip 0 3;
#X obj 676 88 s \$0-resonance;
#X obj 726 659 r \$0-resonance;
#X obj 817 95 s \$0-attack;
#X obj 945 549 r \$0-frequency;
#X obj 945 577 bng 15 250 50 0 empty empty empty 17 7 0 10 #fcfcfc
#000000 #000000;
#X obj 497 787 *~;
#X obj 945 600 ahdsr~, f 63;
#X obj 1007 577 r \$0-attack;
#X obj 1163 566 r \$0-decay;
#X obj 942 99 s \$0-decay;
#X obj 949 74 max 10;
#X obj 498 908 clip~ -1 1;
#X obj 246 91 easeinsine;
#X obj 1040 96 clip 0 1;
#X obj 1040 120 easeincubic;
#X obj 1028 142 s \$0-noisemix;
#X obj 83 496 r \$0-noisemix;
#X obj 69 569 *~;
#X obj 428 480 r \$0-frequency;
#X obj 428 504 bng 15 250 50 0 empty empty empty 17 7 0 10 #fcfcfc
#000000 #000000;
#X obj 646 497 r \$0-decay;
#X obj 26 518 *~;
#X obj 429 531 ahdsr~ 5, f 63;
#X obj 428 555 pow~ 20;
#X obj 246 115 scaled 0 1 0 0.75;
#X obj 26 494 pink~;
#X obj 497 811 hv.reverb;
#X obj 638 819 loadbang;
#X msg 643 848 dry-gain 100;
#X obj 1160 115 s \$0-reverbmix;
#X obj 767 802 r \$0-reverbmix;
#X msg 768 829 wet-gain \$1;
#X obj 1160 91 scaled 0 1 0 100;
#X obj 676 64 scaled 0 1 0 20;
#X floatatom 701 292 5 0 0 0 - - - 0;
#X floatatom 32 156 5 0 0 0 - - - 0;
#X obj 384 116 s \$0-type;
#X obj 116 139 r \$0-type;
#X msg 632 425 wet \$1;
#X obj 714 423 oneminus;
#X msg 714 447 dry \$1;
#X obj 849 398 loadbang;
#X msg 849 422 foldamount 1;
#N canvas 627 364 660 300 multiosc~ 0;
#X obj 54 145 osc~;
#X obj 127 147 saw~;
#X obj 196 148 triangle~;
#X obj 54 204 *~;
#X obj 126 209 *~;
#X obj 197 212 *~;
#X obj 283 30 hradio 15 1 0 3 empty empty empty 0 -8 0 10 #fcfcfc #000000
#000000 0;
#X obj 283 50 sel 0 1 2;
#X msg 211 90 1;
#X msg 242 90 0;
#X msg 278 90 1;
#X msg 309 90 0;
#X msg 346 90 1;
#X msg 377 90 0;
#X obj 71 174 ramp~;
#X obj 139 182 ramp~;
#X obj 217 184 ramp~;
#X obj 99 271 outlet~;
#X obj 48 67 inlet;
#X obj 149 14 inlet;
#X obj 149 38 clip 0 2;
#X obj 449 106 inlet;
#X msg 449 130 0;
#X obj 48 91 ramp~ 5;
#X connect 0 0 3 0;
#X connect 1 0 4 0;
#X connect 2 0 5 0;
#X connect 3 0 17 0;
#X connect 4 0 17 0;
#X connect 5 0 17 0;
#X connect 6 0 7 0;
#X connect 7 0 8 0;
#X connect 7 0 9 0;
#X connect 7 1 10 0;
#X connect 7 1 11 0;
#X connect 7 2 12 0;
#X connect 7 2 13 0;
#X connect 8 0 14 0;
#X connect 9 0 15 0;
#X connect 9 0 16 0;
#X connect 10 0 15 0;
#X connect 11 0 16 0;
#X connect 11 0 14 0;
#X connect 12 0 16 0;
#X connect 13 0 15 0;
#X connect 13 0 14 0;
#X connect 14 0 3 1;
#X connect 15 0 4 1;
#X connect 16 0 5 1;
#X connect 18 0 23 0;
#X connect 19 0 20 0;
#X connect 20 0 6 0;
#X connect 21 0 22 0;
#X connect 22 0 2 1;
#X connect 22 0 1 1;
#X connect 22 0 0 1;
#X connect 23 0 0 0;
#X connect 23 0 2 0;
#X connect 23 0 1 0;
#X restore -8 345 pd multiosc~;
#N canvas 627 364 660 300 multiosc~ 0;
#X obj 54 145 osc~;
#X obj 127 147 saw~;
#X obj 196 148 triangle~;
#X obj 54 204 *~;
#X obj 126 209 *~;
#X obj 197 212 *~;
#X obj 283 30 hradio 15 1 0 3 empty empty empty 0 -8 0 10 #fcfcfc #000000
#000000 0;
#X obj 283 50 sel 0 1 2;
#X msg 211 90 1;
#X msg 242 90 0;
#X msg 278 90 1;
#X msg 309 90 0;
#X msg 346 90 1;
#X msg 377 90 0;
#X obj 71 174 ramp~;
#X obj 139 182 ramp~;
#X obj 217 184 ramp~;
#X obj 99 271 outlet~;
#X obj 48 67 inlet;
#X obj 149 14 inlet;
#X obj 149 38 clip 0 2;
#X obj 449 106 inlet;
#X msg 449 130 0;
#X obj 48 91 ramp~ 5;
#X connect 0 0 3 0;
#X connect 1 0 4 0;
#X connect 2 0 5 0;
#X connect 3 0 17 0;
#X connect 4 0 17 0;
#X connect 5 0 17 0;
#X connect 6 0 7 0;
#X connect 7 0 8 0;
#X connect 7 0 9 0;
#X connect 7 1 10 0;
#X connect 7 1 11 0;
#X connect 7 2 12 0;
#X connect 7 2 13 0;
#X connect 8 0 14 0;
#X connect 9 0 15 0;
#X connect 9 0 16 0;
#X connect 10 0 15 0;
#X connect 11 0 16 0;
#X connect 11 0 14 0;
#X connect 12 0 16 0;
#X connect 13 0 15 0;
#X connect 13 0 14 0;
#X connect 14 0 3 1;
#X connect 15 0 4 1;
#X connect 16 0 5 1;
#X connect 18 0 23 0;
#X connect 19 0 20 0;
#X connect 20 0 6 0;
#X connect 21 0 22 0;
#X connect 22 0 2 1;
#X connect 22 0 1 1;
#X connect 22 0 0 1;
#X connect 23 0 0 0;
#X connect 23 0 2 0;
#X connect 23 0 1 0;
#X restore 85 345 pd multiosc~;
#N canvas 627 364 660 300 multiosc~ 0;
#X obj 54 145 osc~;
#X obj 127 147 saw~;
#X obj 196 148 triangle~;
#X obj 54 204 *~;
#X obj 126 209 *~;
#X obj 197 212 *~;
#X obj 283 30 hradio 15 1 0 3 empty empty empty 0 -8 0 10 #fcfcfc #000000
#000000 0;
#X obj 283 50 sel 0 1 2;
#X msg 211 90 1;
#X msg 242 90 0;
#X msg 278 90 1;
#X msg 309 90 0;
#X msg 346 90 1;
#X msg 377 90 0;
#X obj 71 174 ramp~;
#X obj 139 182 ramp~;
#X obj 217 184 ramp~;
#X obj 99 271 outlet~;
#X obj 48 67 inlet;
#X obj 149 14 inlet;
#X obj 149 38 clip 0 2;
#X obj 449 106 inlet;
#X msg 449 130 0;
#X obj 48 91 ramp~ 5;
#X connect 0 0 3 0;
#X connect 1 0 4 0;
#X connect 2 0 5 0;
#X connect 3 0 17 0;
#X connect 4 0 17 0;
#X connect 5 0 17 0;
#X connect 6 0 7 0;
#X connect 7 0 8 0;
#X connect 7 0 9 0;
#X connect 7 1 10 0;
#X connect 7 1 11 0;
#X connect 7 2 12 0;
#X connect 7 2 13 0;
#X connect 8 0 14 0;
#X connect 9 0 15 0;
#X connect 9 0 16 0;
#X connect 10 0 15 0;
#X connect 11 0 16 0;
#X connect 11 0 14 0;
#X connect 12 0 16 0;
#X connect 13 0 15 0;
#X connect 13 0 14 0;
#X connect 14 0 3 1;
#X connect 15 0 4 1;
#X connect 16 0 5 1;
#X connect 18 0 23 0;
#X connect 19 0 20 0;
#X connect 20 0 6 0;
#X connect 21 0 22 0;
#X connect 22 0 2 1;
#X connect 22 0 1 1;
#X connect 22 0 0 1;
#X connect 23 0 0 0;
#X connect 23 0 2 0;
#X connect 23 0 1 0;
#X restore 178 345 pd multiosc~;
#N canvas 627 364 660 300 multiosc~ 0;
#X obj 54 145 osc~;
#X obj 127 147 saw~;
#X obj 196 148 triangle~;
#X obj 54 204 *~;
#X obj 126 209 *~;
#X obj 197 212 *~;
#X obj 283 30 hradio 15 1 0 3 empty empty empty 0 -8 0 10 #fcfcfc #000000
#000000 0;
#X obj 283 50 sel 0 1 2;
#X msg 211 90 1;
#X msg 242 90 0;
#X msg 278 90 1;
#X msg 309 90 0;
#X msg 346 90 1;
#X msg 377 90 0;
#X obj 71 174 ramp~;
#X obj 139 182 ramp~;
#X obj 217 184 ramp~;
#X obj 99 271 outlet~;
#X obj 48 67 inlet;
#X obj 149 14 inlet;
#X obj 149 38 clip 0 2;
#X obj 449 106 inlet;
#X msg 449 130 0;
#X obj 48 91 ramp~ 5;
#X connect 0 0 3 0;
#X connect 1 0 4 0;
#X connect 2 0 5 0;
#X connect 3 0 17 0;
#X connect 4 0 17 0;
#X connect 5 0 17 0;
#X connect 6 0 7 0;
#X connect 7 0 8 0;
#X connect 7 0 9 0;
#X connect 7 1 10 0;
#X connect 7 1 11 0;
#X connect 7 2 12 0;
#X connect 7 2 13 0;
#X connect 8 0 14 0;
#X connect 9 0 15 0;
#X connect 9 0 16 0;
#X connect 10 0 15 0;
#X connect 11 0 16 0;
#X connect 11 0 14 0;
#X connect 12 0 16 0;
#X connect 13 0 15 0;
#X connect 13 0 14 0;
#X connect 14 0 3 1;
#X connect 15 0 4 1;
#X connect 16 0 5 1;
#X connect 18 0 23 0;
#X connect 19 0 20 0;
#X connect 20 0 6 0;
#X connect 21 0 22 0;
#X connect 22 0 2 1;
#X connect 22 0 1 1;
#X connect 22 0 0 1;
#X connect 23 0 0 0;
#X connect 23 0 2 0;
#X connect 23 0 1 0;
#X restore 271 345 pd multiosc~;
#N canvas 627 364 660 300 multiosc~ 0;
#X obj 54 145 osc~;
#X obj 127 147 saw~;
#X obj 196 148 triangle~;
#X obj 54 204 *~;
#X obj 126 209 *~;
#X obj 197 212 *~;
#X obj 283 30 hradio 15 1 0 3 empty empty empty 0 -8 0 10 #fcfcfc #000000
#000000 0;
#X obj 283 50 sel 0 1 2;
#X msg 211 90 1;
#X msg 242 90 0;
#X msg 278 90 1;
#X msg 309 90 0;
#X msg 346 90 1;
#X msg 377 90 0;
#X obj 71 174 ramp~;
#X obj 139 182 ramp~;
#X obj 217 184 ramp~;
#X obj 99 271 outlet~;
#X obj 48 67 inlet;
#X obj 149 14 inlet;
#X obj 149 38 clip 0 2;
#X obj 449 106 inlet;
#X msg 449 130 0;
#X obj 48 91 ramp~ 5;
#X connect 0 0 3 0;
#X connect 1 0 4 0;
#X connect 2 0 5 0;
#X connect 3 0 17 0;
#X connect 4 0 17 0;
#X connect 5 0 17 0;
#X connect 6 0 7 0;
#X connect 7 0 8 0;
#X connect 7 0 9 0;
#X connect 7 1 10 0;
#X connect 7 1 11 0;
#X connect 7 2 12 0;
#X connect 7 2 13 0;
#X connect 8 0 14 0;
#X connect 9 0 15 0;
#X connect 9 0 16 0;
#X connect 10 0 15 0;
#X connect 11 0 16 0;
#X connect 11 0 14 0;
#X connect 12 0 16 0;
#X connect 13 0 15 0;
#X connect 13 0 14 0;
#X connect 14 0 3 1;
#X connect 15 0 4 1;
#X connect 16 0 5 1;
#X connect 18 0 23 0;
#X connect 19 0 20 0;
#X connect 20 0 6 0;
#X connect 21 0 22 0;
#X connect 22 0 2 1;
#X connect 22 0 1 1;
#X connect 22 0 0 1;
#X connect 23 0 0 0;
#X connect 23 0 2 0;
#X connect 23 0 1 0;
#X restore 364 345 pd multiosc~;
#N canvas 627 364 660 300 multiosc~ 0;
#X obj 54 145 osc~;
#X obj 127 147 saw~;
#X obj 196 148 triangle~;
#X obj 54 204 *~;
#X obj 126 209 *~;
#X obj 197 212 *~;
#X obj 283 30 hradio 15 1 0 3 empty empty empty 0 -8 0 10 #fcfcfc #000000
#000000 0;
#X obj 283 50 sel 0 1 2;
#X msg 211 90 1;
#X msg 242 90 0;
#X msg 278 90 1;
#X msg 309 90 0;
#X msg 346 90 1;
#X msg 377 90 0;
#X obj 71 174 ramp~;
#X obj 139 182 ramp~;
#X obj 217 184 ramp~;
#X obj 99 271 outlet~;
#X obj 48 67 inlet;
#X obj 149 14 inlet;
#X obj 149 38 clip 0 2;
#X obj 449 106 inlet;
#X msg 449 130 0;
#X obj 48 91 ramp~ 5;
#X connect 0 0 3 0;
#X connect 1 0 4 0;
#X connect 2 0 5 0;
#X connect 3 0 17 0;
#X connect 4 0 17 0;
#X connect 5 0 17 0;
#X connect 6 0 7 0;
#X connect 7 0 8 0;
#X connect 7 0 9 0;
#X connect 7 1 10 0;
#X connect 7 1 11 0;
#X connect 7 2 12 0;
#X connect 7 2 13 0;
#X connect 8 0 14 0;
#X connect 9 0 15 0;
#X connect 9 0 16 0;
#X connect 10 0 15 0;
#X connect 11 0 16 0;
#X connect 11 0 14 0;
#X connect 12 0 16 0;
#X connect 13 0 15 0;
#X connect 13 0 14 0;
#X connect 14 0 3 1;
#X connect 15 0 4 1;
#X connect 16 0 5 1;
#X connect 18 0 23 0;
#X connect 19 0 20 0;
#X connect 20 0 6 0;
#X connect 21 0 22 0;
#X connect 22 0 2 1;
#X connect 22 0 1 1;
#X connect 22 0 0 1;
#X connect 23 0 0 0;
#X connect 23 0 2 0;
#X connect 23 0 1 0;
#X restore 457 345 pd multiosc~;
#N canvas 627 364 660 300 multiosc~ 0;
#X obj 54 145 osc~;
#X obj 127 147 saw~;
#X obj 196 148 triangle~;
#X obj 54 204 *~;
#X obj 126 209 *~;
#X obj 197 212 *~;
#X obj 283 30 hradio 15 1 0 3 empty empty empty 0 -8 0 10 #fcfcfc #000000
#000000 0;
#X obj 283 50 sel 0 1 2;
#X msg 211 90 1;
#X msg 242 90 0;
#X msg 278 90 1;
#X msg 309 90 0;
#X msg 346 90 1;
#X msg 377 90 0;
#X obj 71 174 ramp~;
#X obj 139 182 ramp~;
#X obj 217 184 ramp~;
#X obj 99 271 outlet~;
#X obj 48 67 inlet;
#X obj 149 14 inlet;
#X obj 149 38 clip 0 2;
#X obj 449 106 inlet;
#X msg 449 130 0;
#X obj 48 91 ramp~ 5;
#X connect 0 0 3 0;
#X connect 1 0 4 0;
#X connect 2 0 5 0;
#X connect 3 0 17 0;
#X connect 4 0 17 0;
#X connect 5 0 17 0;
#X connect 6 0 7 0;
#X connect 7 0 8 0;
#X connect 7 0 9 0;
#X connect 7 1 10 0;
#X connect 7 1 11 0;
#X connect 7 2 12 0;
#X connect 7 2 13 0;
#X connect 8 0 14 0;
#X connect 9 0 15 0;
#X connect 9 0 16 0;
#X connect 10 0 15 0;
#X connect 11 0 16 0;
#X connect 11 0 14 0;
#X connect 12 0 16 0;
#X connect 13 0 15 0;
#X connect 13 0 14 0;
#X connect 14 0 3 1;
#X connect 15 0 4 1;
#X connect 16 0 5 1;
#X connect 18 0 23 0;
#X connect 19 0 20 0;
#X connect 20 0 6 0;
#X connect 21 0 22 0;
#X connect 22 0 2 1;
#X connect 22 0 1 1;
#X connect 22 0 0 1;
#X connect 23 0 0 0;
#X connect 23 0 2 0;
#X connect 23 0 1 0;
#X restore 550 345 pd multiosc~;
#N canvas 627 364 660 300 multiosc~ 0;
#X obj 54 145 osc~;
#X obj 127 147 saw~;
#X obj 196 148 triangle~;
#X obj 54 204 *~;
#X obj 126 209 *~;
#X obj 197 212 *~;
#X obj 283 30 hradio 15 1 0 3 empty empty empty 0 -8 0 10 #fcfcfc #000000
#000000 0;
#X obj 283 50 sel 0 1 2;
#X msg 211 90 1;
#X msg 242 90 0;
#X msg 278 90 1;
#X msg 309 90 0;
#X msg 346 90 1;
#X msg 377 90 0;
#X obj 71 174 ramp~;
#X obj 139 182 ramp~;
#X obj 217 184 ramp~;
#X obj 99 271 outlet~;
#X obj 48 67 inlet;
#X obj 149 14 inlet;
#X obj 149 38 clip 0 2;
#X obj 449 106 inlet;
#X msg 449 130 0;
#X obj 48 91 ramp~ 5;
#X connect 0 0 3 0;
#X connect 1 0 4 0;
#X connect 2 0 5 0;
#X connect 3 0 17 0;
#X connect 4 0 17 0;
#X connect 5 0 17 0;
#X connect 6 0 7 0;
#X connect 7 0 8 0;
#X connect 7 0 9 0;
#X connect 7 1 10 0;
#X connect 7 1 11 0;
#X connect 7 2 12 0;
#X connect 7 2 13 0;
#X connect 8 0 14 0;
#X connect 9 0 15 0;
#X connect 9 0 16 0;
#X connect 10 0 15 0;
#X connect 11 0 16 0;
#X connect 11 0 14 0;
#X connect 12 0 16 0;
#X connect 13 0 15 0;
#X connect 13 0 14 0;
#X connect 14 0 3 1;
#X connect 15 0 4 1;
#X connect 16 0 5 1;
#X connect 18 0 23 0;
#X connect 19 0 20 0;
#X connect 20 0 6 0;
#X connect 21 0 22 0;
#X connect 22 0 2 1;
#X connect 22 0 1 1;
#X connect 22 0 0 1;
#X connect 23 0 0 0;
#X connect 23 0 2 0;
#X connect 23 0 1 0;
#X restore 643 345 pd multiosc~;
#X obj 1151 330 hradio 15 1 0 3 empty empty sine_saw_tri 50 6 0 10
#fcfcfc #000000 #000000 0;
#X obj 1161 257 sel 0 1 2 3, f 23;
#X msg 1151 301 0;
#X msg 1184 301 1;
#X msg 1220 301 2;
#X text 1154 210 map type to waveforms;
#X obj 1161 233 r \$0-type;
#X obj 66 807 r \$0-spread;
#X obj 66 855 ramp~;
#X obj 365 870 *~, f 22;
#X text 10 770 to make up for phase cancellation with high spread values
\, \; applly some make-up gain;
#X text 901 258 align phase any time type changes;
#X obj 875 282 r \$0-type;
#X obj 633 393 easeoutsine;
#X floatatom 541 428 5 0 0 0 - - - 0;
#X floatatom 581 429 5 0 0 0 - - - 0;
#X obj 721 392 easeinsine;
#X obj 116 166 sel 0 1 2, f 77;
#X obj 495 726 heavylib/hv.filters/highpass;
#X obj 493 760 heavylib/hv.filters/lowpass;
#X obj 26 40 route frequency spread character type highcutoff lowcutoff
resonance attack decay noisemix reverbmix, f 178;
#X obj 456 69 s \$0-highcutoff;
#X obj 567 69 s \$0-lowcutoff;
#X obj 578 657 r \$0-highcutoff;
#X obj 787 718 r \$0-lowcutoff;
#X obj 818 71 max 5;
#X obj -8 369 scaled~ -1 1 0 1;
#X obj 85 396 scaled~ -1 1 0 1;
#X obj 174 370 scaled~ -1 1 0 1;
#X obj 267 397 scaled~ -1 1 0 1;
#X obj 229 427 scaled~ -1 1 -1 0;
#X obj 322 454 scaled~ -1 1 -1 0;
#X obj 411 428 scaled~ -1 1 -1 0;
#X obj 504 455 scaled~ -1 1 -1 0;
#X obj 193 470 *~ 0.25;
#X obj 99 275 harmonicsdetuner;
#X obj 179 295 harmonicsdetuner;
#X obj 259 275 harmonicsdetuner;
#X obj 339 295 harmonicsdetuner;
#X obj 419 275 harmonicsdetuner;
#X obj 499 295 harmonicsdetuner;
#X obj 579 275 harmonicsdetuner;
#X msg 53 196 2 3 4 5 6 7;
#X obj 66 831 scaled 0 1 1 1;
#X msg 532 198 0.125 0.25 0.3333 0.5 2 3 4 8;
#X msg 290 197 0.1 0.2 0.25 0.5 2 4 5 10;
#X obj 945 624 pow~ 3;
#X obj 1308 58 loadbang;
#X msg 1308 82 0;
#X obj 26 97 loadbang;
#X msg 26 121 0;
#X obj 499 113 loadbang;
#X msg 499 137 0;
#X connect 0 0 111 0;
#X connect 0 0 105 0;
#X connect 0 0 106 0;
#X connect 0 0 107 0;
#X connect 0 0 108 0;
#X connect 0 0 109 0;
#X connect 0 0 110 0;
#X connect 0 0 62 0;
#X connect 1 0 2 0;
#X connect 2 0 3 0;
#X connect 3 0 69 2;
#X connect 3 0 68 2;
#X connect 3 0 67 2;
#X connect 3 0 66 2;
#X connect 3 0 65 2;
#X connect 3 0 64 2;
#X connect 3 0 63 2;
#X connect 3 0 62 2;
#X connect 4 0 88 0;
#X connect 6 0 90 0;
#X connect 9 0 8 0;
#X connect 10 0 31 0;
#X connect 12 0 0 0;
#X connect 13 0 83 0;
#X connect 13 0 86 0;
#X connect 14 0 53 0;
#X connect 14 0 111 2;
#X connect 14 0 105 2;
#X connect 14 0 106 2;
#X connect 14 0 107 2;
#X connect 14 0 108 2;
#X connect 14 0 109 2;
#X connect 14 0 110 2;
#X connect 16 1 105 1;
#X connect 16 2 106 1;
#X connect 16 3 107 1;
#X connect 16 4 108 1;
#X connect 16 5 109 1;
#X connect 16 6 110 1;
#X connect 16 7 111 1;
#X connect 17 0 18 0;
#X connect 18 0 55 0;
#X connect 20 0 88 2;
#X connect 20 0 89 2;
#X connect 22 0 23 0;
#X connect 23 0 25 0;
#X connect 24 0 45 0;
#X connect 25 0 116 0;
#X connect 26 0 25 1;
#X connect 27 0 25 3;
#X connect 29 0 28 0;
#X connect 30 0 5 0;
#X connect 31 0 43 0;
#X connect 32 0 33 0;
#X connect 33 0 34 0;
#X connect 35 0 36 1;
#X connect 36 0 4 0;
#X connect 37 0 38 0;
#X connect 38 0 41 0;
#X connect 39 0 41 3;
#X connect 40 0 36 0;
#X connect 41 0 42 0;
#X connect 42 0 40 1;
#X connect 43 0 11 0;
#X connect 44 0 40 0;
#X connect 45 0 79 1;
#X connect 45 1 79 1;
#X connect 46 0 47 0;
#X connect 47 0 45 1;
#X connect 49 0 50 0;
#X connect 50 0 45 1;
#X connect 51 0 48 0;
#X connect 52 0 19 0;
#X connect 56 0 54 0;
#X connect 56 0 87 0;
#X connect 57 0 4 1;
#X connect 58 0 59 0;
#X connect 58 0 85 0;
#X connect 59 0 4 1;
#X connect 60 0 61 0;
#X connect 61 0 4 1;
#X connect 62 0 96 0;
#X connect 63 0 97 0;
#X connect 64 0 98 0;
#X connect 65 0 99 0;
#X connect 66 0 100 0;
#X connect 67 0 101 0;
#X connect 68 0 102 0;
#X connect 69 0 103 0;
#X connect 70 0 69 1;
#X connect 70 0 68 1;
#X connect 70 0 67 1;
#X connect 70 0 66 1;
#X connect 70 0 65 1;
#X connect 70 0 64 1;
#X connect 70 0 63 1;
#X connect 70 0 62 1;
#X connect 71 0 72 0;
#X connect 71 1 73 0;
#X connect 71 2 74 0;
#X connect 72 0 70 0;
#X connect 73 0 70 0;
#X connect 74 0 70 0;
#X connect 76 0 71 0;
#X connect 77 0 113 0;
#X connect 78 0 79 0;
#X connect 79 0 30 0;
#X connect 82 0 2 0;
#X connect 83 0 57 0;
#X connect 83 0 84 0;
#X connect 86 0 58 0;
#X connect 87 0 112 0;
#X connect 87 1 115 0;
#X connect 87 2 114 0;
#X connect 88 0 89 0;
#X connect 89 0 24 0;
#X connect 90 0 7 0;
#X connect 90 1 9 0;
#X connect 90 2 10 0;
#X connect 90 3 17 0;
#X connect 90 4 91 0;
#X connect 90 5 92 0;
#X connect 90 6 52 0;
#X connect 90 7 95 0;
#X connect 90 8 29 0;
#X connect 90 9 32 0;
#X connect 90 10 51 0;
#X connect 90 11 15 0;
#X connect 93 0 88 1;
#X connect 94 0 89 1;
#X connect 95 0 21 0;
#X connect 96 0 104 0;
#X connect 97 0 104 0;
#X connect 98 0 104 0;
#X connect 99 0 104 0;
#X connect 100 0 104 0;
#X connect 101 0 104 0;
#X connect 102 0 104 0;
#X connect 103 0 104 0;
#X connect 104 0 4 0;
#X connect 105 0 63 0;
#X connect 106 0 64 0;
#X connect 107 0 65 0;
#X connect 108 0 66 0;
#X connect 109 0 67 0;
#X connect 110 0 68 0;
#X connect 111 0 69 0;
#X connect 112 0 16 0;
#X connect 113 0 78 0;
#X connect 114 0 16 0;
#X connect 115 0 16 0;
#X connect 116 0 24 1;
#X connect 117 0 118 0;
#X connect 118 0 51 0;
#X connect 119 0 120 0;
#X connect 120 0 9 0;
#X connect 121 0 122 0;
#X connect 122 0 17 0;
