#N canvas 0 38 1512 884 12;
#X floatatom 795 257 5 0 0 0 - - - 0;
#X obj 942 282 loadbang;
#X obj 942 306 bng 15 250 50 0 empty empty empty 17 7 0 10 #fcfcfc #000000 #000000;
#X msg 942 326 0;
#X obj 57 671 wavefolder~;
#X obj 498 979 outlet~;
#X obj 26 16 inlet;
#X obj 26 64 s \$0-frequency;
#X obj 137 87 s \$0-spread;
#X obj 137 63 clip 0 1;
#X obj 246 67 clip 0 1;
#X obj 246 139 s \$0-character;
#X obj 795 233 r \$0-frequency;
#X obj 146 770 r \$0-character;
#X obj 1907 145 print INVALID_PARAMETER;
#X obj 116 238 unpack f f f f f f f f, f 71;
#X obj 384 68 i;
#X obj 384 92 clip 0 3;
#X obj 676 88 s \$0-resonance;
#X obj 726 699 r \$0-resonance;
#X obj 817 95 s \$0-attack;
#X obj 1005 650 r \$0-frequency;
#X obj 1005 742 bng 15 250 50 0 empty empty empty 17 7 0 10 #fcfcfc #000000 #000000;
#X obj 494 837 *~;
#X obj 1005 765 ahdsr~, f 63;
#X obj 1092 742 r \$0-attack;
#X obj 1266 741 r \$0-decay;
#X obj 942 99 s \$0-decay;
#X obj 949 74 max 10;
#X obj 498 948 clip~ -1 1;
#X obj 246 91 easeinsine;
#X obj 1040 96 clip 0 1;
#X obj 1040 120 easeincubic;
#X obj 1028 142 s \$0-noisemix;
#X obj 83 556 r \$0-noisemix;
#X obj 69 629 *~;
#X obj 429 571 bng 15 250 50 0 empty empty empty 17 7 0 10 #fcfcfc #000000 #000000;
#X obj 691 567 r \$0-decay;
#X obj 26 578 *~;
#X obj 429 591 ahdsr~ 5, f 63;
#X obj 246 115 scaled 0 1 0 0.75;
#X obj 26 554 pink~;
#X obj 494 871 hv.reverb;
#X obj 853 830 loadbang;
#X msg 853 852 dry-gain 100;
#X obj 1160 115 s \$0-reverbmix;
#X obj 956 828 r \$0-reverbmix;
#X msg 957 852 wet-gain \$1;
#X obj 1160 91 scaled 0 1 0 100;
#X obj 676 64 scaled 0 1 0 20;
#X floatatom 701 292 5 0 0 0 - - - 0;
#X floatatom 32 156 5 0 0 0 - - - 0;
#X obj 384 116 s \$0-type;
#X obj 116 139 r \$0-type;
#X msg 116 827 wet \$1;
#X obj 198 825 oneminus;
#X msg 198 849 dry \$1;
#X obj 602 628 loadbang;
#X msg 602 652 foldamount 1;
#N canvas 627 364 660 300 multiosc~ 0;
#X obj 54 145 osc~;
#X obj 127 147 saw~;
#X obj 196 148 triangle~;
#X obj 54 204 *~;
#X obj 126 209 *~;
#X obj 197 212 *~;
#X obj 283 30 hradio 15 1 0 3 empty empty empty 0 -8 0 10 #fcfcfc #000000 #000000 0;
#X obj 283 50 sel 0 1 2;
#X msg 211 90 1;
#X msg 242 90 0;
#X msg 278 90 1;
#X msg 309 90 0;
#X msg 346 90 1;
#X msg 377 90 0;
#X obj 71 174 ramp~;
#X obj 139 182 ramp~;
#X obj 217 184 ramp~;
#X obj 99 271 outlet~;
#X obj 48 67 inlet;
#X obj 149 14 inlet;
#X obj 149 38 clip 0 2;
#X obj 449 106 inlet;
#X msg 449 130 0;
#X obj 48 91 ramp~ 5;
#X connect 0 0 3 0;
#X connect 1 0 4 0;
#X connect 2 0 5 0;
#X connect 3 0 17 0;
#X connect 4 0 17 0;
#X connect 5 0 17 0;
#X connect 6 0 7 0;
#X connect 7 0 8 0;
#X connect 7 0 9 0;
#X connect 7 1 10 0;
#X connect 7 1 11 0;
#X connect 7 2 12 0;
#X connect 7 2 13 0;
#X connect 8 0 14 0;
#X connect 9 0 15 0;
#X connect 9 0 16 0;
#X connect 10 0 15 0;
#X connect 11 0 16 0;
#X connect 11 0 14 0;
#X connect 12 0 16 0;
#X connect 13 0 15 0;
#X connect 13 0 14 0;
#X connect 14 0 3 1;
#X connect 15 0 4 1;
#X connect 16 0 5 1;
#X connect 18 0 23 0;
#X connect 19 0 20 0;
#X connect 20 0 6 0;
#X connect 21 0 22 0;
#X connect 22 0 2 1;
#X connect 22 0 1 1;
#X connect 22 0 0 1;
#X connect 23 0 0 0;
#X connect 23 0 2 0;
#X connect 23 0 1 0;
#X restore -8 345 pd multiosc~;
#N canvas 627 364 660 300 multiosc~ 0;
#X obj 54 145 osc~;
#X obj 127 147 saw~;
#X obj 196 148 triangle~;
#X obj 54 204 *~;
#X obj 126 209 *~;
#X obj 197 212 *~;
#X obj 283 30 hradio 15 1 0 3 empty empty empty 0 -8 0 10 #fcfcfc #000000 #000000 0;
#X obj 283 50 sel 0 1 2;
#X msg 211 90 1;
#X msg 242 90 0;
#X msg 278 90 1;
#X msg 309 90 0;
#X msg 346 90 1;
#X msg 377 90 0;
#X obj 71 174 ramp~;
#X obj 139 182 ramp~;
#X obj 217 184 ramp~;
#X obj 99 271 outlet~;
#X obj 48 67 inlet;
#X obj 149 14 inlet;
#X obj 149 38 clip 0 2;
#X obj 449 106 inlet;
#X msg 449 130 0;
#X obj 48 91 ramp~ 5;
#X connect 0 0 3 0;
#X connect 1 0 4 0;
#X connect 2 0 5 0;
#X connect 3 0 17 0;
#X connect 4 0 17 0;
#X connect 5 0 17 0;
#X connect 6 0 7 0;
#X connect 7 0 8 0;
#X connect 7 0 9 0;
#X connect 7 1 10 0;
#X connect 7 1 11 0;
#X connect 7 2 12 0;
#X connect 7 2 13 0;
#X connect 8 0 14 0;
#X connect 9 0 15 0;
#X connect 9 0 16 0;
#X connect 10 0 15 0;
#X connect 11 0 16 0;
#X connect 11 0 14 0;
#X connect 12 0 16 0;
#X connect 13 0 15 0;
#X connect 13 0 14 0;
#X connect 14 0 3 1;
#X connect 15 0 4 1;
#X connect 16 0 5 1;
#X connect 18 0 23 0;
#X connect 19 0 20 0;
#X connect 20 0 6 0;
#X connect 21 0 22 0;
#X connect 22 0 2 1;
#X connect 22 0 1 1;
#X connect 22 0 0 1;
#X connect 23 0 0 0;
#X connect 23 0 2 0;
#X connect 23 0 1 0;
#X restore 85 345 pd multiosc~;
#N canvas 627 364 660 300 multiosc~ 0;
#X obj 54 145 osc~;
#X obj 127 147 saw~;
#X obj 196 148 triangle~;
#X obj 54 204 *~;
#X obj 126 209 *~;
#X obj 197 212 *~;
#X obj 283 30 hradio 15 1 0 3 empty empty empty 0 -8 0 10 #fcfcfc #000000 #000000 0;
#X obj 283 50 sel 0 1 2;
#X msg 211 90 1;
#X msg 242 90 0;
#X msg 278 90 1;
#X msg 309 90 0;
#X msg 346 90 1;
#X msg 377 90 0;
#X obj 71 174 ramp~;
#X obj 139 182 ramp~;
#X obj 217 184 ramp~;
#X obj 99 271 outlet~;
#X obj 48 67 inlet;
#X obj 149 14 inlet;
#X obj 149 38 clip 0 2;
#X obj 449 106 inlet;
#X msg 449 130 0;
#X obj 48 91 ramp~ 5;
#X connect 0 0 3 0;
#X connect 1 0 4 0;
#X connect 2 0 5 0;
#X connect 3 0 17 0;
#X connect 4 0 17 0;
#X connect 5 0 17 0;
#X connect 6 0 7 0;
#X connect 7 0 8 0;
#X connect 7 0 9 0;
#X connect 7 1 10 0;
#X connect 7 1 11 0;
#X connect 7 2 12 0;
#X connect 7 2 13 0;
#X connect 8 0 14 0;
#X connect 9 0 15 0;
#X connect 9 0 16 0;
#X connect 10 0 15 0;
#X connect 11 0 16 0;
#X connect 11 0 14 0;
#X connect 12 0 16 0;
#X connect 13 0 15 0;
#X connect 13 0 14 0;
#X connect 14 0 3 1;
#X connect 15 0 4 1;
#X connect 16 0 5 1;
#X connect 18 0 23 0;
#X connect 19 0 20 0;
#X connect 20 0 6 0;
#X connect 21 0 22 0;
#X connect 22 0 2 1;
#X connect 22 0 1 1;
#X connect 22 0 0 1;
#X connect 23 0 0 0;
#X connect 23 0 2 0;
#X connect 23 0 1 0;
#X restore 178 345 pd multiosc~;
#N canvas 627 364 660 300 multiosc~ 0;
#X obj 54 145 osc~;
#X obj 127 147 saw~;
#X obj 196 148 triangle~;
#X obj 54 204 *~;
#X obj 126 209 *~;
#X obj 197 212 *~;
#X obj 283 30 hradio 15 1 0 3 empty empty empty 0 -8 0 10 #fcfcfc #000000 #000000 0;
#X obj 283 50 sel 0 1 2;
#X msg 211 90 1;
#X msg 242 90 0;
#X msg 278 90 1;
#X msg 309 90 0;
#X msg 346 90 1;
#X msg 377 90 0;
#X obj 71 174 ramp~;
#X obj 139 182 ramp~;
#X obj 217 184 ramp~;
#X obj 99 271 outlet~;
#X obj 48 67 inlet;
#X obj 149 14 inlet;
#X obj 149 38 clip 0 2;
#X obj 449 106 inlet;
#X msg 449 130 0;
#X obj 48 91 ramp~ 5;
#X connect 0 0 3 0;
#X connect 1 0 4 0;
#X connect 2 0 5 0;
#X connect 3 0 17 0;
#X connect 4 0 17 0;
#X connect 5 0 17 0;
#X connect 6 0 7 0;
#X connect 7 0 8 0;
#X connect 7 0 9 0;
#X connect 7 1 10 0;
#X connect 7 1 11 0;
#X connect 7 2 12 0;
#X connect 7 2 13 0;
#X connect 8 0 14 0;
#X connect 9 0 15 0;
#X connect 9 0 16 0;
#X connect 10 0 15 0;
#X connect 11 0 16 0;
#X connect 11 0 14 0;
#X connect 12 0 16 0;
#X connect 13 0 15 0;
#X connect 13 0 14 0;
#X connect 14 0 3 1;
#X connect 15 0 4 1;
#X connect 16 0 5 1;
#X connect 18 0 23 0;
#X connect 19 0 20 0;
#X connect 20 0 6 0;
#X connect 21 0 22 0;
#X connect 22 0 2 1;
#X connect 22 0 1 1;
#X connect 22 0 0 1;
#X connect 23 0 0 0;
#X connect 23 0 2 0;
#X connect 23 0 1 0;
#X restore 271 345 pd multiosc~;
#N canvas 627 364 660 300 multiosc~ 0;
#X obj 54 145 osc~;
#X obj 127 147 saw~;
#X obj 196 148 triangle~;
#X obj 54 204 *~;
#X obj 126 209 *~;
#X obj 197 212 *~;
#X obj 283 30 hradio 15 1 0 3 empty empty empty 0 -8 0 10 #fcfcfc #000000 #000000 0;
#X obj 283 50 sel 0 1 2;
#X msg 211 90 1;
#X msg 242 90 0;
#X msg 278 90 1;
#X msg 309 90 0;
#X msg 346 90 1;
#X msg 377 90 0;
#X obj 71 174 ramp~;
#X obj 139 182 ramp~;
#X obj 217 184 ramp~;
#X obj 99 271 outlet~;
#X obj 48 67 inlet;
#X obj 149 14 inlet;
#X obj 149 38 clip 0 2;
#X obj 449 106 inlet;
#X msg 449 130 0;
#X obj 48 91 ramp~ 5;
#X connect 0 0 3 0;
#X connect 1 0 4 0;
#X connect 2 0 5 0;
#X connect 3 0 17 0;
#X connect 4 0 17 0;
#X connect 5 0 17 0;
#X connect 6 0 7 0;
#X connect 7 0 8 0;
#X connect 7 0 9 0;
#X connect 7 1 10 0;
#X connect 7 1 11 0;
#X connect 7 2 12 0;
#X connect 7 2 13 0;
#X connect 8 0 14 0;
#X connect 9 0 15 0;
#X connect 9 0 16 0;
#X connect 10 0 15 0;
#X connect 11 0 16 0;
#X connect 11 0 14 0;
#X connect 12 0 16 0;
#X connect 13 0 15 0;
#X connect 13 0 14 0;
#X connect 14 0 3 1;
#X connect 15 0 4 1;
#X connect 16 0 5 1;
#X connect 18 0 23 0;
#X connect 19 0 20 0;
#X connect 20 0 6 0;
#X connect 21 0 22 0;
#X connect 22 0 2 1;
#X connect 22 0 1 1;
#X connect 22 0 0 1;
#X connect 23 0 0 0;
#X connect 23 0 2 0;
#X connect 23 0 1 0;
#X restore 364 345 pd multiosc~;
#N canvas 627 364 660 300 multiosc~ 0;
#X obj 54 145 osc~;
#X obj 127 147 saw~;
#X obj 196 148 triangle~;
#X obj 54 204 *~;
#X obj 126 209 *~;
#X obj 197 212 *~;
#X obj 283 30 hradio 15 1 0 3 empty empty empty 0 -8 0 10 #fcfcfc #000000 #000000 0;
#X obj 283 50 sel 0 1 2;
#X msg 211 90 1;
#X msg 242 90 0;
#X msg 278 90 1;
#X msg 309 90 0;
#X msg 346 90 1;
#X msg 377 90 0;
#X obj 71 174 ramp~;
#X obj 139 182 ramp~;
#X obj 217 184 ramp~;
#X obj 99 271 outlet~;
#X obj 48 67 inlet;
#X obj 149 14 inlet;
#X obj 149 38 clip 0 2;
#X obj 449 106 inlet;
#X msg 449 130 0;
#X obj 48 91 ramp~ 5;
#X connect 0 0 3 0;
#X connect 1 0 4 0;
#X connect 2 0 5 0;
#X connect 3 0 17 0;
#X connect 4 0 17 0;
#X connect 5 0 17 0;
#X connect 6 0 7 0;
#X connect 7 0 8 0;
#X connect 7 0 9 0;
#X connect 7 1 10 0;
#X connect 7 1 11 0;
#X connect 7 2 12 0;
#X connect 7 2 13 0;
#X connect 8 0 14 0;
#X connect 9 0 15 0;
#X connect 9 0 16 0;
#X connect 10 0 15 0;
#X connect 11 0 16 0;
#X connect 11 0 14 0;
#X connect 12 0 16 0;
#X connect 13 0 15 0;
#X connect 13 0 14 0;
#X connect 14 0 3 1;
#X connect 15 0 4 1;
#X connect 16 0 5 1;
#X connect 18 0 23 0;
#X connect 19 0 20 0;
#X connect 20 0 6 0;
#X connect 21 0 22 0;
#X connect 22 0 2 1;
#X connect 22 0 1 1;
#X connect 22 0 0 1;
#X connect 23 0 0 0;
#X connect 23 0 2 0;
#X connect 23 0 1 0;
#X restore 457 345 pd multiosc~;
#N canvas 627 364 660 300 multiosc~ 0;
#X obj 54 145 osc~;
#X obj 127 147 saw~;
#X obj 196 148 triangle~;
#X obj 54 204 *~;
#X obj 126 209 *~;
#X obj 197 212 *~;
#X obj 283 30 hradio 15 1 0 3 empty empty empty 0 -8 0 10 #fcfcfc #000000 #000000 0;
#X obj 283 50 sel 0 1 2;
#X msg 211 90 1;
#X msg 242 90 0;
#X msg 278 90 1;
#X msg 309 90 0;
#X msg 346 90 1;
#X msg 377 90 0;
#X obj 71 174 ramp~;
#X obj 139 182 ramp~;
#X obj 217 184 ramp~;
#X obj 99 271 outlet~;
#X obj 48 67 inlet;
#X obj 149 14 inlet;
#X obj 149 38 clip 0 2;
#X obj 449 106 inlet;
#X msg 449 130 0;
#X obj 48 91 ramp~ 5;
#X connect 0 0 3 0;
#X connect 1 0 4 0;
#X connect 2 0 5 0;
#X connect 3 0 17 0;
#X connect 4 0 17 0;
#X connect 5 0 17 0;
#X connect 6 0 7 0;
#X connect 7 0 8 0;
#X connect 7 0 9 0;
#X connect 7 1 10 0;
#X connect 7 1 11 0;
#X connect 7 2 12 0;
#X connect 7 2 13 0;
#X connect 8 0 14 0;
#X connect 9 0 15 0;
#X connect 9 0 16 0;
#X connect 10 0 15 0;
#X connect 11 0 16 0;
#X connect 11 0 14 0;
#X connect 12 0 16 0;
#X connect 13 0 15 0;
#X connect 13 0 14 0;
#X connect 14 0 3 1;
#X connect 15 0 4 1;
#X connect 16 0 5 1;
#X connect 18 0 23 0;
#X connect 19 0 20 0;
#X connect 20 0 6 0;
#X connect 21 0 22 0;
#X connect 22 0 2 1;
#X connect 22 0 1 1;
#X connect 22 0 0 1;
#X connect 23 0 0 0;
#X connect 23 0 2 0;
#X connect 23 0 1 0;
#X restore 550 345 pd multiosc~;
#N canvas 627 364 660 300 multiosc~ 0;
#X obj 54 145 osc~;
#X obj 127 147 saw~;
#X obj 196 148 triangle~;
#X obj 54 204 *~;
#X obj 126 209 *~;
#X obj 197 212 *~;
#X obj 283 30 hradio 15 1 0 3 empty empty empty 0 -8 0 10 #fcfcfc #000000 #000000 0;
#X obj 283 50 sel 0 1 2;
#X msg 211 90 1;
#X msg 242 90 0;
#X msg 278 90 1;
#X msg 309 90 0;
#X msg 346 90 1;
#X msg 377 90 0;
#X obj 71 174 ramp~;
#X obj 139 182 ramp~;
#X obj 217 184 ramp~;
#X obj 99 271 outlet~;
#X obj 48 67 inlet;
#X obj 149 14 inlet;
#X obj 149 38 clip 0 2;
#X obj 449 106 inlet;
#X msg 449 130 0;
#X obj 48 91 ramp~ 5;
#X connect 0 0 3 0;
#X connect 1 0 4 0;
#X connect 2 0 5 0;
#X connect 3 0 17 0;
#X connect 4 0 17 0;
#X connect 5 0 17 0;
#X connect 6 0 7 0;
#X connect 7 0 8 0;
#X connect 7 0 9 0;
#X connect 7 1 10 0;
#X connect 7 1 11 0;
#X connect 7 2 12 0;
#X connect 7 2 13 0;
#X connect 8 0 14 0;
#X connect 9 0 15 0;
#X connect 9 0 16 0;
#X connect 10 0 15 0;
#X connect 11 0 16 0;
#X connect 11 0 14 0;
#X connect 12 0 16 0;
#X connect 13 0 15 0;
#X connect 13 0 14 0;
#X connect 14 0 3 1;
#X connect 15 0 4 1;
#X connect 16 0 5 1;
#X connect 18 0 23 0;
#X connect 19 0 20 0;
#X connect 20 0 6 0;
#X connect 21 0 22 0;
#X connect 22 0 2 1;
#X connect 22 0 1 1;
#X connect 22 0 0 1;
#X connect 23 0 0 0;
#X connect 23 0 2 0;
#X connect 23 0 1 0;
#X restore 643 345 pd multiosc~;
#X obj 1151 330 hradio 15 1 0 3 empty empty sine_saw_tri 50 6 0 10 #fcfcfc #000000 #000000 0;
#X obj 1161 257 sel 0 1 2 3, f 23;
#X msg 1151 301 0;
#X msg 1184 301 1;
#X msg 1220 301 2;
#X text 1154 210 map type to waveforms;
#X obj 1161 233 r \$0-type;
#X text 901 258 align phase any time type changes;
#X obj 875 282 r \$0-type;
#X floatatom 18 833 5 0 0 0 - - - 0;
#X floatatom 58 834 5 0 0 0 - - - 0;
#X obj 205 794 easeinsine;
#X obj 116 166 sel 0 1 2, f 126;
#X obj 495 756 heavylib/hv.filters/highpass;
#X obj 495 800 heavylib/hv.filters/lowpass;
#X obj 456 69 s \$0-highcutoff;
#X obj 567 69 s \$0-lowcutoff;
#X obj 578 697 r \$0-highcutoff;
#X obj 761 771 r \$0-lowcutoff;
#X obj 818 71 max 5;
#X obj -8 369 scaled~ -1 1 0 1;
#X obj 85 396 scaled~ -1 1 0 1;
#X obj 174 370 scaled~ -1 1 0 1;
#X obj 267 397 scaled~ -1 1 0 1;
#X obj 229 427 scaled~ -1 1 -1 0;
#X obj 322 454 scaled~ -1 1 -1 0;
#X obj 411 428 scaled~ -1 1 -1 0;
#X obj 504 455 scaled~ -1 1 -1 0;
#X obj 193 470 *~ 0.25;
#X obj 99 275 harmonicsdetuner;
#X obj 179 295 harmonicsdetuner;
#X obj 259 275 harmonicsdetuner;
#X obj 339 295 harmonicsdetuner;
#X obj 419 275 harmonicsdetuner;
#X obj 499 295 harmonicsdetuner;
#X obj 579 275 harmonicsdetuner;
#X msg 116 193 2 3 4 5 6 7;
#X msg 387 194 0.125 0.25 0.3333 0.5 2 3 4 8;
#X obj 1139 154 loadbang;
#X msg 1139 178 0;
#X obj 26 97 loadbang;
#X msg 26 121 0;
#X obj 499 113 loadbang;
#X msg 499 137 0;
#X obj 117 795 easeinsine;
#X obj 687 880 r \$0-velocity;
#X obj 687 904 ramp~ 2;
#X obj 502 919 *~, f 22;
#X obj 1286 71 clip 0 1;
#X obj 1286 95 s \$0-velocity;
#X msg 203 194 0.1 0.2 0.25 0.5 2 4 5 8;
#X obj 553 544 r \$0-noiseshape;
#X obj 553 568 ramp~;
#X obj 428 615 pow~, f 16;
#X obj 1406 73 scaled 0 1 3 20;
#X obj 1406 97 s \$0-noiseshape;
#X obj 1536 69 scaled 0 1 1 20;
#X obj 1536 93 s \$0-decayshape;
#X obj 1183 706 r \$0-decayshape;
#X obj 1183 730 ramp~;
#X obj 1005 789 pow~, f 30;
#X obj 1501 164 loadbang;
#X msg 1501 188 0;
#X obj 1656 66 tgl 15 0 empty empty empty 17 7 0 10 #fcfcfc #000000 #000000 0 1;
#X obj 1656 90 s \$0-frequencytriggersgate;
#X obj 1044 674 r \$0-frequencytriggersgate;
#X obj 1005 698 spigot;
#X obj 429 499 r \$0-frequency;
#X obj 468 523 r \$0-frequencytriggersgate;
#X obj 429 547 spigot;
#X obj 1600 158 loadbang;
#X msg 1600 182 1;
#X obj 26 40 route frequency spread character type highcutoff lowcutoff resonance attack decay noisemix reverbmix velocity noiseshape decayshape frequencytriggersgate gate, f 267;
#X obj 1776 119 bng 15 250 50 0 empty empty empty 17 7 0 10 #fcfcfc #000000 #000000;
#X obj 1776 143 s \$0-gate;
#X obj 932 698 r \$0-gate;
#X obj 355 547 r \$0-gate;
#X obj 679 200 r \$0-spread;
#X obj 680 224 easeinoutcubic;
#X obj 863 975 outlet~;
#X connect 0 0 102 0;
#X connect 0 0 96 0;
#X connect 0 0 97 0;
#X connect 0 0 98 0;
#X connect 0 0 99 0;
#X connect 0 0 100 0;
#X connect 0 0 101 0;
#X connect 0 0 59 0;
#X connect 1 0 2 0;
#X connect 2 0 3 0;
#X connect 3 0 66 2;
#X connect 3 0 65 2;
#X connect 3 0 64 2;
#X connect 3 0 63 2;
#X connect 3 0 62 2;
#X connect 3 0 61 2;
#X connect 3 0 60 2;
#X connect 3 0 59 2;
#X connect 4 0 80 0;
#X connect 6 0 139 0;
#X connect 9 0 8 0;
#X connect 10 0 30 0;
#X connect 12 0 0 0;
#X connect 13 0 78 0;
#X connect 13 0 111 0;
#X connect 15 1 96 1;
#X connect 15 2 97 1;
#X connect 15 3 98 1;
#X connect 15 4 99 1;
#X connect 15 5 100 1;
#X connect 15 6 101 1;
#X connect 15 7 102 1;
#X connect 16 0 17 0;
#X connect 17 0 52 0;
#X connect 19 0 80 2;
#X connect 19 0 81 2;
#X connect 21 0 133 0;
#X connect 22 0 24 0;
#X connect 23 0 42 0;
#X connect 24 0 127 0;
#X connect 25 0 24 1;
#X connect 26 0 24 3;
#X connect 28 0 27 0;
#X connect 29 0 5 0;
#X connect 30 0 40 0;
#X connect 31 0 32 0;
#X connect 32 0 33 0;
#X connect 34 0 35 1;
#X connect 35 0 4 0;
#X connect 36 0 39 0;
#X connect 37 0 39 3;
#X connect 38 0 35 0;
#X connect 39 0 120 0;
#X connect 40 0 11 0;
#X connect 41 0 38 0;
#X connect 42 0 114 0;
#X connect 42 1 114 0;
#X connect 43 0 44 0;
#X connect 44 0 42 1;
#X connect 46 0 47 0;
#X connect 47 0 42 1;
#X connect 48 0 45 0;
#X connect 49 0 18 0;
#X connect 53 0 51 0;
#X connect 53 0 79 0;
#X connect 54 0 4 1;
#X connect 55 0 56 0;
#X connect 55 0 77 0;
#X connect 56 0 4 1;
#X connect 57 0 58 0;
#X connect 58 0 4 1;
#X connect 59 0 87 0;
#X connect 60 0 88 0;
#X connect 61 0 89 0;
#X connect 62 0 90 0;
#X connect 63 0 91 0;
#X connect 64 0 92 0;
#X connect 65 0 93 0;
#X connect 66 0 94 0;
#X connect 67 0 66 1;
#X connect 67 0 65 1;
#X connect 67 0 64 1;
#X connect 67 0 63 1;
#X connect 67 0 62 1;
#X connect 67 0 61 1;
#X connect 67 0 60 1;
#X connect 67 0 59 1;
#X connect 68 0 69 0;
#X connect 68 1 70 0;
#X connect 68 2 71 0;
#X connect 69 0 67 0;
#X connect 70 0 67 0;
#X connect 71 0 67 0;
#X connect 73 0 68 0;
#X connect 75 0 2 0;
#X connect 78 0 55 0;
#X connect 79 0 103 0;
#X connect 79 1 117 0;
#X connect 79 2 104 0;
#X connect 80 0 81 0;
#X connect 81 0 23 0;
#X connect 84 0 80 1;
#X connect 85 0 81 1;
#X connect 86 0 20 0;
#X connect 87 0 95 0;
#X connect 88 0 95 0;
#X connect 89 0 95 0;
#X connect 90 0 95 0;
#X connect 91 0 95 0;
#X connect 92 0 95 0;
#X connect 93 0 95 0;
#X connect 94 0 95 0;
#X connect 95 0 4 0;
#X connect 96 0 60 0;
#X connect 97 0 61 0;
#X connect 98 0 62 0;
#X connect 99 0 63 0;
#X connect 100 0 64 0;
#X connect 101 0 65 0;
#X connect 102 0 66 0;
#X connect 103 0 15 0;
#X connect 104 0 15 0;
#X connect 105 0 106 0;
#X connect 106 0 48 0;
#X connect 107 0 108 0;
#X connect 108 0 9 0;
#X connect 109 0 110 0;
#X connect 110 0 16 0;
#X connect 111 0 54 0;
#X connect 111 0 76 0;
#X connect 112 0 113 0;
#X connect 113 0 114 1;
#X connect 114 0 29 0;
#X connect 115 0 116 0;
#X connect 117 0 15 0;
#X connect 118 0 119 0;
#X connect 119 0 120 1;
#X connect 120 0 38 1;
#X connect 121 0 122 0;
#X connect 123 0 124 0;
#X connect 125 0 126 0;
#X connect 126 0 127 1;
#X connect 127 0 23 1;
#X connect 127 0 146 0;
#X connect 128 0 129 0;
#X connect 129 0 123 0;
#X connect 130 0 131 0;
#X connect 132 0 133 1;
#X connect 133 0 22 0;
#X connect 134 0 136 0;
#X connect 135 0 136 1;
#X connect 136 0 36 0;
#X connect 137 0 138 0;
#X connect 138 0 130 0;
#X connect 139 0 7 0;
#X connect 139 1 9 0;
#X connect 139 2 10 0;
#X connect 139 3 16 0;
#X connect 139 4 82 0;
#X connect 139 5 83 0;
#X connect 139 6 49 0;
#X connect 139 7 86 0;
#X connect 139 8 28 0;
#X connect 139 9 31 0;
#X connect 139 10 48 0;
#X connect 139 11 115 0;
#X connect 139 12 121 0;
#X connect 139 13 123 0;
#X connect 139 14 130 0;
#X connect 139 15 140 0;
#X connect 139 16 14 0;
#X connect 140 0 141 0;
#X connect 142 0 22 0;
#X connect 143 0 36 0;
#X connect 144 0 145 0;
#X connect 145 0 50 0;
#X connect 145 0 102 2;
#X connect 145 0 96 2;
#X connect 145 0 97 2;
#X connect 145 0 98 2;
#X connect 145 0 99 2;
#X connect 145 0 100 2;
#X connect 145 0 101 2;
