#N canvas 298 197 811 617 12;
#X obj 2 43 mspparam frequency 0 24000;
#X obj 2 81 mspparam spread;
#X obj 2 100 mspparam character;
#X obj 2 157 mspparam resonance;
#X obj 2 176 mspparam attack 0 100;
#X obj 2 233 mspparam noisemix;
#X obj 2 271 mspparam reverbmix;
#X text 105 2 ----- swarm :) -----;
#X obj 386 64 inlet;
#X obj 67 437 outlet;
#X obj 2 23 hradio 20 1 0 3 empty empty type 60 12 0 12 #fcfcfc #000000
#000000 0;
#X msg 172 396 type \$1;
#X obj 2 138 mspparam lowcutoff 0 24000 24000;
#X obj 2 195 mspparam decay 0 2000;
#X obj 2 62 mspparam velocity 0 1 1;
#X obj 2 119 mspparam highcutoff 0 5000 0;
#X obj 2 252 mspparam noiseshape 0 1 0;
#X obj 2 214 mspparam decayshape 0 1 0;
#X obj 337 28 tgl 15 0 empty empty frequencytriggersgate -127 7 0 10
#fcfcfc #000000 #000000 0 1;
#X msg 438 295 frequencytriggersgate \$1;
#X obj 607 6 loadbang;
#X msg 607 30 1;
#X obj 337 14 bng 15 250 50 0 empty empty gate -27 7 0 10 #fcfcfc #000000
#000000;
#X obj 386 88 route type frequency velocity spread character highcutoff
lowcutoff resonance attack decay decayshape noisemix noiseshape reverbmix
gate frequencytriggersgate;
#X msg 305 395 gate 1;
#X connect 0 0 9 0;
#X connect 1 0 9 0;
#X connect 2 0 9 0;
#X connect 3 0 9 0;
#X connect 4 0 9 0;
#X connect 5 0 9 0;
#X connect 6 0 9 0;
#X connect 8 0 23 0;
#X connect 10 0 11 0;
#X connect 11 0 9 0;
#X connect 12 0 9 0;
#X connect 13 0 9 0;
#X connect 14 0 9 0;
#X connect 15 0 9 0;
#X connect 16 0 9 0;
#X connect 17 0 9 0;
#X connect 18 0 19 0;
#X connect 19 0 9 0;
#X connect 20 0 21 0;
#X connect 21 0 18 0;
#X connect 22 0 24 0;
#X connect 23 0 10 0;
#X connect 23 1 0 0;
#X connect 23 2 14 0;
#X connect 23 3 1 0;
#X connect 23 4 2 0;
#X connect 23 5 15 0;
#X connect 23 6 12 0;
#X connect 23 7 3 0;
#X connect 23 8 4 0;
#X connect 23 9 13 0;
#X connect 23 10 17 0;
#X connect 23 11 5 0;
#X connect 23 12 16 0;
#X connect 23 13 6 0;
#X connect 23 14 22 0;
#X connect 23 15 18 0;
#X connect 24 0 9 0;
#X coords 0 -1 1 1 350 288 2 2 2;
