#N canvas 123 159 450 351 12;
#X obj 139 80 inlet~;
#X obj 252 80 inlet~;
#X obj 139 104 *~;
#X obj 252 104 *~;
#X obj 176 3 loadbang;
#X msg 176 27 1;
#X obj 1 46 ramp~;
#X obj 1 23 level;
#X obj 21 197 loadbang;
#X obj 21 220 bng 19 250 50 0 empty empty empty 0 -10 0 12 #fcfcfc #000000 #000000;
#X obj 54 9 bng 8 250 50 0 empty empty bus-1 9 4 0 12 #fcfcfc #000000 #000000;
#X obj 21 244 f \$1;
#X msg 21 268 symbol bus-\$1;
#X msg 21 292 label \$1;
#X text 14 3 to:;
#X obj 139 128 throw~ bus-\$1-l;
#X obj 252 128 throw~ bus-\$1-r;
#X obj 327 22 inlet;
#X floatatom 327 46 5 0 0 0 - - - 0;
#X connect 0 0 2 0;
#X connect 1 0 3 0;
#X connect 2 0 15 0;
#X connect 3 0 16 0;
#X connect 4 0 5 0;
#X connect 5 0 7 0;
#X connect 6 0 2 1;
#X connect 6 0 3 1;
#X connect 7 0 6 0;
#X connect 8 0 9 0;
#X connect 9 0 11 0;
#X connect 11 0 12 0;
#X connect 12 0 13 0;
#X connect 13 0 10 0;
#X connect 17 0 18 0;
#X connect 18 0 7 0;
#X coords 0 -1 1 1 134 40 2 1 1;
