#N canvas 122 159 450 300 12;
#X obj 139 80 inlet~;
#X obj 139 128 throw~ outL;
#X obj 222 80 inlet~;
#X obj 222 128 throw~ outR;
#X obj 139 104 *~;
#X obj 222 104 *~;
#X obj 176 3 loadbang;
#X msg 176 27 1;
#X obj 1 46 ramp~;
#X obj 1 23 level;
#X text 2 3 -- throwout~ :) --;
#X obj 317 23 inlet;
#X floatatom 317 47 5 0 0 0 - - - 0;
#X obj 109 194 outlet~;
#X obj 230 194 outlet~;
#X connect 0 0 4 0;
#X connect 2 0 5 0;
#X connect 4 0 1 0;
#X connect 4 0 13 0;
#X connect 5 0 3 0;
#X connect 5 0 14 0;
#X connect 6 0 7 0;
#X connect 7 0 9 0;
#X connect 8 0 4 1;
#X connect 8 0 5 1;
#X connect 9 0 8 0;
#X connect 11 0 12 0;
#X connect 12 0 9 0;
#X coords 0 -1 1 1 134 40 2 1 1;
