#N canvas 123 159 450 300 12;
#X obj 139 80 inlet~;
#X obj 139 104 *~;
#X obj 166 3 loadbang;
#X msg 166 27 1;
#X obj 1 46 ramp~;
#X obj 139 128 throw~ outC;
#X obj 1 23 level;
#X text 5 3 - throwoutc~ :) -;
#X obj 299 34 inlet;
#X floatatom 299 58 5 0 0 0 - - - 0;
#X connect 0 0 1 0;
#X connect 1 0 5 0;
#X connect 2 0 3 0;
#X connect 3 0 6 0;
#X connect 4 0 1 1;
#X connect 6 0 4 0;
#X connect 8 0 9 0;
#X connect 9 0 6 0;
#X coords 0 -1 1 1 134 40 2 1 1;
