#N canvas 565 117 647 443 12;
#X obj 161 19 loadbang;
#X obj 161 43 t b b b, f 32;
#X obj 161 67 f \$1;
#X obj 161 115 /;
#X obj 161 173 t f f;
#X obj 271 67 f \$2;
#X obj 382 67 f \$3;
#X obj 382 91 clip 0 1;
#X obj 382 115 + 1;
#X obj 382 139 t b f;
#X obj 382 243 *, f 5;
#X obj 18 39 inlet;
#X obj 18 257 t b b;
#X obj 18 331 t b b, f 10;
#X obj 18 379 outlet;
#X obj 50 307 del;
#X obj 85 355 f;
#X obj 115 355 + 1;
#X obj 85 379 outlet;
#X obj 161 91 swap 60000;
#X obj 18 87 sel 0;
#X msg 18 135 0;
#X obj 18 233 metro;
#X obj 161 149 /, f 21;
#X msg 50 135 stop;
#X obj 18 63 t f f;
#X obj 18 111 t b b;
#X obj 161 197 *;
#X obj 271 91 t b f f;
#X text 245 366 NOTE: DOENS'T WORK. HAS DIVERGED SOME FROM FARNELL'S
IMPLEMENTATION.;
#X connect 0 0 1 0;
#X connect 1 0 2 0;
#X connect 1 1 5 0;
#X connect 1 2 6 0;
#X connect 2 0 19 0;
#X connect 3 0 23 0;
#X connect 4 0 27 0;
#X connect 4 1 10 0;
#X connect 5 0 28 0;
#X connect 6 0 7 0;
#X connect 7 0 8 0;
#X connect 8 0 9 0;
#X connect 9 0 10 0;
#X connect 9 1 10 1;
#X connect 10 0 15 1;
#X connect 11 0 25 0;
#X connect 12 0 13 0;
#X connect 12 1 15 0;
#X connect 13 0 14 0;
#X connect 13 1 16 0;
#X connect 15 0 13 0;
#X connect 16 0 17 0;
#X connect 16 0 18 0;
#X connect 17 0 16 1;
#X connect 19 0 3 0;
#X connect 19 1 3 1;
#X connect 20 0 26 0;
#X connect 21 0 16 1;
#X connect 22 0 12 0;
#X connect 23 0 4 0;
#X connect 24 0 15 0;
#X connect 25 0 20 0;
#X connect 25 1 22 0;
#X connect 26 0 21 0;
#X connect 26 1 24 0;
#X connect 27 0 22 1;
#X connect 28 0 23 0;
#X connect 28 1 27 1;
#X connect 28 2 23 1;
