#N canvas 731 38 445 314 12;
#N canvas 63 101 450 300 inttobinary 0;
#X msg 0 270 0 0 0 0 0 0 0 0;
#X msg 4 290 0 0 0 0 0 0 0 1;
#X msg 8 310 0 0 0 0 0 0 1 0;
#X msg 12 330 0 0 0 0 0 0 1 1;
#X msg 16 350 0 0 0 0 0 1 0 0;
#X msg 20 370 0 0 0 0 0 1 0 1;
#X msg 24 390 0 0 0 0 0 1 1 0;
#X msg 28 410 0 0 0 0 0 1 1 1;
#X msg 32 430 0 0 0 0 1 0 0 0;
#X msg 36 450 0 0 0 0 1 0 0 1;
#X msg 40 470 0 0 0 0 1 0 1 0;
#X msg 44 490 0 0 0 0 1 0 1 1;
#X msg 48 510 0 0 0 0 1 1 0 0;
#X msg 52 530 0 0 0 0 1 1 0 1;
#X msg 56 550 0 0 0 0 1 1 1 0;
#X msg 60 570 0 0 0 0 1 1 1 1;
#X msg 214 270 0 0 0 1 0 0 0 0;
#X msg 218 290 0 0 0 1 0 0 0 1;
#X msg 222 310 0 0 0 1 0 0 1 0;
#X msg 226 330 0 0 0 1 0 0 1 1;
#X msg 230 350 0 0 0 1 0 1 0 0;
#X msg 234 370 0 0 0 1 0 1 0 1;
#X msg 238 390 0 0 0 1 0 1 1 0;
#X msg 242 410 0 0 0 1 0 1 1 1;
#X msg 246 430 0 0 0 1 1 0 0 0;
#X msg 250 450 0 0 0 1 1 0 0 1;
#X msg 254 470 0 0 0 1 1 0 1 0;
#X msg 258 490 0 0 0 1 1 0 1 1;
#X msg 262 510 0 0 0 1 1 1 0 0;
#X msg 266 530 0 0 0 1 1 1 0 1;
#X msg 270 550 0 0 0 1 1 1 1 0;
#X msg 274 570 0 0 0 1 1 1 1 1;
#X msg 428 270 0 0 1 0 0 0 0 0;
#X msg 432 290 0 0 1 0 0 0 0 1;
#X msg 436 310 0 0 1 0 0 0 1 0;
#X msg 440 330 0 0 1 0 0 0 1 1;
#X msg 444 350 0 0 1 0 0 1 0 0;
#X msg 448 370 0 0 1 0 0 1 0 1;
#X msg 452 390 0 0 1 0 0 1 1 0;
#X msg 456 410 0 0 1 0 0 1 1 1;
#X msg 460 430 0 0 1 0 1 0 0 0;
#X msg 464 450 0 0 1 0 1 0 0 1;
#X msg 468 470 0 0 1 0 1 0 1 0;
#X msg 472 490 0 0 1 0 1 0 1 1;
#X msg 476 510 0 0 1 0 1 1 0 0;
#X msg 480 530 0 0 1 0 1 1 0 1;
#X msg 484 550 0 0 1 0 1 1 1 0;
#X msg 488 570 0 0 1 0 1 1 1 1;
#X msg 642 270 0 0 1 1 0 0 0 0;
#X msg 646 290 0 0 1 1 0 0 0 1;
#X msg 650 310 0 0 1 1 0 0 1 0;
#X msg 654 330 0 0 1 1 0 0 1 1;
#X msg 658 350 0 0 1 1 0 1 0 0;
#X msg 662 370 0 0 1 1 0 1 0 1;
#X msg 666 390 0 0 1 1 0 1 1 0;
#X msg 670 410 0 0 1 1 0 1 1 1;
#X msg 674 430 0 0 1 1 1 0 0 0;
#X msg 678 450 0 0 1 1 1 0 0 1;
#X msg 682 470 0 0 1 1 1 0 1 0;
#X msg 686 490 0 0 1 1 1 0 1 1;
#X msg 690 510 0 0 1 1 1 1 0 0;
#X msg 694 530 0 0 1 1 1 1 0 1;
#X msg 698 550 0 0 1 1 1 1 1 0;
#X msg 702 570 0 0 1 1 1 1 1 1;
#X msg 856 270 0 1 0 0 0 0 0 0;
#X msg 860 290 0 1 0 0 0 0 0 1;
#X msg 864 310 0 1 0 0 0 0 1 0;
#X msg 868 330 0 1 0 0 0 0 1 1;
#X msg 872 350 0 1 0 0 0 1 0 0;
#X msg 876 370 0 1 0 0 0 1 0 1;
#X msg 880 390 0 1 0 0 0 1 1 0;
#X msg 884 410 0 1 0 0 0 1 1 1;
#X msg 888 430 0 1 0 0 1 0 0 0;
#X msg 892 450 0 1 0 0 1 0 0 1;
#X msg 896 470 0 1 0 0 1 0 1 0;
#X msg 900 490 0 1 0 0 1 0 1 1;
#X msg 904 510 0 1 0 0 1 1 0 0;
#X msg 908 530 0 1 0 0 1 1 0 1;
#X msg 912 550 0 1 0 0 1 1 1 0;
#X msg 916 570 0 1 0 0 1 1 1 1;
#X msg 1070 270 0 1 0 1 0 0 0 0;
#X msg 1074 290 0 1 0 1 0 0 0 1;
#X msg 1078 310 0 1 0 1 0 0 1 0;
#X msg 1082 330 0 1 0 1 0 0 1 1;
#X msg 1086 350 0 1 0 1 0 1 0 0;
#X msg 1090 370 0 1 0 1 0 1 0 1;
#X msg 1094 390 0 1 0 1 0 1 1 0;
#X msg 1098 410 0 1 0 1 0 1 1 1;
#X msg 1102 430 0 1 0 1 1 0 0 0;
#X msg 1106 450 0 1 0 1 1 0 0 1;
#X msg 1110 470 0 1 0 1 1 0 1 0;
#X msg 1114 490 0 1 0 1 1 0 1 1;
#X msg 1118 510 0 1 0 1 1 1 0 0;
#X msg 1122 530 0 1 0 1 1 1 0 1;
#X msg 1126 550 0 1 0 1 1 1 1 0;
#X msg 1130 570 0 1 0 1 1 1 1 1;
#X msg 1284 270 0 1 1 0 0 0 0 0;
#X msg 1288 290 0 1 1 0 0 0 0 1;
#X msg 1292 310 0 1 1 0 0 0 1 0;
#X msg 1296 330 0 1 1 0 0 0 1 1;
#X msg 1300 350 0 1 1 0 0 1 0 0;
#X msg 1304 370 0 1 1 0 0 1 0 1;
#X msg 1308 390 0 1 1 0 0 1 1 0;
#X msg 1312 410 0 1 1 0 0 1 1 1;
#X msg 1316 430 0 1 1 0 1 0 0 0;
#X msg 1320 450 0 1 1 0 1 0 0 1;
#X msg 1324 470 0 1 1 0 1 0 1 0;
#X msg 1328 490 0 1 1 0 1 0 1 1;
#X msg 1332 510 0 1 1 0 1 1 0 0;
#X msg 1336 530 0 1 1 0 1 1 0 1;
#X msg 1340 550 0 1 1 0 1 1 1 0;
#X msg 1344 570 0 1 1 0 1 1 1 1;
#X msg 1498 270 0 1 1 1 0 0 0 0;
#X msg 1502 290 0 1 1 1 0 0 0 1;
#X msg 1506 310 0 1 1 1 0 0 1 0;
#X msg 1510 330 0 1 1 1 0 0 1 1;
#X msg 1514 350 0 1 1 1 0 1 0 0;
#X msg 1518 370 0 1 1 1 0 1 0 1;
#X msg 1522 390 0 1 1 1 0 1 1 0;
#X msg 1526 410 0 1 1 1 0 1 1 1;
#X msg 1530 430 0 1 1 1 1 0 0 0;
#X msg 1534 450 0 1 1 1 1 0 0 1;
#X msg 1538 470 0 1 1 1 1 0 1 0;
#X msg 1542 490 0 1 1 1 1 0 1 1;
#X msg 1546 510 0 1 1 1 1 1 0 0;
#X msg 1550 530 0 1 1 1 1 1 0 1;
#X msg 1554 550 0 1 1 1 1 1 1 0;
#X msg 1558 570 0 1 1 1 1 1 1 1;
#X msg 1712 270 1 0 0 0 0 0 0 0;
#X msg 1716 290 1 0 0 0 0 0 0 1;
#X msg 1720 310 1 0 0 0 0 0 1 0;
#X msg 1724 330 1 0 0 0 0 0 1 1;
#X msg 1728 350 1 0 0 0 0 1 0 0;
#X msg 1732 370 1 0 0 0 0 1 0 1;
#X msg 1736 390 1 0 0 0 0 1 1 0;
#X msg 1740 410 1 0 0 0 0 1 1 1;
#X msg 1744 430 1 0 0 0 1 0 0 0;
#X msg 1748 450 1 0 0 0 1 0 0 1;
#X msg 1752 470 1 0 0 0 1 0 1 0;
#X msg 1756 490 1 0 0 0 1 0 1 1;
#X msg 1760 510 1 0 0 0 1 1 0 0;
#X msg 1764 530 1 0 0 0 1 1 0 1;
#X msg 1768 550 1 0 0 0 1 1 1 0;
#X msg 1772 570 1 0 0 0 1 1 1 1;
#X msg 1926 270 1 0 0 1 0 0 0 0;
#X msg 1930 290 1 0 0 1 0 0 0 1;
#X msg 1934 310 1 0 0 1 0 0 1 0;
#X msg 1938 330 1 0 0 1 0 0 1 1;
#X msg 1942 350 1 0 0 1 0 1 0 0;
#X msg 1946 370 1 0 0 1 0 1 0 1;
#X msg 1950 390 1 0 0 1 0 1 1 0;
#X msg 1954 410 1 0 0 1 0 1 1 1;
#X msg 1958 430 1 0 0 1 1 0 0 0;
#X msg 1962 450 1 0 0 1 1 0 0 1;
#X msg 1966 470 1 0 0 1 1 0 1 0;
#X msg 1970 490 1 0 0 1 1 0 1 1;
#X msg 1974 510 1 0 0 1 1 1 0 0;
#X msg 1978 530 1 0 0 1 1 1 0 1;
#X msg 1982 550 1 0 0 1 1 1 1 0;
#X msg 1986 570 1 0 0 1 1 1 1 1;
#X msg 2140 270 1 0 1 0 0 0 0 0;
#X msg 2144 290 1 0 1 0 0 0 0 1;
#X msg 2148 310 1 0 1 0 0 0 1 0;
#X msg 2152 330 1 0 1 0 0 0 1 1;
#X msg 2156 350 1 0 1 0 0 1 0 0;
#X msg 2160 370 1 0 1 0 0 1 0 1;
#X msg 2164 390 1 0 1 0 0 1 1 0;
#X msg 2168 410 1 0 1 0 0 1 1 1;
#X msg 2172 430 1 0 1 0 1 0 0 0;
#X msg 2176 450 1 0 1 0 1 0 0 1;
#X msg 2180 470 1 0 1 0 1 0 1 0;
#X msg 2184 490 1 0 1 0 1 0 1 1;
#X msg 2188 510 1 0 1 0 1 1 0 0;
#X msg 2192 530 1 0 1 0 1 1 0 1;
#X msg 2196 550 1 0 1 0 1 1 1 0;
#X msg 2200 570 1 0 1 0 1 1 1 1;
#X msg 2354 270 1 0 1 1 0 0 0 0;
#X msg 2358 290 1 0 1 1 0 0 0 1;
#X msg 2362 310 1 0 1 1 0 0 1 0;
#X msg 2366 330 1 0 1 1 0 0 1 1;
#X msg 2370 350 1 0 1 1 0 1 0 0;
#X msg 2374 370 1 0 1 1 0 1 0 1;
#X msg 2378 390 1 0 1 1 0 1 1 0;
#X msg 2382 410 1 0 1 1 0 1 1 1;
#X msg 2386 430 1 0 1 1 1 0 0 0;
#X msg 2390 450 1 0 1 1 1 0 0 1;
#X msg 2394 470 1 0 1 1 1 0 1 0;
#X msg 2398 490 1 0 1 1 1 0 1 1;
#X msg 2402 510 1 0 1 1 1 1 0 0;
#X msg 2406 530 1 0 1 1 1 1 0 1;
#X msg 2410 550 1 0 1 1 1 1 1 0;
#X msg 2414 570 1 0 1 1 1 1 1 1;
#X msg 2568 270 1 1 0 0 0 0 0 0;
#X msg 2572 290 1 1 0 0 0 0 0 1;
#X msg 2576 310 1 1 0 0 0 0 1 0;
#X msg 2580 330 1 1 0 0 0 0 1 1;
#X msg 2584 350 1 1 0 0 0 1 0 0;
#X msg 2588 370 1 1 0 0 0 1 0 1;
#X msg 2592 390 1 1 0 0 0 1 1 0;
#X msg 2596 410 1 1 0 0 0 1 1 1;
#X msg 2600 430 1 1 0 0 1 0 0 0;
#X msg 2604 450 1 1 0 0 1 0 0 1;
#X msg 2608 470 1 1 0 0 1 0 1 0;
#X msg 2612 490 1 1 0 0 1 0 1 1;
#X msg 2616 510 1 1 0 0 1 1 0 0;
#X msg 2620 530 1 1 0 0 1 1 0 1;
#X msg 2624 550 1 1 0 0 1 1 1 0;
#X msg 2628 570 1 1 0 0 1 1 1 1;
#X msg 2782 270 1 1 0 1 0 0 0 0;
#X msg 2786 290 1 1 0 1 0 0 0 1;
#X msg 2790 310 1 1 0 1 0 0 1 0;
#X msg 2794 330 1 1 0 1 0 0 1 1;
#X msg 2798 350 1 1 0 1 0 1 0 0;
#X msg 2802 370 1 1 0 1 0 1 0 1;
#X msg 2806 390 1 1 0 1 0 1 1 0;
#X msg 2810 410 1 1 0 1 0 1 1 1;
#X msg 2814 430 1 1 0 1 1 0 0 0;
#X msg 2818 450 1 1 0 1 1 0 0 1;
#X msg 2822 470 1 1 0 1 1 0 1 0;
#X msg 2826 490 1 1 0 1 1 0 1 1;
#X msg 2830 510 1 1 0 1 1 1 0 0;
#X msg 2834 530 1 1 0 1 1 1 0 1;
#X msg 2838 550 1 1 0 1 1 1 1 0;
#X msg 2842 570 1 1 0 1 1 1 1 1;
#X msg 2996 270 1 1 1 0 0 0 0 0;
#X msg 3000 290 1 1 1 0 0 0 0 1;
#X msg 3004 310 1 1 1 0 0 0 1 0;
#X msg 3008 330 1 1 1 0 0 0 1 1;
#X msg 3012 350 1 1 1 0 0 1 0 0;
#X msg 3016 370 1 1 1 0 0 1 0 1;
#X msg 3020 390 1 1 1 0 0 1 1 0;
#X msg 3024 410 1 1 1 0 0 1 1 1;
#X msg 3028 430 1 1 1 0 1 0 0 0;
#X msg 3032 450 1 1 1 0 1 0 0 1;
#X msg 3036 470 1 1 1 0 1 0 1 0;
#X msg 3040 490 1 1 1 0 1 0 1 1;
#X msg 3044 510 1 1 1 0 1 1 0 0;
#X msg 3048 530 1 1 1 0 1 1 0 1;
#X msg 3052 550 1 1 1 0 1 1 1 0;
#X msg 3056 570 1 1 1 0 1 1 1 1;
#X msg 3210 270 1 1 1 1 0 0 0 0;
#X msg 3214 290 1 1 1 1 0 0 0 1;
#X msg 3218 310 1 1 1 1 0 0 1 0;
#X msg 3222 330 1 1 1 1 0 0 1 1;
#X msg 3226 350 1 1 1 1 0 1 0 0;
#X msg 3230 370 1 1 1 1 0 1 0 1;
#X msg 3234 390 1 1 1 1 0 1 1 0;
#X msg 3238 410 1 1 1 1 0 1 1 1;
#X msg 3242 430 1 1 1 1 1 0 0 0;
#X msg 3246 450 1 1 1 1 1 0 0 1;
#X msg 3250 470 1 1 1 1 1 0 1 0;
#X msg 3254 490 1 1 1 1 1 0 1 1;
#X msg 3258 510 1 1 1 1 1 1 0 0;
#X msg 3262 530 1 1 1 1 1 1 0 1;
#X msg 3266 550 1 1 1 1 1 1 1 0;
#X msg 3270 570 1 1 1 1 1 1 1 1;
#X obj 5 83 sel 0 1 2 3 4 5 6 7 8 9 10 11 12 13 14 15 16 17 18 19 20
21 22 23 24 25 26 27 28 29 30 31 32 33 34 35 36 37 38 39 40 41 42 43
44 45 46 47 48 49 50 51 52 53 54 55 56 57 58 59 60 61 62 63 64 65 66
67 68 69 70 71 72 73 74 75 76 77 78 79 80 81 82 83 84 85 86 87 88 89
90 91 92 93 94 95 96 97 98 99 100 101 102 103 104 105 106 107 108 109
110 111 112 113 114 115 116 117 118 119 120 121 122 123 124 125 126
127 128 129 130 131 132 133 134 135 136 137 138 139 140 141 142 143
144 145 146 147 148 149 150 151 152 153 154 155 156 157 158 159 160
161 162 163 164 165 166 167 168 169 170 171 172 173 174 175 176 177
178 179 180 181 182 183 184 185 186 187 188 189 190 191 192 193 194
195 196 197 198 199 200 201 202 203 204 205 206 207 208 209 210 211
212 213 214 215 216 217 218 219 220 221 222 223 224 225 226 227 228
229 230 231 232 233 234 235 236 237 238 239 240 241 242 243 244 245
246 247 248 249 250 251 252 253 254 255, f 481;
#X obj 20 32 inlet;
#X obj 141 740 outlet;
#X connect 0 0 258 0;
#X connect 1 0 258 0;
#X connect 2 0 258 0;
#X connect 3 0 258 0;
#X connect 4 0 258 0;
#X connect 5 0 258 0;
#X connect 6 0 258 0;
#X connect 7 0 258 0;
#X connect 8 0 258 0;
#X connect 9 0 258 0;
#X connect 10 0 258 0;
#X connect 11 0 258 0;
#X connect 12 0 258 0;
#X connect 13 0 258 0;
#X connect 14 0 258 0;
#X connect 15 0 258 0;
#X connect 16 0 258 0;
#X connect 17 0 258 0;
#X connect 18 0 258 0;
#X connect 19 0 258 0;
#X connect 20 0 258 0;
#X connect 21 0 258 0;
#X connect 22 0 258 0;
#X connect 23 0 258 0;
#X connect 24 0 258 0;
#X connect 25 0 258 0;
#X connect 26 0 258 0;
#X connect 27 0 258 0;
#X connect 28 0 258 0;
#X connect 29 0 258 0;
#X connect 30 0 258 0;
#X connect 31 0 258 0;
#X connect 32 0 258 0;
#X connect 33 0 258 0;
#X connect 34 0 258 0;
#X connect 35 0 258 0;
#X connect 36 0 258 0;
#X connect 37 0 258 0;
#X connect 38 0 258 0;
#X connect 39 0 258 0;
#X connect 40 0 258 0;
#X connect 41 0 258 0;
#X connect 42 0 258 0;
#X connect 43 0 258 0;
#X connect 44 0 258 0;
#X connect 45 0 258 0;
#X connect 46 0 258 0;
#X connect 47 0 258 0;
#X connect 48 0 258 0;
#X connect 49 0 258 0;
#X connect 50 0 258 0;
#X connect 51 0 258 0;
#X connect 52 0 258 0;
#X connect 53 0 258 0;
#X connect 54 0 258 0;
#X connect 55 0 258 0;
#X connect 56 0 258 0;
#X connect 57 0 258 0;
#X connect 58 0 258 0;
#X connect 59 0 258 0;
#X connect 60 0 258 0;
#X connect 61 0 258 0;
#X connect 62 0 258 0;
#X connect 63 0 258 0;
#X connect 64 0 258 0;
#X connect 65 0 258 0;
#X connect 66 0 258 0;
#X connect 67 0 258 0;
#X connect 68 0 258 0;
#X connect 69 0 258 0;
#X connect 70 0 258 0;
#X connect 71 0 258 0;
#X connect 72 0 258 0;
#X connect 73 0 258 0;
#X connect 74 0 258 0;
#X connect 75 0 258 0;
#X connect 76 0 258 0;
#X connect 77 0 258 0;
#X connect 78 0 258 0;
#X connect 79 0 258 0;
#X connect 80 0 258 0;
#X connect 81 0 258 0;
#X connect 82 0 258 0;
#X connect 83 0 258 0;
#X connect 84 0 258 0;
#X connect 85 0 258 0;
#X connect 86 0 258 0;
#X connect 87 0 258 0;
#X connect 88 0 258 0;
#X connect 89 0 258 0;
#X connect 90 0 258 0;
#X connect 91 0 258 0;
#X connect 92 0 258 0;
#X connect 93 0 258 0;
#X connect 94 0 258 0;
#X connect 95 0 258 0;
#X connect 96 0 258 0;
#X connect 97 0 258 0;
#X connect 98 0 258 0;
#X connect 99 0 258 0;
#X connect 100 0 258 0;
#X connect 101 0 258 0;
#X connect 102 0 258 0;
#X connect 103 0 258 0;
#X connect 104 0 258 0;
#X connect 105 0 258 0;
#X connect 106 0 258 0;
#X connect 107 0 258 0;
#X connect 108 0 258 0;
#X connect 109 0 258 0;
#X connect 110 0 258 0;
#X connect 111 0 258 0;
#X connect 112 0 258 0;
#X connect 113 0 258 0;
#X connect 114 0 258 0;
#X connect 115 0 258 0;
#X connect 116 0 258 0;
#X connect 117 0 258 0;
#X connect 118 0 258 0;
#X connect 119 0 258 0;
#X connect 120 0 258 0;
#X connect 121 0 258 0;
#X connect 122 0 258 0;
#X connect 123 0 258 0;
#X connect 124 0 258 0;
#X connect 125 0 258 0;
#X connect 126 0 258 0;
#X connect 127 0 258 0;
#X connect 128 0 258 0;
#X connect 129 0 258 0;
#X connect 130 0 258 0;
#X connect 131 0 258 0;
#X connect 132 0 258 0;
#X connect 133 0 258 0;
#X connect 134 0 258 0;
#X connect 135 0 258 0;
#X connect 136 0 258 0;
#X connect 137 0 258 0;
#X connect 138 0 258 0;
#X connect 139 0 258 0;
#X connect 140 0 258 0;
#X connect 141 0 258 0;
#X connect 142 0 258 0;
#X connect 143 0 258 0;
#X connect 144 0 258 0;
#X connect 145 0 258 0;
#X connect 146 0 258 0;
#X connect 147 0 258 0;
#X connect 148 0 258 0;
#X connect 149 0 258 0;
#X connect 150 0 258 0;
#X connect 151 0 258 0;
#X connect 152 0 258 0;
#X connect 153 0 258 0;
#X connect 154 0 258 0;
#X connect 155 0 258 0;
#X connect 156 0 258 0;
#X connect 157 0 258 0;
#X connect 158 0 258 0;
#X connect 159 0 258 0;
#X connect 160 0 258 0;
#X connect 161 0 258 0;
#X connect 162 0 258 0;
#X connect 163 0 258 0;
#X connect 164 0 258 0;
#X connect 165 0 258 0;
#X connect 166 0 258 0;
#X connect 167 0 258 0;
#X connect 168 0 258 0;
#X connect 169 0 258 0;
#X connect 170 0 258 0;
#X connect 171 0 258 0;
#X connect 172 0 258 0;
#X connect 173 0 258 0;
#X connect 174 0 258 0;
#X connect 175 0 258 0;
#X connect 176 0 258 0;
#X connect 177 0 258 0;
#X connect 178 0 258 0;
#X connect 179 0 258 0;
#X connect 180 0 258 0;
#X connect 181 0 258 0;
#X connect 182 0 258 0;
#X connect 183 0 258 0;
#X connect 184 0 258 0;
#X connect 185 0 258 0;
#X connect 186 0 258 0;
#X connect 187 0 258 0;
#X connect 188 0 258 0;
#X connect 189 0 258 0;
#X connect 190 0 258 0;
#X connect 191 0 258 0;
#X connect 192 0 258 0;
#X connect 193 0 258 0;
#X connect 194 0 258 0;
#X connect 195 0 258 0;
#X connect 196 0 258 0;
#X connect 197 0 258 0;
#X connect 198 0 258 0;
#X connect 199 0 258 0;
#X connect 200 0 258 0;
#X connect 201 0 258 0;
#X connect 202 0 258 0;
#X connect 203 0 258 0;
#X connect 204 0 258 0;
#X connect 205 0 258 0;
#X connect 206 0 258 0;
#X connect 207 0 258 0;
#X connect 208 0 258 0;
#X connect 209 0 258 0;
#X connect 210 0 258 0;
#X connect 211 0 258 0;
#X connect 212 0 258 0;
#X connect 213 0 258 0;
#X connect 214 0 258 0;
#X connect 215 0 258 0;
#X connect 216 0 258 0;
#X connect 217 0 258 0;
#X connect 218 0 258 0;
#X connect 219 0 258 0;
#X connect 220 0 258 0;
#X connect 221 0 258 0;
#X connect 222 0 258 0;
#X connect 223 0 258 0;
#X connect 224 0 258 0;
#X connect 225 0 258 0;
#X connect 226 0 258 0;
#X connect 227 0 258 0;
#X connect 228 0 258 0;
#X connect 229 0 258 0;
#X connect 230 0 258 0;
#X connect 231 0 258 0;
#X connect 232 0 258 0;
#X connect 233 0 258 0;
#X connect 234 0 258 0;
#X connect 235 0 258 0;
#X connect 236 0 258 0;
#X connect 237 0 258 0;
#X connect 238 0 258 0;
#X connect 239 0 258 0;
#X connect 240 0 258 0;
#X connect 241 0 258 0;
#X connect 242 0 258 0;
#X connect 243 0 258 0;
#X connect 244 0 258 0;
#X connect 245 0 258 0;
#X connect 246 0 258 0;
#X connect 247 0 258 0;
#X connect 248 0 258 0;
#X connect 249 0 258 0;
#X connect 250 0 258 0;
#X connect 251 0 258 0;
#X connect 252 0 258 0;
#X connect 253 0 258 0;
#X connect 254 0 258 0;
#X connect 255 0 258 0;
#X connect 256 0 0 0;
#X connect 256 1 1 0;
#X connect 256 2 2 0;
#X connect 256 3 3 0;
#X connect 256 4 4 0;
#X connect 256 5 5 0;
#X connect 256 6 6 0;
#X connect 256 7 7 0;
#X connect 256 8 8 0;
#X connect 256 9 9 0;
#X connect 256 10 10 0;
#X connect 256 11 11 0;
#X connect 256 12 12 0;
#X connect 256 13 13 0;
#X connect 256 14 14 0;
#X connect 256 15 15 0;
#X connect 256 16 16 0;
#X connect 256 17 17 0;
#X connect 256 18 18 0;
#X connect 256 19 19 0;
#X connect 256 20 20 0;
#X connect 256 21 21 0;
#X connect 256 22 22 0;
#X connect 256 23 23 0;
#X connect 256 24 24 0;
#X connect 256 25 25 0;
#X connect 256 26 26 0;
#X connect 256 27 27 0;
#X connect 256 28 28 0;
#X connect 256 29 29 0;
#X connect 256 30 30 0;
#X connect 256 31 31 0;
#X connect 256 32 32 0;
#X connect 256 33 33 0;
#X connect 256 34 34 0;
#X connect 256 35 35 0;
#X connect 256 36 36 0;
#X connect 256 37 37 0;
#X connect 256 38 38 0;
#X connect 256 39 39 0;
#X connect 256 40 40 0;
#X connect 256 41 41 0;
#X connect 256 42 42 0;
#X connect 256 43 43 0;
#X connect 256 44 44 0;
#X connect 256 45 45 0;
#X connect 256 46 46 0;
#X connect 256 47 47 0;
#X connect 256 48 48 0;
#X connect 256 49 49 0;
#X connect 256 50 50 0;
#X connect 256 51 51 0;
#X connect 256 52 52 0;
#X connect 256 53 53 0;
#X connect 256 54 54 0;
#X connect 256 55 55 0;
#X connect 256 56 56 0;
#X connect 256 57 57 0;
#X connect 256 58 58 0;
#X connect 256 59 59 0;
#X connect 256 60 60 0;
#X connect 256 61 61 0;
#X connect 256 62 62 0;
#X connect 256 63 63 0;
#X connect 256 64 64 0;
#X connect 256 65 65 0;
#X connect 256 66 66 0;
#X connect 256 67 67 0;
#X connect 256 68 68 0;
#X connect 256 69 69 0;
#X connect 256 70 70 0;
#X connect 256 71 71 0;
#X connect 256 72 72 0;
#X connect 256 73 73 0;
#X connect 256 74 74 0;
#X connect 256 75 75 0;
#X connect 256 76 76 0;
#X connect 256 77 77 0;
#X connect 256 78 78 0;
#X connect 256 79 79 0;
#X connect 256 80 80 0;
#X connect 256 81 81 0;
#X connect 256 82 82 0;
#X connect 256 83 83 0;
#X connect 256 84 84 0;
#X connect 256 85 85 0;
#X connect 256 86 86 0;
#X connect 256 87 87 0;
#X connect 256 88 88 0;
#X connect 256 89 89 0;
#X connect 256 90 90 0;
#X connect 256 91 91 0;
#X connect 256 92 92 0;
#X connect 256 93 93 0;
#X connect 256 94 94 0;
#X connect 256 95 95 0;
#X connect 256 96 96 0;
#X connect 256 97 97 0;
#X connect 256 98 98 0;
#X connect 256 99 99 0;
#X connect 256 100 100 0;
#X connect 256 101 101 0;
#X connect 256 102 102 0;
#X connect 256 103 103 0;
#X connect 256 104 104 0;
#X connect 256 105 105 0;
#X connect 256 106 106 0;
#X connect 256 107 107 0;
#X connect 256 108 108 0;
#X connect 256 109 109 0;
#X connect 256 110 110 0;
#X connect 256 111 111 0;
#X connect 256 112 112 0;
#X connect 256 113 113 0;
#X connect 256 114 114 0;
#X connect 256 115 115 0;
#X connect 256 116 116 0;
#X connect 256 117 117 0;
#X connect 256 118 118 0;
#X connect 256 119 119 0;
#X connect 256 120 120 0;
#X connect 256 121 121 0;
#X connect 256 122 122 0;
#X connect 256 123 123 0;
#X connect 256 124 124 0;
#X connect 256 125 125 0;
#X connect 256 126 126 0;
#X connect 256 127 127 0;
#X connect 256 128 128 0;
#X connect 256 129 129 0;
#X connect 256 130 130 0;
#X connect 256 131 131 0;
#X connect 256 132 132 0;
#X connect 256 133 133 0;
#X connect 256 134 134 0;
#X connect 256 135 135 0;
#X connect 256 136 136 0;
#X connect 256 137 137 0;
#X connect 256 138 138 0;
#X connect 256 139 139 0;
#X connect 256 140 140 0;
#X connect 256 141 141 0;
#X connect 256 142 142 0;
#X connect 256 143 143 0;
#X connect 256 144 144 0;
#X connect 256 145 145 0;
#X connect 256 146 146 0;
#X connect 256 147 147 0;
#X connect 256 148 148 0;
#X connect 256 149 149 0;
#X connect 256 150 150 0;
#X connect 256 151 151 0;
#X connect 256 152 152 0;
#X connect 256 153 153 0;
#X connect 256 154 154 0;
#X connect 256 155 155 0;
#X connect 256 156 156 0;
#X connect 256 157 157 0;
#X connect 256 158 158 0;
#X connect 256 159 159 0;
#X connect 256 160 160 0;
#X connect 256 161 161 0;
#X connect 256 162 162 0;
#X connect 256 163 163 0;
#X connect 256 164 164 0;
#X connect 256 165 165 0;
#X connect 256 166 166 0;
#X connect 256 167 167 0;
#X connect 256 168 168 0;
#X connect 256 169 169 0;
#X connect 256 170 170 0;
#X connect 256 171 171 0;
#X connect 256 172 172 0;
#X connect 256 173 173 0;
#X connect 256 174 174 0;
#X connect 256 175 175 0;
#X connect 256 176 176 0;
#X connect 256 177 177 0;
#X connect 256 178 178 0;
#X connect 256 179 179 0;
#X connect 256 180 180 0;
#X connect 256 181 181 0;
#X connect 256 182 182 0;
#X connect 256 183 183 0;
#X connect 256 184 184 0;
#X connect 256 185 185 0;
#X connect 256 186 186 0;
#X connect 256 187 187 0;
#X connect 256 188 188 0;
#X connect 256 189 189 0;
#X connect 256 190 190 0;
#X connect 256 191 191 0;
#X connect 256 192 192 0;
#X connect 256 193 193 0;
#X connect 256 194 194 0;
#X connect 256 195 195 0;
#X connect 256 196 196 0;
#X connect 256 197 197 0;
#X connect 256 198 198 0;
#X connect 256 199 199 0;
#X connect 256 200 200 0;
#X connect 256 201 201 0;
#X connect 256 202 202 0;
#X connect 256 203 203 0;
#X connect 256 204 204 0;
#X connect 256 205 205 0;
#X connect 256 206 206 0;
#X connect 256 207 207 0;
#X connect 256 208 208 0;
#X connect 256 209 209 0;
#X connect 256 210 210 0;
#X connect 256 211 211 0;
#X connect 256 212 212 0;
#X connect 256 213 213 0;
#X connect 256 214 214 0;
#X connect 256 215 215 0;
#X connect 256 216 216 0;
#X connect 256 217 217 0;
#X connect 256 218 218 0;
#X connect 256 219 219 0;
#X connect 256 220 220 0;
#X connect 256 221 221 0;
#X connect 256 222 222 0;
#X connect 256 223 223 0;
#X connect 256 224 224 0;
#X connect 256 225 225 0;
#X connect 256 226 226 0;
#X connect 256 227 227 0;
#X connect 256 228 228 0;
#X connect 256 229 229 0;
#X connect 256 230 230 0;
#X connect 256 231 231 0;
#X connect 256 232 232 0;
#X connect 256 233 233 0;
#X connect 256 234 234 0;
#X connect 256 235 235 0;
#X connect 256 236 236 0;
#X connect 256 237 237 0;
#X connect 256 238 238 0;
#X connect 256 239 239 0;
#X connect 256 240 240 0;
#X connect 256 241 241 0;
#X connect 256 242 242 0;
#X connect 256 243 243 0;
#X connect 256 244 244 0;
#X connect 256 245 245 0;
#X connect 256 246 246 0;
#X connect 256 247 247 0;
#X connect 256 248 248 0;
#X connect 256 249 249 0;
#X connect 256 250 250 0;
#X connect 256 251 251 0;
#X connect 256 252 252 0;
#X connect 256 253 253 0;
#X connect 256 254 254 0;
#X connect 256 255 255 0;
#X connect 257 0 256 0;
#X restore 186 129 pd inttobinary;
#X obj 186 81 i;
#X obj 186 105 clip 0 255;
#X obj 186 57 inlet;
#X text 16 15 /// GIVEN AN INT FROM 0 TO 255 \, RETURNS AN 8-ITEM LIST
OF THAT NUMBER IN BINARY.;
#X obj 180 271 tgl 15 0 empty empty empty 17 7 0 10 #fcfcfc #000000
#000000 0 1;
#X obj 238 191 unpack f f f f f f f f;
#X obj 195 271 tgl 15 0 empty empty empty 17 7 0 10 #fcfcfc #000000
#000000 0 1;
#X obj 210 271 tgl 15 0 empty empty empty 17 7 0 10 #fcfcfc #000000
#000000 0 1;
#X obj 225 271 tgl 15 0 empty empty empty 17 7 0 10 #fcfcfc #000000
#000000 0 1;
#X obj 240 271 tgl 15 0 empty empty empty 17 7 0 10 #fcfcfc #000000
#000000 0 1;
#X obj 255 271 tgl 15 0 empty empty empty 17 7 0 10 #fcfcfc #000000
#000000 0 1;
#X obj 270 271 tgl 15 0 empty empty empty 17 7 0 10 #fcfcfc #000000
#000000 0 1;
#X obj 285 271 tgl 15 0 empty empty empty 17 7 0 10 #fcfcfc #000000
#000000 0 1;
#X obj 316 60 inlet;
#X obj 186 177 outlet;
#X floatatom 316 84 5 0 0 0 - - - 0;
#N canvas 607 195 699 439 shifter 1;
#X obj 34 31 inlet;
#X obj 453 135 inlet;
#X obj 472 180 i;
#X msg 518 136 0;
#X obj 518 111 loadbang;
#X obj 30 304 outlet;
#X obj 472 282 countrange 0 8, f 22;
#X obj 30 256 8step, f 33;
#X obj 34 69 unpack f f f f f f f f, f 45;
#X obj 472 306 % 8;
#X obj 582 260 + 8;
#X obj 472 234 t b f f b, f 24;
#X obj 472 330 sieverange 0, f 21;
#X floatatom 472 354 5 0 0 0 - - - 0;
#X floatatom 616 354 5 0 0 0 - - - 0;
#X obj 472 377 + 8;
#X obj 472 401 f;
#X obj 30 280 listify, f 51;
#X obj 34 93 t b f;
#X obj 472 204 t b f;
#X text 78 30 list of 8 ints to shift;
#X text 390 109 amount to shift;
#X text 351 345 handle negatives;
#X connect 0 0 8 0;
#X connect 1 0 2 0;
#X connect 2 0 19 0;
#X connect 3 0 2 0;
#X connect 4 0 3 0;
#X connect 6 0 9 0;
#X connect 7 0 17 0;
#X connect 8 0 18 0;
#X connect 8 1 7 2;
#X connect 8 2 7 3;
#X connect 8 3 7 4;
#X connect 8 4 7 5;
#X connect 8 5 7 6;
#X connect 8 6 7 7;
#X connect 8 7 7 8;
#X connect 9 0 12 0;
#X connect 10 0 6 2;
#X connect 11 0 6 0;
#X connect 11 1 6 1;
#X connect 11 2 10 0;
#X connect 11 3 17 1;
#X connect 12 0 13 0;
#X connect 12 8 14 0;
#X connect 13 0 15 0;
#X connect 14 0 16 0;
#X connect 15 0 16 0;
#X connect 16 0 7 0;
#X connect 17 0 5 0;
#X connect 18 0 2 0;
#X connect 18 1 7 1;
#X connect 19 0 17 2;
#X connect 19 1 11 0;
#X restore 186 153 pd shifter 8;
#X connect 0 0 17 0;
#X connect 1 0 2 0;
#X connect 2 0 0 0;
#X connect 3 0 1 0;
#X connect 6 0 5 0;
#X connect 6 1 7 0;
#X connect 6 2 8 0;
#X connect 6 3 9 0;
#X connect 6 4 10 0;
#X connect 6 5 11 0;
#X connect 6 6 12 0;
#X connect 6 7 13 0;
#X connect 14 0 16 0;
#X connect 16 0 17 1;
#X connect 17 0 15 0;
#X connect 17 0 6 0;
#X coords 0 -1 1 1 120 36 1 180 250;
