#N canvas 470 187 473 441 12;
#X obj 168 165 tr8sbd;
#X obj 168 189 tr8ssd;
#X obj 168 213 tr8slt;
#X obj 168 237 tr8smt;
#X obj 168 261 tr8sht;
#X obj 168 285 tr8srs;
#X obj 168 309 tr8shc;
#X obj 168 333 tr8sch;
#X obj 168 357 tr8soh;
#X obj 168 381 tr8scc;
#X obj 168 405 tr8src;
#X text 227 166 kick;
#X text 226 189 snare;
#X text 225 213 low tom;
#X text 227 237 mid tom;
#X text 227 261 high tom;
#X text 227 285 rim shot;
#X text 227 309 hand clap;
#X text 228 333 closed hat;
#X text 229 356 open hat;
#X text 228 381 crash cymbal;
#X text 228 405 ride cymbal;
#X text 15 7 https://static.roland.com/assets/media/pdf/TR-8S_MIDIImpleChart_eng01_W.pdf
;
#X text 93 63 the three inlets for each drum are:;
#X text 135 88 velocity — HOT (0...1);
#X text 142 105 tune — COLD (0...127);
#X text 149 123 decay — COLD (0...1);
