#N canvas 777 320 640 300 12;
#X obj 116 134 inlet;
#X obj 116 158 scaled 0 1 0 127;
#X obj 23 230 noteout, f 27;
#X obj 209 182 loadbang;
#X text 113 105 velocity (0...1);
#X msg 209 206 10;
#X obj 116 182 t b f;
#X obj 322 130 inlet;
#X obj 336 178 loadbang;
#X msg 368 202 10;
#X text 461 107 decay (0...1);
#X obj 482 130 inlet;
#X obj 482 154 scaled 0 1 0 127;
#X obj 496 178 loadbang;
#X msg 528 202 10;
#X text 301 107 tune (0...127);
#X obj 322 154 clip 0 127;
#X obj 322 226 ctlout;
#X obj 482 226 ctlout;
#X obj 23 206 f \$1;
#X obj 336 202 f \$2;
#X obj 496 202 f \$3;
#X text 117 6 refer to https://static.roland.com/assets/media/pdf/TR-8S_MIDIImpleChart_eng01_W.pdf
;
#X text 244 43 \$1 is Notes - Note Number value \; \$2 is cc value
for TUNE \; \$3 is cc value for DECAY \;;
#X connect 0 0 1 0;
#X connect 1 0 6 0;
#X connect 3 0 5 0;
#X connect 5 0 2 2;
#X connect 6 0 19 0;
#X connect 6 1 2 1;
#X connect 7 0 16 0;
#X connect 8 0 9 0;
#X connect 8 0 20 0;
#X connect 9 0 17 2;
#X connect 11 0 12 0;
#X connect 12 0 18 0;
#X connect 13 0 14 0;
#X connect 13 0 21 0;
#X connect 14 0 18 2;
#X connect 16 0 17 0;
#X connect 19 0 2 0;
#X connect 20 0 17 1;
#X connect 21 0 18 1;
