#N canvas 353 391 671 271 12;
#X obj 116 134 inlet;
#X text 113 105 velocity (0...1);
#X obj 322 130 inlet;
#X text 461 107 decay (0...1);
#X obj 482 130 inlet;
#X text 301 107 tune (0...127);
#X text 117 6 https://static.roland.com/assets/media/pdf/TR-8S_MIDIImpleChart_eng01_W.pdf
;
#X obj 116 168 tr8sdrum 36 20 23, f 54;
#X connect 0 0 7 0;
#X connect 2 0 7 1;
#X connect 4 0 7 2;
