#N canvas 422 289 438 274 12;
#X obj 9 222 *~, f 17;
#X obj 125 28 inlet;
#X obj 9 28 inlet~;
#X obj 9 246 outlet~;
#X text 10 5 signal;
#X text 117 7 \$1 trem rate (hz);
#X obj 262 28 inlet;
#X text 257 7 \$2 trem depth %;
#X obj 262 76 clip 0 1;
#X obj 262 52 f \$2;
#X obj 202 28 loadbang;
#X obj 262 130 sig~;
#X obj 125 166 *~;
#X obj 332 171 -;
#X msg 332 146 1;
#X obj 332 195 sig~;
#X obj 125 190 +~;
#X floatatom 391 178 5 0 0 0 - - -;
#X obj 262 100 t f b f, f 13;
#X obj 125 52 lfo~ sin \$1;
#X connect 0 0 3 0;
#X connect 1 0 19 1;
#X connect 2 0 0 0;
#X connect 6 0 9 0;
#X connect 8 0 18 0;
#X connect 9 0 8 0;
#X connect 10 0 9 0;
#X connect 11 0 12 1;
#X connect 12 0 16 0;
#X connect 13 0 15 0;
#X connect 13 0 17 0;
#X connect 14 0 13 0;
#X connect 15 0 16 1;
#X connect 16 0 0 1;
#X connect 18 0 11 0;
#X connect 18 1 14 0;
#X connect 18 2 13 1;
#X connect 19 0 12 0;
