#N canvas 308 49 171 185 12;
#X obj 9 30 phasor~;
#X obj 9 6 inlet~;
#X obj 9 54 -~ 0.5;
#X obj 9 78 abs~;
#X obj 9 102 *~ 4;
#X obj 9 126 -~ 1;
#X obj 9 150 outlet~;
#X obj 92 13 inlet;
#X connect 0 0 2 0;
#X connect 1 0 0 0;
#X connect 2 0 3 0;
#X connect 3 0 4 0;
#X connect 4 0 5 0;
#X connect 5 0 6 0;
#X connect 7 0 0 1;
