#N canvas 308 49 171 248 12;
#X obj 9 78 phasor~;
#X obj 34 102 *~ -1;
#X obj 34 127 +~ 1;
#X obj 9 151 min~;
#X obj 9 6 inlet;
#X obj 9 30 f \$1;
#X obj 9 54 sig~;
#X obj 9 199 outlet~;
#X obj 9 175 scaled~ 0 0.5 -1 1;
#X connect 0 0 1 0;
#X connect 0 0 3 0;
#X connect 1 0 2 0;
#X connect 2 0 3 1;
#X connect 3 0 8 0;
#X connect 4 0 5 0;
#X connect 5 0 6 0;
#X connect 6 0 0 0;
#X connect 8 0 7 0;
