#N canvas -277 406 684 328 12;
#X obj 309 121 osc~;
#X obj 309 209 *~;
#X obj 57 31 inlet~;
#X obj 309 272 outlet~;
#X obj 309 25 inlet;
#X obj 480 25 inlet;
#X text 53 7 audio;
#X obj 309 248 vd~ \$0-vbb;
#X obj 57 118 delwrite~ \$0-vbb 200;
#X floatatom 480 217 5 0 0 0 - - -;
#X obj 480 163 line;
#X obj 480 139 pack \$1 200;
#X obj 309 145 +~ 1;
#X obj 379 25 loadbang;
#X text 274 2 \$1 frequency (hz);
#X text 472 3 \$2 depth;
#X obj 309 82 deff \$1 1;
#X obj 480 82 deff \$2 0.1;
#X obj 480 109 clip 0 1;
#X obj 480 187 * 10;
#X connect 0 0 12 0;
#X connect 1 0 7 0;
#X connect 2 0 8 0;
#X connect 4 0 16 0;
#X connect 5 0 17 0;
#X connect 7 0 3 0;
#X connect 9 0 1 1;
#X connect 10 0 19 0;
#X connect 11 0 10 0;
#X connect 12 0 1 0;
#X connect 13 0 16 0;
#X connect 13 0 17 0;
#X connect 16 0 0 0;
#X connect 17 0 18 0;
#X connect 18 0 11 0;
#X connect 19 0 9 0;
