#N canvas 0 38 496 222 12;
#X obj 0 0 wavefolder~.params;
#X obj 388 25 inlet;
#X obj 137 151 wavefolder~.impl;
#X obj 137 175 outlet~;
#X obj 137 79 inlet~;
#X connect 0 0 2 1;
#X connect 1 0 0 0;
#X connect 2 0 3 0;
#X connect 4 0 2 0;
#X coords 0 -1 1 1 350 76 2 0 0;
