#N canvas 0 38 441 292 12;
#N canvas 265 108 1129 733 fold~ 0;
#X obj 351 71 moses~ 1, f 65;
#X obj 351 165 moses~ -1, f 29;
#X obj 763 155 loadbang;
#X msg 763 179 2;
#X obj 763 203 sig~;
#X obj 763 227 -~, f 8;
#X obj 242 299 loadbang;
#X obj 242 347 sig~;
#X obj 242 371 -~, f 11;
#X msg 242 323 -2;
#X obj 366 336 hv.neq;
#X obj 374 264 loadbang;
#X msg 374 288 0;
#X obj 374 312 sig~;
#X obj 242 395 *~, f 18;
#X obj 850 186 hv.neq;
#X obj 763 251 *~, f 14;
#X obj 349 28 inlet~;
#X obj 474 636 outlet~;
#X obj 861 115 loadbang;
#X msg 861 139 0;
#X obj 861 163 sig~;
#X text 829 225 if > 1 \, fold via 2 - value;
#X text 28 373 if < -1 \, fold via -2 - value;
#X text 458 200 if between -1 and 1 \, don't fold;
#X connect 0 0 1 0;
#X connect 0 1 5 1;
#X connect 0 1 15 0;
#X connect 1 0 8 1;
#X connect 1 0 10 0;
#X connect 1 1 18 0;
#X connect 2 0 3 0;
#X connect 3 0 4 0;
#X connect 4 0 5 0;
#X connect 5 0 16 0;
#X connect 6 0 9 0;
#X connect 7 0 8 0;
#X connect 8 0 14 0;
#X connect 9 0 7 0;
#X connect 10 0 14 1;
#X connect 11 0 12 0;
#X connect 12 0 13 0;
#X connect 13 0 10 1;
#X connect 14 0 18 0;
#X connect 15 0 16 1;
#X connect 16 0 18 0;
#X connect 17 0 0 0;
#X connect 19 0 20 0;
#X connect 20 0 21 0;
#X connect 21 0 15 1;
#X restore 181 185 pd fold~;
#X obj 181 161 inlet~;
#X text 12 15 /// BASED ON https://www.youtube.com/watch?v=f2s3mAqLjkg
;
#X obj 181 233 clip~ -1 1;
#X obj 181 257 outlet~;
#N canvas 265 108 1129 733 fold~ 0;
#X obj 351 71 moses~ 1, f 65;
#X obj 351 165 moses~ -1, f 29;
#X obj 763 155 loadbang;
#X msg 763 179 2;
#X obj 763 203 sig~;
#X obj 763 227 -~, f 8;
#X obj 242 299 loadbang;
#X obj 242 347 sig~;
#X obj 242 371 -~, f 11;
#X msg 242 323 -2;
#X obj 366 336 hv.neq;
#X obj 374 264 loadbang;
#X msg 374 288 0;
#X obj 374 312 sig~;
#X obj 242 395 *~, f 18;
#X obj 850 186 hv.neq;
#X obj 763 251 *~, f 14;
#X obj 349 28 inlet~;
#X obj 474 636 outlet~;
#X obj 861 115 loadbang;
#X msg 861 139 0;
#X obj 861 163 sig~;
#X text 829 225 if > 1 \, fold via 2 - value;
#X text 28 373 if < -1 \, fold via -2 - value;
#X text 458 200 if between -1 and 1 \, don't fold;
#X connect 0 0 1 0;
#X connect 0 1 5 1;
#X connect 0 1 15 0;
#X connect 1 0 8 1;
#X connect 1 0 10 0;
#X connect 1 1 18 0;
#X connect 2 0 3 0;
#X connect 3 0 4 0;
#X connect 4 0 5 0;
#X connect 5 0 16 0;
#X connect 6 0 9 0;
#X connect 7 0 8 0;
#X connect 8 0 14 0;
#X connect 9 0 7 0;
#X connect 10 0 14 1;
#X connect 11 0 12 0;
#X connect 12 0 13 0;
#X connect 13 0 10 1;
#X connect 14 0 18 0;
#X connect 15 0 16 1;
#X connect 16 0 18 0;
#X connect 17 0 0 0;
#X connect 19 0 20 0;
#X connect 20 0 21 0;
#X connect 21 0 15 1;
#X restore 181 209 pd fold~;
#X text 12 35 /// SEND IN AUDIO WITH A RANGE GREATER THAN -1...1 TO
\; /// FOLD IT IN ON ITSELF. THIS HAS TWO FOLD STEPS \, SO \; /// IF
THE INPUT AUDIO'S RANGE IS TOO GREAT \, SO MUCH SO \; /// THAT FOLDING
THREE TIMES DOESN'T WORK \, WE JUST CLIP \; /// IT TO KEEP IT IN THE
RANGE OF -1...1. FOLDS WITHOUT \; /// CLIPPING ROUGHLY ON AN INPUT
RANGE FROM -5...5 \, AND \; /// THEN STARTS CLIPPING.;
#X connect 0 0 5 0;
#X connect 1 0 0 0;
#X connect 3 0 4 0;
#X connect 5 0 3 0;
