#N canvas 458 258 766 663 12;
#N canvas 265 108 1129 733 fold~ 0;
#X obj 351 71 moses~ 1, f 65;
#X obj 351 165 moses~ -1, f 29;
#X obj 763 155 loadbang;
#X msg 763 179 2;
#X obj 763 203 sig~;
#X obj 763 227 -~, f 8;
#X obj 242 299 loadbang;
#X obj 242 347 sig~;
#X obj 242 371 -~, f 11;
#X msg 242 323 -2;
#X obj 374 264 loadbang;
#X msg 374 288 0;
#X obj 374 312 sig~;
#X obj 242 395 *~, f 18;
#X obj 763 251 *~, f 14;
#X obj 349 28 inlet~;
#X obj 474 636 outlet~;
#X obj 861 115 loadbang;
#X msg 861 139 0;
#X obj 861 163 sig~;
#X text 829 225 if > 1 \, fold via 2 - value;
#X text 28 373 if < -1 \, fold via -2 - value;
#X text 458 200 if between -1 and 1 \, don't fold;
#X obj 850 186 heavylib/hv.neq;
#X obj 366 336 heavylib/hv.neq;
#X connect 0 0 1 0;
#X connect 0 1 5 1;
#X connect 0 1 23 0;
#X connect 1 0 8 1;
#X connect 1 0 24 0;
#X connect 1 1 16 0;
#X connect 2 0 3 0;
#X connect 3 0 4 0;
#X connect 4 0 5 0;
#X connect 5 0 14 0;
#X connect 6 0 9 0;
#X connect 7 0 8 0;
#X connect 8 0 13 0;
#X connect 9 0 7 0;
#X connect 10 0 11 0;
#X connect 11 0 12 0;
#X connect 12 0 24 1;
#X connect 13 0 16 0;
#X connect 14 0 16 0;
#X connect 15 0 0 0;
#X connect 17 0 18 0;
#X connect 18 0 19 0;
#X connect 19 0 23 1;
#X connect 23 0 14 1;
#X connect 24 0 13 1;
#X restore 261 379 pd fold~;
#X obj 261 191 inlet~;
#X text 12 15 /// BASED ON https://www.youtube.com/watch?v=f2s3mAqLjkg;
#X obj 261 625 outlet~;
#N canvas 265 108 1129 733 fold~ 0;
#X obj 351 71 moses~ 1, f 65;
#X obj 351 165 moses~ -1, f 29;
#X obj 763 155 loadbang;
#X msg 763 179 2;
#X obj 763 203 sig~;
#X obj 763 227 -~, f 8;
#X obj 242 299 loadbang;
#X obj 242 347 sig~;
#X obj 242 371 -~, f 11;
#X msg 242 323 -2;
#X obj 374 264 loadbang;
#X msg 374 288 0;
#X obj 374 312 sig~;
#X obj 242 395 *~, f 18;
#X obj 763 251 *~, f 14;
#X obj 349 28 inlet~;
#X obj 474 636 outlet~;
#X obj 861 115 loadbang;
#X msg 861 139 0;
#X obj 861 163 sig~;
#X text 829 225 if > 1 \, fold via 2 - value;
#X text 28 373 if < -1 \, fold via -2 - value;
#X text 458 200 if between -1 and 1 \, don't fold;
#X obj 366 336 heavylib/hv.neq;
#X obj 850 186 heavylib/hv.neq;
#X connect 0 0 1 0;
#X connect 0 1 5 1;
#X connect 0 1 24 0;
#X connect 1 0 8 1;
#X connect 1 0 23 0;
#X connect 1 1 16 0;
#X connect 2 0 3 0;
#X connect 3 0 4 0;
#X connect 4 0 5 0;
#X connect 5 0 14 0;
#X connect 6 0 9 0;
#X connect 7 0 8 0;
#X connect 8 0 13 0;
#X connect 9 0 7 0;
#X connect 10 0 11 0;
#X connect 11 0 12 0;
#X connect 12 0 23 1;
#X connect 13 0 16 0;
#X connect 14 0 16 0;
#X connect 15 0 0 0;
#X connect 17 0 18 0;
#X connect 18 0 19 0;
#X connect 19 0 24 1;
#X connect 23 0 13 1;
#X connect 24 0 14 1;
#X restore 261 403 pd fold~;
#N canvas 265 108 1129 733 fold~ 0;
#X obj 351 71 moses~ 1, f 65;
#X obj 351 165 moses~ -1, f 29;
#X obj 763 155 loadbang;
#X msg 763 179 2;
#X obj 763 203 sig~;
#X obj 763 227 -~, f 8;
#X obj 242 299 loadbang;
#X obj 242 347 sig~;
#X obj 242 371 -~, f 11;
#X msg 242 323 -2;
#X obj 374 264 loadbang;
#X msg 374 288 0;
#X obj 374 312 sig~;
#X obj 242 395 *~, f 18;
#X obj 763 251 *~, f 14;
#X obj 349 28 inlet~;
#X obj 474 636 outlet~;
#X obj 861 115 loadbang;
#X msg 861 139 0;
#X obj 861 163 sig~;
#X text 829 225 if > 1 \, fold via 2 - value;
#X text 28 373 if < -1 \, fold via -2 - value;
#X text 458 200 if between -1 and 1 \, don't fold;
#X obj 366 336 heavylib/hv.neq;
#X obj 850 186 heavylib/hv.neq;
#X connect 0 0 1 0;
#X connect 0 1 5 1;
#X connect 0 1 24 0;
#X connect 1 0 8 1;
#X connect 1 0 23 0;
#X connect 1 1 16 0;
#X connect 2 0 3 0;
#X connect 3 0 4 0;
#X connect 4 0 5 0;
#X connect 5 0 14 0;
#X connect 6 0 9 0;
#X connect 7 0 8 0;
#X connect 8 0 13 0;
#X connect 9 0 7 0;
#X connect 10 0 11 0;
#X connect 11 0 12 0;
#X connect 12 0 23 1;
#X connect 13 0 16 0;
#X connect 14 0 16 0;
#X connect 15 0 0 0;
#X connect 17 0 18 0;
#X connect 18 0 19 0;
#X connect 19 0 24 1;
#X connect 23 0 13 1;
#X connect 24 0 14 1;
#X restore 261 427 pd fold~;
#N canvas 265 108 1129 733 fold~ 0;
#X obj 351 71 moses~ 1, f 65;
#X obj 351 165 moses~ -1, f 29;
#X obj 763 155 loadbang;
#X msg 763 179 2;
#X obj 763 203 sig~;
#X obj 763 227 -~, f 8;
#X obj 242 299 loadbang;
#X obj 242 347 sig~;
#X obj 242 371 -~, f 11;
#X msg 242 323 -2;
#X obj 374 264 loadbang;
#X msg 374 288 0;
#X obj 374 312 sig~;
#X obj 242 395 *~, f 18;
#X obj 763 251 *~, f 14;
#X obj 349 28 inlet~;
#X obj 474 636 outlet~;
#X obj 861 115 loadbang;
#X msg 861 139 0;
#X obj 861 163 sig~;
#X text 829 225 if > 1 \, fold via 2 - value;
#X text 28 373 if < -1 \, fold via -2 - value;
#X text 458 200 if between -1 and 1 \, don't fold;
#X obj 366 336 heavylib/hv.neq;
#X obj 850 186 heavylib/hv.neq;
#X connect 0 0 1 0;
#X connect 0 1 5 1;
#X connect 0 1 24 0;
#X connect 1 0 8 1;
#X connect 1 0 23 0;
#X connect 1 1 16 0;
#X connect 2 0 3 0;
#X connect 3 0 4 0;
#X connect 4 0 5 0;
#X connect 5 0 14 0;
#X connect 6 0 9 0;
#X connect 7 0 8 0;
#X connect 8 0 13 0;
#X connect 9 0 7 0;
#X connect 10 0 11 0;
#X connect 11 0 12 0;
#X connect 12 0 23 1;
#X connect 13 0 16 0;
#X connect 14 0 16 0;
#X connect 15 0 0 0;
#X connect 17 0 18 0;
#X connect 18 0 19 0;
#X connect 19 0 24 1;
#X connect 23 0 13 1;
#X connect 24 0 14 1;
#X restore 261 451 pd fold~;
#N canvas 265 108 1129 733 fold~ 0;
#X obj 351 71 moses~ 1, f 65;
#X obj 351 165 moses~ -1, f 29;
#X obj 763 155 loadbang;
#X msg 763 179 2;
#X obj 763 203 sig~;
#X obj 763 227 -~, f 8;
#X obj 242 299 loadbang;
#X obj 242 347 sig~;
#X obj 242 371 -~, f 11;
#X msg 242 323 -2;
#X obj 374 264 loadbang;
#X msg 374 288 0;
#X obj 374 312 sig~;
#X obj 242 395 *~, f 18;
#X obj 763 251 *~, f 14;
#X obj 349 28 inlet~;
#X obj 474 636 outlet~;
#X obj 861 115 loadbang;
#X msg 861 139 0;
#X obj 861 163 sig~;
#X text 829 225 if > 1 \, fold via 2 - value;
#X text 28 373 if < -1 \, fold via -2 - value;
#X text 458 200 if between -1 and 1 \, don't fold;
#X obj 366 336 heavylib/hv.neq;
#X obj 850 186 heavylib/hv.neq;
#X connect 0 0 1 0;
#X connect 0 1 5 1;
#X connect 0 1 24 0;
#X connect 1 0 8 1;
#X connect 1 0 23 0;
#X connect 1 1 16 0;
#X connect 2 0 3 0;
#X connect 3 0 4 0;
#X connect 4 0 5 0;
#X connect 5 0 14 0;
#X connect 6 0 9 0;
#X connect 7 0 8 0;
#X connect 8 0 13 0;
#X connect 9 0 7 0;
#X connect 10 0 11 0;
#X connect 11 0 12 0;
#X connect 12 0 23 1;
#X connect 13 0 16 0;
#X connect 14 0 16 0;
#X connect 15 0 0 0;
#X connect 17 0 18 0;
#X connect 18 0 19 0;
#X connect 19 0 24 1;
#X connect 23 0 13 1;
#X connect 24 0 14 1;
#X restore 261 475 pd fold~;
#X obj 261 355 *~, f 11;
#N canvas 265 108 1129 733 fold~ 0;
#X obj 351 71 moses~ 1, f 65;
#X obj 351 165 moses~ -1, f 29;
#X obj 763 155 loadbang;
#X msg 763 179 2;
#X obj 763 203 sig~;
#X obj 763 227 -~, f 8;
#X obj 242 299 loadbang;
#X obj 242 347 sig~;
#X obj 242 371 -~, f 11;
#X msg 242 323 -2;
#X obj 374 264 loadbang;
#X msg 374 288 0;
#X obj 374 312 sig~;
#X obj 242 395 *~, f 18;
#X obj 763 251 *~, f 14;
#X obj 349 28 inlet~;
#X obj 474 636 outlet~;
#X obj 861 115 loadbang;
#X msg 861 139 0;
#X obj 861 163 sig~;
#X text 829 225 if > 1 \, fold via 2 - value;
#X text 28 373 if < -1 \, fold via -2 - value;
#X text 458 200 if between -1 and 1 \, don't fold;
#X obj 366 336 heavylib/hv.neq;
#X obj 850 186 heavylib/hv.neq;
#X connect 0 0 1 0;
#X connect 0 1 5 1;
#X connect 0 1 24 0;
#X connect 1 0 8 1;
#X connect 1 0 23 0;
#X connect 1 1 16 0;
#X connect 2 0 3 0;
#X connect 3 0 4 0;
#X connect 4 0 5 0;
#X connect 5 0 14 0;
#X connect 6 0 9 0;
#X connect 7 0 8 0;
#X connect 8 0 13 0;
#X connect 9 0 7 0;
#X connect 10 0 11 0;
#X connect 11 0 12 0;
#X connect 12 0 23 1;
#X connect 13 0 16 0;
#X connect 14 0 16 0;
#X connect 15 0 0 0;
#X connect 17 0 18 0;
#X connect 18 0 19 0;
#X connect 19 0 24 1;
#X connect 23 0 13 1;
#X connect 24 0 14 1;
#X restore 261 499 pd fold~;
#N canvas 265 108 1129 733 fold~ 0;
#X obj 351 71 moses~ 1, f 65;
#X obj 351 165 moses~ -1, f 29;
#X obj 763 155 loadbang;
#X msg 763 179 2;
#X obj 763 203 sig~;
#X obj 763 227 -~, f 8;
#X obj 242 299 loadbang;
#X obj 242 347 sig~;
#X obj 242 371 -~, f 11;
#X msg 242 323 -2;
#X obj 374 264 loadbang;
#X msg 374 288 0;
#X obj 374 312 sig~;
#X obj 242 395 *~, f 18;
#X obj 763 251 *~, f 14;
#X obj 349 28 inlet~;
#X obj 474 636 outlet~;
#X obj 861 115 loadbang;
#X msg 861 139 0;
#X obj 861 163 sig~;
#X text 829 225 if > 1 \, fold via 2 - value;
#X text 28 373 if < -1 \, fold via -2 - value;
#X text 458 200 if between -1 and 1 \, don't fold;
#X obj 366 336 heavylib/hv.neq;
#X obj 850 186 heavylib/hv.neq;
#X connect 0 0 1 0;
#X connect 0 1 5 1;
#X connect 0 1 24 0;
#X connect 1 0 8 1;
#X connect 1 0 23 0;
#X connect 1 1 16 0;
#X connect 2 0 3 0;
#X connect 3 0 4 0;
#X connect 4 0 5 0;
#X connect 5 0 14 0;
#X connect 6 0 9 0;
#X connect 7 0 8 0;
#X connect 8 0 13 0;
#X connect 9 0 7 0;
#X connect 10 0 11 0;
#X connect 11 0 12 0;
#X connect 12 0 23 1;
#X connect 13 0 16 0;
#X connect 14 0 16 0;
#X connect 15 0 0 0;
#X connect 17 0 18 0;
#X connect 18 0 19 0;
#X connect 19 0 24 1;
#X connect 23 0 13 1;
#X connect 24 0 14 1;
#X restore 261 523 pd fold~;
#X obj 335 307 scaled 0 1 1 16;
#X obj 335 283 easeincubic;
#X obj 335 260 msphsl 0 1;
#X obj 363 499 msphsl 0 1 0;
#X obj 81 483 msphsl 0 1 1;
#X obj 81 506 ramp~;
#X obj 81 529 *~, f 17;
#X obj 261 547 *~, f 15;
#X obj 261 601 clip~ -1 1;
#X obj 494 33 inlet;
#X obj 494 81 clip 0 1;
#X obj 570 81 clip 0 1;
#X obj 646 81 clip 0 1;
#X obj 570 135 s \$0-dry;
#X obj 646 105 s \$0-wet;
#X obj 81 459 r \$0-dry;
#X obj 363 475 r \$0-wet;
#X obj 529 215 print UNKNOWN_PARAMETER;
#X obj 494 57 route foldamount dry wet, f 33;
#X obj 494 105 s \$0-foldamount;
#X obj 335 236 r \$0-foldamount;
#X text 12 35 /// FOLDS \, AND THEN CLIPS IF THE FOLDS WEREN'T ENOUGH.;
#X obj 363 522 ramp~ 50;
#X obj 335 331 ramp~ 50;
#X connect 0 0 4 0;
#X connect 1 0 8 0;
#X connect 1 0 17 1;
#X connect 4 0 5 0;
#X connect 5 0 6 0;
#X connect 6 0 7 0;
#X connect 7 0 9 0;
#X connect 8 0 0 0;
#X connect 9 0 10 0;
#X connect 10 0 18 0;
#X connect 11 0 34 0;
#X connect 12 0 11 0;
#X connect 13 0 12 0;
#X connect 14 0 33 0;
#X connect 15 0 16 0;
#X connect 16 0 17 0;
#X connect 17 0 19 0;
#X connect 18 0 19 0;
#X connect 19 0 3 0;
#X connect 20 0 29 0;
#X connect 21 0 30 0;
#X connect 22 0 24 0;
#X connect 23 0 25 0;
#X connect 26 0 15 0;
#X connect 27 0 14 0;
#X connect 29 0 21 0;
#X connect 29 1 22 0;
#X connect 29 2 23 0;
#X connect 29 3 28 0;
#X connect 31 0 13 0;
#X connect 33 0 18 1;
#X connect 34 0 8 1;
