#N canvas 0 25 1274 669 12;
#X msg 27 43 \; wavetable sinesum 2051 1 \;;
#X msg 15 185 \; wavetable sinesum 2051 1 0 -0.111111 0 0.04 -0.020408
0 0.0123457 0 -0.00826446 0 \; \; wavetable normalize 1 \;;
#X msg 618 253 \; wavetable sinesum 2051 1 0.5 0.333333 0.25 0.2 0.166667
0.142857 0.125 0.111111 0.1 0.090909 0.0833333 0.076923 0.0714286 0.0666667
0.0625 0.0588235 0.0555556 0.0526316 0.05 0.047619 0.0454545 0.0434783
0.0416667 0.04 0.0384615 0.037037 0.0357143 0.0344828 0.0333333 \;
\; wavetable normalize 1 \;;
#X msg 638 53 \; wavetable sinesum 2051 1 0 0.333333 0 0.2 0 0.142857
0 0.111111 0 0.090909 0 0.076923 0 0.0666667 0 0.0588235 0 0.052613
0 0.047619 0 0.0434783 0 0.04 0 0.037037 0 0.0344838 \; \; wavetable
normalize 1 \;;
#X text 636 29 29 harmonics of a square wave;
#X text 622 227 30 harmonics of a sawtooth wave;
#X text 19 152 triangle wave;
#X text 39 21 sine;
