#N canvas 0 38 468 277 12;
#X obj 0 37 mspparam wet;
#X obj 148 195 outlet;
#X obj 249 97 inlet;
#X obj 0 55 mspparam dry 0 1 1;
#X obj 249 121 route foldamount wet dry;
#X obj 0 19 mspparam foldamount;
#X text 7 -1 ----- wavefolder :) -----;
#X connect 0 0 1 0;
#X connect 2 0 4 0;
#X connect 3 0 1 0;
#X connect 4 0 5 0;
#X connect 4 1 0 0;
#X connect 4 2 3 0;
#X connect 5 0 1 0;
#X coords 0 -1 1 1 204 73 2 0 0;
