#N canvas 0 38 607 360 12;
#X obj 41 158 inlet;
#X obj 41 182 weaver.impl, f 21;
#X obj 89 158 inlet;
#X obj 137 158 inlet;
#X obj 398 124 inlet;
#X obj 1 1 weaver.params;
#X obj 41 206 outlet;
#X obj 185 206 outlet;
#X connect 0 0 1 0;
#X connect 1 0 6 0;
#X connect 1 1 7 0;
#X connect 2 0 1 1;
#X connect 3 0 1 2;
#X connect 4 0 5 0;
#X connect 5 0 1 3;
#X coords 0 -1 1 1 204 116 2 1 1;
