#N canvas 0 38 1512 884 12;
#X obj 753 156 inputhonoringf;
#X obj 1087 162 inputhonoringf;
#X obj 147 61 s \$0-cleanup;
#X obj 800 120 r \$0-cleanup;
#X obj 1134 123 r \$0-cleanup;
#X obj 833 398 f;
#X obj 928 401 f;
#X obj 848 179 * 1;
#X obj 1182 187 * 2;
#X obj 935 76 r \$0-prepare;
#X obj 935 100 t b b;
#X obj 1008 223 +;
#X obj 1008 247 s \$0-input-mask;
#N canvas 208 246 450 300 modefilter 0;
#X obj 173 39 r \$0-mode;
#X obj 143 92 == 0;
#X obj 272 110 == 1;
#X obj 143 116 tgl 19 0 empty empty empty 0 -10 0 12 #fcfcfc #000000 #000000 0 1;
#X obj 272 134 tgl 19 0 empty empty empty 0 -10 0 12 #fcfcfc #000000 #000000 0 1;
#X obj 105 155 spigot;
#X obj 229 173 spigot;
#X obj 89 24 inlet;
#X obj 105 185 outlet;
#X obj 89 48 t f f;
#X obj 229 197 outlet;
#X connect 0 0 1 0;
#X connect 0 0 2 0;
#X connect 1 0 3 0;
#X connect 2 0 4 0;
#X connect 3 0 5 1;
#X connect 4 0 6 1;
#X connect 5 0 8 0;
#X connect 6 0 10 0;
#X connect 7 0 9 0;
#X connect 9 0 5 0;
#X connect 9 1 6 0;
#X restore 507 611 pd modefilter;
#X obj 833 316 r \$0-execute;
#X obj 551 440 r \$0-input-mask;
#X msg 549 520 1;
#X msg 586 521 0;
#X msg 769 512 1;
#X msg 806 513 0;
#X obj 543 554 tgl 19 0 empty empty empty 0 -10 0 12 #fcfcfc #000000 #000000 0 1;
#X obj 508 583 spigot;
#X obj 776 552 tgl 19 0 empty empty empty 0 -10 0 12 #fcfcfc #000000 #000000 0 1;
#X obj 741 581 spigot;
#X obj 551 495 sel 1;
#X obj 1226 596 spigot;
#X obj 771 487 sel 2;
#X msg 988 518 1;
#X msg 1025 519 0;
#X obj 995 548 tgl 19 0 empty empty empty 0 -10 0 12 #fcfcfc #000000 #000000 0 1;
#X obj 960 599 spigot;
#X obj 990 493 sel 3;
#N canvas 208 246 450 300 modefilter 0;
#X obj 173 39 r \$0-mode;
#X obj 143 92 == 0;
#X obj 272 110 == 1;
#X obj 143 116 tgl 19 0 empty empty empty 0 -10 0 12 #fcfcfc #000000 #000000 0 1;
#X obj 272 134 tgl 19 0 empty empty empty 0 -10 0 12 #fcfcfc #000000 #000000 0 1;
#X obj 105 155 spigot;
#X obj 229 173 spigot;
#X obj 89 24 inlet;
#X obj 105 185 outlet;
#X obj 89 48 t f f;
#X obj 229 197 outlet;
#X connect 0 0 1 0;
#X connect 0 0 2 0;
#X connect 1 0 3 0;
#X connect 2 0 4 0;
#X connect 3 0 5 1;
#X connect 4 0 6 1;
#X connect 5 0 8 0;
#X connect 6 0 10 0;
#X connect 7 0 9 0;
#X connect 9 0 5 0;
#X connect 9 1 6 0;
#X restore 738 608 pd modefilter;
#X obj 551 464 t f f f, f 64;
#X obj 995 572 t f f, f 39;
#X obj 833 422 t f f;
#X obj 928 425 t f f;
#N canvas 208 246 450 300 modefilter 0;
#X obj 173 39 r \$0-mode;
#X obj 143 92 == 0;
#X obj 272 110 == 1;
#X obj 143 116 tgl 19 0 empty empty empty 0 -10 0 12 #fcfcfc #000000 #000000 0 1;
#X obj 272 134 tgl 19 0 empty empty empty 0 -10 0 12 #fcfcfc #000000 #000000 0 1;
#X obj 105 155 spigot;
#X obj 229 173 spigot;
#X obj 89 24 inlet;
#X obj 105 185 outlet;
#X obj 89 48 t f f;
#X obj 229 197 outlet;
#X connect 0 0 1 0;
#X connect 0 0 2 0;
#X connect 1 0 3 0;
#X connect 2 0 4 0;
#X connect 3 0 5 1;
#X connect 4 0 6 1;
#X connect 5 0 8 0;
#X connect 6 0 10 0;
#X connect 7 0 9 0;
#X connect 9 0 5 0;
#X connect 9 1 6 0;
#X restore 960 624 pd modefilter;
#N canvas 208 246 450 300 modefilter 0;
#X obj 173 39 r \$0-mode;
#X obj 143 92 == 0;
#X obj 272 110 == 1;
#X obj 143 116 tgl 19 0 empty empty empty 0 -10 0 12 #fcfcfc #000000 #000000 0 1;
#X obj 272 134 tgl 19 0 empty empty empty 0 -10 0 12 #fcfcfc #000000 #000000 0 1;
#X obj 105 155 spigot;
#X obj 229 173 spigot;
#X obj 89 24 inlet;
#X obj 105 185 outlet;
#X obj 89 48 t f f;
#X obj 229 197 outlet;
#X connect 0 0 1 0;
#X connect 0 0 2 0;
#X connect 1 0 3 0;
#X connect 2 0 4 0;
#X connect 3 0 5 1;
#X connect 4 0 6 1;
#X connect 5 0 8 0;
#X connect 6 0 10 0;
#X connect 7 0 9 0;
#X connect 9 0 5 0;
#X connect 9 1 6 0;
#X restore 1226 620 pd modefilter;
#X obj 821 1224 outlet;
#X text 477 495 only left;
#X text 693 487 only right;
#X text 1036 491 both left and right;
#X obj 752 42 clip 0 1;
#X obj 1042 42 clip 0 1;
#X obj 752 81 msphsl 0 1;
#X obj 1042 66 msphsl 0 1;
#X obj 466 644 bng 19 250 50 0 empty empty empty 0 -10 0 12 #fcfcfc #000000 #000000;
#X obj 591 644 bng 19 250 50 0 empty empty empty 0 -10 0 12 #fcfcfc #000000 #000000;
#X obj 717 641 bng 19 250 50 0 empty empty empty 0 -10 0 12 #fcfcfc #000000 #000000;
#X obj 842 641 bng 19 250 50 0 empty empty empty 0 -10 0 12 #fcfcfc #000000 #000000;
#X obj 939 657 bng 19 250 50 0 empty empty empty 0 -10 0 12 #fcfcfc #000000 #000000;
#X obj 1064 639 bng 19 250 50 0 empty empty empty 0 -10 0 12 #fcfcfc #000000 #000000;
#X obj 1201 642 bng 19 250 50 0 empty empty empty 0 -10 0 12 #fcfcfc #000000 #000000;
#X obj 1336 637 bng 19 250 50 0 empty empty empty 0 -10 0 12 #fcfcfc #000000 #000000;
#X floatatom 821 1014 5 0 0 0 - - - 0;
#X obj 821 990 t f f;
#X obj 869 991 bng 19 250 50 0 empty empty empty 0 -10 0 12 #fcfcfc #000000 #000000;
#X obj 1101 648 r \$0-balance;
#X obj 1083 697 *;
#X obj 1101 672 oneminus;
#X obj 1366 653 r \$0-balance;
#X obj 1348 677 *;
#X obj 1247 757 +;
#X obj 753 180 s \$0-left;
#X obj 1087 186 s \$0-right;
#X obj 851 373 r \$0-left;
#X obj 946 375 r \$0-right;
#X text 430 611 interleave;
#X text 664 608 interleave;
#X text 886 623 interleave;
#X text 1152 621 interleave;
#X text 586 592 interpolate;
#X text 838 607 interpolate;
#X text 1056 621 interpolate;
#X text 1321 619 interpolate;
#X obj 14 98 loadbang;
#X obj 14 122 bng 19 250 50 0 empty empty empty 0 -10 0 12 #fcfcfc #000000 #000000;
#X obj 14 146 s \$0-reroll;
#X obj 61 487 r \$0-reroll;
#X obj 61 511 countrange 0 2048;
#X obj 61 535 t b f, f 18;
#X obj 61 583 / 10000;
#X obj 61 559 randrange 0 10001;
#X obj 61 607 tabwrite \$0-biases;
#X obj 181 120 table \$0-biases 2048;
#X obj 285 60 s \$0-execute;
#X obj 424 85 s \$0-prepare;
#X obj 519 85 tabread \$0-biases;
#X obj 519 133 s \$0-bias;
#X obj 87 765 r \$0-bias;
#X obj 161 765 r \$0-balance;
#X obj 87 837 sel 0 1, f 23;
#X obj 87 789 <, f 11;
#X obj 519 109 scaled 0 1 0.0001 0.9999;
#X text 46 861 left;
#X text 205 859 right;
#X obj 71 928 s \$0-interleave-left;
#X obj 92 960 s \$0-interleave-right;
#X obj 87 861 t b b;
#X msg 87 885 1;
#X msg 119 885 0;
#X obj 166 861 t b b;
#X msg 166 885 1;
#X msg 198 885 0;
#X obj 546 677 r \$0-interleave-left;
#X obj 507 725 spigot;
#X obj 546 701 tgl 19 0 empty empty empty 0 -10 0 12 #fcfcfc #000000 #000000 0 1;
#X obj 738 725 spigot;
#X obj 777 701 tgl 19 0 empty empty empty 0 -10 0 12 #fcfcfc #000000 #000000 0 1;
#X obj 777 677 r \$0-interleave-right;
#X obj 996 787 r \$0-interleave-left;
#X obj 957 835 spigot;
#X obj 996 811 tgl 19 0 empty empty empty 0 -10 0 12 #fcfcfc #000000 #000000 0 1;
#X obj 1188 835 spigot;
#X obj 1227 811 tgl 19 0 empty empty empty 0 -10 0 12 #fcfcfc #000000 #000000 0 1;
#X obj 1227 787 r \$0-interleave-right;
#X text 50 329 note to self: throughout this patch \, i called the two sequence inputs "left" and "right" but they have nothing to do with panning or stereo space. i probably should have called them "sequence a" and "sequence b" or something...;
#X text 27 469 generate random per-step biases for interleave mode;
#X text 18 739 evaluate current step bias for interleave mode;
#X obj 1379 201 print UNKNOWN_PARAM;
#X obj 1281 64 clip 0 1;
#X obj 1281 88 s \$0-balance;
#X obj 1382 64 bng 19 250 50 0 empty empty empty 0 -10 0 12 #fcfcfc #000000 #000000;
#X obj 1382 88 s \$0-reroll;
#X obj 1474 64 tgl 19 0 empty empty empty 0 -10 0 12 #fcfcfc #000000 #000000 0 1;
#X obj 1474 88 s \$0-mode;
#X obj 752 18 inlet left-sequence;
#X obj 1042 18 inlet right-sequence;
#X obj 147 13 inlet beat;
#X obj 1281 16 inlet params;
#X obj 833 340 t b b, f 14;
#X obj 147 37 t b b f, f 40;
#X obj 1548 87 clip 0 1;
#X obj 1548 111 s \$0-maybe;
#X obj 930 1013 r \$0-maybe;
#X obj 1454 141 loadbang;
#X msg 1454 165 1;
#X text 1274 427 TODO: add velocity too \, and add a mode where we can play both sequences but have the velocity be higher for one or the other. if the velocity is below a certain threshold \, we won't emit that value at all so as not to change the pitch of the synth \, but if otherwise we can interject velocity of like 0.4 in between other velocities \, for instance. and for the other modes \, change them to always just emit velocity of 1;
#X obj 181 139 table \$0-densities 2048;
#X obj 201 511 countrange 0 2048;
#X obj 201 535 t b f, f 21;
#X obj 201 583 / 10000;
#X obj 201 559 randrange 0 10001;
#X obj 201 607 tabwrite \$0-densities;
#X obj 1291 177 route density;
#X obj 1281 40 route balance reroll mode maybe, f 44;
#X obj 1291 201 clip 0 1;
#X obj 1291 225 s \$0-density;
#X obj 878 1080 r \$0-density;
#X obj 821 1080 t f b, f 6;
#X obj 821 1176 spigot;
#X obj 860 1152 tgl 19 0 empty empty empty 0 -10 0 12 #fcfcfc #000000 #000000 0 1;
#X obj 860 1104 f;
#X obj 424 61 t b f f, f 28;
#X obj 556 174 tabread \$0-densities;
#X obj 556 198 s \$0-current-beat-density;
#X obj 892 1104 r \$0-current-beat-density;
#X obj 860 1128 >=, f 5;
#X obj 821 1037 maybe 1;
#X obj 507 749 t f b;
#X obj 738 749 t f b;
#X obj 957 859 t f b;
#X obj 1188 859 t f b;
#N canvas 208 246 450 300 modefilter 0;
#X obj 173 39 r \$0-mode;
#X obj 143 92 == 0;
#X obj 272 110 == 1;
#X obj 143 116 tgl 19 0 empty empty empty 0 -10 0 12 #fcfcfc #000000 #000000 0 1;
#X obj 272 134 tgl 19 0 empty empty empty 0 -10 0 12 #fcfcfc #000000 #000000 0 1;
#X obj 105 155 spigot;
#X obj 229 173 spigot;
#X obj 89 24 inlet;
#X obj 105 185 outlet;
#X obj 89 48 t f f;
#X obj 229 197 outlet;
#X connect 0 0 1 0;
#X connect 0 0 2 0;
#X connect 1 0 3 0;
#X connect 2 0 4 0;
#X connect 3 0 5 1;
#X connect 4 0 6 1;
#X connect 5 0 8 0;
#X connect 6 0 10 0;
#X connect 7 0 9 0;
#X connect 9 0 5 0;
#X connect 9 1 6 0;
#X restore 87 813 pd modefilter;
#X text 10 813 interleave;
#X text 196 813 interpolate;
#X obj 1171 912 r \$0-balance;
#X obj 1171 936 t f f, f 12;
#X obj 1234 1094 f;
#X obj 1153 1094 f;
#X obj 1154 1248 outlet;
#X obj 1154 1224 f;
#X obj 821 1200 t f b, f 48;
#X obj 1171 960 scaled 0.5 1 1 0;
#X obj 1252 984 scaled 0 0.5 0 1;
#X connect 0 0 64 0;
#X connect 0 1 7 0;
#X connect 1 0 65 0;
#X connect 1 1 8 0;
#X connect 3 0 0 1;
#X connect 4 0 1 1;
#X connect 5 0 35 0;
#X connect 6 0 36 0;
#X connect 7 0 11 0;
#X connect 8 0 11 1;
#X connect 9 0 10 0;
#X connect 10 0 0 2;
#X connect 10 1 1 2;
#X connect 11 0 12 0;
#X connect 13 0 47 0;
#X connect 13 0 106 0;
#X connect 13 1 48 0;
#X connect 13 1 56 0;
#X connect 14 0 131 0;
#X connect 15 0 33 0;
#X connect 16 0 20 0;
#X connect 17 0 20 0;
#X connect 18 0 22 0;
#X connect 19 0 22 0;
#X connect 20 0 21 1;
#X connect 21 0 13 0;
#X connect 22 0 23 1;
#X connect 23 0 32 0;
#X connect 24 0 16 0;
#X connect 24 1 17 0;
#X connect 25 0 38 0;
#X connect 26 0 18 0;
#X connect 26 1 19 0;
#X connect 27 0 29 0;
#X connect 28 0 29 0;
#X connect 29 0 34 0;
#X connect 30 0 37 0;
#X connect 31 0 27 0;
#X connect 31 1 28 0;
#X connect 32 0 49 0;
#X connect 32 0 108 0;
#X connect 32 1 50 0;
#X connect 32 1 56 0;
#X connect 33 0 24 0;
#X connect 33 1 26 0;
#X connect 33 2 31 0;
#X connect 34 0 30 1;
#X connect 34 1 25 1;
#X connect 35 0 21 0;
#X connect 35 1 30 0;
#X connect 36 0 23 0;
#X connect 36 1 25 0;
#X connect 37 0 51 0;
#X connect 37 0 112 0;
#X connect 37 1 52 0;
#X connect 37 1 59 0;
#X connect 38 0 53 0;
#X connect 38 0 114 0;
#X connect 38 1 54 0;
#X connect 38 1 62 0;
#X connect 43 0 45 0;
#X connect 44 0 46 0;
#X connect 45 0 0 0;
#X connect 46 0 1 0;
#X connect 48 0 170 0;
#X connect 50 0 169 0;
#X connect 52 0 170 0;
#X connect 54 0 169 0;
#X connect 55 0 159 0;
#X connect 56 0 55 0;
#X connect 56 1 57 0;
#X connect 58 0 60 0;
#X connect 59 0 63 0;
#X connect 60 0 59 1;
#X connect 61 0 62 1;
#X connect 62 0 63 1;
#X connect 63 0 56 0;
#X connect 66 0 5 1;
#X connect 67 0 6 1;
#X connect 76 0 77 0;
#X connect 77 0 78 0;
#X connect 79 0 80 0;
#X connect 79 0 140 0;
#X connect 80 0 81 0;
#X connect 81 0 83 0;
#X connect 81 1 84 1;
#X connect 82 0 84 0;
#X connect 83 0 82 0;
#X connect 88 0 94 0;
#X connect 90 0 93 0;
#X connect 91 0 93 1;
#X connect 92 0 99 0;
#X connect 92 1 102 0;
#X connect 93 0 164 0;
#X connect 94 0 89 0;
#X connect 99 0 100 0;
#X connect 99 1 101 0;
#X connect 100 0 97 0;
#X connect 101 0 98 0;
#X connect 102 0 103 0;
#X connect 102 1 104 0;
#X connect 103 0 98 0;
#X connect 104 0 97 0;
#X connect 105 0 107 0;
#X connect 106 0 160 0;
#X connect 107 0 106 1;
#X connect 108 0 161 0;
#X connect 109 0 108 1;
#X connect 110 0 109 0;
#X connect 111 0 113 0;
#X connect 112 0 162 0;
#X connect 113 0 112 1;
#X connect 114 0 163 0;
#X connect 115 0 114 1;
#X connect 116 0 115 0;
#X connect 121 0 122 0;
#X connect 123 0 124 0;
#X connect 125 0 126 0;
#X connect 127 0 43 0;
#X connect 128 0 44 0;
#X connect 129 0 132 0;
#X connect 130 0 146 0;
#X connect 131 0 5 0;
#X connect 131 1 6 0;
#X connect 132 0 2 0;
#X connect 132 1 86 0;
#X connect 132 2 154 0;
#X connect 133 0 134 0;
#X connect 135 0 159 1;
#X connect 136 0 137 0;
#X connect 137 0 133 0;
#X connect 140 0 141 0;
#X connect 141 0 143 0;
#X connect 141 1 144 1;
#X connect 142 0 144 0;
#X connect 143 0 142 0;
#X connect 145 0 147 0;
#X connect 145 1 120 0;
#X connect 146 0 121 0;
#X connect 146 1 123 0;
#X connect 146 2 125 0;
#X connect 146 3 133 0;
#X connect 146 4 145 0;
#X connect 147 0 148 0;
#X connect 149 0 153 1;
#X connect 150 0 151 0;
#X connect 150 1 153 0;
#X connect 151 0 173 0;
#X connect 152 0 151 1;
#X connect 153 0 158 0;
#X connect 154 0 87 0;
#X connect 154 1 88 0;
#X connect 154 2 155 0;
#X connect 155 0 156 0;
#X connect 157 0 158 1;
#X connect 158 0 152 0;
#X connect 159 0 150 0;
#X connect 160 0 56 0;
#X connect 160 1 170 0;
#X connect 161 0 56 0;
#X connect 161 1 169 0;
#X connect 162 0 56 0;
#X connect 162 1 170 0;
#X connect 163 0 56 0;
#X connect 163 1 169 0;
#X connect 164 0 92 0;
#X connect 167 0 168 0;
#X connect 168 0 174 0;
#X connect 168 1 175 0;
#X connect 169 0 172 1;
#X connect 170 0 172 1;
#X connect 172 0 171 0;
#X connect 173 0 39 0;
#X connect 173 1 172 0;
#X connect 174 0 170 1;
#X connect 175 0 169 1;
