#N canvas 0 38 1512 884 12;
#X obj 114 830 outlet;
#X obj 958 89 inlet;
#X text 37 2 --- weaver :) ---;
#X obj 1 26 vradio 19 1 0 2 empty empty empty 0 -10 0 12 #fcfcfc #000000 #000000 0;
#X obj 1 63 mspparam balance 0 1 0.5;
#X text 26 26 interleave;
#X text 26 43 interpolate;
#X obj 186 44 bng 19 250 50 0 empty empty reroll -23 -10 0 12 #fcfcfc #000000 #000000;
#X msg 18 296 mode \$1;
#X obj 1228 167 print UNKNOWN_PARAM;
#X msg 163 176 reroll;
#X obj 1 81 mspparam maybe 0 1 1;
#X obj 1 99 mspparam density 0 1 1;
#X obj 958 112 route balance reroll mode maybe density;
#X connect 1 0 13 0;
#X connect 3 0 8 0;
#X connect 4 0 0 0;
#X connect 7 0 10 0;
#X connect 8 0 0 0;
#X connect 10 0 0 0;
#X connect 11 0 0 0;
#X connect 12 0 0 0;
#X connect 13 0 4 0;
#X connect 13 1 7 0;
#X connect 13 2 3 0;
#X connect 13 3 11 0;
#X connect 13 4 12 0;
#X connect 13 5 9 0;
#X coords 0 -1 1 1 204 116 2 1 1;
