#N canvas 296 168 246 177 12;
#X obj 143 105 bng 19 250 50 0 empty empty empty 0 -10 0 12 #fcfcfc #000000 #000000;
#X obj 19 129 outlet;
#X obj 19 88 randwalk \$1 \$2;
#X obj 143 81 loadbang;
#X obj 62 22 loadbang;
#X obj 62 46 deff \$1 500;
#X obj 152 22 loadbang;
#X obj 152 46 deff \$2 500;
#X connect 0 0 2 0;
#X connect 2 0 1 0;
#X connect 2 1 0 0;
#X connect 3 0 0 0;
#X connect 4 0 5 0;
#X connect 5 0 2 1;
#X connect 6 0 7 0;
#X connect 7 0 2 2;
