#N canvas 121 159 615 593 12;
#X obj 51 122 bng 15 250 50 0 empty empty empty 17 7 0 10 #fcfcfc #000000
#000000;
#X obj 51 520 outlet;
#X obj 51 496 t b b b, f 18;
#X obj 174 521 randrange;
#X obj 112 520 del;
#X obj 228 104 inlet;
#X obj 228 128 deff \$1 80;
#X obj 333 105 inlet;
#X obj 228 486 -;
#X obj 260 486 +;
#X text 184 82 ms between ticks;
#X obj 51 50 inlet;
#X obj 51 142 spigot, f 7;
#X obj 51 98 sel 1;
#X text 327 81 % wonkiness;
#X obj 333 129 clip 0 1;
#X obj 333 257 f;
#X obj 333 233 t b f;
#X obj 333 281 *, f 5;
#X floatatom 333 305 5 0 0 0 - - - 0;
#X obj 228 152 t f f b f, f 16;
#X obj 333 209 f;
#X obj 333 328 t f f, f 7;
#X obj 333 352 t b f;
#X obj 379 352 t b f;
#X obj 51 74 t f f, f 7;
#X floatatom 290 525 5 0 0 0 - - - 0;
#X floatatom 331 525 5 0 0 0 - - - 0;
#X connect 0 0 12 0;
#X connect 2 0 1 0;
#X connect 2 1 4 0;
#X connect 2 2 3 0;
#X connect 3 0 4 1;
#X connect 4 0 0 0;
#X connect 5 0 6 0;
#X connect 6 0 20 0;
#X connect 7 0 15 0;
#X connect 8 0 3 1;
#X connect 8 0 26 0;
#X connect 9 0 3 2;
#X connect 9 0 27 0;
#X connect 11 0 25 0;
#X connect 12 0 2 0;
#X connect 13 0 0 0;
#X connect 15 0 21 0;
#X connect 16 0 18 0;
#X connect 17 0 16 0;
#X connect 17 1 18 1;
#X connect 18 0 19 0;
#X connect 19 0 22 0;
#X connect 20 0 8 0;
#X connect 20 1 9 0;
#X connect 20 2 21 0;
#X connect 20 3 16 1;
#X connect 21 0 17 0;
#X connect 22 0 23 0;
#X connect 22 1 24 0;
#X connect 23 0 8 0;
#X connect 23 1 8 1;
#X connect 24 0 9 0;
#X connect 24 1 9 1;
#X connect 25 0 13 0;
#X connect 25 1 12 1;
